<svg id="Layer_1" xmlns="http://www.w3.org/2000/svg" xmlns:xlink="http://www.w3.org/1999/xlink" viewBox="0 0 157.3 157.3"><style>.st0{opacity:5.000000e-002;clip-path:url(#SVGID_2_);} .st1{fill:#010202;} .st2{fill:#324654;}</style><defs><circle id="SVGID_1_" cx="78.7" cy="79.8" r="78.7"/></defs><use xlink:href="#SVGID_1_" overflow="visible" opacity=".1" fill="#010202"/><clipPath id="SVGID_2_"><use xlink:href="#SVGID_1_" overflow="visible" opacity=".1"/></clipPath><g id="Paper_Airplane_x40_2x.png" class="st0"><path class="st1" d="M114.5 144.4l1.4-1.4c.3-.3.4-.6.4-1 0-.8-.6-1.4-1.4-1.4-.4 0-.8.2-1 .4l-1.4 1.4c-.3.3-.4.6-.4 1 0 .8.6 1.4 1.4 1.4.4 0 .7-.1 1-.4zm9-1c0-.8-.6-1.4-1.4-1.4-.4 0-.8.2-1 .4l-14.4 14.4c-.3.3-.4.6-.4 1 0 .8.6 1.4 1.4 1.4.4 0 .8-.2 1-.4l14.4-14.4c.3-.3.4-.6.4-1zm0 5.7c-.4 0-.8.2-1 .4l-4.3 4.3c-.3.3-.4.6-.4 1 0 .8.6 1.4 1.4 1.4.4 0 .8-.2 1-.4l4.3-4.3c.3-.3.4-.6.4-1 .1-.7-.6-1.4-1.4-1.4zm40.3-46c0-.8-.6-1.4-1.4-1.4-.2 0-.4.1-.6.2l-60.3 25.9h-.1c-.5.2-.8.7-.8 1.3 0 .7.4 1.2 1 1.4l23.8 9.8 9.8 23.8c.2.6.7 1 1.4 1 .6 0 1.1-.3 1.3-.8v-.1l25.9-60.3c-.1-.4 0-.6 0-.8zM105.7 129l50.4-21.6-30 30-20.4-8.4zm30.8 30.8l-8.4-20.4 30-30-21.6 50.4z"/><path class="st1" d="M114 143.9l1.4-1.4c.3-.3.4-.6.4-1 0-.8-.6-1.4-1.4-1.4-.4 0-.8.2-1 .4l-1.4 1.4c-.3.3-.4.6-.4 1 0 .8.6 1.4 1.4 1.4.4 0 .7-.1 1-.4zm9-1c0-.8-.6-1.4-1.4-1.4-.4 0-.8.2-1 .4l-14.4 14.4c-.3.3-.4.6-.4 1 0 .8.6 1.4 1.4 1.4.4 0 .8-.2 1-.4l14.4-14.4c.3-.3.4-.6.4-1zm0 5.7c-.4 0-.8.2-1 .4l-4.3 4.3c-.3.3-.4.6-.4 1 0 .8.6 1.4 1.4 1.4.4 0 .8-.2 1-.4l4.3-4.3c.3-.3.4-.6.4-1 .1-.7-.6-1.4-1.4-1.4zm40.3-46c0-.8-.6-1.4-1.4-1.4-.2 0-.4.1-.6.2L101 127.3h-.1c-.5.2-.8.7-.8 1.3 0 .7.4 1.2 1 1.4l23.8 9.8 9.8 23.8c.2.6.7 1 1.4 1 .6 0 1.1-.3 1.3-.8v-.1l25.9-60.3c-.1-.4 0-.6 0-.8zm-58.1 25.9l50.4-21.6-30 30-20.4-8.4zm30.8 30.8l-8.4-20.4 30-30-21.6 50.4z"/><path class="st1" d="M113.5 143.4l1.4-1.4c.3-.3.4-.6.4-1 0-.8-.6-1.4-1.4-1.4-.4 0-.8.2-1 .4l-1.4 1.4c-.3.3-.4.6-.4 1 0 .8.6 1.4 1.4 1.4.4 0 .7-.1 1-.4zm9-1c0-.8-.6-1.4-1.4-1.4-.4 0-.8.2-1 .4l-14.4 14.4c-.3.3-.4.6-.4 1 0 .8.6 1.4 1.4 1.4.4 0 .8-.2 1-.4l14.4-14.4c.3-.3.4-.6.4-1zm0 5.7c-.4 0-.8.2-1 .4l-4.3 4.3c-.3.3-.4.6-.4 1 0 .8.6 1.4 1.4 1.4.4 0 .8-.2 1-.4l4.3-4.3c.3-.3.4-.6.4-1 .1-.7-.6-1.4-1.4-1.4zm40.3-46c0-.8-.6-1.4-1.4-1.4-.2 0-.4.1-.6.2l-60.3 25.9h-.1c-.5.2-.8.7-.8 1.3 0 .7.4 1.2 1 1.4l23.8 9.8 9.8 23.8c.2.6.7 1 1.4 1 .6 0 1.1-.3 1.3-.8v-.1l25.9-60.3c-.1-.4 0-.6 0-.8zM104.7 128l50.4-21.6-30 30-20.4-8.4zm30.8 30.8l-8.4-20.4 30-30-21.6 50.4z"/><path class="st1" d="M113 142.9l1.4-1.4c.3-.3.4-.6.4-1 0-.8-.6-1.4-1.4-1.4-.4 0-.8.2-1 .4l-1.4 1.4c-.3.3-.4.6-.4 1 0 .8.6 1.4 1.4 1.4.4 0 .7-.1 1-.4zm9-1c0-.8-.6-1.4-1.4-1.4-.4 0-.8.2-1 .4l-14.4 14.4c-.3.3-.4.6-.4 1 0 .8.6 1.4 1.4 1.4.4 0 .8-.2 1-.4l14.4-14.4c.3-.3.4-.6.4-1zm0 5.7c-.4 0-.8.2-1 .4l-4.3 4.3c-.3.3-.4.6-.4 1 0 .8.6 1.4 1.4 1.4.4 0 .8-.2 1-.4l4.3-4.3c.3-.3.4-.6.4-1 .1-.7-.6-1.4-1.4-1.4zm40.3-46c0-.8-.6-1.4-1.4-1.4-.2 0-.4.1-.6.2L100 126.3h-.1c-.5.2-.8.7-.8 1.3 0 .7.4 1.2 1 1.4l23.8 9.8 9.8 23.8c.2.6.7 1 1.4 1 .6 0 1.1-.3 1.3-.8v-.1l25.9-60.3c-.1-.4 0-.6 0-.8zm-58.1 25.9l50.4-21.6-30 30-20.4-8.4zm30.8 30.8l-8.4-20.4 30-30-21.6 50.4z"/><path class="st1" d="M112.5 142.4l1.4-1.4c.3-.3.4-.6.4-1 0-.8-.6-1.4-1.4-1.4-.4 0-.8.2-1 .4l-1.4 1.4c-.3.3-.4.6-.4 1 0 .8.6 1.4 1.4 1.4.4 0 .7-.1 1-.4zm9-1c0-.8-.6-1.4-1.4-1.4-.4 0-.8.2-1 .4l-14.4 14.4c-.3.3-.4.6-.4 1 0 .8.6 1.4 1.4 1.4.4 0 .8-.2 1-.4l14.4-14.4c.3-.3.4-.6.4-1zm0 5.7c-.4 0-.8.2-1 .4l-4.3 4.3c-.3.3-.4.6-.4 1 0 .8.6 1.4 1.4 1.4.4 0 .8-.2 1-.4l4.3-4.3c.3-.3.4-.6.4-1 .1-.7-.6-1.4-1.4-1.4zm40.3-46c0-.8-.6-1.4-1.4-1.4-.2 0-.4.1-.6.2l-60.3 25.9h-.1c-.5.2-.8.7-.8 1.3 0 .7.4 1.2 1 1.4l23.8 9.8 9.8 23.8c.2.6.7 1 1.4 1 .6 0 1.1-.3 1.3-.8v-.1l25.9-60.3c-.1-.4 0-.6 0-.8zM103.7 127l50.4-21.6-30 30-20.4-8.4zm30.8 30.8l-8.4-20.4 30-30-21.6 50.4z"/><path class="st1" d="M112 141.9l1.4-1.4c.3-.3.4-.6.4-1 0-.8-.6-1.4-1.4-1.4-.4 0-.8.2-1 .4l-1.4 1.4c-.3.3-.4.6-.4 1 0 .8.6 1.4 1.4 1.4.4 0 .7-.1 1-.4zm9-1c0-.8-.6-1.4-1.4-1.4-.4 0-.8.2-1 .4l-14.4 14.4c-.3.3-.4.6-.4 1 0 .8.6 1.4 1.4 1.4.4 0 .8-.2 1-.4l14.4-14.4c.3-.3.4-.6.4-1zm0 5.7c-.4 0-.8.2-1 .4l-4.3 4.3c-.3.3-.4.6-.4 1 0 .8.6 1.4 1.4 1.4.4 0 .8-.2 1-.4l4.3-4.3c.3-.3.4-.6.4-1 .1-.7-.6-1.4-1.4-1.4zm40.3-46c0-.8-.6-1.4-1.4-1.4-.2 0-.4.1-.6.2L99 125.3h-.1c-.5.2-.8.7-.8 1.3 0 .7.4 1.2 1 1.4l23.8 9.8 9.8 23.8c.2.6.7 1 1.4 1 .6 0 1.1-.3 1.3-.8v-.1l25.9-60.3c-.1-.4 0-.6 0-.8zm-58.1 25.9l50.4-21.6-30 30-20.4-8.4zm30.8 30.8l-8.4-20.4 30-30-21.6 50.4z"/><path class="st1" d="M111.5 141.4l1.4-1.4c.3-.3.4-.6.4-1 0-.8-.6-1.4-1.4-1.4-.4 0-.8.2-1 .4l-1.4 1.4c-.3.3-.4.6-.4 1 0 .8.6 1.4 1.4 1.4.4 0 .7-.1 1-.4zm9-1c0-.8-.6-1.4-1.4-1.4-.4 0-.8.2-1 .4l-14.4 14.4c-.3.3-.4.6-.4 1 0 .8.6 1.4 1.4 1.4.4 0 .8-.2 1-.4l14.4-14.4c.3-.3.4-.6.4-1zm0 5.7c-.4 0-.8.2-1 .4l-4.3 4.3c-.3.3-.4.6-.4 1 0 .8.6 1.4 1.4 1.4.4 0 .8-.2 1-.4l4.3-4.3c.3-.3.4-.6.4-1 .1-.7-.6-1.4-1.4-1.4zm40.3-46c0-.8-.6-1.4-1.4-1.4-.2 0-.4.1-.6.2l-60.3 25.9h-.1c-.5.2-.8.7-.8 1.3 0 .7.4 1.2 1 1.4l23.8 9.8 9.8 23.8c.2.6.7 1 1.4 1 .6 0 1.1-.3 1.3-.8v-.1l25.9-60.3c-.1-.4 0-.6 0-.8zM102.7 126l50.4-21.6-30 30-20.4-8.4zm30.8 30.8l-8.4-20.4 30-30-21.6 50.4z"/><path class="st1" d="M111 140.9l1.4-1.4c.3-.3.4-.6.4-1 0-.8-.6-1.4-1.4-1.4-.4 0-.8.2-1 .4l-1.4 1.4c-.3.3-.4.6-.4 1 0 .8.6 1.4 1.4 1.4.4 0 .7-.1 1-.4zm9-1c0-.8-.6-1.4-1.4-1.4-.4 0-.8.2-1 .4l-14.4 14.4c-.3.3-.4.6-.4 1 0 .8.6 1.4 1.4 1.4.4 0 .8-.2 1-.4l14.4-14.4c.3-.3.4-.6.4-1zm0 5.7c-.4 0-.8.2-1 .4l-4.3 4.3c-.3.3-.4.6-.4 1 0 .8.6 1.4 1.4 1.4.4 0 .8-.2 1-.4l4.3-4.3c.3-.3.4-.6.4-1 .1-.7-.6-1.4-1.4-1.4zm40.3-46c0-.8-.6-1.4-1.4-1.4-.2 0-.4.1-.6.2L98 124.3h-.1c-.5.2-.8.7-.8 1.3 0 .7.4 1.2 1 1.4l23.8 9.8 9.8 23.8c.2.6.7 1 1.4 1 .6 0 1.1-.3 1.3-.8v-.1l25.9-60.3c-.1-.4 0-.6 0-.8zm-58.1 25.9l50.4-21.6-30 30-20.4-8.4zm30.8 30.8l-8.4-20.4 30-30-21.6 50.4z"/><path class="st1" d="M110.5 140.4l1.4-1.4c.3-.3.4-.6.4-1 0-.8-.6-1.4-1.4-1.4-.4 0-.8.2-1 .4l-1.4 1.4c-.3.3-.4.6-.4 1 0 .8.6 1.4 1.4 1.4.4 0 .7-.1 1-.4zm9-1c0-.8-.6-1.4-1.4-1.4-.4 0-.8.2-1 .4l-14.4 14.4c-.3.3-.4.6-.4 1 0 .8.6 1.4 1.4 1.4.4 0 .8-.2 1-.4l14.4-14.4c.3-.3.4-.6.4-1zm0 5.7c-.4 0-.8.2-1 .4l-4.3 4.3c-.3.3-.4.6-.4 1 0 .8.6 1.4 1.4 1.4.4 0 .8-.2 1-.4l4.3-4.3c.3-.3.4-.6.4-1 .1-.7-.6-1.4-1.4-1.4zm40.3-46c0-.8-.6-1.4-1.4-1.4-.2 0-.4.1-.6.2l-60.3 25.9h-.1c-.5.2-.8.7-.8 1.3 0 .7.4 1.2 1 1.4l23.8 9.8 9.8 23.8c.2.6.7 1 1.4 1 .6 0 1.1-.3 1.3-.8v-.1l25.9-60.3c-.1-.4 0-.6 0-.8zM101.7 125l50.4-21.6-30 30-20.4-8.4zm30.8 30.8l-8.4-20.4 30-30-21.6 50.4z"/><path class="st1" d="M110 139.9l1.4-1.4c.3-.3.4-.6.4-1 0-.8-.6-1.4-1.4-1.4-.4 0-.8.2-1 .4l-1.4 1.4c-.3.3-.4.6-.4 1 0 .8.6 1.4 1.4 1.4.4 0 .7-.1 1-.4zm9-1c0-.8-.6-1.4-1.4-1.4-.4 0-.8.2-1 .4l-14.4 14.4c-.3.3-.4.6-.4 1 0 .8.6 1.4 1.4 1.4.4 0 .8-.2 1-.4l14.4-14.4c.3-.3.4-.6.4-1zm0 5.7c-.4 0-.8.2-1 .4l-4.3 4.3c-.3.3-.4.6-.4 1 0 .8.6 1.4 1.4 1.4.4 0 .8-.2 1-.4l4.3-4.3c.3-.3.4-.6.4-1 .1-.7-.6-1.4-1.4-1.4zm40.3-46c0-.8-.6-1.4-1.4-1.4-.2 0-.4.1-.6.2L97 123.3h-.1c-.5.2-.8.7-.8 1.3 0 .7.4 1.2 1 1.4l23.8 9.8 9.8 23.8c.2.6.7 1 1.4 1 .6 0 1.1-.3 1.3-.8v-.1l25.9-60.3c-.1-.4 0-.6 0-.8zm-58.1 25.9l50.4-21.6-30 30-20.4-8.4zm30.8 30.8l-8.4-20.4 30-30-21.6 50.4z"/><path class="st1" d="M109.5 139.4l1.4-1.4c.3-.3.4-.6.4-1 0-.8-.6-1.4-1.4-1.4-.4 0-.8.2-1 .4l-1.4 1.4c-.3.3-.4.6-.4 1 0 .8.6 1.4 1.4 1.4.4 0 .7-.1 1-.4zm9-1c0-.8-.6-1.4-1.4-1.4-.4 0-.8.2-1 .4l-14.4 14.4c-.3.3-.4.6-.4 1 0 .8.6 1.4 1.4 1.4.4 0 .8-.2 1-.4l14.4-14.4c.3-.3.4-.6.4-1zm0 5.7c-.4 0-.8.2-1 .4l-4.3 4.3c-.3.3-.4.6-.4 1 0 .8.6 1.4 1.4 1.4.4 0 .8-.2 1-.4l4.3-4.3c.3-.3.4-.6.4-1 .1-.7-.6-1.4-1.4-1.4zm40.3-46c0-.8-.6-1.4-1.4-1.4-.2 0-.4.1-.6.2l-60.3 25.9h-.1c-.5.2-.8.7-.8 1.3 0 .7.4 1.2 1 1.4l23.8 9.8 9.8 23.8c.2.6.7 1 1.4 1 .6 0 1.1-.3 1.3-.8v-.1l25.9-60.3c-.1-.4 0-.6 0-.8zM100.7 124l50.4-21.6-30 30-20.4-8.4zm30.8 30.8l-8.4-20.4 30-30-21.6 50.4z"/><path class="st1" d="M109 138.9l1.4-1.4c.3-.3.4-.6.4-1 0-.8-.6-1.4-1.4-1.4-.4 0-.8.2-1 .4l-1.4 1.4c-.3.3-.4.6-.4 1 0 .8.6 1.4 1.4 1.4.4 0 .7-.1 1-.4zm9-1c0-.8-.6-1.4-1.4-1.4-.4 0-.8.2-1 .4l-14.4 14.4c-.3.3-.4.6-.4 1 0 .8.6 1.4 1.4 1.4.4 0 .8-.2 1-.4l14.4-14.4c.3-.3.4-.6.4-1zm0 5.7c-.4 0-.8.2-1 .4l-4.3 4.3c-.3.3-.4.6-.4 1 0 .8.6 1.4 1.4 1.4.4 0 .8-.2 1-.4l4.3-4.3c.3-.3.4-.6.4-1 .1-.7-.6-1.4-1.4-1.4zm40.3-46c0-.8-.6-1.4-1.4-1.4-.2 0-.4.1-.6.2L96 122.3h-.1c-.5.2-.8.7-.8 1.3 0 .7.4 1.2 1 1.4l23.8 9.8 9.8 23.8c.2.6.7 1 1.4 1 .6 0 1.1-.3 1.3-.8v-.1l25.9-60.3c-.1-.4 0-.6 0-.8zm-58.1 25.9l50.4-21.6-30 30-20.4-8.4zm30.8 30.8l-8.4-20.4 30-30-21.6 50.4z"/><path class="st1" d="M108.5 138.4l1.4-1.4c.3-.3.4-.6.4-1 0-.8-.6-1.4-1.4-1.4-.4 0-.8.2-1 .4l-1.4 1.4c-.3.3-.4.6-.4 1 0 .8.6 1.4 1.4 1.4.4 0 .7-.1 1-.4zm9-1c0-.8-.6-1.4-1.4-1.4-.4 0-.8.2-1 .4l-14.4 14.4c-.3.3-.4.6-.4 1 0 .8.6 1.4 1.4 1.4.4 0 .8-.2 1-.4l14.4-14.4c.3-.3.4-.6.4-1zm0 5.7c-.4 0-.8.2-1 .4l-4.3 4.3c-.3.3-.4.6-.4 1 0 .8.6 1.4 1.4 1.4.4 0 .8-.2 1-.4l4.3-4.3c.3-.3.4-.6.4-1 .1-.7-.6-1.4-1.4-1.4zm40.3-46c0-.8-.6-1.4-1.4-1.4-.2 0-.4.1-.6.2l-60.3 25.9h-.1c-.5.2-.8.7-.8 1.3 0 .7.4 1.2 1 1.4l23.8 9.8 9.8 23.8c.2.6.7 1 1.4 1 .6 0 1.1-.3 1.3-.8v-.1l25.9-60.3c-.1-.4 0-.6 0-.8zM99.7 123l50.4-21.6-30 30-20.4-8.4zm30.8 30.8l-8.4-20.4 30-30-21.6 50.4z"/><path class="st1" d="M108 137.9l1.4-1.4c.3-.3.4-.6.4-1 0-.8-.6-1.4-1.4-1.4-.4 0-.8.2-1 .4l-1.4 1.4c-.3.3-.4.6-.4 1 0 .8.6 1.4 1.4 1.4.4 0 .7-.1 1-.4zm9-1c0-.8-.6-1.4-1.4-1.4-.4 0-.8.2-1 .4l-14.4 14.4c-.3.3-.4.6-.4 1 0 .8.6 1.4 1.4 1.4.4 0 .8-.2 1-.4l14.4-14.4c.3-.3.4-.6.4-1zm0 5.7c-.4 0-.8.2-1 .4l-4.3 4.3c-.3.3-.4.6-.4 1 0 .8.6 1.4 1.4 1.4.4 0 .8-.2 1-.4l4.3-4.3c.3-.3.4-.6.4-1 .1-.7-.6-1.4-1.4-1.4zm40.3-46c0-.8-.6-1.4-1.4-1.4-.2 0-.4.1-.6.2L95 121.3h-.1c-.5.2-.8.7-.8 1.3 0 .7.4 1.2 1 1.4l23.8 9.8 9.8 23.8c.2.6.7 1 1.4 1 .6 0 1.1-.3 1.3-.8v-.1l25.9-60.3c-.1-.4 0-.6 0-.8zm-58.1 25.9l50.4-21.6-30 30-20.4-8.4zm30.8 30.8l-8.4-20.4 30-30-21.6 50.4z"/><path class="st1" d="M107.5 137.4l1.4-1.4c.3-.3.4-.6.4-1 0-.8-.6-1.4-1.4-1.4-.4 0-.8.2-1 .4l-1.4 1.4c-.3.3-.4.6-.4 1 0 .8.6 1.4 1.4 1.4.4 0 .7-.1 1-.4zm9-1c0-.8-.6-1.4-1.4-1.4-.4 0-.8.2-1 .4l-14.4 14.4c-.3.3-.4.6-.4 1 0 .8.6 1.4 1.4 1.4.4 0 .8-.2 1-.4l14.4-14.4c.3-.3.4-.6.4-1zm0 5.7c-.4 0-.8.2-1 .4l-4.3 4.3c-.3.3-.4.6-.4 1 0 .8.6 1.4 1.4 1.4.4 0 .8-.2 1-.4l4.3-4.3c.3-.3.4-.6.4-1 .1-.7-.6-1.4-1.4-1.4zm40.3-46c0-.8-.6-1.4-1.4-1.4-.2 0-.4.1-.6.2l-60.3 25.9h-.1c-.5.2-.8.7-.8 1.3 0 .7.4 1.2 1 1.4l23.8 9.8 9.8 23.8c.2.6.7 1 1.4 1 .6 0 1.1-.3 1.3-.8v-.1l25.9-60.3c-.1-.4 0-.6 0-.8zM98.7 122l50.4-21.6-30 30-20.4-8.4zm30.8 30.8l-8.4-20.4 30-30-21.6 50.4z"/><path class="st1" d="M107 136.9l1.4-1.4c.3-.3.4-.6.4-1 0-.8-.6-1.4-1.4-1.4-.4 0-.8.2-1 .4l-1.4 1.4c-.3.3-.4.6-.4 1 0 .8.6 1.4 1.4 1.4.4 0 .7-.1 1-.4zm9-1c0-.8-.6-1.4-1.4-1.4-.4 0-.8.2-1 .4l-14.4 14.4c-.3.3-.4.6-.4 1 0 .8.6 1.4 1.4 1.4.4 0 .8-.2 1-.4l14.4-14.4c.3-.3.4-.6.4-1zm0 5.7c-.4 0-.8.2-1 .4l-4.3 4.3c-.3.3-.4.6-.4 1 0 .8.6 1.4 1.4 1.4.4 0 .8-.2 1-.4l4.3-4.3c.3-.3.4-.6.4-1 .1-.7-.6-1.4-1.4-1.4zm40.3-46c0-.8-.6-1.4-1.4-1.4-.2 0-.4.1-.6.2L94 120.3h-.1c-.5.2-.8.7-.8 1.3 0 .7.4 1.2 1 1.4l23.8 9.8 9.8 23.8c.2.6.7 1 1.4 1 .6 0 1.1-.3 1.3-.8v-.1l25.9-60.3c-.1-.4 0-.6 0-.8zm-58.1 25.9l50.4-21.6-30 30-20.4-8.4zm30.8 30.8l-8.4-20.4 30-30-21.6 50.4z"/><path class="st1" d="M106.5 136.4l1.4-1.4c.3-.3.4-.6.4-1 0-.8-.6-1.4-1.4-1.4-.4 0-.8.2-1 .4l-1.4 1.4c-.3.3-.4.6-.4 1 0 .8.6 1.4 1.4 1.4.4 0 .7-.1 1-.4zm9-1c0-.8-.6-1.4-1.4-1.4-.4 0-.8.2-1 .4l-14.4 14.4c-.3.3-.4.6-.4 1 0 .8.6 1.4 1.4 1.4.4 0 .8-.2 1-.4l14.4-14.4c.3-.3.4-.6.4-1zm0 5.7c-.4 0-.8.2-1 .4l-4.3 4.3c-.3.3-.4.6-.4 1 0 .8.6 1.4 1.4 1.4.4 0 .8-.2 1-.4l4.3-4.3c.3-.3.4-.6.4-1 .1-.7-.6-1.4-1.4-1.4zm40.3-46c0-.8-.6-1.4-1.4-1.4-.2 0-.4.1-.6.2l-60.3 25.9h-.1c-.5.2-.8.7-.8 1.3 0 .7.4 1.2 1 1.4l23.8 9.8 9.8 23.8c.2.6.7 1 1.4 1 .6 0 1.1-.3 1.3-.8v-.1l25.9-60.3c-.1-.4 0-.6 0-.8zM97.7 121l50.4-21.6-30 30-20.4-8.4zm30.8 30.8l-8.4-20.4 30-30-21.6 50.4z"/><path class="st1" d="M106 135.9l1.4-1.4c.3-.3.4-.6.4-1 0-.8-.6-1.4-1.4-1.4-.4 0-.8.2-1 .4l-1.4 1.4c-.3.3-.4.6-.4 1 0 .8.6 1.4 1.4 1.4.4 0 .7-.1 1-.4zm9-1c0-.8-.6-1.4-1.4-1.4-.4 0-.8.2-1 .4l-14.4 14.4c-.3.3-.4.6-.4 1 0 .8.6 1.4 1.4 1.4.4 0 .8-.2 1-.4l14.4-14.4c.3-.3.4-.6.4-1zm0 5.7c-.4 0-.8.2-1 .4l-4.3 4.3c-.3.3-.4.6-.4 1 0 .8.6 1.4 1.4 1.4.4 0 .8-.2 1-.4l4.3-4.3c.3-.3.4-.6.4-1 .1-.7-.6-1.4-1.4-1.4zm40.3-46c0-.8-.6-1.4-1.4-1.4-.2 0-.4.1-.6.2L93 119.3h-.1c-.5.2-.8.7-.8 1.3 0 .7.4 1.2 1 1.4l23.8 9.8 9.8 23.8c.2.6.7 1 1.4 1 .6 0 1.1-.3 1.3-.8v-.1l25.9-60.3c-.1-.4 0-.6 0-.8zm-58.1 25.9l50.4-21.6-30 30-20.4-8.4zm30.8 30.8l-8.4-20.4 30-30-21.6 50.4z"/><path class="st1" d="M105.5 135.4l1.4-1.4c.3-.3.4-.6.4-1 0-.8-.6-1.4-1.4-1.4-.4 0-.8.2-1 .4l-1.4 1.4c-.3.3-.4.6-.4 1 0 .8.6 1.4 1.4 1.4.4 0 .7-.1 1-.4zm9-1c0-.8-.6-1.4-1.4-1.4-.4 0-.8.2-1 .4l-14.4 14.4c-.3.3-.4.6-.4 1 0 .8.6 1.4 1.4 1.4.4 0 .8-.2 1-.4l14.4-14.4c.3-.3.4-.6.4-1zm0 5.7c-.4 0-.8.2-1 .4l-4.3 4.3c-.3.3-.4.6-.4 1 0 .8.6 1.4 1.4 1.4.4 0 .8-.2 1-.4l4.3-4.3c.3-.3.4-.6.4-1 .1-.7-.6-1.4-1.4-1.4zm40.3-46c0-.8-.6-1.4-1.4-1.4-.2 0-.4.1-.6.2l-60.3 25.9h-.1c-.5.2-.8.7-.8 1.3 0 .7.4 1.2 1 1.4l23.8 9.8 9.8 23.8c.2.6.7 1 1.4 1 .6 0 1.1-.3 1.3-.8v-.1l25.9-60.3c-.1-.4 0-.6 0-.8zM96.7 120l50.4-21.6-30 30-20.4-8.4zm30.8 30.8l-8.4-20.4 30-30-21.6 50.4z"/><path class="st1" d="M105 134.9l1.4-1.4c.3-.3.4-.6.4-1 0-.8-.6-1.4-1.4-1.4-.4 0-.8.2-1 .4l-1.4 1.4c-.3.3-.4.6-.4 1 0 .8.6 1.4 1.4 1.4.4 0 .7-.1 1-.4zm9-1c0-.8-.6-1.4-1.4-1.4-.4 0-.8.2-1 .4l-14.4 14.4c-.3.3-.4.6-.4 1 0 .8.6 1.4 1.4 1.4.4 0 .8-.2 1-.4l14.4-14.4c.3-.3.4-.6.4-1zm0 5.7c-.4 0-.8.2-1 .4l-4.3 4.3c-.3.3-.4.6-.4 1 0 .8.6 1.4 1.4 1.4.4 0 .8-.2 1-.4l4.3-4.3c.3-.3.4-.6.4-1 .1-.7-.6-1.4-1.4-1.4zm40.3-46c0-.8-.6-1.4-1.4-1.4-.2 0-.4.1-.6.2L92 118.3h-.1c-.5.2-.8.7-.8 1.3 0 .7.4 1.2 1 1.4l23.8 9.8 9.8 23.8c.2.6.7 1 1.4 1 .6 0 1.1-.3 1.3-.8v-.1l25.9-60.3c-.1-.4 0-.6 0-.8zm-58.1 25.9l50.4-21.6-30 30-20.4-8.4zm30.8 30.8l-8.4-20.4 30-30-21.6 50.4z"/><path class="st1" d="M104.5 134.4l1.4-1.4c.3-.3.4-.6.4-1 0-.8-.6-1.4-1.4-1.4-.4 0-.8.2-1 .4l-1.4 1.4c-.3.3-.4.6-.4 1 0 .8.6 1.4 1.4 1.4.4 0 .7-.1 1-.4zm9-1c0-.8-.6-1.4-1.4-1.4-.4 0-.8.2-1 .4l-14.4 14.4c-.3.3-.4.6-.4 1 0 .8.6 1.4 1.4 1.4.4 0 .8-.2 1-.4l14.4-14.4c.3-.3.4-.6.4-1zm0 5.7c-.4 0-.8.2-1 .4l-4.3 4.3c-.3.3-.4.6-.4 1 0 .8.6 1.4 1.4 1.4.4 0 .8-.2 1-.4l4.3-4.3c.3-.3.4-.6.4-1 .1-.7-.6-1.4-1.4-1.4zm40.3-46c0-.8-.6-1.4-1.4-1.4-.2 0-.4.1-.6.2l-60.3 25.9h-.1c-.5.2-.8.7-.8 1.3 0 .7.4 1.2 1 1.4l23.8 9.8 9.8 23.8c.2.6.7 1 1.4 1 .6 0 1.1-.3 1.3-.8v-.1l25.9-60.3c-.1-.4 0-.6 0-.8zM95.7 119l50.4-21.6-30 30-20.4-8.4zm30.8 30.8l-8.4-20.4 30-30-21.6 50.4z"/><path class="st1" d="M104 133.9l1.4-1.4c.3-.3.4-.6.4-1 0-.8-.6-1.4-1.4-1.4-.4 0-.8.2-1 .4l-1.4 1.4c-.3.3-.4.6-.4 1 0 .8.6 1.4 1.4 1.4.4 0 .7-.1 1-.4zm9-1c0-.8-.6-1.4-1.4-1.4-.4 0-.8.2-1 .4l-14.4 14.4c-.3.3-.4.6-.4 1 0 .8.6 1.4 1.4 1.4.4 0 .8-.2 1-.4l14.4-14.4c.3-.3.4-.6.4-1zm0 5.7c-.4 0-.8.2-1 .4l-4.3 4.3c-.3.3-.4.6-.4 1 0 .8.6 1.4 1.4 1.4.4 0 .8-.2 1-.4l4.3-4.3c.3-.3.4-.6.4-1 .1-.7-.6-1.4-1.4-1.4zm40.3-46c0-.8-.6-1.4-1.4-1.4-.2 0-.4.1-.6.2L91 117.3h-.1c-.5.2-.8.7-.8 1.3 0 .7.4 1.2 1 1.4l23.8 9.8 9.8 23.8c.2.6.7 1 1.4 1 .6 0 1.1-.3 1.3-.8v-.1l25.9-60.3c-.1-.4 0-.6 0-.8zm-58.1 25.9l50.4-21.6-30 30-20.4-8.4zm30.8 30.8l-8.4-20.4 30-30-21.6 50.4z"/><path class="st1" d="M103.5 133.4l1.4-1.4c.3-.3.4-.6.4-1 0-.8-.6-1.4-1.4-1.4-.4 0-.8.2-1 .4l-1.4 1.4c-.3.3-.4.6-.4 1 0 .8.6 1.4 1.4 1.4.4 0 .7-.1 1-.4zm9-1c0-.8-.6-1.4-1.4-1.4-.4 0-.8.2-1 .4l-14.4 14.4c-.3.3-.4.6-.4 1 0 .8.6 1.4 1.4 1.4.4 0 .8-.2 1-.4l14.4-14.4c.3-.3.4-.6.4-1zm0 5.7c-.4 0-.8.2-1 .4l-4.3 4.3c-.3.3-.4.6-.4 1 0 .8.6 1.4 1.4 1.4.4 0 .8-.2 1-.4l4.3-4.3c.3-.3.4-.6.4-1 .1-.7-.6-1.4-1.4-1.4zm40.3-46c0-.8-.6-1.4-1.4-1.4-.2 0-.4.1-.6.2l-60.3 25.9h-.1c-.5.2-.8.7-.8 1.3 0 .7.4 1.2 1 1.4l23.8 9.8 9.8 23.8c.2.6.7 1 1.4 1 .6 0 1.1-.3 1.3-.8v-.1l25.9-60.3c-.1-.4 0-.6 0-.8zM94.7 118l50.4-21.6-30 30-20.4-8.4zm30.8 30.8l-8.4-20.4 30-30-21.6 50.4z"/><path class="st1" d="M103 132.9l1.4-1.4c.3-.3.4-.6.4-1 0-.8-.6-1.4-1.4-1.4-.4 0-.8.2-1 .4l-1.4 1.4c-.3.3-.4.6-.4 1 0 .8.6 1.4 1.4 1.4.4 0 .7-.1 1-.4zm9-1c0-.8-.6-1.4-1.4-1.4-.4 0-.8.2-1 .4l-14.4 14.4c-.3.3-.4.6-.4 1 0 .8.6 1.4 1.4 1.4.4 0 .8-.2 1-.4l14.4-14.4c.3-.3.4-.6.4-1zm0 5.7c-.4 0-.8.2-1 .4l-4.3 4.3c-.3.3-.4.6-.4 1 0 .8.6 1.4 1.4 1.4.4 0 .8-.2 1-.4l4.3-4.3c.3-.3.4-.6.4-1 .1-.7-.6-1.4-1.4-1.4zm40.3-46c0-.8-.6-1.4-1.4-1.4-.2 0-.4.1-.6.2L90 116.3h-.1c-.5.2-.8.7-.8 1.3 0 .7.4 1.2 1 1.4l23.8 9.8 9.8 23.8c.2.6.7 1 1.4 1 .6 0 1.1-.3 1.3-.8v-.1l25.9-60.3c-.1-.4 0-.6 0-.8zm-58.1 25.9l50.4-21.6-30 30-20.4-8.4zm30.8 30.8l-8.4-20.4 30-30-21.6 50.4z"/><path class="st1" d="M102.5 132.4l1.4-1.4c.3-.3.4-.6.4-1 0-.8-.6-1.4-1.4-1.4-.4 0-.8.2-1 .4l-1.4 1.4c-.3.3-.4.6-.4 1 0 .8.6 1.4 1.4 1.4.4 0 .7-.1 1-.4zm9-1c0-.8-.6-1.4-1.4-1.4-.4 0-.8.2-1 .4l-14.4 14.4c-.3.3-.4.6-.4 1 0 .8.6 1.4 1.4 1.4.4 0 .8-.2 1-.4l14.4-14.4c.3-.3.4-.6.4-1zm0 5.7c-.4 0-.8.2-1 .4l-4.3 4.3c-.3.3-.4.6-.4 1 0 .8.6 1.4 1.4 1.4.4 0 .8-.2 1-.4l4.3-4.3c.3-.3.4-.6.4-1 .1-.7-.6-1.4-1.4-1.4zm40.3-46c0-.8-.6-1.4-1.4-1.4-.2 0-.4.1-.6.2l-60.3 25.9h-.1c-.5.2-.8.7-.8 1.3 0 .7.4 1.2 1 1.4l23.8 9.8 9.8 23.8c.2.6.7 1 1.4 1 .6 0 1.1-.3 1.3-.8v-.1l25.9-60.3c-.1-.4 0-.6 0-.8zM93.7 117l50.4-21.6-30 30-20.4-8.4zm30.8 30.8l-8.4-20.4 30-30-21.6 50.4z"/><path class="st1" d="M102 131.9l1.4-1.4c.3-.3.4-.6.4-1 0-.8-.6-1.4-1.4-1.4-.4 0-.8.2-1 .4l-1.4 1.4c-.3.3-.4.6-.4 1 0 .8.6 1.4 1.4 1.4.4 0 .7-.1 1-.4zm9-1c0-.8-.6-1.4-1.4-1.4-.4 0-.8.2-1 .4l-14.4 14.4c-.3.3-.4.6-.4 1 0 .8.6 1.4 1.4 1.4.4 0 .8-.2 1-.4l14.4-14.4c.3-.3.4-.6.4-1zm0 5.7c-.4 0-.8.2-1 .4l-4.3 4.3c-.3.3-.4.6-.4 1 0 .8.6 1.4 1.4 1.4.4 0 .8-.2 1-.4l4.3-4.3c.3-.3.4-.6.4-1 .1-.7-.6-1.4-1.4-1.4zm40.3-46c0-.8-.6-1.4-1.4-1.4-.2 0-.4.1-.6.2L89 115.3h-.1c-.5.2-.8.7-.8 1.3 0 .7.4 1.2 1 1.4l23.8 9.8 9.8 23.8c.2.6.7 1 1.4 1 .6 0 1.1-.3 1.3-.8v-.1l25.9-60.3c-.1-.4 0-.6 0-.8zm-58.1 25.9l50.4-21.6-30 30-20.4-8.4zm30.8 30.8l-8.4-20.4 30-30-21.6 50.4z"/><path class="st1" d="M101.5 131.4l1.4-1.4c.3-.3.4-.6.4-1 0-.8-.6-1.4-1.4-1.4-.4 0-.8.2-1 .4l-1.4 1.4c-.3.3-.4.6-.4 1 0 .8.6 1.4 1.4 1.4.4 0 .7-.1 1-.4zm9-1c0-.8-.6-1.4-1.4-1.4-.4 0-.8.2-1 .4l-14.4 14.4c-.3.3-.4.6-.4 1 0 .8.6 1.4 1.4 1.4.4 0 .8-.2 1-.4l14.4-14.4c.3-.3.4-.6.4-1zm0 5.7c-.4 0-.8.2-1 .4l-4.3 4.3c-.3.3-.4.6-.4 1 0 .8.6 1.4 1.4 1.4.4 0 .8-.2 1-.4l4.3-4.3c.3-.3.4-.6.4-1 .1-.7-.6-1.4-1.4-1.4zm40.3-46c0-.8-.6-1.4-1.4-1.4-.2 0-.4.1-.6.2l-60.3 25.9h-.1c-.5.2-.8.7-.8 1.3 0 .7.4 1.2 1 1.4l23.8 9.8 9.8 23.8c.2.6.7 1 1.4 1 .6 0 1.1-.3 1.3-.8v-.1l25.9-60.3c-.1-.4 0-.6 0-.8zM92.7 116l50.4-21.6-30 30-20.4-8.4zm30.8 30.8l-8.4-20.4 30-30-21.6 50.4z"/><path class="st1" d="M101 130.9l1.4-1.4c.3-.3.4-.6.4-1 0-.8-.6-1.4-1.4-1.4-.4 0-.8.2-1 .4l-1.4 1.4c-.3.3-.4.6-.4 1 0 .8.6 1.4 1.4 1.4.4 0 .7-.1 1-.4zm9-1c0-.8-.6-1.4-1.4-1.4-.4 0-.8.2-1 .4l-14.4 14.4c-.3.3-.4.6-.4 1 0 .8.6 1.4 1.4 1.4.4 0 .8-.2 1-.4l14.4-14.4c.3-.3.4-.6.4-1zm0 5.7c-.4 0-.8.2-1 .4l-4.3 4.3c-.3.3-.4.6-.4 1 0 .8.6 1.4 1.4 1.4.4 0 .8-.2 1-.4l4.3-4.3c.3-.3.4-.6.4-1 .1-.7-.6-1.4-1.4-1.4zm40.3-46c0-.8-.6-1.4-1.4-1.4-.2 0-.4.1-.6.2L88 114.3h-.1c-.5.2-.8.7-.8 1.3 0 .7.4 1.2 1 1.4l23.8 9.8 9.8 23.8c.2.6.7 1 1.4 1 .6 0 1.1-.3 1.3-.8v-.1l25.9-60.3c-.1-.4 0-.6 0-.8zm-58.1 25.9l50.4-21.6-30 30-20.4-8.4zm30.8 30.8l-8.4-20.4 30-30-21.6 50.4z"/><path class="st1" d="M100.5 130.4l1.4-1.4c.3-.3.4-.6.4-1 0-.8-.6-1.4-1.4-1.4-.4 0-.8.2-1 .4l-1.4 1.4c-.3.3-.4.6-.4 1 0 .8.6 1.4 1.4 1.4.4 0 .7-.1 1-.4zm9-1c0-.8-.6-1.4-1.4-1.4-.4 0-.8.2-1 .4l-14.4 14.4c-.3.3-.4.6-.4 1 0 .8.6 1.4 1.4 1.4.4 0 .8-.2 1-.4l14.4-14.4c.3-.3.4-.6.4-1zm0 5.7c-.4 0-.8.2-1 .4l-4.3 4.3c-.3.3-.4.6-.4 1 0 .8.6 1.4 1.4 1.4.4 0 .8-.2 1-.4l4.3-4.3c.3-.3.4-.6.4-1 .1-.7-.6-1.4-1.4-1.4zm40.3-46c0-.8-.6-1.4-1.4-1.4-.2 0-.4.1-.6.2l-60.3 25.9h-.1c-.5.2-.8.7-.8 1.3 0 .7.4 1.2 1 1.4l23.8 9.8 9.8 23.8c.2.6.7 1 1.4 1 .6 0 1.1-.3 1.3-.8v-.1l25.9-60.3c-.1-.4 0-.6 0-.8zM91.7 115l50.4-21.6-30 30-20.4-8.4zm30.8 30.8l-8.4-20.4 30-30-21.6 50.4z"/><path class="st1" d="M100 129.9l1.4-1.4c.3-.3.4-.6.4-1 0-.8-.6-1.4-1.4-1.4-.4 0-.8.2-1 .4l-1.4 1.4c-.3.3-.4.6-.4 1 0 .8.6 1.4 1.4 1.4.4 0 .7-.1 1-.4zm9-1c0-.8-.6-1.4-1.4-1.4-.4 0-.8.2-1 .4l-14.4 14.4c-.3.3-.4.6-.4 1 0 .8.6 1.4 1.4 1.4.4 0 .8-.2 1-.4l14.4-14.4c.3-.3.4-.6.4-1zm0 5.7c-.4 0-.8.2-1 .4l-4.3 4.3c-.3.3-.4.6-.4 1 0 .8.6 1.4 1.4 1.4.4 0 .8-.2 1-.4l4.3-4.3c.3-.3.4-.6.4-1 .1-.7-.6-1.4-1.4-1.4zm40.3-46c0-.8-.6-1.4-1.4-1.4-.2 0-.4.1-.6.2L87 113.3h-.1c-.5.2-.8.7-.8 1.3 0 .7.4 1.2 1 1.4l23.8 9.8 9.8 23.8c.2.6.7 1 1.4 1 .6 0 1.1-.3 1.3-.8v-.1l25.9-60.3c-.1-.4 0-.6 0-.8zm-58.1 25.9l50.4-21.6-30 30-20.4-8.4zm30.8 30.8l-8.4-20.4 30-30-21.6 50.4z"/><path class="st1" d="M99.5 129.4l1.4-1.4c.3-.3.4-.6.4-1 0-.8-.6-1.4-1.4-1.4-.4 0-.8.2-1 .4l-1.4 1.4c-.3.3-.4.6-.4 1 0 .8.6 1.4 1.4 1.4.4 0 .7-.1 1-.4zm9-1c0-.8-.6-1.4-1.4-1.4-.4 0-.8.2-1 .4l-14.4 14.4c-.3.3-.4.6-.4 1 0 .8.6 1.4 1.4 1.4.4 0 .8-.2 1-.4l14.4-14.4c.3-.3.4-.6.4-1zm0 5.7c-.4 0-.8.2-1 .4l-4.3 4.3c-.3.3-.4.6-.4 1 0 .8.6 1.4 1.4 1.4.4 0 .8-.2 1-.4l4.3-4.3c.3-.3.4-.6.4-1 .1-.7-.6-1.4-1.4-1.4zm40.3-46c0-.8-.6-1.4-1.4-1.4-.2 0-.4.1-.6.2l-60.3 25.9h-.1c-.5.2-.8.7-.8 1.3 0 .7.4 1.2 1 1.4l23.8 9.8 9.8 23.8c.2.6.7 1 1.4 1 .6 0 1.1-.3 1.3-.8v-.1l25.9-60.3c-.1-.4 0-.6 0-.8zM90.7 114l50.4-21.6-30 30-20.4-8.4zm30.8 30.8l-8.4-20.4 30-30-21.6 50.4z"/><path class="st1" d="M99 128.9l1.4-1.4c.3-.3.4-.6.4-1 0-.8-.6-1.4-1.4-1.4-.4 0-.8.2-1 .4l-1.4 1.4c-.3.3-.4.6-.4 1 0 .8.6 1.4 1.4 1.4.4 0 .7-.1 1-.4zm9-1c0-.8-.6-1.4-1.4-1.4-.4 0-.8.2-1 .4l-14.4 14.4c-.3.3-.4.6-.4 1 0 .8.6 1.4 1.4 1.4.4 0 .8-.2 1-.4l14.4-14.4c.3-.3.4-.6.4-1zm0 5.7c-.4 0-.8.2-1 .4l-4.3 4.3c-.3.3-.4.6-.4 1 0 .8.6 1.4 1.4 1.4.4 0 .8-.2 1-.4l4.3-4.3c.3-.3.4-.6.4-1 .1-.7-.6-1.4-1.4-1.4zm40.3-46c0-.8-.6-1.4-1.4-1.4-.2 0-.4.1-.6.2L86 112.3h-.1c-.5.2-.8.7-.8 1.3 0 .7.4 1.2 1 1.4l23.8 9.8 9.8 23.8c.2.6.7 1 1.4 1 .6 0 1.1-.3 1.3-.8v-.1l25.9-60.3c-.1-.4 0-.6 0-.8zm-58.1 25.9l50.4-21.6-30 30-20.4-8.4zm30.8 30.8l-8.4-20.4 30-30-21.6 50.4z"/><path class="st1" d="M98.5 128.4l1.4-1.4c.3-.3.4-.6.4-1 0-.8-.6-1.4-1.4-1.4-.4 0-.8.2-1 .4l-1.4 1.4c-.3.3-.4.6-.4 1 0 .8.6 1.4 1.4 1.4.4 0 .7-.1 1-.4zm9-1c0-.8-.6-1.4-1.4-1.4-.4 0-.8.2-1 .4l-14.4 14.4c-.3.3-.4.6-.4 1 0 .8.6 1.4 1.4 1.4.4 0 .8-.2 1-.4l14.4-14.4c.3-.3.4-.6.4-1zm0 5.7c-.4 0-.8.2-1 .4l-4.3 4.3c-.3.3-.4.6-.4 1 0 .8.6 1.4 1.4 1.4.4 0 .8-.2 1-.4l4.3-4.3c.3-.3.4-.6.4-1 .1-.7-.6-1.4-1.4-1.4zm40.3-46c0-.8-.6-1.4-1.4-1.4-.2 0-.4.1-.6.2l-60.3 25.9h-.1c-.5.2-.8.7-.8 1.3 0 .7.4 1.2 1 1.4l23.8 9.8 9.8 23.8c.2.6.7 1 1.4 1 .6 0 1.1-.3 1.3-.8v-.1l25.9-60.3c-.1-.4 0-.6 0-.8zM89.7 113l50.4-21.6-30 30-20.4-8.4zm30.8 30.8l-8.4-20.4 30-30-21.6 50.4z"/><path class="st1" d="M98 127.9l1.4-1.4c.3-.3.4-.6.4-1 0-.8-.6-1.4-1.4-1.4-.4 0-.8.2-1 .4l-1.4 1.4c-.3.3-.4.6-.4 1 0 .8.6 1.4 1.4 1.4.4 0 .7-.1 1-.4zm9-1c0-.8-.6-1.4-1.4-1.4-.4 0-.8.2-1 .4l-14.4 14.4c-.3.3-.4.6-.4 1 0 .8.6 1.4 1.4 1.4.4 0 .8-.2 1-.4l14.4-14.4c.3-.3.4-.6.4-1zm0 5.7c-.4 0-.8.2-1 .4l-4.3 4.3c-.3.3-.4.6-.4 1 0 .8.6 1.4 1.4 1.4.4 0 .8-.2 1-.4l4.3-4.3c.3-.3.4-.6.4-1 .1-.7-.6-1.4-1.4-1.4zm40.3-46c0-.8-.6-1.4-1.4-1.4-.2 0-.4.1-.6.2L85 111.3h-.1c-.5.2-.8.7-.8 1.3 0 .7.4 1.2 1 1.4l23.8 9.8 9.8 23.8c.2.6.7 1 1.4 1 .6 0 1.1-.3 1.3-.8v-.1l25.9-60.3c-.1-.4 0-.6 0-.8zm-58.1 25.9l50.4-21.6-30 30-20.4-8.4zm30.8 30.8l-8.4-20.4 30-30-21.6 50.4z"/><path class="st1" d="M97.5 127.4l1.4-1.4c.3-.3.4-.6.4-1 0-.8-.6-1.4-1.4-1.4-.4 0-.8.2-1 .4l-1.4 1.4c-.3.3-.4.6-.4 1 0 .8.6 1.4 1.4 1.4.4 0 .7-.1 1-.4zm9-1c0-.8-.6-1.4-1.4-1.4-.4 0-.8.2-1 .4l-14.4 14.4c-.3.3-.4.6-.4 1 0 .8.6 1.4 1.4 1.4.4 0 .8-.2 1-.4l14.4-14.4c.3-.3.4-.6.4-1zm0 5.7c-.4 0-.8.2-1 .4l-4.3 4.3c-.3.3-.4.6-.4 1 0 .8.6 1.4 1.4 1.4.4 0 .8-.2 1-.4l4.3-4.3c.3-.3.4-.6.4-1 .1-.7-.6-1.4-1.4-1.4zm40.3-46c0-.8-.6-1.4-1.4-1.4-.2 0-.4.1-.6.2l-60.3 25.9h-.1c-.5.2-.8.7-.8 1.3 0 .7.4 1.2 1 1.4l23.8 9.8 9.8 23.8c.2.6.7 1 1.4 1 .6 0 1.1-.3 1.3-.8v-.1l25.9-60.3c-.1-.4 0-.6 0-.8zM88.7 112l50.4-21.6-30 30-20.4-8.4zm30.8 30.8l-8.4-20.4 30-30-21.6 50.4z"/><path class="st1" d="M97 126.9l1.4-1.4c.3-.3.4-.6.4-1 0-.8-.6-1.4-1.4-1.4-.4 0-.8.2-1 .4l-1.4 1.4c-.3.3-.4.6-.4 1 0 .8.6 1.4 1.4 1.4.4 0 .7-.1 1-.4zm9-1c0-.8-.6-1.4-1.4-1.4-.4 0-.8.2-1 .4l-14.4 14.4c-.3.3-.4.6-.4 1 0 .8.6 1.4 1.4 1.4.4 0 .8-.2 1-.4l14.4-14.4c.3-.3.4-.6.4-1zm0 5.7c-.4 0-.8.2-1 .4l-4.3 4.3c-.3.3-.4.6-.4 1 0 .8.6 1.4 1.4 1.4.4 0 .8-.2 1-.4l4.3-4.3c.3-.3.4-.6.4-1 .1-.7-.6-1.4-1.4-1.4zm40.3-46c0-.8-.6-1.4-1.4-1.4-.2 0-.4.1-.6.2L84 110.3h-.1c-.5.2-.8.7-.8 1.3 0 .7.4 1.2 1 1.4l23.8 9.8 9.8 23.8c.2.6.7 1 1.4 1 .6 0 1.1-.3 1.3-.8v-.1l25.9-60.3c-.1-.4 0-.6 0-.8zm-58.1 25.9l50.4-21.6-30 30-20.4-8.4zm30.8 30.8l-8.4-20.4 30-30-21.6 50.4z"/><path class="st1" d="M96.5 126.4l1.4-1.4c.3-.3.4-.6.4-1 0-.8-.6-1.4-1.4-1.4-.4 0-.8.2-1 .4l-1.4 1.4c-.3.3-.4.6-.4 1 0 .8.6 1.4 1.4 1.4.4 0 .7-.1 1-.4zm9-1c0-.8-.6-1.4-1.4-1.4-.4 0-.8.2-1 .4l-14.4 14.4c-.3.3-.4.6-.4 1 0 .8.6 1.4 1.4 1.4.4 0 .8-.2 1-.4l14.4-14.4c.3-.3.4-.6.4-1zm0 5.7c-.4 0-.8.2-1 .4l-4.3 4.3c-.3.3-.4.6-.4 1 0 .8.6 1.4 1.4 1.4.4 0 .8-.2 1-.4l4.3-4.3c.3-.3.4-.6.4-1 .1-.7-.6-1.4-1.4-1.4zm40.3-46c0-.8-.6-1.4-1.4-1.4-.2 0-.4.1-.6.2l-60.3 25.9h-.1c-.5.2-.8.7-.8 1.3 0 .7.4 1.2 1 1.4l23.8 9.8 9.8 23.8c.2.6.7 1 1.4 1 .6 0 1.1-.3 1.3-.8v-.1l25.9-60.3c-.1-.4 0-.6 0-.8zM87.7 111l50.4-21.6-30 30-20.4-8.4zm30.8 30.8l-8.4-20.4 30-30-21.6 50.4z"/><path class="st1" d="M96 125.9l1.4-1.4c.3-.3.4-.6.4-1 0-.8-.6-1.4-1.4-1.4-.4 0-.8.2-1 .4l-1.4 1.4c-.3.3-.4.6-.4 1 0 .8.6 1.4 1.4 1.4.4 0 .7-.1 1-.4zm9-1c0-.8-.6-1.4-1.4-1.4-.4 0-.8.2-1 .4l-14.4 14.4c-.3.3-.4.6-.4 1 0 .8.6 1.4 1.4 1.4.4 0 .8-.2 1-.4l14.4-14.4c.3-.3.4-.6.4-1zm0 5.7c-.4 0-.8.2-1 .4l-4.3 4.3c-.3.3-.4.6-.4 1 0 .8.6 1.4 1.4 1.4.4 0 .8-.2 1-.4l4.3-4.3c.3-.3.4-.6.4-1 .1-.7-.6-1.4-1.4-1.4zm40.3-46c0-.8-.6-1.4-1.4-1.4-.2 0-.4.1-.6.2L83 109.3h-.1c-.5.2-.8.7-.8 1.3 0 .7.4 1.2 1 1.4l23.8 9.8 9.8 23.8c.2.6.7 1 1.4 1 .6 0 1.1-.3 1.3-.8v-.1l25.9-60.3c-.1-.4 0-.6 0-.8zm-58.1 25.9l50.4-21.6-30 30-20.4-8.4zm30.8 30.8l-8.4-20.4 30-30-21.6 50.4z"/><path class="st1" d="M95.5 125.4l1.4-1.4c.3-.3.4-.6.4-1 0-.8-.6-1.4-1.4-1.4-.4 0-.8.2-1 .4l-1.4 1.4c-.3.3-.4.6-.4 1 0 .8.6 1.4 1.4 1.4.4 0 .7-.1 1-.4zm9-1c0-.8-.6-1.4-1.4-1.4-.4 0-.8.2-1 .4l-14.4 14.4c-.3.3-.4.6-.4 1 0 .8.6 1.4 1.4 1.4.4 0 .8-.2 1-.4l14.4-14.4c.3-.3.4-.6.4-1zm0 5.7c-.4 0-.8.2-1 .4l-4.3 4.3c-.3.3-.4.6-.4 1 0 .8.6 1.4 1.4 1.4.4 0 .8-.2 1-.4l4.3-4.3c.3-.3.4-.6.4-1 .1-.7-.6-1.4-1.4-1.4zm40.3-46c0-.8-.6-1.4-1.4-1.4-.2 0-.4.1-.6.2l-60.3 25.9h-.1c-.5.2-.8.7-.8 1.3 0 .7.4 1.2 1 1.4l23.8 9.8 9.8 23.8c.2.6.7 1 1.4 1 .6 0 1.1-.3 1.3-.8v-.1l25.9-60.3c-.1-.4 0-.6 0-.8zM86.7 110l50.4-21.6-30 30-20.4-8.4zm30.8 30.8l-8.4-20.4 30-30-21.6 50.4z"/><path class="st1" d="M95 124.9l1.4-1.4c.3-.3.4-.6.4-1 0-.8-.6-1.4-1.4-1.4-.4 0-.8.2-1 .4l-1.4 1.4c-.3.3-.4.6-.4 1 0 .8.6 1.4 1.4 1.4.4 0 .7-.1 1-.4zm9-1c0-.8-.6-1.4-1.4-1.4-.4 0-.8.2-1 .4l-14.4 14.4c-.3.3-.4.6-.4 1 0 .8.6 1.4 1.4 1.4.4 0 .8-.2 1-.4l14.4-14.4c.3-.3.4-.6.4-1zm0 5.7c-.4 0-.8.2-1 .4l-4.3 4.3c-.3.3-.4.6-.4 1 0 .8.6 1.4 1.4 1.4.4 0 .8-.2 1-.4l4.3-4.3c.3-.3.4-.6.4-1 .1-.7-.6-1.4-1.4-1.4zm40.3-46c0-.8-.6-1.4-1.4-1.4-.2 0-.4.1-.6.2L82 108.3h-.1c-.5.2-.8.7-.8 1.3 0 .7.4 1.2 1 1.4l23.8 9.8 9.8 23.8c.2.6.7 1 1.4 1 .6 0 1.1-.3 1.3-.8v-.1l25.9-60.3c-.1-.4 0-.6 0-.8zm-58.1 25.9l50.4-21.6-30 30-20.4-8.4zm30.8 30.8l-8.4-20.4 30-30-21.6 50.4z"/><path class="st1" d="M94.5 124.4l1.4-1.4c.3-.3.4-.6.4-1 0-.8-.6-1.4-1.4-1.4-.4 0-.8.2-1 .4l-1.4 1.4c-.3.3-.4.6-.4 1 0 .8.6 1.4 1.4 1.4.4 0 .7-.1 1-.4zm9-1c0-.8-.6-1.4-1.4-1.4-.4 0-.8.2-1 .4l-14.4 14.4c-.3.3-.4.6-.4 1 0 .8.6 1.4 1.4 1.4.4 0 .8-.2 1-.4l14.4-14.4c.3-.3.4-.6.4-1zm0 5.7c-.4 0-.8.2-1 .4l-4.3 4.3c-.3.3-.4.6-.4 1 0 .8.6 1.4 1.4 1.4.4 0 .8-.2 1-.4l4.3-4.3c.3-.3.4-.6.4-1 .1-.7-.6-1.4-1.4-1.4zm40.3-46c0-.8-.6-1.4-1.4-1.4-.2 0-.4.1-.6.2l-60.3 25.9h-.1c-.5.2-.8.7-.8 1.3 0 .7.4 1.2 1 1.4l23.8 9.8 9.8 23.8c.2.6.7 1 1.4 1 .6 0 1.1-.3 1.3-.8v-.1l25.9-60.3c-.1-.4 0-.6 0-.8zM85.7 109l50.4-21.6-30 30-20.4-8.4zm30.8 30.8l-8.4-20.4 30-30-21.6 50.4z"/><path class="st1" d="M94 123.9l1.4-1.4c.3-.3.4-.6.4-1 0-.8-.6-1.4-1.4-1.4-.4 0-.8.2-1 .4l-1.4 1.4c-.3.3-.4.6-.4 1 0 .8.6 1.4 1.4 1.4.4 0 .7-.1 1-.4zm9-1c0-.8-.6-1.4-1.4-1.4-.4 0-.8.2-1 .4l-14.4 14.4c-.3.3-.4.6-.4 1 0 .8.6 1.4 1.4 1.4.4 0 .8-.2 1-.4l14.4-14.4c.3-.3.4-.6.4-1zm0 5.7c-.4 0-.8.2-1 .4l-4.3 4.3c-.3.3-.4.6-.4 1 0 .8.6 1.4 1.4 1.4.4 0 .8-.2 1-.4l4.3-4.3c.3-.3.4-.6.4-1 .1-.7-.6-1.4-1.4-1.4zm40.3-46c0-.8-.6-1.4-1.4-1.4-.2 0-.4.1-.6.2L81 107.3h-.1c-.5.2-.8.7-.8 1.3 0 .7.4 1.2 1 1.4l23.8 9.8 9.8 23.8c.2.6.7 1 1.4 1 .6 0 1.1-.3 1.3-.8v-.1l25.9-60.3c-.1-.4 0-.6 0-.8zm-58.1 25.9l50.4-21.6-30 30-20.4-8.4zm30.8 30.8l-8.4-20.4 30-30-21.6 50.4z"/><path class="st1" d="M93.5 123.4l1.4-1.4c.3-.3.4-.6.4-1 0-.8-.6-1.4-1.4-1.4-.4 0-.8.2-1 .4l-1.4 1.4c-.3.3-.4.6-.4 1 0 .8.6 1.4 1.4 1.4.4 0 .7-.1 1-.4zm9-1c0-.8-.6-1.4-1.4-1.4-.4 0-.8.2-1 .4l-14.4 14.4c-.3.3-.4.6-.4 1 0 .8.6 1.4 1.4 1.4.4 0 .8-.2 1-.4l14.4-14.4c.3-.3.4-.6.4-1zm0 5.7c-.4 0-.8.2-1 .4l-4.3 4.3c-.3.3-.4.6-.4 1 0 .8.6 1.4 1.4 1.4.4 0 .8-.2 1-.4l4.3-4.3c.3-.3.4-.6.4-1 .1-.7-.6-1.4-1.4-1.4zm40.3-46c0-.8-.6-1.4-1.4-1.4-.2 0-.4.1-.6.2l-60.3 25.9h-.1c-.5.2-.8.7-.8 1.3 0 .7.4 1.2 1 1.4l23.8 9.8 9.8 23.8c.2.6.7 1 1.4 1 .6 0 1.1-.3 1.3-.8v-.1l25.9-60.3c-.1-.4 0-.6 0-.8zM84.7 108l50.4-21.6-30 30-20.4-8.4zm30.8 30.8l-8.4-20.4 30-30-21.6 50.4z"/><path class="st1" d="M93 122.9l1.4-1.4c.3-.3.4-.6.4-1 0-.8-.6-1.4-1.4-1.4-.4 0-.8.2-1 .4l-1.4 1.4c-.3.3-.4.6-.4 1 0 .8.6 1.4 1.4 1.4.4 0 .7-.1 1-.4zm9-1c0-.8-.6-1.4-1.4-1.4-.4 0-.8.2-1 .4l-14.4 14.4c-.3.3-.4.6-.4 1 0 .8.6 1.4 1.4 1.4.4 0 .8-.2 1-.4l14.4-14.4c.3-.3.4-.6.4-1zm0 5.7c-.4 0-.8.2-1 .4l-4.3 4.3c-.3.3-.4.6-.4 1 0 .8.6 1.4 1.4 1.4.4 0 .8-.2 1-.4l4.3-4.3c.3-.3.4-.6.4-1 .1-.7-.6-1.4-1.4-1.4zm40.3-46c0-.8-.6-1.4-1.4-1.4-.2 0-.4.1-.6.2L80 106.3h-.1c-.5.2-.8.7-.8 1.3 0 .7.4 1.2 1 1.4l23.8 9.8 9.8 23.8c.2.6.7 1 1.4 1 .6 0 1.1-.3 1.3-.8v-.1l25.9-60.3c-.1-.4 0-.6 0-.8zm-58.1 25.9l50.4-21.6-30 30-20.4-8.4zm30.8 30.8l-8.4-20.4 30-30-21.6 50.4z"/><path class="st1" d="M92.5 122.4l1.4-1.4c.3-.3.4-.6.4-1 0-.8-.6-1.4-1.4-1.4-.4 0-.8.2-1 .4l-1.4 1.4c-.3.3-.4.6-.4 1 0 .8.6 1.4 1.4 1.4.4 0 .7-.1 1-.4zm9-1c0-.8-.6-1.4-1.4-1.4-.4 0-.8.2-1 .4l-14.4 14.4c-.3.3-.4.6-.4 1 0 .8.6 1.4 1.4 1.4.4 0 .8-.2 1-.4l14.4-14.4c.3-.3.4-.6.4-1zm0 5.7c-.4 0-.8.2-1 .4l-4.3 4.3c-.3.3-.4.6-.4 1 0 .8.6 1.4 1.4 1.4.4 0 .8-.2 1-.4l4.3-4.3c.3-.3.4-.6.4-1 .1-.7-.6-1.4-1.4-1.4zm40.3-46c0-.8-.6-1.4-1.4-1.4-.2 0-.4.1-.6.2l-60.3 25.9h-.1c-.5.2-.8.7-.8 1.3 0 .7.4 1.2 1 1.4l23.8 9.8 9.8 23.8c.2.6.7 1 1.4 1 .6 0 1.1-.3 1.3-.8v-.1l25.9-60.3c-.1-.4 0-.6 0-.8zM83.7 107l50.4-21.6-30 30-20.4-8.4zm30.8 30.8l-8.4-20.4 30-30-21.6 50.4z"/><path class="st1" d="M92 121.9l1.4-1.4c.3-.3.4-.6.4-1 0-.8-.6-1.4-1.4-1.4-.4 0-.8.2-1 .4l-1.4 1.4c-.3.3-.4.6-.4 1 0 .8.6 1.4 1.4 1.4.4 0 .7-.1 1-.4zm9-1c0-.8-.6-1.4-1.4-1.4-.4 0-.8.2-1 .4l-14.4 14.4c-.3.3-.4.6-.4 1 0 .8.6 1.4 1.4 1.4.4 0 .8-.2 1-.4l14.4-14.4c.3-.3.4-.6.4-1zm0 5.7c-.4 0-.8.2-1 .4l-4.3 4.3c-.3.3-.4.6-.4 1 0 .8.6 1.4 1.4 1.4.4 0 .8-.2 1-.4l4.3-4.3c.3-.3.4-.6.4-1 .1-.7-.6-1.4-1.4-1.4zm40.3-46c0-.8-.6-1.4-1.4-1.4-.2 0-.4.1-.6.2L79 105.3h-.1c-.5.2-.8.7-.8 1.3 0 .7.4 1.2 1 1.4l23.8 9.8 9.8 23.8c.2.6.7 1 1.4 1 .6 0 1.1-.3 1.3-.8v-.1l25.9-60.3c-.1-.4 0-.6 0-.8zm-58.1 25.9l50.4-21.6-30 30-20.4-8.4zm30.8 30.8l-8.4-20.4 30-30-21.6 50.4z"/><path class="st1" d="M91.5 121.4l1.4-1.4c.3-.3.4-.6.4-1 0-.8-.6-1.4-1.4-1.4-.4 0-.8.2-1 .4l-1.4 1.4c-.3.3-.4.6-.4 1 0 .8.6 1.4 1.4 1.4.4 0 .7-.1 1-.4zm9-1c0-.8-.6-1.4-1.4-1.4-.4 0-.8.2-1 .4l-14.4 14.4c-.3.3-.4.6-.4 1 0 .8.6 1.4 1.4 1.4.4 0 .8-.2 1-.4l14.4-14.4c.3-.3.4-.6.4-1zm0 5.7c-.4 0-.8.2-1 .4l-4.3 4.3c-.3.3-.4.6-.4 1 0 .8.6 1.4 1.4 1.4.4 0 .8-.2 1-.4l4.3-4.3c.3-.3.4-.6.4-1 .1-.7-.6-1.4-1.4-1.4zm40.3-46c0-.8-.6-1.4-1.4-1.4-.2 0-.4.1-.6.2l-60.3 25.9h-.1c-.5.2-.8.7-.8 1.3 0 .7.4 1.2 1 1.4l23.8 9.8 9.8 23.8c.2.6.7 1 1.4 1 .6 0 1.1-.3 1.3-.8v-.1l25.9-60.3c-.1-.4 0-.6 0-.8zM82.7 106l50.4-21.6-30 30-20.4-8.4zm30.8 30.8l-8.4-20.4 30-30-21.6 50.4z"/><path class="st1" d="M91 120.9l1.4-1.4c.3-.3.4-.6.4-1 0-.8-.6-1.4-1.4-1.4-.4 0-.8.2-1 .4l-1.4 1.4c-.3.3-.4.6-.4 1 0 .8.6 1.4 1.4 1.4.4 0 .7-.1 1-.4zm9-1c0-.8-.6-1.4-1.4-1.4-.4 0-.8.2-1 .4l-14.4 14.4c-.3.3-.4.6-.4 1 0 .8.6 1.4 1.4 1.4.4 0 .8-.2 1-.4l14.4-14.4c.3-.3.4-.6.4-1zm0 5.7c-.4 0-.8.2-1 .4l-4.3 4.3c-.3.3-.4.6-.4 1 0 .8.6 1.4 1.4 1.4.4 0 .8-.2 1-.4l4.3-4.3c.3-.3.4-.6.4-1 .1-.7-.6-1.4-1.4-1.4zm40.3-46c0-.8-.6-1.4-1.4-1.4-.2 0-.4.1-.6.2L78 104.3h-.1c-.5.2-.8.7-.8 1.3 0 .7.4 1.2 1 1.4l23.8 9.8 9.8 23.8c.2.6.7 1 1.4 1 .6 0 1.1-.3 1.3-.8v-.1l25.9-60.3c-.1-.4 0-.6 0-.8zm-58.1 25.9l50.4-21.6-30 30-20.4-8.4zm30.8 30.8l-8.4-20.4 30-30-21.6 50.4z"/><path class="st1" d="M90.5 120.4l1.4-1.4c.3-.3.4-.6.4-1 0-.8-.6-1.4-1.4-1.4-.4 0-.8.2-1 .4l-1.4 1.4c-.3.3-.4.6-.4 1 0 .8.6 1.4 1.4 1.4.4 0 .7-.1 1-.4zm9-1c0-.8-.6-1.4-1.4-1.4-.4 0-.8.2-1 .4l-14.4 14.4c-.3.3-.4.6-.4 1 0 .8.6 1.4 1.4 1.4.4 0 .8-.2 1-.4l14.4-14.4c.3-.3.4-.6.4-1zm0 5.7c-.4 0-.8.2-1 .4l-4.3 4.3c-.3.3-.4.6-.4 1 0 .8.6 1.4 1.4 1.4.4 0 .8-.2 1-.4l4.3-4.3c.3-.3.4-.6.4-1 .1-.7-.6-1.4-1.4-1.4zm40.3-46c0-.8-.6-1.4-1.4-1.4-.2 0-.4.1-.6.2l-60.3 25.9h-.1c-.5.2-.8.7-.8 1.3 0 .7.4 1.2 1 1.4l23.8 9.8 9.8 23.8c.2.6.7 1 1.4 1 .6 0 1.1-.3 1.3-.8v-.1l25.9-60.3c-.1-.4 0-.6 0-.8zM81.7 105l50.4-21.6-30 30-20.4-8.4zm30.8 30.8l-8.4-20.4 30-30-21.6 50.4z"/><path class="st1" d="M90 119.9l1.4-1.4c.3-.3.4-.6.4-1 0-.8-.6-1.4-1.4-1.4-.4 0-.8.2-1 .4l-1.4 1.4c-.3.3-.4.6-.4 1 0 .8.6 1.4 1.4 1.4.4 0 .7-.1 1-.4zm9-1c0-.8-.6-1.4-1.4-1.4-.4 0-.8.2-1 .4l-14.4 14.4c-.3.3-.4.6-.4 1 0 .8.6 1.4 1.4 1.4.4 0 .8-.2 1-.4l14.4-14.4c.3-.3.4-.6.4-1zm0 5.7c-.4 0-.8.2-1 .4l-4.3 4.3c-.3.3-.4.6-.4 1 0 .8.6 1.4 1.4 1.4.4 0 .8-.2 1-.4l4.3-4.3c.3-.3.4-.6.4-1 .1-.7-.6-1.4-1.4-1.4zm40.3-46c0-.8-.6-1.4-1.4-1.4-.2 0-.4.1-.6.2L77 103.3h-.1c-.5.2-.8.7-.8 1.3 0 .7.4 1.2 1 1.4l23.8 9.8 9.8 23.8c.2.6.7 1 1.4 1 .6 0 1.1-.3 1.3-.8v-.1l25.9-60.3c-.1-.4 0-.6 0-.8zm-58.1 25.9l50.4-21.6-30 30-20.4-8.4zm30.8 30.8l-8.4-20.4 30-30-21.6 50.4z"/><path class="st1" d="M89.5 119.4l1.4-1.4c.3-.3.4-.6.4-1 0-.8-.6-1.4-1.4-1.4-.4 0-.8.2-1 .4l-1.4 1.4c-.3.3-.4.6-.4 1 0 .8.6 1.4 1.4 1.4.4 0 .7-.1 1-.4zm9-1c0-.8-.6-1.4-1.4-1.4-.4 0-.8.2-1 .4l-14.4 14.4c-.3.3-.4.6-.4 1 0 .8.6 1.4 1.4 1.4.4 0 .8-.2 1-.4l14.4-14.4c.3-.3.4-.6.4-1zm0 5.7c-.4 0-.8.2-1 .4l-4.3 4.3c-.3.3-.4.6-.4 1 0 .8.6 1.4 1.4 1.4.4 0 .8-.2 1-.4l4.3-4.3c.3-.3.4-.6.4-1 .1-.7-.6-1.4-1.4-1.4zm40.3-46c0-.8-.6-1.4-1.4-1.4-.2 0-.4.1-.6.2l-60.3 25.9h-.1c-.5.2-.8.7-.8 1.3 0 .7.4 1.2 1 1.4l23.8 9.8 9.8 23.8c.2.6.7 1 1.4 1 .6 0 1.1-.3 1.3-.8v-.1l25.9-60.3c-.1-.4 0-.6 0-.8zM80.7 104l50.4-21.6-30 30-20.4-8.4zm30.8 30.8l-8.4-20.4 30-30-21.6 50.4z"/><path class="st1" d="M89 118.9l1.4-1.4c.3-.3.4-.6.4-1 0-.8-.6-1.4-1.4-1.4-.4 0-.8.2-1 .4l-1.4 1.4c-.3.3-.4.6-.4 1 0 .8.6 1.4 1.4 1.4.4 0 .7-.1 1-.4zm9-1c0-.8-.6-1.4-1.4-1.4-.4 0-.8.2-1 .4l-14.4 14.4c-.3.3-.4.6-.4 1 0 .8.6 1.4 1.4 1.4.4 0 .8-.2 1-.4l14.4-14.4c.3-.3.4-.6.4-1zm0 5.7c-.4 0-.8.2-1 .4l-4.3 4.3c-.3.3-.4.6-.4 1 0 .8.6 1.4 1.4 1.4.4 0 .8-.2 1-.4L99 126c.3-.3.4-.6.4-1 .1-.7-.6-1.4-1.4-1.4zm40.3-46c0-.8-.6-1.4-1.4-1.4-.2 0-.4.1-.6.2L76 102.3h-.1c-.5.2-.8.7-.8 1.3 0 .7.4 1.2 1 1.4l23.8 9.8 9.8 23.8c.2.6.7 1 1.4 1 .6 0 1.1-.3 1.3-.8v-.1l25.9-60.3c-.1-.4 0-.6 0-.8zm-58.1 25.9l50.4-21.6-30 30-20.4-8.4zm30.8 30.8l-8.4-20.4 30-30-21.6 50.4z"/><path class="st1" d="M88.5 118.4l1.4-1.4c.3-.3.4-.6.4-1 0-.8-.6-1.4-1.4-1.4-.4 0-.8.2-1 .4l-1.4 1.4c-.3.3-.4.6-.4 1 0 .8.6 1.4 1.4 1.4.4 0 .7-.1 1-.4zm9-1c0-.8-.6-1.4-1.4-1.4-.4 0-.8.2-1 .4l-14.4 14.4c-.3.3-.4.6-.4 1 0 .8.6 1.4 1.4 1.4.4 0 .8-.2 1-.4l14.4-14.4c.3-.3.4-.6.4-1zm0 5.7c-.4 0-.8.2-1 .4l-4.3 4.3c-.3.3-.4.6-.4 1 0 .8.6 1.4 1.4 1.4.4 0 .8-.2 1-.4l4.3-4.3c.3-.3.4-.6.4-1 .1-.7-.6-1.4-1.4-1.4zm40.3-46c0-.8-.6-1.4-1.4-1.4-.2 0-.4.1-.6.2l-60.3 25.9h-.1c-.5.2-.8.7-.8 1.3 0 .7.4 1.2 1 1.4l23.8 9.8 9.8 23.8c.2.6.7 1 1.4 1 .6 0 1.1-.3 1.3-.8v-.1l25.9-60.3c-.1-.4 0-.6 0-.8zM79.7 103l50.4-21.6-30 30-20.4-8.4zm30.8 30.8l-8.4-20.4 30-30-21.6 50.4z"/><path class="st1" d="M88 117.9l1.4-1.4c.3-.3.4-.6.4-1 0-.8-.6-1.4-1.4-1.4-.4 0-.8.2-1 .4l-1.4 1.4c-.3.3-.4.6-.4 1 0 .8.6 1.4 1.4 1.4.4 0 .7-.1 1-.4zm9-1c0-.8-.6-1.4-1.4-1.4-.4 0-.8.2-1 .4l-14.4 14.4c-.3.3-.4.6-.4 1 0 .8.6 1.4 1.4 1.4.4 0 .8-.2 1-.4l14.4-14.4c.3-.3.4-.6.4-1zm0 5.7c-.4 0-.8.2-1 .4l-4.3 4.3c-.3.3-.4.6-.4 1 0 .8.6 1.4 1.4 1.4.4 0 .8-.2 1-.4L98 125c.3-.3.4-.6.4-1 .1-.7-.6-1.4-1.4-1.4zm40.3-46c0-.8-.6-1.4-1.4-1.4-.2 0-.4.1-.6.2L75 101.3h-.1c-.5.2-.8.7-.8 1.3 0 .7.4 1.2 1 1.4l23.8 9.8 9.8 23.8c.2.6.7 1 1.4 1 .6 0 1.1-.3 1.3-.8v-.1l25.9-60.3c-.1-.4 0-.6 0-.8zm-58.1 25.9l50.4-21.6-30 30-20.4-8.4zm30.8 30.8l-8.4-20.4 30-30-21.6 50.4z"/><path class="st1" d="M87.5 117.4l1.4-1.4c.3-.3.4-.6.4-1 0-.8-.6-1.4-1.4-1.4-.4 0-.8.2-1 .4l-1.4 1.4c-.3.3-.4.6-.4 1 0 .8.6 1.4 1.4 1.4.4 0 .7-.1 1-.4zm9-1c0-.8-.6-1.4-1.4-1.4-.4 0-.8.2-1 .4l-14.4 14.4c-.3.3-.4.6-.4 1 0 .8.6 1.4 1.4 1.4.4 0 .8-.2 1-.4l14.4-14.4c.3-.3.4-.6.4-1zm0 5.7c-.4 0-.8.2-1 .4l-4.3 4.3c-.3.3-.4.6-.4 1 0 .8.6 1.4 1.4 1.4.4 0 .8-.2 1-.4l4.3-4.3c.3-.3.4-.6.4-1 .1-.7-.6-1.4-1.4-1.4zm40.3-46c0-.8-.6-1.4-1.4-1.4-.2 0-.4.1-.6.2l-60.3 25.9h-.1c-.5.2-.8.7-.8 1.3 0 .7.4 1.2 1 1.4l23.8 9.8 9.8 23.8c.2.6.7 1 1.4 1 .6 0 1.1-.3 1.3-.8v-.1l25.9-60.3c-.1-.4 0-.6 0-.8zM78.7 102l50.4-21.6-30 30-20.4-8.4zm30.8 30.8l-8.4-20.4 30-30-21.6 50.4z"/><path class="st1" d="M87 116.9l1.4-1.4c.3-.3.4-.6.4-1 0-.8-.6-1.4-1.4-1.4-.4 0-.8.2-1 .4l-1.4 1.4c-.3.3-.4.6-.4 1 0 .8.6 1.4 1.4 1.4.4 0 .7-.1 1-.4zm9-1c0-.8-.6-1.4-1.4-1.4-.4 0-.8.2-1 .4l-14.4 14.4c-.3.3-.4.6-.4 1 0 .8.6 1.4 1.4 1.4.4 0 .8-.2 1-.4l14.4-14.4c.3-.3.4-.6.4-1zm0 5.7c-.4 0-.8.2-1 .4l-4.3 4.3c-.3.3-.4.6-.4 1 0 .8.6 1.4 1.4 1.4.4 0 .8-.2 1-.4L97 124c.3-.3.4-.6.4-1 .1-.7-.6-1.4-1.4-1.4zm40.3-46c0-.8-.6-1.4-1.4-1.4-.2 0-.4.1-.6.2L74 100.3h-.1c-.5.2-.8.7-.8 1.3 0 .7.4 1.2 1 1.4l23.8 9.8 9.8 23.8c.2.6.7 1 1.4 1 .6 0 1.1-.3 1.3-.8v-.1l25.9-60.3c-.1-.4 0-.6 0-.8zm-58.1 25.9l50.4-21.6-30 30-20.4-8.4zm30.8 30.8l-8.4-20.4 30-30-21.6 50.4z"/><path class="st1" d="M86.5 116.4l1.4-1.4c.3-.3.4-.6.4-1 0-.8-.6-1.4-1.4-1.4-.4 0-.8.2-1 .4l-1.4 1.4c-.3.3-.4.6-.4 1 0 .8.6 1.4 1.4 1.4.4 0 .7-.1 1-.4zm9-1c0-.8-.6-1.4-1.4-1.4-.4 0-.8.2-1 .4l-14.4 14.4c-.3.3-.4.6-.4 1 0 .8.6 1.4 1.4 1.4.4 0 .8-.2 1-.4l14.4-14.4c.3-.3.4-.6.4-1zm0 5.7c-.4 0-.8.2-1 .4l-4.3 4.3c-.3.3-.4.6-.4 1 0 .8.6 1.4 1.4 1.4.4 0 .8-.2 1-.4l4.3-4.3c.3-.3.4-.6.4-1 .1-.7-.6-1.4-1.4-1.4zm40.3-46c0-.8-.6-1.4-1.4-1.4-.2 0-.4.1-.6.2L73.4 99.7h-.1c-.5.2-.8.7-.8 1.3 0 .7.4 1.2 1 1.4l23.8 9.8 9.8 23.8c.2.6.7 1 1.4 1 .6 0 1.1-.3 1.3-.8v-.1l25.9-60.3c0-.3.1-.5.1-.7zM77.7 101l50.4-21.6-30 30-20.4-8.4zm30.8 30.8l-8.4-20.4 30-30-21.6 50.4z"/><path class="st1" d="M86 115.9l1.4-1.4c.3-.3.4-.6.4-1 0-.8-.6-1.4-1.4-1.4-.4 0-.8.2-1 .4l-1.4 1.4c-.3.3-.4.6-.4 1 0 .8.6 1.4 1.4 1.4.4 0 .7-.1 1-.4zm9-1c0-.8-.6-1.4-1.4-1.4-.4 0-.8.2-1 .4l-14.4 14.4c-.3.3-.4.6-.4 1 0 .8.6 1.4 1.4 1.4.4 0 .8-.2 1-.4l14.4-14.4c.3-.3.4-.6.4-1zm0 5.7c-.4 0-.8.2-1 .4l-4.3 4.3c-.3.3-.4.6-.4 1 0 .8.6 1.4 1.4 1.4.4 0 .8-.2 1-.4L96 123c.3-.3.4-.6.4-1 .1-.7-.6-1.4-1.4-1.4zm40.3-46c0-.8-.6-1.4-1.4-1.4-.2 0-.4.1-.6.2L72.9 99.2h-.1c-.5.2-.8.7-.8 1.3 0 .7.4 1.2 1 1.4l23.8 9.8 9.8 23.8c.2.6.7 1 1.4 1 .6 0 1.1-.3 1.3-.8v-.1l25.9-60.3c0-.3.1-.5.1-.7zm-58.1 25.9l50.4-21.6-30 30-20.4-8.4zm30.8 30.8l-8.4-20.4 30-30-21.6 50.4z"/><path class="st1" d="M85.5 115.4l1.4-1.4c.3-.3.4-.6.4-1 0-.8-.6-1.4-1.4-1.4-.4 0-.8.2-1 .4l-1.4 1.4c-.3.3-.4.6-.4 1 0 .8.6 1.4 1.4 1.4.4 0 .7-.1 1-.4zm9-1c0-.8-.6-1.4-1.4-1.4-.4 0-.8.2-1 .4l-14.4 14.4c-.3.3-.4.6-.4 1 0 .8.6 1.4 1.4 1.4.4 0 .8-.2 1-.4l14.4-14.4c.3-.3.4-.6.4-1zm0 5.7c-.4 0-.8.2-1 .4l-4.3 4.3c-.3.3-.4.6-.4 1 0 .8.6 1.4 1.4 1.4.4 0 .8-.2 1-.4l4.3-4.3c.3-.3.4-.6.4-1 .1-.7-.6-1.4-1.4-1.4zm40.3-46c0-.8-.6-1.4-1.4-1.4-.2 0-.4.1-.6.2L72.4 98.7h-.1c-.5.2-.8.7-.8 1.3 0 .7.4 1.2 1 1.4l23.8 9.8 9.8 23.8c.2.6.7 1 1.4 1 .6 0 1.1-.3 1.3-.8v-.1l25.9-60.3c0-.3.1-.5.1-.7zM76.7 100l50.4-21.6-30 30-20.4-8.4zm30.8 30.8l-8.4-20.4 30-30-21.6 50.4z"/><path class="st1" d="M85 114.9l1.4-1.4c.3-.3.4-.6.4-1 0-.8-.6-1.4-1.4-1.4-.4 0-.8.2-1 .4l-1.4 1.4c-.3.3-.4.6-.4 1 0 .8.6 1.4 1.4 1.4.4 0 .7-.1 1-.4zm9-1c0-.8-.6-1.4-1.4-1.4-.4 0-.8.2-1 .4l-14.4 14.4c-.3.3-.4.6-.4 1 0 .8.6 1.4 1.4 1.4.4 0 .8-.2 1-.4l14.4-14.4c.3-.3.4-.6.4-1zm0 5.7c-.4 0-.8.2-1 .4l-4.3 4.3c-.3.3-.4.6-.4 1 0 .8.6 1.4 1.4 1.4.4 0 .8-.2 1-.4L95 122c.3-.3.4-.6.4-1 .1-.7-.6-1.4-1.4-1.4zm40.3-46c0-.8-.6-1.4-1.4-1.4-.2 0-.4.1-.6.2L71.9 98.2h-.1c-.5.2-.8.7-.8 1.3 0 .7.4 1.2 1 1.4l23.8 9.8 9.8 23.8c.2.6.7 1 1.4 1 .6 0 1.1-.3 1.3-.8v-.1l25.9-60.3c0-.3.1-.5.1-.7zM76.2 99.5l50.4-21.6-30 30-20.4-8.4zm30.8 30.8l-8.4-20.4 30-30-21.6 50.4z"/><path class="st1" d="M84.5 114.4l1.4-1.4c.3-.3.4-.6.4-1 0-.8-.6-1.4-1.4-1.4-.4 0-.8.2-1 .4l-1.4 1.4c-.3.3-.4.6-.4 1 0 .8.6 1.4 1.4 1.4.4 0 .7-.1 1-.4zm9-1c0-.8-.6-1.4-1.4-1.4-.4 0-.8.2-1 .4l-14.4 14.4c-.3.3-.4.6-.4 1 0 .8.6 1.4 1.4 1.4.4 0 .8-.2 1-.4l14.4-14.4c.3-.3.4-.6.4-1zm0 5.7c-.4 0-.8.2-1 .4l-4.3 4.3c-.3.3-.4.6-.4 1 0 .8.6 1.4 1.4 1.4.4 0 .8-.2 1-.4l4.3-4.3c.3-.3.4-.6.4-1 .1-.7-.6-1.4-1.4-1.4zm40.3-46c0-.8-.6-1.4-1.4-1.4-.2 0-.4.1-.6.2L71.4 97.7h-.1c-.5.2-.8.7-.8 1.3 0 .7.4 1.2 1 1.4l23.8 9.8 9.8 23.8c.2.6.7 1 1.4 1 .6 0 1.1-.3 1.3-.8v-.1l25.9-60.3c0-.3.1-.5.1-.7zM75.7 99l50.4-21.6-30 30L75.7 99zm30.8 30.8l-8.4-20.4 30-30-21.6 50.4z"/><path class="st1" d="M84 113.9l1.4-1.4c.3-.3.4-.6.4-1 0-.8-.6-1.4-1.4-1.4-.4 0-.8.2-1 .4l-1.4 1.4c-.3.3-.4.6-.4 1 0 .8.6 1.4 1.4 1.4.4 0 .7-.1 1-.4zm9-1c0-.8-.6-1.4-1.4-1.4-.4 0-.8.2-1 .4l-14.4 14.4c-.3.3-.4.6-.4 1 0 .8.6 1.4 1.4 1.4.4 0 .8-.2 1-.4l14.4-14.4c.3-.3.4-.6.4-1zm0 5.7c-.4 0-.8.2-1 .4l-4.3 4.3c-.3.3-.4.6-.4 1 0 .8.6 1.4 1.4 1.4.4 0 .8-.2 1-.4L94 121c.3-.3.4-.6.4-1 .1-.7-.6-1.4-1.4-1.4zm40.3-46c0-.8-.6-1.4-1.4-1.4-.2 0-.4.1-.6.2L70.9 97.2h-.1c-.5.2-.8.7-.8 1.3 0 .7.4 1.2 1 1.4l23.8 9.8 9.8 23.8c.2.6.7 1 1.4 1 .6 0 1.1-.3 1.3-.8v-.1l25.9-60.3c0-.3.1-.5.1-.7zM75.2 98.5l50.4-21.6-30 30-20.4-8.4zm30.8 30.8l-8.4-20.4 30-30-21.6 50.4z"/><path class="st1" d="M83.5 113.4l1.4-1.4c.3-.3.4-.6.4-1 0-.8-.6-1.4-1.4-1.4-.4 0-.8.2-1 .4l-1.4 1.4c-.3.3-.4.6-.4 1 0 .8.6 1.4 1.4 1.4.4 0 .7-.1 1-.4zm9-1c0-.8-.6-1.4-1.4-1.4-.4 0-.8.2-1 .4l-14.4 14.4c-.3.3-.4.6-.4 1 0 .8.6 1.4 1.4 1.4.4 0 .8-.2 1-.4l14.4-14.4c.3-.3.4-.6.4-1zm0 5.7c-.4 0-.8.2-1 .4l-4.3 4.3c-.3.3-.4.6-.4 1 0 .8.6 1.4 1.4 1.4.4 0 .8-.2 1-.4l4.3-4.3c.3-.3.4-.6.4-1 .1-.7-.6-1.4-1.4-1.4zm40.3-46c0-.8-.6-1.4-1.4-1.4-.2 0-.4.1-.6.2L70.4 96.7h-.1c-.5.2-.8.7-.8 1.3 0 .7.4 1.2 1 1.4l23.8 9.8 9.8 23.8c.2.6.7 1 1.4 1 .6 0 1.1-.3 1.3-.8v-.1l25.9-60.3c0-.3.1-.5.1-.7zM74.7 98l50.4-21.6-30 30L74.7 98zm30.8 30.8l-8.4-20.4 30-30-21.6 50.4z"/><path class="st1" d="M83 112.9l1.4-1.4c.3-.3.4-.6.4-1 0-.8-.6-1.4-1.4-1.4-.4 0-.8.2-1 .4l-1.4 1.4c-.3.3-.4.6-.4 1 0 .8.6 1.4 1.4 1.4.4 0 .7-.1 1-.4zm9-1c0-.8-.6-1.4-1.4-1.4-.4 0-.8.2-1 .4l-14.4 14.4c-.3.3-.4.6-.4 1 0 .8.6 1.4 1.4 1.4.4 0 .8-.2 1-.4l14.4-14.4c.3-.3.4-.6.4-1zm0 5.7c-.4 0-.8.2-1 .4l-4.3 4.3c-.3.3-.4.6-.4 1 0 .8.6 1.4 1.4 1.4.4 0 .8-.2 1-.4L93 120c.3-.3.4-.6.4-1 .1-.7-.6-1.4-1.4-1.4zm40.3-46c0-.8-.6-1.4-1.4-1.4-.2 0-.4.1-.6.2L69.9 96.2h-.1c-.5.2-.8.7-.8 1.3 0 .7.4 1.2 1 1.4l23.8 9.8 9.8 23.8c.2.6.7 1 1.4 1 .6 0 1.1-.3 1.3-.8v-.1l25.9-60.3c0-.3.1-.5.1-.7zM74.2 97.5l50.4-21.6-30 30-20.4-8.4zm30.8 30.8l-8.4-20.4 30-30-21.6 50.4z"/><path class="st1" d="M82.5 112.4l1.4-1.4c.3-.3.4-.6.4-1 0-.8-.6-1.4-1.4-1.4-.4 0-.8.2-1 .4l-1.4 1.4c-.3.3-.4.6-.4 1 0 .8.6 1.4 1.4 1.4.4 0 .7-.1 1-.4zm9-1c0-.8-.6-1.4-1.4-1.4-.4 0-.8.2-1 .4l-14.4 14.4c-.3.3-.4.6-.4 1 0 .8.6 1.4 1.4 1.4.4 0 .8-.2 1-.4l14.4-14.4c.3-.3.4-.6.4-1zm0 5.7c-.4 0-.8.2-1 .4l-4.3 4.3c-.3.3-.4.6-.4 1 0 .8.6 1.4 1.4 1.4.4 0 .8-.2 1-.4l4.3-4.3c.3-.3.4-.6.4-1 .1-.7-.6-1.4-1.4-1.4zm40.3-46c0-.8-.6-1.4-1.4-1.4-.2 0-.4.1-.6.2L69.4 95.7h-.1c-.5.2-.8.7-.8 1.3 0 .7.4 1.2 1 1.4l23.8 9.8 9.8 23.8c.2.6.7 1 1.4 1 .6 0 1.1-.3 1.3-.8v-.1l25.9-60.3c0-.3.1-.5.1-.7zM73.7 97l50.4-21.6-30 30L73.7 97zm30.8 30.8l-8.4-20.4 30-30-21.6 50.4z"/><path class="st1" d="M82 111.9l1.4-1.4c.3-.3.4-.6.4-1 0-.8-.6-1.4-1.4-1.4-.4 0-.8.2-1 .4l-1.4 1.4c-.3.3-.4.6-.4 1 0 .8.6 1.4 1.4 1.4.4 0 .7-.1 1-.4zm9-1c0-.8-.6-1.4-1.4-1.4-.4 0-.8.2-1 .4l-14.4 14.4c-.3.3-.4.6-.4 1 0 .8.6 1.4 1.4 1.4.4 0 .8-.2 1-.4l14.4-14.4c.3-.3.4-.6.4-1zm0 5.7c-.4 0-.8.2-1 .4l-4.3 4.3c-.3.3-.4.6-.4 1 0 .8.6 1.4 1.4 1.4.4 0 .8-.2 1-.4L92 119c.3-.3.4-.6.4-1 .1-.7-.6-1.4-1.4-1.4zm40.3-46c0-.8-.6-1.4-1.4-1.4-.2 0-.4.1-.6.2L68.9 95.2h-.1c-.5.2-.8.7-.8 1.3 0 .7.4 1.2 1 1.4l23.8 9.8 9.8 23.8c.2.6.7 1 1.4 1 .6 0 1.1-.3 1.3-.8v-.1l25.9-60.3c0-.3.1-.5.1-.7zM73.2 96.5l50.4-21.6-30 30-20.4-8.4zm30.8 30.8l-8.4-20.4 30-30-21.6 50.4z"/><path class="st1" d="M81.5 111.4l1.4-1.4c.3-.3.4-.6.4-1 0-.8-.6-1.4-1.4-1.4-.4 0-.8.2-1 .4l-1.4 1.4c-.3.3-.4.6-.4 1 0 .8.6 1.4 1.4 1.4.4 0 .7-.1 1-.4zm9-1c0-.8-.6-1.4-1.4-1.4-.4 0-.8.2-1 .4l-14.4 14.4c-.3.3-.4.6-.4 1 0 .8.6 1.4 1.4 1.4.4 0 .8-.2 1-.4l14.4-14.4c.3-.3.4-.6.4-1zm0 5.7c-.4 0-.8.2-1 .4l-4.3 4.3c-.3.3-.4.6-.4 1 0 .8.6 1.4 1.4 1.4.4 0 .8-.2 1-.4l4.3-4.3c.3-.3.4-.6.4-1 .1-.7-.6-1.4-1.4-1.4zm40.3-46c0-.8-.6-1.4-1.4-1.4-.2 0-.4.1-.6.2L68.4 94.7h-.1c-.5.2-.8.7-.8 1.3 0 .7.4 1.2 1 1.4l23.8 9.8 9.8 23.8c.2.6.7 1 1.4 1 .6 0 1.1-.3 1.3-.8v-.1l25.9-60.3c0-.3.1-.5.1-.7zM72.7 96l50.4-21.6-30 30L72.7 96zm30.8 30.8l-8.4-20.4 30-30-21.6 50.4z"/><path class="st1" d="M81 110.9l1.4-1.4c.3-.3.4-.6.4-1 0-.8-.6-1.4-1.4-1.4-.4 0-.8.2-1 .4l-1.4 1.4c-.3.3-.4.6-.4 1 0 .8.6 1.4 1.4 1.4.4 0 .7-.1 1-.4zm9-1c0-.8-.6-1.4-1.4-1.4-.4 0-.8.2-1 .4l-14.4 14.4c-.3.3-.4.6-.4 1 0 .8.6 1.4 1.4 1.4.4 0 .8-.2 1-.4l14.4-14.4c.3-.3.4-.6.4-1zm0 5.7c-.4 0-.8.2-1 .4l-4.3 4.3c-.3.3-.4.6-.4 1 0 .8.6 1.4 1.4 1.4.4 0 .8-.2 1-.4L91 118c.3-.3.4-.6.4-1 .1-.7-.6-1.4-1.4-1.4zm40.3-46c0-.8-.6-1.4-1.4-1.4-.2 0-.4.1-.6.2L67.9 94.2h-.1c-.5.2-.8.7-.8 1.3 0 .7.4 1.2 1 1.4l23.8 9.8 9.8 23.8c.2.6.7 1 1.4 1 .6 0 1.1-.3 1.3-.8v-.1l25.9-60.3c0-.3.1-.5.1-.7zM72.2 95.5l50.4-21.6-30 30-20.4-8.4zm30.8 30.8l-8.4-20.4 30-30-21.6 50.4z"/><path class="st1" d="M80.5 110.4l1.4-1.4c.3-.3.4-.6.4-1 0-.8-.6-1.4-1.4-1.4-.4 0-.8.2-1 .4l-1.4 1.4c-.3.3-.4.6-.4 1 0 .8.6 1.4 1.4 1.4.4 0 .7-.1 1-.4zm9-1c0-.8-.6-1.4-1.4-1.4-.4 0-.8.2-1 .4l-14.4 14.4c-.3.3-.4.6-.4 1 0 .8.6 1.4 1.4 1.4.4 0 .8-.2 1-.4l14.4-14.4c.3-.3.4-.6.4-1zm0 5.7c-.4 0-.8.2-1 .4l-4.3 4.3c-.3.3-.4.6-.4 1 0 .8.6 1.4 1.4 1.4.4 0 .8-.2 1-.4l4.3-4.3c.3-.3.4-.6.4-1 .1-.7-.6-1.4-1.4-1.4zm40.3-46c0-.8-.6-1.4-1.4-1.4-.2 0-.4.1-.6.2L67.4 93.7h-.1c-.5.2-.8.7-.8 1.3 0 .7.4 1.2 1 1.4l23.8 9.8 9.8 23.8c.2.6.7 1 1.4 1 .6 0 1.1-.3 1.3-.8v-.1l25.9-60.3c0-.3.1-.5.1-.7zM71.7 95l50.4-21.6-30 30L71.7 95zm30.8 30.8l-8.4-20.4 30-30-21.6 50.4z"/><path class="st1" d="M80 109.9l1.4-1.4c.3-.3.4-.6.4-1 0-.8-.6-1.4-1.4-1.4-.4 0-.8.2-1 .4l-1.4 1.4c-.3.3-.4.6-.4 1 0 .8.6 1.4 1.4 1.4.4 0 .7-.1 1-.4zm9-1c0-.8-.6-1.4-1.4-1.4-.4 0-.8.2-1 .4l-14.4 14.4c-.3.3-.4.6-.4 1 0 .8.6 1.4 1.4 1.4.4 0 .8-.2 1-.4l14.4-14.4c.3-.3.4-.6.4-1zm0 5.7c-.4 0-.8.2-1 .4l-4.3 4.3c-.3.3-.4.6-.4 1 0 .8.6 1.4 1.4 1.4.4 0 .8-.2 1-.4L90 117c.3-.3.4-.6.4-1 .1-.7-.6-1.4-1.4-1.4zm40.3-46c0-.8-.6-1.4-1.4-1.4-.2 0-.4.1-.6.2L66.9 93.2h-.1c-.5.2-.8.7-.8 1.3 0 .7.4 1.2 1 1.4l23.8 9.8 9.8 23.8c.2.6.7 1 1.4 1 .6 0 1.1-.3 1.3-.8v-.1l25.9-60.3c0-.3.1-.5.1-.7zM71.2 94.5l50.4-21.6-30 30-20.4-8.4zm30.8 30.8l-8.4-20.4 30-30-21.6 50.4z"/><path class="st1" d="M79.5 109.4l1.4-1.4c.3-.3.4-.6.4-1 0-.8-.6-1.4-1.4-1.4-.4 0-.8.2-1 .4l-1.4 1.4c-.3.3-.4.6-.4 1 0 .8.6 1.4 1.4 1.4.4 0 .7-.1 1-.4zm9-1c0-.8-.6-1.4-1.4-1.4-.4 0-.8.2-1 .4l-14.4 14.4c-.3.3-.4.6-.4 1 0 .8.6 1.4 1.4 1.4.4 0 .8-.2 1-.4l14.4-14.4c.3-.3.4-.6.4-1zm0 5.7c-.4 0-.8.2-1 .4l-4.3 4.3c-.3.3-.4.6-.4 1 0 .8.6 1.4 1.4 1.4.4 0 .8-.2 1-.4l4.3-4.3c.3-.3.4-.6.4-1 .1-.7-.6-1.4-1.4-1.4zm40.3-46c0-.8-.6-1.4-1.4-1.4-.2 0-.4.1-.6.2L66.4 92.7h-.1c-.5.2-.8.7-.8 1.3 0 .7.4 1.2 1 1.4l23.8 9.8 9.8 23.8c.2.6.7 1 1.4 1 .6 0 1.1-.3 1.3-.8v-.1l25.9-60.3c0-.3.1-.5.1-.7zM70.7 94l50.4-21.6-30 30L70.7 94zm30.8 30.8l-8.4-20.4 30-30-21.6 50.4z"/><path class="st1" d="M79 108.9l1.4-1.4c.3-.3.4-.6.4-1 0-.8-.6-1.4-1.4-1.4-.4 0-.8.2-1 .4l-1.4 1.4c-.3.3-.4.6-.4 1 0 .8.6 1.4 1.4 1.4.4 0 .7-.1 1-.4zm9-1c0-.8-.6-1.4-1.4-1.4-.4 0-.8.2-1 .4l-14.4 14.4c-.3.3-.4.6-.4 1 0 .8.6 1.4 1.4 1.4.4 0 .8-.2 1-.4l14.4-14.4c.3-.3.4-.6.4-1zm0 5.7c-.4 0-.8.2-1 .4l-4.3 4.3c-.3.3-.4.6-.4 1 0 .8.6 1.4 1.4 1.4.4 0 .8-.2 1-.4L89 116c.3-.3.4-.6.4-1 .1-.7-.6-1.4-1.4-1.4zm40.3-46c0-.8-.6-1.4-1.4-1.4-.2 0-.4.1-.6.2L65.9 92.2h-.1c-.5.2-.8.7-.8 1.3 0 .7.4 1.2 1 1.4l23.8 9.8 9.8 23.8c.2.6.7 1 1.4 1 .6 0 1.1-.3 1.3-.8v-.1l25.9-60.3c0-.3.1-.5.1-.7zM70.2 93.5l50.4-21.6-30 30-20.4-8.4zm30.8 30.8l-8.4-20.4 30-30-21.6 50.4z"/><path class="st1" d="M78.5 108.4l1.4-1.4c.3-.3.4-.6.4-1 0-.8-.6-1.4-1.4-1.4-.4 0-.8.2-1 .4l-1.4 1.4c-.3.3-.4.6-.4 1 0 .8.6 1.4 1.4 1.4.4 0 .7-.1 1-.4zm9-1c0-.8-.6-1.4-1.4-1.4-.4 0-.8.2-1 .4l-14.4 14.4c-.3.3-.4.6-.4 1 0 .8.6 1.4 1.4 1.4.4 0 .8-.2 1-.4l14.4-14.4c.3-.3.4-.6.4-1zm0 5.7c-.4 0-.8.2-1 .4l-4.3 4.3c-.3.3-.4.6-.4 1 0 .8.6 1.4 1.4 1.4.4 0 .8-.2 1-.4l4.3-4.3c.3-.3.4-.6.4-1 .1-.7-.6-1.4-1.4-1.4zm40.3-46c0-.8-.6-1.4-1.4-1.4-.2 0-.4.1-.6.2L65.4 91.7h-.1c-.5.2-.8.7-.8 1.3 0 .7.4 1.2 1 1.4l23.8 9.8 9.8 23.8c.2.6.7 1 1.4 1 .6 0 1.1-.3 1.3-.8v-.1l25.9-60.3c0-.3.1-.5.1-.7zM69.7 93l50.4-21.6-30 30L69.7 93zm30.8 30.8l-8.4-20.4 30-30-21.6 50.4z"/><path class="st1" d="M78 107.9l1.4-1.4c.3-.3.4-.6.4-1 0-.8-.6-1.4-1.4-1.4-.4 0-.8.2-1 .4l-1.4 1.4c-.3.3-.4.6-.4 1 0 .8.6 1.4 1.4 1.4.4 0 .7-.1 1-.4zm9-1c0-.8-.6-1.4-1.4-1.4-.4 0-.8.2-1 .4l-14.4 14.4c-.3.3-.4.6-.4 1 0 .8.6 1.4 1.4 1.4.4 0 .8-.2 1-.4l14.4-14.4c.3-.3.4-.6.4-1zm0 5.7c-.4 0-.8.2-1 .4l-4.3 4.3c-.3.3-.4.6-.4 1 0 .8.6 1.4 1.4 1.4.4 0 .8-.2 1-.4L88 115c.3-.3.4-.6.4-1 .1-.7-.6-1.4-1.4-1.4zm40.3-46c0-.8-.6-1.4-1.4-1.4-.2 0-.4.1-.6.2L64.9 91.2h-.1c-.5.2-.8.7-.8 1.3 0 .7.4 1.2 1 1.4l23.8 9.8 9.8 23.8c.2.6.7 1 1.4 1 .6 0 1.1-.3 1.3-.8v-.1l25.9-60.3c0-.3.1-.5.1-.7zM69.2 92.5l50.4-21.6-30 30-20.4-8.4zm30.8 30.8l-8.4-20.4 30-30-21.6 50.4z"/><path class="st1" d="M77.5 107.4l1.4-1.4c.3-.3.4-.6.4-1 0-.8-.6-1.4-1.4-1.4-.4 0-.8.2-1 .4l-1.4 1.4c-.3.3-.4.6-.4 1 0 .8.6 1.4 1.4 1.4.4 0 .7-.1 1-.4zm9-1c0-.8-.6-1.4-1.4-1.4-.4 0-.8.2-1 .4l-14.4 14.4c-.3.3-.4.6-.4 1 0 .8.6 1.4 1.4 1.4.4 0 .8-.2 1-.4l14.4-14.4c.3-.3.4-.6.4-1zm0 5.7c-.4 0-.8.2-1 .4l-4.3 4.3c-.3.3-.4.6-.4 1 0 .8.6 1.4 1.4 1.4.4 0 .8-.2 1-.4l4.3-4.3c.3-.3.4-.6.4-1 .1-.7-.6-1.4-1.4-1.4zm40.3-46c0-.8-.6-1.4-1.4-1.4-.2 0-.4.1-.6.2L64.4 90.7h-.1c-.5.2-.8.7-.8 1.3 0 .7.4 1.2 1 1.4l23.8 9.8 9.8 23.8c.2.6.7 1 1.4 1 .6 0 1.1-.3 1.3-.8v-.1l25.9-60.3c0-.3.1-.5.1-.7zM68.7 92l50.4-21.6-30 30L68.7 92zm30.8 30.8l-8.4-20.4 30-30-21.6 50.4z"/><path class="st1" d="M77 106.9l1.4-1.4c.3-.3.4-.6.4-1 0-.8-.6-1.4-1.4-1.4-.4 0-.8.2-1 .4l-1.4 1.4c-.3.3-.4.6-.4 1 0 .8.6 1.4 1.4 1.4.4 0 .7-.1 1-.4zm9-1c0-.8-.6-1.4-1.4-1.4-.4 0-.8.2-1 .4l-14.4 14.4c-.3.3-.4.6-.4 1 0 .8.6 1.4 1.4 1.4.4 0 .8-.2 1-.4l14.4-14.4c.3-.3.4-.6.4-1zm0 5.7c-.4 0-.8.2-1 .4l-4.3 4.3c-.3.3-.4.6-.4 1 0 .8.6 1.4 1.4 1.4.4 0 .8-.2 1-.4L87 114c.3-.3.4-.6.4-1 .1-.7-.6-1.4-1.4-1.4zm40.3-46c0-.8-.6-1.4-1.4-1.4-.2 0-.4.1-.6.2L63.9 90.2h-.1c-.5.2-.8.7-.8 1.3 0 .7.4 1.2 1 1.4l23.8 9.8 9.8 23.8c.2.6.7 1 1.4 1 .6 0 1.1-.3 1.3-.8v-.1l25.9-60.3c0-.3.1-.5.1-.7zM68.2 91.5l50.4-21.6-30 30-20.4-8.4zM99 122.3l-8.4-20.4 30-30L99 122.3z"/><path class="st1" d="M76.5 106.4l1.4-1.4c.3-.3.4-.6.4-1 0-.8-.6-1.4-1.4-1.4-.4 0-.8.2-1 .4l-1.4 1.4c-.3.3-.4.6-.4 1 0 .8.6 1.4 1.4 1.4.4 0 .7-.1 1-.4zm9-1c0-.8-.6-1.4-1.4-1.4-.4 0-.8.2-1 .4l-14.4 14.4c-.3.3-.4.6-.4 1 0 .8.6 1.4 1.4 1.4.4 0 .8-.2 1-.4l14.4-14.4c.3-.3.4-.6.4-1zm0 5.7c-.4 0-.8.2-1 .4l-4.3 4.3c-.3.3-.4.6-.4 1 0 .8.6 1.4 1.4 1.4.4 0 .8-.2 1-.4l4.3-4.3c.3-.3.4-.6.4-1 .1-.7-.6-1.4-1.4-1.4zm40.3-46c0-.8-.6-1.4-1.4-1.4-.2 0-.4.1-.6.2L63.4 89.7h-.1c-.5.2-.8.7-.8 1.3 0 .7.4 1.2 1 1.4l23.8 9.8 9.8 23.8c.2.6.7 1 1.4 1 .6 0 1.1-.3 1.3-.8v-.1l25.9-60.3c0-.3.1-.5.1-.7zM67.7 91l50.4-21.6-30 30L67.7 91zm30.8 30.8l-8.4-20.4 30-30-21.6 50.4z"/><path class="st1" d="M76 105.9l1.4-1.4c.3-.3.4-.6.4-1 0-.8-.6-1.4-1.4-1.4-.4 0-.8.2-1 .4l-1.4 1.4c-.3.3-.4.6-.4 1 0 .8.6 1.4 1.4 1.4.4 0 .7-.1 1-.4zm9-1c0-.8-.6-1.4-1.4-1.4-.4 0-.8.2-1 .4l-14.4 14.4c-.3.3-.4.6-.4 1 0 .8.6 1.4 1.4 1.4.4 0 .8-.2 1-.4l14.4-14.4c.3-.3.4-.6.4-1zm0 5.7c-.4 0-.8.2-1 .4l-4.3 4.3c-.3.3-.4.6-.4 1 0 .8.6 1.4 1.4 1.4.4 0 .8-.2 1-.4L86 113c.3-.3.4-.6.4-1 .1-.7-.6-1.4-1.4-1.4zm40.3-46c0-.8-.6-1.4-1.4-1.4-.2 0-.4.1-.6.2L62.9 89.2h-.1c-.5.2-.8.7-.8 1.3 0 .7.4 1.2 1 1.4l23.8 9.8 9.8 23.8c.2.6.7 1 1.4 1 .6 0 1.1-.3 1.3-.8v-.1l25.9-60.3c0-.3.1-.5.1-.7zM67.2 90.5l50.4-21.6-30 30-20.4-8.4zM98 121.3l-8.4-20.4 30-30L98 121.3z"/><path class="st1" d="M75.5 105.4l1.4-1.4c.3-.3.4-.6.4-1 0-.8-.6-1.4-1.4-1.4-.4 0-.8.2-1 .4l-1.4 1.4c-.3.3-.4.6-.4 1 0 .8.6 1.4 1.4 1.4.4 0 .7-.1 1-.4zm9-1c0-.8-.6-1.4-1.4-1.4-.4 0-.8.2-1 .4l-14.4 14.4c-.3.3-.4.6-.4 1 0 .8.6 1.4 1.4 1.4.4 0 .8-.2 1-.4l14.4-14.4c.3-.3.4-.6.4-1zm0 5.7c-.4 0-.8.2-1 .4l-4.3 4.3c-.3.3-.4.6-.4 1 0 .8.6 1.4 1.4 1.4.4 0 .8-.2 1-.4l4.3-4.3c.3-.3.4-.6.4-1 .1-.7-.6-1.4-1.4-1.4zm40.3-46c0-.8-.6-1.4-1.4-1.4-.2 0-.4.1-.6.2L62.4 88.7h-.1c-.5.2-.8.7-.8 1.3 0 .7.4 1.2 1 1.4l23.8 9.8 9.8 23.8c.2.6.7 1 1.4 1 .6 0 1.1-.3 1.3-.8v-.1l25.9-60.3c0-.3.1-.5.1-.7zM66.7 90l50.4-21.6-30 30L66.7 90zm30.8 30.8l-8.4-20.4 30-30-21.6 50.4z"/><path class="st1" d="M75 104.9l1.4-1.4c.3-.3.4-.6.4-1 0-.8-.6-1.4-1.4-1.4-.4 0-.8.2-1 .4l-1.4 1.4c-.3.3-.4.6-.4 1 0 .8.6 1.4 1.4 1.4.4 0 .7-.1 1-.4zm9-1c0-.8-.6-1.4-1.4-1.4-.4 0-.8.2-1 .4l-14.4 14.4c-.3.3-.4.6-.4 1 0 .8.6 1.4 1.4 1.4.4 0 .8-.2 1-.4l14.4-14.4c.3-.3.4-.6.4-1zm0 5.7c-.4 0-.8.2-1 .4l-4.3 4.3c-.3.3-.4.6-.4 1 0 .8.6 1.4 1.4 1.4.4 0 .8-.2 1-.4L85 112c.3-.3.4-.6.4-1 .1-.7-.6-1.4-1.4-1.4zm40.3-46c0-.8-.6-1.4-1.4-1.4-.2 0-.4.1-.6.2L61.9 88.2h-.1c-.5.2-.8.7-.8 1.3 0 .7.4 1.2 1 1.4l23.8 9.8 9.8 23.8c.2.6.7 1 1.4 1 .6 0 1.1-.3 1.3-.8v-.1l25.9-60.3c0-.3.1-.5.1-.7zM66.2 89.5l50.4-21.6-30 30-20.4-8.4zM97 120.3l-8.4-20.4 30-30L97 120.3z"/><path class="st1" d="M74.5 104.4l1.4-1.4c.3-.3.4-.6.4-1 0-.8-.6-1.4-1.4-1.4-.4 0-.8.2-1 .4l-1.4 1.4c-.3.3-.4.6-.4 1 0 .8.6 1.4 1.4 1.4.4 0 .7-.1 1-.4zm9-1c0-.8-.6-1.4-1.4-1.4-.4 0-.8.2-1 .4l-14.4 14.4c-.3.3-.4.6-.4 1 0 .8.6 1.4 1.4 1.4.4 0 .8-.2 1-.4l14.4-14.4c.3-.3.4-.6.4-1zm0 5.7c-.4 0-.8.2-1 .4l-4.3 4.3c-.3.3-.4.6-.4 1 0 .8.6 1.4 1.4 1.4.4 0 .8-.2 1-.4l4.3-4.3c.3-.3.4-.6.4-1 .1-.7-.6-1.4-1.4-1.4zm40.3-46c0-.8-.6-1.4-1.4-1.4-.2 0-.4.1-.6.2L61.4 87.7h-.1c-.5.2-.8.7-.8 1.3 0 .7.4 1.2 1 1.4l23.8 9.8 9.8 23.8c.2.6.7 1 1.4 1 .6 0 1.1-.3 1.3-.8v-.1l25.9-60.3c0-.3.1-.5.1-.7zM65.7 89l50.4-21.6-30 30L65.7 89zm30.8 30.8l-8.4-20.4 30-30-21.6 50.4z"/><path class="st1" d="M74 103.9l1.4-1.4c.3-.3.4-.6.4-1 0-.8-.6-1.4-1.4-1.4-.4 0-.8.2-1 .4l-1.4 1.4c-.3.3-.4.6-.4 1 0 .8.6 1.4 1.4 1.4.4 0 .7-.1 1-.4zm9-1c0-.8-.6-1.4-1.4-1.4-.4 0-.8.2-1 .4l-14.4 14.4c-.3.3-.4.6-.4 1 0 .8.6 1.4 1.4 1.4.4 0 .8-.2 1-.4l14.4-14.4c.3-.3.4-.6.4-1zm0 5.7c-.4 0-.8.2-1 .4l-4.3 4.3c-.3.3-.4.6-.4 1 0 .8.6 1.4 1.4 1.4.4 0 .8-.2 1-.4L84 111c.3-.3.4-.6.4-1 .1-.7-.6-1.4-1.4-1.4zm40.3-46c0-.8-.6-1.4-1.4-1.4-.2 0-.4.1-.6.2L60.9 87.2h-.1c-.5.2-.8.7-.8 1.3 0 .7.4 1.2 1 1.4l23.8 9.8 9.8 23.8c.2.6.7 1 1.4 1 .6 0 1.1-.3 1.3-.8v-.1l25.9-60.3c0-.3.1-.5.1-.7zM65.2 88.5l50.4-21.6-30 30-20.4-8.4zM96 119.3l-8.4-20.4 30-30L96 119.3z"/><path class="st1" d="M73.5 103.4l1.4-1.4c.3-.3.4-.6.4-1 0-.8-.6-1.4-1.4-1.4-.4 0-.8.2-1 .4l-1.4 1.4c-.3.3-.4.6-.4 1 0 .8.6 1.4 1.4 1.4.4 0 .7-.1 1-.4zm9-1c0-.8-.6-1.4-1.4-1.4-.4 0-.8.2-1 .4l-14.4 14.4c-.3.3-.4.6-.4 1 0 .8.6 1.4 1.4 1.4.4 0 .8-.2 1-.4l14.4-14.4c.3-.3.4-.6.4-1zm0 5.7c-.4 0-.8.2-1 .4l-4.3 4.3c-.3.3-.4.6-.4 1 0 .8.6 1.4 1.4 1.4.4 0 .8-.2 1-.4l4.3-4.3c.3-.3.4-.6.4-1 .1-.7-.6-1.4-1.4-1.4zm40.3-46c0-.8-.6-1.4-1.4-1.4-.2 0-.4.1-.6.2L60.4 86.7h-.1c-.5.2-.8.7-.8 1.3 0 .7.4 1.2 1 1.4l23.8 9.8 9.8 23.8c.2.6.7 1 1.4 1 .6 0 1.1-.3 1.3-.8v-.1l25.9-60.3c0-.3.1-.5.1-.7zM64.7 88l50.4-21.6-30 30L64.7 88zm30.8 30.8l-8.4-20.4 30-30-21.6 50.4z"/><path class="st1" d="M73 102.9l1.4-1.4c.3-.3.4-.6.4-1 0-.8-.6-1.4-1.4-1.4-.4 0-.8.2-1 .4l-1.4 1.4c-.3.3-.4.6-.4 1 0 .8.6 1.4 1.4 1.4.4 0 .7-.1 1-.4zm9-1c0-.8-.6-1.4-1.4-1.4-.4 0-.8.2-1 .4l-14.4 14.4c-.3.3-.4.6-.4 1 0 .8.6 1.4 1.4 1.4.4 0 .8-.2 1-.4l14.4-14.4c.3-.3.4-.6.4-1zm0 5.7c-.4 0-.8.2-1 .4l-4.3 4.3c-.3.3-.4.6-.4 1 0 .8.6 1.4 1.4 1.4.4 0 .8-.2 1-.4L83 110c.3-.3.4-.6.4-1 .1-.7-.6-1.4-1.4-1.4zm40.3-46c0-.8-.6-1.4-1.4-1.4-.2 0-.4.1-.6.2L59.9 86.2h-.1c-.5.2-.8.7-.8 1.3 0 .7.4 1.2 1 1.4l23.8 9.8 9.8 23.8c.2.6.7 1 1.4 1 .6 0 1.1-.3 1.3-.8v-.1l25.9-60.3c0-.3.1-.5.1-.7zM64.2 87.5l50.4-21.6-30 30-20.4-8.4zM95 118.3l-8.4-20.4 30-30L95 118.3z"/><path class="st1" d="M72.5 102.4l1.4-1.4c.3-.3.4-.6.4-1 0-.8-.6-1.4-1.4-1.4-.4 0-.8.2-1 .4l-1.4 1.4c-.3.3-.4.6-.4 1 0 .8.6 1.4 1.4 1.4.4 0 .7-.1 1-.4zm9-1c0-.8-.6-1.4-1.4-1.4-.4 0-.8.2-1 .4l-14.4 14.4c-.3.3-.4.6-.4 1 0 .8.6 1.4 1.4 1.4.4 0 .8-.2 1-.4l14.4-14.4c.3-.3.4-.6.4-1zm0 5.7c-.4 0-.8.2-1 .4l-4.3 4.3c-.3.3-.4.6-.4 1 0 .8.6 1.4 1.4 1.4.4 0 .8-.2 1-.4l4.3-4.3c.3-.3.4-.6.4-1 .1-.7-.6-1.4-1.4-1.4zm40.3-46c0-.8-.6-1.4-1.4-1.4-.2 0-.4.1-.6.2L59.4 85.7h-.1c-.5.2-.8.7-.8 1.3 0 .7.4 1.2 1 1.4l23.8 9.8 9.8 23.8c.2.6.7 1 1.4 1 .6 0 1.1-.3 1.3-.8v-.1l25.9-60.3c0-.3.1-.5.1-.7zM63.7 87l50.4-21.6-30 30L63.7 87zm30.8 30.8l-8.4-20.4 30-30-21.6 50.4z"/><path class="st1" d="M72 101.9l1.4-1.4c.3-.3.4-.6.4-1 0-.8-.6-1.4-1.4-1.4-.4 0-.8.2-1 .4L70 99.9c-.3.3-.4.6-.4 1 0 .8.6 1.4 1.4 1.4.4 0 .7-.1 1-.4zm9-1c0-.8-.6-1.4-1.4-1.4-.4 0-.8.2-1 .4l-14.4 14.4c-.3.3-.4.6-.4 1 0 .8.6 1.4 1.4 1.4.4 0 .8-.2 1-.4l14.4-14.4c.3-.3.4-.6.4-1zm0 5.7c-.4 0-.8.2-1 .4l-4.3 4.3c-.3.3-.4.6-.4 1 0 .8.6 1.4 1.4 1.4.4 0 .8-.2 1-.4L82 109c.3-.3.4-.6.4-1 .1-.7-.6-1.4-1.4-1.4zm40.3-46c0-.8-.6-1.4-1.4-1.4-.2 0-.4.1-.6.2L58.9 85.2h-.1c-.5.2-.8.7-.8 1.3 0 .7.4 1.2 1 1.4l23.8 9.8 9.8 23.8c.2.6.7 1 1.4 1 .6 0 1.1-.3 1.3-.8v-.1l25.9-60.3c0-.3.1-.5.1-.7zM63.2 86.5l50.4-21.6-30 30-20.4-8.4zM94 117.3l-8.4-20.4 30-30L94 117.3z"/><path class="st1" d="M71.5 101.4l1.4-1.4c.3-.3.4-.6.4-1 0-.8-.6-1.4-1.4-1.4-.4 0-.8.2-1 .4l-1.4 1.4c-.3.3-.4.6-.4 1 0 .8.6 1.4 1.4 1.4.4 0 .7-.1 1-.4zm9-1c0-.8-.6-1.4-1.4-1.4-.4 0-.8.2-1 .4l-14.4 14.4c-.3.3-.4.6-.4 1 0 .8.6 1.4 1.4 1.4.4 0 .8-.2 1-.4l14.4-14.4c.3-.3.4-.6.4-1zm0 5.7c-.4 0-.8.2-1 .4l-4.3 4.3c-.3.3-.4.6-.4 1 0 .8.6 1.4 1.4 1.4.4 0 .8-.2 1-.4l4.3-4.3c.3-.3.4-.6.4-1 .1-.7-.6-1.4-1.4-1.4zm40.3-46c0-.8-.6-1.4-1.4-1.4-.2 0-.4.1-.6.2L58.4 84.7h-.1c-.5.2-.8.7-.8 1.3 0 .7.4 1.2 1 1.4l23.8 9.8 9.8 23.8c.2.6.7 1 1.4 1 .6 0 1.1-.3 1.3-.8v-.1l25.9-60.3c0-.3.1-.5.1-.7zM62.7 86l50.4-21.6-30 30L62.7 86zm30.8 30.8l-8.4-20.4 30-30-21.6 50.4z"/><path class="st1" d="M71 100.9l1.4-1.4c.3-.3.4-.6.4-1 0-.8-.6-1.4-1.4-1.4-.4 0-.8.2-1 .4L69 98.9c-.3.3-.4.6-.4 1 0 .8.6 1.4 1.4 1.4.4 0 .7-.1 1-.4zm9-1c0-.8-.6-1.4-1.4-1.4-.4 0-.8.2-1 .4l-14.4 14.4c-.3.3-.4.6-.4 1 0 .8.6 1.4 1.4 1.4.4 0 .8-.2 1-.4l14.4-14.4c.3-.3.4-.6.4-1zm0 5.7c-.4 0-.8.2-1 .4l-4.3 4.3c-.3.3-.4.6-.4 1 0 .8.6 1.4 1.4 1.4.4 0 .8-.2 1-.4L81 108c.3-.3.4-.6.4-1 .1-.7-.6-1.4-1.4-1.4zm40.3-46c0-.8-.6-1.4-1.4-1.4-.2 0-.4.1-.6.2L57.9 84.2h-.1c-.5.2-.8.7-.8 1.3 0 .7.4 1.2 1 1.4l23.8 9.8 9.8 23.8c.2.6.7 1 1.4 1 .6 0 1.1-.3 1.3-.8v-.1l25.9-60.3c0-.3.1-.5.1-.7zM62.2 85.5l50.4-21.6-30 30-20.4-8.4zM93 116.3l-8.4-20.4 30-30L93 116.3z"/><path class="st1" d="M70.5 100.4l1.4-1.4c.3-.3.4-.6.4-1 0-.8-.6-1.4-1.4-1.4-.4 0-.8.2-1 .4l-1.4 1.4c-.3.3-.4.6-.4 1 0 .8.6 1.4 1.4 1.4.4 0 .7-.1 1-.4zm9-1c0-.8-.6-1.4-1.4-1.4-.4 0-.8.2-1 .4l-14.4 14.4c-.3.3-.4.6-.4 1 0 .8.6 1.4 1.4 1.4.4 0 .8-.2 1-.4l14.4-14.4c.3-.3.4-.6.4-1zm0 5.7c-.4 0-.8.2-1 .4l-4.3 4.3c-.3.3-.4.6-.4 1 0 .8.6 1.4 1.4 1.4.4 0 .8-.2 1-.4l4.3-4.3c.3-.3.4-.6.4-1 .1-.7-.6-1.4-1.4-1.4zm40.3-46c0-.8-.6-1.4-1.4-1.4-.2 0-.4.1-.6.2L57.4 83.7h-.1c-.5.2-.8.7-.8 1.3 0 .7.4 1.2 1 1.4l23.8 9.8 9.8 23.8c.2.6.7 1 1.4 1 .6 0 1.1-.3 1.3-.8v-.1l25.9-60.3c0-.3.1-.5.1-.7zM61.7 85l50.4-21.6-30 30L61.7 85zm30.8 30.8l-8.4-20.4 30-30-21.6 50.4z"/><path class="st1" d="M70 99.9l1.4-1.4c.3-.3.4-.6.4-1 0-.8-.6-1.4-1.4-1.4-.4 0-.8.2-1 .4L68 97.9c-.3.3-.4.6-.4 1 0 .8.6 1.4 1.4 1.4.4 0 .7-.1 1-.4zm9-1c0-.8-.6-1.4-1.4-1.4-.4 0-.8.2-1 .4l-14.4 14.4c-.3.3-.4.6-.4 1 0 .8.6 1.4 1.4 1.4.4 0 .8-.2 1-.4l14.4-14.4c.3-.3.4-.6.4-1zm0 5.7c-.4 0-.8.2-1 .4l-4.3 4.3c-.3.3-.4.6-.4 1 0 .8.6 1.4 1.4 1.4.4 0 .8-.2 1-.4L80 107c.3-.3.4-.6.4-1 .1-.7-.6-1.4-1.4-1.4zm40.3-46c0-.8-.6-1.4-1.4-1.4-.2 0-.4.1-.6.2L56.9 83.2h-.1c-.5.2-.8.7-.8 1.3 0 .7.4 1.2 1 1.4l23.8 9.8 9.8 23.8c.2.6.7 1 1.4 1 .6 0 1.1-.3 1.3-.8v-.1l25.9-60.3c0-.3.1-.5.1-.7zM61.2 84.5l50.4-21.6-30 30-20.4-8.4zM92 115.3l-8.4-20.4 30-30L92 115.3z"/><path class="st1" d="M69.5 99.4l1.4-1.4c.3-.3.4-.6.4-1 0-.8-.6-1.4-1.4-1.4-.4 0-.8.2-1 .4l-1.4 1.4c-.3.3-.4.6-.4 1 0 .8.6 1.4 1.4 1.4.4 0 .7-.1 1-.4zm9-1c0-.8-.6-1.4-1.4-1.4-.4 0-.8.2-1 .4l-14.4 14.4c-.3.3-.4.6-.4 1 0 .8.6 1.4 1.4 1.4.4 0 .8-.2 1-.4l14.4-14.4c.3-.3.4-.6.4-1zm0 5.7c-.4 0-.8.2-1 .4l-4.3 4.3c-.3.3-.4.6-.4 1 0 .8.6 1.4 1.4 1.4.4 0 .8-.2 1-.4l4.3-4.3c.3-.3.4-.6.4-1 .1-.7-.6-1.4-1.4-1.4zm40.3-46c0-.8-.6-1.4-1.4-1.4-.2 0-.4.1-.6.2L56.4 82.7h-.1c-.5.2-.8.7-.8 1.3 0 .7.4 1.2 1 1.4l23.8 9.8 9.8 23.8c.2.6.7 1 1.4 1 .6 0 1.1-.3 1.3-.8v-.1l25.9-60.3c0-.3.1-.5.1-.7zM60.7 84l50.4-21.6-30 30L60.7 84zm30.8 30.8l-8.4-20.4 30-30-21.6 50.4z"/><path class="st1" d="M69 98.9l1.4-1.4c.3-.3.4-.6.4-1 0-.8-.6-1.4-1.4-1.4-.4 0-.8.2-1 .4L67 96.9c-.3.3-.4.6-.4 1 0 .8.6 1.4 1.4 1.4.4 0 .7-.1 1-.4zm9-1c0-.8-.6-1.4-1.4-1.4-.4 0-.8.2-1 .4l-14.4 14.4c-.3.3-.4.6-.4 1 0 .8.6 1.4 1.4 1.4.4 0 .8-.2 1-.4l14.4-14.4c.3-.3.4-.6.4-1zm0 5.7c-.4 0-.8.2-1 .4l-4.3 4.3c-.3.3-.4.6-.4 1 0 .8.6 1.4 1.4 1.4.4 0 .8-.2 1-.4L79 106c.3-.3.4-.6.4-1 .1-.7-.6-1.4-1.4-1.4zm40.3-46c0-.8-.6-1.4-1.4-1.4-.2 0-.4.1-.6.2L55.9 82.2h-.1c-.5.2-.8.7-.8 1.3 0 .7.4 1.2 1 1.4l23.8 9.8 9.8 23.8c.2.6.7 1 1.4 1 .6 0 1.1-.3 1.3-.8v-.1l25.9-60.3c0-.3.1-.5.1-.7zM60.2 83.5l50.4-21.6-30 30-20.4-8.4zM91 114.3l-8.4-20.4 30-30L91 114.3z"/><path class="st1" d="M68.5 98.4l1.4-1.4c.3-.3.4-.6.4-1 0-.8-.6-1.4-1.4-1.4-.4 0-.8.2-1 .4l-1.4 1.4c-.3.3-.4.6-.4 1 0 .8.6 1.4 1.4 1.4.4 0 .7-.1 1-.4zm9-1c0-.8-.6-1.4-1.4-1.4-.4 0-.8.2-1 .4l-14.4 14.4c-.3.3-.4.6-.4 1 0 .8.6 1.4 1.4 1.4.4 0 .8-.2 1-.4l14.4-14.4c.3-.3.4-.6.4-1zm0 5.7c-.4 0-.8.2-1 .4l-4.3 4.3c-.3.3-.4.6-.4 1 0 .8.6 1.4 1.4 1.4.4 0 .8-.2 1-.4l4.3-4.3c.3-.3.4-.6.4-1 .1-.7-.6-1.4-1.4-1.4zm40.3-46c0-.8-.6-1.4-1.4-1.4-.2 0-.4.1-.6.2L55.4 81.7h-.1c-.5.2-.8.7-.8 1.3 0 .7.4 1.2 1 1.4l23.8 9.8 9.8 23.8c.2.6.7 1 1.4 1 .6 0 1.1-.3 1.3-.8v-.1l25.9-60.3c0-.3.1-.5.1-.7zM59.7 83l50.4-21.6-30 30L59.7 83zm30.8 30.8l-8.4-20.4 30-30-21.6 50.4z"/><path class="st1" d="M68 97.9l1.4-1.4c.3-.3.4-.6.4-1 0-.8-.6-1.4-1.4-1.4-.4 0-.8.2-1 .4L66 95.9c-.3.3-.4.6-.4 1 0 .8.6 1.4 1.4 1.4.4 0 .7-.1 1-.4zm9-1c0-.8-.6-1.4-1.4-1.4-.4 0-.8.2-1 .4l-14.4 14.4c-.3.3-.4.6-.4 1 0 .8.6 1.4 1.4 1.4.4 0 .8-.2 1-.4l14.4-14.4c.3-.3.4-.6.4-1zm0 5.7c-.4 0-.8.2-1 .4l-4.3 4.3c-.3.3-.4.6-.4 1 0 .8.6 1.4 1.4 1.4.4 0 .8-.2 1-.4L78 105c.3-.3.4-.6.4-1 .1-.7-.6-1.4-1.4-1.4zm40.3-46c0-.8-.6-1.4-1.4-1.4-.2 0-.4.1-.6.2L54.9 81.2h-.1c-.5.2-.8.7-.8 1.3 0 .7.4 1.2 1 1.4l23.8 9.8 9.8 23.8c.2.6.7 1 1.4 1 .6 0 1.1-.3 1.3-.8v-.1l25.9-60.3c0-.3.1-.5.1-.7zM59.2 82.5l50.4-21.6-30 30-20.4-8.4zM90 113.3l-8.4-20.4 30-30L90 113.3z"/><path class="st1" d="M67.5 97.4l1.4-1.4c.3-.3.4-.6.4-1 0-.8-.6-1.4-1.4-1.4-.4 0-.8.2-1 .4l-1.4 1.4c-.3.3-.4.6-.4 1 0 .8.6 1.4 1.4 1.4.4 0 .7-.1 1-.4zm9-1c0-.8-.6-1.4-1.4-1.4-.4 0-.8.2-1 .4l-14.4 14.4c-.3.3-.4.6-.4 1 0 .8.6 1.4 1.4 1.4.4 0 .8-.2 1-.4l14.4-14.4c.3-.3.4-.6.4-1zm0 5.7c-.4 0-.8.2-1 .4l-4.3 4.3c-.3.3-.4.6-.4 1 0 .8.6 1.4 1.4 1.4.4 0 .8-.2 1-.4l4.3-4.3c.3-.3.4-.6.4-1 .1-.7-.6-1.4-1.4-1.4zm40.3-46c0-.8-.6-1.4-1.4-1.4-.2 0-.4.1-.6.2L54.4 80.7h-.1c-.5.2-.8.7-.8 1.3 0 .7.4 1.2 1 1.4l23.8 9.8 9.8 23.8c.2.6.7 1 1.4 1 .6 0 1.1-.3 1.3-.8v-.1l25.9-60.3c0-.3.1-.5.1-.7zM58.7 82l50.4-21.6-30 30L58.7 82zm30.8 30.8l-8.4-20.4 30-30-21.6 50.4z"/><path class="st1" d="M67 96.9l1.4-1.4c.3-.3.4-.6.4-1 0-.8-.6-1.4-1.4-1.4-.4 0-.8.2-1 .4L65 94.9c-.3.3-.4.6-.4 1 0 .8.6 1.4 1.4 1.4.4 0 .7-.1 1-.4zm9-1c0-.8-.6-1.4-1.4-1.4-.4 0-.8.2-1 .4l-14.4 14.4c-.3.3-.4.6-.4 1 0 .8.6 1.4 1.4 1.4.4 0 .8-.2 1-.4l14.4-14.4c.3-.3.4-.6.4-1zm0 5.7c-.4 0-.8.2-1 .4l-4.3 4.3c-.3.3-.4.6-.4 1 0 .8.6 1.4 1.4 1.4.4 0 .8-.2 1-.4L77 104c.3-.3.4-.6.4-1 .1-.7-.6-1.4-1.4-1.4zm40.3-46c0-.8-.6-1.4-1.4-1.4-.2 0-.4.1-.6.2L53.9 80.2h-.1c-.5.2-.8.7-.8 1.3 0 .7.4 1.2 1 1.4l23.8 9.8 9.8 23.8c.2.6.7 1 1.4 1 .6 0 1.1-.3 1.3-.8v-.1l25.9-60.3c0-.3.1-.5.1-.7zM58.2 81.5l50.4-21.6-30 30-20.4-8.4zM89 112.3l-8.4-20.4 30-30L89 112.3z"/><path class="st1" d="M66.5 96.4l1.4-1.4c.3-.3.4-.6.4-1 0-.8-.6-1.4-1.4-1.4-.4 0-.8.2-1 .4l-1.4 1.4c-.3.3-.4.6-.4 1 0 .8.6 1.4 1.4 1.4.4 0 .7-.1 1-.4zm9-1c0-.8-.6-1.4-1.4-1.4-.4 0-.8.2-1 .4l-14.4 14.4c-.3.3-.4.6-.4 1 0 .8.6 1.4 1.4 1.4.4 0 .8-.2 1-.4l14.4-14.4c.3-.3.4-.6.4-1zm0 5.7c-.4 0-.8.2-1 .4l-4.3 4.3c-.3.3-.4.6-.4 1 0 .8.6 1.4 1.4 1.4.4 0 .8-.2 1-.4l4.3-4.3c.3-.3.4-.6.4-1 .1-.7-.6-1.4-1.4-1.4zm40.3-46c0-.8-.6-1.4-1.4-1.4-.2 0-.4.1-.6.2L53.4 79.7h-.1c-.5.2-.8.7-.8 1.3 0 .7.4 1.2 1 1.4l23.8 9.8 9.8 23.8c.2.6.7 1 1.4 1 .6 0 1.1-.3 1.3-.8v-.1l25.9-60.3c0-.3.1-.5.1-.7zM57.7 81l50.4-21.6-30 30L57.7 81zm30.8 30.8l-8.4-20.4 30-30-21.6 50.4z"/><path class="st1" d="M66 95.9l1.4-1.4c.3-.3.4-.6.4-1 0-.8-.6-1.4-1.4-1.4-.4 0-.8.2-1 .4L64 93.9c-.3.3-.4.6-.4 1 0 .8.6 1.4 1.4 1.4.4 0 .7-.1 1-.4zm9-1c0-.8-.6-1.4-1.4-1.4-.4 0-.8.2-1 .4l-14.4 14.4c-.3.3-.4.6-.4 1 0 .8.6 1.4 1.4 1.4.4 0 .8-.2 1-.4l14.4-14.4c.3-.3.4-.6.4-1zm0 5.7c-.4 0-.8.2-1 .4l-4.3 4.3c-.3.3-.4.6-.4 1 0 .8.6 1.4 1.4 1.4.4 0 .8-.2 1-.4L76 103c.3-.3.4-.6.4-1 .1-.7-.6-1.4-1.4-1.4zm40.3-46c0-.8-.6-1.4-1.4-1.4-.2 0-.4.1-.6.2L52.9 79.2h-.1c-.5.2-.8.7-.8 1.3 0 .7.4 1.2 1 1.4l23.8 9.8 9.8 23.8c.2.6.7 1 1.4 1 .6 0 1.1-.3 1.3-.8v-.1l25.9-60.3c0-.3.1-.5.1-.7zM57.2 80.5l50.4-21.6-30 30-20.4-8.4zM88 111.3l-8.4-20.4 30-30L88 111.3z"/><path class="st1" d="M65.5 95.4l1.4-1.4c.3-.3.4-.6.4-1 0-.8-.6-1.4-1.4-1.4-.4 0-.8.2-1 .4l-1.4 1.4c-.3.3-.4.6-.4 1 0 .8.6 1.4 1.4 1.4.4 0 .7-.1 1-.4zm9-1c0-.8-.6-1.4-1.4-1.4-.4 0-.8.2-1 .4l-14.4 14.4c-.3.3-.4.6-.4 1 0 .8.6 1.4 1.4 1.4.4 0 .8-.2 1-.4l14.4-14.4c.3-.3.4-.6.4-1zm0 5.7c-.4 0-.8.2-1 .4l-4.3 4.3c-.3.3-.4.6-.4 1 0 .8.6 1.4 1.4 1.4.4 0 .8-.2 1-.4l4.3-4.3c.3-.3.4-.6.4-1 .1-.7-.6-1.4-1.4-1.4zm40.3-46c0-.8-.6-1.4-1.4-1.4-.2 0-.4.1-.6.2L52.4 78.7h-.1c-.5.2-.8.7-.8 1.3 0 .7.4 1.2 1 1.4l23.8 9.8 9.8 23.8c.2.6.7 1 1.4 1 .6 0 1.1-.3 1.3-.8v-.1l25.9-60.3c0-.3.1-.5.1-.7zM56.7 80l50.4-21.6-30 30L56.7 80zm30.8 30.8l-8.4-20.4 30-30-21.6 50.4z"/><path class="st1" d="M65 94.9l1.4-1.4c.3-.3.4-.6.4-1 0-.8-.6-1.4-1.4-1.4-.4 0-.8.2-1 .4L63 92.9c-.3.3-.4.6-.4 1 0 .8.6 1.4 1.4 1.4.4 0 .7-.1 1-.4zm9-1c0-.8-.6-1.4-1.4-1.4-.4 0-.8.2-1 .4l-14.4 14.4c-.3.3-.4.6-.4 1 0 .8.6 1.4 1.4 1.4.4 0 .8-.2 1-.4l14.4-14.4c.3-.3.4-.6.4-1zm0 5.7c-.4 0-.8.2-1 .4l-4.3 4.3c-.3.3-.4.6-.4 1 0 .8.6 1.4 1.4 1.4.4 0 .8-.2 1-.4L75 102c.3-.3.4-.6.4-1 .1-.7-.6-1.4-1.4-1.4zm40.3-46c0-.8-.6-1.4-1.4-1.4-.2 0-.4.1-.6.2L51.9 78.2h-.1c-.5.2-.8.7-.8 1.3 0 .7.4 1.2 1 1.4l23.8 9.8 9.8 23.8c.2.6.7 1 1.4 1 .6 0 1.1-.3 1.3-.8v-.1l25.9-60.3c0-.3.1-.5.1-.7zM56.2 79.5l50.4-21.6-30 30-20.4-8.4zM87 110.3l-8.4-20.4 30-30L87 110.3z"/><path class="st1" d="M64.5 94.4l1.4-1.4c.3-.3.4-.6.4-1 0-.8-.6-1.4-1.4-1.4-.4 0-.8.2-1 .4l-1.4 1.4c-.3.3-.4.6-.4 1 0 .8.6 1.4 1.4 1.4.4 0 .7-.1 1-.4zm9-1c0-.8-.6-1.4-1.4-1.4-.4 0-.8.2-1 .4l-14.4 14.4c-.3.3-.4.6-.4 1 0 .8.6 1.4 1.4 1.4.4 0 .8-.2 1-.4l14.4-14.4c.3-.3.4-.6.4-1zm0 5.7c-.4 0-.8.2-1 .4l-4.3 4.3c-.3.3-.4.6-.4 1 0 .8.6 1.4 1.4 1.4.4 0 .8-.2 1-.4l4.3-4.3c.3-.3.4-.6.4-1 .1-.7-.6-1.4-1.4-1.4zm40.3-46c0-.8-.6-1.4-1.4-1.4-.2 0-.4.1-.6.2L51.4 77.7h-.1c-.5.2-.8.7-.8 1.3 0 .7.4 1.2 1 1.4l23.8 9.8 9.8 23.8c.2.6.7 1 1.4 1 .6 0 1.1-.3 1.3-.8v-.1l25.9-60.3c0-.3.1-.5.1-.7zM55.7 79l50.4-21.6-30 30L55.7 79zm30.8 30.8l-8.4-20.4 30-30-21.6 50.4z"/><path class="st1" d="M64 93.9l1.4-1.4c.3-.3.4-.6.4-1 0-.8-.6-1.4-1.4-1.4-.4 0-.8.2-1 .4L62 91.9c-.3.3-.4.6-.4 1 0 .8.6 1.4 1.4 1.4.4 0 .7-.1 1-.4zm9-1c0-.8-.6-1.4-1.4-1.4-.4 0-.8.2-1 .4l-14.4 14.4c-.3.3-.4.6-.4 1 0 .8.6 1.4 1.4 1.4.4 0 .8-.2 1-.4l14.4-14.4c.3-.3.4-.6.4-1zm0 5.7c-.4 0-.8.2-1 .4l-4.3 4.3c-.3.3-.4.6-.4 1 0 .8.6 1.4 1.4 1.4.4 0 .8-.2 1-.4L74 101c.3-.3.4-.6.4-1 .1-.7-.6-1.4-1.4-1.4zm40.3-46c0-.8-.6-1.4-1.4-1.4-.2 0-.4.1-.6.2L50.9 77.2h-.1c-.5.2-.8.7-.8 1.3 0 .7.4 1.2 1 1.4l23.8 9.8 9.8 23.8c.2.6.7 1 1.4 1 .6 0 1.1-.3 1.3-.8v-.1l25.9-60.3c0-.3.1-.5.1-.7zM55.2 78.5l50.4-21.6-30 30-20.4-8.4zM86 109.3l-8.4-20.4 30-30L86 109.3z"/><path class="st1" d="M63.5 93.4l1.4-1.4c.3-.3.4-.6.4-1 0-.8-.6-1.4-1.4-1.4-.4 0-.8.2-1 .4l-1.4 1.4c-.3.3-.4.6-.4 1 0 .8.6 1.4 1.4 1.4.4 0 .7-.1 1-.4zm9-1c0-.8-.6-1.4-1.4-1.4-.4 0-.8.2-1 .4l-14.4 14.4c-.3.3-.4.6-.4 1 0 .8.6 1.4 1.4 1.4.4 0 .8-.2 1-.4l14.4-14.4c.3-.3.4-.6.4-1zm0 5.7c-.4 0-.8.2-1 .4l-4.3 4.3c-.3.3-.4.6-.4 1 0 .8.6 1.4 1.4 1.4.4 0 .8-.2 1-.4l4.3-4.3c.3-.3.4-.6.4-1 .1-.7-.6-1.4-1.4-1.4zm40.3-46c0-.8-.6-1.4-1.4-1.4-.2 0-.4.1-.6.2L50.4 76.7h-.1c-.5.2-.8.7-.8 1.3 0 .7.4 1.2 1 1.4l23.8 9.8 9.8 23.8c.2.6.7 1 1.4 1 .6 0 1.1-.3 1.3-.8v-.1l25.9-60.3c0-.3.1-.5.1-.7zM54.7 78l50.4-21.6-30 30L54.7 78zm30.8 30.8l-8.4-20.4 30-30-21.6 50.4z"/><path class="st1" d="M63 92.9l1.4-1.4c.3-.3.4-.6.4-1 0-.8-.6-1.4-1.4-1.4-.4 0-.8.2-1 .4L61 90.9c-.3.3-.4.6-.4 1 0 .8.6 1.4 1.4 1.4.4 0 .7-.1 1-.4zm9-1c0-.8-.6-1.4-1.4-1.4-.4 0-.8.2-1 .4l-14.4 14.4c-.3.3-.4.6-.4 1 0 .8.6 1.4 1.4 1.4.4 0 .8-.2 1-.4l14.4-14.4c.3-.3.4-.6.4-1zm0 5.7c-.4 0-.8.2-1 .4l-4.3 4.3c-.3.3-.4.6-.4 1 0 .8.6 1.4 1.4 1.4.4 0 .8-.2 1-.4L73 100c.3-.3.4-.6.4-1 .1-.7-.6-1.4-1.4-1.4zm40.3-46c0-.8-.6-1.4-1.4-1.4-.2 0-.4.1-.6.2L49.9 76.2h-.1c-.5.2-.8.7-.8 1.3 0 .7.4 1.2 1 1.4l23.8 9.8 9.8 23.8c.2.6.7 1 1.4 1 .6 0 1.1-.3 1.3-.8v-.1l25.9-60.3c0-.3.1-.5.1-.7zM54.2 77.5l50.4-21.6-30 30-20.4-8.4zM85 108.3l-8.4-20.4 30-30L85 108.3z"/><path class="st1" d="M62.5 92.4l1.4-1.4c.3-.3.4-.6.4-1 0-.8-.6-1.4-1.4-1.4-.4 0-.8.2-1 .4l-1.4 1.4c-.3.3-.4.6-.4 1 0 .8.6 1.4 1.4 1.4.4 0 .7-.1 1-.4zm9-1c0-.8-.6-1.4-1.4-1.4-.4 0-.8.2-1 .4l-14.4 14.4c-.3.3-.4.6-.4 1 0 .8.6 1.4 1.4 1.4.4 0 .8-.2 1-.4l14.4-14.4c.3-.3.4-.6.4-1zm0 5.7c-.4 0-.8.2-1 .4l-4.3 4.3c-.3.3-.4.6-.4 1 0 .8.6 1.4 1.4 1.4.4 0 .8-.2 1-.4l4.3-4.3c.3-.3.4-.6.4-1 .1-.7-.6-1.4-1.4-1.4zm40.3-46c0-.8-.6-1.4-1.4-1.4-.2 0-.4.1-.6.2L49.4 75.7h-.1c-.5.2-.8.7-.8 1.3 0 .7.4 1.2 1 1.4l23.8 9.8 9.8 23.8c.2.6.7 1 1.4 1 .6 0 1.1-.3 1.3-.8v-.1l25.9-60.3c0-.3.1-.5.1-.7zM53.7 77l50.4-21.6-30 30L53.7 77zm30.8 30.8l-8.4-20.4 30-30-21.6 50.4z"/><path class="st1" d="M62 91.9l1.4-1.4c.3-.3.4-.6.4-1 0-.8-.6-1.4-1.4-1.4-.4 0-.8.2-1 .4L60 89.9c-.3.3-.4.6-.4 1 0 .8.6 1.4 1.4 1.4.4 0 .7-.1 1-.4zm9-1c0-.8-.6-1.4-1.4-1.4-.4 0-.8.2-1 .4l-14.4 14.4c-.3.3-.4.6-.4 1 0 .8.6 1.4 1.4 1.4.4 0 .8-.2 1-.4l14.4-14.4c.3-.3.4-.6.4-1zm0 5.7c-.4 0-.8.2-1 .4l-4.3 4.3c-.3.3-.4.6-.4 1 0 .8.6 1.4 1.4 1.4.4 0 .8-.2 1-.4L72 99c.3-.3.4-.6.4-1 .1-.7-.6-1.4-1.4-1.4zm40.3-46c0-.8-.6-1.4-1.4-1.4-.2 0-.4.1-.6.2L48.9 75.2h-.1c-.5.2-.8.7-.8 1.3 0 .7.4 1.2 1 1.4l23.8 9.8 9.8 23.8c.2.6.7 1 1.4 1 .6 0 1.1-.3 1.3-.8v-.1l25.9-60.3c0-.3.1-.5.1-.7zM53.2 76.5l50.4-21.6-30 30-20.4-8.4zM84 107.3l-8.4-20.4 30-30L84 107.3z"/><path class="st1" d="M61.5 91.4l1.4-1.4c.3-.3.4-.6.4-1 0-.8-.6-1.4-1.4-1.4-.4 0-.8.2-1 .4l-1.4 1.4c-.3.3-.4.6-.4 1 0 .8.6 1.4 1.4 1.4.4 0 .7-.1 1-.4zm9-1c0-.8-.6-1.4-1.4-1.4-.4 0-.8.2-1 .4l-14.4 14.4c-.3.3-.4.6-.4 1 0 .8.6 1.4 1.4 1.4.4 0 .8-.2 1-.4l14.4-14.4c.3-.3.4-.6.4-1zm0 5.7c-.4 0-.8.2-1 .4l-4.3 4.3c-.3.3-.4.6-.4 1 0 .8.6 1.4 1.4 1.4.4 0 .8-.2 1-.4l4.3-4.3c.3-.3.4-.6.4-1 .1-.7-.6-1.4-1.4-1.4zm40.3-46c0-.8-.6-1.4-1.4-1.4-.2 0-.4.1-.6.2L48.4 74.7h-.1c-.5.2-.8.7-.8 1.3 0 .7.4 1.2 1 1.4l23.8 9.8 9.8 23.8c.2.6.7 1 1.4 1 .6 0 1.1-.3 1.3-.8v-.1l25.9-60.3c0-.3.1-.5.1-.7zM52.7 76l50.4-21.6-30 30L52.7 76zm30.8 30.8l-8.4-20.4 30-30-21.6 50.4z"/><path class="st1" d="M61 90.9l1.4-1.4c.3-.3.4-.6.4-1 0-.8-.6-1.4-1.4-1.4-.4 0-.8.2-1 .4L59 88.9c-.3.3-.4.6-.4 1 0 .8.6 1.4 1.4 1.4.4 0 .7-.1 1-.4zm9-1c0-.8-.6-1.4-1.4-1.4-.4 0-.8.2-1 .4l-14.4 14.4c-.3.3-.4.6-.4 1 0 .8.6 1.4 1.4 1.4.4 0 .8-.2 1-.4l14.4-14.4c.3-.3.4-.6.4-1zm0 5.7c-.4 0-.8.2-1 .4l-4.3 4.3c-.3.3-.4.6-.4 1 0 .8.6 1.4 1.4 1.4.4 0 .8-.2 1-.4L71 98c.3-.3.4-.6.4-1 .1-.7-.6-1.4-1.4-1.4zm40.3-46c0-.8-.6-1.4-1.4-1.4-.2 0-.4.1-.6.2L47.9 74.2h-.1c-.5.2-.8.7-.8 1.3 0 .7.4 1.2 1 1.4l23.8 9.8 9.8 23.8c.2.6.7 1 1.4 1 .6 0 1.1-.3 1.3-.8v-.1l25.9-60.3c0-.3.1-.5.1-.7zM52.2 75.5l50.4-21.6-30 30-20.4-8.4zM83 106.3l-8.4-20.4 30-30L83 106.3z"/></g><path class="st2" d="M70 89.9c0-.8-.6-1.4-1.4-1.4-.4 0-.8.2-1 .4l-14.4 14.4c-.3.3-.4.6-.4 1 0 .8.6 1.4 1.4 1.4.4 0 .8-.2 1-.4l14.4-14.4c.3-.3.4-.6.4-1zm-9 1l1.4-1.4c.3-.3.4-.6.4-1 0-.8-.6-1.4-1.4-1.4-.4 0-.8.2-1 .4L59 88.9c-.3.3-.4.6-.4 1 0 .8.6 1.4 1.4 1.4.4 0 .7-.1 1-.4zm9 4.7c-.4 0-.8.2-1 .4l-4.3 4.3c-.3.3-.4.6-.4 1 0 .8.6 1.4 1.4 1.4.4 0 .8-.2 1-.4L71 98c.3-.3.4-.6.4-1 .1-.7-.6-1.4-1.4-1.4zm40.3-46c0-.8-.6-1.4-1.4-1.4-.2 0-.4.1-.6.2L47.9 74.2h-.1c-.5.2-.8.7-.8 1.3 0 .7.4 1.2 1 1.4l23.8 9.8 9.8 23.8c.2.6.7 1 1.4 1 .6 0 1.1-.3 1.3-.8v-.1l25.9-60.3c0-.3.1-.5.1-.7zM52.2 75.5l50.4-21.6-30 30-20.4-8.4zM83 106.3l-8.4-20.4 30-30L83 106.3z" id="Paper_Airplane_x40_2x.png_2_"/></svg>