<?xml version="1.0" encoding="utf-8"?>
<!-- Generator: Adobe Illustrator 19.1.0, SVG Export Plug-In . SVG Version: 6.00 Build 0)  -->
<svg version="1.1" id="Layer_1" xmlns="http://www.w3.org/2000/svg" xmlns:xlink="http://www.w3.org/1999/xlink" x="0px" y="0px"
	 viewBox="0 0 157.3 157.3" style="enable-background:new 0 0 157.3 157.3;" xml:space="preserve">
<style type="text/css">
	.st0{opacity:5.000000e-002;clip-path:url(#SVGID_2_);}
	.st1{fill:#010202;}
	.st2{fill:#324654;}
</style>
<g>
	<defs>
		<circle id="SVGID_1_" cx="78.7" cy="78.7" r="78.7"/>
	</defs>
	<use xlink:href="#SVGID_1_"  style="overflow:visible;opacity:0.1;fill:#010202;"/>
	<clipPath id="SVGID_2_">
		<use xlink:href="#SVGID_1_"  style="overflow:visible;opacity:0.1;"/>
	</clipPath>
	<g id="Home_x40_2x.png" class="st0">
		<g>
			<g>
				<path class="st1" d="M163.9,133.2l-10.6-10.6v-14.5c0-0.8-0.6-1.4-1.4-1.4h-8.2c-0.8,0-1.4,0.6-1.4,1.4v3.5l-7.3-7.3
					c-0.2-0.2-0.6-0.4-1-0.4c-0.4,0-0.7,0.2-1,0.4l-28.8,28.8c-0.2,0.2-0.4,0.6-0.4,1c0,0.8,0.6,1.4,1.4,1.4c0.4,0,0.7-0.2,1-0.4
					l5.9-5.9v33.7c0,0.8,0.6,1.4,1.4,1.4h41.1c0.8,0,1.4-0.6,1.4-1.4v-33.7l5.9,5.9c0.2,0.2,0.6,0.4,1,0.4c0.8,0,1.4-0.6,1.4-1.4
					C164.3,133.8,164.2,133.4,163.9,133.2z M145.1,109.5h5.5v10.4l-5.5-5.5V109.5z M125.9,161.6h-11v-2.7h11V161.6z M139.6,161.6
					h-11v-21.9h11V161.6z M153.4,161.6h-11v-2.7h11V161.6z M153.4,156.1h-11v-17.8c0-0.8-0.6-1.4-1.4-1.4h-13.7
					c-0.8,0-1.4,0.6-1.4,1.4v17.8h-11v-29.6l19.2-19.2l19.2,19.2V156.1z M135.5,153.4c0.8,0,1.4-0.6,1.4-1.4c0-0.8-0.6-1.4-1.4-1.4
					c-0.8,0-1.4,0.6-1.4,1.4C134.2,152.7,134.8,153.4,135.5,153.4z"/>
			</g>
		</g>
		<g>
			<g>
				<path class="st1" d="M163.4,132.7l-10.6-10.6v-14.5c0-0.8-0.6-1.4-1.4-1.4h-8.2c-0.8,0-1.4,0.6-1.4,1.4v3.5l-7.3-7.3
					c-0.2-0.2-0.6-0.4-1-0.4c-0.4,0-0.7,0.2-1,0.4l-28.8,28.8c-0.2,0.2-0.4,0.6-0.4,1c0,0.8,0.6,1.4,1.4,1.4c0.4,0,0.7-0.2,1-0.4
					l5.9-5.9v33.7c0,0.8,0.6,1.4,1.4,1.4h41.1c0.8,0,1.4-0.6,1.4-1.4v-33.7l5.9,5.9c0.2,0.2,0.6,0.4,1,0.4c0.8,0,1.4-0.6,1.4-1.4
					C163.8,133.3,163.7,132.9,163.4,132.7z M144.6,109h5.5v10.4l-5.5-5.5V109z M125.4,161.1h-11v-2.7h11V161.1z M139.1,161.1h-11
					v-21.9h11V161.1z M152.9,161.1h-11v-2.7h11V161.1z M152.9,155.6h-11v-17.8c0-0.8-0.6-1.4-1.4-1.4h-13.7c-0.8,0-1.4,0.6-1.4,1.4
					v17.8h-11V126l19.2-19.2l19.2,19.2V155.6z M135,152.9c0.8,0,1.4-0.6,1.4-1.4c0-0.8-0.6-1.4-1.4-1.4c-0.8,0-1.4,0.6-1.4,1.4
					C133.7,152.2,134.3,152.9,135,152.9z"/>
			</g>
		</g>
		<g>
			<g>
				<path class="st1" d="M162.9,132.2l-10.6-10.6v-14.5c0-0.8-0.6-1.4-1.4-1.4h-8.2c-0.8,0-1.4,0.6-1.4,1.4v3.5l-7.3-7.3
					c-0.2-0.2-0.6-0.4-1-0.4c-0.4,0-0.7,0.2-1,0.4l-28.8,28.8c-0.2,0.2-0.4,0.6-0.4,1c0,0.8,0.6,1.4,1.4,1.4c0.4,0,0.7-0.2,1-0.4
					l5.9-5.9v33.7c0,0.8,0.6,1.4,1.4,1.4h41.1c0.8,0,1.4-0.6,1.4-1.4v-33.7l5.9,5.9c0.2,0.2,0.6,0.4,1,0.4c0.8,0,1.4-0.6,1.4-1.4
					C163.3,132.8,163.2,132.4,162.9,132.2z M144.1,108.5h5.5v10.4l-5.5-5.5V108.5z M124.9,160.6h-11v-2.7h11V160.6z M138.6,160.6
					h-11v-21.9h11V160.6z M152.4,160.6h-11v-2.7h11V160.6z M152.4,155.1h-11v-17.8c0-0.8-0.6-1.4-1.4-1.4h-13.7
					c-0.8,0-1.4,0.6-1.4,1.4v17.8h-11v-29.6l19.2-19.2l19.2,19.2V155.1z M134.5,152.4c0.8,0,1.4-0.6,1.4-1.4c0-0.8-0.6-1.4-1.4-1.4
					c-0.8,0-1.4,0.6-1.4,1.4C133.2,151.7,133.8,152.4,134.5,152.4z"/>
			</g>
		</g>
		<g>
			<g>
				<path class="st1" d="M162.4,131.7l-10.6-10.6v-14.5c0-0.8-0.6-1.4-1.4-1.4h-8.2c-0.8,0-1.4,0.6-1.4,1.4v3.5l-7.3-7.3
					c-0.2-0.2-0.6-0.4-1-0.4c-0.4,0-0.7,0.2-1,0.4l-28.8,28.8c-0.2,0.2-0.4,0.6-0.4,1c0,0.8,0.6,1.4,1.4,1.4c0.4,0,0.7-0.2,1-0.4
					l5.9-5.9v33.7c0,0.8,0.6,1.4,1.4,1.4h41.1c0.8,0,1.4-0.6,1.4-1.4v-33.7l5.9,5.9c0.2,0.2,0.6,0.4,1,0.4c0.8,0,1.4-0.6,1.4-1.4
					C162.8,132.3,162.7,131.9,162.4,131.7z M143.6,108h5.5v10.4l-5.5-5.5V108z M124.4,160.1h-11v-2.7h11V160.1z M138.1,160.1h-11
					v-21.9h11V160.1z M151.9,160.1h-11v-2.7h11V160.1z M151.9,154.6h-11v-17.8c0-0.8-0.6-1.4-1.4-1.4h-13.7c-0.8,0-1.4,0.6-1.4,1.4
					v17.8h-11V125l19.2-19.2l19.2,19.2V154.6z M134,151.9c0.8,0,1.4-0.6,1.4-1.4c0-0.8-0.6-1.4-1.4-1.4c-0.8,0-1.4,0.6-1.4,1.4
					C132.7,151.2,133.3,151.9,134,151.9z"/>
			</g>
		</g>
		<g>
			<g>
				<path class="st1" d="M161.9,131.2l-10.6-10.6v-14.5c0-0.8-0.6-1.4-1.4-1.4h-8.2c-0.8,0-1.4,0.6-1.4,1.4v3.5l-7.3-7.3
					c-0.2-0.2-0.6-0.4-1-0.4c-0.4,0-0.7,0.2-1,0.4l-28.8,28.8c-0.2,0.2-0.4,0.6-0.4,1c0,0.8,0.6,1.4,1.4,1.4c0.4,0,0.7-0.2,1-0.4
					l5.9-5.9v33.7c0,0.8,0.6,1.4,1.4,1.4h41.1c0.8,0,1.4-0.6,1.4-1.4v-33.7l5.9,5.9c0.2,0.2,0.6,0.4,1,0.4c0.8,0,1.4-0.6,1.4-1.4
					C162.3,131.8,162.2,131.4,161.9,131.2z M143.1,107.5h5.5v10.4l-5.5-5.5V107.5z M123.9,159.6h-11v-2.7h11V159.6z M137.6,159.6
					h-11v-21.9h11V159.6z M151.4,159.6h-11v-2.7h11V159.6z M151.4,154.1h-11v-17.8c0-0.8-0.6-1.4-1.4-1.4h-13.7
					c-0.8,0-1.4,0.6-1.4,1.4v17.8h-11v-29.6l19.2-19.2l19.2,19.2V154.1z M133.5,151.4c0.8,0,1.4-0.6,1.4-1.4c0-0.8-0.6-1.4-1.4-1.4
					c-0.8,0-1.4,0.6-1.4,1.4C132.2,150.7,132.8,151.4,133.5,151.4z"/>
			</g>
		</g>
		<g>
			<g>
				<path class="st1" d="M161.4,130.7l-10.6-10.6v-14.5c0-0.8-0.6-1.4-1.4-1.4h-8.2c-0.8,0-1.4,0.6-1.4,1.4v3.5l-7.3-7.3
					c-0.2-0.2-0.6-0.4-1-0.4c-0.4,0-0.7,0.2-1,0.4l-28.8,28.8c-0.2,0.2-0.4,0.6-0.4,1c0,0.8,0.6,1.4,1.4,1.4c0.4,0,0.7-0.2,1-0.4
					l5.9-5.9v33.7c0,0.8,0.6,1.4,1.4,1.4h41.1c0.8,0,1.4-0.6,1.4-1.4v-33.7l5.9,5.9c0.2,0.2,0.6,0.4,1,0.4c0.8,0,1.4-0.6,1.4-1.4
					C161.8,131.3,161.7,130.9,161.4,130.7z M142.6,107h5.5v10.4l-5.5-5.5V107z M123.4,159.1h-11v-2.7h11V159.1z M137.1,159.1h-11
					v-21.9h11V159.1z M150.9,159.1h-11v-2.7h11V159.1z M150.9,153.6h-11v-17.8c0-0.8-0.6-1.4-1.4-1.4h-13.7c-0.8,0-1.4,0.6-1.4,1.4
					v17.8h-11V124l19.2-19.2l19.2,19.2V153.6z M133,150.9c0.8,0,1.4-0.6,1.4-1.4c0-0.8-0.6-1.4-1.4-1.4c-0.8,0-1.4,0.6-1.4,1.4
					C131.7,150.2,132.3,150.9,133,150.9z"/>
			</g>
		</g>
		<g>
			<g>
				<path class="st1" d="M160.9,130.2l-10.6-10.6v-14.5c0-0.8-0.6-1.4-1.4-1.4h-8.2c-0.8,0-1.4,0.6-1.4,1.4v3.5l-7.3-7.3
					c-0.2-0.2-0.6-0.4-1-0.4c-0.4,0-0.7,0.2-1,0.4l-28.8,28.8c-0.2,0.2-0.4,0.6-0.4,1c0,0.8,0.6,1.4,1.4,1.4c0.4,0,0.7-0.2,1-0.4
					l5.9-5.9v33.7c0,0.8,0.6,1.4,1.4,1.4h41.1c0.8,0,1.4-0.6,1.4-1.4v-33.7l5.9,5.9c0.2,0.2,0.6,0.4,1,0.4c0.8,0,1.4-0.6,1.4-1.4
					C161.3,130.8,161.2,130.4,160.9,130.2z M142.1,106.5h5.5v10.4l-5.5-5.5V106.5z M122.9,158.6h-11v-2.7h11V158.6z M136.6,158.6
					h-11v-21.9h11V158.6z M150.4,158.6h-11v-2.7h11V158.6z M150.4,153.1h-11v-17.8c0-0.8-0.6-1.4-1.4-1.4h-13.7
					c-0.8,0-1.4,0.6-1.4,1.4v17.8h-11v-29.6l19.2-19.2l19.2,19.2V153.1z M132.5,150.4c0.8,0,1.4-0.6,1.4-1.4c0-0.8-0.6-1.4-1.4-1.4
					c-0.8,0-1.4,0.6-1.4,1.4C131.2,149.7,131.8,150.4,132.5,150.4z"/>
			</g>
		</g>
		<g>
			<g>
				<path class="st1" d="M160.4,129.7l-10.6-10.6v-14.5c0-0.8-0.6-1.4-1.4-1.4h-8.2c-0.8,0-1.4,0.6-1.4,1.4v3.5l-7.3-7.3
					c-0.2-0.2-0.6-0.4-1-0.4c-0.4,0-0.7,0.2-1,0.4l-28.8,28.8c-0.2,0.2-0.4,0.6-0.4,1c0,0.8,0.6,1.4,1.4,1.4c0.4,0,0.7-0.2,1-0.4
					l5.9-5.9v33.7c0,0.8,0.6,1.4,1.4,1.4h41.1c0.8,0,1.4-0.6,1.4-1.4v-33.7l5.9,5.9c0.2,0.2,0.6,0.4,1,0.4c0.8,0,1.4-0.6,1.4-1.4
					C160.8,130.3,160.7,129.9,160.4,129.7z M141.6,106h5.5v10.4l-5.5-5.5V106z M122.4,158.1h-11v-2.7h11V158.1z M136.1,158.1h-11
					v-21.9h11V158.1z M149.9,158.1h-11v-2.7h11V158.1z M149.9,152.6h-11v-17.8c0-0.8-0.6-1.4-1.4-1.4h-13.7c-0.8,0-1.4,0.6-1.4,1.4
					v17.8h-11V123l19.2-19.2l19.2,19.2V152.6z M132,149.9c0.8,0,1.4-0.6,1.4-1.4c0-0.8-0.6-1.4-1.4-1.4c-0.8,0-1.4,0.6-1.4,1.4
					C130.7,149.2,131.3,149.9,132,149.9z"/>
			</g>
		</g>
		<g>
			<g>
				<path class="st1" d="M159.9,129.2l-10.6-10.6v-14.5c0-0.8-0.6-1.4-1.4-1.4h-8.2c-0.8,0-1.4,0.6-1.4,1.4v3.5l-7.3-7.3
					c-0.2-0.2-0.6-0.4-1-0.4c-0.4,0-0.7,0.2-1,0.4l-28.8,28.8c-0.2,0.2-0.4,0.6-0.4,1c0,0.8,0.6,1.4,1.4,1.4c0.4,0,0.7-0.2,1-0.4
					l5.9-5.9v33.7c0,0.8,0.6,1.4,1.4,1.4h41.1c0.8,0,1.4-0.6,1.4-1.4v-33.7l5.9,5.9c0.2,0.2,0.6,0.4,1,0.4c0.8,0,1.4-0.6,1.4-1.4
					C160.3,129.8,160.2,129.4,159.9,129.2z M141.1,105.5h5.5v10.4l-5.5-5.5V105.5z M121.9,157.6h-11v-2.7h11V157.6z M135.6,157.6
					h-11v-21.9h11V157.6z M149.4,157.6h-11v-2.7h11V157.6z M149.4,152.1h-11v-17.8c0-0.8-0.6-1.4-1.4-1.4h-13.7
					c-0.8,0-1.4,0.6-1.4,1.4v17.8h-11v-29.6l19.2-19.2l19.2,19.2V152.1z M131.5,149.4c0.8,0,1.4-0.6,1.4-1.4c0-0.8-0.6-1.4-1.4-1.4
					c-0.8,0-1.4,0.6-1.4,1.4C130.2,148.7,130.8,149.4,131.5,149.4z"/>
			</g>
		</g>
		<g>
			<g>
				<path class="st1" d="M159.4,128.7l-10.6-10.6v-14.5c0-0.8-0.6-1.4-1.4-1.4h-8.2c-0.8,0-1.4,0.6-1.4,1.4v3.5l-7.3-7.3
					c-0.2-0.2-0.6-0.4-1-0.4c-0.4,0-0.7,0.2-1,0.4l-28.8,28.8c-0.2,0.2-0.4,0.6-0.4,1c0,0.8,0.6,1.4,1.4,1.4c0.4,0,0.7-0.2,1-0.4
					l5.9-5.9v33.7c0,0.8,0.6,1.4,1.4,1.4h41.1c0.8,0,1.4-0.6,1.4-1.4v-33.7l5.9,5.9c0.2,0.2,0.6,0.4,1,0.4c0.8,0,1.4-0.6,1.4-1.4
					C159.8,129.3,159.7,128.9,159.4,128.7z M140.6,105h5.5v10.4l-5.5-5.5V105z M121.4,157.1h-11v-2.7h11V157.1z M135.1,157.1h-11
					v-21.9h11V157.1z M148.9,157.1h-11v-2.7h11V157.1z M148.9,151.6h-11v-17.8c0-0.8-0.6-1.4-1.4-1.4h-13.7c-0.8,0-1.4,0.6-1.4,1.4
					v17.8h-11V122l19.2-19.2l19.2,19.2V151.6z M131,148.9c0.8,0,1.4-0.6,1.4-1.4c0-0.8-0.6-1.4-1.4-1.4c-0.8,0-1.4,0.6-1.4,1.4
					C129.7,148.2,130.3,148.9,131,148.9z"/>
			</g>
		</g>
		<g>
			<g>
				<path class="st1" d="M158.9,128.2l-10.6-10.6v-14.5c0-0.8-0.6-1.4-1.4-1.4h-8.2c-0.8,0-1.4,0.6-1.4,1.4v3.5l-7.3-7.3
					c-0.2-0.2-0.6-0.4-1-0.4c-0.4,0-0.7,0.2-1,0.4l-28.8,28.8c-0.2,0.2-0.4,0.6-0.4,1c0,0.8,0.6,1.4,1.4,1.4c0.4,0,0.7-0.2,1-0.4
					l5.9-5.9v33.7c0,0.8,0.6,1.4,1.4,1.4h41.1c0.8,0,1.4-0.6,1.4-1.4v-33.7l5.9,5.9c0.2,0.2,0.6,0.4,1,0.4c0.8,0,1.4-0.6,1.4-1.4
					C159.3,128.8,159.2,128.4,158.9,128.2z M140.1,104.5h5.5v10.4l-5.5-5.5V104.5z M120.9,156.6h-11v-2.7h11V156.6z M134.6,156.6
					h-11v-21.9h11V156.6z M148.4,156.6h-11v-2.7h11V156.6z M148.4,151.1h-11v-17.8c0-0.8-0.6-1.4-1.4-1.4h-13.7
					c-0.8,0-1.4,0.6-1.4,1.4v17.8h-11v-29.6l19.2-19.2l19.2,19.2V151.1z M130.5,148.4c0.8,0,1.4-0.6,1.4-1.4c0-0.8-0.6-1.4-1.4-1.4
					c-0.8,0-1.4,0.6-1.4,1.4C129.2,147.7,129.8,148.4,130.5,148.4z"/>
			</g>
		</g>
		<g>
			<g>
				<path class="st1" d="M158.4,127.7l-10.6-10.6v-14.5c0-0.8-0.6-1.4-1.4-1.4h-8.2c-0.8,0-1.4,0.6-1.4,1.4v3.5l-7.3-7.3
					c-0.2-0.2-0.6-0.4-1-0.4c-0.4,0-0.7,0.2-1,0.4l-28.8,28.8c-0.2,0.2-0.4,0.6-0.4,1c0,0.8,0.6,1.4,1.4,1.4c0.4,0,0.7-0.2,1-0.4
					l5.9-5.9v33.7c0,0.8,0.6,1.4,1.4,1.4h41.1c0.8,0,1.4-0.6,1.4-1.4v-33.7l5.9,5.9c0.2,0.2,0.6,0.4,1,0.4c0.8,0,1.4-0.6,1.4-1.4
					C158.8,128.3,158.7,127.9,158.4,127.7z M139.6,104h5.5v10.4l-5.5-5.5V104z M120.4,156.1h-11v-2.7h11V156.1z M134.1,156.1h-11
					v-21.9h11V156.1z M147.9,156.1h-11v-2.7h11V156.1z M147.9,150.6h-11v-17.8c0-0.8-0.6-1.4-1.4-1.4h-13.7c-0.8,0-1.4,0.6-1.4,1.4
					v17.8h-11V121l19.2-19.2l19.2,19.2V150.6z M130,147.9c0.8,0,1.4-0.6,1.4-1.4c0-0.8-0.6-1.4-1.4-1.4c-0.8,0-1.4,0.6-1.4,1.4
					C128.7,147.2,129.3,147.9,130,147.9z"/>
			</g>
		</g>
		<g>
			<g>
				<path class="st1" d="M157.9,127.2l-10.6-10.6v-14.5c0-0.8-0.6-1.4-1.4-1.4h-8.2c-0.8,0-1.4,0.6-1.4,1.4v3.5l-7.3-7.3
					c-0.2-0.2-0.6-0.4-1-0.4c-0.4,0-0.7,0.2-1,0.4l-28.8,28.8c-0.2,0.2-0.4,0.6-0.4,1c0,0.8,0.6,1.4,1.4,1.4c0.4,0,0.7-0.2,1-0.4
					l5.9-5.9v33.7c0,0.8,0.6,1.4,1.4,1.4h41.1c0.8,0,1.4-0.6,1.4-1.4v-33.7l5.9,5.9c0.2,0.2,0.6,0.4,1,0.4c0.8,0,1.4-0.6,1.4-1.4
					C158.3,127.8,158.2,127.4,157.9,127.2z M139.1,103.5h5.5v10.4l-5.5-5.5V103.5z M119.9,155.6h-11v-2.7h11V155.6z M133.6,155.6
					h-11v-21.9h11V155.6z M147.4,155.6h-11v-2.7h11V155.6z M147.4,150.1h-11v-17.8c0-0.8-0.6-1.4-1.4-1.4h-13.7
					c-0.8,0-1.4,0.6-1.4,1.4v17.8h-11v-29.6l19.2-19.2l19.2,19.2V150.1z M129.5,147.4c0.8,0,1.4-0.6,1.4-1.4c0-0.8-0.6-1.4-1.4-1.4
					c-0.8,0-1.4,0.6-1.4,1.4C128.2,146.7,128.8,147.4,129.5,147.4z"/>
			</g>
		</g>
		<g>
			<g>
				<path class="st1" d="M157.4,126.7l-10.6-10.6v-14.5c0-0.8-0.6-1.4-1.4-1.4h-8.2c-0.8,0-1.4,0.6-1.4,1.4v3.5l-7.3-7.3
					c-0.2-0.2-0.6-0.4-1-0.4c-0.4,0-0.7,0.2-1,0.4l-28.8,28.8c-0.2,0.2-0.4,0.6-0.4,1c0,0.8,0.6,1.4,1.4,1.4c0.4,0,0.7-0.2,1-0.4
					l5.9-5.9v33.7c0,0.8,0.6,1.4,1.4,1.4h41.1c0.8,0,1.4-0.6,1.4-1.4v-33.7l5.9,5.9c0.2,0.2,0.6,0.4,1,0.4c0.8,0,1.4-0.6,1.4-1.4
					C157.8,127.3,157.7,126.9,157.4,126.7z M138.6,103h5.5v10.4l-5.5-5.5V103z M119.4,155.1h-11v-2.7h11V155.1z M133.1,155.1h-11
					v-21.9h11V155.1z M146.9,155.1h-11v-2.7h11V155.1z M146.9,149.6h-11v-17.8c0-0.8-0.6-1.4-1.4-1.4h-13.7c-0.8,0-1.4,0.6-1.4,1.4
					v17.8h-11V120l19.2-19.2l19.2,19.2V149.6z M129,146.9c0.8,0,1.4-0.6,1.4-1.4c0-0.8-0.6-1.4-1.4-1.4c-0.8,0-1.4,0.6-1.4,1.4
					C127.7,146.2,128.3,146.9,129,146.9z"/>
			</g>
		</g>
		<g>
			<g>
				<path class="st1" d="M156.9,126.2l-10.6-10.6v-14.5c0-0.8-0.6-1.4-1.4-1.4h-8.2c-0.8,0-1.4,0.6-1.4,1.4v3.5l-7.3-7.3
					c-0.2-0.2-0.6-0.4-1-0.4c-0.4,0-0.7,0.2-1,0.4l-28.8,28.8c-0.2,0.2-0.4,0.6-0.4,1c0,0.8,0.6,1.4,1.4,1.4c0.4,0,0.7-0.2,1-0.4
					l5.9-5.9v33.7c0,0.8,0.6,1.4,1.4,1.4h41.1c0.8,0,1.4-0.6,1.4-1.4v-33.7l5.9,5.9c0.2,0.2,0.6,0.4,1,0.4c0.8,0,1.4-0.6,1.4-1.4
					C157.3,126.8,157.2,126.4,156.9,126.2z M138.1,102.5h5.5v10.4l-5.5-5.5V102.5z M118.9,154.6h-11v-2.7h11V154.6z M132.6,154.6
					h-11v-21.9h11V154.6z M146.4,154.6h-11v-2.7h11V154.6z M146.4,149.1h-11v-17.8c0-0.8-0.6-1.4-1.4-1.4h-13.7
					c-0.8,0-1.4,0.6-1.4,1.4v17.8h-11v-29.6l19.2-19.2l19.2,19.2V149.1z M128.5,146.4c0.8,0,1.4-0.6,1.4-1.4c0-0.8-0.6-1.4-1.4-1.4
					c-0.8,0-1.4,0.6-1.4,1.4C127.2,145.7,127.8,146.4,128.5,146.4z"/>
			</g>
		</g>
		<g>
			<g>
				<path class="st1" d="M156.4,125.7l-10.6-10.6v-14.5c0-0.8-0.6-1.4-1.4-1.4h-8.2c-0.8,0-1.4,0.6-1.4,1.4v3.5l-7.3-7.3
					c-0.2-0.2-0.6-0.4-1-0.4c-0.4,0-0.7,0.2-1,0.4l-28.8,28.8c-0.2,0.2-0.4,0.6-0.4,1c0,0.8,0.6,1.4,1.4,1.4c0.4,0,0.7-0.2,1-0.4
					l5.9-5.9v33.7c0,0.8,0.6,1.4,1.4,1.4h41.1c0.8,0,1.4-0.6,1.4-1.4v-33.7l5.9,5.9c0.2,0.2,0.6,0.4,1,0.4c0.8,0,1.4-0.6,1.4-1.4
					C156.8,126.3,156.7,125.9,156.4,125.7z M137.6,102h5.5v10.4l-5.5-5.5V102z M118.4,154.1h-11v-2.7h11V154.1z M132.1,154.1h-11
					v-21.9h11V154.1z M145.9,154.1h-11v-2.7h11V154.1z M145.9,148.6h-11v-17.8c0-0.8-0.6-1.4-1.4-1.4h-13.7c-0.8,0-1.4,0.6-1.4,1.4
					v17.8h-11V119l19.2-19.2l19.2,19.2V148.6z M128,145.9c0.8,0,1.4-0.6,1.4-1.4c0-0.8-0.6-1.4-1.4-1.4c-0.8,0-1.4,0.6-1.4,1.4
					C126.7,145.2,127.3,145.9,128,145.9z"/>
			</g>
		</g>
		<g>
			<g>
				<path class="st1" d="M155.9,125.2l-10.6-10.6v-14.5c0-0.8-0.6-1.4-1.4-1.4h-8.2c-0.8,0-1.4,0.6-1.4,1.4v3.5l-7.3-7.3
					c-0.2-0.2-0.6-0.4-1-0.4c-0.4,0-0.7,0.2-1,0.4l-28.8,28.8c-0.2,0.2-0.4,0.6-0.4,1c0,0.8,0.6,1.4,1.4,1.4c0.4,0,0.7-0.2,1-0.4
					l5.9-5.9v33.7c0,0.8,0.6,1.4,1.4,1.4h41.1c0.8,0,1.4-0.6,1.4-1.4v-33.7l5.9,5.9c0.2,0.2,0.6,0.4,1,0.4c0.8,0,1.4-0.6,1.4-1.4
					C156.3,125.8,156.2,125.4,155.9,125.2z M137.1,101.5h5.5v10.4l-5.5-5.5V101.5z M117.9,153.6h-11v-2.7h11V153.6z M131.6,153.6
					h-11v-21.9h11V153.6z M145.4,153.6h-11v-2.7h11V153.6z M145.4,148.1h-11v-17.8c0-0.8-0.6-1.4-1.4-1.4h-13.7
					c-0.8,0-1.4,0.6-1.4,1.4v17.8h-11v-29.6l19.2-19.2l19.2,19.2V148.1z M127.5,145.4c0.8,0,1.4-0.6,1.4-1.4c0-0.8-0.6-1.4-1.4-1.4
					c-0.8,0-1.4,0.6-1.4,1.4C126.2,144.7,126.8,145.4,127.5,145.4z"/>
			</g>
		</g>
		<g>
			<g>
				<path class="st1" d="M155.4,124.7l-10.6-10.6V99.6c0-0.8-0.6-1.4-1.4-1.4h-8.2c-0.8,0-1.4,0.6-1.4,1.4v3.5l-7.3-7.3
					c-0.2-0.2-0.6-0.4-1-0.4c-0.4,0-0.7,0.2-1,0.4l-28.8,28.8c-0.2,0.2-0.4,0.6-0.4,1c0,0.8,0.6,1.4,1.4,1.4c0.4,0,0.7-0.2,1-0.4
					l5.9-5.9v33.7c0,0.8,0.6,1.4,1.4,1.4h41.1c0.8,0,1.4-0.6,1.4-1.4v-33.7l5.9,5.9c0.2,0.2,0.6,0.4,1,0.4c0.8,0,1.4-0.6,1.4-1.4
					C155.8,125.3,155.7,124.9,155.4,124.7z M136.6,101h5.5v10.4l-5.5-5.5V101z M117.4,153.1h-11v-2.7h11V153.1z M131.1,153.1h-11
					v-21.9h11V153.1z M144.9,153.1h-11v-2.7h11V153.1z M144.9,147.6h-11v-17.8c0-0.8-0.6-1.4-1.4-1.4h-13.7c-0.8,0-1.4,0.6-1.4,1.4
					v17.8h-11V118l19.2-19.2l19.2,19.2V147.6z M127,144.9c0.8,0,1.4-0.6,1.4-1.4c0-0.8-0.6-1.4-1.4-1.4c-0.8,0-1.4,0.6-1.4,1.4
					C125.7,144.2,126.3,144.9,127,144.9z"/>
			</g>
		</g>
		<g>
			<g>
				<path class="st1" d="M154.9,124.2l-10.6-10.6V99.1c0-0.8-0.6-1.4-1.4-1.4h-8.2c-0.8,0-1.4,0.6-1.4,1.4v3.5l-7.3-7.3
					c-0.2-0.2-0.6-0.4-1-0.4c-0.4,0-0.7,0.2-1,0.4l-28.8,28.8c-0.2,0.2-0.4,0.6-0.4,1c0,0.8,0.6,1.4,1.4,1.4c0.4,0,0.7-0.2,1-0.4
					l5.9-5.9v33.7c0,0.8,0.6,1.4,1.4,1.4h41.1c0.8,0,1.4-0.6,1.4-1.4v-33.7l5.9,5.9c0.2,0.2,0.6,0.4,1,0.4c0.8,0,1.4-0.6,1.4-1.4
					C155.3,124.8,155.2,124.4,154.9,124.2z M136.1,100.5h5.5v10.4l-5.5-5.5V100.5z M116.9,152.6h-11v-2.7h11V152.6z M130.6,152.6
					h-11v-21.9h11V152.6z M144.4,152.6h-11v-2.7h11V152.6z M144.4,147.1h-11v-17.8c0-0.8-0.6-1.4-1.4-1.4h-13.7
					c-0.8,0-1.4,0.6-1.4,1.4v17.8h-11v-29.6l19.2-19.2l19.2,19.2V147.1z M126.5,144.4c0.8,0,1.4-0.6,1.4-1.4c0-0.8-0.6-1.4-1.4-1.4
					c-0.8,0-1.4,0.6-1.4,1.4C125.2,143.7,125.8,144.4,126.5,144.4z"/>
			</g>
		</g>
		<g>
			<g>
				<path class="st1" d="M154.4,123.7l-10.6-10.6V98.6c0-0.8-0.6-1.4-1.4-1.4h-8.2c-0.8,0-1.4,0.6-1.4,1.4v3.5l-7.3-7.3
					c-0.2-0.2-0.6-0.4-1-0.4c-0.4,0-0.7,0.2-1,0.4l-28.8,28.8c-0.2,0.2-0.4,0.6-0.4,1c0,0.8,0.6,1.4,1.4,1.4c0.4,0,0.7-0.2,1-0.4
					l5.9-5.9v33.7c0,0.8,0.6,1.4,1.4,1.4h41.1c0.8,0,1.4-0.6,1.4-1.4v-33.7l5.9,5.9c0.2,0.2,0.6,0.4,1,0.4c0.8,0,1.4-0.6,1.4-1.4
					C154.8,124.3,154.7,123.9,154.4,123.7z M135.6,100h5.5v10.4l-5.5-5.5V100z M116.4,152.1h-11v-2.7h11V152.1z M130.1,152.1h-11
					v-21.9h11V152.1z M143.9,152.1h-11v-2.7h11V152.1z M143.9,146.6h-11v-17.8c0-0.8-0.6-1.4-1.4-1.4h-13.7c-0.8,0-1.4,0.6-1.4,1.4
					v17.8h-11V117l19.2-19.2l19.2,19.2V146.6z M126,143.9c0.8,0,1.4-0.6,1.4-1.4c0-0.8-0.6-1.4-1.4-1.4c-0.8,0-1.4,0.6-1.4,1.4
					C124.7,143.2,125.3,143.9,126,143.9z"/>
			</g>
		</g>
		<g>
			<g>
				<path class="st1" d="M153.9,123.2l-10.6-10.6V98.1c0-0.8-0.6-1.4-1.4-1.4h-8.2c-0.8,0-1.4,0.6-1.4,1.4v3.5l-7.3-7.3
					c-0.2-0.2-0.6-0.4-1-0.4c-0.4,0-0.7,0.2-1,0.4l-28.8,28.8c-0.2,0.2-0.4,0.6-0.4,1c0,0.8,0.6,1.4,1.4,1.4c0.4,0,0.7-0.2,1-0.4
					l5.9-5.9v33.7c0,0.8,0.6,1.4,1.4,1.4h41.1c0.8,0,1.4-0.6,1.4-1.4v-33.7l5.9,5.9c0.2,0.2,0.6,0.4,1,0.4c0.8,0,1.4-0.6,1.4-1.4
					C154.3,123.8,154.2,123.4,153.9,123.2z M135.1,99.5h5.5v10.4l-5.5-5.5V99.5z M115.9,151.6h-11v-2.7h11V151.6z M129.6,151.6h-11
					v-21.9h11V151.6z M143.4,151.6h-11v-2.7h11V151.6z M143.4,146.1h-11v-17.8c0-0.8-0.6-1.4-1.4-1.4h-13.7c-0.8,0-1.4,0.6-1.4,1.4
					v17.8h-11v-29.6l19.2-19.2l19.2,19.2V146.1z M125.5,143.4c0.8,0,1.4-0.6,1.4-1.4c0-0.8-0.6-1.4-1.4-1.4c-0.8,0-1.4,0.6-1.4,1.4
					C124.2,142.7,124.8,143.4,125.5,143.4z"/>
			</g>
		</g>
		<g>
			<g>
				<path class="st1" d="M153.4,122.7l-10.6-10.6V97.6c0-0.8-0.6-1.4-1.4-1.4h-8.2c-0.8,0-1.4,0.6-1.4,1.4v3.5l-7.3-7.3
					c-0.2-0.2-0.6-0.4-1-0.4c-0.4,0-0.7,0.2-1,0.4l-28.8,28.8c-0.2,0.2-0.4,0.6-0.4,1c0,0.8,0.6,1.4,1.4,1.4c0.4,0,0.7-0.2,1-0.4
					l5.9-5.9v33.7c0,0.8,0.6,1.4,1.4,1.4h41.1c0.8,0,1.4-0.6,1.4-1.4v-33.7l5.9,5.9c0.2,0.2,0.6,0.4,1,0.4c0.8,0,1.4-0.6,1.4-1.4
					C153.8,123.3,153.7,122.9,153.4,122.7z M134.6,99h5.5v10.4l-5.5-5.5V99z M115.4,151.1h-11v-2.7h11V151.1z M129.1,151.1h-11
					v-21.9h11V151.1z M142.9,151.1h-11v-2.7h11V151.1z M142.9,145.6h-11v-17.8c0-0.8-0.6-1.4-1.4-1.4h-13.7c-0.8,0-1.4,0.6-1.4,1.4
					v17.8h-11V116l19.2-19.2l19.2,19.2V145.6z M125,142.9c0.8,0,1.4-0.6,1.4-1.4c0-0.8-0.6-1.4-1.4-1.4c-0.8,0-1.4,0.6-1.4,1.4
					C123.7,142.2,124.3,142.9,125,142.9z"/>
			</g>
		</g>
		<g>
			<g>
				<path class="st1" d="M152.9,122.2l-10.6-10.6V97.1c0-0.8-0.6-1.4-1.4-1.4h-8.2c-0.8,0-1.4,0.6-1.4,1.4v3.5l-7.3-7.3
					c-0.2-0.2-0.6-0.4-1-0.4c-0.4,0-0.7,0.2-1,0.4l-28.8,28.8c-0.2,0.2-0.4,0.6-0.4,1c0,0.8,0.6,1.4,1.4,1.4c0.4,0,0.7-0.2,1-0.4
					l5.9-5.9v33.7c0,0.8,0.6,1.4,1.4,1.4h41.1c0.8,0,1.4-0.6,1.4-1.4v-33.7l5.9,5.9c0.2,0.2,0.6,0.4,1,0.4c0.8,0,1.4-0.6,1.4-1.4
					C153.3,122.8,153.2,122.4,152.9,122.2z M134.1,98.5h5.5v10.4l-5.5-5.5V98.5z M114.9,150.6h-11v-2.7h11V150.6z M128.6,150.6h-11
					v-21.9h11V150.6z M142.4,150.6h-11v-2.7h11V150.6z M142.4,145.1h-11v-17.8c0-0.8-0.6-1.4-1.4-1.4h-13.7c-0.8,0-1.4,0.6-1.4,1.4
					v17.8h-11v-29.6l19.2-19.2l19.2,19.2V145.1z M124.5,142.4c0.8,0,1.4-0.6,1.4-1.4c0-0.8-0.6-1.4-1.4-1.4c-0.8,0-1.4,0.6-1.4,1.4
					C123.2,141.7,123.8,142.4,124.5,142.4z"/>
			</g>
		</g>
		<g>
			<g>
				<path class="st1" d="M152.4,121.7l-10.6-10.6V96.6c0-0.8-0.6-1.4-1.4-1.4h-8.2c-0.8,0-1.4,0.6-1.4,1.4v3.5l-7.3-7.3
					c-0.2-0.2-0.6-0.4-1-0.4c-0.4,0-0.7,0.2-1,0.4l-28.8,28.8c-0.2,0.2-0.4,0.6-0.4,1c0,0.8,0.6,1.4,1.4,1.4c0.4,0,0.7-0.2,1-0.4
					l5.9-5.9v33.7c0,0.8,0.6,1.4,1.4,1.4h41.1c0.8,0,1.4-0.6,1.4-1.4v-33.7l5.9,5.9c0.2,0.2,0.6,0.4,1,0.4c0.8,0,1.4-0.6,1.4-1.4
					C152.8,122.3,152.7,121.9,152.4,121.7z M133.6,98h5.5v10.4l-5.5-5.5V98z M114.4,150.1h-11v-2.7h11V150.1z M128.1,150.1h-11
					v-21.9h11V150.1z M141.9,150.1h-11v-2.7h11V150.1z M141.9,144.6h-11v-17.8c0-0.8-0.6-1.4-1.4-1.4h-13.7c-0.8,0-1.4,0.6-1.4,1.4
					v17.8h-11V115l19.2-19.2l19.2,19.2V144.6z M124,141.9c0.8,0,1.4-0.6,1.4-1.4c0-0.8-0.6-1.4-1.4-1.4c-0.8,0-1.4,0.6-1.4,1.4
					C122.7,141.2,123.3,141.9,124,141.9z"/>
			</g>
		</g>
		<g>
			<g>
				<path class="st1" d="M151.9,121.2l-10.6-10.6V96.1c0-0.8-0.6-1.4-1.4-1.4h-8.2c-0.8,0-1.4,0.6-1.4,1.4v3.5l-7.3-7.3
					c-0.2-0.2-0.6-0.4-1-0.4c-0.4,0-0.7,0.2-1,0.4l-28.8,28.8c-0.2,0.2-0.4,0.6-0.4,1c0,0.8,0.6,1.4,1.4,1.4c0.4,0,0.7-0.2,1-0.4
					l5.9-5.9v33.7c0,0.8,0.6,1.4,1.4,1.4h41.1c0.8,0,1.4-0.6,1.4-1.4v-33.7l5.9,5.9c0.2,0.2,0.6,0.4,1,0.4c0.8,0,1.4-0.6,1.4-1.4
					C152.3,121.8,152.2,121.4,151.9,121.2z M133.1,97.5h5.5v10.4l-5.5-5.5V97.5z M113.9,149.6h-11v-2.7h11V149.6z M127.6,149.6h-11
					v-21.9h11V149.6z M141.4,149.6h-11v-2.7h11V149.6z M141.4,144.1h-11v-17.8c0-0.8-0.6-1.4-1.4-1.4h-13.7c-0.8,0-1.4,0.6-1.4,1.4
					v17.8h-11v-29.6l19.2-19.2l19.2,19.2V144.1z M123.5,141.4c0.8,0,1.4-0.6,1.4-1.4c0-0.8-0.6-1.4-1.4-1.4c-0.8,0-1.4,0.6-1.4,1.4
					C122.2,140.7,122.8,141.4,123.5,141.4z"/>
			</g>
		</g>
		<g>
			<g>
				<path class="st1" d="M151.4,120.7l-10.6-10.6V95.6c0-0.8-0.6-1.4-1.4-1.4h-8.2c-0.8,0-1.4,0.6-1.4,1.4v3.5l-7.3-7.3
					c-0.2-0.2-0.6-0.4-1-0.4c-0.4,0-0.7,0.2-1,0.4l-28.8,28.8c-0.2,0.2-0.4,0.6-0.4,1c0,0.8,0.6,1.4,1.4,1.4c0.4,0,0.7-0.2,1-0.4
					l5.9-5.9v33.7c0,0.8,0.6,1.4,1.4,1.4h41.1c0.8,0,1.4-0.6,1.4-1.4v-33.7l5.9,5.9c0.2,0.2,0.6,0.4,1,0.4c0.8,0,1.4-0.6,1.4-1.4
					C151.8,121.3,151.7,120.9,151.4,120.7z M132.6,97h5.5v10.4l-5.5-5.5V97z M113.4,149.1h-11v-2.7h11V149.1z M127.1,149.1h-11
					v-21.9h11V149.1z M140.9,149.1h-11v-2.7h11V149.1z M140.9,143.6h-11v-17.8c0-0.8-0.6-1.4-1.4-1.4h-13.7c-0.8,0-1.4,0.6-1.4,1.4
					v17.8h-11V114l19.2-19.2l19.2,19.2V143.6z M123,140.9c0.8,0,1.4-0.6,1.4-1.4c0-0.8-0.6-1.4-1.4-1.4c-0.8,0-1.4,0.6-1.4,1.4
					C121.7,140.2,122.3,140.9,123,140.9z"/>
			</g>
		</g>
		<g>
			<g>
				<path class="st1" d="M150.9,120.2l-10.6-10.6V95.1c0-0.8-0.6-1.4-1.4-1.4h-8.2c-0.8,0-1.4,0.6-1.4,1.4v3.5l-7.3-7.3
					c-0.2-0.2-0.6-0.4-1-0.4c-0.4,0-0.7,0.2-1,0.4l-28.8,28.8c-0.2,0.2-0.4,0.6-0.4,1c0,0.8,0.6,1.4,1.4,1.4c0.4,0,0.7-0.2,1-0.4
					l5.9-5.9v33.7c0,0.8,0.6,1.4,1.4,1.4h41.1c0.8,0,1.4-0.6,1.4-1.4v-33.7l5.9,5.9c0.2,0.2,0.6,0.4,1,0.4c0.8,0,1.4-0.6,1.4-1.4
					C151.3,120.8,151.2,120.4,150.9,120.2z M132.1,96.5h5.5v10.4l-5.5-5.5V96.5z M112.9,148.6h-11v-2.7h11V148.6z M126.6,148.6h-11
					v-21.9h11V148.6z M140.4,148.6h-11v-2.7h11V148.6z M140.4,143.1h-11v-17.8c0-0.8-0.6-1.4-1.4-1.4h-13.7c-0.8,0-1.4,0.6-1.4,1.4
					v17.8h-11v-29.6l19.2-19.2l19.2,19.2V143.1z M122.5,140.4c0.8,0,1.4-0.6,1.4-1.4c0-0.8-0.6-1.4-1.4-1.4c-0.8,0-1.4,0.6-1.4,1.4
					C121.2,139.7,121.8,140.4,122.5,140.4z"/>
			</g>
		</g>
		<g>
			<g>
				<path class="st1" d="M150.4,119.7l-10.6-10.6V94.6c0-0.8-0.6-1.4-1.4-1.4h-8.2c-0.8,0-1.4,0.6-1.4,1.4v3.5l-7.3-7.3
					c-0.2-0.2-0.6-0.4-1-0.4c-0.4,0-0.7,0.2-1,0.4l-28.8,28.8c-0.2,0.2-0.4,0.6-0.4,1c0,0.8,0.6,1.4,1.4,1.4c0.4,0,0.7-0.2,1-0.4
					l5.9-5.9v33.7c0,0.8,0.6,1.4,1.4,1.4h41.1c0.8,0,1.4-0.6,1.4-1.4v-33.7l5.9,5.9c0.2,0.2,0.6,0.4,1,0.4c0.8,0,1.4-0.6,1.4-1.4
					C150.8,120.3,150.7,119.9,150.4,119.7z M131.6,96h5.5v10.4l-5.5-5.5V96z M112.4,148.1h-11v-2.7h11V148.1z M126.1,148.1h-11
					v-21.9h11V148.1z M139.9,148.1h-11v-2.7h11V148.1z M139.9,142.6h-11v-17.8c0-0.8-0.6-1.4-1.4-1.4h-13.7c-0.8,0-1.4,0.6-1.4,1.4
					v17.8h-11V113l19.2-19.2l19.2,19.2V142.6z M122,139.9c0.8,0,1.4-0.6,1.4-1.4c0-0.8-0.6-1.4-1.4-1.4c-0.8,0-1.4,0.6-1.4,1.4
					C120.7,139.2,121.3,139.9,122,139.9z"/>
			</g>
		</g>
		<g>
			<g>
				<path class="st1" d="M149.9,119.2l-10.6-10.6V94.1c0-0.8-0.6-1.4-1.4-1.4h-8.2c-0.8,0-1.4,0.6-1.4,1.4v3.5l-7.3-7.3
					c-0.2-0.2-0.6-0.4-1-0.4c-0.4,0-0.7,0.2-1,0.4l-28.8,28.8c-0.2,0.2-0.4,0.6-0.4,1c0,0.8,0.6,1.4,1.4,1.4c0.4,0,0.7-0.2,1-0.4
					l5.9-5.9v33.7c0,0.8,0.6,1.4,1.4,1.4h41.1c0.8,0,1.4-0.6,1.4-1.4v-33.7l5.9,5.9c0.2,0.2,0.6,0.4,1,0.4c0.8,0,1.4-0.6,1.4-1.4
					C150.3,119.8,150.2,119.4,149.9,119.2z M131.1,95.5h5.5v10.4l-5.5-5.5V95.5z M111.9,147.6h-11v-2.7h11V147.6z M125.6,147.6h-11
					v-21.9h11V147.6z M139.4,147.6h-11v-2.7h11V147.6z M139.4,142.1h-11v-17.8c0-0.8-0.6-1.4-1.4-1.4h-13.7c-0.8,0-1.4,0.6-1.4,1.4
					v17.8h-11v-29.6l19.2-19.2l19.2,19.2V142.1z M121.5,139.4c0.8,0,1.4-0.6,1.4-1.4c0-0.8-0.6-1.4-1.4-1.4c-0.8,0-1.4,0.6-1.4,1.4
					C120.2,138.7,120.8,139.4,121.5,139.4z"/>
			</g>
		</g>
		<g>
			<g>
				<path class="st1" d="M149.4,118.7l-10.6-10.6V93.6c0-0.8-0.6-1.4-1.4-1.4h-8.2c-0.8,0-1.4,0.6-1.4,1.4v3.5l-7.3-7.3
					c-0.2-0.2-0.6-0.4-1-0.4c-0.4,0-0.7,0.2-1,0.4l-28.8,28.8c-0.2,0.2-0.4,0.6-0.4,1c0,0.8,0.6,1.4,1.4,1.4c0.4,0,0.7-0.2,1-0.4
					l5.9-5.9v33.7c0,0.8,0.6,1.4,1.4,1.4h41.1c0.8,0,1.4-0.6,1.4-1.4v-33.7l5.9,5.9c0.2,0.2,0.6,0.4,1,0.4c0.8,0,1.4-0.6,1.4-1.4
					C149.8,119.3,149.7,118.9,149.4,118.7z M130.6,95h5.5v10.4l-5.5-5.5V95z M111.4,147.1h-11v-2.7h11V147.1z M125.1,147.1h-11
					v-21.9h11V147.1z M138.9,147.1h-11v-2.7h11V147.1z M138.9,141.6h-11v-17.8c0-0.8-0.6-1.4-1.4-1.4h-13.7c-0.8,0-1.4,0.6-1.4,1.4
					v17.8h-11V112l19.2-19.2l19.2,19.2V141.6z M121,138.9c0.8,0,1.4-0.6,1.4-1.4c0-0.8-0.6-1.4-1.4-1.4c-0.8,0-1.4,0.6-1.4,1.4
					C119.7,138.2,120.3,138.9,121,138.9z"/>
			</g>
		</g>
		<g>
			<g>
				<path class="st1" d="M148.9,118.2l-10.6-10.6V93.1c0-0.8-0.6-1.4-1.4-1.4h-8.2c-0.8,0-1.4,0.6-1.4,1.4v3.5l-7.3-7.3
					c-0.2-0.2-0.6-0.4-1-0.4c-0.4,0-0.7,0.2-1,0.4l-28.8,28.8c-0.2,0.2-0.4,0.6-0.4,1c0,0.8,0.6,1.4,1.4,1.4c0.4,0,0.7-0.2,1-0.4
					l5.9-5.9v33.7c0,0.8,0.6,1.4,1.4,1.4h41.1c0.8,0,1.4-0.6,1.4-1.4v-33.7l5.9,5.9c0.2,0.2,0.6,0.4,1,0.4c0.8,0,1.4-0.6,1.4-1.4
					C149.3,118.8,149.2,118.4,148.9,118.2z M130.1,94.5h5.5v10.4l-5.5-5.5V94.5z M110.9,146.6h-11v-2.7h11V146.6z M124.6,146.6h-11
					v-21.9h11V146.6z M138.4,146.6h-11v-2.7h11V146.6z M138.4,141.1h-11v-17.8c0-0.8-0.6-1.4-1.4-1.4h-13.7c-0.8,0-1.4,0.6-1.4,1.4
					v17.8h-11v-29.6l19.2-19.2l19.2,19.2V141.1z M120.5,138.4c0.8,0,1.4-0.6,1.4-1.4c0-0.8-0.6-1.4-1.4-1.4c-0.8,0-1.4,0.6-1.4,1.4
					C119.2,137.7,119.8,138.4,120.5,138.4z"/>
			</g>
		</g>
		<g>
			<g>
				<path class="st1" d="M148.4,117.7l-10.6-10.6V92.6c0-0.8-0.6-1.4-1.4-1.4h-8.2c-0.8,0-1.4,0.6-1.4,1.4v3.5l-7.3-7.3
					c-0.2-0.2-0.6-0.4-1-0.4c-0.4,0-0.7,0.2-1,0.4l-28.8,28.8c-0.2,0.2-0.4,0.6-0.4,1c0,0.8,0.6,1.4,1.4,1.4c0.4,0,0.7-0.2,1-0.4
					l5.9-5.9v33.7c0,0.8,0.6,1.4,1.4,1.4h41.1c0.8,0,1.4-0.6,1.4-1.4v-33.7l5.9,5.9c0.2,0.2,0.6,0.4,1,0.4c0.8,0,1.4-0.6,1.4-1.4
					C148.8,118.3,148.7,117.9,148.4,117.7z M129.6,94h5.5v10.4l-5.5-5.5V94z M110.4,146.1h-11v-2.7h11V146.1z M124.1,146.1h-11
					v-21.9h11V146.1z M137.9,146.1h-11v-2.7h11V146.1z M137.9,140.6h-11v-17.8c0-0.8-0.6-1.4-1.4-1.4h-13.7c-0.8,0-1.4,0.6-1.4,1.4
					v17.8h-11V111l19.2-19.2l19.2,19.2V140.6z M120,137.9c0.8,0,1.4-0.6,1.4-1.4c0-0.8-0.6-1.4-1.4-1.4c-0.8,0-1.4,0.6-1.4,1.4
					C118.7,137.2,119.3,137.9,120,137.9z"/>
			</g>
		</g>
		<g>
			<g>
				<path class="st1" d="M147.9,117.2l-10.6-10.6V92.1c0-0.8-0.6-1.4-1.4-1.4h-8.2c-0.8,0-1.4,0.6-1.4,1.4v3.5l-7.3-7.3
					c-0.2-0.2-0.6-0.4-1-0.4c-0.4,0-0.7,0.2-1,0.4l-28.8,28.8c-0.2,0.2-0.4,0.6-0.4,1c0,0.8,0.6,1.4,1.4,1.4c0.4,0,0.7-0.2,1-0.4
					l5.9-5.9v33.7c0,0.8,0.6,1.4,1.4,1.4h41.1c0.8,0,1.4-0.6,1.4-1.4v-33.7l5.9,5.9c0.2,0.2,0.6,0.4,1,0.4c0.8,0,1.4-0.6,1.4-1.4
					C148.3,117.8,148.2,117.4,147.9,117.2z M129.1,93.5h5.5v10.4l-5.5-5.5V93.5z M109.9,145.6H99v-2.7h11V145.6z M123.6,145.6h-11
					v-21.9h11V145.6z M137.4,145.6h-11v-2.7h11V145.6z M137.4,140.1h-11v-17.8c0-0.8-0.6-1.4-1.4-1.4h-13.7c-0.8,0-1.4,0.6-1.4,1.4
					v17.8H99v-29.6l19.2-19.2l19.2,19.2V140.1z M119.5,137.4c0.8,0,1.4-0.6,1.4-1.4c0-0.8-0.6-1.4-1.4-1.4c-0.8,0-1.4,0.6-1.4,1.4
					C118.2,136.7,118.8,137.4,119.5,137.4z"/>
			</g>
		</g>
		<g>
			<g>
				<path class="st1" d="M147.4,116.7l-10.6-10.6V91.6c0-0.8-0.6-1.4-1.4-1.4h-8.2c-0.8,0-1.4,0.6-1.4,1.4v3.5l-7.3-7.3
					c-0.2-0.2-0.6-0.4-1-0.4c-0.4,0-0.7,0.2-1,0.4l-28.8,28.8c-0.2,0.2-0.4,0.6-0.4,1c0,0.8,0.6,1.4,1.4,1.4c0.4,0,0.7-0.2,1-0.4
					l5.9-5.9v33.7c0,0.8,0.6,1.4,1.4,1.4h41.1c0.8,0,1.4-0.6,1.4-1.4v-33.7l5.9,5.9c0.2,0.2,0.6,0.4,1,0.4c0.8,0,1.4-0.6,1.4-1.4
					C147.8,117.3,147.7,116.9,147.4,116.7z M128.6,93h5.5v10.4l-5.5-5.5V93z M109.4,145.1h-11v-2.7h11V145.1z M123.1,145.1h-11
					v-21.9h11V145.1z M136.9,145.1h-11v-2.7h11V145.1z M136.9,139.6h-11v-17.8c0-0.8-0.6-1.4-1.4-1.4h-13.7c-0.8,0-1.4,0.6-1.4,1.4
					v17.8h-11V110l19.2-19.2l19.2,19.2V139.6z M119,136.9c0.8,0,1.4-0.6,1.4-1.4c0-0.8-0.6-1.4-1.4-1.4c-0.8,0-1.4,0.6-1.4,1.4
					C117.7,136.2,118.3,136.9,119,136.9z"/>
			</g>
		</g>
		<g>
			<g>
				<path class="st1" d="M146.9,116.2l-10.6-10.6V91.1c0-0.8-0.6-1.4-1.4-1.4h-8.2c-0.8,0-1.4,0.6-1.4,1.4v3.5l-7.3-7.3
					c-0.2-0.2-0.6-0.4-1-0.4c-0.4,0-0.7,0.2-1,0.4l-28.8,28.8c-0.2,0.2-0.4,0.6-0.4,1c0,0.8,0.6,1.4,1.4,1.4c0.4,0,0.7-0.2,1-0.4
					l5.9-5.9v33.7c0,0.8,0.6,1.4,1.4,1.4h41.1c0.8,0,1.4-0.6,1.4-1.4v-33.7l5.9,5.9c0.2,0.2,0.6,0.4,1,0.4c0.8,0,1.4-0.6,1.4-1.4
					C147.3,116.8,147.2,116.4,146.9,116.2z M128.1,92.5h5.5v10.4l-5.5-5.5V92.5z M108.9,144.6H98v-2.7h11V144.6z M122.6,144.6h-11
					v-21.9h11V144.6z M136.4,144.6h-11v-2.7h11V144.6z M136.4,139.1h-11v-17.8c0-0.8-0.6-1.4-1.4-1.4h-13.7c-0.8,0-1.4,0.6-1.4,1.4
					v17.8H98v-29.6l19.2-19.2l19.2,19.2V139.1z M118.5,136.4c0.8,0,1.4-0.6,1.4-1.4c0-0.8-0.6-1.4-1.4-1.4c-0.8,0-1.4,0.6-1.4,1.4
					C117.2,135.7,117.8,136.4,118.5,136.4z"/>
			</g>
		</g>
		<g>
			<g>
				<path class="st1" d="M146.4,115.7l-10.6-10.6V90.6c0-0.8-0.6-1.4-1.4-1.4h-8.2c-0.8,0-1.4,0.6-1.4,1.4v3.5l-7.3-7.3
					c-0.2-0.2-0.6-0.4-1-0.4c-0.4,0-0.7,0.2-1,0.4l-28.8,28.8c-0.2,0.2-0.4,0.6-0.4,1c0,0.8,0.6,1.4,1.4,1.4c0.4,0,0.7-0.2,1-0.4
					l5.9-5.9v33.7c0,0.8,0.6,1.4,1.4,1.4h41.1c0.8,0,1.4-0.6,1.4-1.4v-33.7l5.9,5.9c0.2,0.2,0.6,0.4,1,0.4c0.8,0,1.4-0.6,1.4-1.4
					C146.8,116.3,146.7,115.9,146.4,115.7z M127.6,92h5.5v10.4l-5.5-5.5V92z M108.4,144.1h-11v-2.7h11V144.1z M122.1,144.1h-11
					v-21.9h11V144.1z M135.9,144.1h-11v-2.7h11V144.1z M135.9,138.6h-11v-17.8c0-0.8-0.6-1.4-1.4-1.4h-13.7c-0.8,0-1.4,0.6-1.4,1.4
					v17.8h-11V109l19.2-19.2l19.2,19.2V138.6z M118,135.9c0.8,0,1.4-0.6,1.4-1.4c0-0.8-0.6-1.4-1.4-1.4c-0.8,0-1.4,0.6-1.4,1.4
					C116.7,135.2,117.3,135.9,118,135.9z"/>
			</g>
		</g>
		<g>
			<g>
				<path class="st1" d="M145.9,115.2l-10.6-10.6V90.1c0-0.8-0.6-1.4-1.4-1.4h-8.2c-0.8,0-1.4,0.6-1.4,1.4v3.5l-7.3-7.3
					c-0.2-0.2-0.6-0.4-1-0.4c-0.4,0-0.7,0.2-1,0.4l-28.8,28.8c-0.2,0.2-0.4,0.6-0.4,1c0,0.8,0.6,1.4,1.4,1.4c0.4,0,0.7-0.2,1-0.4
					l5.9-5.9v33.7c0,0.8,0.6,1.4,1.4,1.4h41.1c0.8,0,1.4-0.6,1.4-1.4v-33.7l5.9,5.9c0.2,0.2,0.6,0.4,1,0.4c0.8,0,1.4-0.6,1.4-1.4
					C146.3,115.8,146.2,115.4,145.9,115.2z M127.1,91.5h5.5v10.4l-5.5-5.5V91.5z M107.9,143.6H97v-2.7h11V143.6z M121.6,143.6h-11
					v-21.9h11V143.6z M135.4,143.6h-11v-2.7h11V143.6z M135.4,138.1h-11v-17.8c0-0.8-0.6-1.4-1.4-1.4h-13.7c-0.8,0-1.4,0.6-1.4,1.4
					v17.8H97v-29.6l19.2-19.2l19.2,19.2V138.1z M117.5,135.4c0.8,0,1.4-0.6,1.4-1.4c0-0.8-0.6-1.4-1.4-1.4c-0.8,0-1.4,0.6-1.4,1.4
					C116.2,134.7,116.8,135.4,117.5,135.4z"/>
			</g>
		</g>
		<g>
			<g>
				<path class="st1" d="M145.4,114.7l-10.6-10.6V89.6c0-0.8-0.6-1.4-1.4-1.4h-8.2c-0.8,0-1.4,0.6-1.4,1.4v3.5l-7.3-7.3
					c-0.2-0.2-0.6-0.4-1-0.4c-0.4,0-0.7,0.2-1,0.4l-28.8,28.8c-0.2,0.2-0.4,0.6-0.4,1c0,0.8,0.6,1.4,1.4,1.4c0.4,0,0.7-0.2,1-0.4
					l5.9-5.9v33.7c0,0.8,0.6,1.4,1.4,1.4h41.1c0.8,0,1.4-0.6,1.4-1.4v-33.7l5.9,5.9c0.2,0.2,0.6,0.4,1,0.4c0.8,0,1.4-0.6,1.4-1.4
					C145.8,115.3,145.7,114.9,145.4,114.7z M126.6,91h5.5v10.4l-5.5-5.5V91z M107.4,143.1h-11v-2.7h11V143.1z M121.1,143.1h-11
					v-21.9h11V143.1z M134.9,143.1h-11v-2.7h11V143.1z M134.9,137.6h-11v-17.8c0-0.8-0.6-1.4-1.4-1.4h-13.7c-0.8,0-1.4,0.6-1.4,1.4
					v17.8h-11V108l19.2-19.2l19.2,19.2V137.6z M117,134.9c0.8,0,1.4-0.6,1.4-1.4c0-0.8-0.6-1.4-1.4-1.4c-0.8,0-1.4,0.6-1.4,1.4
					C115.7,134.2,116.3,134.9,117,134.9z"/>
			</g>
		</g>
		<g>
			<g>
				<path class="st1" d="M144.9,114.2l-10.6-10.6V89.1c0-0.8-0.6-1.4-1.4-1.4h-8.2c-0.8,0-1.4,0.6-1.4,1.4v3.5l-7.3-7.3
					c-0.2-0.2-0.6-0.4-1-0.4c-0.4,0-0.7,0.2-1,0.4l-28.8,28.8c-0.2,0.2-0.4,0.6-0.4,1c0,0.8,0.6,1.4,1.4,1.4c0.4,0,0.7-0.2,1-0.4
					l5.9-5.9v33.7c0,0.8,0.6,1.4,1.4,1.4h41.1c0.8,0,1.4-0.6,1.4-1.4v-33.7l5.9,5.9c0.2,0.2,0.6,0.4,1,0.4c0.8,0,1.4-0.6,1.4-1.4
					C145.3,114.8,145.2,114.4,144.9,114.2z M126.1,90.5h5.5v10.4l-5.5-5.5V90.5z M106.9,142.6H96v-2.7h11V142.6z M120.6,142.6h-11
					v-21.9h11V142.6z M134.4,142.6h-11v-2.7h11V142.6z M134.4,137.1h-11v-17.8c0-0.8-0.6-1.4-1.4-1.4h-13.7c-0.8,0-1.4,0.6-1.4,1.4
					v17.8H96v-29.6l19.2-19.2l19.2,19.2V137.1z M116.5,134.4c0.8,0,1.4-0.6,1.4-1.4c0-0.8-0.6-1.4-1.4-1.4c-0.8,0-1.4,0.6-1.4,1.4
					C115.2,133.7,115.8,134.4,116.5,134.4z"/>
			</g>
		</g>
		<g>
			<g>
				<path class="st1" d="M144.4,113.7l-10.6-10.6V88.6c0-0.8-0.6-1.4-1.4-1.4h-8.2c-0.8,0-1.4,0.6-1.4,1.4v3.5l-7.3-7.3
					c-0.2-0.2-0.6-0.4-1-0.4c-0.4,0-0.7,0.2-1,0.4l-28.8,28.8c-0.2,0.2-0.4,0.6-0.4,1c0,0.8,0.6,1.4,1.4,1.4c0.4,0,0.7-0.2,1-0.4
					l5.9-5.9v33.7c0,0.8,0.6,1.4,1.4,1.4h41.1c0.8,0,1.4-0.6,1.4-1.4v-33.7l5.9,5.9c0.2,0.2,0.6,0.4,1,0.4c0.8,0,1.4-0.6,1.4-1.4
					C144.8,114.3,144.7,113.9,144.4,113.7z M125.6,90h5.5v10.4l-5.5-5.5V90z M106.4,142.1h-11v-2.7h11V142.1z M120.1,142.1h-11
					v-21.9h11V142.1z M133.9,142.1h-11v-2.7h11V142.1z M133.9,136.6h-11v-17.8c0-0.8-0.6-1.4-1.4-1.4h-13.7c-0.8,0-1.4,0.6-1.4,1.4
					v17.8h-11V107l19.2-19.2l19.2,19.2V136.6z M116,133.9c0.8,0,1.4-0.6,1.4-1.4c0-0.8-0.6-1.4-1.4-1.4c-0.8,0-1.4,0.6-1.4,1.4
					C114.7,133.2,115.3,133.9,116,133.9z"/>
			</g>
		</g>
		<g>
			<g>
				<path class="st1" d="M143.9,113.2l-10.6-10.6V88.1c0-0.8-0.6-1.4-1.4-1.4h-8.2c-0.8,0-1.4,0.6-1.4,1.4v3.5l-7.3-7.3
					c-0.2-0.2-0.6-0.4-1-0.4c-0.4,0-0.7,0.2-1,0.4l-28.8,28.8c-0.2,0.2-0.4,0.6-0.4,1c0,0.8,0.6,1.4,1.4,1.4c0.4,0,0.7-0.2,1-0.4
					l5.9-5.9v33.7c0,0.8,0.6,1.4,1.4,1.4h41.1c0.8,0,1.4-0.6,1.4-1.4v-33.7l5.9,5.9c0.2,0.2,0.6,0.4,1,0.4c0.8,0,1.4-0.6,1.4-1.4
					C144.3,113.8,144.2,113.4,143.9,113.2z M125.1,89.5h5.5v10.4l-5.5-5.5V89.5z M105.9,141.6H95v-2.7h11V141.6z M119.6,141.6h-11
					v-21.9h11V141.6z M133.4,141.6h-11v-2.7h11V141.6z M133.4,136.1h-11v-17.8c0-0.8-0.6-1.4-1.4-1.4h-13.7c-0.8,0-1.4,0.6-1.4,1.4
					v17.8H95v-29.6l19.2-19.2l19.2,19.2V136.1z M115.5,133.4c0.8,0,1.4-0.6,1.4-1.4c0-0.8-0.6-1.4-1.4-1.4c-0.8,0-1.4,0.6-1.4,1.4
					C114.2,132.7,114.8,133.4,115.5,133.4z"/>
			</g>
		</g>
		<g>
			<g>
				<path class="st1" d="M143.4,112.7l-10.6-10.6V87.6c0-0.8-0.6-1.4-1.4-1.4h-8.2c-0.8,0-1.4,0.6-1.4,1.4v3.5l-7.3-7.3
					c-0.2-0.2-0.6-0.4-1-0.4c-0.4,0-0.7,0.2-1,0.4l-28.8,28.8c-0.2,0.2-0.4,0.6-0.4,1c0,0.8,0.6,1.4,1.4,1.4c0.4,0,0.7-0.2,1-0.4
					l5.9-5.9v33.7c0,0.8,0.6,1.4,1.4,1.4h41.1c0.8,0,1.4-0.6,1.4-1.4v-33.7l5.9,5.9c0.2,0.2,0.6,0.4,1,0.4c0.8,0,1.4-0.6,1.4-1.4
					C143.8,113.3,143.7,112.9,143.4,112.7z M124.6,89h5.5v10.4l-5.5-5.5V89z M105.4,141.1h-11v-2.7h11V141.1z M119.1,141.1h-11
					v-21.9h11V141.1z M132.9,141.1h-11v-2.7h11V141.1z M132.9,135.6h-11v-17.8c0-0.8-0.6-1.4-1.4-1.4h-13.7c-0.8,0-1.4,0.6-1.4,1.4
					v17.8h-11V106l19.2-19.2l19.2,19.2V135.6z M115,132.9c0.8,0,1.4-0.6,1.4-1.4c0-0.8-0.6-1.4-1.4-1.4c-0.8,0-1.4,0.6-1.4,1.4
					C113.7,132.2,114.3,132.9,115,132.9z"/>
			</g>
		</g>
		<g>
			<g>
				<path class="st1" d="M142.9,112.2l-10.6-10.6V87.1c0-0.8-0.6-1.4-1.4-1.4h-8.2c-0.8,0-1.4,0.6-1.4,1.4v3.5l-7.3-7.3
					c-0.2-0.2-0.6-0.4-1-0.4c-0.4,0-0.7,0.2-1,0.4l-28.8,28.8c-0.2,0.2-0.4,0.6-0.4,1c0,0.8,0.6,1.4,1.4,1.4c0.4,0,0.7-0.2,1-0.4
					l5.9-5.9v33.7c0,0.8,0.6,1.4,1.4,1.4h41.1c0.8,0,1.4-0.6,1.4-1.4v-33.7l5.9,5.9c0.2,0.2,0.6,0.4,1,0.4c0.8,0,1.4-0.6,1.4-1.4
					C143.3,112.8,143.2,112.4,142.9,112.2z M124.1,88.5h5.5v10.4l-5.5-5.5V88.5z M104.9,140.6H94v-2.7h11V140.6z M118.6,140.6h-11
					v-21.9h11V140.6z M132.4,140.6h-11v-2.7h11V140.6z M132.4,135.1h-11v-17.8c0-0.8-0.6-1.4-1.4-1.4h-13.7c-0.8,0-1.4,0.6-1.4,1.4
					v17.8H94v-29.6l19.2-19.2l19.2,19.2V135.1z M114.5,132.4c0.8,0,1.4-0.6,1.4-1.4c0-0.8-0.6-1.4-1.4-1.4c-0.8,0-1.4,0.6-1.4,1.4
					C113.2,131.7,113.8,132.4,114.5,132.4z"/>
			</g>
		</g>
		<g>
			<g>
				<path class="st1" d="M142.4,111.7l-10.6-10.6V86.6c0-0.8-0.6-1.4-1.4-1.4h-8.2c-0.8,0-1.4,0.6-1.4,1.4v3.5l-7.3-7.3
					c-0.2-0.2-0.6-0.4-1-0.4c-0.4,0-0.7,0.2-1,0.4l-28.8,28.8c-0.2,0.2-0.4,0.6-0.4,1c0,0.8,0.6,1.4,1.4,1.4c0.4,0,0.7-0.2,1-0.4
					l5.9-5.9v33.7c0,0.8,0.6,1.4,1.4,1.4h41.1c0.8,0,1.4-0.6,1.4-1.4v-33.7l5.9,5.9c0.2,0.2,0.6,0.4,1,0.4c0.8,0,1.4-0.6,1.4-1.4
					C142.8,112.3,142.7,111.9,142.4,111.7z M123.6,88h5.5v10.4l-5.5-5.5V88z M104.4,140.1h-11v-2.7h11V140.1z M118.1,140.1h-11
					v-21.9h11V140.1z M131.9,140.1h-11v-2.7h11V140.1z M131.9,134.6h-11v-17.8c0-0.8-0.6-1.4-1.4-1.4h-13.7c-0.8,0-1.4,0.6-1.4,1.4
					v17.8h-11V105l19.2-19.2l19.2,19.2V134.6z M114,131.9c0.8,0,1.4-0.6,1.4-1.4c0-0.8-0.6-1.4-1.4-1.4c-0.8,0-1.4,0.6-1.4,1.4
					C112.7,131.2,113.3,131.9,114,131.9z"/>
			</g>
		</g>
		<g>
			<g>
				<path class="st1" d="M141.9,111.2l-10.6-10.6V86.1c0-0.8-0.6-1.4-1.4-1.4h-8.2c-0.8,0-1.4,0.6-1.4,1.4v3.5l-7.3-7.3
					c-0.2-0.2-0.6-0.4-1-0.4c-0.4,0-0.7,0.2-1,0.4l-28.8,28.8c-0.2,0.2-0.4,0.6-0.4,1c0,0.8,0.6,1.4,1.4,1.4c0.4,0,0.7-0.2,1-0.4
					l5.9-5.9v33.7c0,0.8,0.6,1.4,1.4,1.4h41.1c0.8,0,1.4-0.6,1.4-1.4v-33.7l5.9,5.9c0.2,0.2,0.6,0.4,1,0.4c0.8,0,1.4-0.6,1.4-1.4
					C142.3,111.8,142.2,111.4,141.9,111.2z M123.1,87.5h5.5v10.4l-5.5-5.5V87.5z M103.9,139.6H93v-2.7h11V139.6z M117.6,139.6h-11
					v-21.9h11V139.6z M131.4,139.6h-11v-2.7h11V139.6z M131.4,134.1h-11v-17.8c0-0.8-0.6-1.4-1.4-1.4h-13.7c-0.8,0-1.4,0.6-1.4,1.4
					v17.8H93v-29.6l19.2-19.2l19.2,19.2V134.1z M113.5,131.4c0.8,0,1.4-0.6,1.4-1.4c0-0.8-0.6-1.4-1.4-1.4c-0.8,0-1.4,0.6-1.4,1.4
					C112.2,130.7,112.8,131.4,113.5,131.4z"/>
			</g>
		</g>
		<g>
			<g>
				<path class="st1" d="M141.4,110.7l-10.6-10.6V85.6c0-0.8-0.6-1.4-1.4-1.4h-8.2c-0.8,0-1.4,0.6-1.4,1.4v3.5l-7.3-7.3
					c-0.2-0.2-0.6-0.4-1-0.4c-0.4,0-0.7,0.2-1,0.4l-28.8,28.8c-0.2,0.2-0.4,0.6-0.4,1c0,0.8,0.6,1.4,1.4,1.4c0.4,0,0.7-0.2,1-0.4
					l5.9-5.9v33.7c0,0.8,0.6,1.4,1.4,1.4h41.1c0.8,0,1.4-0.6,1.4-1.4v-33.7l5.9,5.9c0.2,0.2,0.6,0.4,1,0.4c0.8,0,1.4-0.6,1.4-1.4
					C141.8,111.3,141.7,110.9,141.4,110.7z M122.6,87h5.5v10.4l-5.5-5.5V87z M103.4,139.1h-11v-2.7h11V139.1z M117.1,139.1h-11
					v-21.9h11V139.1z M130.9,139.1h-11v-2.7h11V139.1z M130.9,133.6h-11v-17.8c0-0.8-0.6-1.4-1.4-1.4h-13.7c-0.8,0-1.4,0.6-1.4,1.4
					v17.8h-11V104l19.2-19.2l19.2,19.2V133.6z M113,130.9c0.8,0,1.4-0.6,1.4-1.4c0-0.8-0.6-1.4-1.4-1.4c-0.8,0-1.4,0.6-1.4,1.4
					C111.7,130.2,112.3,130.9,113,130.9z"/>
			</g>
		</g>
		<g>
			<g>
				<path class="st1" d="M140.9,110.2l-10.6-10.6V85.1c0-0.8-0.6-1.4-1.4-1.4h-8.2c-0.8,0-1.4,0.6-1.4,1.4v3.5l-7.3-7.3
					c-0.2-0.2-0.6-0.4-1-0.4c-0.4,0-0.7,0.2-1,0.4l-28.8,28.8c-0.2,0.2-0.4,0.6-0.4,1c0,0.8,0.6,1.4,1.4,1.4c0.4,0,0.7-0.2,1-0.4
					l5.9-5.9v33.7c0,0.8,0.6,1.4,1.4,1.4h41.1c0.8,0,1.4-0.6,1.4-1.4v-33.7l5.9,5.9c0.2,0.2,0.6,0.4,1,0.4c0.8,0,1.4-0.6,1.4-1.4
					C141.3,110.8,141.2,110.4,140.9,110.2z M122.1,86.5h5.5v10.4l-5.5-5.5V86.5z M102.9,138.6H92v-2.7h11V138.6z M116.6,138.6h-11
					v-21.9h11V138.6z M130.4,138.6h-11v-2.7h11V138.6z M130.4,133.1h-11v-17.8c0-0.8-0.6-1.4-1.4-1.4h-13.7c-0.8,0-1.4,0.6-1.4,1.4
					v17.8H92v-29.6l19.2-19.2l19.2,19.2V133.1z M112.5,130.4c0.8,0,1.4-0.6,1.4-1.4c0-0.8-0.6-1.4-1.4-1.4c-0.8,0-1.4,0.6-1.4,1.4
					C111.2,129.7,111.8,130.4,112.5,130.4z"/>
			</g>
		</g>
		<g>
			<g>
				<path class="st1" d="M140.4,109.7l-10.6-10.6V84.6c0-0.8-0.6-1.4-1.4-1.4h-8.2c-0.8,0-1.4,0.6-1.4,1.4v3.5l-7.3-7.3
					c-0.2-0.2-0.6-0.4-1-0.4c-0.4,0-0.7,0.2-1,0.4l-28.8,28.8c-0.2,0.2-0.4,0.6-0.4,1c0,0.8,0.6,1.4,1.4,1.4c0.4,0,0.7-0.2,1-0.4
					l5.9-5.9v33.7c0,0.8,0.6,1.4,1.4,1.4h41.1c0.8,0,1.4-0.6,1.4-1.4v-33.7l5.9,5.9c0.2,0.2,0.6,0.4,1,0.4c0.8,0,1.4-0.6,1.4-1.4
					C140.8,110.3,140.7,109.9,140.4,109.7z M121.6,86h5.5v10.4l-5.5-5.5V86z M102.4,138.1h-11v-2.7h11V138.1z M116.1,138.1h-11
					v-21.9h11V138.1z M129.9,138.1h-11v-2.7h11V138.1z M129.9,132.6h-11v-17.8c0-0.8-0.6-1.4-1.4-1.4h-13.7c-0.8,0-1.4,0.6-1.4,1.4
					v17.8h-11V103l19.2-19.2l19.2,19.2V132.6z M112,129.9c0.8,0,1.4-0.6,1.4-1.4c0-0.8-0.6-1.4-1.4-1.4c-0.8,0-1.4,0.6-1.4,1.4
					C110.7,129.2,111.3,129.9,112,129.9z"/>
			</g>
		</g>
		<g>
			<g>
				<path class="st1" d="M139.9,109.2l-10.6-10.6V84.1c0-0.8-0.6-1.4-1.4-1.4h-8.2c-0.8,0-1.4,0.6-1.4,1.4v3.5l-7.3-7.3
					c-0.2-0.2-0.6-0.4-1-0.4c-0.4,0-0.7,0.2-1,0.4l-28.8,28.8c-0.2,0.2-0.4,0.6-0.4,1c0,0.8,0.6,1.4,1.4,1.4c0.4,0,0.7-0.2,1-0.4
					l5.9-5.9v33.7c0,0.8,0.6,1.4,1.4,1.4h41.1c0.8,0,1.4-0.6,1.4-1.4v-33.7l5.9,5.9c0.2,0.2,0.6,0.4,1,0.4c0.8,0,1.4-0.6,1.4-1.4
					C140.3,109.8,140.2,109.4,139.9,109.2z M121.1,85.5h5.5v10.4l-5.5-5.5V85.5z M101.9,137.6H91v-2.7h11V137.6z M115.6,137.6h-11
					v-21.9h11V137.6z M129.4,137.6h-11v-2.7h11V137.6z M129.4,132.1h-11v-17.8c0-0.8-0.6-1.4-1.4-1.4h-13.7c-0.8,0-1.4,0.6-1.4,1.4
					v17.8H91v-29.6l19.2-19.2l19.2,19.2V132.1z M111.5,129.4c0.8,0,1.4-0.6,1.4-1.4c0-0.8-0.6-1.4-1.4-1.4c-0.8,0-1.4,0.6-1.4,1.4
					C110.2,128.7,110.8,129.4,111.5,129.4z"/>
			</g>
		</g>
		<g>
			<g>
				<path class="st1" d="M139.4,108.7l-10.6-10.6V83.6c0-0.8-0.6-1.4-1.4-1.4h-8.2c-0.8,0-1.4,0.6-1.4,1.4v3.5l-7.3-7.3
					c-0.2-0.2-0.6-0.4-1-0.4c-0.4,0-0.7,0.2-1,0.4l-28.8,28.8c-0.2,0.2-0.4,0.6-0.4,1c0,0.8,0.6,1.4,1.4,1.4c0.4,0,0.7-0.2,1-0.4
					l5.9-5.9v33.7c0,0.8,0.6,1.4,1.4,1.4h41.1c0.8,0,1.4-0.6,1.4-1.4v-33.7l5.9,5.9c0.2,0.2,0.6,0.4,1,0.4c0.8,0,1.4-0.6,1.4-1.4
					C139.8,109.3,139.7,108.9,139.4,108.7z M120.6,85h5.5v10.4l-5.5-5.5V85z M101.4,137.1h-11v-2.7h11V137.1z M115.1,137.1h-11
					v-21.9h11V137.1z M128.9,137.1h-11v-2.7h11V137.1z M128.9,131.6h-11v-17.8c0-0.8-0.6-1.4-1.4-1.4h-13.7c-0.8,0-1.4,0.6-1.4,1.4
					v17.8h-11V102l19.2-19.2l19.2,19.2V131.6z M111,128.9c0.8,0,1.4-0.6,1.4-1.4c0-0.8-0.6-1.4-1.4-1.4c-0.8,0-1.4,0.6-1.4,1.4
					C109.7,128.2,110.3,128.9,111,128.9z"/>
			</g>
		</g>
		<g>
			<g>
				<path class="st1" d="M138.9,108.2l-10.6-10.6V83.1c0-0.8-0.6-1.4-1.4-1.4h-8.2c-0.8,0-1.4,0.6-1.4,1.4v3.5l-7.3-7.3
					c-0.2-0.2-0.6-0.4-1-0.4c-0.4,0-0.7,0.2-1,0.4l-28.8,28.8c-0.2,0.2-0.4,0.6-0.4,1c0,0.8,0.6,1.4,1.4,1.4c0.4,0,0.7-0.2,1-0.4
					l5.9-5.9v33.7c0,0.8,0.6,1.4,1.4,1.4h41.1c0.8,0,1.4-0.6,1.4-1.4v-33.7l5.9,5.9c0.2,0.2,0.6,0.4,1,0.4c0.8,0,1.4-0.6,1.4-1.4
					C139.3,108.8,139.2,108.4,138.9,108.2z M120.1,84.5h5.5v10.4l-5.5-5.5V84.5z M100.9,136.6H90v-2.7h11V136.6z M114.6,136.6h-11
					v-21.9h11V136.6z M128.4,136.6h-11v-2.7h11V136.6z M128.4,131.1h-11v-17.8c0-0.8-0.6-1.4-1.4-1.4h-13.7c-0.8,0-1.4,0.6-1.4,1.4
					v17.8H90v-29.6l19.2-19.2l19.2,19.2V131.1z M110.5,128.4c0.8,0,1.4-0.6,1.4-1.4c0-0.8-0.6-1.4-1.4-1.4c-0.8,0-1.4,0.6-1.4,1.4
					C109.2,127.7,109.8,128.4,110.5,128.4z"/>
			</g>
		</g>
		<g>
			<g>
				<path class="st1" d="M138.4,107.7l-10.6-10.6V82.6c0-0.8-0.6-1.4-1.4-1.4h-8.2c-0.8,0-1.4,0.6-1.4,1.4v3.5l-7.3-7.3
					c-0.2-0.2-0.6-0.4-1-0.4c-0.4,0-0.7,0.2-1,0.4l-28.8,28.8c-0.2,0.2-0.4,0.6-0.4,1c0,0.8,0.6,1.4,1.4,1.4c0.4,0,0.7-0.2,1-0.4
					l5.9-5.9v33.7c0,0.8,0.6,1.4,1.4,1.4h41.1c0.8,0,1.4-0.6,1.4-1.4v-33.7l5.9,5.9c0.2,0.2,0.6,0.4,1,0.4c0.8,0,1.4-0.6,1.4-1.4
					C138.8,108.3,138.7,107.9,138.4,107.7z M119.6,84h5.5v10.4l-5.5-5.5V84z M100.4,136.1h-11v-2.7h11V136.1z M114.1,136.1h-11
					v-21.9h11V136.1z M127.9,136.1h-11v-2.7h11V136.1z M127.9,130.6h-11v-17.8c0-0.8-0.6-1.4-1.4-1.4h-13.7c-0.8,0-1.4,0.6-1.4,1.4
					v17.8h-11V101l19.2-19.2l19.2,19.2V130.6z M110,127.9c0.8,0,1.4-0.6,1.4-1.4c0-0.8-0.6-1.4-1.4-1.4c-0.8,0-1.4,0.6-1.4,1.4
					C108.7,127.2,109.3,127.9,110,127.9z"/>
			</g>
		</g>
		<g>
			<g>
				<path class="st1" d="M137.9,107.2l-10.6-10.6V82.1c0-0.8-0.6-1.4-1.4-1.4h-8.2c-0.8,0-1.4,0.6-1.4,1.4v3.5l-7.3-7.3
					c-0.2-0.2-0.6-0.4-1-0.4c-0.4,0-0.7,0.2-1,0.4l-28.8,28.8c-0.2,0.2-0.4,0.6-0.4,1c0,0.8,0.6,1.4,1.4,1.4c0.4,0,0.7-0.2,1-0.4
					l5.9-5.9v33.7c0,0.8,0.6,1.4,1.4,1.4h41.1c0.8,0,1.4-0.6,1.4-1.4v-33.7l5.9,5.9c0.2,0.2,0.6,0.4,1,0.4c0.8,0,1.4-0.6,1.4-1.4
					C138.3,107.8,138.2,107.4,137.9,107.2z M119.1,83.5h5.5v10.4l-5.5-5.5V83.5z M99.9,135.6H89v-2.7h11V135.6z M113.6,135.6h-11
					v-21.9h11V135.6z M127.4,135.6h-11v-2.7h11V135.6z M127.4,130.1h-11v-17.8c0-0.8-0.6-1.4-1.4-1.4h-13.7c-0.8,0-1.4,0.6-1.4,1.4
					v17.8H89v-29.6l19.2-19.2l19.2,19.2V130.1z M109.5,127.4c0.8,0,1.4-0.6,1.4-1.4c0-0.8-0.6-1.4-1.4-1.4c-0.8,0-1.4,0.6-1.4,1.4
					C108.2,126.7,108.8,127.4,109.5,127.4z"/>
			</g>
		</g>
		<g>
			<g>
				<path class="st1" d="M137.4,106.7l-10.6-10.6V81.6c0-0.8-0.6-1.4-1.4-1.4h-8.2c-0.8,0-1.4,0.6-1.4,1.4v3.5l-7.3-7.3
					c-0.2-0.2-0.6-0.4-1-0.4c-0.4,0-0.7,0.2-1,0.4l-28.8,28.8c-0.2,0.2-0.4,0.6-0.4,1c0,0.8,0.6,1.4,1.4,1.4c0.4,0,0.7-0.2,1-0.4
					l5.9-5.9v33.7c0,0.8,0.6,1.4,1.4,1.4h41.1c0.8,0,1.4-0.6,1.4-1.4v-33.7l5.9,5.9c0.2,0.2,0.6,0.4,1,0.4c0.8,0,1.4-0.6,1.4-1.4
					C137.8,107.3,137.7,106.9,137.4,106.7z M118.6,83h5.5v10.4l-5.5-5.5V83z M99.4,135.1h-11v-2.7h11V135.1z M113.1,135.1h-11v-21.9
					h11V135.1z M126.9,135.1h-11v-2.7h11V135.1z M126.9,129.6h-11v-17.8c0-0.8-0.6-1.4-1.4-1.4h-13.7c-0.8,0-1.4,0.6-1.4,1.4v17.8
					h-11V100l19.2-19.2l19.2,19.2V129.6z M109,126.9c0.8,0,1.4-0.6,1.4-1.4c0-0.8-0.6-1.4-1.4-1.4c-0.8,0-1.4,0.6-1.4,1.4
					C107.7,126.2,108.3,126.9,109,126.9z"/>
			</g>
		</g>
		<g>
			<g>
				<path class="st1" d="M136.9,106.2l-10.6-10.6V81.1c0-0.8-0.6-1.4-1.4-1.4h-8.2c-0.8,0-1.4,0.6-1.4,1.4v3.5l-7.3-7.3
					c-0.2-0.2-0.6-0.4-1-0.4c-0.4,0-0.7,0.2-1,0.4l-28.8,28.8c-0.2,0.2-0.4,0.6-0.4,1c0,0.8,0.6,1.4,1.4,1.4c0.4,0,0.7-0.2,1-0.4
					l5.9-5.9v33.7c0,0.8,0.6,1.4,1.4,1.4h41.1c0.8,0,1.4-0.6,1.4-1.4v-33.7l5.9,5.9c0.2,0.2,0.6,0.4,1,0.4c0.8,0,1.4-0.6,1.4-1.4
					C137.3,106.8,137.2,106.4,136.9,106.2z M118.1,82.5h5.5v10.4l-5.5-5.5V82.5z M98.9,134.6H88v-2.7h11V134.6z M112.6,134.6h-11
					v-21.9h11V134.6z M126.4,134.6h-11v-2.7h11V134.6z M126.4,129.1h-11v-17.8c0-0.8-0.6-1.4-1.4-1.4h-13.7c-0.8,0-1.4,0.6-1.4,1.4
					v17.8H88V99.5l19.2-19.2l19.2,19.2V129.1z M108.5,126.4c0.8,0,1.4-0.6,1.4-1.4c0-0.8-0.6-1.4-1.4-1.4c-0.8,0-1.4,0.6-1.4,1.4
					C107.2,125.7,107.8,126.4,108.5,126.4z"/>
			</g>
		</g>
		<g>
			<g>
				<path class="st1" d="M136.4,105.7l-10.6-10.6V80.6c0-0.8-0.6-1.4-1.4-1.4h-8.2c-0.8,0-1.4,0.6-1.4,1.4v3.5l-7.3-7.3
					c-0.2-0.2-0.6-0.4-1-0.4c-0.4,0-0.7,0.2-1,0.4l-28.8,28.8c-0.2,0.2-0.4,0.6-0.4,1c0,0.8,0.6,1.4,1.4,1.4c0.4,0,0.7-0.2,1-0.4
					l5.9-5.9v33.7c0,0.8,0.6,1.4,1.4,1.4h41.1c0.8,0,1.4-0.6,1.4-1.4v-33.7l5.9,5.9c0.2,0.2,0.6,0.4,1,0.4c0.8,0,1.4-0.6,1.4-1.4
					C136.8,106.3,136.7,105.9,136.4,105.7z M117.6,82h5.5v10.4l-5.5-5.5V82z M98.4,134.1h-11v-2.7h11V134.1z M112.1,134.1h-11v-21.9
					h11V134.1z M125.9,134.1h-11v-2.7h11V134.1z M125.9,128.6h-11v-17.8c0-0.8-0.6-1.4-1.4-1.4H99.8c-0.8,0-1.4,0.6-1.4,1.4v17.8
					h-11V99l19.2-19.2L125.9,99V128.6z M108,125.9c0.8,0,1.4-0.6,1.4-1.4c0-0.8-0.6-1.4-1.4-1.4c-0.8,0-1.4,0.6-1.4,1.4
					C106.7,125.2,107.3,125.9,108,125.9z"/>
			</g>
		</g>
		<g>
			<g>
				<path class="st1" d="M135.9,105.2l-10.6-10.6V80.1c0-0.8-0.6-1.4-1.4-1.4h-8.2c-0.8,0-1.4,0.6-1.4,1.4v3.5l-7.3-7.3
					c-0.2-0.2-0.6-0.4-1-0.4c-0.4,0-0.7,0.2-1,0.4l-28.8,28.8c-0.2,0.2-0.4,0.6-0.4,1c0,0.8,0.6,1.4,1.4,1.4c0.4,0,0.7-0.2,1-0.4
					l5.9-5.9v33.7c0,0.8,0.6,1.4,1.4,1.4h41.1c0.8,0,1.4-0.6,1.4-1.4v-33.7l5.9,5.9c0.2,0.2,0.6,0.4,1,0.4c0.8,0,1.4-0.6,1.4-1.4
					C136.3,105.8,136.2,105.4,135.9,105.2z M117.1,81.5h5.5v10.4l-5.5-5.5V81.5z M97.9,133.6H87v-2.7h11V133.6z M111.6,133.6h-11
					v-21.9h11V133.6z M125.4,133.6h-11v-2.7h11V133.6z M125.4,128.1h-11v-17.8c0-0.8-0.6-1.4-1.4-1.4H99.3c-0.8,0-1.4,0.6-1.4,1.4
					v17.8H87V98.5l19.2-19.2l19.2,19.2V128.1z M107.5,125.4c0.8,0,1.4-0.6,1.4-1.4c0-0.8-0.6-1.4-1.4-1.4c-0.8,0-1.4,0.6-1.4,1.4
					C106.2,124.7,106.8,125.4,107.5,125.4z"/>
			</g>
		</g>
		<g>
			<g>
				<path class="st1" d="M135.4,104.7l-10.6-10.6V79.6c0-0.8-0.6-1.4-1.4-1.4h-8.2c-0.8,0-1.4,0.6-1.4,1.4v3.5l-7.3-7.3
					c-0.2-0.2-0.6-0.4-1-0.4c-0.4,0-0.7,0.2-1,0.4l-28.8,28.8c-0.2,0.2-0.4,0.6-0.4,1c0,0.8,0.6,1.4,1.4,1.4c0.4,0,0.7-0.2,1-0.4
					l5.9-5.9v33.7c0,0.8,0.6,1.4,1.4,1.4h41.1c0.8,0,1.4-0.6,1.4-1.4v-33.7l5.9,5.9c0.2,0.2,0.6,0.4,1,0.4c0.8,0,1.4-0.6,1.4-1.4
					C135.8,105.3,135.7,104.9,135.4,104.7z M116.6,81h5.5v10.4l-5.5-5.5V81z M97.4,133.1h-11v-2.7h11V133.1z M111.1,133.1h-11v-21.9
					h11V133.1z M124.9,133.1h-11v-2.7h11V133.1z M124.9,127.6h-11v-17.8c0-0.8-0.6-1.4-1.4-1.4H98.8c-0.8,0-1.4,0.6-1.4,1.4v17.8
					h-11V98l19.2-19.2L124.9,98V127.6z M107,124.9c0.8,0,1.4-0.6,1.4-1.4c0-0.8-0.6-1.4-1.4-1.4c-0.8,0-1.4,0.6-1.4,1.4
					C105.7,124.2,106.3,124.9,107,124.9z"/>
			</g>
		</g>
		<g>
			<g>
				<path class="st1" d="M134.9,104.2l-10.6-10.6V79.1c0-0.8-0.6-1.4-1.4-1.4h-8.2c-0.8,0-1.4,0.6-1.4,1.4v3.5l-7.3-7.3
					c-0.2-0.2-0.6-0.4-1-0.4c-0.4,0-0.7,0.2-1,0.4l-28.8,28.8c-0.2,0.2-0.4,0.6-0.4,1c0,0.8,0.6,1.4,1.4,1.4c0.4,0,0.7-0.2,1-0.4
					l5.9-5.9v33.7c0,0.8,0.6,1.4,1.4,1.4h41.1c0.8,0,1.4-0.6,1.4-1.4v-33.7l5.9,5.9c0.2,0.2,0.6,0.4,1,0.4c0.8,0,1.4-0.6,1.4-1.4
					C135.3,104.8,135.2,104.4,134.9,104.2z M116.1,80.5h5.5v10.4l-5.5-5.5V80.5z M96.9,132.6H86v-2.7h11V132.6z M110.6,132.6h-11
					v-21.9h11V132.6z M124.4,132.6h-11v-2.7h11V132.6z M124.4,127.1h-11v-17.8c0-0.8-0.6-1.4-1.4-1.4H98.3c-0.8,0-1.4,0.6-1.4,1.4
					v17.8H86V97.5l19.2-19.2l19.2,19.2V127.1z M106.5,124.4c0.8,0,1.4-0.6,1.4-1.4c0-0.8-0.6-1.4-1.4-1.4c-0.8,0-1.4,0.6-1.4,1.4
					C105.2,123.7,105.8,124.4,106.5,124.4z"/>
			</g>
		</g>
		<g>
			<g>
				<path class="st1" d="M134.4,103.7l-10.6-10.6V78.6c0-0.8-0.6-1.4-1.4-1.4h-8.2c-0.8,0-1.4,0.6-1.4,1.4v3.5l-7.3-7.3
					c-0.2-0.2-0.6-0.4-1-0.4c-0.4,0-0.7,0.2-1,0.4l-28.8,28.8c-0.2,0.2-0.4,0.6-0.4,1c0,0.8,0.6,1.4,1.4,1.4c0.4,0,0.7-0.2,1-0.4
					l5.9-5.9v33.7c0,0.8,0.6,1.4,1.4,1.4h41.1c0.8,0,1.4-0.6,1.4-1.4V99.7l5.9,5.9c0.2,0.2,0.6,0.4,1,0.4c0.8,0,1.4-0.6,1.4-1.4
					C134.8,104.3,134.7,103.9,134.4,103.7z M115.6,80h5.5v10.4l-5.5-5.5V80z M96.4,132.1h-11v-2.7h11V132.1z M110.1,132.1h-11v-21.9
					h11V132.1z M123.9,132.1h-11v-2.7h11V132.1z M123.9,126.6h-11v-17.8c0-0.8-0.6-1.4-1.4-1.4H97.8c-0.8,0-1.4,0.6-1.4,1.4v17.8
					h-11V97l19.2-19.2L123.9,97V126.6z M106,123.9c0.8,0,1.4-0.6,1.4-1.4c0-0.8-0.6-1.4-1.4-1.4c-0.8,0-1.4,0.6-1.4,1.4
					C104.7,123.2,105.3,123.9,106,123.9z"/>
			</g>
		</g>
		<g>
			<g>
				<path class="st1" d="M133.9,103.2l-10.6-10.6V78.1c0-0.8-0.6-1.4-1.4-1.4h-8.2c-0.8,0-1.4,0.6-1.4,1.4v3.5l-7.3-7.3
					c-0.2-0.2-0.6-0.4-1-0.4c-0.4,0-0.7,0.2-1,0.4l-28.8,28.8c-0.2,0.2-0.4,0.6-0.4,1c0,0.8,0.6,1.4,1.4,1.4c0.4,0,0.7-0.2,1-0.4
					l5.9-5.9v33.7c0,0.8,0.6,1.4,1.4,1.4h41.1c0.8,0,1.4-0.6,1.4-1.4V99.2l5.9,5.9c0.2,0.2,0.6,0.4,1,0.4c0.8,0,1.4-0.6,1.4-1.4
					C134.3,103.8,134.2,103.4,133.9,103.2z M115.1,79.5h5.5v10.4l-5.5-5.5V79.5z M95.9,131.6H85v-2.7h11V131.6z M109.6,131.6h-11
					v-21.9h11V131.6z M123.4,131.6h-11v-2.7h11V131.6z M123.4,126.1h-11v-17.8c0-0.8-0.6-1.4-1.4-1.4H97.3c-0.8,0-1.4,0.6-1.4,1.4
					v17.8H85V96.5l19.2-19.2l19.2,19.2V126.1z M105.5,123.4c0.8,0,1.4-0.6,1.4-1.4c0-0.8-0.6-1.4-1.4-1.4c-0.8,0-1.4,0.6-1.4,1.4
					C104.2,122.7,104.8,123.4,105.5,123.4z"/>
			</g>
		</g>
		<g>
			<g>
				<path class="st1" d="M133.4,102.7l-10.6-10.6V77.6c0-0.8-0.6-1.4-1.4-1.4h-8.2c-0.8,0-1.4,0.6-1.4,1.4v3.5l-7.3-7.3
					c-0.2-0.2-0.6-0.4-1-0.4c-0.4,0-0.7,0.2-1,0.4l-28.8,28.8c-0.2,0.2-0.4,0.6-0.4,1c0,0.8,0.6,1.4,1.4,1.4c0.4,0,0.7-0.2,1-0.4
					l5.9-5.9v33.7c0,0.8,0.6,1.4,1.4,1.4h41.1c0.8,0,1.4-0.6,1.4-1.4V98.7l5.9,5.9c0.2,0.2,0.6,0.4,1,0.4c0.8,0,1.4-0.6,1.4-1.4
					C133.8,103.3,133.7,102.9,133.4,102.7z M114.6,79h5.5v10.4l-5.5-5.5V79z M95.4,131.1h-11v-2.7h11V131.1z M109.1,131.1h-11v-21.9
					h11V131.1z M122.9,131.1h-11v-2.7h11V131.1z M122.9,125.6h-11v-17.8c0-0.8-0.6-1.4-1.4-1.4H96.8c-0.8,0-1.4,0.6-1.4,1.4v17.8
					h-11V96l19.2-19.2L122.9,96V125.6z M105,122.9c0.8,0,1.4-0.6,1.4-1.4c0-0.8-0.6-1.4-1.4-1.4c-0.8,0-1.4,0.6-1.4,1.4
					C103.7,122.2,104.3,122.9,105,122.9z"/>
			</g>
		</g>
		<g>
			<g>
				<path class="st1" d="M132.9,102.2l-10.6-10.6V77.1c0-0.8-0.6-1.4-1.4-1.4h-8.2c-0.8,0-1.4,0.6-1.4,1.4v3.5l-7.3-7.3
					c-0.2-0.2-0.6-0.4-1-0.4c-0.4,0-0.7,0.2-1,0.4l-28.8,28.8c-0.2,0.2-0.4,0.6-0.4,1c0,0.8,0.6,1.4,1.4,1.4c0.4,0,0.7-0.2,1-0.4
					l5.9-5.9v33.7c0,0.8,0.6,1.4,1.4,1.4h41.1c0.8,0,1.4-0.6,1.4-1.4V98.2l5.9,5.9c0.2,0.2,0.6,0.4,1,0.4c0.8,0,1.4-0.6,1.4-1.4
					C133.3,102.8,133.2,102.4,132.9,102.2z M114.1,78.5h5.5v10.4l-5.5-5.5V78.5z M94.9,130.6H84v-2.7h11V130.6z M108.6,130.6h-11
					v-21.9h11V130.6z M122.4,130.6h-11v-2.7h11V130.6z M122.4,125.1h-11v-17.8c0-0.8-0.6-1.4-1.4-1.4H96.3c-0.8,0-1.4,0.6-1.4,1.4
					v17.8H84V95.5l19.2-19.2l19.2,19.2V125.1z M104.5,122.4c0.8,0,1.4-0.6,1.4-1.4c0-0.8-0.6-1.4-1.4-1.4c-0.8,0-1.4,0.6-1.4,1.4
					C103.2,121.7,103.8,122.4,104.5,122.4z"/>
			</g>
		</g>
		<g>
			<g>
				<path class="st1" d="M132.4,101.7l-10.6-10.6V76.6c0-0.8-0.6-1.4-1.4-1.4h-8.2c-0.8,0-1.4,0.6-1.4,1.4v3.5l-7.3-7.3
					c-0.2-0.2-0.6-0.4-1-0.4c-0.4,0-0.7,0.2-1,0.4l-28.8,28.8c-0.2,0.2-0.4,0.6-0.4,1c0,0.8,0.6,1.4,1.4,1.4c0.4,0,0.7-0.2,1-0.4
					l5.9-5.9v33.7c0,0.8,0.6,1.4,1.4,1.4h41.1c0.8,0,1.4-0.6,1.4-1.4V97.7l5.9,5.9c0.2,0.2,0.6,0.4,1,0.4c0.8,0,1.4-0.6,1.4-1.4
					C132.8,102.3,132.7,101.9,132.4,101.7z M113.6,78h5.5v10.4l-5.5-5.5V78z M94.4,130.1h-11v-2.7h11V130.1z M108.1,130.1h-11v-21.9
					h11V130.1z M121.9,130.1h-11v-2.7h11V130.1z M121.9,124.6h-11v-17.8c0-0.8-0.6-1.4-1.4-1.4H95.8c-0.8,0-1.4,0.6-1.4,1.4v17.8
					h-11V95l19.2-19.2L121.9,95V124.6z M104,121.9c0.8,0,1.4-0.6,1.4-1.4c0-0.8-0.6-1.4-1.4-1.4c-0.8,0-1.4,0.6-1.4,1.4
					C102.7,121.2,103.3,121.9,104,121.9z"/>
			</g>
		</g>
		<g>
			<g>
				<path class="st1" d="M131.9,101.2l-10.6-10.6V76.1c0-0.8-0.6-1.4-1.4-1.4h-8.2c-0.8,0-1.4,0.6-1.4,1.4v3.5l-7.3-7.3
					c-0.2-0.2-0.6-0.4-1-0.4c-0.4,0-0.7,0.2-1,0.4l-28.8,28.8c-0.2,0.2-0.4,0.6-0.4,1c0,0.8,0.6,1.4,1.4,1.4c0.4,0,0.7-0.2,1-0.4
					l5.9-5.9v33.7c0,0.8,0.6,1.4,1.4,1.4h41.1c0.8,0,1.4-0.6,1.4-1.4V97.2l5.9,5.9c0.2,0.2,0.6,0.4,1,0.4c0.8,0,1.4-0.6,1.4-1.4
					C132.3,101.8,132.2,101.4,131.9,101.2z M113.1,77.5h5.5v10.4l-5.5-5.5V77.5z M93.9,129.6H83v-2.7h11V129.6z M107.6,129.6h-11
					v-21.9h11V129.6z M121.4,129.6h-11v-2.7h11V129.6z M121.4,124.1h-11v-17.8c0-0.8-0.6-1.4-1.4-1.4H95.3c-0.8,0-1.4,0.6-1.4,1.4
					v17.8H83V94.5l19.2-19.2l19.2,19.2V124.1z M103.5,121.4c0.8,0,1.4-0.6,1.4-1.4c0-0.8-0.6-1.4-1.4-1.4c-0.8,0-1.4,0.6-1.4,1.4
					C102.2,120.7,102.8,121.4,103.5,121.4z"/>
			</g>
		</g>
		<g>
			<g>
				<path class="st1" d="M131.4,100.7l-10.6-10.6V75.6c0-0.8-0.6-1.4-1.4-1.4h-8.2c-0.8,0-1.4,0.6-1.4,1.4v3.5l-7.3-7.3
					c-0.2-0.2-0.6-0.4-1-0.4c-0.4,0-0.7,0.2-1,0.4l-28.8,28.8c-0.2,0.2-0.4,0.6-0.4,1c0,0.8,0.6,1.4,1.4,1.4c0.4,0,0.7-0.2,1-0.4
					l5.9-5.9v33.7c0,0.8,0.6,1.4,1.4,1.4h41.1c0.8,0,1.4-0.6,1.4-1.4V96.7l5.9,5.9c0.2,0.2,0.6,0.4,1,0.4c0.8,0,1.4-0.6,1.4-1.4
					C131.8,101.3,131.7,100.9,131.4,100.7z M112.6,77h5.5v10.4l-5.5-5.5V77z M93.4,129.1h-11v-2.7h11V129.1z M107.1,129.1h-11v-21.9
					h11V129.1z M120.9,129.1h-11v-2.7h11V129.1z M120.9,123.6h-11v-17.8c0-0.8-0.6-1.4-1.4-1.4H94.8c-0.8,0-1.4,0.6-1.4,1.4v17.8
					h-11V94l19.2-19.2L120.9,94V123.6z M103,120.9c0.8,0,1.4-0.6,1.4-1.4c0-0.8-0.6-1.4-1.4-1.4c-0.8,0-1.4,0.6-1.4,1.4
					C101.7,120.2,102.3,120.9,103,120.9z"/>
			</g>
		</g>
		<g>
			<g>
				<path class="st1" d="M130.9,100.2l-10.6-10.6V75.1c0-0.8-0.6-1.4-1.4-1.4h-8.2c-0.8,0-1.4,0.6-1.4,1.4v3.5l-7.3-7.3
					c-0.2-0.2-0.6-0.4-1-0.4c-0.4,0-0.7,0.2-1,0.4l-28.8,28.8c-0.2,0.2-0.4,0.6-0.4,1c0,0.8,0.6,1.4,1.4,1.4c0.4,0,0.7-0.2,1-0.4
					l5.9-5.9v33.7c0,0.8,0.6,1.4,1.4,1.4h41.1c0.8,0,1.4-0.6,1.4-1.4V96.2l5.9,5.9c0.2,0.2,0.6,0.4,1,0.4c0.8,0,1.4-0.6,1.4-1.4
					C131.3,100.8,131.2,100.4,130.9,100.2z M112.1,76.5h5.5v10.4l-5.5-5.5V76.5z M92.9,128.6H82v-2.7h11V128.6z M106.6,128.6h-11
					v-21.9h11V128.6z M120.4,128.6h-11v-2.7h11V128.6z M120.4,123.1h-11v-17.8c0-0.8-0.6-1.4-1.4-1.4H94.3c-0.8,0-1.4,0.6-1.4,1.4
					v17.8H82V93.5l19.2-19.2l19.2,19.2V123.1z M102.5,120.4c0.8,0,1.4-0.6,1.4-1.4c0-0.8-0.6-1.4-1.4-1.4c-0.8,0-1.4,0.6-1.4,1.4
					C101.2,119.7,101.8,120.4,102.5,120.4z"/>
			</g>
		</g>
		<g>
			<g>
				<path class="st1" d="M130.4,99.7l-10.6-10.6V74.6c0-0.8-0.6-1.4-1.4-1.4h-8.2c-0.8,0-1.4,0.6-1.4,1.4v3.5l-7.3-7.3
					c-0.2-0.2-0.6-0.4-1-0.4c-0.4,0-0.7,0.2-1,0.4L70.9,99.7c-0.2,0.2-0.4,0.6-0.4,1c0,0.8,0.6,1.4,1.4,1.4c0.4,0,0.7-0.2,1-0.4
					l5.9-5.9v33.7c0,0.8,0.6,1.4,1.4,1.4h41.1c0.8,0,1.4-0.6,1.4-1.4V95.7l5.9,5.9c0.2,0.2,0.6,0.4,1,0.4c0.8,0,1.4-0.6,1.4-1.4
					C130.8,100.3,130.7,99.9,130.4,99.7z M111.6,76h5.5v10.4l-5.5-5.5V76z M92.4,128.1h-11v-2.7h11V128.1z M106.1,128.1h-11v-21.9
					h11V128.1z M119.9,128.1h-11v-2.7h11V128.1z M119.9,122.6h-11v-17.8c0-0.8-0.6-1.4-1.4-1.4H93.8c-0.8,0-1.4,0.6-1.4,1.4v17.8
					h-11V93l19.2-19.2L119.9,93V122.6z M102,119.9c0.8,0,1.4-0.6,1.4-1.4c0-0.8-0.6-1.4-1.4-1.4c-0.8,0-1.4,0.6-1.4,1.4
					C100.7,119.2,101.3,119.9,102,119.9z"/>
			</g>
		</g>
		<g>
			<g>
				<path class="st1" d="M129.9,99.2l-10.6-10.6V74.1c0-0.8-0.6-1.4-1.4-1.4h-8.2c-0.8,0-1.4,0.6-1.4,1.4v3.5l-7.3-7.3
					c-0.2-0.2-0.6-0.4-1-0.4c-0.4,0-0.7,0.2-1,0.4L70.4,99.2c-0.2,0.2-0.4,0.6-0.4,1c0,0.8,0.6,1.4,1.4,1.4c0.4,0,0.7-0.2,1-0.4
					l5.9-5.9v33.7c0,0.8,0.6,1.4,1.4,1.4h41.1c0.8,0,1.4-0.6,1.4-1.4V95.2l5.9,5.9c0.2,0.2,0.6,0.4,1,0.4c0.8,0,1.4-0.6,1.4-1.4
					C130.3,99.8,130.2,99.4,129.9,99.2z M111.1,75.5h5.5v10.4l-5.5-5.5V75.5z M91.9,127.6H81v-2.7h11V127.6z M105.6,127.6h-11v-21.9
					h11V127.6z M119.4,127.6h-11v-2.7h11V127.6z M119.4,122.1h-11v-17.8c0-0.8-0.6-1.4-1.4-1.4H93.3c-0.8,0-1.4,0.6-1.4,1.4v17.8H81
					V92.5l19.2-19.2l19.2,19.2V122.1z M101.5,119.4c0.8,0,1.4-0.6,1.4-1.4c0-0.8-0.6-1.4-1.4-1.4c-0.8,0-1.4,0.6-1.4,1.4
					C100.2,118.7,100.8,119.4,101.5,119.4z"/>
			</g>
		</g>
		<g>
			<g>
				<path class="st1" d="M129.4,98.7l-10.6-10.6V73.6c0-0.8-0.6-1.4-1.4-1.4h-8.2c-0.8,0-1.4,0.6-1.4,1.4v3.5l-7.3-7.3
					c-0.2-0.2-0.6-0.4-1-0.4c-0.4,0-0.7,0.2-1,0.4L69.9,98.7c-0.2,0.2-0.4,0.6-0.4,1c0,0.8,0.6,1.4,1.4,1.4c0.4,0,0.7-0.2,1-0.4
					l5.9-5.9v33.7c0,0.8,0.6,1.4,1.4,1.4h41.1c0.8,0,1.4-0.6,1.4-1.4V94.7l5.9,5.9c0.2,0.2,0.6,0.4,1,0.4c0.8,0,1.4-0.6,1.4-1.4
					C129.8,99.3,129.7,98.9,129.4,98.7z M110.6,75h5.5v10.4l-5.5-5.5V75z M91.4,127.1h-11v-2.7h11V127.1z M105.1,127.1h-11v-21.9h11
					V127.1z M118.9,127.1h-11v-2.7h11V127.1z M118.9,121.6h-11v-17.8c0-0.8-0.6-1.4-1.4-1.4H92.8c-0.8,0-1.4,0.6-1.4,1.4v17.8h-11
					V92l19.2-19.2L118.9,92V121.6z M101,118.9c0.8,0,1.4-0.6,1.4-1.4c0-0.8-0.6-1.4-1.4-1.4c-0.8,0-1.4,0.6-1.4,1.4
					C99.7,118.2,100.3,118.9,101,118.9z"/>
			</g>
		</g>
		<g>
			<g>
				<path class="st1" d="M128.9,98.2l-10.6-10.6V73.1c0-0.8-0.6-1.4-1.4-1.4h-8.2c-0.8,0-1.4,0.6-1.4,1.4v3.5l-7.3-7.3
					c-0.2-0.2-0.6-0.4-1-0.4c-0.4,0-0.7,0.2-1,0.4L69.4,98.2c-0.2,0.2-0.4,0.6-0.4,1c0,0.8,0.6,1.4,1.4,1.4c0.4,0,0.7-0.2,1-0.4
					l5.9-5.9v33.7c0,0.8,0.6,1.4,1.4,1.4h41.1c0.8,0,1.4-0.6,1.4-1.4V94.2l5.9,5.9c0.2,0.2,0.6,0.4,1,0.4c0.8,0,1.4-0.6,1.4-1.4
					C129.3,98.8,129.2,98.4,128.9,98.2z M110.1,74.5h5.5v10.4l-5.5-5.5V74.5z M90.9,126.6H80v-2.7h11V126.6z M104.6,126.6h-11v-21.9
					h11V126.6z M118.4,126.6h-11v-2.7h11V126.6z M118.4,121.1h-11v-17.8c0-0.8-0.6-1.4-1.4-1.4H92.3c-0.8,0-1.4,0.6-1.4,1.4v17.8H80
					V91.5l19.2-19.2l19.2,19.2V121.1z M100.5,118.4c0.8,0,1.4-0.6,1.4-1.4c0-0.8-0.6-1.4-1.4-1.4c-0.8,0-1.4,0.6-1.4,1.4
					C99.2,117.7,99.8,118.4,100.5,118.4z"/>
			</g>
		</g>
		<g>
			<g>
				<path class="st1" d="M128.4,97.7l-10.6-10.6V72.6c0-0.8-0.6-1.4-1.4-1.4h-8.2c-0.8,0-1.4,0.6-1.4,1.4v3.5l-7.3-7.3
					c-0.2-0.2-0.6-0.4-1-0.4c-0.4,0-0.7,0.2-1,0.4L68.9,97.7c-0.2,0.2-0.4,0.6-0.4,1c0,0.8,0.6,1.4,1.4,1.4c0.4,0,0.7-0.2,1-0.4
					l5.9-5.9v33.7c0,0.8,0.6,1.4,1.4,1.4h41.1c0.8,0,1.4-0.6,1.4-1.4V93.7l5.9,5.9c0.2,0.2,0.6,0.4,1,0.4c0.8,0,1.4-0.6,1.4-1.4
					C128.8,98.3,128.7,97.9,128.4,97.7z M109.6,74h5.5v10.4l-5.5-5.5V74z M90.4,126.1h-11v-2.7h11V126.1z M104.1,126.1h-11v-21.9h11
					V126.1z M117.9,126.1h-11v-2.7h11V126.1z M117.9,120.6h-11v-17.8c0-0.8-0.6-1.4-1.4-1.4H91.8c-0.8,0-1.4,0.6-1.4,1.4v17.8h-11
					V91l19.2-19.2L117.9,91V120.6z M100,117.9c0.8,0,1.4-0.6,1.4-1.4c0-0.8-0.6-1.4-1.4-1.4c-0.8,0-1.4,0.6-1.4,1.4
					C98.7,117.2,99.3,117.9,100,117.9z"/>
			</g>
		</g>
		<g>
			<g>
				<path class="st1" d="M127.9,97.2l-10.6-10.6V72.1c0-0.8-0.6-1.4-1.4-1.4h-8.2c-0.8,0-1.4,0.6-1.4,1.4v3.5l-7.3-7.3
					c-0.2-0.2-0.6-0.4-1-0.4c-0.4,0-0.7,0.2-1,0.4L68.4,97.2c-0.2,0.2-0.4,0.6-0.4,1c0,0.8,0.6,1.4,1.4,1.4c0.4,0,0.7-0.2,1-0.4
					l5.9-5.9v33.7c0,0.8,0.6,1.4,1.4,1.4h41.1c0.8,0,1.4-0.6,1.4-1.4V93.2l5.9,5.9c0.2,0.2,0.6,0.4,1,0.4c0.8,0,1.4-0.6,1.4-1.4
					C128.3,97.8,128.2,97.4,127.9,97.2z M109.1,73.5h5.5v10.4l-5.5-5.5V73.5z M89.9,125.6H79v-2.7h11V125.6z M103.6,125.6h-11v-21.9
					h11V125.6z M117.4,125.6h-11v-2.7h11V125.6z M117.4,120.1h-11v-17.8c0-0.8-0.6-1.4-1.4-1.4H91.3c-0.8,0-1.4,0.6-1.4,1.4v17.8H79
					V90.5l19.2-19.2l19.2,19.2V120.1z M99.5,117.4c0.8,0,1.4-0.6,1.4-1.4c0-0.8-0.6-1.4-1.4-1.4c-0.8,0-1.4,0.6-1.4,1.4
					C98.2,116.7,98.8,117.4,99.5,117.4z"/>
			</g>
		</g>
		<g>
			<g>
				<path class="st1" d="M127.4,96.7l-10.6-10.6V71.6c0-0.8-0.6-1.4-1.4-1.4h-8.2c-0.8,0-1.4,0.6-1.4,1.4v3.5l-7.3-7.3
					c-0.2-0.2-0.6-0.4-1-0.4c-0.4,0-0.7,0.2-1,0.4L67.9,96.7c-0.2,0.2-0.4,0.6-0.4,1c0,0.8,0.6,1.4,1.4,1.4c0.4,0,0.7-0.2,1-0.4
					l5.9-5.9v33.7c0,0.8,0.6,1.4,1.4,1.4h41.1c0.8,0,1.4-0.6,1.4-1.4V92.7l5.9,5.9c0.2,0.2,0.6,0.4,1,0.4c0.8,0,1.4-0.6,1.4-1.4
					C127.8,97.3,127.7,96.9,127.4,96.7z M108.6,73h5.5v10.4l-5.5-5.5V73z M89.4,125.1h-11v-2.7h11V125.1z M103.1,125.1h-11v-21.9h11
					V125.1z M116.9,125.1h-11v-2.7h11V125.1z M116.9,119.6h-11v-17.8c0-0.8-0.6-1.4-1.4-1.4H90.8c-0.8,0-1.4,0.6-1.4,1.4v17.8h-11
					V90l19.2-19.2L116.9,90V119.6z M99,116.9c0.8,0,1.4-0.6,1.4-1.4c0-0.8-0.6-1.4-1.4-1.4c-0.8,0-1.4,0.6-1.4,1.4
					C97.7,116.2,98.3,116.9,99,116.9z"/>
			</g>
		</g>
		<g>
			<g>
				<path class="st1" d="M126.9,96.2l-10.6-10.6V71.1c0-0.8-0.6-1.4-1.4-1.4h-8.2c-0.8,0-1.4,0.6-1.4,1.4v3.5l-7.3-7.3
					c-0.2-0.2-0.6-0.4-1-0.4c-0.4,0-0.7,0.2-1,0.4L67.4,96.2c-0.2,0.2-0.4,0.6-0.4,1c0,0.8,0.6,1.4,1.4,1.4c0.4,0,0.7-0.2,1-0.4
					l5.9-5.9v33.7c0,0.8,0.6,1.4,1.4,1.4h41.1c0.8,0,1.4-0.6,1.4-1.4V92.2l5.9,5.9c0.2,0.2,0.6,0.4,1,0.4c0.8,0,1.4-0.6,1.4-1.4
					C127.3,96.8,127.2,96.4,126.9,96.2z M108.1,72.5h5.5v10.4l-5.5-5.5V72.5z M88.9,124.6H78v-2.7h11V124.6z M102.6,124.6h-11v-21.9
					h11V124.6z M116.4,124.6h-11v-2.7h11V124.6z M116.4,119.1h-11v-17.8c0-0.8-0.6-1.4-1.4-1.4H90.3c-0.8,0-1.4,0.6-1.4,1.4v17.8H78
					V89.5l19.2-19.2l19.2,19.2V119.1z M98.5,116.4c0.8,0,1.4-0.6,1.4-1.4c0-0.8-0.6-1.4-1.4-1.4c-0.8,0-1.4,0.6-1.4,1.4
					C97.2,115.7,97.8,116.4,98.5,116.4z"/>
			</g>
		</g>
		<g>
			<g>
				<path class="st1" d="M126.4,95.7l-10.6-10.6V70.6c0-0.8-0.6-1.4-1.4-1.4h-8.2c-0.8,0-1.4,0.6-1.4,1.4v3.5l-7.3-7.3
					c-0.2-0.2-0.6-0.4-1-0.4c-0.4,0-0.7,0.2-1,0.4L66.9,95.7c-0.2,0.2-0.4,0.6-0.4,1c0,0.8,0.6,1.4,1.4,1.4c0.4,0,0.7-0.2,1-0.4
					l5.9-5.9v33.7c0,0.8,0.6,1.4,1.4,1.4h41.1c0.8,0,1.4-0.6,1.4-1.4V91.7l5.9,5.9c0.2,0.2,0.6,0.4,1,0.4c0.8,0,1.4-0.6,1.4-1.4
					C126.8,96.3,126.7,95.9,126.4,95.7z M107.6,72h5.5v10.4l-5.5-5.5V72z M88.4,124.1h-11v-2.7h11V124.1z M102.1,124.1h-11v-21.9h11
					V124.1z M115.9,124.1h-11v-2.7h11V124.1z M115.9,118.6h-11v-17.8c0-0.8-0.6-1.4-1.4-1.4H89.8c-0.8,0-1.4,0.6-1.4,1.4v17.8h-11
					V89l19.2-19.2L115.9,89V118.6z M98,115.9c0.8,0,1.4-0.6,1.4-1.4c0-0.8-0.6-1.4-1.4-1.4c-0.8,0-1.4,0.6-1.4,1.4
					C96.7,115.2,97.3,115.9,98,115.9z"/>
			</g>
		</g>
		<g>
			<g>
				<path class="st1" d="M125.9,95.2l-10.6-10.6V70.1c0-0.8-0.6-1.4-1.4-1.4h-8.2c-0.8,0-1.4,0.6-1.4,1.4v3.5l-7.3-7.3
					c-0.2-0.2-0.6-0.4-1-0.4c-0.4,0-0.7,0.2-1,0.4L66.4,95.2c-0.2,0.2-0.4,0.6-0.4,1c0,0.8,0.6,1.4,1.4,1.4c0.4,0,0.7-0.2,1-0.4
					l5.9-5.9v33.7c0,0.8,0.6,1.4,1.4,1.4h41.1c0.8,0,1.4-0.6,1.4-1.4V91.2l5.9,5.9c0.2,0.2,0.6,0.4,1,0.4c0.8,0,1.4-0.6,1.4-1.4
					C126.3,95.8,126.2,95.4,125.9,95.2z M107.1,71.5h5.5v10.4l-5.5-5.5V71.5z M87.9,123.6H77v-2.7h11V123.6z M101.6,123.6h-11v-21.9
					h11V123.6z M115.4,123.6h-11v-2.7h11V123.6z M115.4,118.1h-11v-17.8c0-0.8-0.6-1.4-1.4-1.4H89.3c-0.8,0-1.4,0.6-1.4,1.4v17.8H77
					V88.5l19.2-19.2l19.2,19.2V118.1z M97.5,115.4c0.8,0,1.4-0.6,1.4-1.4c0-0.8-0.6-1.4-1.4-1.4c-0.8,0-1.4,0.6-1.4,1.4
					C96.2,114.7,96.8,115.4,97.5,115.4z"/>
			</g>
		</g>
		<g>
			<g>
				<path class="st1" d="M125.4,94.7l-10.6-10.6V69.6c0-0.8-0.6-1.4-1.4-1.4h-8.2c-0.8,0-1.4,0.6-1.4,1.4v3.5l-7.3-7.3
					c-0.2-0.2-0.6-0.4-1-0.4c-0.4,0-0.7,0.2-1,0.4L65.9,94.7c-0.2,0.2-0.4,0.6-0.4,1c0,0.8,0.6,1.4,1.4,1.4c0.4,0,0.7-0.2,1-0.4
					l5.9-5.9v33.7c0,0.8,0.6,1.4,1.4,1.4h41.1c0.8,0,1.4-0.6,1.4-1.4V90.7l5.9,5.9c0.2,0.2,0.6,0.4,1,0.4c0.8,0,1.4-0.6,1.4-1.4
					C125.8,95.3,125.7,94.9,125.4,94.7z M106.6,71h5.5v10.4l-5.5-5.5V71z M87.4,123.1h-11v-2.7h11V123.1z M101.1,123.1h-11v-21.9h11
					V123.1z M114.9,123.1h-11v-2.7h11V123.1z M114.9,117.6h-11V99.8c0-0.8-0.6-1.4-1.4-1.4H88.8c-0.8,0-1.4,0.6-1.4,1.4v17.8h-11V88
					l19.2-19.2L114.9,88V117.6z M97,114.9c0.8,0,1.4-0.6,1.4-1.4c0-0.8-0.6-1.4-1.4-1.4c-0.8,0-1.4,0.6-1.4,1.4
					C95.7,114.2,96.3,114.9,97,114.9z"/>
			</g>
		</g>
		<g>
			<g>
				<path class="st1" d="M124.9,94.2l-10.6-10.6V69.1c0-0.8-0.6-1.4-1.4-1.4h-8.2c-0.8,0-1.4,0.6-1.4,1.4v3.5l-7.3-7.3
					c-0.2-0.2-0.6-0.4-1-0.4c-0.4,0-0.7,0.2-1,0.4L65.4,94.2c-0.2,0.2-0.4,0.6-0.4,1c0,0.8,0.6,1.4,1.4,1.4c0.4,0,0.7-0.2,1-0.4
					l5.9-5.9v33.7c0,0.8,0.6,1.4,1.4,1.4h41.1c0.8,0,1.4-0.6,1.4-1.4V90.2l5.9,5.9c0.2,0.2,0.6,0.4,1,0.4c0.8,0,1.4-0.6,1.4-1.4
					C125.3,94.8,125.2,94.4,124.9,94.2z M106.1,70.5h5.5v10.4l-5.5-5.5V70.5z M86.9,122.6H76v-2.7h11V122.6z M100.6,122.6h-11v-21.9
					h11V122.6z M114.4,122.6h-11v-2.7h11V122.6z M114.4,117.1h-11V99.3c0-0.8-0.6-1.4-1.4-1.4H88.3c-0.8,0-1.4,0.6-1.4,1.4v17.8H76
					V87.5l19.2-19.2l19.2,19.2V117.1z M96.5,114.4c0.8,0,1.4-0.6,1.4-1.4c0-0.8-0.6-1.4-1.4-1.4c-0.8,0-1.4,0.6-1.4,1.4
					C95.2,113.7,95.8,114.4,96.5,114.4z"/>
			</g>
		</g>
		<g>
			<g>
				<path class="st1" d="M124.4,93.7l-10.6-10.6V68.6c0-0.8-0.6-1.4-1.4-1.4h-8.2c-0.8,0-1.4,0.6-1.4,1.4v3.5l-7.3-7.3
					c-0.2-0.2-0.6-0.4-1-0.4c-0.4,0-0.7,0.2-1,0.4L64.9,93.7c-0.2,0.2-0.4,0.6-0.4,1c0,0.8,0.6,1.4,1.4,1.4c0.4,0,0.7-0.2,1-0.4
					l5.9-5.9v33.7c0,0.8,0.6,1.4,1.4,1.4h41.1c0.8,0,1.4-0.6,1.4-1.4V89.7l5.9,5.9c0.2,0.2,0.6,0.4,1,0.4c0.8,0,1.4-0.6,1.4-1.4
					C124.8,94.3,124.7,93.9,124.4,93.7z M105.6,70h5.5v10.4l-5.5-5.5V70z M86.4,122.1h-11v-2.7h11V122.1z M100.1,122.1h-11v-21.9h11
					V122.1z M113.9,122.1h-11v-2.7h11V122.1z M113.9,116.6h-11V98.8c0-0.8-0.6-1.4-1.4-1.4H87.8c-0.8,0-1.4,0.6-1.4,1.4v17.8h-11V87
					l19.2-19.2L113.9,87V116.6z M96,113.9c0.8,0,1.4-0.6,1.4-1.4c0-0.8-0.6-1.4-1.4-1.4c-0.8,0-1.4,0.6-1.4,1.4
					C94.7,113.2,95.3,113.9,96,113.9z"/>
			</g>
		</g>
		<g>
			<g>
				<path class="st1" d="M123.9,93.2l-10.6-10.6V68.1c0-0.8-0.6-1.4-1.4-1.4h-8.2c-0.8,0-1.4,0.6-1.4,1.4v3.5l-7.3-7.3
					c-0.2-0.2-0.6-0.4-1-0.4c-0.4,0-0.7,0.2-1,0.4L64.4,93.2c-0.2,0.2-0.4,0.6-0.4,1c0,0.8,0.6,1.4,1.4,1.4c0.4,0,0.7-0.2,1-0.4
					l5.9-5.9v33.7c0,0.8,0.6,1.4,1.4,1.4h41.1c0.8,0,1.4-0.6,1.4-1.4V89.2l5.9,5.9c0.2,0.2,0.6,0.4,1,0.4c0.8,0,1.4-0.6,1.4-1.4
					C124.3,93.8,124.2,93.4,123.9,93.2z M105.1,69.5h5.5v10.4l-5.5-5.5V69.5z M85.9,121.6H75v-2.7h11V121.6z M99.6,121.6h-11V99.6
					h11V121.6z M113.4,121.6h-11v-2.7h11V121.6z M113.4,116.1h-11V98.3c0-0.8-0.6-1.4-1.4-1.4H87.3c-0.8,0-1.4,0.6-1.4,1.4v17.8H75
					V86.5l19.2-19.2l19.2,19.2V116.1z M95.5,113.4c0.8,0,1.4-0.6,1.4-1.4c0-0.8-0.6-1.4-1.4-1.4c-0.8,0-1.4,0.6-1.4,1.4
					C94.2,112.7,94.8,113.4,95.5,113.4z"/>
			</g>
		</g>
		<g>
			<g>
				<path class="st1" d="M123.4,92.7l-10.6-10.6V67.6c0-0.8-0.6-1.4-1.4-1.4h-8.2c-0.8,0-1.4,0.6-1.4,1.4v3.5l-7.3-7.3
					c-0.2-0.2-0.6-0.4-1-0.4c-0.4,0-0.7,0.2-1,0.4L63.9,92.7c-0.2,0.2-0.4,0.6-0.4,1c0,0.8,0.6,1.4,1.4,1.4c0.4,0,0.7-0.2,1-0.4
					l5.9-5.9v33.7c0,0.8,0.6,1.4,1.4,1.4h41.1c0.8,0,1.4-0.6,1.4-1.4V88.7l5.9,5.9c0.2,0.2,0.6,0.4,1,0.4c0.8,0,1.4-0.6,1.4-1.4
					C123.8,93.3,123.7,92.9,123.4,92.7z M104.6,69h5.5v10.4l-5.5-5.5V69z M85.4,121.1h-11v-2.7h11V121.1z M99.1,121.1h-11V99.1h11
					V121.1z M112.9,121.1h-11v-2.7h11V121.1z M112.9,115.6h-11V97.8c0-0.8-0.6-1.4-1.4-1.4H86.8c-0.8,0-1.4,0.6-1.4,1.4v17.8h-11V86
					l19.2-19.2L112.9,86V115.6z M95,112.9c0.8,0,1.4-0.6,1.4-1.4c0-0.8-0.6-1.4-1.4-1.4c-0.8,0-1.4,0.6-1.4,1.4
					C93.7,112.2,94.3,112.9,95,112.9z"/>
			</g>
		</g>
		<g>
			<g>
				<path class="st1" d="M122.9,92.2l-10.6-10.6V67.1c0-0.8-0.6-1.4-1.4-1.4h-8.2c-0.8,0-1.4,0.6-1.4,1.4v3.5l-7.3-7.3
					c-0.2-0.2-0.6-0.4-1-0.4c-0.4,0-0.7,0.2-1,0.4L63.4,92.2c-0.2,0.2-0.4,0.6-0.4,1c0,0.8,0.6,1.4,1.4,1.4c0.4,0,0.7-0.2,1-0.4
					l5.9-5.9v33.7c0,0.8,0.6,1.4,1.4,1.4h41.1c0.8,0,1.4-0.6,1.4-1.4V88.2l5.9,5.9c0.2,0.2,0.6,0.4,1,0.4c0.8,0,1.4-0.6,1.4-1.4
					C123.3,92.8,123.2,92.4,122.9,92.2z M104.1,68.5h5.5v10.4l-5.5-5.5V68.5z M84.9,120.6H74v-2.7h11V120.6z M98.6,120.6h-11V98.6
					h11V120.6z M112.4,120.6h-11v-2.7h11V120.6z M112.4,115.1h-11V97.3c0-0.8-0.6-1.4-1.4-1.4H86.3c-0.8,0-1.4,0.6-1.4,1.4v17.8H74
					V85.5l19.2-19.2l19.2,19.2V115.1z M94.5,112.4c0.8,0,1.4-0.6,1.4-1.4c0-0.8-0.6-1.4-1.4-1.4c-0.8,0-1.4,0.6-1.4,1.4
					C93.2,111.7,93.8,112.4,94.5,112.4z"/>
			</g>
		</g>
		<g>
			<g>
				<path class="st1" d="M122.4,91.7l-10.6-10.6V66.6c0-0.8-0.6-1.4-1.4-1.4h-8.2c-0.8,0-1.4,0.6-1.4,1.4v3.5l-7.3-7.3
					c-0.2-0.2-0.6-0.4-1-0.4c-0.4,0-0.7,0.2-1,0.4L62.9,91.7c-0.2,0.2-0.4,0.6-0.4,1c0,0.8,0.6,1.4,1.4,1.4c0.4,0,0.7-0.2,1-0.4
					l5.9-5.9v33.7c0,0.8,0.6,1.4,1.4,1.4h41.1c0.8,0,1.4-0.6,1.4-1.4V87.7l5.9,5.9c0.2,0.2,0.6,0.4,1,0.4c0.8,0,1.4-0.6,1.4-1.4
					C122.8,92.3,122.7,91.9,122.4,91.7z M103.6,68h5.5v10.4l-5.5-5.5V68z M84.4,120.1h-11v-2.7h11V120.1z M98.1,120.1h-11V98.1h11
					V120.1z M111.9,120.1h-11v-2.7h11V120.1z M111.9,114.6h-11V96.8c0-0.8-0.6-1.4-1.4-1.4H85.8c-0.8,0-1.4,0.6-1.4,1.4v17.8h-11V85
					l19.2-19.2L111.9,85V114.6z M94,111.9c0.8,0,1.4-0.6,1.4-1.4c0-0.8-0.6-1.4-1.4-1.4c-0.8,0-1.4,0.6-1.4,1.4
					C92.7,111.2,93.3,111.9,94,111.9z"/>
			</g>
		</g>
		<g>
			<g>
				<path class="st1" d="M121.9,91.2l-10.6-10.6V66.1c0-0.8-0.6-1.4-1.4-1.4h-8.2c-0.8,0-1.4,0.6-1.4,1.4v3.5l-7.3-7.3
					c-0.2-0.2-0.6-0.4-1-0.4c-0.4,0-0.7,0.2-1,0.4L62.4,91.2c-0.2,0.2-0.4,0.6-0.4,1c0,0.8,0.6,1.4,1.4,1.4c0.4,0,0.7-0.2,1-0.4
					l5.9-5.9v33.7c0,0.8,0.6,1.4,1.4,1.4h41.1c0.8,0,1.4-0.6,1.4-1.4V87.2l5.9,5.9c0.2,0.2,0.6,0.4,1,0.4c0.8,0,1.4-0.6,1.4-1.4
					C122.3,91.8,122.2,91.4,121.9,91.2z M103.1,67.5h5.5v10.4l-5.5-5.5V67.5z M83.9,119.6H73v-2.7h11V119.6z M97.6,119.6h-11V97.6
					h11V119.6z M111.4,119.6h-11v-2.7h11V119.6z M111.4,114.1h-11V96.3c0-0.8-0.6-1.4-1.4-1.4H85.3c-0.8,0-1.4,0.6-1.4,1.4v17.8H73
					V84.5l19.2-19.2l19.2,19.2V114.1z M93.5,111.4c0.8,0,1.4-0.6,1.4-1.4c0-0.8-0.6-1.4-1.4-1.4c-0.8,0-1.4,0.6-1.4,1.4
					C92.2,110.7,92.8,111.4,93.5,111.4z"/>
			</g>
		</g>
		<g>
			<g>
				<path class="st1" d="M121.4,90.7l-10.6-10.6V65.6c0-0.8-0.6-1.4-1.4-1.4h-8.2c-0.8,0-1.4,0.6-1.4,1.4v3.5l-7.3-7.3
					c-0.2-0.2-0.6-0.4-1-0.4c-0.4,0-0.7,0.2-1,0.4L61.9,90.7c-0.2,0.2-0.4,0.6-0.4,1c0,0.8,0.6,1.4,1.4,1.4c0.4,0,0.7-0.2,1-0.4
					l5.9-5.9v33.7c0,0.8,0.6,1.4,1.4,1.4h41.1c0.8,0,1.4-0.6,1.4-1.4V86.7l5.9,5.9c0.2,0.2,0.6,0.4,1,0.4c0.8,0,1.4-0.6,1.4-1.4
					C121.8,91.3,121.7,90.9,121.4,90.7z M102.6,67h5.5v10.4l-5.5-5.5V67z M83.4,119.1h-11v-2.7h11V119.1z M97.1,119.1h-11V97.1h11
					V119.1z M110.9,119.1h-11v-2.7h11V119.1z M110.9,113.6h-11V95.8c0-0.8-0.6-1.4-1.4-1.4H84.8c-0.8,0-1.4,0.6-1.4,1.4v17.8h-11V84
					l19.2-19.2L110.9,84V113.6z M93,110.9c0.8,0,1.4-0.6,1.4-1.4c0-0.8-0.6-1.4-1.4-1.4c-0.8,0-1.4,0.6-1.4,1.4
					C91.7,110.2,92.3,110.9,93,110.9z"/>
			</g>
		</g>
		<g>
			<g>
				<path class="st1" d="M120.9,90.2l-10.6-10.6V65.1c0-0.8-0.6-1.4-1.4-1.4h-8.2c-0.8,0-1.4,0.6-1.4,1.4v3.5l-7.3-7.3
					c-0.2-0.2-0.6-0.4-1-0.4c-0.4,0-0.7,0.2-1,0.4L61.4,90.2c-0.2,0.2-0.4,0.6-0.4,1c0,0.8,0.6,1.4,1.4,1.4c0.4,0,0.7-0.2,1-0.4
					l5.9-5.9v33.7c0,0.8,0.6,1.4,1.4,1.4h41.1c0.8,0,1.4-0.6,1.4-1.4V86.2l5.9,5.9c0.2,0.2,0.6,0.4,1,0.4c0.8,0,1.4-0.6,1.4-1.4
					C121.3,90.8,121.2,90.4,120.9,90.2z M102.1,66.5h5.5v10.4l-5.5-5.5V66.5z M82.9,118.6H72v-2.7h11V118.6z M96.6,118.6h-11V96.6
					h11V118.6z M110.4,118.6h-11v-2.7h11V118.6z M110.4,113.1h-11V95.3c0-0.8-0.6-1.4-1.4-1.4H84.3c-0.8,0-1.4,0.6-1.4,1.4v17.8H72
					V83.5l19.2-19.2l19.2,19.2V113.1z M92.5,110.4c0.8,0,1.4-0.6,1.4-1.4c0-0.8-0.6-1.4-1.4-1.4c-0.8,0-1.4,0.6-1.4,1.4
					C91.2,109.7,91.8,110.4,92.5,110.4z"/>
			</g>
		</g>
		<g>
			<g>
				<path class="st1" d="M120.4,89.7l-10.6-10.6V64.6c0-0.8-0.6-1.4-1.4-1.4h-8.2c-0.8,0-1.4,0.6-1.4,1.4v3.5l-7.3-7.3
					c-0.2-0.2-0.6-0.4-1-0.4c-0.4,0-0.7,0.2-1,0.4L60.9,89.7c-0.2,0.2-0.4,0.6-0.4,1c0,0.8,0.6,1.4,1.4,1.4c0.4,0,0.7-0.2,1-0.4
					l5.9-5.9v33.7c0,0.8,0.6,1.4,1.4,1.4h41.1c0.8,0,1.4-0.6,1.4-1.4V85.7l5.9,5.9c0.2,0.2,0.6,0.4,1,0.4c0.8,0,1.4-0.6,1.4-1.4
					C120.8,90.3,120.7,89.9,120.4,89.7z M101.6,66h5.5v10.4l-5.5-5.5V66z M82.4,118.1h-11v-2.7h11V118.1z M96.1,118.1h-11V96.1h11
					V118.1z M109.9,118.1h-11v-2.7h11V118.1z M109.9,112.6h-11V94.8c0-0.8-0.6-1.4-1.4-1.4H83.8c-0.8,0-1.4,0.6-1.4,1.4v17.8h-11V83
					l19.2-19.2L109.9,83V112.6z M92,109.9c0.8,0,1.4-0.6,1.4-1.4c0-0.8-0.6-1.4-1.4-1.4c-0.8,0-1.4,0.6-1.4,1.4
					C90.7,109.2,91.3,109.9,92,109.9z"/>
			</g>
		</g>
		<g>
			<g>
				<path class="st1" d="M119.9,89.2l-10.6-10.6V64.1c0-0.8-0.6-1.4-1.4-1.4h-8.2c-0.8,0-1.4,0.6-1.4,1.4v3.5l-7.3-7.3
					c-0.2-0.2-0.6-0.4-1-0.4c-0.4,0-0.7,0.2-1,0.4L60.4,89.2c-0.2,0.2-0.4,0.6-0.4,1c0,0.8,0.6,1.4,1.4,1.4c0.4,0,0.7-0.2,1-0.4
					l5.9-5.9v33.7c0,0.8,0.6,1.4,1.4,1.4h41.1c0.8,0,1.4-0.6,1.4-1.4V85.2l5.9,5.9c0.2,0.2,0.6,0.4,1,0.4c0.8,0,1.4-0.6,1.4-1.4
					C120.3,89.8,120.2,89.4,119.9,89.2z M101.1,65.5h5.5v10.4l-5.5-5.5V65.5z M81.9,117.6H71v-2.7h11V117.6z M95.6,117.6h-11V95.6
					h11V117.6z M109.4,117.6h-11v-2.7h11V117.6z M109.4,112.1h-11V94.3c0-0.8-0.6-1.4-1.4-1.4H83.3c-0.8,0-1.4,0.6-1.4,1.4v17.8H71
					V82.5l19.2-19.2l19.2,19.2V112.1z M91.5,109.4c0.8,0,1.4-0.6,1.4-1.4c0-0.8-0.6-1.4-1.4-1.4c-0.8,0-1.4,0.6-1.4,1.4
					C90.2,108.7,90.8,109.4,91.5,109.4z"/>
			</g>
		</g>
		<g>
			<g>
				<path class="st1" d="M119.4,88.7l-10.6-10.6V63.6c0-0.8-0.6-1.4-1.4-1.4h-8.2c-0.8,0-1.4,0.6-1.4,1.4v3.5l-7.3-7.3
					c-0.2-0.2-0.6-0.4-1-0.4c-0.4,0-0.7,0.2-1,0.4L59.9,88.7c-0.2,0.2-0.4,0.6-0.4,1c0,0.8,0.6,1.4,1.4,1.4c0.4,0,0.7-0.2,1-0.4
					l5.9-5.9v33.7c0,0.8,0.6,1.4,1.4,1.4h41.1c0.8,0,1.4-0.6,1.4-1.4V84.7l5.9,5.9c0.2,0.2,0.6,0.4,1,0.4c0.8,0,1.4-0.6,1.4-1.4
					C119.8,89.3,119.7,88.9,119.4,88.7z M100.6,65h5.5v10.4l-5.5-5.5V65z M81.4,117.1h-11v-2.7h11V117.1z M95.1,117.1h-11V95.1h11
					V117.1z M108.9,117.1h-11v-2.7h11V117.1z M108.9,111.6h-11V93.8c0-0.8-0.6-1.4-1.4-1.4H82.8c-0.8,0-1.4,0.6-1.4,1.4v17.8h-11V82
					l19.2-19.2L108.9,82V111.6z M91,108.9c0.8,0,1.4-0.6,1.4-1.4c0-0.8-0.6-1.4-1.4-1.4c-0.8,0-1.4,0.6-1.4,1.4
					C89.7,108.2,90.3,108.9,91,108.9z"/>
			</g>
		</g>
		<g>
			<g>
				<path class="st1" d="M118.9,88.2l-10.6-10.6V63.1c0-0.8-0.6-1.4-1.4-1.4h-8.2c-0.8,0-1.4,0.6-1.4,1.4v3.5l-7.3-7.3
					c-0.2-0.2-0.6-0.4-1-0.4c-0.4,0-0.7,0.2-1,0.4L59.4,88.2c-0.2,0.2-0.4,0.6-0.4,1c0,0.8,0.6,1.4,1.4,1.4c0.4,0,0.7-0.2,1-0.4
					l5.9-5.9v33.7c0,0.8,0.6,1.4,1.4,1.4h41.1c0.8,0,1.4-0.6,1.4-1.4V84.2l5.9,5.9c0.2,0.2,0.6,0.4,1,0.4c0.8,0,1.4-0.6,1.4-1.4
					C119.3,88.8,119.2,88.4,118.9,88.2z M100.1,64.5h5.5v10.4l-5.5-5.5V64.5z M80.9,116.6H70v-2.7h11V116.6z M94.6,116.6h-11V94.6
					h11V116.6z M108.4,116.6h-11v-2.7h11V116.6z M108.4,111.1h-11V93.3c0-0.8-0.6-1.4-1.4-1.4H82.3c-0.8,0-1.4,0.6-1.4,1.4v17.8H70
					V81.5l19.2-19.2l19.2,19.2V111.1z M90.5,108.4c0.8,0,1.4-0.6,1.4-1.4c0-0.8-0.6-1.4-1.4-1.4c-0.8,0-1.4,0.6-1.4,1.4
					C89.2,107.7,89.8,108.4,90.5,108.4z"/>
			</g>
		</g>
		<g>
			<g>
				<path class="st1" d="M118.4,87.7l-10.6-10.6V62.6c0-0.8-0.6-1.4-1.4-1.4h-8.2c-0.8,0-1.4,0.6-1.4,1.4v3.5l-7.3-7.3
					c-0.2-0.2-0.6-0.4-1-0.4c-0.4,0-0.7,0.2-1,0.4L58.9,87.7c-0.2,0.2-0.4,0.6-0.4,1c0,0.8,0.6,1.4,1.4,1.4c0.4,0,0.7-0.2,1-0.4
					l5.9-5.9v33.7c0,0.8,0.6,1.4,1.4,1.4h41.1c0.8,0,1.4-0.6,1.4-1.4V83.7l5.9,5.9c0.2,0.2,0.6,0.4,1,0.4c0.8,0,1.4-0.6,1.4-1.4
					C118.8,88.3,118.7,87.9,118.4,87.7z M99.6,64h5.5v10.4l-5.5-5.5V64z M80.4,116.1h-11v-2.7h11V116.1z M94.1,116.1h-11V94.1h11
					V116.1z M107.9,116.1h-11v-2.7h11V116.1z M107.9,110.6h-11V92.8c0-0.8-0.6-1.4-1.4-1.4H81.8c-0.8,0-1.4,0.6-1.4,1.4v17.8h-11V81
					l19.2-19.2L107.9,81V110.6z M90,107.9c0.8,0,1.4-0.6,1.4-1.4c0-0.8-0.6-1.4-1.4-1.4c-0.8,0-1.4,0.6-1.4,1.4
					C88.7,107.2,89.3,107.9,90,107.9z"/>
			</g>
		</g>
		<g>
			<g>
				<path class="st1" d="M117.9,87.2l-10.6-10.6V62.1c0-0.8-0.6-1.4-1.4-1.4h-8.2c-0.8,0-1.4,0.6-1.4,1.4v3.5l-7.3-7.3
					c-0.2-0.2-0.6-0.4-1-0.4c-0.4,0-0.7,0.2-1,0.4L58.4,87.2c-0.2,0.2-0.4,0.6-0.4,1c0,0.8,0.6,1.4,1.4,1.4c0.4,0,0.7-0.2,1-0.4
					l5.9-5.9v33.7c0,0.8,0.6,1.4,1.4,1.4h41.1c0.8,0,1.4-0.6,1.4-1.4V83.2l5.9,5.9c0.2,0.2,0.6,0.4,1,0.4c0.8,0,1.4-0.6,1.4-1.4
					C118.3,87.8,118.2,87.4,117.9,87.2z M99.1,63.5h5.5v10.4l-5.5-5.5V63.5z M79.9,115.6H69v-2.7h11V115.6z M93.6,115.6h-11V93.6h11
					V115.6z M107.4,115.6h-11v-2.7h11V115.6z M107.4,110.1h-11V92.3c0-0.8-0.6-1.4-1.4-1.4H81.3c-0.8,0-1.4,0.6-1.4,1.4v17.8H69
					V80.5l19.2-19.2l19.2,19.2V110.1z M89.5,107.4c0.8,0,1.4-0.6,1.4-1.4c0-0.8-0.6-1.4-1.4-1.4c-0.8,0-1.4,0.6-1.4,1.4
					C88.2,106.7,88.8,107.4,89.5,107.4z"/>
			</g>
		</g>
		<g>
			<g>
				<path class="st1" d="M117.4,86.7l-10.6-10.6V61.6c0-0.8-0.6-1.4-1.4-1.4h-8.2c-0.8,0-1.4,0.6-1.4,1.4v3.5l-7.3-7.3
					c-0.2-0.2-0.6-0.4-1-0.4c-0.4,0-0.7,0.2-1,0.4L57.9,86.7c-0.2,0.2-0.4,0.6-0.4,1c0,0.8,0.6,1.4,1.4,1.4c0.4,0,0.7-0.2,1-0.4
					l5.9-5.9v33.7c0,0.8,0.6,1.4,1.4,1.4h41.1c0.8,0,1.4-0.6,1.4-1.4V82.7l5.9,5.9c0.2,0.2,0.6,0.4,1,0.4c0.8,0,1.4-0.6,1.4-1.4
					C117.8,87.3,117.7,86.9,117.4,86.7z M98.6,63h5.5v10.4l-5.5-5.5V63z M79.4,115.1h-11v-2.7h11V115.1z M93.1,115.1h-11V93.1h11
					V115.1z M106.9,115.1h-11v-2.7h11V115.1z M106.9,109.6h-11V91.8c0-0.8-0.6-1.4-1.4-1.4H80.8c-0.8,0-1.4,0.6-1.4,1.4v17.8h-11V80
					l19.2-19.2L106.9,80V109.6z M89,106.9c0.8,0,1.4-0.6,1.4-1.4c0-0.8-0.6-1.4-1.4-1.4c-0.8,0-1.4,0.6-1.4,1.4
					C87.7,106.2,88.3,106.9,89,106.9z"/>
			</g>
		</g>
		<g>
			<g>
				<path class="st1" d="M116.9,86.2l-10.6-10.6V61.1c0-0.8-0.6-1.4-1.4-1.4h-8.2c-0.8,0-1.4,0.6-1.4,1.4v3.5l-7.3-7.3
					c-0.2-0.2-0.6-0.4-1-0.4c-0.4,0-0.7,0.2-1,0.4L57.4,86.2c-0.2,0.2-0.4,0.6-0.4,1c0,0.8,0.6,1.4,1.4,1.4c0.4,0,0.7-0.2,1-0.4
					l5.9-5.9v33.7c0,0.8,0.6,1.4,1.4,1.4h41.1c0.8,0,1.4-0.6,1.4-1.4V82.2l5.9,5.9c0.2,0.2,0.6,0.4,1,0.4c0.8,0,1.4-0.6,1.4-1.4
					C117.3,86.8,117.2,86.4,116.9,86.2z M98.1,62.5h5.5v10.4l-5.5-5.5V62.5z M78.9,114.6H68v-2.7h11V114.6z M92.6,114.6h-11V92.6h11
					V114.6z M106.4,114.6h-11v-2.7h11V114.6z M106.4,109.1h-11V91.3c0-0.8-0.6-1.4-1.4-1.4H80.3c-0.8,0-1.4,0.6-1.4,1.4v17.8H68
					V79.5l19.2-19.2l19.2,19.2V109.1z M88.5,106.4c0.8,0,1.4-0.6,1.4-1.4c0-0.8-0.6-1.4-1.4-1.4c-0.8,0-1.4,0.6-1.4,1.4
					C87.2,105.7,87.8,106.4,88.5,106.4z"/>
			</g>
		</g>
		<g>
			<g>
				<path class="st1" d="M116.4,85.7l-10.6-10.6V60.6c0-0.8-0.6-1.4-1.4-1.4h-8.2c-0.8,0-1.4,0.6-1.4,1.4v3.5l-7.3-7.3
					c-0.2-0.2-0.6-0.4-1-0.4c-0.4,0-0.7,0.2-1,0.4L56.9,85.7c-0.2,0.2-0.4,0.6-0.4,1c0,0.8,0.6,1.4,1.4,1.4c0.4,0,0.7-0.2,1-0.4
					l5.9-5.9v33.7c0,0.8,0.6,1.4,1.4,1.4h41.1c0.8,0,1.4-0.6,1.4-1.4V81.7l5.9,5.9c0.2,0.2,0.6,0.4,1,0.4c0.8,0,1.4-0.6,1.4-1.4
					C116.8,86.3,116.7,85.9,116.4,85.7z M97.6,62h5.5v10.4l-5.5-5.5V62z M78.4,114.1h-11v-2.7h11V114.1z M92.1,114.1h-11V92.1h11
					V114.1z M105.9,114.1h-11v-2.7h11V114.1z M105.9,108.6h-11V90.8c0-0.8-0.6-1.4-1.4-1.4H79.8c-0.8,0-1.4,0.6-1.4,1.4v17.8h-11V79
					l19.2-19.2L105.9,79V108.6z M88,105.9c0.8,0,1.4-0.6,1.4-1.4c0-0.8-0.6-1.4-1.4-1.4c-0.8,0-1.4,0.6-1.4,1.4
					C86.7,105.2,87.3,105.9,88,105.9z"/>
			</g>
		</g>
		<g>
			<g>
				<path class="st1" d="M115.9,85.2l-10.6-10.6V60.1c0-0.8-0.6-1.4-1.4-1.4h-8.2c-0.8,0-1.4,0.6-1.4,1.4v3.5l-7.3-7.3
					c-0.2-0.2-0.6-0.4-1-0.4c-0.4,0-0.7,0.2-1,0.4L56.4,85.2c-0.2,0.2-0.4,0.6-0.4,1c0,0.8,0.6,1.4,1.4,1.4c0.4,0,0.7-0.2,1-0.4
					l5.9-5.9v33.7c0,0.8,0.6,1.4,1.4,1.4h41.1c0.8,0,1.4-0.6,1.4-1.4V81.2l5.9,5.9c0.2,0.2,0.6,0.4,1,0.4c0.8,0,1.4-0.6,1.4-1.4
					C116.3,85.8,116.2,85.4,115.9,85.2z M97.1,61.5h5.5v10.4l-5.5-5.5V61.5z M77.9,113.6H67v-2.7h11V113.6z M91.6,113.6h-11V91.6h11
					V113.6z M105.4,113.6h-11v-2.7h11V113.6z M105.4,108.1h-11V90.3c0-0.8-0.6-1.4-1.4-1.4H79.3c-0.8,0-1.4,0.6-1.4,1.4v17.8H67
					V78.5l19.2-19.2l19.2,19.2V108.1z M87.5,105.4c0.8,0,1.4-0.6,1.4-1.4c0-0.8-0.6-1.4-1.4-1.4c-0.8,0-1.4,0.6-1.4,1.4
					C86.2,104.7,86.8,105.4,87.5,105.4z"/>
			</g>
		</g>
		<g>
			<g>
				<path class="st1" d="M115.4,84.7l-10.6-10.6V59.6c0-0.8-0.6-1.4-1.4-1.4h-8.2c-0.8,0-1.4,0.6-1.4,1.4v3.5l-7.3-7.3
					c-0.2-0.2-0.6-0.4-1-0.4c-0.4,0-0.7,0.2-1,0.4L55.9,84.7c-0.2,0.2-0.4,0.6-0.4,1c0,0.8,0.6,1.4,1.4,1.4c0.4,0,0.7-0.2,1-0.4
					l5.9-5.9v33.7c0,0.8,0.6,1.4,1.4,1.4h41.1c0.8,0,1.4-0.6,1.4-1.4V80.7l5.9,5.9c0.2,0.2,0.6,0.4,1,0.4c0.8,0,1.4-0.6,1.4-1.4
					C115.8,85.3,115.7,84.9,115.4,84.7z M96.6,61h5.5v10.4l-5.5-5.5V61z M77.4,113.1h-11v-2.7h11V113.1z M91.1,113.1h-11V91.1h11
					V113.1z M104.9,113.1h-11v-2.7h11V113.1z M104.9,107.6h-11V89.8c0-0.8-0.6-1.4-1.4-1.4H78.8c-0.8,0-1.4,0.6-1.4,1.4v17.8h-11V78
					l19.2-19.2L104.9,78V107.6z M87,104.9c0.8,0,1.4-0.6,1.4-1.4c0-0.8-0.6-1.4-1.4-1.4c-0.8,0-1.4,0.6-1.4,1.4
					C85.7,104.2,86.3,104.9,87,104.9z"/>
			</g>
		</g>
		<g>
			<g>
				<path class="st1" d="M114.9,84.2l-10.6-10.6V59.1c0-0.8-0.6-1.4-1.4-1.4h-8.2c-0.8,0-1.4,0.6-1.4,1.4v3.5l-7.3-7.3
					c-0.2-0.2-0.6-0.4-1-0.4c-0.4,0-0.7,0.2-1,0.4L55.4,84.2c-0.2,0.2-0.4,0.6-0.4,1c0,0.8,0.6,1.4,1.4,1.4c0.4,0,0.7-0.2,1-0.4
					l5.9-5.9v33.7c0,0.8,0.6,1.4,1.4,1.4h41.1c0.8,0,1.4-0.6,1.4-1.4V80.2l5.9,5.9c0.2,0.2,0.6,0.4,1,0.4c0.8,0,1.4-0.6,1.4-1.4
					C115.3,84.8,115.2,84.4,114.9,84.2z M96.1,60.5h5.5v10.4l-5.5-5.5V60.5z M76.9,112.6H66v-2.7h11V112.6z M90.6,112.6h-11V90.6h11
					V112.6z M104.4,112.6h-11v-2.7h11V112.6z M104.4,107.1h-11V89.3c0-0.8-0.6-1.4-1.4-1.4H78.3c-0.8,0-1.4,0.6-1.4,1.4v17.8H66
					V77.5l19.2-19.2l19.2,19.2V107.1z M86.5,104.4c0.8,0,1.4-0.6,1.4-1.4c0-0.8-0.6-1.4-1.4-1.4c-0.8,0-1.4,0.6-1.4,1.4
					C85.2,103.7,85.8,104.4,86.5,104.4z"/>
			</g>
		</g>
		<g>
			<g>
				<path class="st1" d="M114.4,83.7l-10.6-10.6V58.6c0-0.8-0.6-1.4-1.4-1.4h-8.2c-0.8,0-1.4,0.6-1.4,1.4v3.5l-7.3-7.3
					c-0.2-0.2-0.6-0.4-1-0.4c-0.4,0-0.7,0.2-1,0.4L54.9,83.7c-0.2,0.2-0.4,0.6-0.4,1c0,0.8,0.6,1.4,1.4,1.4c0.4,0,0.7-0.2,1-0.4
					l5.9-5.9v33.7c0,0.8,0.6,1.4,1.4,1.4h41.1c0.8,0,1.4-0.6,1.4-1.4V79.7l5.9,5.9c0.2,0.2,0.6,0.4,1,0.4c0.8,0,1.4-0.6,1.4-1.4
					C114.8,84.3,114.7,83.9,114.4,83.7z M95.6,60h5.5v10.4l-5.5-5.5V60z M76.4,112.1h-11v-2.7h11V112.1z M90.1,112.1h-11V90.1h11
					V112.1z M103.9,112.1h-11v-2.7h11V112.1z M103.9,106.6h-11V88.8c0-0.8-0.6-1.4-1.4-1.4H77.8c-0.8,0-1.4,0.6-1.4,1.4v17.8h-11V77
					l19.2-19.2L103.9,77V106.6z M86,103.9c0.8,0,1.4-0.6,1.4-1.4c0-0.8-0.6-1.4-1.4-1.4c-0.8,0-1.4,0.6-1.4,1.4
					C84.7,103.2,85.3,103.9,86,103.9z"/>
			</g>
		</g>
		<g>
			<g>
				<path class="st1" d="M113.9,83.2l-10.6-10.6V58.1c0-0.8-0.6-1.4-1.4-1.4h-8.2c-0.8,0-1.4,0.6-1.4,1.4v3.5l-7.3-7.3
					c-0.2-0.2-0.6-0.4-1-0.4c-0.4,0-0.7,0.2-1,0.4L54.4,83.2c-0.2,0.2-0.4,0.6-0.4,1c0,0.8,0.6,1.4,1.4,1.4c0.4,0,0.7-0.2,1-0.4
					l5.9-5.9v33.7c0,0.8,0.6,1.4,1.4,1.4h41.1c0.8,0,1.4-0.6,1.4-1.4V79.2l5.9,5.9c0.2,0.2,0.6,0.4,1,0.4c0.8,0,1.4-0.6,1.4-1.4
					C114.3,83.8,114.2,83.4,113.9,83.2z M95.1,59.5h5.5v10.4l-5.5-5.5V59.5z M75.9,111.6H65v-2.7h11V111.6z M89.6,111.6h-11V89.6h11
					V111.6z M103.4,111.6h-11v-2.7h11V111.6z M103.4,106.1h-11V88.3c0-0.8-0.6-1.4-1.4-1.4H77.3c-0.8,0-1.4,0.6-1.4,1.4v17.8H65
					V76.5l19.2-19.2l19.2,19.2V106.1z M85.5,103.4c0.8,0,1.4-0.6,1.4-1.4c0-0.8-0.6-1.4-1.4-1.4c-0.8,0-1.4,0.6-1.4,1.4
					C84.2,102.7,84.8,103.4,85.5,103.4z"/>
			</g>
		</g>
		<g>
			<g>
				<path class="st1" d="M113.4,82.7l-10.6-10.6V57.6c0-0.8-0.6-1.4-1.4-1.4h-8.2c-0.8,0-1.4,0.6-1.4,1.4v3.5l-7.3-7.3
					c-0.2-0.2-0.6-0.4-1-0.4c-0.4,0-0.7,0.2-1,0.4L53.9,82.7c-0.2,0.2-0.4,0.6-0.4,1c0,0.8,0.6,1.4,1.4,1.4c0.4,0,0.7-0.2,1-0.4
					l5.9-5.9v33.7c0,0.8,0.6,1.4,1.4,1.4h41.1c0.8,0,1.4-0.6,1.4-1.4V78.7l5.9,5.9c0.2,0.2,0.6,0.4,1,0.4c0.8,0,1.4-0.6,1.4-1.4
					C113.8,83.3,113.7,82.9,113.4,82.7z M94.6,59h5.5v10.4l-5.5-5.5V59z M75.4,111.1h-11v-2.7h11V111.1z M89.1,111.1h-11V89.1h11
					V111.1z M102.9,111.1h-11v-2.7h11V111.1z M102.9,105.6h-11V87.8c0-0.8-0.6-1.4-1.4-1.4H76.8c-0.8,0-1.4,0.6-1.4,1.4v17.8h-11V76
					l19.2-19.2L102.9,76V105.6z M85,102.9c0.8,0,1.4-0.6,1.4-1.4c0-0.8-0.6-1.4-1.4-1.4c-0.8,0-1.4,0.6-1.4,1.4
					C83.7,102.2,84.3,102.9,85,102.9z"/>
			</g>
		</g>
		<g>
			<g>
				<path class="st1" d="M112.9,82.2l-10.6-10.6V57.1c0-0.8-0.6-1.4-1.4-1.4h-8.2c-0.8,0-1.4,0.6-1.4,1.4v3.5l-7.3-7.3
					c-0.2-0.2-0.6-0.4-1-0.4c-0.4,0-0.7,0.2-1,0.4L53.4,82.2c-0.2,0.2-0.4,0.6-0.4,1c0,0.8,0.6,1.4,1.4,1.4c0.4,0,0.7-0.2,1-0.4
					l5.9-5.9v33.7c0,0.8,0.6,1.4,1.4,1.4h41.1c0.8,0,1.4-0.6,1.4-1.4V78.2l5.9,5.9c0.2,0.2,0.6,0.4,1,0.4c0.8,0,1.4-0.6,1.4-1.4
					C113.3,82.8,113.2,82.4,112.9,82.2z M94.1,58.5h5.5v10.4l-5.5-5.5V58.5z M74.9,110.6H64v-2.7h11V110.6z M88.6,110.6h-11V88.6h11
					V110.6z M102.4,110.6h-11v-2.7h11V110.6z M102.4,105.1h-11V87.3c0-0.8-0.6-1.4-1.4-1.4H76.3c-0.8,0-1.4,0.6-1.4,1.4v17.8H64
					V75.5l19.2-19.2l19.2,19.2V105.1z M84.5,102.4c0.8,0,1.4-0.6,1.4-1.4c0-0.8-0.6-1.4-1.4-1.4c-0.8,0-1.4,0.6-1.4,1.4
					C83.2,101.7,83.8,102.4,84.5,102.4z"/>
			</g>
		</g>
		<g>
			<g>
				<path class="st1" d="M112.4,81.7l-10.6-10.6V56.6c0-0.8-0.6-1.4-1.4-1.4h-8.2c-0.8,0-1.4,0.6-1.4,1.4v3.5l-7.3-7.3
					c-0.2-0.2-0.6-0.4-1-0.4c-0.4,0-0.7,0.2-1,0.4L52.9,81.7c-0.2,0.2-0.4,0.6-0.4,1c0,0.8,0.6,1.4,1.4,1.4c0.4,0,0.7-0.2,1-0.4
					l5.9-5.9v33.7c0,0.8,0.6,1.4,1.4,1.4h41.1c0.8,0,1.4-0.6,1.4-1.4V77.7l5.9,5.9c0.2,0.2,0.6,0.4,1,0.4c0.8,0,1.4-0.6,1.4-1.4
					C112.8,82.3,112.7,81.9,112.4,81.7z M93.6,58h5.5v10.4l-5.5-5.5V58z M74.4,110.1h-11v-2.7h11V110.1z M88.1,110.1h-11V88.1h11
					V110.1z M101.9,110.1h-11v-2.7h11V110.1z M101.9,104.6h-11V86.8c0-0.8-0.6-1.4-1.4-1.4H75.8c-0.8,0-1.4,0.6-1.4,1.4v17.8h-11V75
					l19.2-19.2L101.9,75V104.6z M84,101.9c0.8,0,1.4-0.6,1.4-1.4c0-0.8-0.6-1.4-1.4-1.4c-0.8,0-1.4,0.6-1.4,1.4
					C82.7,101.2,83.3,101.9,84,101.9z"/>
			</g>
		</g>
		<g>
			<g>
				<path class="st1" d="M111.9,81.2l-10.6-10.6V56.1c0-0.8-0.6-1.4-1.4-1.4h-8.2c-0.8,0-1.4,0.6-1.4,1.4v3.5l-7.3-7.3
					c-0.2-0.2-0.6-0.4-1-0.4c-0.4,0-0.7,0.2-1,0.4L52.4,81.2c-0.2,0.2-0.4,0.6-0.4,1c0,0.8,0.6,1.4,1.4,1.4c0.4,0,0.7-0.2,1-0.4
					l5.9-5.9v33.7c0,0.8,0.6,1.4,1.4,1.4h41.1c0.8,0,1.4-0.6,1.4-1.4V77.2l5.9,5.9c0.2,0.2,0.6,0.4,1,0.4c0.8,0,1.4-0.6,1.4-1.4
					C112.3,81.8,112.2,81.4,111.9,81.2z M93.1,57.5h5.5v10.4l-5.5-5.5V57.5z M73.9,109.6H63v-2.7h11V109.6z M87.6,109.6h-11V87.6h11
					V109.6z M101.4,109.6h-11v-2.7h11V109.6z M101.4,104.1h-11V86.3c0-0.8-0.6-1.4-1.4-1.4H75.3c-0.8,0-1.4,0.6-1.4,1.4v17.8H63
					V74.5l19.2-19.2l19.2,19.2V104.1z M83.5,101.4c0.8,0,1.4-0.6,1.4-1.4c0-0.8-0.6-1.4-1.4-1.4c-0.8,0-1.4,0.6-1.4,1.4
					C82.2,100.7,82.8,101.4,83.5,101.4z"/>
			</g>
		</g>
		<g>
			<g>
				<path class="st1" d="M111.4,80.7l-10.6-10.6V55.6c0-0.8-0.6-1.4-1.4-1.4h-8.2c-0.8,0-1.4,0.6-1.4,1.4v3.5l-7.3-7.3
					c-0.2-0.2-0.6-0.4-1-0.4c-0.4,0-0.7,0.2-1,0.4L51.9,80.7c-0.2,0.2-0.4,0.6-0.4,1c0,0.8,0.6,1.4,1.4,1.4c0.4,0,0.7-0.2,1-0.4
					l5.9-5.9v33.7c0,0.8,0.6,1.4,1.4,1.4h41.1c0.8,0,1.4-0.6,1.4-1.4V76.7l5.9,5.9c0.2,0.2,0.6,0.4,1,0.4c0.8,0,1.4-0.6,1.4-1.4
					C111.8,81.3,111.7,80.9,111.4,80.7z M92.6,57h5.5v10.4l-5.5-5.5V57z M73.4,109.1h-11v-2.7h11V109.1z M87.1,109.1h-11V87.1h11
					V109.1z M100.9,109.1h-11v-2.7h11V109.1z M100.9,103.6h-11V85.8c0-0.8-0.6-1.4-1.4-1.4H74.8c-0.8,0-1.4,0.6-1.4,1.4v17.8h-11V74
					l19.2-19.2L100.9,74V103.6z M83,100.9c0.8,0,1.4-0.6,1.4-1.4c0-0.8-0.6-1.4-1.4-1.4c-0.8,0-1.4,0.6-1.4,1.4
					C81.7,100.2,82.3,100.9,83,100.9z"/>
			</g>
		</g>
		<g>
			<g>
				<path class="st1" d="M110.9,80.2l-10.6-10.6V55.1c0-0.8-0.6-1.4-1.4-1.4h-8.2c-0.8,0-1.4,0.6-1.4,1.4v3.5l-7.3-7.3
					c-0.2-0.2-0.6-0.4-1-0.4c-0.4,0-0.7,0.2-1,0.4L51.4,80.2c-0.2,0.2-0.4,0.6-0.4,1c0,0.8,0.6,1.4,1.4,1.4c0.4,0,0.7-0.2,1-0.4
					l5.9-5.9v33.7c0,0.8,0.6,1.4,1.4,1.4h41.1c0.8,0,1.4-0.6,1.4-1.4V76.2l5.9,5.9c0.2,0.2,0.6,0.4,1,0.4c0.8,0,1.4-0.6,1.4-1.4
					C111.3,80.8,111.2,80.4,110.9,80.2z M92.1,56.5h5.5v10.4l-5.5-5.5V56.5z M72.9,108.6H62v-2.7h11V108.6z M86.6,108.6h-11V86.6h11
					V108.6z M100.4,108.6h-11v-2.7h11V108.6z M100.4,103.1h-11V85.3c0-0.8-0.6-1.4-1.4-1.4H74.3c-0.8,0-1.4,0.6-1.4,1.4v17.8H62
					V73.5l19.2-19.2l19.2,19.2V103.1z M82.5,100.4c0.8,0,1.4-0.6,1.4-1.4c0-0.8-0.6-1.4-1.4-1.4c-0.8,0-1.4,0.6-1.4,1.4
					C81.2,99.7,81.8,100.4,82.5,100.4z"/>
			</g>
		</g>
		<g>
			<g>
				<path class="st1" d="M110.4,79.7L99.9,69.1V54.6c0-0.8-0.6-1.4-1.4-1.4h-8.2c-0.8,0-1.4,0.6-1.4,1.4v3.5l-7.3-7.3
					c-0.2-0.2-0.6-0.4-1-0.4c-0.4,0-0.7,0.2-1,0.4L50.9,79.7c-0.2,0.2-0.4,0.6-0.4,1c0,0.8,0.6,1.4,1.4,1.4c0.4,0,0.7-0.2,1-0.4
					l5.9-5.9v33.7c0,0.8,0.6,1.4,1.4,1.4h41.1c0.8,0,1.4-0.6,1.4-1.4V75.7l5.9,5.9c0.2,0.2,0.6,0.4,1,0.4c0.8,0,1.4-0.6,1.4-1.4
					C110.8,80.3,110.7,79.9,110.4,79.7z M91.6,56h5.5v10.4l-5.5-5.5V56z M72.4,108.1h-11v-2.7h11V108.1z M86.1,108.1h-11V86.1h11
					V108.1z M99.9,108.1h-11v-2.7h11V108.1z M99.9,102.6h-11V84.8c0-0.8-0.6-1.4-1.4-1.4H73.8c-0.8,0-1.4,0.6-1.4,1.4v17.8h-11V73
					l19.2-19.2L99.9,73V102.6z M82,99.9c0.8,0,1.4-0.6,1.4-1.4c0-0.8-0.6-1.4-1.4-1.4c-0.8,0-1.4,0.6-1.4,1.4
					C80.7,99.2,81.3,99.9,82,99.9z"/>
			</g>
		</g>
		<g>
			<g>
				<path class="st1" d="M109.9,79.2L99.4,68.6V54.1c0-0.8-0.6-1.4-1.4-1.4h-8.2c-0.8,0-1.4,0.6-1.4,1.4v3.5l-7.3-7.3
					c-0.2-0.2-0.6-0.4-1-0.4c-0.4,0-0.7,0.2-1,0.4L50.4,79.2c-0.2,0.2-0.4,0.6-0.4,1c0,0.8,0.6,1.4,1.4,1.4c0.4,0,0.7-0.2,1-0.4
					l5.9-5.9v33.7c0,0.8,0.6,1.4,1.4,1.4h41.1c0.8,0,1.4-0.6,1.4-1.4V75.2l5.9,5.9c0.2,0.2,0.6,0.4,1,0.4c0.8,0,1.4-0.6,1.4-1.4
					C110.3,79.8,110.2,79.4,109.9,79.2z M91.1,55.5h5.5v10.4l-5.5-5.5V55.5z M71.9,107.6H61v-2.7h11V107.6z M85.6,107.6h-11V85.6h11
					V107.6z M99.4,107.6h-11v-2.7h11V107.6z M99.4,102.1h-11V84.3c0-0.8-0.6-1.4-1.4-1.4H73.3c-0.8,0-1.4,0.6-1.4,1.4v17.8H61V72.5
					l19.2-19.2l19.2,19.2V102.1z M81.5,99.4c0.8,0,1.4-0.6,1.4-1.4c0-0.8-0.6-1.4-1.4-1.4c-0.8,0-1.4,0.6-1.4,1.4
					C80.2,98.7,80.8,99.4,81.5,99.4z"/>
			</g>
		</g>
		<g>
			<g>
				<path class="st1" d="M109.4,78.7L98.9,68.1V53.6c0-0.8-0.6-1.4-1.4-1.4h-8.2c-0.8,0-1.4,0.6-1.4,1.4v3.5l-7.3-7.3
					c-0.2-0.2-0.6-0.4-1-0.4c-0.4,0-0.7,0.2-1,0.4L49.9,78.7c-0.2,0.2-0.4,0.6-0.4,1c0,0.8,0.6,1.4,1.4,1.4c0.4,0,0.7-0.2,1-0.4
					l5.9-5.9v33.7c0,0.8,0.6,1.4,1.4,1.4h41.1c0.8,0,1.4-0.6,1.4-1.4V74.7l5.9,5.9c0.2,0.2,0.6,0.4,1,0.4c0.8,0,1.4-0.6,1.4-1.4
					C109.8,79.3,109.7,78.9,109.4,78.7z M90.6,55h5.5v10.4l-5.5-5.5V55z M71.4,107.1h-11v-2.7h11V107.1z M85.1,107.1h-11V85.1h11
					V107.1z M98.9,107.1h-11v-2.7h11V107.1z M98.9,101.6h-11V83.8c0-0.8-0.6-1.4-1.4-1.4H72.8c-0.8,0-1.4,0.6-1.4,1.4v17.8h-11V72
					l19.2-19.2L98.9,72V101.6z M81,98.9c0.8,0,1.4-0.6,1.4-1.4c0-0.8-0.6-1.4-1.4-1.4c-0.8,0-1.4,0.6-1.4,1.4
					C79.7,98.2,80.3,98.9,81,98.9z"/>
			</g>
		</g>
		<g>
			<g>
				<path class="st1" d="M108.9,78.2L98.4,67.6V53.1c0-0.8-0.6-1.4-1.4-1.4h-8.2c-0.8,0-1.4,0.6-1.4,1.4v3.5l-7.3-7.3
					c-0.2-0.2-0.6-0.4-1-0.4c-0.4,0-0.7,0.2-1,0.4L49.4,78.2c-0.2,0.2-0.4,0.6-0.4,1c0,0.8,0.6,1.4,1.4,1.4c0.4,0,0.7-0.2,1-0.4
					l5.9-5.9v33.7c0,0.8,0.6,1.4,1.4,1.4h41.1c0.8,0,1.4-0.6,1.4-1.4V74.2l5.9,5.9c0.2,0.2,0.6,0.4,1,0.4c0.8,0,1.4-0.6,1.4-1.4
					C109.3,78.8,109.2,78.4,108.9,78.2z M90.1,54.5h5.5v10.4l-5.5-5.5V54.5z M70.9,106.6H60v-2.7h11V106.6z M84.6,106.6h-11V84.6h11
					V106.6z M98.4,106.6h-11v-2.7h11V106.6z M98.4,101.1h-11V83.3c0-0.8-0.6-1.4-1.4-1.4H72.3c-0.8,0-1.4,0.6-1.4,1.4v17.8H60V71.5
					l19.2-19.2l19.2,19.2V101.1z M80.5,98.4c0.8,0,1.4-0.6,1.4-1.4c0-0.8-0.6-1.4-1.4-1.4c-0.8,0-1.4,0.6-1.4,1.4
					C79.2,97.7,79.8,98.4,80.5,98.4z"/>
			</g>
		</g>
		<g>
			<g>
				<path class="st1" d="M108.4,77.7L97.9,67.1V52.6c0-0.8-0.6-1.4-1.4-1.4h-8.2c-0.8,0-1.4,0.6-1.4,1.4v3.5l-7.3-7.3
					c-0.2-0.2-0.6-0.4-1-0.4c-0.4,0-0.7,0.2-1,0.4L48.9,77.7c-0.2,0.2-0.4,0.6-0.4,1c0,0.8,0.6,1.4,1.4,1.4c0.4,0,0.7-0.2,1-0.4
					l5.9-5.9v33.7c0,0.8,0.6,1.4,1.4,1.4h41.1c0.8,0,1.4-0.6,1.4-1.4V73.7l5.9,5.9c0.2,0.2,0.6,0.4,1,0.4c0.8,0,1.4-0.6,1.4-1.4
					C108.8,78.3,108.7,77.9,108.4,77.7z M89.6,54h5.5v10.4l-5.5-5.5V54z M70.4,106.1h-11v-2.7h11V106.1z M84.1,106.1h-11V84.1h11
					V106.1z M97.9,106.1h-11v-2.7h11V106.1z M97.9,100.6h-11V82.8c0-0.8-0.6-1.4-1.4-1.4H71.8c-0.8,0-1.4,0.6-1.4,1.4v17.8h-11V71
					l19.2-19.2L97.9,71V100.6z M80,97.9c0.8,0,1.4-0.6,1.4-1.4c0-0.8-0.6-1.4-1.4-1.4c-0.8,0-1.4,0.6-1.4,1.4
					C78.7,97.2,79.3,97.9,80,97.9z"/>
			</g>
		</g>
	</g>
</g>
<g id="Home_x40_2x.png_2_">
	<g>
		<path class="st2" d="M108.4,77.7L97.9,67.1V52.6c0-0.8-0.6-1.4-1.4-1.4h-8.2c-0.8,0-1.4,0.6-1.4,1.4v3.5l-7.3-7.3
			c-0.2-0.2-0.6-0.4-1-0.4c-0.4,0-0.7,0.2-1,0.4L48.9,77.7c-0.2,0.2-0.4,0.6-0.4,1c0,0.8,0.6,1.4,1.4,1.4c0.4,0,0.7-0.2,1-0.4
			l5.9-5.9v33.7c0,0.8,0.6,1.4,1.4,1.4h13.7h13.7h13.7c0.8,0,1.4-0.6,1.4-1.4V73.7l5.9,5.9c0.2,0.2,0.6,0.4,1,0.4
			c0.8,0,1.4-0.6,1.4-1.4C108.8,78.3,108.7,77.9,108.4,77.7z M89.6,54h5.5v10.4l-5.5-5.5V54z M70.4,106.1h-11v-2.7h11V106.1z
			 M84.1,106.1h-11V84.1h11V106.1z M97.9,106.1h-11v-2.7h11V106.1z M97.9,100.6h-11V82.8c0-0.8-0.6-1.4-1.4-1.4H71.8
			c-0.8,0-1.4,0.6-1.4,1.4v17.8h-11V71l19.2-19.2L97.9,71V100.6z M80,97.9c0.8,0,1.4-0.6,1.4-1.4c0-0.8-0.6-1.4-1.4-1.4
			c-0.8,0-1.4,0.6-1.4,1.4C78.7,97.2,79.3,97.9,80,97.9z"/>
	</g>
</g>
<g>
</g>
<g>
</g>
<g>
</g>
<g>
</g>
<g>
</g>
<g>
</g>
</svg>
