<svg id="Layer_1" xmlns="http://www.w3.org/2000/svg" xmlns:xlink="http://www.w3.org/1999/xlink" viewBox="0 0 157.3 157.3"><style>.st0{opacity:5.000000e-002;clip-path:url(#SVGID_2_);} .st1{fill:#010202;} .st2{fill:#324654;}</style><defs><circle id="SVGID_1_" cx="78.7" cy="78.7" r="78.7"/></defs><use xlink:href="#SVGID_1_" overflow="visible" opacity=".1" fill="#010202"/><clipPath id="SVGID_2_"><use xlink:href="#SVGID_1_" overflow="visible" opacity=".1"/></clipPath><g id="Home_x40_2x.png" class="st0"><path class="st1" d="M163.9 133.2l-10.6-10.6v-14.5c0-.8-.6-1.4-1.4-1.4h-8.2c-.8 0-1.4.6-1.4 1.4v3.5l-7.3-7.3c-.2-.2-.6-.4-1-.4s-.7.2-1 .4l-28.8 28.8c-.2.2-.4.6-.4 1 0 .8.6 1.4 1.4 1.4.4 0 .7-.2 1-.4l5.9-5.9v33.7c0 .8.6 1.4 1.4 1.4h41.1c.8 0 1.4-.6 1.4-1.4v-33.7l5.9 5.9c.2.2.6.4 1 .4.8 0 1.4-.6 1.4-1.4 0-.3-.1-.7-.4-.9zm-18.8-23.7h5.5v10.4l-5.5-5.5v-4.9zm-19.2 52.1h-11v-2.7h11v2.7zm13.7 0h-11v-21.9h11v21.9zm13.8 0h-11v-2.7h11v2.7zm0-5.5h-11v-17.8c0-.8-.6-1.4-1.4-1.4h-13.7c-.8 0-1.4.6-1.4 1.4v17.8h-11v-29.6l19.2-19.2 19.2 19.2v29.6zm-17.9-2.7c.8 0 1.4-.6 1.4-1.4 0-.8-.6-1.4-1.4-1.4-.8 0-1.4.6-1.4 1.4.1.7.7 1.4 1.4 1.4z"/><path class="st1" d="M163.4 132.7l-10.6-10.6v-14.5c0-.8-.6-1.4-1.4-1.4h-8.2c-.8 0-1.4.6-1.4 1.4v3.5l-7.3-7.3c-.2-.2-.6-.4-1-.4s-.7.2-1 .4l-28.8 28.8c-.2.2-.4.6-.4 1 0 .8.6 1.4 1.4 1.4.4 0 .7-.2 1-.4l5.9-5.9v33.7c0 .8.6 1.4 1.4 1.4h41.1c.8 0 1.4-.6 1.4-1.4v-33.7l5.9 5.9c.2.2.6.4 1 .4.8 0 1.4-.6 1.4-1.4 0-.3-.1-.7-.4-.9zM144.6 109h5.5v10.4l-5.5-5.5V109zm-19.2 52.1h-11v-2.7h11v2.7zm13.7 0h-11v-21.9h11v21.9zm13.8 0h-11v-2.7h11v2.7zm0-5.5h-11v-17.8c0-.8-.6-1.4-1.4-1.4h-13.7c-.8 0-1.4.6-1.4 1.4v17.8h-11V126l19.2-19.2 19.2 19.2v29.6zm-17.9-2.7c.8 0 1.4-.6 1.4-1.4 0-.8-.6-1.4-1.4-1.4-.8 0-1.4.6-1.4 1.4.1.7.7 1.4 1.4 1.4z"/><path class="st1" d="M162.9 132.2l-10.6-10.6v-14.5c0-.8-.6-1.4-1.4-1.4h-8.2c-.8 0-1.4.6-1.4 1.4v3.5l-7.3-7.3c-.2-.2-.6-.4-1-.4s-.7.2-1 .4l-28.8 28.8c-.2.2-.4.6-.4 1 0 .8.6 1.4 1.4 1.4.4 0 .7-.2 1-.4l5.9-5.9v33.7c0 .8.6 1.4 1.4 1.4h41.1c.8 0 1.4-.6 1.4-1.4v-33.7l5.9 5.9c.2.2.6.4 1 .4.8 0 1.4-.6 1.4-1.4 0-.3-.1-.7-.4-.9zm-18.8-23.7h5.5v10.4l-5.5-5.5v-4.9zm-19.2 52.1h-11v-2.7h11v2.7zm13.7 0h-11v-21.9h11v21.9zm13.8 0h-11v-2.7h11v2.7zm0-5.5h-11v-17.8c0-.8-.6-1.4-1.4-1.4h-13.7c-.8 0-1.4.6-1.4 1.4v17.8h-11v-29.6l19.2-19.2 19.2 19.2v29.6zm-17.9-2.7c.8 0 1.4-.6 1.4-1.4 0-.8-.6-1.4-1.4-1.4-.8 0-1.4.6-1.4 1.4.1.7.7 1.4 1.4 1.4z"/><path class="st1" d="M162.4 131.7l-10.6-10.6v-14.5c0-.8-.6-1.4-1.4-1.4h-8.2c-.8 0-1.4.6-1.4 1.4v3.5l-7.3-7.3c-.2-.2-.6-.4-1-.4s-.7.2-1 .4l-28.8 28.8c-.2.2-.4.6-.4 1 0 .8.6 1.4 1.4 1.4.4 0 .7-.2 1-.4l5.9-5.9v33.7c0 .8.6 1.4 1.4 1.4h41.1c.8 0 1.4-.6 1.4-1.4v-33.7l5.9 5.9c.2.2.6.4 1 .4.8 0 1.4-.6 1.4-1.4 0-.3-.1-.7-.4-.9zM143.6 108h5.5v10.4l-5.5-5.5V108zm-19.2 52.1h-11v-2.7h11v2.7zm13.7 0h-11v-21.9h11v21.9zm13.8 0h-11v-2.7h11v2.7zm0-5.5h-11v-17.8c0-.8-.6-1.4-1.4-1.4h-13.7c-.8 0-1.4.6-1.4 1.4v17.8h-11V125l19.2-19.2 19.2 19.2v29.6zm-17.9-2.7c.8 0 1.4-.6 1.4-1.4 0-.8-.6-1.4-1.4-1.4-.8 0-1.4.6-1.4 1.4.1.7.7 1.4 1.4 1.4z"/><path class="st1" d="M161.9 131.2l-10.6-10.6v-14.5c0-.8-.6-1.4-1.4-1.4h-8.2c-.8 0-1.4.6-1.4 1.4v3.5l-7.3-7.3c-.2-.2-.6-.4-1-.4s-.7.2-1 .4l-28.8 28.8c-.2.2-.4.6-.4 1 0 .8.6 1.4 1.4 1.4.4 0 .7-.2 1-.4l5.9-5.9v33.7c0 .8.6 1.4 1.4 1.4h41.1c.8 0 1.4-.6 1.4-1.4v-33.7l5.9 5.9c.2.2.6.4 1 .4.8 0 1.4-.6 1.4-1.4 0-.3-.1-.7-.4-.9zm-18.8-23.7h5.5v10.4l-5.5-5.5v-4.9zm-19.2 52.1h-11v-2.7h11v2.7zm13.7 0h-11v-21.9h11v21.9zm13.8 0h-11v-2.7h11v2.7zm0-5.5h-11v-17.8c0-.8-.6-1.4-1.4-1.4h-13.7c-.8 0-1.4.6-1.4 1.4v17.8h-11v-29.6l19.2-19.2 19.2 19.2v29.6zm-17.9-2.7c.8 0 1.4-.6 1.4-1.4 0-.8-.6-1.4-1.4-1.4-.8 0-1.4.6-1.4 1.4.1.7.7 1.4 1.4 1.4z"/><path class="st1" d="M161.4 130.7l-10.6-10.6v-14.5c0-.8-.6-1.4-1.4-1.4h-8.2c-.8 0-1.4.6-1.4 1.4v3.5l-7.3-7.3c-.2-.2-.6-.4-1-.4s-.7.2-1 .4l-28.8 28.8c-.2.2-.4.6-.4 1 0 .8.6 1.4 1.4 1.4.4 0 .7-.2 1-.4l5.9-5.9v33.7c0 .8.6 1.4 1.4 1.4h41.1c.8 0 1.4-.6 1.4-1.4v-33.7l5.9 5.9c.2.2.6.4 1 .4.8 0 1.4-.6 1.4-1.4 0-.3-.1-.7-.4-.9zM142.6 107h5.5v10.4l-5.5-5.5V107zm-19.2 52.1h-11v-2.7h11v2.7zm13.7 0h-11v-21.9h11v21.9zm13.8 0h-11v-2.7h11v2.7zm0-5.5h-11v-17.8c0-.8-.6-1.4-1.4-1.4h-13.7c-.8 0-1.4.6-1.4 1.4v17.8h-11V124l19.2-19.2 19.2 19.2v29.6zm-17.9-2.7c.8 0 1.4-.6 1.4-1.4 0-.8-.6-1.4-1.4-1.4-.8 0-1.4.6-1.4 1.4.1.7.7 1.4 1.4 1.4z"/><path class="st1" d="M160.9 130.2l-10.6-10.6v-14.5c0-.8-.6-1.4-1.4-1.4h-8.2c-.8 0-1.4.6-1.4 1.4v3.5l-7.3-7.3c-.2-.2-.6-.4-1-.4s-.7.2-1 .4l-28.8 28.8c-.2.2-.4.6-.4 1 0 .8.6 1.4 1.4 1.4.4 0 .7-.2 1-.4l5.9-5.9v33.7c0 .8.6 1.4 1.4 1.4h41.1c.8 0 1.4-.6 1.4-1.4v-33.7l5.9 5.9c.2.2.6.4 1 .4.8 0 1.4-.6 1.4-1.4 0-.3-.1-.7-.4-.9zm-18.8-23.7h5.5v10.4l-5.5-5.5v-4.9zm-19.2 52.1h-11v-2.7h11v2.7zm13.7 0h-11v-21.9h11v21.9zm13.8 0h-11v-2.7h11v2.7zm0-5.5h-11v-17.8c0-.8-.6-1.4-1.4-1.4h-13.7c-.8 0-1.4.6-1.4 1.4v17.8h-11v-29.6l19.2-19.2 19.2 19.2v29.6zm-17.9-2.7c.8 0 1.4-.6 1.4-1.4 0-.8-.6-1.4-1.4-1.4-.8 0-1.4.6-1.4 1.4.1.7.7 1.4 1.4 1.4z"/><path class="st1" d="M160.4 129.7l-10.6-10.6v-14.5c0-.8-.6-1.4-1.4-1.4h-8.2c-.8 0-1.4.6-1.4 1.4v3.5l-7.3-7.3c-.2-.2-.6-.4-1-.4s-.7.2-1 .4l-28.8 28.8c-.2.2-.4.6-.4 1 0 .8.6 1.4 1.4 1.4.4 0 .7-.2 1-.4l5.9-5.9v33.7c0 .8.6 1.4 1.4 1.4h41.1c.8 0 1.4-.6 1.4-1.4v-33.7l5.9 5.9c.2.2.6.4 1 .4.8 0 1.4-.6 1.4-1.4 0-.3-.1-.7-.4-.9zM141.6 106h5.5v10.4l-5.5-5.5V106zm-19.2 52.1h-11v-2.7h11v2.7zm13.7 0h-11v-21.9h11v21.9zm13.8 0h-11v-2.7h11v2.7zm0-5.5h-11v-17.8c0-.8-.6-1.4-1.4-1.4h-13.7c-.8 0-1.4.6-1.4 1.4v17.8h-11V123l19.2-19.2 19.2 19.2v29.6zm-17.9-2.7c.8 0 1.4-.6 1.4-1.4 0-.8-.6-1.4-1.4-1.4-.8 0-1.4.6-1.4 1.4.1.7.7 1.4 1.4 1.4z"/><path class="st1" d="M159.9 129.2l-10.6-10.6v-14.5c0-.8-.6-1.4-1.4-1.4h-8.2c-.8 0-1.4.6-1.4 1.4v3.5l-7.3-7.3c-.2-.2-.6-.4-1-.4s-.7.2-1 .4l-28.8 28.8c-.2.2-.4.6-.4 1 0 .8.6 1.4 1.4 1.4.4 0 .7-.2 1-.4l5.9-5.9v33.7c0 .8.6 1.4 1.4 1.4h41.1c.8 0 1.4-.6 1.4-1.4v-33.7l5.9 5.9c.2.2.6.4 1 .4.8 0 1.4-.6 1.4-1.4 0-.3-.1-.7-.4-.9zm-18.8-23.7h5.5v10.4l-5.5-5.5v-4.9zm-19.2 52.1h-11v-2.7h11v2.7zm13.7 0h-11v-21.9h11v21.9zm13.8 0h-11v-2.7h11v2.7zm0-5.5h-11v-17.8c0-.8-.6-1.4-1.4-1.4h-13.7c-.8 0-1.4.6-1.4 1.4v17.8h-11v-29.6l19.2-19.2 19.2 19.2v29.6zm-17.9-2.7c.8 0 1.4-.6 1.4-1.4 0-.8-.6-1.4-1.4-1.4-.8 0-1.4.6-1.4 1.4.1.7.7 1.4 1.4 1.4z"/><path class="st1" d="M159.4 128.7l-10.6-10.6v-14.5c0-.8-.6-1.4-1.4-1.4h-8.2c-.8 0-1.4.6-1.4 1.4v3.5l-7.3-7.3c-.2-.2-.6-.4-1-.4s-.7.2-1 .4l-28.8 28.8c-.2.2-.4.6-.4 1 0 .8.6 1.4 1.4 1.4.4 0 .7-.2 1-.4l5.9-5.9v33.7c0 .8.6 1.4 1.4 1.4h41.1c.8 0 1.4-.6 1.4-1.4v-33.7l5.9 5.9c.2.2.6.4 1 .4.8 0 1.4-.6 1.4-1.4 0-.3-.1-.7-.4-.9zM140.6 105h5.5v10.4l-5.5-5.5V105zm-19.2 52.1h-11v-2.7h11v2.7zm13.7 0h-11v-21.9h11v21.9zm13.8 0h-11v-2.7h11v2.7zm0-5.5h-11v-17.8c0-.8-.6-1.4-1.4-1.4h-13.7c-.8 0-1.4.6-1.4 1.4v17.8h-11V122l19.2-19.2 19.2 19.2v29.6zm-17.9-2.7c.8 0 1.4-.6 1.4-1.4 0-.8-.6-1.4-1.4-1.4-.8 0-1.4.6-1.4 1.4.1.7.7 1.4 1.4 1.4z"/><path class="st1" d="M158.9 128.2l-10.6-10.6v-14.5c0-.8-.6-1.4-1.4-1.4h-8.2c-.8 0-1.4.6-1.4 1.4v3.5l-7.3-7.3c-.2-.2-.6-.4-1-.4s-.7.2-1 .4l-28.8 28.8c-.2.2-.4.6-.4 1 0 .8.6 1.4 1.4 1.4.4 0 .7-.2 1-.4l5.9-5.9v33.7c0 .8.6 1.4 1.4 1.4h41.1c.8 0 1.4-.6 1.4-1.4v-33.7l5.9 5.9c.2.2.6.4 1 .4.8 0 1.4-.6 1.4-1.4 0-.3-.1-.7-.4-.9zm-18.8-23.7h5.5v10.4l-5.5-5.5v-4.9zm-19.2 52.1h-11v-2.7h11v2.7zm13.7 0h-11v-21.9h11v21.9zm13.8 0h-11v-2.7h11v2.7zm0-5.5h-11v-17.8c0-.8-.6-1.4-1.4-1.4h-13.7c-.8 0-1.4.6-1.4 1.4v17.8h-11v-29.6l19.2-19.2 19.2 19.2v29.6zm-17.9-2.7c.8 0 1.4-.6 1.4-1.4 0-.8-.6-1.4-1.4-1.4-.8 0-1.4.6-1.4 1.4.1.7.7 1.4 1.4 1.4z"/><path class="st1" d="M158.4 127.7l-10.6-10.6v-14.5c0-.8-.6-1.4-1.4-1.4h-8.2c-.8 0-1.4.6-1.4 1.4v3.5l-7.3-7.3c-.2-.2-.6-.4-1-.4s-.7.2-1 .4l-28.8 28.8c-.2.2-.4.6-.4 1 0 .8.6 1.4 1.4 1.4.4 0 .7-.2 1-.4l5.9-5.9v33.7c0 .8.6 1.4 1.4 1.4h41.1c.8 0 1.4-.6 1.4-1.4v-33.7l5.9 5.9c.2.2.6.4 1 .4.8 0 1.4-.6 1.4-1.4 0-.3-.1-.7-.4-.9zM139.6 104h5.5v10.4l-5.5-5.5V104zm-19.2 52.1h-11v-2.7h11v2.7zm13.7 0h-11v-21.9h11v21.9zm13.8 0h-11v-2.7h11v2.7zm0-5.5h-11v-17.8c0-.8-.6-1.4-1.4-1.4h-13.7c-.8 0-1.4.6-1.4 1.4v17.8h-11V121l19.2-19.2 19.2 19.2v29.6zm-17.9-2.7c.8 0 1.4-.6 1.4-1.4 0-.8-.6-1.4-1.4-1.4-.8 0-1.4.6-1.4 1.4.1.7.7 1.4 1.4 1.4z"/><path class="st1" d="M157.9 127.2l-10.6-10.6v-14.5c0-.8-.6-1.4-1.4-1.4h-8.2c-.8 0-1.4.6-1.4 1.4v3.5l-7.3-7.3c-.2-.2-.6-.4-1-.4s-.7.2-1 .4l-28.8 28.8c-.2.2-.4.6-.4 1 0 .8.6 1.4 1.4 1.4.4 0 .7-.2 1-.4l5.9-5.9v33.7c0 .8.6 1.4 1.4 1.4h41.1c.8 0 1.4-.6 1.4-1.4v-33.7l5.9 5.9c.2.2.6.4 1 .4.8 0 1.4-.6 1.4-1.4 0-.3-.1-.7-.4-.9zm-18.8-23.7h5.5v10.4l-5.5-5.5v-4.9zm-19.2 52.1h-11v-2.7h11v2.7zm13.7 0h-11v-21.9h11v21.9zm13.8 0h-11v-2.7h11v2.7zm0-5.5h-11v-17.8c0-.8-.6-1.4-1.4-1.4h-13.7c-.8 0-1.4.6-1.4 1.4v17.8h-11v-29.6l19.2-19.2 19.2 19.2v29.6zm-17.9-2.7c.8 0 1.4-.6 1.4-1.4 0-.8-.6-1.4-1.4-1.4-.8 0-1.4.6-1.4 1.4.1.7.7 1.4 1.4 1.4z"/><path class="st1" d="M157.4 126.7l-10.6-10.6v-14.5c0-.8-.6-1.4-1.4-1.4h-8.2c-.8 0-1.4.6-1.4 1.4v3.5l-7.3-7.3c-.2-.2-.6-.4-1-.4s-.7.2-1 .4l-28.8 28.8c-.2.2-.4.6-.4 1 0 .8.6 1.4 1.4 1.4.4 0 .7-.2 1-.4l5.9-5.9v33.7c0 .8.6 1.4 1.4 1.4h41.1c.8 0 1.4-.6 1.4-1.4v-33.7l5.9 5.9c.2.2.6.4 1 .4.8 0 1.4-.6 1.4-1.4 0-.3-.1-.7-.4-.9zM138.6 103h5.5v10.4l-5.5-5.5V103zm-19.2 52.1h-11v-2.7h11v2.7zm13.7 0h-11v-21.9h11v21.9zm13.8 0h-11v-2.7h11v2.7zm0-5.5h-11v-17.8c0-.8-.6-1.4-1.4-1.4h-13.7c-.8 0-1.4.6-1.4 1.4v17.8h-11V120l19.2-19.2 19.2 19.2v29.6zm-17.9-2.7c.8 0 1.4-.6 1.4-1.4 0-.8-.6-1.4-1.4-1.4-.8 0-1.4.6-1.4 1.4.1.7.7 1.4 1.4 1.4z"/><path class="st1" d="M156.9 126.2l-10.6-10.6v-14.5c0-.8-.6-1.4-1.4-1.4h-8.2c-.8 0-1.4.6-1.4 1.4v3.5l-7.3-7.3c-.2-.2-.6-.4-1-.4s-.7.2-1 .4l-28.8 28.8c-.2.2-.4.6-.4 1 0 .8.6 1.4 1.4 1.4.4 0 .7-.2 1-.4l5.9-5.9v33.7c0 .8.6 1.4 1.4 1.4h41.1c.8 0 1.4-.6 1.4-1.4v-33.7l5.9 5.9c.2.2.6.4 1 .4.8 0 1.4-.6 1.4-1.4 0-.3-.1-.7-.4-.9zm-18.8-23.7h5.5v10.4l-5.5-5.5v-4.9zm-19.2 52.1h-11v-2.7h11v2.7zm13.7 0h-11v-21.9h11v21.9zm13.8 0h-11v-2.7h11v2.7zm0-5.5h-11v-17.8c0-.8-.6-1.4-1.4-1.4h-13.7c-.8 0-1.4.6-1.4 1.4v17.8h-11v-29.6l19.2-19.2 19.2 19.2v29.6zm-17.9-2.7c.8 0 1.4-.6 1.4-1.4 0-.8-.6-1.4-1.4-1.4-.8 0-1.4.6-1.4 1.4.1.7.7 1.4 1.4 1.4z"/><path class="st1" d="M156.4 125.7l-10.6-10.6v-14.5c0-.8-.6-1.4-1.4-1.4h-8.2c-.8 0-1.4.6-1.4 1.4v3.5l-7.3-7.3c-.2-.2-.6-.4-1-.4s-.7.2-1 .4l-28.8 28.8c-.2.2-.4.6-.4 1 0 .8.6 1.4 1.4 1.4.4 0 .7-.2 1-.4l5.9-5.9v33.7c0 .8.6 1.4 1.4 1.4h41.1c.8 0 1.4-.6 1.4-1.4v-33.7l5.9 5.9c.2.2.6.4 1 .4.8 0 1.4-.6 1.4-1.4 0-.3-.1-.7-.4-.9zM137.6 102h5.5v10.4l-5.5-5.5V102zm-19.2 52.1h-11v-2.7h11v2.7zm13.7 0h-11v-21.9h11v21.9zm13.8 0h-11v-2.7h11v2.7zm0-5.5h-11v-17.8c0-.8-.6-1.4-1.4-1.4h-13.7c-.8 0-1.4.6-1.4 1.4v17.8h-11V119l19.2-19.2 19.2 19.2v29.6zm-17.9-2.7c.8 0 1.4-.6 1.4-1.4 0-.8-.6-1.4-1.4-1.4-.8 0-1.4.6-1.4 1.4.1.7.7 1.4 1.4 1.4z"/><path class="st1" d="M155.9 125.2l-10.6-10.6v-14.5c0-.8-.6-1.4-1.4-1.4h-8.2c-.8 0-1.4.6-1.4 1.4v3.5l-7.3-7.3c-.2-.2-.6-.4-1-.4s-.7.2-1 .4l-28.8 28.8c-.2.2-.4.6-.4 1 0 .8.6 1.4 1.4 1.4.4 0 .7-.2 1-.4l5.9-5.9v33.7c0 .8.6 1.4 1.4 1.4h41.1c.8 0 1.4-.6 1.4-1.4v-33.7l5.9 5.9c.2.2.6.4 1 .4.8 0 1.4-.6 1.4-1.4 0-.3-.1-.7-.4-.9zm-18.8-23.7h5.5v10.4l-5.5-5.5v-4.9zm-19.2 52.1h-11v-2.7h11v2.7zm13.7 0h-11v-21.9h11v21.9zm13.8 0h-11v-2.7h11v2.7zm0-5.5h-11v-17.8c0-.8-.6-1.4-1.4-1.4h-13.7c-.8 0-1.4.6-1.4 1.4v17.8h-11v-29.6l19.2-19.2 19.2 19.2v29.6zm-17.9-2.7c.8 0 1.4-.6 1.4-1.4 0-.8-.6-1.4-1.4-1.4-.8 0-1.4.6-1.4 1.4.1.7.7 1.4 1.4 1.4z"/><path class="st1" d="M155.4 124.7l-10.6-10.6V99.6c0-.8-.6-1.4-1.4-1.4h-8.2c-.8 0-1.4.6-1.4 1.4v3.5l-7.3-7.3c-.2-.2-.6-.4-1-.4s-.7.2-1 .4l-28.8 28.8c-.2.2-.4.6-.4 1 0 .8.6 1.4 1.4 1.4.4 0 .7-.2 1-.4l5.9-5.9v33.7c0 .8.6 1.4 1.4 1.4h41.1c.8 0 1.4-.6 1.4-1.4v-33.7l5.9 5.9c.2.2.6.4 1 .4.8 0 1.4-.6 1.4-1.4 0-.3-.1-.7-.4-.9zM136.6 101h5.5v10.4l-5.5-5.5V101zm-19.2 52.1h-11v-2.7h11v2.7zm13.7 0h-11v-21.9h11v21.9zm13.8 0h-11v-2.7h11v2.7zm0-5.5h-11v-17.8c0-.8-.6-1.4-1.4-1.4h-13.7c-.8 0-1.4.6-1.4 1.4v17.8h-11V118l19.2-19.2 19.2 19.2v29.6zm-17.9-2.7c.8 0 1.4-.6 1.4-1.4 0-.8-.6-1.4-1.4-1.4-.8 0-1.4.6-1.4 1.4.1.7.7 1.4 1.4 1.4z"/><path class="st1" d="M154.9 124.2l-10.6-10.6V99.1c0-.8-.6-1.4-1.4-1.4h-8.2c-.8 0-1.4.6-1.4 1.4v3.5l-7.3-7.3c-.2-.2-.6-.4-1-.4s-.7.2-1 .4l-28.8 28.8c-.2.2-.4.6-.4 1 0 .8.6 1.4 1.4 1.4.4 0 .7-.2 1-.4l5.9-5.9v33.7c0 .8.6 1.4 1.4 1.4h41.1c.8 0 1.4-.6 1.4-1.4v-33.7l5.9 5.9c.2.2.6.4 1 .4.8 0 1.4-.6 1.4-1.4 0-.3-.1-.7-.4-.9zm-18.8-23.7h5.5v10.4l-5.5-5.5v-4.9zm-19.2 52.1h-11v-2.7h11v2.7zm13.7 0h-11v-21.9h11v21.9zm13.8 0h-11v-2.7h11v2.7zm0-5.5h-11v-17.8c0-.8-.6-1.4-1.4-1.4h-13.7c-.8 0-1.4.6-1.4 1.4v17.8h-11v-29.6l19.2-19.2 19.2 19.2v29.6zm-17.9-2.7c.8 0 1.4-.6 1.4-1.4 0-.8-.6-1.4-1.4-1.4-.8 0-1.4.6-1.4 1.4.1.7.7 1.4 1.4 1.4z"/><path class="st1" d="M154.4 123.7l-10.6-10.6V98.6c0-.8-.6-1.4-1.4-1.4h-8.2c-.8 0-1.4.6-1.4 1.4v3.5l-7.3-7.3c-.2-.2-.6-.4-1-.4s-.7.2-1 .4l-28.8 28.8c-.2.2-.4.6-.4 1 0 .8.6 1.4 1.4 1.4.4 0 .7-.2 1-.4l5.9-5.9v33.7c0 .8.6 1.4 1.4 1.4h41.1c.8 0 1.4-.6 1.4-1.4v-33.7l5.9 5.9c.2.2.6.4 1 .4.8 0 1.4-.6 1.4-1.4 0-.3-.1-.7-.4-.9zM135.6 100h5.5v10.4l-5.5-5.5V100zm-19.2 52.1h-11v-2.7h11v2.7zm13.7 0h-11v-21.9h11v21.9zm13.8 0h-11v-2.7h11v2.7zm0-5.5h-11v-17.8c0-.8-.6-1.4-1.4-1.4h-13.7c-.8 0-1.4.6-1.4 1.4v17.8h-11V117l19.2-19.2 19.2 19.2v29.6zm-17.9-2.7c.8 0 1.4-.6 1.4-1.4 0-.8-.6-1.4-1.4-1.4-.8 0-1.4.6-1.4 1.4.1.7.7 1.4 1.4 1.4z"/><path class="st1" d="M153.9 123.2l-10.6-10.6V98.1c0-.8-.6-1.4-1.4-1.4h-8.2c-.8 0-1.4.6-1.4 1.4v3.5l-7.3-7.3c-.2-.2-.6-.4-1-.4s-.7.2-1 .4l-28.8 28.8c-.2.2-.4.6-.4 1 0 .8.6 1.4 1.4 1.4.4 0 .7-.2 1-.4l5.9-5.9v33.7c0 .8.6 1.4 1.4 1.4h41.1c.8 0 1.4-.6 1.4-1.4v-33.7l5.9 5.9c.2.2.6.4 1 .4.8 0 1.4-.6 1.4-1.4 0-.3-.1-.7-.4-.9zm-18.8-23.7h5.5v10.4l-5.5-5.5v-4.9zm-19.2 52.1h-11v-2.7h11v2.7zm13.7 0h-11v-21.9h11v21.9zm13.8 0h-11v-2.7h11v2.7zm0-5.5h-11v-17.8c0-.8-.6-1.4-1.4-1.4h-13.7c-.8 0-1.4.6-1.4 1.4v17.8h-11v-29.6l19.2-19.2 19.2 19.2v29.6zm-17.9-2.7c.8 0 1.4-.6 1.4-1.4 0-.8-.6-1.4-1.4-1.4-.8 0-1.4.6-1.4 1.4.1.7.7 1.4 1.4 1.4z"/><path class="st1" d="M153.4 122.7l-10.6-10.6V97.6c0-.8-.6-1.4-1.4-1.4h-8.2c-.8 0-1.4.6-1.4 1.4v3.5l-7.3-7.3c-.2-.2-.6-.4-1-.4s-.7.2-1 .4l-28.8 28.8c-.2.2-.4.6-.4 1 0 .8.6 1.4 1.4 1.4.4 0 .7-.2 1-.4l5.9-5.9v33.7c0 .8.6 1.4 1.4 1.4h41.1c.8 0 1.4-.6 1.4-1.4v-33.7l5.9 5.9c.2.2.6.4 1 .4.8 0 1.4-.6 1.4-1.4 0-.3-.1-.7-.4-.9zM134.6 99h5.5v10.4l-5.5-5.5V99zm-19.2 52.1h-11v-2.7h11v2.7zm13.7 0h-11v-21.9h11v21.9zm13.8 0h-11v-2.7h11v2.7zm0-5.5h-11v-17.8c0-.8-.6-1.4-1.4-1.4h-13.7c-.8 0-1.4.6-1.4 1.4v17.8h-11V116l19.2-19.2 19.2 19.2v29.6zm-17.9-2.7c.8 0 1.4-.6 1.4-1.4 0-.8-.6-1.4-1.4-1.4-.8 0-1.4.6-1.4 1.4.1.7.7 1.4 1.4 1.4z"/><path class="st1" d="M152.9 122.2l-10.6-10.6V97.1c0-.8-.6-1.4-1.4-1.4h-8.2c-.8 0-1.4.6-1.4 1.4v3.5l-7.3-7.3c-.2-.2-.6-.4-1-.4s-.7.2-1 .4l-28.8 28.8c-.2.2-.4.6-.4 1 0 .8.6 1.4 1.4 1.4.4 0 .7-.2 1-.4l5.9-5.9v33.7c0 .8.6 1.4 1.4 1.4h41.1c.8 0 1.4-.6 1.4-1.4v-33.7l5.9 5.9c.2.2.6.4 1 .4.8 0 1.4-.6 1.4-1.4 0-.3-.1-.7-.4-.9zm-18.8-23.7h5.5v10.4l-5.5-5.5v-4.9zm-19.2 52.1h-11v-2.7h11v2.7zm13.7 0h-11v-21.9h11v21.9zm13.8 0h-11v-2.7h11v2.7zm0-5.5h-11v-17.8c0-.8-.6-1.4-1.4-1.4h-13.7c-.8 0-1.4.6-1.4 1.4v17.8h-11v-29.6l19.2-19.2 19.2 19.2v29.6zm-17.9-2.7c.8 0 1.4-.6 1.4-1.4 0-.8-.6-1.4-1.4-1.4-.8 0-1.4.6-1.4 1.4.1.7.7 1.4 1.4 1.4z"/><path class="st1" d="M152.4 121.7l-10.6-10.6V96.6c0-.8-.6-1.4-1.4-1.4h-8.2c-.8 0-1.4.6-1.4 1.4v3.5l-7.3-7.3c-.2-.2-.6-.4-1-.4s-.7.2-1 .4l-28.8 28.8c-.2.2-.4.6-.4 1 0 .8.6 1.4 1.4 1.4.4 0 .7-.2 1-.4l5.9-5.9v33.7c0 .8.6 1.4 1.4 1.4h41.1c.8 0 1.4-.6 1.4-1.4v-33.7l5.9 5.9c.2.2.6.4 1 .4.8 0 1.4-.6 1.4-1.4 0-.3-.1-.7-.4-.9zM133.6 98h5.5v10.4l-5.5-5.5V98zm-19.2 52.1h-11v-2.7h11v2.7zm13.7 0h-11v-21.9h11v21.9zm13.8 0h-11v-2.7h11v2.7zm0-5.5h-11v-17.8c0-.8-.6-1.4-1.4-1.4h-13.7c-.8 0-1.4.6-1.4 1.4v17.8h-11V115l19.2-19.2 19.2 19.2v29.6zm-17.9-2.7c.8 0 1.4-.6 1.4-1.4 0-.8-.6-1.4-1.4-1.4-.8 0-1.4.6-1.4 1.4.1.7.7 1.4 1.4 1.4z"/><path class="st1" d="M151.9 121.2l-10.6-10.6V96.1c0-.8-.6-1.4-1.4-1.4h-8.2c-.8 0-1.4.6-1.4 1.4v3.5l-7.3-7.3c-.2-.2-.6-.4-1-.4s-.7.2-1 .4l-28.8 28.8c-.2.2-.4.6-.4 1 0 .8.6 1.4 1.4 1.4.4 0 .7-.2 1-.4l5.9-5.9v33.7c0 .8.6 1.4 1.4 1.4h41.1c.8 0 1.4-.6 1.4-1.4v-33.7l5.9 5.9c.2.2.6.4 1 .4.8 0 1.4-.6 1.4-1.4 0-.3-.1-.7-.4-.9zm-18.8-23.7h5.5v10.4l-5.5-5.5v-4.9zm-19.2 52.1h-11v-2.7h11v2.7zm13.7 0h-11v-21.9h11v21.9zm13.8 0h-11v-2.7h11v2.7zm0-5.5h-11v-17.8c0-.8-.6-1.4-1.4-1.4h-13.7c-.8 0-1.4.6-1.4 1.4v17.8h-11v-29.6l19.2-19.2 19.2 19.2v29.6zm-17.9-2.7c.8 0 1.4-.6 1.4-1.4 0-.8-.6-1.4-1.4-1.4-.8 0-1.4.6-1.4 1.4.1.7.7 1.4 1.4 1.4z"/><path class="st1" d="M151.4 120.7l-10.6-10.6V95.6c0-.8-.6-1.4-1.4-1.4h-8.2c-.8 0-1.4.6-1.4 1.4v3.5l-7.3-7.3c-.2-.2-.6-.4-1-.4s-.7.2-1 .4l-28.8 28.8c-.2.2-.4.6-.4 1 0 .8.6 1.4 1.4 1.4.4 0 .7-.2 1-.4l5.9-5.9v33.7c0 .8.6 1.4 1.4 1.4h41.1c.8 0 1.4-.6 1.4-1.4v-33.7l5.9 5.9c.2.2.6.4 1 .4.8 0 1.4-.6 1.4-1.4 0-.3-.1-.7-.4-.9zM132.6 97h5.5v10.4l-5.5-5.5V97zm-19.2 52.1h-11v-2.7h11v2.7zm13.7 0h-11v-21.9h11v21.9zm13.8 0h-11v-2.7h11v2.7zm0-5.5h-11v-17.8c0-.8-.6-1.4-1.4-1.4h-13.7c-.8 0-1.4.6-1.4 1.4v17.8h-11V114l19.2-19.2 19.2 19.2v29.6zm-17.9-2.7c.8 0 1.4-.6 1.4-1.4 0-.8-.6-1.4-1.4-1.4-.8 0-1.4.6-1.4 1.4.1.7.7 1.4 1.4 1.4z"/><path class="st1" d="M150.9 120.2l-10.6-10.6V95.1c0-.8-.6-1.4-1.4-1.4h-8.2c-.8 0-1.4.6-1.4 1.4v3.5l-7.3-7.3c-.2-.2-.6-.4-1-.4s-.7.2-1 .4l-28.8 28.8c-.2.2-.4.6-.4 1 0 .8.6 1.4 1.4 1.4.4 0 .7-.2 1-.4l5.9-5.9v33.7c0 .8.6 1.4 1.4 1.4h41.1c.8 0 1.4-.6 1.4-1.4v-33.7l5.9 5.9c.2.2.6.4 1 .4.8 0 1.4-.6 1.4-1.4 0-.3-.1-.7-.4-.9zm-18.8-23.7h5.5v10.4l-5.5-5.5v-4.9zm-19.2 52.1h-11v-2.7h11v2.7zm13.7 0h-11v-21.9h11v21.9zm13.8 0h-11v-2.7h11v2.7zm0-5.5h-11v-17.8c0-.8-.6-1.4-1.4-1.4h-13.7c-.8 0-1.4.6-1.4 1.4v17.8h-11v-29.6l19.2-19.2 19.2 19.2v29.6zm-17.9-2.7c.8 0 1.4-.6 1.4-1.4 0-.8-.6-1.4-1.4-1.4-.8 0-1.4.6-1.4 1.4.1.7.7 1.4 1.4 1.4z"/><path class="st1" d="M150.4 119.7l-10.6-10.6V94.6c0-.8-.6-1.4-1.4-1.4h-8.2c-.8 0-1.4.6-1.4 1.4v3.5l-7.3-7.3c-.2-.2-.6-.4-1-.4s-.7.2-1 .4l-28.8 28.8c-.2.2-.4.6-.4 1 0 .8.6 1.4 1.4 1.4.4 0 .7-.2 1-.4l5.9-5.9v33.7c0 .8.6 1.4 1.4 1.4h41.1c.8 0 1.4-.6 1.4-1.4v-33.7l5.9 5.9c.2.2.6.4 1 .4.8 0 1.4-.6 1.4-1.4 0-.3-.1-.7-.4-.9zM131.6 96h5.5v10.4l-5.5-5.5V96zm-19.2 52.1h-11v-2.7h11v2.7zm13.7 0h-11v-21.9h11v21.9zm13.8 0h-11v-2.7h11v2.7zm0-5.5h-11v-17.8c0-.8-.6-1.4-1.4-1.4h-13.7c-.8 0-1.4.6-1.4 1.4v17.8h-11V113l19.2-19.2 19.2 19.2v29.6zm-17.9-2.7c.8 0 1.4-.6 1.4-1.4 0-.8-.6-1.4-1.4-1.4-.8 0-1.4.6-1.4 1.4.1.7.7 1.4 1.4 1.4z"/><path class="st1" d="M149.9 119.2l-10.6-10.6V94.1c0-.8-.6-1.4-1.4-1.4h-8.2c-.8 0-1.4.6-1.4 1.4v3.5l-7.3-7.3c-.2-.2-.6-.4-1-.4s-.7.2-1 .4l-28.8 28.8c-.2.2-.4.6-.4 1 0 .8.6 1.4 1.4 1.4.4 0 .7-.2 1-.4l5.9-5.9v33.7c0 .8.6 1.4 1.4 1.4h41.1c.8 0 1.4-.6 1.4-1.4v-33.7l5.9 5.9c.2.2.6.4 1 .4.8 0 1.4-.6 1.4-1.4 0-.3-.1-.7-.4-.9zm-18.8-23.7h5.5v10.4l-5.5-5.5v-4.9zm-19.2 52.1h-11v-2.7h11v2.7zm13.7 0h-11v-21.9h11v21.9zm13.8 0h-11v-2.7h11v2.7zm0-5.5h-11v-17.8c0-.8-.6-1.4-1.4-1.4h-13.7c-.8 0-1.4.6-1.4 1.4v17.8h-11v-29.6l19.2-19.2 19.2 19.2v29.6zm-17.9-2.7c.8 0 1.4-.6 1.4-1.4 0-.8-.6-1.4-1.4-1.4-.8 0-1.4.6-1.4 1.4.1.7.7 1.4 1.4 1.4z"/><path class="st1" d="M149.4 118.7l-10.6-10.6V93.6c0-.8-.6-1.4-1.4-1.4h-8.2c-.8 0-1.4.6-1.4 1.4v3.5l-7.3-7.3c-.2-.2-.6-.4-1-.4s-.7.2-1 .4l-28.8 28.8c-.2.2-.4.6-.4 1 0 .8.6 1.4 1.4 1.4.4 0 .7-.2 1-.4l5.9-5.9v33.7c0 .8.6 1.4 1.4 1.4h41.1c.8 0 1.4-.6 1.4-1.4v-33.7l5.9 5.9c.2.2.6.4 1 .4.8 0 1.4-.6 1.4-1.4 0-.3-.1-.7-.4-.9zM130.6 95h5.5v10.4l-5.5-5.5V95zm-19.2 52.1h-11v-2.7h11v2.7zm13.7 0h-11v-21.9h11v21.9zm13.8 0h-11v-2.7h11v2.7zm0-5.5h-11v-17.8c0-.8-.6-1.4-1.4-1.4h-13.7c-.8 0-1.4.6-1.4 1.4v17.8h-11V112l19.2-19.2 19.2 19.2v29.6zm-17.9-2.7c.8 0 1.4-.6 1.4-1.4 0-.8-.6-1.4-1.4-1.4-.8 0-1.4.6-1.4 1.4.1.7.7 1.4 1.4 1.4z"/><path class="st1" d="M148.9 118.2l-10.6-10.6V93.1c0-.8-.6-1.4-1.4-1.4h-8.2c-.8 0-1.4.6-1.4 1.4v3.5l-7.3-7.3c-.2-.2-.6-.4-1-.4s-.7.2-1 .4l-28.8 28.8c-.2.2-.4.6-.4 1 0 .8.6 1.4 1.4 1.4.4 0 .7-.2 1-.4l5.9-5.9v33.7c0 .8.6 1.4 1.4 1.4h41.1c.8 0 1.4-.6 1.4-1.4v-33.7l5.9 5.9c.2.2.6.4 1 .4.8 0 1.4-.6 1.4-1.4 0-.3-.1-.7-.4-.9zm-18.8-23.7h5.5v10.4l-5.5-5.5v-4.9zm-19.2 52.1h-11v-2.7h11v2.7zm13.7 0h-11v-21.9h11v21.9zm13.8 0h-11v-2.7h11v2.7zm0-5.5h-11v-17.8c0-.8-.6-1.4-1.4-1.4h-13.7c-.8 0-1.4.6-1.4 1.4v17.8h-11v-29.6l19.2-19.2 19.2 19.2v29.6zm-17.9-2.7c.8 0 1.4-.6 1.4-1.4 0-.8-.6-1.4-1.4-1.4-.8 0-1.4.6-1.4 1.4.1.7.7 1.4 1.4 1.4z"/><path class="st1" d="M148.4 117.7l-10.6-10.6V92.6c0-.8-.6-1.4-1.4-1.4h-8.2c-.8 0-1.4.6-1.4 1.4v3.5l-7.3-7.3c-.2-.2-.6-.4-1-.4s-.7.2-1 .4l-28.8 28.8c-.2.2-.4.6-.4 1 0 .8.6 1.4 1.4 1.4.4 0 .7-.2 1-.4l5.9-5.9v33.7c0 .8.6 1.4 1.4 1.4h41.1c.8 0 1.4-.6 1.4-1.4v-33.7l5.9 5.9c.2.2.6.4 1 .4.8 0 1.4-.6 1.4-1.4 0-.3-.1-.7-.4-.9zM129.6 94h5.5v10.4l-5.5-5.5V94zm-19.2 52.1h-11v-2.7h11v2.7zm13.7 0h-11v-21.9h11v21.9zm13.8 0h-11v-2.7h11v2.7zm0-5.5h-11v-17.8c0-.8-.6-1.4-1.4-1.4h-13.7c-.8 0-1.4.6-1.4 1.4v17.8h-11V111l19.2-19.2 19.2 19.2v29.6zm-17.9-2.7c.8 0 1.4-.6 1.4-1.4 0-.8-.6-1.4-1.4-1.4-.8 0-1.4.6-1.4 1.4.1.7.7 1.4 1.4 1.4z"/><path class="st1" d="M147.9 117.2l-10.6-10.6V92.1c0-.8-.6-1.4-1.4-1.4h-8.2c-.8 0-1.4.6-1.4 1.4v3.5l-7.3-7.3c-.2-.2-.6-.4-1-.4s-.7.2-1 .4l-28.8 28.8c-.2.2-.4.6-.4 1 0 .8.6 1.4 1.4 1.4.4 0 .7-.2 1-.4l5.9-5.9v33.7c0 .8.6 1.4 1.4 1.4h41.1c.8 0 1.4-.6 1.4-1.4v-33.7l5.9 5.9c.2.2.6.4 1 .4.8 0 1.4-.6 1.4-1.4 0-.3-.1-.7-.4-.9zm-18.8-23.7h5.5v10.4l-5.5-5.5v-4.9zm-19.2 52.1H99v-2.7h11v2.7zm13.7 0h-11v-21.9h11v21.9zm13.8 0h-11v-2.7h11v2.7zm0-5.5h-11v-17.8c0-.8-.6-1.4-1.4-1.4h-13.7c-.8 0-1.4.6-1.4 1.4v17.8H99v-29.6l19.2-19.2 19.2 19.2v29.6zm-17.9-2.7c.8 0 1.4-.6 1.4-1.4 0-.8-.6-1.4-1.4-1.4-.8 0-1.4.6-1.4 1.4.1.7.7 1.4 1.4 1.4z"/><path class="st1" d="M147.4 116.7l-10.6-10.6V91.6c0-.8-.6-1.4-1.4-1.4h-8.2c-.8 0-1.4.6-1.4 1.4v3.5l-7.3-7.3c-.2-.2-.6-.4-1-.4s-.7.2-1 .4l-28.8 28.8c-.2.2-.4.6-.4 1 0 .8.6 1.4 1.4 1.4.4 0 .7-.2 1-.4l5.9-5.9v33.7c0 .8.6 1.4 1.4 1.4h41.1c.8 0 1.4-.6 1.4-1.4v-33.7l5.9 5.9c.2.2.6.4 1 .4.8 0 1.4-.6 1.4-1.4 0-.3-.1-.7-.4-.9zM128.6 93h5.5v10.4l-5.5-5.5V93zm-19.2 52.1h-11v-2.7h11v2.7zm13.7 0h-11v-21.9h11v21.9zm13.8 0h-11v-2.7h11v2.7zm0-5.5h-11v-17.8c0-.8-.6-1.4-1.4-1.4h-13.7c-.8 0-1.4.6-1.4 1.4v17.8h-11V110l19.2-19.2 19.2 19.2v29.6zm-17.9-2.7c.8 0 1.4-.6 1.4-1.4 0-.8-.6-1.4-1.4-1.4-.8 0-1.4.6-1.4 1.4.1.7.7 1.4 1.4 1.4z"/><path class="st1" d="M146.9 116.2l-10.6-10.6V91.1c0-.8-.6-1.4-1.4-1.4h-8.2c-.8 0-1.4.6-1.4 1.4v3.5l-7.3-7.3c-.2-.2-.6-.4-1-.4s-.7.2-1 .4l-28.8 28.8c-.2.2-.4.6-.4 1 0 .8.6 1.4 1.4 1.4.4 0 .7-.2 1-.4l5.9-5.9v33.7c0 .8.6 1.4 1.4 1.4h41.1c.8 0 1.4-.6 1.4-1.4v-33.7l5.9 5.9c.2.2.6.4 1 .4.8 0 1.4-.6 1.4-1.4 0-.3-.1-.7-.4-.9zm-18.8-23.7h5.5v10.4l-5.5-5.5v-4.9zm-19.2 52.1H98v-2.7h11v2.7zm13.7 0h-11v-21.9h11v21.9zm13.8 0h-11v-2.7h11v2.7zm0-5.5h-11v-17.8c0-.8-.6-1.4-1.4-1.4h-13.7c-.8 0-1.4.6-1.4 1.4v17.8H98v-29.6l19.2-19.2 19.2 19.2v29.6zm-17.9-2.7c.8 0 1.4-.6 1.4-1.4 0-.8-.6-1.4-1.4-1.4-.8 0-1.4.6-1.4 1.4.1.7.7 1.4 1.4 1.4z"/><path class="st1" d="M146.4 115.7l-10.6-10.6V90.6c0-.8-.6-1.4-1.4-1.4h-8.2c-.8 0-1.4.6-1.4 1.4v3.5l-7.3-7.3c-.2-.2-.6-.4-1-.4s-.7.2-1 .4l-28.8 28.8c-.2.2-.4.6-.4 1 0 .8.6 1.4 1.4 1.4.4 0 .7-.2 1-.4l5.9-5.9v33.7c0 .8.6 1.4 1.4 1.4h41.1c.8 0 1.4-.6 1.4-1.4v-33.7l5.9 5.9c.2.2.6.4 1 .4.8 0 1.4-.6 1.4-1.4 0-.3-.1-.7-.4-.9zM127.6 92h5.5v10.4l-5.5-5.5V92zm-19.2 52.1h-11v-2.7h11v2.7zm13.7 0h-11v-21.9h11v21.9zm13.8 0h-11v-2.7h11v2.7zm0-5.5h-11v-17.8c0-.8-.6-1.4-1.4-1.4h-13.7c-.8 0-1.4.6-1.4 1.4v17.8h-11V109l19.2-19.2 19.2 19.2v29.6zm-17.9-2.7c.8 0 1.4-.6 1.4-1.4 0-.8-.6-1.4-1.4-1.4-.8 0-1.4.6-1.4 1.4.1.7.7 1.4 1.4 1.4z"/><path class="st1" d="M145.9 115.2l-10.6-10.6V90.1c0-.8-.6-1.4-1.4-1.4h-8.2c-.8 0-1.4.6-1.4 1.4v3.5l-7.3-7.3c-.2-.2-.6-.4-1-.4s-.7.2-1 .4l-28.8 28.8c-.2.2-.4.6-.4 1 0 .8.6 1.4 1.4 1.4.4 0 .7-.2 1-.4l5.9-5.9v33.7c0 .8.6 1.4 1.4 1.4h41.1c.8 0 1.4-.6 1.4-1.4v-33.7l5.9 5.9c.2.2.6.4 1 .4.8 0 1.4-.6 1.4-1.4 0-.3-.1-.7-.4-.9zm-18.8-23.7h5.5v10.4l-5.5-5.5v-4.9zm-19.2 52.1H97v-2.7h11v2.7zm13.7 0h-11v-21.9h11v21.9zm13.8 0h-11v-2.7h11v2.7zm0-5.5h-11v-17.8c0-.8-.6-1.4-1.4-1.4h-13.7c-.8 0-1.4.6-1.4 1.4v17.8H97v-29.6l19.2-19.2 19.2 19.2v29.6zm-17.9-2.7c.8 0 1.4-.6 1.4-1.4 0-.8-.6-1.4-1.4-1.4-.8 0-1.4.6-1.4 1.4.1.7.7 1.4 1.4 1.4z"/><path class="st1" d="M145.4 114.7l-10.6-10.6V89.6c0-.8-.6-1.4-1.4-1.4h-8.2c-.8 0-1.4.6-1.4 1.4v3.5l-7.3-7.3c-.2-.2-.6-.4-1-.4s-.7.2-1 .4l-28.8 28.8c-.2.2-.4.6-.4 1 0 .8.6 1.4 1.4 1.4.4 0 .7-.2 1-.4l5.9-5.9v33.7c0 .8.6 1.4 1.4 1.4h41.1c.8 0 1.4-.6 1.4-1.4v-33.7l5.9 5.9c.2.2.6.4 1 .4.8 0 1.4-.6 1.4-1.4 0-.3-.1-.7-.4-.9zM126.6 91h5.5v10.4l-5.5-5.5V91zm-19.2 52.1h-11v-2.7h11v2.7zm13.7 0h-11v-21.9h11v21.9zm13.8 0h-11v-2.7h11v2.7zm0-5.5h-11v-17.8c0-.8-.6-1.4-1.4-1.4h-13.7c-.8 0-1.4.6-1.4 1.4v17.8h-11V108l19.2-19.2 19.2 19.2v29.6zm-17.9-2.7c.8 0 1.4-.6 1.4-1.4 0-.8-.6-1.4-1.4-1.4-.8 0-1.4.6-1.4 1.4.1.7.7 1.4 1.4 1.4z"/><path class="st1" d="M144.9 114.2l-10.6-10.6V89.1c0-.8-.6-1.4-1.4-1.4h-8.2c-.8 0-1.4.6-1.4 1.4v3.5l-7.3-7.3c-.2-.2-.6-.4-1-.4s-.7.2-1 .4l-28.8 28.8c-.2.2-.4.6-.4 1 0 .8.6 1.4 1.4 1.4.4 0 .7-.2 1-.4l5.9-5.9v33.7c0 .8.6 1.4 1.4 1.4h41.1c.8 0 1.4-.6 1.4-1.4v-33.7l5.9 5.9c.2.2.6.4 1 .4.8 0 1.4-.6 1.4-1.4 0-.3-.1-.7-.4-.9zm-18.8-23.7h5.5v10.4l-5.5-5.5v-4.9zm-19.2 52.1H96v-2.7h11v2.7zm13.7 0h-11v-21.9h11v21.9zm13.8 0h-11v-2.7h11v2.7zm0-5.5h-11v-17.8c0-.8-.6-1.4-1.4-1.4h-13.7c-.8 0-1.4.6-1.4 1.4v17.8H96v-29.6l19.2-19.2 19.2 19.2v29.6zm-17.9-2.7c.8 0 1.4-.6 1.4-1.4 0-.8-.6-1.4-1.4-1.4-.8 0-1.4.6-1.4 1.4.1.7.7 1.4 1.4 1.4z"/><path class="st1" d="M144.4 113.7l-10.6-10.6V88.6c0-.8-.6-1.4-1.4-1.4h-8.2c-.8 0-1.4.6-1.4 1.4v3.5l-7.3-7.3c-.2-.2-.6-.4-1-.4s-.7.2-1 .4l-28.8 28.8c-.2.2-.4.6-.4 1 0 .8.6 1.4 1.4 1.4.4 0 .7-.2 1-.4l5.9-5.9v33.7c0 .8.6 1.4 1.4 1.4h41.1c.8 0 1.4-.6 1.4-1.4v-33.7l5.9 5.9c.2.2.6.4 1 .4.8 0 1.4-.6 1.4-1.4 0-.3-.1-.7-.4-.9zM125.6 90h5.5v10.4l-5.5-5.5V90zm-19.2 52.1h-11v-2.7h11v2.7zm13.7 0h-11v-21.9h11v21.9zm13.8 0h-11v-2.7h11v2.7zm0-5.5h-11v-17.8c0-.8-.6-1.4-1.4-1.4h-13.7c-.8 0-1.4.6-1.4 1.4v17.8h-11V107l19.2-19.2 19.2 19.2v29.6zm-17.9-2.7c.8 0 1.4-.6 1.4-1.4 0-.8-.6-1.4-1.4-1.4-.8 0-1.4.6-1.4 1.4.1.7.7 1.4 1.4 1.4z"/><path class="st1" d="M143.9 113.2l-10.6-10.6V88.1c0-.8-.6-1.4-1.4-1.4h-8.2c-.8 0-1.4.6-1.4 1.4v3.5l-7.3-7.3c-.2-.2-.6-.4-1-.4s-.7.2-1 .4l-28.8 28.8c-.2.2-.4.6-.4 1 0 .8.6 1.4 1.4 1.4.4 0 .7-.2 1-.4l5.9-5.9v33.7c0 .8.6 1.4 1.4 1.4h41.1c.8 0 1.4-.6 1.4-1.4v-33.7l5.9 5.9c.2.2.6.4 1 .4.8 0 1.4-.6 1.4-1.4 0-.3-.1-.7-.4-.9zm-18.8-23.7h5.5v10.4l-5.5-5.5v-4.9zm-19.2 52.1H95v-2.7h11v2.7zm13.7 0h-11v-21.9h11v21.9zm13.8 0h-11v-2.7h11v2.7zm0-5.5h-11v-17.8c0-.8-.6-1.4-1.4-1.4h-13.7c-.8 0-1.4.6-1.4 1.4v17.8H95v-29.6l19.2-19.2 19.2 19.2v29.6zm-17.9-2.7c.8 0 1.4-.6 1.4-1.4 0-.8-.6-1.4-1.4-1.4-.8 0-1.4.6-1.4 1.4.1.7.7 1.4 1.4 1.4z"/><path class="st1" d="M143.4 112.7l-10.6-10.6V87.6c0-.8-.6-1.4-1.4-1.4h-8.2c-.8 0-1.4.6-1.4 1.4v3.5l-7.3-7.3c-.2-.2-.6-.4-1-.4s-.7.2-1 .4l-28.8 28.8c-.2.2-.4.6-.4 1 0 .8.6 1.4 1.4 1.4.4 0 .7-.2 1-.4l5.9-5.9v33.7c0 .8.6 1.4 1.4 1.4h41.1c.8 0 1.4-.6 1.4-1.4v-33.7l5.9 5.9c.2.2.6.4 1 .4.8 0 1.4-.6 1.4-1.4 0-.3-.1-.7-.4-.9zM124.6 89h5.5v10.4l-5.5-5.5V89zm-19.2 52.1h-11v-2.7h11v2.7zm13.7 0h-11v-21.9h11v21.9zm13.8 0h-11v-2.7h11v2.7zm0-5.5h-11v-17.8c0-.8-.6-1.4-1.4-1.4h-13.7c-.8 0-1.4.6-1.4 1.4v17.8h-11V106l19.2-19.2 19.2 19.2v29.6zm-17.9-2.7c.8 0 1.4-.6 1.4-1.4 0-.8-.6-1.4-1.4-1.4-.8 0-1.4.6-1.4 1.4.1.7.7 1.4 1.4 1.4z"/><path class="st1" d="M142.9 112.2l-10.6-10.6V87.1c0-.8-.6-1.4-1.4-1.4h-8.2c-.8 0-1.4.6-1.4 1.4v3.5l-7.3-7.3c-.2-.2-.6-.4-1-.4s-.7.2-1 .4l-28.8 28.8c-.2.2-.4.6-.4 1 0 .8.6 1.4 1.4 1.4.4 0 .7-.2 1-.4l5.9-5.9v33.7c0 .8.6 1.4 1.4 1.4h41.1c.8 0 1.4-.6 1.4-1.4v-33.7l5.9 5.9c.2.2.6.4 1 .4.8 0 1.4-.6 1.4-1.4 0-.3-.1-.7-.4-.9zm-18.8-23.7h5.5v10.4l-5.5-5.5v-4.9zm-19.2 52.1H94v-2.7h11v2.7zm13.7 0h-11v-21.9h11v21.9zm13.8 0h-11v-2.7h11v2.7zm0-5.5h-11v-17.8c0-.8-.6-1.4-1.4-1.4h-13.7c-.8 0-1.4.6-1.4 1.4v17.8H94v-29.6l19.2-19.2 19.2 19.2v29.6zm-17.9-2.7c.8 0 1.4-.6 1.4-1.4 0-.8-.6-1.4-1.4-1.4-.8 0-1.4.6-1.4 1.4.1.7.7 1.4 1.4 1.4z"/><path class="st1" d="M142.4 111.7l-10.6-10.6V86.6c0-.8-.6-1.4-1.4-1.4h-8.2c-.8 0-1.4.6-1.4 1.4v3.5l-7.3-7.3c-.2-.2-.6-.4-1-.4s-.7.2-1 .4l-28.8 28.8c-.2.2-.4.6-.4 1 0 .8.6 1.4 1.4 1.4.4 0 .7-.2 1-.4l5.9-5.9v33.7c0 .8.6 1.4 1.4 1.4h41.1c.8 0 1.4-.6 1.4-1.4v-33.7l5.9 5.9c.2.2.6.4 1 .4.8 0 1.4-.6 1.4-1.4 0-.3-.1-.7-.4-.9zM123.6 88h5.5v10.4l-5.5-5.5V88zm-19.2 52.1h-11v-2.7h11v2.7zm13.7 0h-11v-21.9h11v21.9zm13.8 0h-11v-2.7h11v2.7zm0-5.5h-11v-17.8c0-.8-.6-1.4-1.4-1.4h-13.7c-.8 0-1.4.6-1.4 1.4v17.8h-11V105l19.2-19.2 19.2 19.2v29.6zm-17.9-2.7c.8 0 1.4-.6 1.4-1.4 0-.8-.6-1.4-1.4-1.4-.8 0-1.4.6-1.4 1.4.1.7.7 1.4 1.4 1.4z"/><path class="st1" d="M141.9 111.2l-10.6-10.6V86.1c0-.8-.6-1.4-1.4-1.4h-8.2c-.8 0-1.4.6-1.4 1.4v3.5l-7.3-7.3c-.2-.2-.6-.4-1-.4s-.7.2-1 .4l-28.8 28.8c-.2.2-.4.6-.4 1 0 .8.6 1.4 1.4 1.4.4 0 .7-.2 1-.4l5.9-5.9v33.7c0 .8.6 1.4 1.4 1.4h41.1c.8 0 1.4-.6 1.4-1.4v-33.7l5.9 5.9c.2.2.6.4 1 .4.8 0 1.4-.6 1.4-1.4 0-.3-.1-.7-.4-.9zm-18.8-23.7h5.5v10.4l-5.5-5.5v-4.9zm-19.2 52.1H93v-2.7h11v2.7zm13.7 0h-11v-21.9h11v21.9zm13.8 0h-11v-2.7h11v2.7zm0-5.5h-11v-17.8c0-.8-.6-1.4-1.4-1.4h-13.7c-.8 0-1.4.6-1.4 1.4v17.8H93v-29.6l19.2-19.2 19.2 19.2v29.6zm-17.9-2.7c.8 0 1.4-.6 1.4-1.4 0-.8-.6-1.4-1.4-1.4-.8 0-1.4.6-1.4 1.4.1.7.7 1.4 1.4 1.4z"/><path class="st1" d="M141.4 110.7l-10.6-10.6V85.6c0-.8-.6-1.4-1.4-1.4h-8.2c-.8 0-1.4.6-1.4 1.4v3.5l-7.3-7.3c-.2-.2-.6-.4-1-.4s-.7.2-1 .4l-28.8 28.8c-.2.2-.4.6-.4 1 0 .8.6 1.4 1.4 1.4.4 0 .7-.2 1-.4l5.9-5.9v33.7c0 .8.6 1.4 1.4 1.4h41.1c.8 0 1.4-.6 1.4-1.4v-33.7l5.9 5.9c.2.2.6.4 1 .4.8 0 1.4-.6 1.4-1.4 0-.3-.1-.7-.4-.9zM122.6 87h5.5v10.4l-5.5-5.5V87zm-19.2 52.1h-11v-2.7h11v2.7zm13.7 0h-11v-21.9h11v21.9zm13.8 0h-11v-2.7h11v2.7zm0-5.5h-11v-17.8c0-.8-.6-1.4-1.4-1.4h-13.7c-.8 0-1.4.6-1.4 1.4v17.8h-11V104l19.2-19.2 19.2 19.2v29.6zm-17.9-2.7c.8 0 1.4-.6 1.4-1.4 0-.8-.6-1.4-1.4-1.4-.8 0-1.4.6-1.4 1.4.1.7.7 1.4 1.4 1.4z"/><path class="st1" d="M140.9 110.2l-10.6-10.6V85.1c0-.8-.6-1.4-1.4-1.4h-8.2c-.8 0-1.4.6-1.4 1.4v3.5l-7.3-7.3c-.2-.2-.6-.4-1-.4s-.7.2-1 .4l-28.8 28.8c-.2.2-.4.6-.4 1 0 .8.6 1.4 1.4 1.4.4 0 .7-.2 1-.4l5.9-5.9v33.7c0 .8.6 1.4 1.4 1.4h41.1c.8 0 1.4-.6 1.4-1.4v-33.7l5.9 5.9c.2.2.6.4 1 .4.8 0 1.4-.6 1.4-1.4 0-.3-.1-.7-.4-.9zm-18.8-23.7h5.5v10.4l-5.5-5.5v-4.9zm-19.2 52.1H92v-2.7h11v2.7zm13.7 0h-11v-21.9h11v21.9zm13.8 0h-11v-2.7h11v2.7zm0-5.5h-11v-17.8c0-.8-.6-1.4-1.4-1.4h-13.7c-.8 0-1.4.6-1.4 1.4v17.8H92v-29.6l19.2-19.2 19.2 19.2v29.6zm-17.9-2.7c.8 0 1.4-.6 1.4-1.4 0-.8-.6-1.4-1.4-1.4-.8 0-1.4.6-1.4 1.4.1.7.7 1.4 1.4 1.4z"/><path class="st1" d="M140.4 109.7l-10.6-10.6V84.6c0-.8-.6-1.4-1.4-1.4h-8.2c-.8 0-1.4.6-1.4 1.4v3.5l-7.3-7.3c-.2-.2-.6-.4-1-.4s-.7.2-1 .4l-28.8 28.8c-.2.2-.4.6-.4 1 0 .8.6 1.4 1.4 1.4.4 0 .7-.2 1-.4l5.9-5.9v33.7c0 .8.6 1.4 1.4 1.4h41.1c.8 0 1.4-.6 1.4-1.4v-33.7l5.9 5.9c.2.2.6.4 1 .4.8 0 1.4-.6 1.4-1.4 0-.3-.1-.7-.4-.9zM121.6 86h5.5v10.4l-5.5-5.5V86zm-19.2 52.1h-11v-2.7h11v2.7zm13.7 0h-11v-21.9h11v21.9zm13.8 0h-11v-2.7h11v2.7zm0-5.5h-11v-17.8c0-.8-.6-1.4-1.4-1.4h-13.7c-.8 0-1.4.6-1.4 1.4v17.8h-11V103l19.2-19.2 19.2 19.2v29.6zm-17.9-2.7c.8 0 1.4-.6 1.4-1.4 0-.8-.6-1.4-1.4-1.4-.8 0-1.4.6-1.4 1.4.1.7.7 1.4 1.4 1.4z"/><path class="st1" d="M139.9 109.2l-10.6-10.6V84.1c0-.8-.6-1.4-1.4-1.4h-8.2c-.8 0-1.4.6-1.4 1.4v3.5l-7.3-7.3c-.2-.2-.6-.4-1-.4s-.7.2-1 .4l-28.8 28.8c-.2.2-.4.6-.4 1 0 .8.6 1.4 1.4 1.4.4 0 .7-.2 1-.4l5.9-5.9v33.7c0 .8.6 1.4 1.4 1.4h41.1c.8 0 1.4-.6 1.4-1.4v-33.7l5.9 5.9c.2.2.6.4 1 .4.8 0 1.4-.6 1.4-1.4 0-.3-.1-.7-.4-.9zm-18.8-23.7h5.5v10.4l-5.5-5.5v-4.9zm-19.2 52.1H91v-2.7h11v2.7zm13.7 0h-11v-21.9h11v21.9zm13.8 0h-11v-2.7h11v2.7zm0-5.5h-11v-17.8c0-.8-.6-1.4-1.4-1.4h-13.7c-.8 0-1.4.6-1.4 1.4v17.8H91v-29.6l19.2-19.2 19.2 19.2v29.6zm-17.9-2.7c.8 0 1.4-.6 1.4-1.4 0-.8-.6-1.4-1.4-1.4-.8 0-1.4.6-1.4 1.4.1.7.7 1.4 1.4 1.4z"/><path class="st1" d="M139.4 108.7l-10.6-10.6V83.6c0-.8-.6-1.4-1.4-1.4h-8.2c-.8 0-1.4.6-1.4 1.4v3.5l-7.3-7.3c-.2-.2-.6-.4-1-.4s-.7.2-1 .4l-28.8 28.8c-.2.2-.4.6-.4 1 0 .8.6 1.4 1.4 1.4.4 0 .7-.2 1-.4l5.9-5.9v33.7c0 .8.6 1.4 1.4 1.4h41.1c.8 0 1.4-.6 1.4-1.4v-33.7l5.9 5.9c.2.2.6.4 1 .4.8 0 1.4-.6 1.4-1.4 0-.3-.1-.7-.4-.9zM120.6 85h5.5v10.4l-5.5-5.5V85zm-19.2 52.1h-11v-2.7h11v2.7zm13.7 0h-11v-21.9h11v21.9zm13.8 0h-11v-2.7h11v2.7zm0-5.5h-11v-17.8c0-.8-.6-1.4-1.4-1.4h-13.7c-.8 0-1.4.6-1.4 1.4v17.8h-11V102l19.2-19.2 19.2 19.2v29.6zm-17.9-2.7c.8 0 1.4-.6 1.4-1.4 0-.8-.6-1.4-1.4-1.4-.8 0-1.4.6-1.4 1.4.1.7.7 1.4 1.4 1.4z"/><path class="st1" d="M138.9 108.2l-10.6-10.6V83.1c0-.8-.6-1.4-1.4-1.4h-8.2c-.8 0-1.4.6-1.4 1.4v3.5l-7.3-7.3c-.2-.2-.6-.4-1-.4s-.7.2-1 .4l-28.8 28.8c-.2.2-.4.6-.4 1 0 .8.6 1.4 1.4 1.4.4 0 .7-.2 1-.4l5.9-5.9v33.7c0 .8.6 1.4 1.4 1.4h41.1c.8 0 1.4-.6 1.4-1.4v-33.7l5.9 5.9c.2.2.6.4 1 .4.8 0 1.4-.6 1.4-1.4 0-.3-.1-.7-.4-.9zm-18.8-23.7h5.5v10.4l-5.5-5.5v-4.9zm-19.2 52.1H90v-2.7h11v2.7zm13.7 0h-11v-21.9h11v21.9zm13.8 0h-11v-2.7h11v2.7zm0-5.5h-11v-17.8c0-.8-.6-1.4-1.4-1.4h-13.7c-.8 0-1.4.6-1.4 1.4v17.8H90v-29.6l19.2-19.2 19.2 19.2v29.6zm-17.9-2.7c.8 0 1.4-.6 1.4-1.4 0-.8-.6-1.4-1.4-1.4-.8 0-1.4.6-1.4 1.4.1.7.7 1.4 1.4 1.4z"/><path class="st1" d="M138.4 107.7l-10.6-10.6V82.6c0-.8-.6-1.4-1.4-1.4h-8.2c-.8 0-1.4.6-1.4 1.4v3.5l-7.3-7.3c-.2-.2-.6-.4-1-.4s-.7.2-1 .4l-28.8 28.8c-.2.2-.4.6-.4 1 0 .8.6 1.4 1.4 1.4.4 0 .7-.2 1-.4l5.9-5.9v33.7c0 .8.6 1.4 1.4 1.4h41.1c.8 0 1.4-.6 1.4-1.4v-33.7l5.9 5.9c.2.2.6.4 1 .4.8 0 1.4-.6 1.4-1.4 0-.3-.1-.7-.4-.9zM119.6 84h5.5v10.4l-5.5-5.5V84zm-19.2 52.1h-11v-2.7h11v2.7zm13.7 0h-11v-21.9h11v21.9zm13.8 0h-11v-2.7h11v2.7zm0-5.5h-11v-17.8c0-.8-.6-1.4-1.4-1.4h-13.7c-.8 0-1.4.6-1.4 1.4v17.8h-11V101l19.2-19.2 19.2 19.2v29.6zm-17.9-2.7c.8 0 1.4-.6 1.4-1.4 0-.8-.6-1.4-1.4-1.4-.8 0-1.4.6-1.4 1.4.1.7.7 1.4 1.4 1.4z"/><path class="st1" d="M137.9 107.2l-10.6-10.6V82.1c0-.8-.6-1.4-1.4-1.4h-8.2c-.8 0-1.4.6-1.4 1.4v3.5l-7.3-7.3c-.2-.2-.6-.4-1-.4s-.7.2-1 .4l-28.8 28.8c-.2.2-.4.6-.4 1 0 .8.6 1.4 1.4 1.4.4 0 .7-.2 1-.4l5.9-5.9v33.7c0 .8.6 1.4 1.4 1.4h41.1c.8 0 1.4-.6 1.4-1.4v-33.7l5.9 5.9c.2.2.6.4 1 .4.8 0 1.4-.6 1.4-1.4 0-.3-.1-.7-.4-.9zm-18.8-23.7h5.5v10.4l-5.5-5.5v-4.9zm-19.2 52.1H89v-2.7h11v2.7zm13.7 0h-11v-21.9h11v21.9zm13.8 0h-11v-2.7h11v2.7zm0-5.5h-11v-17.8c0-.8-.6-1.4-1.4-1.4h-13.7c-.8 0-1.4.6-1.4 1.4v17.8H89v-29.6l19.2-19.2 19.2 19.2v29.6zm-17.9-2.7c.8 0 1.4-.6 1.4-1.4 0-.8-.6-1.4-1.4-1.4-.8 0-1.4.6-1.4 1.4.1.7.7 1.4 1.4 1.4z"/><path class="st1" d="M137.4 106.7l-10.6-10.6V81.6c0-.8-.6-1.4-1.4-1.4h-8.2c-.8 0-1.4.6-1.4 1.4v3.5l-7.3-7.3c-.2-.2-.6-.4-1-.4s-.7.2-1 .4l-28.8 28.8c-.2.2-.4.6-.4 1 0 .8.6 1.4 1.4 1.4.4 0 .7-.2 1-.4l5.9-5.9v33.7c0 .8.6 1.4 1.4 1.4h41.1c.8 0 1.4-.6 1.4-1.4v-33.7l5.9 5.9c.2.2.6.4 1 .4.8 0 1.4-.6 1.4-1.4 0-.3-.1-.7-.4-.9zM118.6 83h5.5v10.4l-5.5-5.5V83zm-19.2 52.1h-11v-2.7h11v2.7zm13.7 0h-11v-21.9h11v21.9zm13.8 0h-11v-2.7h11v2.7zm0-5.5h-11v-17.8c0-.8-.6-1.4-1.4-1.4h-13.7c-.8 0-1.4.6-1.4 1.4v17.8h-11V100l19.2-19.2 19.2 19.2v29.6zm-17.9-2.7c.8 0 1.4-.6 1.4-1.4 0-.8-.6-1.4-1.4-1.4-.8 0-1.4.6-1.4 1.4.1.7.7 1.4 1.4 1.4z"/><path class="st1" d="M136.9 106.2l-10.6-10.6V81.1c0-.8-.6-1.4-1.4-1.4h-8.2c-.8 0-1.4.6-1.4 1.4v3.5l-7.3-7.3c-.2-.2-.6-.4-1-.4s-.7.2-1 .4l-28.8 28.8c-.2.2-.4.6-.4 1 0 .8.6 1.4 1.4 1.4.4 0 .7-.2 1-.4l5.9-5.9v33.7c0 .8.6 1.4 1.4 1.4h41.1c.8 0 1.4-.6 1.4-1.4v-33.7l5.9 5.9c.2.2.6.4 1 .4.8 0 1.4-.6 1.4-1.4 0-.3-.1-.7-.4-.9zm-18.8-23.7h5.5v10.4l-5.5-5.5v-4.9zm-19.2 52.1H88v-2.7h11v2.7zm13.7 0h-11v-21.9h11v21.9zm13.8 0h-11v-2.7h11v2.7zm0-5.5h-11v-17.8c0-.8-.6-1.4-1.4-1.4h-13.7c-.8 0-1.4.6-1.4 1.4v17.8H88V99.5l19.2-19.2 19.2 19.2v29.6zm-17.9-2.7c.8 0 1.4-.6 1.4-1.4 0-.8-.6-1.4-1.4-1.4-.8 0-1.4.6-1.4 1.4.1.7.7 1.4 1.4 1.4z"/><path class="st1" d="M136.4 105.7l-10.6-10.6V80.6c0-.8-.6-1.4-1.4-1.4h-8.2c-.8 0-1.4.6-1.4 1.4v3.5l-7.3-7.3c-.2-.2-.6-.4-1-.4s-.7.2-1 .4l-28.8 28.8c-.2.2-.4.6-.4 1 0 .8.6 1.4 1.4 1.4.4 0 .7-.2 1-.4l5.9-5.9v33.7c0 .8.6 1.4 1.4 1.4h41.1c.8 0 1.4-.6 1.4-1.4v-33.7l5.9 5.9c.2.2.6.4 1 .4.8 0 1.4-.6 1.4-1.4 0-.3-.1-.7-.4-.9zM117.6 82h5.5v10.4l-5.5-5.5V82zm-19.2 52.1h-11v-2.7h11v2.7zm13.7 0h-11v-21.9h11v21.9zm13.8 0h-11v-2.7h11v2.7zm0-5.5h-11v-17.8c0-.8-.6-1.4-1.4-1.4H99.8c-.8 0-1.4.6-1.4 1.4v17.8h-11V99l19.2-19.2L125.9 99v29.6zm-17.9-2.7c.8 0 1.4-.6 1.4-1.4 0-.8-.6-1.4-1.4-1.4-.8 0-1.4.6-1.4 1.4.1.7.7 1.4 1.4 1.4z"/><path class="st1" d="M135.9 105.2l-10.6-10.6V80.1c0-.8-.6-1.4-1.4-1.4h-8.2c-.8 0-1.4.6-1.4 1.4v3.5l-7.3-7.3c-.2-.2-.6-.4-1-.4s-.7.2-1 .4l-28.8 28.8c-.2.2-.4.6-.4 1 0 .8.6 1.4 1.4 1.4.4 0 .7-.2 1-.4l5.9-5.9v33.7c0 .8.6 1.4 1.4 1.4h41.1c.8 0 1.4-.6 1.4-1.4v-33.7l5.9 5.9c.2.2.6.4 1 .4.8 0 1.4-.6 1.4-1.4 0-.3-.1-.7-.4-.9zm-18.8-23.7h5.5v10.4l-5.5-5.5v-4.9zm-19.2 52.1H87v-2.7h11v2.7zm13.7 0h-11v-21.9h11v21.9zm13.8 0h-11v-2.7h11v2.7zm0-5.5h-11v-17.8c0-.8-.6-1.4-1.4-1.4H99.3c-.8 0-1.4.6-1.4 1.4v17.8H87V98.5l19.2-19.2 19.2 19.2v29.6zm-17.9-2.7c.8 0 1.4-.6 1.4-1.4 0-.8-.6-1.4-1.4-1.4-.8 0-1.4.6-1.4 1.4.1.7.7 1.4 1.4 1.4z"/><path class="st1" d="M135.4 104.7l-10.6-10.6V79.6c0-.8-.6-1.4-1.4-1.4h-8.2c-.8 0-1.4.6-1.4 1.4v3.5l-7.3-7.3c-.2-.2-.6-.4-1-.4s-.7.2-1 .4l-28.8 28.8c-.2.2-.4.6-.4 1 0 .8.6 1.4 1.4 1.4.4 0 .7-.2 1-.4l5.9-5.9v33.7c0 .8.6 1.4 1.4 1.4h41.1c.8 0 1.4-.6 1.4-1.4v-33.7l5.9 5.9c.2.2.6.4 1 .4.8 0 1.4-.6 1.4-1.4 0-.3-.1-.7-.4-.9zM116.6 81h5.5v10.4l-5.5-5.5V81zm-19.2 52.1h-11v-2.7h11v2.7zm13.7 0h-11v-21.9h11v21.9zm13.8 0h-11v-2.7h11v2.7zm0-5.5h-11v-17.8c0-.8-.6-1.4-1.4-1.4H98.8c-.8 0-1.4.6-1.4 1.4v17.8h-11V98l19.2-19.2L124.9 98v29.6zm-17.9-2.7c.8 0 1.4-.6 1.4-1.4 0-.8-.6-1.4-1.4-1.4-.8 0-1.4.6-1.4 1.4.1.7.7 1.4 1.4 1.4z"/><path class="st1" d="M134.9 104.2l-10.6-10.6V79.1c0-.8-.6-1.4-1.4-1.4h-8.2c-.8 0-1.4.6-1.4 1.4v3.5l-7.3-7.3c-.2-.2-.6-.4-1-.4s-.7.2-1 .4l-28.8 28.8c-.2.2-.4.6-.4 1 0 .8.6 1.4 1.4 1.4.4 0 .7-.2 1-.4l5.9-5.9v33.7c0 .8.6 1.4 1.4 1.4h41.1c.8 0 1.4-.6 1.4-1.4v-33.7l5.9 5.9c.2.2.6.4 1 .4.8 0 1.4-.6 1.4-1.4 0-.3-.1-.7-.4-.9zm-18.8-23.7h5.5v10.4l-5.5-5.5v-4.9zm-19.2 52.1H86v-2.7h11v2.7zm13.7 0h-11v-21.9h11v21.9zm13.8 0h-11v-2.7h11v2.7zm0-5.5h-11v-17.8c0-.8-.6-1.4-1.4-1.4H98.3c-.8 0-1.4.6-1.4 1.4v17.8H86V97.5l19.2-19.2 19.2 19.2v29.6zm-17.9-2.7c.8 0 1.4-.6 1.4-1.4 0-.8-.6-1.4-1.4-1.4-.8 0-1.4.6-1.4 1.4.1.7.7 1.4 1.4 1.4z"/><path class="st1" d="M134.4 103.7l-10.6-10.6V78.6c0-.8-.6-1.4-1.4-1.4h-8.2c-.8 0-1.4.6-1.4 1.4v3.5l-7.3-7.3c-.2-.2-.6-.4-1-.4s-.7.2-1 .4l-28.8 28.8c-.2.2-.4.6-.4 1 0 .8.6 1.4 1.4 1.4.4 0 .7-.2 1-.4l5.9-5.9v33.7c0 .8.6 1.4 1.4 1.4h41.1c.8 0 1.4-.6 1.4-1.4V99.7l5.9 5.9c.2.2.6.4 1 .4.8 0 1.4-.6 1.4-1.4 0-.3-.1-.7-.4-.9zM115.6 80h5.5v10.4l-5.5-5.5V80zm-19.2 52.1h-11v-2.7h11v2.7zm13.7 0h-11v-21.9h11v21.9zm13.8 0h-11v-2.7h11v2.7zm0-5.5h-11v-17.8c0-.8-.6-1.4-1.4-1.4H97.8c-.8 0-1.4.6-1.4 1.4v17.8h-11V97l19.2-19.2L123.9 97v29.6zm-17.9-2.7c.8 0 1.4-.6 1.4-1.4 0-.8-.6-1.4-1.4-1.4-.8 0-1.4.6-1.4 1.4.1.7.7 1.4 1.4 1.4z"/><path class="st1" d="M133.9 103.2l-10.6-10.6V78.1c0-.8-.6-1.4-1.4-1.4h-8.2c-.8 0-1.4.6-1.4 1.4v3.5l-7.3-7.3c-.2-.2-.6-.4-1-.4s-.7.2-1 .4l-28.8 28.8c-.2.2-.4.6-.4 1 0 .8.6 1.4 1.4 1.4.4 0 .7-.2 1-.4l5.9-5.9v33.7c0 .8.6 1.4 1.4 1.4h41.1c.8 0 1.4-.6 1.4-1.4V99.2l5.9 5.9c.2.2.6.4 1 .4.8 0 1.4-.6 1.4-1.4 0-.3-.1-.7-.4-.9zm-18.8-23.7h5.5v10.4l-5.5-5.5v-4.9zm-19.2 52.1H85v-2.7h11v2.7zm13.7 0h-11v-21.9h11v21.9zm13.8 0h-11v-2.7h11v2.7zm0-5.5h-11v-17.8c0-.8-.6-1.4-1.4-1.4H97.3c-.8 0-1.4.6-1.4 1.4v17.8H85V96.5l19.2-19.2 19.2 19.2v29.6zm-17.9-2.7c.8 0 1.4-.6 1.4-1.4 0-.8-.6-1.4-1.4-1.4-.8 0-1.4.6-1.4 1.4.1.7.7 1.4 1.4 1.4z"/><path class="st1" d="M133.4 102.7l-10.6-10.6V77.6c0-.8-.6-1.4-1.4-1.4h-8.2c-.8 0-1.4.6-1.4 1.4v3.5l-7.3-7.3c-.2-.2-.6-.4-1-.4s-.7.2-1 .4l-28.8 28.8c-.2.2-.4.6-.4 1 0 .8.6 1.4 1.4 1.4.4 0 .7-.2 1-.4l5.9-5.9v33.7c0 .8.6 1.4 1.4 1.4h41.1c.8 0 1.4-.6 1.4-1.4V98.7l5.9 5.9c.2.2.6.4 1 .4.8 0 1.4-.6 1.4-1.4 0-.3-.1-.7-.4-.9zM114.6 79h5.5v10.4l-5.5-5.5V79zm-19.2 52.1h-11v-2.7h11v2.7zm13.7 0h-11v-21.9h11v21.9zm13.8 0h-11v-2.7h11v2.7zm0-5.5h-11v-17.8c0-.8-.6-1.4-1.4-1.4H96.8c-.8 0-1.4.6-1.4 1.4v17.8h-11V96l19.2-19.2L122.9 96v29.6zm-17.9-2.7c.8 0 1.4-.6 1.4-1.4 0-.8-.6-1.4-1.4-1.4-.8 0-1.4.6-1.4 1.4.1.7.7 1.4 1.4 1.4z"/><path class="st1" d="M132.9 102.2l-10.6-10.6V77.1c0-.8-.6-1.4-1.4-1.4h-8.2c-.8 0-1.4.6-1.4 1.4v3.5l-7.3-7.3c-.2-.2-.6-.4-1-.4s-.7.2-1 .4l-28.8 28.8c-.2.2-.4.6-.4 1 0 .8.6 1.4 1.4 1.4.4 0 .7-.2 1-.4l5.9-5.9v33.7c0 .8.6 1.4 1.4 1.4h41.1c.8 0 1.4-.6 1.4-1.4V98.2l5.9 5.9c.2.2.6.4 1 .4.8 0 1.4-.6 1.4-1.4 0-.3-.1-.7-.4-.9zm-18.8-23.7h5.5v10.4l-5.5-5.5v-4.9zm-19.2 52.1H84v-2.7h11v2.7zm13.7 0h-11v-21.9h11v21.9zm13.8 0h-11v-2.7h11v2.7zm0-5.5h-11v-17.8c0-.8-.6-1.4-1.4-1.4H96.3c-.8 0-1.4.6-1.4 1.4v17.8H84V95.5l19.2-19.2 19.2 19.2v29.6zm-17.9-2.7c.8 0 1.4-.6 1.4-1.4 0-.8-.6-1.4-1.4-1.4-.8 0-1.4.6-1.4 1.4.1.7.7 1.4 1.4 1.4z"/><path class="st1" d="M132.4 101.7l-10.6-10.6V76.6c0-.8-.6-1.4-1.4-1.4h-8.2c-.8 0-1.4.6-1.4 1.4v3.5l-7.3-7.3c-.2-.2-.6-.4-1-.4s-.7.2-1 .4l-28.8 28.8c-.2.2-.4.6-.4 1 0 .8.6 1.4 1.4 1.4.4 0 .7-.2 1-.4l5.9-5.9v33.7c0 .8.6 1.4 1.4 1.4h41.1c.8 0 1.4-.6 1.4-1.4V97.7l5.9 5.9c.2.2.6.4 1 .4.8 0 1.4-.6 1.4-1.4 0-.3-.1-.7-.4-.9zM113.6 78h5.5v10.4l-5.5-5.5V78zm-19.2 52.1h-11v-2.7h11v2.7zm13.7 0h-11v-21.9h11v21.9zm13.8 0h-11v-2.7h11v2.7zm0-5.5h-11v-17.8c0-.8-.6-1.4-1.4-1.4H95.8c-.8 0-1.4.6-1.4 1.4v17.8h-11V95l19.2-19.2L121.9 95v29.6zm-17.9-2.7c.8 0 1.4-.6 1.4-1.4 0-.8-.6-1.4-1.4-1.4-.8 0-1.4.6-1.4 1.4.1.7.7 1.4 1.4 1.4z"/><path class="st1" d="M131.9 101.2l-10.6-10.6V76.1c0-.8-.6-1.4-1.4-1.4h-8.2c-.8 0-1.4.6-1.4 1.4v3.5l-7.3-7.3c-.2-.2-.6-.4-1-.4s-.7.2-1 .4l-28.8 28.8c-.2.2-.4.6-.4 1 0 .8.6 1.4 1.4 1.4.4 0 .7-.2 1-.4l5.9-5.9v33.7c0 .8.6 1.4 1.4 1.4h41.1c.8 0 1.4-.6 1.4-1.4V97.2l5.9 5.9c.2.2.6.4 1 .4.8 0 1.4-.6 1.4-1.4 0-.3-.1-.7-.4-.9zm-18.8-23.7h5.5v10.4l-5.5-5.5v-4.9zm-19.2 52.1H83v-2.7h11v2.7zm13.7 0h-11v-21.9h11v21.9zm13.8 0h-11v-2.7h11v2.7zm0-5.5h-11v-17.8c0-.8-.6-1.4-1.4-1.4H95.3c-.8 0-1.4.6-1.4 1.4v17.8H83V94.5l19.2-19.2 19.2 19.2v29.6zm-17.9-2.7c.8 0 1.4-.6 1.4-1.4 0-.8-.6-1.4-1.4-1.4-.8 0-1.4.6-1.4 1.4.1.7.7 1.4 1.4 1.4z"/><path class="st1" d="M131.4 100.7l-10.6-10.6V75.6c0-.8-.6-1.4-1.4-1.4h-8.2c-.8 0-1.4.6-1.4 1.4v3.5l-7.3-7.3c-.2-.2-.6-.4-1-.4s-.7.2-1 .4l-28.8 28.8c-.2.2-.4.6-.4 1 0 .8.6 1.4 1.4 1.4.4 0 .7-.2 1-.4l5.9-5.9v33.7c0 .8.6 1.4 1.4 1.4h41.1c.8 0 1.4-.6 1.4-1.4V96.7l5.9 5.9c.2.2.6.4 1 .4.8 0 1.4-.6 1.4-1.4 0-.3-.1-.7-.4-.9zM112.6 77h5.5v10.4l-5.5-5.5V77zm-19.2 52.1h-11v-2.7h11v2.7zm13.7 0h-11v-21.9h11v21.9zm13.8 0h-11v-2.7h11v2.7zm0-5.5h-11v-17.8c0-.8-.6-1.4-1.4-1.4H94.8c-.8 0-1.4.6-1.4 1.4v17.8h-11V94l19.2-19.2L120.9 94v29.6zm-17.9-2.7c.8 0 1.4-.6 1.4-1.4 0-.8-.6-1.4-1.4-1.4-.8 0-1.4.6-1.4 1.4.1.7.7 1.4 1.4 1.4z"/><path class="st1" d="M130.9 100.2l-10.6-10.6V75.1c0-.8-.6-1.4-1.4-1.4h-8.2c-.8 0-1.4.6-1.4 1.4v3.5l-7.3-7.3c-.2-.2-.6-.4-1-.4s-.7.2-1 .4l-28.8 28.8c-.2.2-.4.6-.4 1 0 .8.6 1.4 1.4 1.4.4 0 .7-.2 1-.4l5.9-5.9v33.7c0 .8.6 1.4 1.4 1.4h41.1c.8 0 1.4-.6 1.4-1.4V96.2l5.9 5.9c.2.2.6.4 1 .4.8 0 1.4-.6 1.4-1.4 0-.3-.1-.7-.4-.9zm-18.8-23.7h5.5v10.4l-5.5-5.5v-4.9zm-19.2 52.1H82v-2.7h11v2.7zm13.7 0h-11v-21.9h11v21.9zm13.8 0h-11v-2.7h11v2.7zm0-5.5h-11v-17.8c0-.8-.6-1.4-1.4-1.4H94.3c-.8 0-1.4.6-1.4 1.4v17.8H82V93.5l19.2-19.2 19.2 19.2v29.6zm-17.9-2.7c.8 0 1.4-.6 1.4-1.4 0-.8-.6-1.4-1.4-1.4-.8 0-1.4.6-1.4 1.4.1.7.7 1.4 1.4 1.4z"/><path class="st1" d="M130.4 99.7l-10.6-10.6V74.6c0-.8-.6-1.4-1.4-1.4h-8.2c-.8 0-1.4.6-1.4 1.4v3.5l-7.3-7.3c-.2-.2-.6-.4-1-.4s-.7.2-1 .4L70.9 99.7c-.2.2-.4.6-.4 1 0 .8.6 1.4 1.4 1.4.4 0 .7-.2 1-.4l5.9-5.9v33.7c0 .8.6 1.4 1.4 1.4h41.1c.8 0 1.4-.6 1.4-1.4V95.7l5.9 5.9c.2.2.6.4 1 .4.8 0 1.4-.6 1.4-1.4-.2-.3-.3-.7-.6-.9zM111.6 76h5.5v10.4l-5.5-5.5V76zm-19.2 52.1h-11v-2.7h11v2.7zm13.7 0h-11v-21.9h11v21.9zm13.8 0h-11v-2.7h11v2.7zm0-5.5h-11v-17.8c0-.8-.6-1.4-1.4-1.4H93.8c-.8 0-1.4.6-1.4 1.4v17.8h-11V93l19.2-19.2L119.9 93v29.6zm-17.9-2.7c.8 0 1.4-.6 1.4-1.4 0-.8-.6-1.4-1.4-1.4-.8 0-1.4.6-1.4 1.4.1.7.7 1.4 1.4 1.4z"/><path class="st1" d="M129.9 99.2l-10.6-10.6V74.1c0-.8-.6-1.4-1.4-1.4h-8.2c-.8 0-1.4.6-1.4 1.4v3.5l-7.3-7.3c-.2-.2-.6-.4-1-.4s-.7.2-1 .4L70.4 99.2c-.2.2-.4.6-.4 1 0 .8.6 1.4 1.4 1.4.4 0 .7-.2 1-.4l5.9-5.9V129c0 .8.6 1.4 1.4 1.4h41.1c.8 0 1.4-.6 1.4-1.4V95.2l5.9 5.9c.2.2.6.4 1 .4.8 0 1.4-.6 1.4-1.4-.2-.3-.3-.7-.6-.9zm-18.8-23.7h5.5v10.4l-5.5-5.5v-4.9zm-19.2 52.1H81v-2.7h11v2.7zm13.7 0h-11v-21.9h11v21.9zm13.8 0h-11v-2.7h11v2.7zm0-5.5h-11v-17.8c0-.8-.6-1.4-1.4-1.4H93.3c-.8 0-1.4.6-1.4 1.4v17.8H81V92.5l19.2-19.2 19.2 19.2v29.6zm-17.9-2.7c.8 0 1.4-.6 1.4-1.4 0-.8-.6-1.4-1.4-1.4-.8 0-1.4.6-1.4 1.4.1.7.7 1.4 1.4 1.4z"/><path class="st1" d="M129.4 98.7l-10.6-10.6V73.6c0-.8-.6-1.4-1.4-1.4h-8.2c-.8 0-1.4.6-1.4 1.4v3.5l-7.3-7.3c-.2-.2-.6-.4-1-.4s-.7.2-1 .4L69.9 98.7c-.2.2-.4.6-.4 1 0 .8.6 1.4 1.4 1.4.4 0 .7-.2 1-.4l5.9-5.9v33.7c0 .8.6 1.4 1.4 1.4h41.1c.8 0 1.4-.6 1.4-1.4V94.7l5.9 5.9c.2.2.6.4 1 .4.8 0 1.4-.6 1.4-1.4-.2-.3-.3-.7-.6-.9zM110.6 75h5.5v10.4l-5.5-5.5V75zm-19.2 52.1h-11v-2.7h11v2.7zm13.7 0h-11v-21.9h11v21.9zm13.8 0h-11v-2.7h11v2.7zm0-5.5h-11v-17.8c0-.8-.6-1.4-1.4-1.4H92.8c-.8 0-1.4.6-1.4 1.4v17.8h-11V92l19.2-19.2L118.9 92v29.6zm-17.9-2.7c.8 0 1.4-.6 1.4-1.4 0-.8-.6-1.4-1.4-1.4-.8 0-1.4.6-1.4 1.4.1.7.7 1.4 1.4 1.4z"/><path class="st1" d="M128.9 98.2l-10.6-10.6V73.1c0-.8-.6-1.4-1.4-1.4h-8.2c-.8 0-1.4.6-1.4 1.4v3.5l-7.3-7.3c-.2-.2-.6-.4-1-.4s-.7.2-1 .4L69.4 98.2c-.2.2-.4.6-.4 1 0 .8.6 1.4 1.4 1.4.4 0 .7-.2 1-.4l5.9-5.9V128c0 .8.6 1.4 1.4 1.4h41.1c.8 0 1.4-.6 1.4-1.4V94.2l5.9 5.9c.2.2.6.4 1 .4.8 0 1.4-.6 1.4-1.4-.2-.3-.3-.7-.6-.9zm-18.8-23.7h5.5v10.4l-5.5-5.5v-4.9zm-19.2 52.1H80v-2.7h11v2.7zm13.7 0h-11v-21.9h11v21.9zm13.8 0h-11v-2.7h11v2.7zm0-5.5h-11v-17.8c0-.8-.6-1.4-1.4-1.4H92.3c-.8 0-1.4.6-1.4 1.4v17.8H80V91.5l19.2-19.2 19.2 19.2v29.6zm-17.9-2.7c.8 0 1.4-.6 1.4-1.4 0-.8-.6-1.4-1.4-1.4-.8 0-1.4.6-1.4 1.4.1.7.7 1.4 1.4 1.4z"/><path class="st1" d="M128.4 97.7l-10.6-10.6V72.6c0-.8-.6-1.4-1.4-1.4h-8.2c-.8 0-1.4.6-1.4 1.4v3.5l-7.3-7.3c-.2-.2-.6-.4-1-.4s-.7.2-1 .4L68.9 97.7c-.2.2-.4.6-.4 1 0 .8.6 1.4 1.4 1.4.4 0 .7-.2 1-.4l5.9-5.9v33.7c0 .8.6 1.4 1.4 1.4h41.1c.8 0 1.4-.6 1.4-1.4V93.7l5.9 5.9c.2.2.6.4 1 .4.8 0 1.4-.6 1.4-1.4-.2-.3-.3-.7-.6-.9zM109.6 74h5.5v10.4l-5.5-5.5V74zm-19.2 52.1h-11v-2.7h11v2.7zm13.7 0h-11v-21.9h11v21.9zm13.8 0h-11v-2.7h11v2.7zm0-5.5h-11v-17.8c0-.8-.6-1.4-1.4-1.4H91.8c-.8 0-1.4.6-1.4 1.4v17.8h-11V91l19.2-19.2L117.9 91v29.6zm-17.9-2.7c.8 0 1.4-.6 1.4-1.4 0-.8-.6-1.4-1.4-1.4-.8 0-1.4.6-1.4 1.4.1.7.7 1.4 1.4 1.4z"/><path class="st1" d="M127.9 97.2l-10.6-10.6V72.1c0-.8-.6-1.4-1.4-1.4h-8.2c-.8 0-1.4.6-1.4 1.4v3.5L99 68.3c-.2-.2-.6-.4-1-.4s-.7.2-1 .4L68.4 97.2c-.2.2-.4.6-.4 1 0 .8.6 1.4 1.4 1.4.4 0 .7-.2 1-.4l5.9-5.9V127c0 .8.6 1.4 1.4 1.4h41.1c.8 0 1.4-.6 1.4-1.4V93.2l5.9 5.9c.2.2.6.4 1 .4.8 0 1.4-.6 1.4-1.4-.2-.3-.3-.7-.6-.9zm-18.8-23.7h5.5v10.4l-5.5-5.5v-4.9zm-19.2 52.1H79v-2.7h11v2.7zm13.7 0h-11v-21.9h11v21.9zm13.8 0h-11v-2.7h11v2.7zm0-5.5h-11v-17.8c0-.8-.6-1.4-1.4-1.4H91.3c-.8 0-1.4.6-1.4 1.4v17.8H79V90.5l19.2-19.2 19.2 19.2v29.6zm-17.9-2.7c.8 0 1.4-.6 1.4-1.4 0-.8-.6-1.4-1.4-1.4-.8 0-1.4.6-1.4 1.4.1.7.7 1.4 1.4 1.4z"/><path class="st1" d="M127.4 96.7l-10.6-10.6V71.6c0-.8-.6-1.4-1.4-1.4h-8.2c-.8 0-1.4.6-1.4 1.4v3.5l-7.3-7.3c-.2-.2-.6-.4-1-.4s-.7.2-1 .4L67.9 96.7c-.2.2-.4.6-.4 1 0 .8.6 1.4 1.4 1.4.4 0 .7-.2 1-.4l5.9-5.9v33.7c0 .8.6 1.4 1.4 1.4h41.1c.8 0 1.4-.6 1.4-1.4V92.7l5.9 5.9c.2.2.6.4 1 .4.8 0 1.4-.6 1.4-1.4-.2-.3-.3-.7-.6-.9zM108.6 73h5.5v10.4l-5.5-5.5V73zm-19.2 52.1h-11v-2.7h11v2.7zm13.7 0h-11v-21.9h11v21.9zm13.8 0h-11v-2.7h11v2.7zm0-5.5h-11v-17.8c0-.8-.6-1.4-1.4-1.4H90.8c-.8 0-1.4.6-1.4 1.4v17.8h-11V90l19.2-19.2L116.9 90v29.6zM99 116.9c.8 0 1.4-.6 1.4-1.4 0-.8-.6-1.4-1.4-1.4-.8 0-1.4.6-1.4 1.4.1.7.7 1.4 1.4 1.4z"/><path class="st1" d="M126.9 96.2l-10.6-10.6V71.1c0-.8-.6-1.4-1.4-1.4h-8.2c-.8 0-1.4.6-1.4 1.4v3.5L98 67.3c-.2-.2-.6-.4-1-.4s-.7.2-1 .4L67.4 96.2c-.2.2-.4.6-.4 1 0 .8.6 1.4 1.4 1.4.4 0 .7-.2 1-.4l5.9-5.9V126c0 .8.6 1.4 1.4 1.4h41.1c.8 0 1.4-.6 1.4-1.4V92.2l5.9 5.9c.2.2.6.4 1 .4.8 0 1.4-.6 1.4-1.4-.2-.3-.3-.7-.6-.9zm-18.8-23.7h5.5v10.4l-5.5-5.5v-4.9zm-19.2 52.1H78v-2.7h11v2.7zm13.7 0h-11v-21.9h11v21.9zm13.8 0h-11v-2.7h11v2.7zm0-5.5h-11v-17.8c0-.8-.6-1.4-1.4-1.4H90.3c-.8 0-1.4.6-1.4 1.4v17.8H78V89.5l19.2-19.2 19.2 19.2v29.6zm-17.9-2.7c.8 0 1.4-.6 1.4-1.4 0-.8-.6-1.4-1.4-1.4-.8 0-1.4.6-1.4 1.4.1.7.7 1.4 1.4 1.4z"/><path class="st1" d="M126.4 95.7l-10.6-10.6V70.6c0-.8-.6-1.4-1.4-1.4h-8.2c-.8 0-1.4.6-1.4 1.4v3.5l-7.3-7.3c-.2-.2-.6-.4-1-.4s-.7.2-1 .4L66.9 95.7c-.2.2-.4.6-.4 1 0 .8.6 1.4 1.4 1.4.4 0 .7-.2 1-.4l5.9-5.9v33.7c0 .8.6 1.4 1.4 1.4h41.1c.8 0 1.4-.6 1.4-1.4V91.7l5.9 5.9c.2.2.6.4 1 .4.8 0 1.4-.6 1.4-1.4-.2-.3-.3-.7-.6-.9zM107.6 72h5.5v10.4l-5.5-5.5V72zm-19.2 52.1h-11v-2.7h11v2.7zm13.7 0h-11v-21.9h11v21.9zm13.8 0h-11v-2.7h11v2.7zm0-5.5h-11v-17.8c0-.8-.6-1.4-1.4-1.4H89.8c-.8 0-1.4.6-1.4 1.4v17.8h-11V89l19.2-19.2L115.9 89v29.6zM98 115.9c.8 0 1.4-.6 1.4-1.4 0-.8-.6-1.4-1.4-1.4-.8 0-1.4.6-1.4 1.4.1.7.7 1.4 1.4 1.4z"/><path class="st1" d="M125.9 95.2l-10.6-10.6V70.1c0-.8-.6-1.4-1.4-1.4h-8.2c-.8 0-1.4.6-1.4 1.4v3.5L97 66.3c-.2-.2-.6-.4-1-.4s-.7.2-1 .4L66.4 95.2c-.2.2-.4.6-.4 1 0 .8.6 1.4 1.4 1.4.4 0 .7-.2 1-.4l5.9-5.9V125c0 .8.6 1.4 1.4 1.4h41.1c.8 0 1.4-.6 1.4-1.4V91.2l5.9 5.9c.2.2.6.4 1 .4.8 0 1.4-.6 1.4-1.4-.2-.3-.3-.7-.6-.9zm-18.8-23.7h5.5v10.4l-5.5-5.5v-4.9zm-19.2 52.1H77v-2.7h11v2.7zm13.7 0h-11v-21.9h11v21.9zm13.8 0h-11v-2.7h11v2.7zm0-5.5h-11v-17.8c0-.8-.6-1.4-1.4-1.4H89.3c-.8 0-1.4.6-1.4 1.4v17.8H77V88.5l19.2-19.2 19.2 19.2v29.6zm-17.9-2.7c.8 0 1.4-.6 1.4-1.4 0-.8-.6-1.4-1.4-1.4-.8 0-1.4.6-1.4 1.4.1.7.7 1.4 1.4 1.4z"/><path class="st1" d="M125.4 94.7l-10.6-10.6V69.6c0-.8-.6-1.4-1.4-1.4h-8.2c-.8 0-1.4.6-1.4 1.4v3.5l-7.3-7.3c-.2-.2-.6-.4-1-.4s-.7.2-1 .4L65.9 94.7c-.2.2-.4.6-.4 1 0 .8.6 1.4 1.4 1.4.4 0 .7-.2 1-.4l5.9-5.9v33.7c0 .8.6 1.4 1.4 1.4h41.1c.8 0 1.4-.6 1.4-1.4V90.7l5.9 5.9c.2.2.6.4 1 .4.8 0 1.4-.6 1.4-1.4-.2-.3-.3-.7-.6-.9zM106.6 71h5.5v10.4l-5.5-5.5V71zm-19.2 52.1h-11v-2.7h11v2.7zm13.7 0h-11v-21.9h11v21.9zm13.8 0h-11v-2.7h11v2.7zm0-5.5h-11V99.8c0-.8-.6-1.4-1.4-1.4H88.8c-.8 0-1.4.6-1.4 1.4v17.8h-11V88l19.2-19.2L114.9 88v29.6zM97 114.9c.8 0 1.4-.6 1.4-1.4 0-.8-.6-1.4-1.4-1.4-.8 0-1.4.6-1.4 1.4.1.7.7 1.4 1.4 1.4z"/><path class="st1" d="M124.9 94.2l-10.6-10.6V69.1c0-.8-.6-1.4-1.4-1.4h-8.2c-.8 0-1.4.6-1.4 1.4v3.5L96 65.3c-.2-.2-.6-.4-1-.4s-.7.2-1 .4L65.4 94.2c-.2.2-.4.6-.4 1 0 .8.6 1.4 1.4 1.4.4 0 .7-.2 1-.4l5.9-5.9V124c0 .8.6 1.4 1.4 1.4h41.1c.8 0 1.4-.6 1.4-1.4V90.2l5.9 5.9c.2.2.6.4 1 .4.8 0 1.4-.6 1.4-1.4-.2-.3-.3-.7-.6-.9zm-18.8-23.7h5.5v10.4l-5.5-5.5v-4.9zm-19.2 52.1H76v-2.7h11v2.7zm13.7 0h-11v-21.9h11v21.9zm13.8 0h-11v-2.7h11v2.7zm0-5.5h-11V99.3c0-.8-.6-1.4-1.4-1.4H88.3c-.8 0-1.4.6-1.4 1.4v17.8H76V87.5l19.2-19.2 19.2 19.2v29.6zm-17.9-2.7c.8 0 1.4-.6 1.4-1.4 0-.8-.6-1.4-1.4-1.4-.8 0-1.4.6-1.4 1.4.1.7.7 1.4 1.4 1.4z"/><path class="st1" d="M124.4 93.7l-10.6-10.6V68.6c0-.8-.6-1.4-1.4-1.4h-8.2c-.8 0-1.4.6-1.4 1.4v3.5l-7.3-7.3c-.2-.2-.6-.4-1-.4s-.7.2-1 .4L64.9 93.7c-.2.2-.4.6-.4 1 0 .8.6 1.4 1.4 1.4.4 0 .7-.2 1-.4l5.9-5.9v33.7c0 .8.6 1.4 1.4 1.4h41.1c.8 0 1.4-.6 1.4-1.4V89.7l5.9 5.9c.2.2.6.4 1 .4.8 0 1.4-.6 1.4-1.4-.2-.3-.3-.7-.6-.9zM105.6 70h5.5v10.4l-5.5-5.5V70zm-19.2 52.1h-11v-2.7h11v2.7zm13.7 0h-11v-21.9h11v21.9zm13.8 0h-11v-2.7h11v2.7zm0-5.5h-11V98.8c0-.8-.6-1.4-1.4-1.4H87.8c-.8 0-1.4.6-1.4 1.4v17.8h-11V87l19.2-19.2L113.9 87v29.6zM96 113.9c.8 0 1.4-.6 1.4-1.4 0-.8-.6-1.4-1.4-1.4-.8 0-1.4.6-1.4 1.4.1.7.7 1.4 1.4 1.4z"/><path class="st1" d="M123.9 93.2l-10.6-10.6V68.1c0-.8-.6-1.4-1.4-1.4h-8.2c-.8 0-1.4.6-1.4 1.4v3.5L95 64.3c-.2-.2-.6-.4-1-.4s-.7.2-1 .4L64.4 93.2c-.2.2-.4.6-.4 1 0 .8.6 1.4 1.4 1.4.4 0 .7-.2 1-.4l5.9-5.9V123c0 .8.6 1.4 1.4 1.4h41.1c.8 0 1.4-.6 1.4-1.4V89.2l5.9 5.9c.2.2.6.4 1 .4.8 0 1.4-.6 1.4-1.4-.2-.3-.3-.7-.6-.9zm-18.8-23.7h5.5v10.4l-5.5-5.5v-4.9zm-19.2 52.1H75v-2.7h11v2.7zm13.7 0h-11v-22h11v22zm13.8 0h-11v-2.7h11v2.7zm0-5.5h-11V98.3c0-.8-.6-1.4-1.4-1.4H87.3c-.8 0-1.4.6-1.4 1.4v17.8H75V86.5l19.2-19.2 19.2 19.2v29.6zm-17.9-2.7c.8 0 1.4-.6 1.4-1.4 0-.8-.6-1.4-1.4-1.4-.8 0-1.4.6-1.4 1.4.1.7.7 1.4 1.4 1.4z"/><path class="st1" d="M123.4 92.7l-10.6-10.6V67.6c0-.8-.6-1.4-1.4-1.4h-8.2c-.8 0-1.4.6-1.4 1.4v3.5l-7.3-7.3c-.2-.2-.6-.4-1-.4s-.7.2-1 .4L63.9 92.7c-.2.2-.4.6-.4 1 0 .8.6 1.4 1.4 1.4.4 0 .7-.2 1-.4l5.9-5.9v33.7c0 .8.6 1.4 1.4 1.4h41.1c.8 0 1.4-.6 1.4-1.4V88.7l5.9 5.9c.2.2.6.4 1 .4.8 0 1.4-.6 1.4-1.4-.2-.3-.3-.7-.6-.9zM104.6 69h5.5v10.4l-5.5-5.5V69zm-19.2 52.1h-11v-2.7h11v2.7zm13.7 0h-11v-22h11v22zm13.8 0h-11v-2.7h11v2.7zm0-5.5h-11V97.8c0-.8-.6-1.4-1.4-1.4H86.8c-.8 0-1.4.6-1.4 1.4v17.8h-11V86l19.2-19.2L112.9 86v29.6zM95 112.9c.8 0 1.4-.6 1.4-1.4 0-.8-.6-1.4-1.4-1.4-.8 0-1.4.6-1.4 1.4.1.7.7 1.4 1.4 1.4z"/><path class="st1" d="M122.9 92.2l-10.6-10.6V67.1c0-.8-.6-1.4-1.4-1.4h-8.2c-.8 0-1.4.6-1.4 1.4v3.5L94 63.3c-.2-.2-.6-.4-1-.4s-.7.2-1 .4L63.4 92.2c-.2.2-.4.6-.4 1 0 .8.6 1.4 1.4 1.4.4 0 .7-.2 1-.4l5.9-5.9V122c0 .8.6 1.4 1.4 1.4h41.1c.8 0 1.4-.6 1.4-1.4V88.2l5.9 5.9c.2.2.6.4 1 .4.8 0 1.4-.6 1.4-1.4-.2-.3-.3-.7-.6-.9zm-18.8-23.7h5.5v10.4l-5.5-5.5v-4.9zm-19.2 52.1H74v-2.7h11v2.7zm13.7 0h-11v-22h11v22zm13.8 0h-11v-2.7h11v2.7zm0-5.5h-11V97.3c0-.8-.6-1.4-1.4-1.4H86.3c-.8 0-1.4.6-1.4 1.4v17.8H74V85.5l19.2-19.2 19.2 19.2v29.6zm-17.9-2.7c.8 0 1.4-.6 1.4-1.4 0-.8-.6-1.4-1.4-1.4-.8 0-1.4.6-1.4 1.4.1.7.7 1.4 1.4 1.4z"/><path class="st1" d="M122.4 91.7l-10.6-10.6V66.6c0-.8-.6-1.4-1.4-1.4h-8.2c-.8 0-1.4.6-1.4 1.4v3.5l-7.3-7.3c-.2-.2-.6-.4-1-.4s-.7.2-1 .4L62.9 91.7c-.2.2-.4.6-.4 1 0 .8.6 1.4 1.4 1.4.4 0 .7-.2 1-.4l5.9-5.9v33.7c0 .8.6 1.4 1.4 1.4h41.1c.8 0 1.4-.6 1.4-1.4V87.7l5.9 5.9c.2.2.6.4 1 .4.8 0 1.4-.6 1.4-1.4-.2-.3-.3-.7-.6-.9zM103.6 68h5.5v10.4l-5.5-5.5V68zm-19.2 52.1h-11v-2.7h11v2.7zm13.7 0h-11v-22h11v22zm13.8 0h-11v-2.7h11v2.7zm0-5.5h-11V96.8c0-.8-.6-1.4-1.4-1.4H85.8c-.8 0-1.4.6-1.4 1.4v17.8h-11V85l19.2-19.2L111.9 85v29.6zM94 111.9c.8 0 1.4-.6 1.4-1.4 0-.8-.6-1.4-1.4-1.4-.8 0-1.4.6-1.4 1.4.1.7.7 1.4 1.4 1.4z"/><path class="st1" d="M121.9 91.2l-10.6-10.6V66.1c0-.8-.6-1.4-1.4-1.4h-8.2c-.8 0-1.4.6-1.4 1.4v3.5L93 62.3c-.2-.2-.6-.4-1-.4s-.7.2-1 .4L62.4 91.2c-.2.2-.4.6-.4 1 0 .8.6 1.4 1.4 1.4.4 0 .7-.2 1-.4l5.9-5.9V121c0 .8.6 1.4 1.4 1.4h41.1c.8 0 1.4-.6 1.4-1.4V87.2l5.9 5.9c.2.2.6.4 1 .4.8 0 1.4-.6 1.4-1.4-.2-.3-.3-.7-.6-.9zm-18.8-23.7h5.5v10.4l-5.5-5.5v-4.9zm-19.2 52.1H73v-2.7h11v2.7zm13.7 0h-11v-22h11v22zm13.8 0h-11v-2.7h11v2.7zm0-5.5h-11V96.3c0-.8-.6-1.4-1.4-1.4H85.3c-.8 0-1.4.6-1.4 1.4v17.8H73V84.5l19.2-19.2 19.2 19.2v29.6zm-17.9-2.7c.8 0 1.4-.6 1.4-1.4 0-.8-.6-1.4-1.4-1.4-.8 0-1.4.6-1.4 1.4.1.7.7 1.4 1.4 1.4z"/><path class="st1" d="M121.4 90.7l-10.6-10.6V65.6c0-.8-.6-1.4-1.4-1.4h-8.2c-.8 0-1.4.6-1.4 1.4v3.5l-7.3-7.3c-.2-.2-.6-.4-1-.4s-.7.2-1 .4L61.9 90.7c-.2.2-.4.6-.4 1 0 .8.6 1.4 1.4 1.4.4 0 .7-.2 1-.4l5.9-5.9v33.7c0 .8.6 1.4 1.4 1.4h41.1c.8 0 1.4-.6 1.4-1.4V86.7l5.9 5.9c.2.2.6.4 1 .4.8 0 1.4-.6 1.4-1.4-.2-.3-.3-.7-.6-.9zM102.6 67h5.5v10.4l-5.5-5.5V67zm-19.2 52.1h-11v-2.7h11v2.7zm13.7 0h-11v-22h11v22zm13.8 0h-11v-2.7h11v2.7zm0-5.5h-11V95.8c0-.8-.6-1.4-1.4-1.4H84.8c-.8 0-1.4.6-1.4 1.4v17.8h-11V84l19.2-19.2L110.9 84v29.6zM93 110.9c.8 0 1.4-.6 1.4-1.4 0-.8-.6-1.4-1.4-1.4-.8 0-1.4.6-1.4 1.4.1.7.7 1.4 1.4 1.4z"/><path class="st1" d="M120.9 90.2l-10.6-10.6V65.1c0-.8-.6-1.4-1.4-1.4h-8.2c-.8 0-1.4.6-1.4 1.4v3.5L92 61.3c-.2-.2-.6-.4-1-.4s-.7.2-1 .4L61.4 90.2c-.2.2-.4.6-.4 1 0 .8.6 1.4 1.4 1.4.4 0 .7-.2 1-.4l5.9-5.9V120c0 .8.6 1.4 1.4 1.4h41.1c.8 0 1.4-.6 1.4-1.4V86.2l5.9 5.9c.2.2.6.4 1 .4.8 0 1.4-.6 1.4-1.4-.2-.3-.3-.7-.6-.9zm-18.8-23.7h5.5v10.4l-5.5-5.5v-4.9zm-19.2 52.1H72v-2.7h11v2.7zm13.7 0h-11v-22h11v22zm13.8 0h-11v-2.7h11v2.7zm0-5.5h-11V95.3c0-.8-.6-1.4-1.4-1.4H84.3c-.8 0-1.4.6-1.4 1.4v17.8H72V83.5l19.2-19.2 19.2 19.2v29.6zm-17.9-2.7c.8 0 1.4-.6 1.4-1.4 0-.8-.6-1.4-1.4-1.4-.8 0-1.4.6-1.4 1.4.1.7.7 1.4 1.4 1.4z"/><path class="st1" d="M120.4 89.7l-10.6-10.6V64.6c0-.8-.6-1.4-1.4-1.4h-8.2c-.8 0-1.4.6-1.4 1.4v3.5l-7.3-7.3c-.2-.2-.6-.4-1-.4s-.7.2-1 .4L60.9 89.7c-.2.2-.4.6-.4 1 0 .8.6 1.4 1.4 1.4.4 0 .7-.2 1-.4l5.9-5.9v33.7c0 .8.6 1.4 1.4 1.4h41.1c.8 0 1.4-.6 1.4-1.4V85.7l5.9 5.9c.2.2.6.4 1 .4.8 0 1.4-.6 1.4-1.4-.2-.3-.3-.7-.6-.9zM101.6 66h5.5v10.4l-5.5-5.5V66zm-19.2 52.1h-11v-2.7h11v2.7zm13.7 0h-11v-22h11v22zm13.8 0h-11v-2.7h11v2.7zm0-5.5h-11V94.8c0-.8-.6-1.4-1.4-1.4H83.8c-.8 0-1.4.6-1.4 1.4v17.8h-11V83l19.2-19.2L109.9 83v29.6zM92 109.9c.8 0 1.4-.6 1.4-1.4 0-.8-.6-1.4-1.4-1.4-.8 0-1.4.6-1.4 1.4.1.7.7 1.4 1.4 1.4z"/><path class="st1" d="M119.9 89.2l-10.6-10.6V64.1c0-.8-.6-1.4-1.4-1.4h-8.2c-.8 0-1.4.6-1.4 1.4v3.5L91 60.3c-.2-.2-.6-.4-1-.4s-.7.2-1 .4L60.4 89.2c-.2.2-.4.6-.4 1 0 .8.6 1.4 1.4 1.4.4 0 .7-.2 1-.4l5.9-5.9V119c0 .8.6 1.4 1.4 1.4h41.1c.8 0 1.4-.6 1.4-1.4V85.2l5.9 5.9c.2.2.6.4 1 .4.8 0 1.4-.6 1.4-1.4-.2-.3-.3-.7-.6-.9zm-18.8-23.7h5.5v10.4l-5.5-5.5v-4.9zm-19.2 52.1H71v-2.7h11v2.7zm13.7 0h-11v-22h11v22zm13.8 0h-11v-2.7h11v2.7zm0-5.5h-11V94.3c0-.8-.6-1.4-1.4-1.4H83.3c-.8 0-1.4.6-1.4 1.4v17.8H71V82.5l19.2-19.2 19.2 19.2v29.6zm-17.9-2.7c.8 0 1.4-.6 1.4-1.4 0-.8-.6-1.4-1.4-1.4-.8 0-1.4.6-1.4 1.4.1.7.7 1.4 1.4 1.4z"/><path class="st1" d="M119.4 88.7l-10.6-10.6V63.6c0-.8-.6-1.4-1.4-1.4h-8.2c-.8 0-1.4.6-1.4 1.4v3.5l-7.3-7.3c-.2-.2-.6-.4-1-.4s-.7.2-1 .4L59.9 88.7c-.2.2-.4.6-.4 1 0 .8.6 1.4 1.4 1.4.4 0 .7-.2 1-.4l5.9-5.9v33.7c0 .8.6 1.4 1.4 1.4h41.1c.8 0 1.4-.6 1.4-1.4V84.7l5.9 5.9c.2.2.6.4 1 .4.8 0 1.4-.6 1.4-1.4-.2-.3-.3-.7-.6-.9zM100.6 65h5.5v10.4l-5.5-5.5V65zm-19.2 52.1h-11v-2.7h11v2.7zm13.7 0h-11v-22h11v22zm13.8 0h-11v-2.7h11v2.7zm0-5.5h-11V93.8c0-.8-.6-1.4-1.4-1.4H82.8c-.8 0-1.4.6-1.4 1.4v17.8h-11V82l19.2-19.2L108.9 82v29.6zM91 108.9c.8 0 1.4-.6 1.4-1.4 0-.8-.6-1.4-1.4-1.4-.8 0-1.4.6-1.4 1.4.1.7.7 1.4 1.4 1.4z"/><path class="st1" d="M118.9 88.2l-10.6-10.6V63.1c0-.8-.6-1.4-1.4-1.4h-8.2c-.8 0-1.4.6-1.4 1.4v3.5L90 59.3c-.2-.2-.6-.4-1-.4s-.7.2-1 .4L59.4 88.2c-.2.2-.4.6-.4 1 0 .8.6 1.4 1.4 1.4.4 0 .7-.2 1-.4l5.9-5.9V118c0 .8.6 1.4 1.4 1.4h41.1c.8 0 1.4-.6 1.4-1.4V84.2l5.9 5.9c.2.2.6.4 1 .4.8 0 1.4-.6 1.4-1.4-.2-.3-.3-.7-.6-.9zm-18.8-23.7h5.5v10.4l-5.5-5.5v-4.9zm-19.2 52.1H70v-2.7h11v2.7zm13.7 0h-11v-22h11v22zm13.8 0h-11v-2.7h11v2.7zm0-5.5h-11V93.3c0-.8-.6-1.4-1.4-1.4H82.3c-.8 0-1.4.6-1.4 1.4v17.8H70V81.5l19.2-19.2 19.2 19.2v29.6zm-17.9-2.7c.8 0 1.4-.6 1.4-1.4 0-.8-.6-1.4-1.4-1.4-.8 0-1.4.6-1.4 1.4.1.7.7 1.4 1.4 1.4z"/><path class="st1" d="M118.4 87.7l-10.6-10.6V62.6c0-.8-.6-1.4-1.4-1.4h-8.2c-.8 0-1.4.6-1.4 1.4v3.5l-7.3-7.3c-.2-.2-.6-.4-1-.4s-.7.2-1 .4L58.9 87.7c-.2.2-.4.6-.4 1 0 .8.6 1.4 1.4 1.4.4 0 .7-.2 1-.4l5.9-5.9v33.7c0 .8.6 1.4 1.4 1.4h41.1c.8 0 1.4-.6 1.4-1.4V83.7l5.9 5.9c.2.2.6.4 1 .4.8 0 1.4-.6 1.4-1.4-.2-.3-.3-.7-.6-.9zM99.6 64h5.5v10.4l-5.5-5.5V64zm-19.2 52.1h-11v-2.7h11v2.7zm13.7 0h-11v-22h11v22zm13.8 0h-11v-2.7h11v2.7zm0-5.5h-11V92.8c0-.8-.6-1.4-1.4-1.4H81.8c-.8 0-1.4.6-1.4 1.4v17.8h-11V81l19.2-19.2L107.9 81v29.6zM90 107.9c.8 0 1.4-.6 1.4-1.4 0-.8-.6-1.4-1.4-1.4-.8 0-1.4.6-1.4 1.4.1.7.7 1.4 1.4 1.4z"/><path class="st1" d="M117.9 87.2l-10.6-10.6V62.1c0-.8-.6-1.4-1.4-1.4h-8.2c-.8 0-1.4.6-1.4 1.4v3.5L89 58.3c-.2-.2-.6-.4-1-.4s-.7.2-1 .4L58.4 87.2c-.2.2-.4.6-.4 1 0 .8.6 1.4 1.4 1.4.4 0 .7-.2 1-.4l5.9-5.9V117c0 .8.6 1.4 1.4 1.4h41.1c.8 0 1.4-.6 1.4-1.4V83.2l5.9 5.9c.2.2.6.4 1 .4.8 0 1.4-.6 1.4-1.4-.2-.3-.3-.7-.6-.9zM99.1 63.5h5.5v10.4l-5.5-5.5v-4.9zm-19.2 52.1H69v-2.7h11v2.7zm13.7 0h-11v-22h11v22zm13.8 0h-11v-2.7h11v2.7zm0-5.5h-11V92.3c0-.8-.6-1.4-1.4-1.4H81.3c-.8 0-1.4.6-1.4 1.4v17.8H69V80.5l19.2-19.2 19.2 19.2v29.6zm-17.9-2.7c.8 0 1.4-.6 1.4-1.4 0-.8-.6-1.4-1.4-1.4-.8 0-1.4.6-1.4 1.4.1.7.7 1.4 1.4 1.4z"/><path class="st1" d="M117.4 86.7l-10.6-10.6V61.6c0-.8-.6-1.4-1.4-1.4h-8.2c-.8 0-1.4.6-1.4 1.4v3.5l-7.3-7.3c-.2-.2-.6-.4-1-.4s-.7.2-1 .4L57.9 86.7c-.2.2-.4.6-.4 1 0 .8.6 1.4 1.4 1.4.4 0 .7-.2 1-.4l5.9-5.9v33.7c0 .8.6 1.4 1.4 1.4h41.1c.8 0 1.4-.6 1.4-1.4V82.7l5.9 5.9c.2.2.6.4 1 .4.8 0 1.4-.6 1.4-1.4-.2-.3-.3-.7-.6-.9zM98.6 63h5.5v10.4l-5.5-5.5V63zm-19.2 52.1h-11v-2.7h11v2.7zm13.7 0h-11v-22h11v22zm13.8 0h-11v-2.7h11v2.7zm0-5.5h-11V91.8c0-.8-.6-1.4-1.4-1.4H80.8c-.8 0-1.4.6-1.4 1.4v17.8h-11V80l19.2-19.2L106.9 80v29.6zM89 106.9c.8 0 1.4-.6 1.4-1.4 0-.8-.6-1.4-1.4-1.4-.8 0-1.4.6-1.4 1.4.1.7.7 1.4 1.4 1.4z"/><path class="st1" d="M116.9 86.2l-10.6-10.6V61.1c0-.8-.6-1.4-1.4-1.4h-8.2c-.8 0-1.4.6-1.4 1.4v3.5L88 57.3c-.2-.2-.6-.4-1-.4s-.7.2-1 .4L57.4 86.2c-.2.2-.4.6-.4 1 0 .8.6 1.4 1.4 1.4.4 0 .7-.2 1-.4l5.9-5.9V116c0 .8.6 1.4 1.4 1.4h41.1c.8 0 1.4-.6 1.4-1.4V82.2l5.9 5.9c.2.2.6.4 1 .4.8 0 1.4-.6 1.4-1.4-.2-.3-.3-.7-.6-.9zM98.1 62.5h5.5v10.4l-5.5-5.5v-4.9zm-19.2 52.1H68v-2.7h11v2.7zm13.7 0h-11v-22h11v22zm13.8 0h-11v-2.7h11v2.7zm0-5.5h-11V91.3c0-.8-.6-1.4-1.4-1.4H80.3c-.8 0-1.4.6-1.4 1.4v17.8H68V79.5l19.2-19.2 19.2 19.2v29.6zm-17.9-2.7c.8 0 1.4-.6 1.4-1.4 0-.8-.6-1.4-1.4-1.4-.8 0-1.4.6-1.4 1.4.1.7.7 1.4 1.4 1.4z"/><path class="st1" d="M116.4 85.7l-10.6-10.6V60.6c0-.8-.6-1.4-1.4-1.4h-8.2c-.8 0-1.4.6-1.4 1.4v3.5l-7.3-7.3c-.2-.2-.6-.4-1-.4s-.7.2-1 .4L56.9 85.7c-.2.2-.4.6-.4 1 0 .8.6 1.4 1.4 1.4.4 0 .7-.2 1-.4l5.9-5.9v33.7c0 .8.6 1.4 1.4 1.4h41.1c.8 0 1.4-.6 1.4-1.4V81.7l5.9 5.9c.2.2.6.4 1 .4.8 0 1.4-.6 1.4-1.4-.2-.3-.3-.7-.6-.9zM97.6 62h5.5v10.4l-5.5-5.5V62zm-19.2 52.1h-11v-2.7h11v2.7zm13.7 0h-11v-22h11v22zm13.8 0h-11v-2.7h11v2.7zm0-5.5h-11V90.8c0-.8-.6-1.4-1.4-1.4H79.8c-.8 0-1.4.6-1.4 1.4v17.8h-11V79l19.2-19.2L105.9 79v29.6zM88 105.9c.8 0 1.4-.6 1.4-1.4 0-.8-.6-1.4-1.4-1.4-.8 0-1.4.6-1.4 1.4.1.7.7 1.4 1.4 1.4z"/><path class="st1" d="M115.9 85.2l-10.6-10.6V60.1c0-.8-.6-1.4-1.4-1.4h-8.2c-.8 0-1.4.6-1.4 1.4v3.5L87 56.3c-.2-.2-.6-.4-1-.4s-.7.2-1 .4L56.4 85.2c-.2.2-.4.6-.4 1 0 .8.6 1.4 1.4 1.4.4 0 .7-.2 1-.4l5.9-5.9V115c0 .8.6 1.4 1.4 1.4h41.1c.8 0 1.4-.6 1.4-1.4V81.2l5.9 5.9c.2.2.6.4 1 .4.8 0 1.4-.6 1.4-1.4-.2-.3-.3-.7-.6-.9zM97.1 61.5h5.5v10.4l-5.5-5.5v-4.9zm-19.2 52.1H67v-2.7h11v2.7zm13.7 0h-11v-22h11v22zm13.8 0h-11v-2.7h11v2.7zm0-5.5h-11V90.3c0-.8-.6-1.4-1.4-1.4H79.3c-.8 0-1.4.6-1.4 1.4v17.8H67V78.5l19.2-19.2 19.2 19.2v29.6zm-17.9-2.7c.8 0 1.4-.6 1.4-1.4 0-.8-.6-1.4-1.4-1.4-.8 0-1.4.6-1.4 1.4.1.7.7 1.4 1.4 1.4z"/><path class="st1" d="M115.4 84.7l-10.6-10.6V59.6c0-.8-.6-1.4-1.4-1.4h-8.2c-.8 0-1.4.6-1.4 1.4v3.5l-7.3-7.3c-.2-.2-.6-.4-1-.4s-.7.2-1 .4L55.9 84.7c-.2.2-.4.6-.4 1 0 .8.6 1.4 1.4 1.4.4 0 .7-.2 1-.4l5.9-5.9v33.7c0 .8.6 1.4 1.4 1.4h41.1c.8 0 1.4-.6 1.4-1.4V80.7l5.9 5.9c.2.2.6.4 1 .4.8 0 1.4-.6 1.4-1.4-.2-.3-.3-.7-.6-.9zM96.6 61h5.5v10.4l-5.5-5.5V61zm-19.2 52.1h-11v-2.7h11v2.7zm13.7 0h-11v-22h11v22zm13.8 0h-11v-2.7h11v2.7zm0-5.5h-11V89.8c0-.8-.6-1.4-1.4-1.4H78.8c-.8 0-1.4.6-1.4 1.4v17.8h-11V78l19.2-19.2L104.9 78v29.6zM87 104.9c.8 0 1.4-.6 1.4-1.4 0-.8-.6-1.4-1.4-1.4-.8 0-1.4.6-1.4 1.4.1.7.7 1.4 1.4 1.4z"/><path class="st1" d="M114.9 84.2l-10.6-10.6V59.1c0-.8-.6-1.4-1.4-1.4h-8.2c-.8 0-1.4.6-1.4 1.4v3.5L86 55.3c-.2-.2-.6-.4-1-.4s-.7.2-1 .4L55.4 84.2c-.2.2-.4.6-.4 1 0 .8.6 1.4 1.4 1.4.4 0 .7-.2 1-.4l5.9-5.9V114c0 .8.6 1.4 1.4 1.4h41.1c.8 0 1.4-.6 1.4-1.4V80.2l5.9 5.9c.2.2.6.4 1 .4.8 0 1.4-.6 1.4-1.4-.2-.3-.3-.7-.6-.9zM96.1 60.5h5.5v10.4l-5.5-5.5v-4.9zm-19.2 52.1H66v-2.7h11v2.7zm13.7 0h-11v-22h11v22zm13.8 0h-11v-2.7h11v2.7zm0-5.5h-11V89.3c0-.8-.6-1.4-1.4-1.4H78.3c-.8 0-1.4.6-1.4 1.4v17.8H66V77.5l19.2-19.2 19.2 19.2v29.6zm-17.9-2.7c.8 0 1.4-.6 1.4-1.4 0-.8-.6-1.4-1.4-1.4-.8 0-1.4.6-1.4 1.4.1.7.7 1.4 1.4 1.4z"/><path class="st1" d="M114.4 83.7l-10.6-10.6V58.6c0-.8-.6-1.4-1.4-1.4h-8.2c-.8 0-1.4.6-1.4 1.4v3.5l-7.3-7.3c-.2-.2-.6-.4-1-.4s-.7.2-1 .4L54.9 83.7c-.2.2-.4.6-.4 1 0 .8.6 1.4 1.4 1.4.4 0 .7-.2 1-.4l5.9-5.9v33.7c0 .8.6 1.4 1.4 1.4h41.1c.8 0 1.4-.6 1.4-1.4V79.7l5.9 5.9c.2.2.6.4 1 .4.8 0 1.4-.6 1.4-1.4-.2-.3-.3-.7-.6-.9zM95.6 60h5.5v10.4l-5.5-5.5V60zm-19.2 52.1h-11v-2.7h11v2.7zm13.7 0h-11v-22h11v22zm13.8 0h-11v-2.7h11v2.7zm0-5.5h-11V88.8c0-.8-.6-1.4-1.4-1.4H77.8c-.8 0-1.4.6-1.4 1.4v17.8h-11V77l19.2-19.2L103.9 77v29.6zM86 103.9c.8 0 1.4-.6 1.4-1.4 0-.8-.6-1.4-1.4-1.4-.8 0-1.4.6-1.4 1.4.1.7.7 1.4 1.4 1.4z"/><path class="st1" d="M113.9 83.2l-10.6-10.6V58.1c0-.8-.6-1.4-1.4-1.4h-8.2c-.8 0-1.4.6-1.4 1.4v3.5L85 54.3c-.2-.2-.6-.4-1-.4s-.7.2-1 .4L54.4 83.2c-.2.2-.4.6-.4 1 0 .8.6 1.4 1.4 1.4.4 0 .7-.2 1-.4l5.9-5.9V113c0 .8.6 1.4 1.4 1.4h41.1c.8 0 1.4-.6 1.4-1.4V79.2l5.9 5.9c.2.2.6.4 1 .4.8 0 1.4-.6 1.4-1.4-.2-.3-.3-.7-.6-.9zM95.1 59.5h5.5v10.4l-5.5-5.5v-4.9zm-19.2 52.1H65v-2.7h11v2.7zm13.7 0h-11v-22h11v22zm13.8 0h-11v-2.7h11v2.7zm0-5.5h-11V88.3c0-.8-.6-1.4-1.4-1.4H77.3c-.8 0-1.4.6-1.4 1.4v17.8H65V76.5l19.2-19.2 19.2 19.2v29.6zm-17.9-2.7c.8 0 1.4-.6 1.4-1.4 0-.8-.6-1.4-1.4-1.4-.8 0-1.4.6-1.4 1.4.1.7.7 1.4 1.4 1.4z"/><path class="st1" d="M113.4 82.7l-10.6-10.6V57.6c0-.8-.6-1.4-1.4-1.4h-8.2c-.8 0-1.4.6-1.4 1.4v3.5l-7.3-7.3c-.2-.2-.6-.4-1-.4s-.7.2-1 .4L53.9 82.7c-.2.2-.4.6-.4 1 0 .8.6 1.4 1.4 1.4.4 0 .7-.2 1-.4l5.9-5.9v33.7c0 .8.6 1.4 1.4 1.4h41.1c.8 0 1.4-.6 1.4-1.4V78.7l5.9 5.9c.2.2.6.4 1 .4.8 0 1.4-.6 1.4-1.4-.2-.3-.3-.7-.6-.9zM94.6 59h5.5v10.4l-5.5-5.5V59zm-19.2 52.1h-11v-2.7h11v2.7zm13.7 0h-11v-22h11v22zm13.8 0h-11v-2.7h11v2.7zm0-5.5h-11V87.8c0-.8-.6-1.4-1.4-1.4H76.8c-.8 0-1.4.6-1.4 1.4v17.8h-11V76l19.2-19.2L102.9 76v29.6zM85 102.9c.8 0 1.4-.6 1.4-1.4 0-.8-.6-1.4-1.4-1.4-.8 0-1.4.6-1.4 1.4.1.7.7 1.4 1.4 1.4z"/><path class="st1" d="M112.9 82.2l-10.6-10.6V57.1c0-.8-.6-1.4-1.4-1.4h-8.2c-.8 0-1.4.6-1.4 1.4v3.5L84 53.3c-.2-.2-.6-.4-1-.4s-.7.2-1 .4L53.4 82.2c-.2.2-.4.6-.4 1 0 .8.6 1.4 1.4 1.4.4 0 .7-.2 1-.4l5.9-5.9V112c0 .8.6 1.4 1.4 1.4h41.1c.8 0 1.4-.6 1.4-1.4V78.2l5.9 5.9c.2.2.6.4 1 .4.8 0 1.4-.6 1.4-1.4-.2-.3-.3-.7-.6-.9zM94.1 58.5h5.5v10.4l-5.5-5.5v-4.9zm-19.2 52.1H64v-2.7h11v2.7zm13.7 0h-11v-22h11v22zm13.8 0h-11v-2.7h11v2.7zm0-5.5h-11V87.3c0-.8-.6-1.4-1.4-1.4H76.3c-.8 0-1.4.6-1.4 1.4v17.8H64V75.5l19.2-19.2 19.2 19.2v29.6zm-17.9-2.7c.8 0 1.4-.6 1.4-1.4 0-.8-.6-1.4-1.4-1.4-.8 0-1.4.6-1.4 1.4.1.7.7 1.4 1.4 1.4z"/><path class="st1" d="M112.4 81.7l-10.6-10.6V56.6c0-.8-.6-1.4-1.4-1.4h-8.2c-.8 0-1.4.6-1.4 1.4v3.5l-7.3-7.3c-.2-.2-.6-.4-1-.4s-.7.2-1 .4L52.9 81.7c-.2.2-.4.6-.4 1 0 .8.6 1.4 1.4 1.4.4 0 .7-.2 1-.4l5.9-5.9v33.7c0 .8.6 1.4 1.4 1.4h41.1c.8 0 1.4-.6 1.4-1.4V77.7l5.9 5.9c.2.2.6.4 1 .4.8 0 1.4-.6 1.4-1.4-.2-.3-.3-.7-.6-.9zM93.6 58h5.5v10.4l-5.5-5.5V58zm-19.2 52.1h-11v-2.7h11v2.7zm13.7 0h-11v-22h11v22zm13.8 0h-11v-2.7h11v2.7zm0-5.5h-11V86.8c0-.8-.6-1.4-1.4-1.4H75.8c-.8 0-1.4.6-1.4 1.4v17.8h-11V75l19.2-19.2L101.9 75v29.6zM84 101.9c.8 0 1.4-.6 1.4-1.4 0-.8-.6-1.4-1.4-1.4-.8 0-1.4.6-1.4 1.4.1.7.7 1.4 1.4 1.4z"/><path class="st1" d="M111.9 81.2l-10.6-10.6V56.1c0-.8-.6-1.4-1.4-1.4h-8.2c-.8 0-1.4.6-1.4 1.4v3.5L83 52.3c-.2-.2-.6-.4-1-.4s-.7.2-1 .4L52.4 81.2c-.2.2-.4.6-.4 1 0 .8.6 1.4 1.4 1.4.4 0 .7-.2 1-.4l5.9-5.9V111c0 .8.6 1.4 1.4 1.4h41.1c.8 0 1.4-.6 1.4-1.4V77.2l5.9 5.9c.2.2.6.4 1 .4.8 0 1.4-.6 1.4-1.4-.2-.3-.3-.7-.6-.9zM93.1 57.5h5.5v10.4l-5.5-5.5v-4.9zm-19.2 52.1H63v-2.7h11v2.7zm13.7 0h-11v-22h11v22zm13.8 0h-11v-2.7h11v2.7zm0-5.5h-11V86.3c0-.8-.6-1.4-1.4-1.4H75.3c-.8 0-1.4.6-1.4 1.4v17.8H63V74.5l19.2-19.2 19.2 19.2v29.6zm-17.9-2.7c.8 0 1.4-.6 1.4-1.4 0-.8-.6-1.4-1.4-1.4-.8 0-1.4.6-1.4 1.4.1.7.7 1.4 1.4 1.4z"/><path class="st1" d="M111.4 80.7l-10.6-10.6V55.6c0-.8-.6-1.4-1.4-1.4h-8.2c-.8 0-1.4.6-1.4 1.4v3.5l-7.3-7.3c-.2-.2-.6-.4-1-.4s-.7.2-1 .4L51.9 80.7c-.2.2-.4.6-.4 1 0 .8.6 1.4 1.4 1.4.4 0 .7-.2 1-.4l5.9-5.9v33.7c0 .8.6 1.4 1.4 1.4h41.1c.8 0 1.4-.6 1.4-1.4V76.7l5.9 5.9c.2.2.6.4 1 .4.8 0 1.4-.6 1.4-1.4-.2-.3-.3-.7-.6-.9zM92.6 57h5.5v10.4l-5.5-5.5V57zm-19.2 52.1h-11v-2.7h11v2.7zm13.7 0h-11v-22h11v22zm13.8 0h-11v-2.7h11v2.7zm0-5.5h-11V85.8c0-.8-.6-1.4-1.4-1.4H74.8c-.8 0-1.4.6-1.4 1.4v17.8h-11V74l19.2-19.2L100.9 74v29.6zM83 100.9c.8 0 1.4-.6 1.4-1.4 0-.8-.6-1.4-1.4-1.4-.8 0-1.4.6-1.4 1.4.1.7.7 1.4 1.4 1.4z"/><path class="st1" d="M110.9 80.2l-10.6-10.6V55.1c0-.8-.6-1.4-1.4-1.4h-8.2c-.8 0-1.4.6-1.4 1.4v3.5L82 51.3c-.2-.2-.6-.4-1-.4s-.7.2-1 .4L51.4 80.2c-.2.2-.4.6-.4 1 0 .8.6 1.4 1.4 1.4.4 0 .7-.2 1-.4l5.9-5.9V110c0 .8.6 1.4 1.4 1.4h41.1c.8 0 1.4-.6 1.4-1.4V76.2l5.9 5.9c.2.2.6.4 1 .4.8 0 1.4-.6 1.4-1.4-.2-.3-.3-.7-.6-.9zM92.1 56.5h5.5v10.4l-5.5-5.5v-4.9zm-19.2 52.1H62v-2.7h11v2.7zm13.7 0h-11v-22h11v22zm13.8 0h-11v-2.7h11v2.7zm0-5.5h-11V85.3c0-.8-.6-1.4-1.4-1.4H74.3c-.8 0-1.4.6-1.4 1.4v17.8H62V73.5l19.2-19.2 19.2 19.2v29.6zm-17.9-2.7c.8 0 1.4-.6 1.4-1.4 0-.8-.6-1.4-1.4-1.4-.8 0-1.4.6-1.4 1.4.1.7.7 1.4 1.4 1.4z"/><path class="st1" d="M110.4 79.7L99.9 69.1V54.6c0-.8-.6-1.4-1.4-1.4h-8.2c-.8 0-1.4.6-1.4 1.4v3.5l-7.3-7.3c-.2-.2-.6-.4-1-.4s-.7.2-1 .4L50.9 79.7c-.2.2-.4.6-.4 1 0 .8.6 1.4 1.4 1.4.4 0 .7-.2 1-.4l5.9-5.9v33.7c0 .8.6 1.4 1.4 1.4h41.1c.8 0 1.4-.6 1.4-1.4V75.7l5.9 5.9c.2.2.6.4 1 .4.8 0 1.4-.6 1.4-1.4-.2-.3-.3-.7-.6-.9zM91.6 56h5.5v10.4l-5.5-5.5V56zm-19.2 52.1h-11v-2.7h11v2.7zm13.7 0h-11v-22h11v22zm13.8 0h-11v-2.7h11v2.7zm0-5.5h-11V84.8c0-.8-.6-1.4-1.4-1.4H73.8c-.8 0-1.4.6-1.4 1.4v17.8h-11V73l19.2-19.2L99.9 73v29.6zM82 99.9c.8 0 1.4-.6 1.4-1.4 0-.8-.6-1.4-1.4-1.4-.8 0-1.4.6-1.4 1.4.1.7.7 1.4 1.4 1.4z"/><path class="st1" d="M109.9 79.2L99.4 68.6V54.1c0-.8-.6-1.4-1.4-1.4h-8.2c-.8 0-1.4.6-1.4 1.4v3.5l-7.3-7.3c-.2-.2-.6-.4-1-.4s-.7.2-1 .4L50.4 79.2c-.2.2-.4.6-.4 1 0 .8.6 1.4 1.4 1.4.4 0 .7-.2 1-.4l5.9-5.9V109c0 .8.6 1.4 1.4 1.4h41.1c.8 0 1.4-.6 1.4-1.4V75.2l5.9 5.9c.2.2.6.4 1 .4.8 0 1.4-.6 1.4-1.4-.2-.3-.3-.7-.6-.9zM91.1 55.5h5.5v10.4l-5.5-5.5v-4.9zm-19.2 52.1H61v-2.7h11v2.7zm13.7 0h-11v-22h11v22zm13.8 0h-11v-2.7h11v2.7zm0-5.5h-11V84.3c0-.8-.6-1.4-1.4-1.4H73.3c-.8 0-1.4.6-1.4 1.4v17.8H61V72.5l19.2-19.2 19.2 19.2v29.6zm-17.9-2.7c.8 0 1.4-.6 1.4-1.4 0-.8-.6-1.4-1.4-1.4-.8 0-1.4.6-1.4 1.4.1.7.7 1.4 1.4 1.4z"/><path class="st1" d="M109.4 78.7L98.9 68.1V53.6c0-.8-.6-1.4-1.4-1.4h-8.2c-.8 0-1.4.6-1.4 1.4v3.5l-7.3-7.3c-.2-.2-.6-.4-1-.4s-.7.2-1 .4L49.9 78.7c-.2.2-.4.6-.4 1 0 .8.6 1.4 1.4 1.4.4 0 .7-.2 1-.4l5.9-5.9v33.7c0 .8.6 1.4 1.4 1.4h41.1c.8 0 1.4-.6 1.4-1.4V74.7l5.9 5.9c.2.2.6.4 1 .4.8 0 1.4-.6 1.4-1.4-.2-.3-.3-.7-.6-.9zM90.6 55h5.5v10.4l-5.5-5.5V55zm-19.2 52.1h-11v-2.7h11v2.7zm13.7 0h-11v-22h11v22zm13.8 0h-11v-2.7h11v2.7zm0-5.5h-11V83.8c0-.8-.6-1.4-1.4-1.4H72.8c-.8 0-1.4.6-1.4 1.4v17.8h-11V72l19.2-19.2L98.9 72v29.6zM81 98.9c.8 0 1.4-.6 1.4-1.4 0-.8-.6-1.4-1.4-1.4-.8 0-1.4.6-1.4 1.4.1.7.7 1.4 1.4 1.4z"/><path class="st1" d="M108.9 78.2L98.4 67.6V53.1c0-.8-.6-1.4-1.4-1.4h-8.2c-.8 0-1.4.6-1.4 1.4v3.5l-7.3-7.3c-.2-.2-.6-.4-1-.4s-.7.2-1 .4L49.4 78.2c-.2.2-.4.6-.4 1 0 .8.6 1.4 1.4 1.4.4 0 .7-.2 1-.4l5.9-5.9V108c0 .8.6 1.4 1.4 1.4h41.1c.8 0 1.4-.6 1.4-1.4V74.2l5.9 5.9c.2.2.6.4 1 .4.8 0 1.4-.6 1.4-1.4-.2-.3-.3-.7-.6-.9zM90.1 54.5h5.5v10.4l-5.5-5.5v-4.9zm-19.2 52.1H60v-2.7h11v2.7zm13.7 0h-11v-22h11v22zm13.8 0h-11v-2.7h11v2.7zm0-5.5h-11V83.3c0-.8-.6-1.4-1.4-1.4H72.3c-.8 0-1.4.6-1.4 1.4v17.8H60V71.5l19.2-19.2 19.2 19.2v29.6zm-17.9-2.7c.8 0 1.4-.6 1.4-1.4 0-.8-.6-1.4-1.4-1.4-.8 0-1.4.6-1.4 1.4.1.7.7 1.4 1.4 1.4z"/><path class="st1" d="M108.4 77.7L97.9 67.1V52.6c0-.8-.6-1.4-1.4-1.4h-8.2c-.8 0-1.4.6-1.4 1.4v3.5l-7.3-7.3c-.2-.2-.6-.4-1-.4s-.7.2-1 .4L48.9 77.7c-.2.2-.4.6-.4 1 0 .8.6 1.4 1.4 1.4.4 0 .7-.2 1-.4l5.9-5.9v33.7c0 .8.6 1.4 1.4 1.4h41.1c.8 0 1.4-.6 1.4-1.4V73.7l5.9 5.9c.2.2.6.4 1 .4.8 0 1.4-.6 1.4-1.4-.2-.3-.3-.7-.6-.9zM89.6 54h5.5v10.4l-5.5-5.5V54zm-19.2 52.1h-11v-2.7h11v2.7zm13.7 0h-11v-22h11v22zm13.8 0h-11v-2.7h11v2.7zm0-5.5h-11V82.8c0-.8-.6-1.4-1.4-1.4H71.8c-.8 0-1.4.6-1.4 1.4v17.8h-11V71l19.2-19.2L97.9 71v29.6zM80 97.9c.8 0 1.4-.6 1.4-1.4 0-.8-.6-1.4-1.4-1.4-.8 0-1.4.6-1.4 1.4.1.7.7 1.4 1.4 1.4z"/></g><path class="st2" d="M108.4 77.7L97.9 67.1V52.6c0-.8-.6-1.4-1.4-1.4h-8.2c-.8 0-1.4.6-1.4 1.4v3.5l-7.3-7.3c-.2-.2-.6-.4-1-.4s-.7.2-1 .4L48.9 77.7c-.2.2-.4.6-.4 1 0 .8.6 1.4 1.4 1.4.4 0 .7-.2 1-.4l5.9-5.9v33.7c0 .8.6 1.4 1.4 1.4H99.3c.8 0 1.4-.6 1.4-1.4V73.7l5.9 5.9c.2.2.6.4 1 .4.8 0 1.4-.6 1.4-1.4-.2-.3-.3-.7-.6-.9zM89.6 54h5.5v10.4l-5.5-5.5V54zm-19.2 52.1h-11v-2.7h11v2.7zm13.7 0h-11v-22h11v22zm13.8 0h-11v-2.7h11v2.7zm0-5.5h-11V82.8c0-.8-.6-1.4-1.4-1.4H71.8c-.8 0-1.4.6-1.4 1.4v17.8h-11V71l19.2-19.2L97.9 71v29.6zM80 97.9c.8 0 1.4-.6 1.4-1.4 0-.8-.6-1.4-1.4-1.4-.8 0-1.4.6-1.4 1.4.1.7.7 1.4 1.4 1.4z" id="Home_x40_2x.png_2_"/></svg>