<?xml version="1.0" encoding="utf-8"?>
<!-- Generator: Adobe Illustrator 19.1.0, SVG Export Plug-In . SVG Version: 6.00 Build 0)  -->
<svg version="1.1" id="Layer_1" xmlns="http://www.w3.org/2000/svg" xmlns:xlink="http://www.w3.org/1999/xlink" x="0px" y="0px"
	 viewBox="0 0 157.3 157.3" style="enable-background:new 0 0 157.3 157.3;" xml:space="preserve">
<style type="text/css">
	.st0{opacity:5.000000e-002;clip-path:url(#SVGID_2_);}
	.st1{fill:#010202;}
	.st2{fill:#324654;}
</style>
<g>
	<defs>
		<circle id="SVGID_1_" cx="78.7" cy="78.7" r="78.7"/>
	</defs>
	<use xlink:href="#SVGID_1_"  style="overflow:visible;opacity:0.1;fill:#010202;"/>
	<clipPath id="SVGID_2_">
		<use xlink:href="#SVGID_1_"  style="overflow:visible;opacity:0.1;"/>
	</clipPath>
	<g id="Page_1_x40_2x.png" class="st0">
		<g>
			<g>
				<path class="st1" d="M113.1,109.6h7.5c0.8,0,1.5-0.7,1.5-1.5c0-0.8-0.7-1.5-1.5-1.5h-7.5c-0.8,0-1.5,0.7-1.5,1.5
					C111.6,108.9,112.3,109.6,113.1,109.6z M138.7,93.1h-33.1c-3.3,0-6,2.7-6,6v54.1c0,3.3,2.7,6,6,6h42.1c3.3,0,6-2.7,6-6v-43.6
					L138.7,93.1z M150.7,153.2c0,1.7-1.3,3-3,3h-42.1c-1.7,0-3-1.3-3-3V99.1c0-1.7,1.3-3,3-3h27.1v15c0,1.7,1.3,3,3,3h15V153.2z
					 M135.7,111.1v-15h1.5l13.5,15H135.7z M131.2,142.6h-18c-0.8,0-1.5,0.7-1.5,1.5c0,0.8,0.7,1.5,1.5,1.5h18c0.8,0,1.5-0.7,1.5-1.5
					C132.7,143.3,132,142.6,131.2,142.6z M140.2,130.6h-27.1c-0.8,0-1.5,0.7-1.5,1.5c0,0.8,0.7,1.5,1.5,1.5h27.1
					c0.8,0,1.5-0.7,1.5-1.5C141.7,131.3,141,130.6,140.2,130.6z M111.6,120.1c0,0.8,0.7,1.5,1.5,1.5h27.1c0.8,0,1.5-0.7,1.5-1.5
					c0-0.8-0.7-1.5-1.5-1.5h-27.1C112.3,118.6,111.6,119.3,111.6,120.1z"/>
			</g>
		</g>
		<g>
			<g>
				<path class="st1" d="M112.6,109.1h7.5c0.8,0,1.5-0.7,1.5-1.5c0-0.8-0.7-1.5-1.5-1.5h-7.5c-0.8,0-1.5,0.7-1.5,1.5
					C111.1,108.4,111.8,109.1,112.6,109.1z M138.2,92.6h-33.1c-3.3,0-6,2.7-6,6v54.1c0,3.3,2.7,6,6,6h42.1c3.3,0,6-2.7,6-6v-43.6
					L138.2,92.6z M150.2,152.7c0,1.7-1.3,3-3,3h-42.1c-1.7,0-3-1.3-3-3V98.6c0-1.7,1.3-3,3-3h27.1v15c0,1.7,1.3,3,3,3h15V152.7z
					 M135.2,110.6v-15h1.5l13.5,15H135.2z M130.7,142.1h-18c-0.8,0-1.5,0.7-1.5,1.5c0,0.8,0.7,1.5,1.5,1.5h18c0.8,0,1.5-0.7,1.5-1.5
					C132.2,142.8,131.5,142.1,130.7,142.1z M139.7,130.1h-27.1c-0.8,0-1.5,0.7-1.5,1.5c0,0.8,0.7,1.5,1.5,1.5h27.1
					c0.8,0,1.5-0.7,1.5-1.5C141.2,130.8,140.5,130.1,139.7,130.1z M111.1,119.6c0,0.8,0.7,1.5,1.5,1.5h27.1c0.8,0,1.5-0.7,1.5-1.5
					c0-0.8-0.7-1.5-1.5-1.5h-27.1C111.8,118.1,111.1,118.8,111.1,119.6z"/>
			</g>
		</g>
		<g>
			<g>
				<path class="st1" d="M112.1,108.6h7.5c0.8,0,1.5-0.7,1.5-1.5c0-0.8-0.7-1.5-1.5-1.5h-7.5c-0.8,0-1.5,0.7-1.5,1.5
					C110.6,107.9,111.3,108.6,112.1,108.6z M137.7,92.1h-33.1c-3.3,0-6,2.7-6,6v54.1c0,3.3,2.7,6,6,6h42.1c3.3,0,6-2.7,6-6v-43.6
					L137.7,92.1z M149.7,152.2c0,1.7-1.3,3-3,3h-42.1c-1.7,0-3-1.3-3-3V98.1c0-1.7,1.3-3,3-3h27.1v15c0,1.7,1.3,3,3,3h15V152.2z
					 M134.7,110.1v-15h1.5l13.5,15H134.7z M130.2,141.6h-18c-0.8,0-1.5,0.7-1.5,1.5c0,0.8,0.7,1.5,1.5,1.5h18c0.8,0,1.5-0.7,1.5-1.5
					C131.7,142.3,131,141.6,130.2,141.6z M139.2,129.6h-27.1c-0.8,0-1.5,0.7-1.5,1.5c0,0.8,0.7,1.5,1.5,1.5h27.1
					c0.8,0,1.5-0.7,1.5-1.5C140.7,130.3,140,129.6,139.2,129.6z M110.6,119.1c0,0.8,0.7,1.5,1.5,1.5h27.1c0.8,0,1.5-0.7,1.5-1.5
					c0-0.8-0.7-1.5-1.5-1.5h-27.1C111.3,117.6,110.6,118.3,110.6,119.1z"/>
			</g>
		</g>
		<g>
			<g>
				<path class="st1" d="M111.6,108.1h7.5c0.8,0,1.5-0.7,1.5-1.5c0-0.8-0.7-1.5-1.5-1.5h-7.5c-0.8,0-1.5,0.7-1.5,1.5
					C110.1,107.4,110.8,108.1,111.6,108.1z M137.2,91.6h-33.1c-3.3,0-6,2.7-6,6v54.1c0,3.3,2.7,6,6,6h42.1c3.3,0,6-2.7,6-6v-43.6
					L137.2,91.6z M149.2,151.7c0,1.7-1.3,3-3,3h-42.1c-1.7,0-3-1.3-3-3V97.6c0-1.7,1.3-3,3-3h27.1v15c0,1.7,1.3,3,3,3h15V151.7z
					 M134.2,109.6v-15h1.5l13.5,15H134.2z M129.7,141.1h-18c-0.8,0-1.5,0.7-1.5,1.5c0,0.8,0.7,1.5,1.5,1.5h18c0.8,0,1.5-0.7,1.5-1.5
					C131.2,141.8,130.5,141.1,129.7,141.1z M138.7,129.1h-27.1c-0.8,0-1.5,0.7-1.5,1.5c0,0.8,0.7,1.5,1.5,1.5h27.1
					c0.8,0,1.5-0.7,1.5-1.5C140.2,129.8,139.5,129.1,138.7,129.1z M110.1,118.6c0,0.8,0.7,1.5,1.5,1.5h27.1c0.8,0,1.5-0.7,1.5-1.5
					c0-0.8-0.7-1.5-1.5-1.5h-27.1C110.8,117.1,110.1,117.8,110.1,118.6z"/>
			</g>
		</g>
		<g>
			<g>
				<path class="st1" d="M111.1,107.6h7.5c0.8,0,1.5-0.7,1.5-1.5c0-0.8-0.7-1.5-1.5-1.5h-7.5c-0.8,0-1.5,0.7-1.5,1.5
					C109.6,106.9,110.3,107.6,111.1,107.6z M136.7,91.1h-33.1c-3.3,0-6,2.7-6,6v54.1c0,3.3,2.7,6,6,6h42.1c3.3,0,6-2.7,6-6v-43.6
					L136.7,91.1z M148.7,151.2c0,1.7-1.3,3-3,3h-42.1c-1.7,0-3-1.3-3-3V97.1c0-1.7,1.3-3,3-3h27.1v15c0,1.7,1.3,3,3,3h15V151.2z
					 M133.7,109.1v-15h1.5l13.5,15H133.7z M129.2,140.6h-18c-0.8,0-1.5,0.7-1.5,1.5c0,0.8,0.7,1.5,1.5,1.5h18c0.8,0,1.5-0.7,1.5-1.5
					C130.7,141.3,130,140.6,129.2,140.6z M138.2,128.6h-27.1c-0.8,0-1.5,0.7-1.5,1.5c0,0.8,0.7,1.5,1.5,1.5h27.1
					c0.8,0,1.5-0.7,1.5-1.5C139.7,129.3,139,128.6,138.2,128.6z M109.6,118.1c0,0.8,0.7,1.5,1.5,1.5h27.1c0.8,0,1.5-0.7,1.5-1.5
					c0-0.8-0.7-1.5-1.5-1.5h-27.1C110.3,116.6,109.6,117.3,109.6,118.1z"/>
			</g>
		</g>
		<g>
			<g>
				<path class="st1" d="M110.6,107.1h7.5c0.8,0,1.5-0.7,1.5-1.5c0-0.8-0.7-1.5-1.5-1.5h-7.5c-0.8,0-1.5,0.7-1.5,1.5
					C109.1,106.4,109.8,107.1,110.6,107.1z M136.2,90.6h-33.1c-3.3,0-6,2.7-6,6v54.1c0,3.3,2.7,6,6,6h42.1c3.3,0,6-2.7,6-6v-43.6
					L136.2,90.6z M148.2,150.7c0,1.7-1.3,3-3,3h-42.1c-1.7,0-3-1.3-3-3V96.6c0-1.7,1.3-3,3-3h27.1v15c0,1.7,1.3,3,3,3h15V150.7z
					 M133.2,108.6v-15h1.5l13.5,15H133.2z M128.7,140.1h-18c-0.8,0-1.5,0.7-1.5,1.5c0,0.8,0.7,1.5,1.5,1.5h18c0.8,0,1.5-0.7,1.5-1.5
					C130.2,140.8,129.5,140.1,128.7,140.1z M137.7,128.1h-27.1c-0.8,0-1.5,0.7-1.5,1.5c0,0.8,0.7,1.5,1.5,1.5h27.1
					c0.8,0,1.5-0.7,1.5-1.5C139.2,128.8,138.5,128.1,137.7,128.1z M109.1,117.6c0,0.8,0.7,1.5,1.5,1.5h27.1c0.8,0,1.5-0.7,1.5-1.5
					c0-0.8-0.7-1.5-1.5-1.5h-27.1C109.8,116.1,109.1,116.8,109.1,117.6z"/>
			</g>
		</g>
		<g>
			<g>
				<path class="st1" d="M110.1,106.6h7.5c0.8,0,1.5-0.7,1.5-1.5c0-0.8-0.7-1.5-1.5-1.5h-7.5c-0.8,0-1.5,0.7-1.5,1.5
					C108.6,105.9,109.3,106.6,110.1,106.6z M135.7,90.1h-33.1c-3.3,0-6,2.7-6,6v54.1c0,3.3,2.7,6,6,6h42.1c3.3,0,6-2.7,6-6v-43.6
					L135.7,90.1z M147.7,150.2c0,1.7-1.3,3-3,3h-42.1c-1.7,0-3-1.3-3-3V96.1c0-1.7,1.3-3,3-3h27.1v15c0,1.7,1.3,3,3,3h15V150.2z
					 M132.7,108.1v-15h1.5l13.5,15H132.7z M128.2,139.6h-18c-0.8,0-1.5,0.7-1.5,1.5c0,0.8,0.7,1.5,1.5,1.5h18c0.8,0,1.5-0.7,1.5-1.5
					C129.7,140.3,129,139.6,128.2,139.6z M137.2,127.6h-27.1c-0.8,0-1.5,0.7-1.5,1.5c0,0.8,0.7,1.5,1.5,1.5h27.1
					c0.8,0,1.5-0.7,1.5-1.5C138.7,128.3,138,127.6,137.2,127.6z M108.6,117.1c0,0.8,0.7,1.5,1.5,1.5h27.1c0.8,0,1.5-0.7,1.5-1.5
					c0-0.8-0.7-1.5-1.5-1.5h-27.1C109.3,115.6,108.6,116.3,108.6,117.1z"/>
			</g>
		</g>
		<g>
			<g>
				<path class="st1" d="M109.6,106.1h7.5c0.8,0,1.5-0.7,1.5-1.5c0-0.8-0.7-1.5-1.5-1.5h-7.5c-0.8,0-1.5,0.7-1.5,1.5
					C108.1,105.4,108.8,106.1,109.6,106.1z M135.2,89.6h-33.1c-3.3,0-6,2.7-6,6v54.1c0,3.3,2.7,6,6,6h42.1c3.3,0,6-2.7,6-6v-43.6
					L135.2,89.6z M147.2,149.7c0,1.7-1.3,3-3,3h-42.1c-1.7,0-3-1.3-3-3V95.6c0-1.7,1.3-3,3-3h27.1v15c0,1.7,1.3,3,3,3h15V149.7z
					 M132.2,107.6v-15h1.5l13.5,15H132.2z M127.7,139.1h-18c-0.8,0-1.5,0.7-1.5,1.5c0,0.8,0.7,1.5,1.5,1.5h18c0.8,0,1.5-0.7,1.5-1.5
					C129.2,139.8,128.5,139.1,127.7,139.1z M136.7,127.1h-27.1c-0.8,0-1.5,0.7-1.5,1.5c0,0.8,0.7,1.5,1.5,1.5h27.1
					c0.8,0,1.5-0.7,1.5-1.5C138.2,127.8,137.5,127.1,136.7,127.1z M108.1,116.6c0,0.8,0.7,1.5,1.5,1.5h27.1c0.8,0,1.5-0.7,1.5-1.5
					c0-0.8-0.7-1.5-1.5-1.5h-27.1C108.8,115.1,108.1,115.8,108.1,116.6z"/>
			</g>
		</g>
		<g>
			<g>
				<path class="st1" d="M109.1,105.6h7.5c0.8,0,1.5-0.7,1.5-1.5c0-0.8-0.7-1.5-1.5-1.5h-7.5c-0.8,0-1.5,0.7-1.5,1.5
					C107.6,104.9,108.3,105.6,109.1,105.6z M134.7,89.1h-33.1c-3.3,0-6,2.7-6,6v54.1c0,3.3,2.7,6,6,6h42.1c3.3,0,6-2.7,6-6v-43.6
					L134.7,89.1z M146.7,149.2c0,1.7-1.3,3-3,3h-42.1c-1.7,0-3-1.3-3-3V95.1c0-1.7,1.3-3,3-3h27.1v15c0,1.7,1.3,3,3,3h15V149.2z
					 M131.7,107.1v-15h1.5l13.5,15H131.7z M127.2,138.6h-18c-0.8,0-1.5,0.7-1.5,1.5c0,0.8,0.7,1.5,1.5,1.5h18c0.8,0,1.5-0.7,1.5-1.5
					C128.7,139.3,128,138.6,127.2,138.6z M136.2,126.6h-27.1c-0.8,0-1.5,0.7-1.5,1.5c0,0.8,0.7,1.5,1.5,1.5h27.1
					c0.8,0,1.5-0.7,1.5-1.5C137.7,127.3,137,126.6,136.2,126.6z M107.6,116.1c0,0.8,0.7,1.5,1.5,1.5h27.1c0.8,0,1.5-0.7,1.5-1.5
					c0-0.8-0.7-1.5-1.5-1.5h-27.1C108.3,114.6,107.6,115.3,107.6,116.1z"/>
			</g>
		</g>
		<g>
			<g>
				<path class="st1" d="M108.6,105.1h7.5c0.8,0,1.5-0.7,1.5-1.5c0-0.8-0.7-1.5-1.5-1.5h-7.5c-0.8,0-1.5,0.7-1.5,1.5
					C107.1,104.4,107.8,105.1,108.6,105.1z M134.2,88.6h-33.1c-3.3,0-6,2.7-6,6v54.1c0,3.3,2.7,6,6,6h42.1c3.3,0,6-2.7,6-6v-43.6
					L134.2,88.6z M146.2,148.7c0,1.7-1.3,3-3,3h-42.1c-1.7,0-3-1.3-3-3V94.6c0-1.7,1.3-3,3-3h27.1v15c0,1.7,1.3,3,3,3h15V148.7z
					 M131.2,106.6v-15h1.5l13.5,15H131.2z M126.7,138.1h-18c-0.8,0-1.5,0.7-1.5,1.5c0,0.8,0.7,1.5,1.5,1.5h18c0.8,0,1.5-0.7,1.5-1.5
					C128.2,138.8,127.5,138.1,126.7,138.1z M135.7,126.1h-27.1c-0.8,0-1.5,0.7-1.5,1.5c0,0.8,0.7,1.5,1.5,1.5h27.1
					c0.8,0,1.5-0.7,1.5-1.5C137.2,126.8,136.5,126.1,135.7,126.1z M107.1,115.6c0,0.8,0.7,1.5,1.5,1.5h27.1c0.8,0,1.5-0.7,1.5-1.5
					c0-0.8-0.7-1.5-1.5-1.5h-27.1C107.8,114.1,107.1,114.8,107.1,115.6z"/>
			</g>
		</g>
		<g>
			<g>
				<path class="st1" d="M108.1,104.6h7.5c0.8,0,1.5-0.7,1.5-1.5c0-0.8-0.7-1.5-1.5-1.5h-7.5c-0.8,0-1.5,0.7-1.5,1.5
					C106.6,103.9,107.3,104.6,108.1,104.6z M133.7,88.1h-33.1c-3.3,0-6,2.7-6,6v54.1c0,3.3,2.7,6,6,6h42.1c3.3,0,6-2.7,6-6v-43.6
					L133.7,88.1z M145.7,148.2c0,1.7-1.3,3-3,3h-42.1c-1.7,0-3-1.3-3-3V94.1c0-1.7,1.3-3,3-3h27.1v15c0,1.7,1.3,3,3,3h15V148.2z
					 M130.7,106.1v-15h1.5l13.5,15H130.7z M126.2,137.6h-18c-0.8,0-1.5,0.7-1.5,1.5c0,0.8,0.7,1.5,1.5,1.5h18c0.8,0,1.5-0.7,1.5-1.5
					C127.7,138.3,127,137.6,126.2,137.6z M135.2,125.6h-27.1c-0.8,0-1.5,0.7-1.5,1.5c0,0.8,0.7,1.5,1.5,1.5h27.1
					c0.8,0,1.5-0.7,1.5-1.5C136.7,126.3,136,125.6,135.2,125.6z M106.6,115.1c0,0.8,0.7,1.5,1.5,1.5h27.1c0.8,0,1.5-0.7,1.5-1.5
					c0-0.8-0.7-1.5-1.5-1.5h-27.1C107.3,113.6,106.6,114.3,106.6,115.1z"/>
			</g>
		</g>
		<g>
			<g>
				<path class="st1" d="M107.6,104.1h7.5c0.8,0,1.5-0.7,1.5-1.5c0-0.8-0.7-1.5-1.5-1.5h-7.5c-0.8,0-1.5,0.7-1.5,1.5
					C106.1,103.4,106.8,104.1,107.6,104.1z M133.2,87.6h-33.1c-3.3,0-6,2.7-6,6v54.1c0,3.3,2.7,6,6,6h42.1c3.3,0,6-2.7,6-6v-43.6
					L133.2,87.6z M145.2,147.7c0,1.7-1.3,3-3,3h-42.1c-1.7,0-3-1.3-3-3V93.6c0-1.7,1.3-3,3-3h27.1v15c0,1.7,1.3,3,3,3h15V147.7z
					 M130.2,105.6v-15h1.5l13.5,15H130.2z M125.7,137.1h-18c-0.8,0-1.5,0.7-1.5,1.5c0,0.8,0.7,1.5,1.5,1.5h18c0.8,0,1.5-0.7,1.5-1.5
					C127.2,137.8,126.5,137.1,125.7,137.1z M134.7,125.1h-27.1c-0.8,0-1.5,0.7-1.5,1.5c0,0.8,0.7,1.5,1.5,1.5h27.1
					c0.8,0,1.5-0.7,1.5-1.5C136.2,125.8,135.5,125.1,134.7,125.1z M106.1,114.6c0,0.8,0.7,1.5,1.5,1.5h27.1c0.8,0,1.5-0.7,1.5-1.5
					c0-0.8-0.7-1.5-1.5-1.5h-27.1C106.8,113.1,106.1,113.8,106.1,114.6z"/>
			</g>
		</g>
		<g>
			<g>
				<path class="st1" d="M107.1,103.6h7.5c0.8,0,1.5-0.7,1.5-1.5c0-0.8-0.7-1.5-1.5-1.5h-7.5c-0.8,0-1.5,0.7-1.5,1.5
					C105.6,102.9,106.3,103.6,107.1,103.6z M132.7,87.1H99.6c-3.3,0-6,2.7-6,6v54.1c0,3.3,2.7,6,6,6h42.1c3.3,0,6-2.7,6-6v-43.6
					L132.7,87.1z M144.7,147.2c0,1.7-1.3,3-3,3H99.6c-1.7,0-3-1.3-3-3V93.1c0-1.7,1.3-3,3-3h27.1v15c0,1.7,1.3,3,3,3h15V147.2z
					 M129.7,105.1v-15h1.5l13.5,15H129.7z M125.2,136.6h-18c-0.8,0-1.5,0.7-1.5,1.5c0,0.8,0.7,1.5,1.5,1.5h18c0.8,0,1.5-0.7,1.5-1.5
					C126.7,137.3,126,136.6,125.2,136.6z M134.2,124.6h-27.1c-0.8,0-1.5,0.7-1.5,1.5c0,0.8,0.7,1.5,1.5,1.5h27.1
					c0.8,0,1.5-0.7,1.5-1.5C135.7,125.3,135,124.6,134.2,124.6z M105.6,114.1c0,0.8,0.7,1.5,1.5,1.5h27.1c0.8,0,1.5-0.7,1.5-1.5
					c0-0.8-0.7-1.5-1.5-1.5h-27.1C106.3,112.6,105.6,113.3,105.6,114.1z"/>
			</g>
		</g>
		<g>
			<g>
				<path class="st1" d="M106.6,103.1h7.5c0.8,0,1.5-0.7,1.5-1.5c0-0.8-0.7-1.5-1.5-1.5h-7.5c-0.8,0-1.5,0.7-1.5,1.5
					C105.1,102.4,105.8,103.1,106.6,103.1z M132.2,86.6H99.1c-3.3,0-6,2.7-6,6v54.1c0,3.3,2.7,6,6,6h42.1c3.3,0,6-2.7,6-6v-43.6
					L132.2,86.6z M144.2,146.7c0,1.7-1.3,3-3,3H99.1c-1.7,0-3-1.3-3-3V92.6c0-1.7,1.3-3,3-3h27.1v15c0,1.7,1.3,3,3,3h15V146.7z
					 M129.2,104.6v-15h1.5l13.5,15H129.2z M124.7,136.1h-18c-0.8,0-1.5,0.7-1.5,1.5c0,0.8,0.7,1.5,1.5,1.5h18c0.8,0,1.5-0.7,1.5-1.5
					C126.2,136.8,125.5,136.1,124.7,136.1z M133.7,124.1h-27.1c-0.8,0-1.5,0.7-1.5,1.5c0,0.8,0.7,1.5,1.5,1.5h27.1
					c0.8,0,1.5-0.7,1.5-1.5C135.2,124.8,134.5,124.1,133.7,124.1z M105.1,113.6c0,0.8,0.7,1.5,1.5,1.5h27.1c0.8,0,1.5-0.7,1.5-1.5
					c0-0.8-0.7-1.5-1.5-1.5h-27.1C105.8,112.1,105.1,112.8,105.1,113.6z"/>
			</g>
		</g>
		<g>
			<g>
				<path class="st1" d="M106.1,102.6h7.5c0.8,0,1.5-0.7,1.5-1.5c0-0.8-0.7-1.5-1.5-1.5h-7.5c-0.8,0-1.5,0.7-1.5,1.5
					C104.6,101.9,105.3,102.6,106.1,102.6z M131.7,86.1H98.6c-3.3,0-6,2.7-6,6v54.1c0,3.3,2.7,6,6,6h42.1c3.3,0,6-2.7,6-6v-43.6
					L131.7,86.1z M143.7,146.2c0,1.7-1.3,3-3,3H98.6c-1.7,0-3-1.3-3-3V92.1c0-1.7,1.3-3,3-3h27.1v15c0,1.7,1.3,3,3,3h15V146.2z
					 M128.7,104.1v-15h1.5l13.5,15H128.7z M124.2,135.6h-18c-0.8,0-1.5,0.7-1.5,1.5c0,0.8,0.7,1.5,1.5,1.5h18c0.8,0,1.5-0.7,1.5-1.5
					C125.7,136.3,125,135.6,124.2,135.6z M133.2,123.6h-27.1c-0.8,0-1.5,0.7-1.5,1.5c0,0.8,0.7,1.5,1.5,1.5h27.1
					c0.8,0,1.5-0.7,1.5-1.5C134.7,124.3,134,123.6,133.2,123.6z M104.6,113.1c0,0.8,0.7,1.5,1.5,1.5h27.1c0.8,0,1.5-0.7,1.5-1.5
					c0-0.8-0.7-1.5-1.5-1.5h-27.1C105.3,111.6,104.6,112.3,104.6,113.1z"/>
			</g>
		</g>
		<g>
			<g>
				<path class="st1" d="M105.6,102.1h7.5c0.8,0,1.5-0.7,1.5-1.5c0-0.8-0.7-1.5-1.5-1.5h-7.5c-0.8,0-1.5,0.7-1.5,1.5
					C104.1,101.4,104.8,102.1,105.6,102.1z M131.2,85.6H98.1c-3.3,0-6,2.7-6,6v54.1c0,3.3,2.7,6,6,6h42.1c3.3,0,6-2.7,6-6v-43.6
					L131.2,85.6z M143.2,145.7c0,1.7-1.3,3-3,3H98.1c-1.7,0-3-1.3-3-3V91.6c0-1.7,1.3-3,3-3h27.1v15c0,1.7,1.3,3,3,3h15V145.7z
					 M128.2,103.6v-15h1.5l13.5,15H128.2z M123.7,135.1h-18c-0.8,0-1.5,0.7-1.5,1.5c0,0.8,0.7,1.5,1.5,1.5h18c0.8,0,1.5-0.7,1.5-1.5
					C125.2,135.8,124.5,135.1,123.7,135.1z M132.7,123.1h-27.1c-0.8,0-1.5,0.7-1.5,1.5c0,0.8,0.7,1.5,1.5,1.5h27.1
					c0.8,0,1.5-0.7,1.5-1.5C134.2,123.8,133.5,123.1,132.7,123.1z M104.1,112.6c0,0.8,0.7,1.5,1.5,1.5h27.1c0.8,0,1.5-0.7,1.5-1.5
					c0-0.8-0.7-1.5-1.5-1.5h-27.1C104.8,111.1,104.1,111.8,104.1,112.6z"/>
			</g>
		</g>
		<g>
			<g>
				<path class="st1" d="M105.1,101.6h7.5c0.8,0,1.5-0.7,1.5-1.5c0-0.8-0.7-1.5-1.5-1.5h-7.5c-0.8,0-1.5,0.7-1.5,1.5
					C103.6,100.9,104.3,101.6,105.1,101.6z M130.7,85.1H97.6c-3.3,0-6,2.7-6,6v54.1c0,3.3,2.7,6,6,6h42.1c3.3,0,6-2.7,6-6v-43.6
					L130.7,85.1z M142.7,145.2c0,1.7-1.3,3-3,3H97.6c-1.7,0-3-1.3-3-3V91.1c0-1.7,1.3-3,3-3h27.1v15c0,1.7,1.3,3,3,3h15V145.2z
					 M127.7,103.1v-15h1.5l13.5,15H127.7z M123.2,134.6h-18c-0.8,0-1.5,0.7-1.5,1.5c0,0.8,0.7,1.5,1.5,1.5h18c0.8,0,1.5-0.7,1.5-1.5
					C124.7,135.3,124,134.6,123.2,134.6z M132.2,122.6h-27.1c-0.8,0-1.5,0.7-1.5,1.5c0,0.8,0.7,1.5,1.5,1.5h27.1
					c0.8,0,1.5-0.7,1.5-1.5C133.7,123.3,133,122.6,132.2,122.6z M103.6,112.1c0,0.8,0.7,1.5,1.5,1.5h27.1c0.8,0,1.5-0.7,1.5-1.5
					c0-0.8-0.7-1.5-1.5-1.5h-27.1C104.3,110.6,103.6,111.3,103.6,112.1z"/>
			</g>
		</g>
		<g>
			<g>
				<path class="st1" d="M104.6,101.1h7.5c0.8,0,1.5-0.7,1.5-1.5c0-0.8-0.7-1.5-1.5-1.5h-7.5c-0.8,0-1.5,0.7-1.5,1.5
					C103.1,100.4,103.8,101.1,104.6,101.1z M130.2,84.6H97.1c-3.3,0-6,2.7-6,6v54.1c0,3.3,2.7,6,6,6h42.1c3.3,0,6-2.7,6-6v-43.6
					L130.2,84.6z M142.2,144.7c0,1.7-1.3,3-3,3H97.1c-1.7,0-3-1.3-3-3V90.6c0-1.7,1.3-3,3-3h27.1v15c0,1.7,1.3,3,3,3h15V144.7z
					 M127.2,102.6v-15h1.5l13.5,15H127.2z M122.7,134.1h-18c-0.8,0-1.5,0.7-1.5,1.5c0,0.8,0.7,1.5,1.5,1.5h18c0.8,0,1.5-0.7,1.5-1.5
					C124.2,134.8,123.5,134.1,122.7,134.1z M131.7,122.1h-27.1c-0.8,0-1.5,0.7-1.5,1.5c0,0.8,0.7,1.5,1.5,1.5h27.1
					c0.8,0,1.5-0.7,1.5-1.5C133.2,122.8,132.5,122.1,131.7,122.1z M103.1,111.6c0,0.8,0.7,1.5,1.5,1.5h27.1c0.8,0,1.5-0.7,1.5-1.5
					c0-0.8-0.7-1.5-1.5-1.5h-27.1C103.8,110.1,103.1,110.8,103.1,111.6z"/>
			</g>
		</g>
		<g>
			<g>
				<path class="st1" d="M104.1,100.6h7.5c0.8,0,1.5-0.7,1.5-1.5c0-0.8-0.7-1.5-1.5-1.5h-7.5c-0.8,0-1.5,0.7-1.5,1.5
					C102.6,99.9,103.3,100.6,104.1,100.6z M129.7,84.1H96.6c-3.3,0-6,2.7-6,6v54.1c0,3.3,2.7,6,6,6h42.1c3.3,0,6-2.7,6-6v-43.6
					L129.7,84.1z M141.7,144.2c0,1.7-1.3,3-3,3H96.6c-1.7,0-3-1.3-3-3V90.1c0-1.7,1.3-3,3-3h27.1v15c0,1.7,1.3,3,3,3h15V144.2z
					 M126.7,102.1v-15h1.5l13.5,15H126.7z M122.2,133.6h-18c-0.8,0-1.5,0.7-1.5,1.5c0,0.8,0.7,1.5,1.5,1.5h18c0.8,0,1.5-0.7,1.5-1.5
					C123.7,134.3,123,133.6,122.2,133.6z M131.2,121.6h-27.1c-0.8,0-1.5,0.7-1.5,1.5c0,0.8,0.7,1.5,1.5,1.5h27.1
					c0.8,0,1.5-0.7,1.5-1.5C132.7,122.3,132,121.6,131.2,121.6z M102.6,111.1c0,0.8,0.7,1.5,1.5,1.5h27.1c0.8,0,1.5-0.7,1.5-1.5
					c0-0.8-0.7-1.5-1.5-1.5h-27.1C103.3,109.6,102.6,110.3,102.6,111.1z"/>
			</g>
		</g>
		<g>
			<g>
				<path class="st1" d="M103.6,100.1h7.5c0.8,0,1.5-0.7,1.5-1.5c0-0.8-0.7-1.5-1.5-1.5h-7.5c-0.8,0-1.5,0.7-1.5,1.5
					C102.1,99.4,102.8,100.1,103.6,100.1z M129.2,83.6H96.1c-3.3,0-6,2.7-6,6v54.1c0,3.3,2.7,6,6,6h42.1c3.3,0,6-2.7,6-6v-43.6
					L129.2,83.6z M141.2,143.7c0,1.7-1.3,3-3,3H96.1c-1.7,0-3-1.3-3-3V89.6c0-1.7,1.3-3,3-3h27.1v15c0,1.7,1.3,3,3,3h15V143.7z
					 M126.2,101.6v-15h1.5l13.5,15H126.2z M121.7,133.1h-18c-0.8,0-1.5,0.7-1.5,1.5c0,0.8,0.7,1.5,1.5,1.5h18c0.8,0,1.5-0.7,1.5-1.5
					C123.2,133.8,122.5,133.1,121.7,133.1z M130.7,121.1h-27.1c-0.8,0-1.5,0.7-1.5,1.5c0,0.8,0.7,1.5,1.5,1.5h27.1
					c0.8,0,1.5-0.7,1.5-1.5C132.2,121.8,131.5,121.1,130.7,121.1z M102.1,110.6c0,0.8,0.7,1.5,1.5,1.5h27.1c0.8,0,1.5-0.7,1.5-1.5
					c0-0.8-0.7-1.5-1.5-1.5h-27.1C102.8,109.1,102.1,109.8,102.1,110.6z"/>
			</g>
		</g>
		<g>
			<g>
				<path class="st1" d="M103.1,99.6h7.5c0.8,0,1.5-0.7,1.5-1.5c0-0.8-0.7-1.5-1.5-1.5h-7.5c-0.8,0-1.5,0.7-1.5,1.5
					C101.6,98.9,102.3,99.6,103.1,99.6z M128.7,83.1H95.6c-3.3,0-6,2.7-6,6v54.1c0,3.3,2.7,6,6,6h42.1c3.3,0,6-2.7,6-6V99.6
					L128.7,83.1z M140.7,143.2c0,1.7-1.3,3-3,3H95.6c-1.7,0-3-1.3-3-3V89.1c0-1.7,1.3-3,3-3h27.1v15c0,1.7,1.3,3,3,3h15V143.2z
					 M125.7,101.1v-15h1.5l13.5,15H125.7z M121.2,132.6h-18c-0.8,0-1.5,0.7-1.5,1.5c0,0.8,0.7,1.5,1.5,1.5h18c0.8,0,1.5-0.7,1.5-1.5
					C122.7,133.3,122,132.6,121.2,132.6z M130.2,120.6h-27.1c-0.8,0-1.5,0.7-1.5,1.5c0,0.8,0.7,1.5,1.5,1.5h27.1
					c0.8,0,1.5-0.7,1.5-1.5C131.7,121.3,131,120.6,130.2,120.6z M101.6,110.1c0,0.8,0.7,1.5,1.5,1.5h27.1c0.8,0,1.5-0.7,1.5-1.5
					c0-0.8-0.7-1.5-1.5-1.5h-27.1C102.3,108.6,101.6,109.3,101.6,110.1z"/>
			</g>
		</g>
		<g>
			<g>
				<path class="st1" d="M102.6,99.1h7.5c0.8,0,1.5-0.7,1.5-1.5c0-0.8-0.7-1.5-1.5-1.5h-7.5c-0.8,0-1.5,0.7-1.5,1.5
					C101.1,98.4,101.8,99.1,102.6,99.1z M128.2,82.6H95.1c-3.3,0-6,2.7-6,6v54.1c0,3.3,2.7,6,6,6h42.1c3.3,0,6-2.7,6-6V99.1
					L128.2,82.6z M140.2,142.7c0,1.7-1.3,3-3,3H95.1c-1.7,0-3-1.3-3-3V88.6c0-1.7,1.3-3,3-3h27.1v15c0,1.7,1.3,3,3,3h15V142.7z
					 M125.2,100.6v-15h1.5l13.5,15H125.2z M120.7,132.1h-18c-0.8,0-1.5,0.7-1.5,1.5c0,0.8,0.7,1.5,1.5,1.5h18c0.8,0,1.5-0.7,1.5-1.5
					C122.2,132.8,121.5,132.1,120.7,132.1z M129.7,120.1h-27.1c-0.8,0-1.5,0.7-1.5,1.5c0,0.8,0.7,1.5,1.5,1.5h27.1
					c0.8,0,1.5-0.7,1.5-1.5C131.2,120.8,130.5,120.1,129.7,120.1z M101.1,109.6c0,0.8,0.7,1.5,1.5,1.5h27.1c0.8,0,1.5-0.7,1.5-1.5
					c0-0.8-0.7-1.5-1.5-1.5h-27.1C101.8,108.1,101.1,108.8,101.1,109.6z"/>
			</g>
		</g>
		<g>
			<g>
				<path class="st1" d="M102.1,98.6h7.5c0.8,0,1.5-0.7,1.5-1.5c0-0.8-0.7-1.5-1.5-1.5h-7.5c-0.8,0-1.5,0.7-1.5,1.5
					C100.6,97.9,101.3,98.6,102.1,98.6z M127.7,82.1H94.6c-3.3,0-6,2.7-6,6v54.1c0,3.3,2.7,6,6,6h42.1c3.3,0,6-2.7,6-6V98.6
					L127.7,82.1z M139.7,142.2c0,1.7-1.3,3-3,3H94.6c-1.7,0-3-1.3-3-3V88.1c0-1.7,1.3-3,3-3h27.1v15c0,1.7,1.3,3,3,3h15V142.2z
					 M124.7,100.1v-15h1.5l13.5,15H124.7z M120.2,131.6h-18c-0.8,0-1.5,0.7-1.5,1.5c0,0.8,0.7,1.5,1.5,1.5h18c0.8,0,1.5-0.7,1.5-1.5
					C121.7,132.3,121,131.6,120.2,131.6z M129.2,119.6h-27.1c-0.8,0-1.5,0.7-1.5,1.5c0,0.8,0.7,1.5,1.5,1.5h27.1
					c0.8,0,1.5-0.7,1.5-1.5C130.7,120.3,130,119.6,129.2,119.6z M100.6,109.1c0,0.8,0.7,1.5,1.5,1.5h27.1c0.8,0,1.5-0.7,1.5-1.5
					c0-0.8-0.7-1.5-1.5-1.5h-27.1C101.3,107.6,100.6,108.3,100.6,109.1z"/>
			</g>
		</g>
		<g>
			<g>
				<path class="st1" d="M101.6,98.1h7.5c0.8,0,1.5-0.7,1.5-1.5c0-0.8-0.7-1.5-1.5-1.5h-7.5c-0.8,0-1.5,0.7-1.5,1.5
					C100.1,97.4,100.8,98.1,101.6,98.1z M127.2,81.6H94.1c-3.3,0-6,2.7-6,6v54.1c0,3.3,2.7,6,6,6h42.1c3.3,0,6-2.7,6-6V98.1
					L127.2,81.6z M139.2,141.7c0,1.7-1.3,3-3,3H94.1c-1.7,0-3-1.3-3-3V87.6c0-1.7,1.3-3,3-3h27.1v15c0,1.7,1.3,3,3,3h15V141.7z
					 M124.2,99.6v-15h1.5l13.5,15H124.2z M119.7,131.1h-18c-0.8,0-1.5,0.7-1.5,1.5c0,0.8,0.7,1.5,1.5,1.5h18c0.8,0,1.5-0.7,1.5-1.5
					C121.2,131.8,120.5,131.1,119.7,131.1z M128.7,119.1h-27.1c-0.8,0-1.5,0.7-1.5,1.5c0,0.8,0.7,1.5,1.5,1.5h27.1
					c0.8,0,1.5-0.7,1.5-1.5C130.2,119.8,129.5,119.1,128.7,119.1z M100.1,108.6c0,0.8,0.7,1.5,1.5,1.5h27.1c0.8,0,1.5-0.7,1.5-1.5
					c0-0.8-0.7-1.5-1.5-1.5h-27.1C100.8,107.1,100.1,107.8,100.1,108.6z"/>
			</g>
		</g>
		<g>
			<g>
				<path class="st1" d="M101.1,97.6h7.5c0.8,0,1.5-0.7,1.5-1.5c0-0.8-0.7-1.5-1.5-1.5h-7.5c-0.8,0-1.5,0.7-1.5,1.5
					C99.6,96.9,100.3,97.6,101.1,97.6z M126.7,81.1H93.6c-3.3,0-6,2.7-6,6v54.1c0,3.3,2.7,6,6,6h42.1c3.3,0,6-2.7,6-6V97.6
					L126.7,81.1z M138.7,141.2c0,1.7-1.3,3-3,3H93.6c-1.7,0-3-1.3-3-3V87.1c0-1.7,1.3-3,3-3h27.1v15c0,1.7,1.3,3,3,3h15V141.2z
					 M123.7,99.1v-15h1.5l13.5,15H123.7z M119.2,130.6h-18c-0.8,0-1.5,0.7-1.5,1.5c0,0.8,0.7,1.5,1.5,1.5h18c0.8,0,1.5-0.7,1.5-1.5
					C120.7,131.3,120,130.6,119.2,130.6z M128.2,118.6h-27.1c-0.8,0-1.5,0.7-1.5,1.5c0,0.8,0.7,1.5,1.5,1.5h27.1
					c0.8,0,1.5-0.7,1.5-1.5C129.7,119.3,129,118.6,128.2,118.6z M99.6,108.1c0,0.8,0.7,1.5,1.5,1.5h27.1c0.8,0,1.5-0.7,1.5-1.5
					c0-0.8-0.7-1.5-1.5-1.5h-27.1C100.3,106.6,99.6,107.3,99.6,108.1z"/>
			</g>
		</g>
		<g>
			<g>
				<path class="st1" d="M100.6,97.1h7.5c0.8,0,1.5-0.7,1.5-1.5c0-0.8-0.7-1.5-1.5-1.5h-7.5c-0.8,0-1.5,0.7-1.5,1.5
					C99.1,96.4,99.8,97.1,100.6,97.1z M126.2,80.6H93.1c-3.3,0-6,2.7-6,6v54.1c0,3.3,2.7,6,6,6h42.1c3.3,0,6-2.7,6-6V97.1
					L126.2,80.6z M138.2,140.7c0,1.7-1.3,3-3,3H93.1c-1.7,0-3-1.3-3-3V86.6c0-1.7,1.3-3,3-3h27.1v15c0,1.7,1.3,3,3,3h15V140.7z
					 M123.2,98.6v-15h1.5l13.5,15H123.2z M118.7,130.1h-18c-0.8,0-1.5,0.7-1.5,1.5c0,0.8,0.7,1.5,1.5,1.5h18c0.8,0,1.5-0.7,1.5-1.5
					C120.2,130.8,119.5,130.1,118.7,130.1z M127.7,118.1h-27.1c-0.8,0-1.5,0.7-1.5,1.5c0,0.8,0.7,1.5,1.5,1.5h27.1
					c0.8,0,1.5-0.7,1.5-1.5C129.2,118.8,128.5,118.1,127.7,118.1z M99.1,107.6c0,0.8,0.7,1.5,1.5,1.5h27.1c0.8,0,1.5-0.7,1.5-1.5
					c0-0.8-0.7-1.5-1.5-1.5h-27.1C99.8,106.1,99.1,106.8,99.1,107.6z"/>
			</g>
		</g>
		<g>
			<g>
				<path class="st1" d="M100.1,96.6h7.5c0.8,0,1.5-0.7,1.5-1.5c0-0.8-0.7-1.5-1.5-1.5h-7.5c-0.8,0-1.5,0.7-1.5,1.5
					C98.6,95.9,99.3,96.6,100.1,96.6z M125.7,80.1H92.6c-3.3,0-6,2.7-6,6v54.1c0,3.3,2.7,6,6,6h42.1c3.3,0,6-2.7,6-6V96.6
					L125.7,80.1z M137.7,140.2c0,1.7-1.3,3-3,3H92.6c-1.7,0-3-1.3-3-3V86.1c0-1.7,1.3-3,3-3h27.1v15c0,1.7,1.3,3,3,3h15V140.2z
					 M122.7,98.1v-15h1.5l13.5,15H122.7z M118.2,129.6h-18c-0.8,0-1.5,0.7-1.5,1.5c0,0.8,0.7,1.5,1.5,1.5h18c0.8,0,1.5-0.7,1.5-1.5
					C119.7,130.3,119,129.6,118.2,129.6z M127.2,117.6h-27.1c-0.8,0-1.5,0.7-1.5,1.5c0,0.8,0.7,1.5,1.5,1.5h27.1
					c0.8,0,1.5-0.7,1.5-1.5C128.7,118.3,128,117.6,127.2,117.6z M98.6,107.1c0,0.8,0.7,1.5,1.5,1.5h27.1c0.8,0,1.5-0.7,1.5-1.5
					c0-0.8-0.7-1.5-1.5-1.5h-27.1C99.3,105.6,98.6,106.3,98.6,107.1z"/>
			</g>
		</g>
		<g>
			<g>
				<path class="st1" d="M99.6,96.1h7.5c0.8,0,1.5-0.7,1.5-1.5c0-0.8-0.7-1.5-1.5-1.5h-7.5c-0.8,0-1.5,0.7-1.5,1.5
					C98.1,95.4,98.8,96.1,99.6,96.1z M125.2,79.6H92.1c-3.3,0-6,2.7-6,6v54.1c0,3.3,2.7,6,6,6h42.1c3.3,0,6-2.7,6-6V96.1L125.2,79.6
					z M137.2,139.7c0,1.7-1.3,3-3,3H92.1c-1.7,0-3-1.3-3-3V85.6c0-1.7,1.3-3,3-3h27.1v15c0,1.7,1.3,3,3,3h15V139.7z M122.2,97.6v-15
					h1.5l13.5,15H122.2z M117.7,129.1h-18c-0.8,0-1.5,0.7-1.5,1.5c0,0.8,0.7,1.5,1.5,1.5h18c0.8,0,1.5-0.7,1.5-1.5
					C119.2,129.8,118.5,129.1,117.7,129.1z M126.7,117.1H99.6c-0.8,0-1.5,0.7-1.5,1.5c0,0.8,0.7,1.5,1.5,1.5h27.1
					c0.8,0,1.5-0.7,1.5-1.5C128.2,117.8,127.5,117.1,126.7,117.1z M98.1,106.6c0,0.8,0.7,1.5,1.5,1.5h27.1c0.8,0,1.5-0.7,1.5-1.5
					c0-0.8-0.7-1.5-1.5-1.5H99.6C98.8,105.1,98.1,105.8,98.1,106.6z"/>
			</g>
		</g>
		<g>
			<g>
				<path class="st1" d="M99.1,95.6h7.5c0.8,0,1.5-0.7,1.5-1.5c0-0.8-0.7-1.5-1.5-1.5h-7.5c-0.8,0-1.5,0.7-1.5,1.5
					C97.6,94.9,98.3,95.6,99.1,95.6z M124.7,79.1H91.6c-3.3,0-6,2.7-6,6v54.1c0,3.3,2.7,6,6,6h42.1c3.3,0,6-2.7,6-6V95.6L124.7,79.1
					z M136.7,139.2c0,1.7-1.3,3-3,3H91.6c-1.7,0-3-1.3-3-3V85.1c0-1.7,1.3-3,3-3h27.1v15c0,1.7,1.3,3,3,3h15V139.2z M121.7,97.1v-15
					h1.5l13.5,15H121.7z M117.2,128.6h-18c-0.8,0-1.5,0.7-1.5,1.5c0,0.8,0.7,1.5,1.5,1.5h18c0.8,0,1.5-0.7,1.5-1.5
					C118.7,129.3,118,128.6,117.2,128.6z M126.2,116.6H99.1c-0.8,0-1.5,0.7-1.5,1.5c0,0.8,0.7,1.5,1.5,1.5h27.1
					c0.8,0,1.5-0.7,1.5-1.5C127.7,117.3,127,116.6,126.2,116.6z M97.6,106.1c0,0.8,0.7,1.5,1.5,1.5h27.1c0.8,0,1.5-0.7,1.5-1.5
					c0-0.8-0.7-1.5-1.5-1.5H99.1C98.3,104.6,97.6,105.3,97.6,106.1z"/>
			</g>
		</g>
		<g>
			<g>
				<path class="st1" d="M98.6,95.1h7.5c0.8,0,1.5-0.7,1.5-1.5c0-0.8-0.7-1.5-1.5-1.5h-7.5c-0.8,0-1.5,0.7-1.5,1.5
					C97.1,94.4,97.8,95.1,98.6,95.1z M124.2,78.6H91.1c-3.3,0-6,2.7-6,6v54.1c0,3.3,2.7,6,6,6h42.1c3.3,0,6-2.7,6-6V95.1L124.2,78.6
					z M136.2,138.7c0,1.7-1.3,3-3,3H91.1c-1.7,0-3-1.3-3-3V84.6c0-1.7,1.3-3,3-3h27.1v15c0,1.7,1.3,3,3,3h15V138.7z M121.2,96.6v-15
					h1.5l13.5,15H121.2z M116.7,128.1h-18c-0.8,0-1.5,0.7-1.5,1.5c0,0.8,0.7,1.5,1.5,1.5h18c0.8,0,1.5-0.7,1.5-1.5
					C118.2,128.8,117.5,128.1,116.7,128.1z M125.7,116.1H98.6c-0.8,0-1.5,0.7-1.5,1.5c0,0.8,0.7,1.5,1.5,1.5h27.1
					c0.8,0,1.5-0.7,1.5-1.5C127.2,116.8,126.5,116.1,125.7,116.1z M97.1,105.6c0,0.8,0.7,1.5,1.5,1.5h27.1c0.8,0,1.5-0.7,1.5-1.5
					c0-0.8-0.7-1.5-1.5-1.5H98.6C97.8,104.1,97.1,104.8,97.1,105.6z"/>
			</g>
		</g>
		<g>
			<g>
				<path class="st1" d="M98.1,94.6h7.5c0.8,0,1.5-0.7,1.5-1.5c0-0.8-0.7-1.5-1.5-1.5h-7.5c-0.8,0-1.5,0.7-1.5,1.5
					C96.6,93.9,97.3,94.6,98.1,94.6z M123.7,78.1H90.6c-3.3,0-6,2.7-6,6v54.1c0,3.3,2.7,6,6,6h42.1c3.3,0,6-2.7,6-6V94.6L123.7,78.1
					z M135.7,138.2c0,1.7-1.3,3-3,3H90.6c-1.7,0-3-1.3-3-3V84.1c0-1.7,1.3-3,3-3h27.1v15c0,1.7,1.3,3,3,3h15V138.2z M120.7,96.1v-15
					h1.5l13.5,15H120.7z M116.2,127.6h-18c-0.8,0-1.5,0.7-1.5,1.5c0,0.8,0.7,1.5,1.5,1.5h18c0.8,0,1.5-0.7,1.5-1.5
					C117.7,128.3,117,127.6,116.2,127.6z M125.2,115.6H98.1c-0.8,0-1.5,0.7-1.5,1.5c0,0.8,0.7,1.5,1.5,1.5h27.1
					c0.8,0,1.5-0.7,1.5-1.5C126.7,116.3,126,115.6,125.2,115.6z M96.6,105.1c0,0.8,0.7,1.5,1.5,1.5h27.1c0.8,0,1.5-0.7,1.5-1.5
					c0-0.8-0.7-1.5-1.5-1.5H98.1C97.3,103.6,96.6,104.3,96.6,105.1z"/>
			</g>
		</g>
		<g>
			<g>
				<path class="st1" d="M97.6,94.1h7.5c0.8,0,1.5-0.7,1.5-1.5c0-0.8-0.7-1.5-1.5-1.5h-7.5c-0.8,0-1.5,0.7-1.5,1.5
					C96.1,93.4,96.8,94.1,97.6,94.1z M123.2,77.6H90.1c-3.3,0-6,2.7-6,6v54.1c0,3.3,2.7,6,6,6h42.1c3.3,0,6-2.7,6-6V94.1L123.2,77.6
					z M135.2,137.7c0,1.7-1.3,3-3,3H90.1c-1.7,0-3-1.3-3-3V83.6c0-1.7,1.3-3,3-3h27.1v15c0,1.7,1.3,3,3,3h15V137.7z M120.2,95.6v-15
					h1.5l13.5,15H120.2z M115.7,127.1h-18c-0.8,0-1.5,0.7-1.5,1.5c0,0.8,0.7,1.5,1.5,1.5h18c0.8,0,1.5-0.7,1.5-1.5
					C117.2,127.8,116.5,127.1,115.7,127.1z M124.7,115.1H97.6c-0.8,0-1.5,0.7-1.5,1.5c0,0.8,0.7,1.5,1.5,1.5h27.1
					c0.8,0,1.5-0.7,1.5-1.5C126.2,115.8,125.5,115.1,124.7,115.1z M96.1,104.6c0,0.8,0.7,1.5,1.5,1.5h27.1c0.8,0,1.5-0.7,1.5-1.5
					c0-0.8-0.7-1.5-1.5-1.5H97.6C96.8,103.1,96.1,103.8,96.1,104.6z"/>
			</g>
		</g>
		<g>
			<g>
				<path class="st1" d="M97.1,93.6h7.5c0.8,0,1.5-0.7,1.5-1.5c0-0.8-0.7-1.5-1.5-1.5h-7.5c-0.8,0-1.5,0.7-1.5,1.5
					C95.6,92.9,96.3,93.6,97.1,93.6z M122.7,77.1H89.6c-3.3,0-6,2.7-6,6v54.1c0,3.3,2.7,6,6,6h42.1c3.3,0,6-2.7,6-6V93.6L122.7,77.1
					z M134.7,137.2c0,1.7-1.3,3-3,3H89.6c-1.7,0-3-1.3-3-3V83.1c0-1.7,1.3-3,3-3h27.1v15c0,1.7,1.3,3,3,3h15V137.2z M119.7,95.1v-15
					h1.5l13.5,15H119.7z M115.2,126.6h-18c-0.8,0-1.5,0.7-1.5,1.5c0,0.8,0.7,1.5,1.5,1.5h18c0.8,0,1.5-0.7,1.5-1.5
					C116.7,127.3,116,126.6,115.2,126.6z M124.2,114.6H97.1c-0.8,0-1.5,0.7-1.5,1.5c0,0.8,0.7,1.5,1.5,1.5h27.1
					c0.8,0,1.5-0.7,1.5-1.5C125.7,115.3,125,114.6,124.2,114.6z M95.6,104.1c0,0.8,0.7,1.5,1.5,1.5h27.1c0.8,0,1.5-0.7,1.5-1.5
					c0-0.8-0.7-1.5-1.5-1.5H97.1C96.3,102.6,95.6,103.3,95.6,104.1z"/>
			</g>
		</g>
		<g>
			<g>
				<path class="st1" d="M96.6,93.1h7.5c0.8,0,1.5-0.7,1.5-1.5c0-0.8-0.7-1.5-1.5-1.5h-7.5c-0.8,0-1.5,0.7-1.5,1.5
					C95.1,92.4,95.8,93.1,96.6,93.1z M122.2,76.6H89.1c-3.3,0-6,2.7-6,6v54.1c0,3.3,2.7,6,6,6h42.1c3.3,0,6-2.7,6-6V93.1L122.2,76.6
					z M134.2,136.7c0,1.7-1.3,3-3,3H89.1c-1.7,0-3-1.3-3-3V82.6c0-1.7,1.3-3,3-3h27.1v15c0,1.7,1.3,3,3,3h15V136.7z M119.2,94.6v-15
					h1.5l13.5,15H119.2z M114.7,126.1h-18c-0.8,0-1.5,0.7-1.5,1.5c0,0.8,0.7,1.5,1.5,1.5h18c0.8,0,1.5-0.7,1.5-1.5
					C116.2,126.8,115.5,126.1,114.7,126.1z M123.7,114.1H96.6c-0.8,0-1.5,0.7-1.5,1.5c0,0.8,0.7,1.5,1.5,1.5h27.1
					c0.8,0,1.5-0.7,1.5-1.5C125.2,114.8,124.5,114.1,123.7,114.1z M95.1,103.6c0,0.8,0.7,1.5,1.5,1.5h27.1c0.8,0,1.5-0.7,1.5-1.5
					c0-0.8-0.7-1.5-1.5-1.5H96.6C95.8,102.1,95.1,102.8,95.1,103.6z"/>
			</g>
		</g>
		<g>
			<g>
				<path class="st1" d="M96.1,92.6h7.5c0.8,0,1.5-0.7,1.5-1.5c0-0.8-0.7-1.5-1.5-1.5h-7.5c-0.8,0-1.5,0.7-1.5,1.5
					C94.6,91.9,95.3,92.6,96.1,92.6z M121.7,76.1H88.6c-3.3,0-6,2.7-6,6v54.1c0,3.3,2.7,6,6,6h42.1c3.3,0,6-2.7,6-6V92.6L121.7,76.1
					z M133.7,136.2c0,1.7-1.3,3-3,3H88.6c-1.7,0-3-1.3-3-3V82.1c0-1.7,1.3-3,3-3h27.1v15c0,1.7,1.3,3,3,3h15V136.2z M118.7,94.1v-15
					h1.5l13.5,15H118.7z M114.2,125.6h-18c-0.8,0-1.5,0.7-1.5,1.5c0,0.8,0.7,1.5,1.5,1.5h18c0.8,0,1.5-0.7,1.5-1.5
					C115.7,126.3,115,125.6,114.2,125.6z M123.2,113.6H96.1c-0.8,0-1.5,0.7-1.5,1.5c0,0.8,0.7,1.5,1.5,1.5h27.1
					c0.8,0,1.5-0.7,1.5-1.5C124.7,114.3,124,113.6,123.2,113.6z M94.6,103.1c0,0.8,0.7,1.5,1.5,1.5h27.1c0.8,0,1.5-0.7,1.5-1.5
					c0-0.8-0.7-1.5-1.5-1.5H96.1C95.3,101.6,94.6,102.3,94.6,103.1z"/>
			</g>
		</g>
		<g>
			<g>
				<path class="st1" d="M95.6,92.1h7.5c0.8,0,1.5-0.7,1.5-1.5c0-0.8-0.7-1.5-1.5-1.5h-7.5c-0.8,0-1.5,0.7-1.5,1.5
					C94.1,91.4,94.8,92.1,95.6,92.1z M121.2,75.6H88.1c-3.3,0-6,2.7-6,6v54.1c0,3.3,2.7,6,6,6h42.1c3.3,0,6-2.7,6-6V92.1L121.2,75.6
					z M133.2,135.7c0,1.7-1.3,3-3,3H88.1c-1.7,0-3-1.3-3-3V81.6c0-1.7,1.3-3,3-3h27.1v15c0,1.7,1.3,3,3,3h15V135.7z M118.2,93.6v-15
					h1.5l13.5,15H118.2z M113.7,125.1h-18c-0.8,0-1.5,0.7-1.5,1.5c0,0.8,0.7,1.5,1.5,1.5h18c0.8,0,1.5-0.7,1.5-1.5
					C115.2,125.8,114.5,125.1,113.7,125.1z M122.7,113.1H95.6c-0.8,0-1.5,0.7-1.5,1.5c0,0.8,0.7,1.5,1.5,1.5h27.1
					c0.8,0,1.5-0.7,1.5-1.5C124.2,113.8,123.5,113.1,122.7,113.1z M94.1,102.6c0,0.8,0.7,1.5,1.5,1.5h27.1c0.8,0,1.5-0.7,1.5-1.5
					c0-0.8-0.7-1.5-1.5-1.5H95.6C94.8,101.1,94.1,101.8,94.1,102.6z"/>
			</g>
		</g>
		<g>
			<g>
				<path class="st1" d="M95.1,91.6h7.5c0.8,0,1.5-0.7,1.5-1.5c0-0.8-0.7-1.5-1.5-1.5h-7.5c-0.8,0-1.5,0.7-1.5,1.5
					C93.6,90.9,94.3,91.6,95.1,91.6z M120.7,75.1H87.6c-3.3,0-6,2.7-6,6v54.1c0,3.3,2.7,6,6,6h42.1c3.3,0,6-2.7,6-6V91.6L120.7,75.1
					z M132.7,135.2c0,1.7-1.3,3-3,3H87.6c-1.7,0-3-1.3-3-3V81.1c0-1.7,1.3-3,3-3h27.1v15c0,1.7,1.3,3,3,3h15V135.2z M117.7,93.1v-15
					h1.5l13.5,15H117.7z M113.2,124.6h-18c-0.8,0-1.5,0.7-1.5,1.5c0,0.8,0.7,1.5,1.5,1.5h18c0.8,0,1.5-0.7,1.5-1.5
					C114.7,125.3,114,124.6,113.2,124.6z M122.2,112.6H95.1c-0.8,0-1.5,0.7-1.5,1.5c0,0.8,0.7,1.5,1.5,1.5h27.1
					c0.8,0,1.5-0.7,1.5-1.5C123.7,113.3,123,112.6,122.2,112.6z M93.6,102.1c0,0.8,0.7,1.5,1.5,1.5h27.1c0.8,0,1.5-0.7,1.5-1.5
					c0-0.8-0.7-1.5-1.5-1.5H95.1C94.3,100.6,93.6,101.3,93.6,102.1z"/>
			</g>
		</g>
		<g>
			<g>
				<path class="st1" d="M94.6,91.1h7.5c0.8,0,1.5-0.7,1.5-1.5c0-0.8-0.7-1.5-1.5-1.5h-7.5c-0.8,0-1.5,0.7-1.5,1.5
					C93.1,90.4,93.8,91.1,94.6,91.1z M120.2,74.6H87.1c-3.3,0-6,2.7-6,6v54.1c0,3.3,2.7,6,6,6h42.1c3.3,0,6-2.7,6-6V91.1L120.2,74.6
					z M132.2,134.7c0,1.7-1.3,3-3,3H87.1c-1.7,0-3-1.3-3-3V80.6c0-1.7,1.3-3,3-3h27.1v15c0,1.7,1.3,3,3,3h15V134.7z M117.2,92.6v-15
					h1.5l13.5,15H117.2z M112.7,124.1h-18c-0.8,0-1.5,0.7-1.5,1.5c0,0.8,0.7,1.5,1.5,1.5h18c0.8,0,1.5-0.7,1.5-1.5
					C114.2,124.8,113.5,124.1,112.7,124.1z M121.7,112.1H94.6c-0.8,0-1.5,0.7-1.5,1.5c0,0.8,0.7,1.5,1.5,1.5h27.1
					c0.8,0,1.5-0.7,1.5-1.5C123.2,112.8,122.5,112.1,121.7,112.1z M93.1,101.6c0,0.8,0.7,1.5,1.5,1.5h27.1c0.8,0,1.5-0.7,1.5-1.5
					c0-0.8-0.7-1.5-1.5-1.5H94.6C93.8,100.1,93.1,100.8,93.1,101.6z"/>
			</g>
		</g>
		<g>
			<g>
				<path class="st1" d="M94.1,90.6h7.5c0.8,0,1.5-0.7,1.5-1.5c0-0.8-0.7-1.5-1.5-1.5h-7.5c-0.8,0-1.5,0.7-1.5,1.5
					C92.6,89.9,93.3,90.6,94.1,90.6z M119.7,74.1H86.6c-3.3,0-6,2.7-6,6v54.1c0,3.3,2.7,6,6,6h42.1c3.3,0,6-2.7,6-6V90.6L119.7,74.1
					z M131.7,134.2c0,1.7-1.3,3-3,3H86.6c-1.7,0-3-1.3-3-3V80.1c0-1.7,1.3-3,3-3h27.1v15c0,1.7,1.3,3,3,3h15V134.2z M116.7,92.1v-15
					h1.5l13.5,15H116.7z M112.2,123.6h-18c-0.8,0-1.5,0.7-1.5,1.5c0,0.8,0.7,1.5,1.5,1.5h18c0.8,0,1.5-0.7,1.5-1.5
					C113.7,124.3,113,123.6,112.2,123.6z M121.2,111.6H94.1c-0.8,0-1.5,0.7-1.5,1.5c0,0.8,0.7,1.5,1.5,1.5h27.1
					c0.8,0,1.5-0.7,1.5-1.5C122.7,112.3,122,111.6,121.2,111.6z M92.6,101.1c0,0.8,0.7,1.5,1.5,1.5h27.1c0.8,0,1.5-0.7,1.5-1.5
					c0-0.8-0.7-1.5-1.5-1.5H94.1C93.3,99.6,92.6,100.3,92.6,101.1z"/>
			</g>
		</g>
		<g>
			<g>
				<path class="st1" d="M93.6,90.1h7.5c0.8,0,1.5-0.7,1.5-1.5c0-0.8-0.7-1.5-1.5-1.5h-7.5c-0.8,0-1.5,0.7-1.5,1.5
					C92.1,89.4,92.8,90.1,93.6,90.1z M119.2,73.6H86.1c-3.3,0-6,2.7-6,6v54.1c0,3.3,2.7,6,6,6h42.1c3.3,0,6-2.7,6-6V90.1L119.2,73.6
					z M131.2,133.7c0,1.7-1.3,3-3,3H86.1c-1.7,0-3-1.3-3-3V79.6c0-1.7,1.3-3,3-3h27.1v15c0,1.7,1.3,3,3,3h15V133.7z M116.2,91.6v-15
					h1.5l13.5,15H116.2z M111.7,123.1h-18c-0.8,0-1.5,0.7-1.5,1.5c0,0.8,0.7,1.5,1.5,1.5h18c0.8,0,1.5-0.7,1.5-1.5
					C113.2,123.8,112.5,123.1,111.7,123.1z M120.7,111.1H93.6c-0.8,0-1.5,0.7-1.5,1.5c0,0.8,0.7,1.5,1.5,1.5h27.1
					c0.8,0,1.5-0.7,1.5-1.5C122.2,111.8,121.5,111.1,120.7,111.1z M92.1,100.6c0,0.8,0.7,1.5,1.5,1.5h27.1c0.8,0,1.5-0.7,1.5-1.5
					c0-0.8-0.7-1.5-1.5-1.5H93.6C92.8,99.1,92.1,99.8,92.1,100.6z"/>
			</g>
		</g>
		<g>
			<g>
				<path class="st1" d="M93.1,89.6h7.5c0.8,0,1.5-0.7,1.5-1.5c0-0.8-0.7-1.5-1.5-1.5h-7.5c-0.8,0-1.5,0.7-1.5,1.5
					C91.6,88.9,92.3,89.6,93.1,89.6z M118.7,73.1H85.6c-3.3,0-6,2.7-6,6v54.1c0,3.3,2.7,6,6,6h42.1c3.3,0,6-2.7,6-6V89.6L118.7,73.1
					z M130.7,133.2c0,1.7-1.3,3-3,3H85.6c-1.7,0-3-1.3-3-3V79.1c0-1.7,1.3-3,3-3h27.1v15c0,1.7,1.3,3,3,3h15V133.2z M115.7,91.1v-15
					h1.5l13.5,15H115.7z M111.2,122.6h-18c-0.8,0-1.5,0.7-1.5,1.5c0,0.8,0.7,1.5,1.5,1.5h18c0.8,0,1.5-0.7,1.5-1.5
					C112.7,123.3,112,122.6,111.2,122.6z M120.2,110.6H93.1c-0.8,0-1.5,0.7-1.5,1.5c0,0.8,0.7,1.5,1.5,1.5h27.1
					c0.8,0,1.5-0.7,1.5-1.5C121.7,111.3,121,110.6,120.2,110.6z M91.6,100.1c0,0.8,0.7,1.5,1.5,1.5h27.1c0.8,0,1.5-0.7,1.5-1.5
					c0-0.8-0.7-1.5-1.5-1.5H93.1C92.3,98.6,91.6,99.3,91.6,100.1z"/>
			</g>
		</g>
		<g>
			<g>
				<path class="st1" d="M92.6,89.1h7.5c0.8,0,1.5-0.7,1.5-1.5c0-0.8-0.7-1.5-1.5-1.5h-7.5c-0.8,0-1.5,0.7-1.5,1.5
					C91.1,88.4,91.8,89.1,92.6,89.1z M118.2,72.6H85.1c-3.3,0-6,2.7-6,6v54.1c0,3.3,2.7,6,6,6h42.1c3.3,0,6-2.7,6-6V89.1L118.2,72.6
					z M130.2,132.7c0,1.7-1.3,3-3,3H85.1c-1.7,0-3-1.3-3-3V78.6c0-1.7,1.3-3,3-3h27.1v15c0,1.7,1.3,3,3,3h15V132.7z M115.2,90.6v-15
					h1.5l13.5,15H115.2z M110.7,122.1h-18c-0.8,0-1.5,0.7-1.5,1.5c0,0.8,0.7,1.5,1.5,1.5h18c0.8,0,1.5-0.7,1.5-1.5
					C112.2,122.8,111.5,122.1,110.7,122.1z M119.7,110.1H92.6c-0.8,0-1.5,0.7-1.5,1.5c0,0.8,0.7,1.5,1.5,1.5h27.1
					c0.8,0,1.5-0.7,1.5-1.5C121.2,110.8,120.5,110.1,119.7,110.1z M91.1,99.6c0,0.8,0.7,1.5,1.5,1.5h27.1c0.8,0,1.5-0.7,1.5-1.5
					c0-0.8-0.7-1.5-1.5-1.5H92.6C91.8,98.1,91.1,98.8,91.1,99.6z"/>
			</g>
		</g>
		<g>
			<g>
				<path class="st1" d="M92.1,88.6h7.5c0.8,0,1.5-0.7,1.5-1.5c0-0.8-0.7-1.5-1.5-1.5h-7.5c-0.8,0-1.5,0.7-1.5,1.5
					C90.6,87.9,91.3,88.6,92.1,88.6z M117.7,72.1H84.6c-3.3,0-6,2.7-6,6v54.1c0,3.3,2.7,6,6,6h42.1c3.3,0,6-2.7,6-6V88.6L117.7,72.1
					z M129.7,132.2c0,1.7-1.3,3-3,3H84.6c-1.7,0-3-1.3-3-3V78.1c0-1.7,1.3-3,3-3h27.1v15c0,1.7,1.3,3,3,3h15V132.2z M114.7,90.1v-15
					h1.5l13.5,15H114.7z M110.2,121.6h-18c-0.8,0-1.5,0.7-1.5,1.5c0,0.8,0.7,1.5,1.5,1.5h18c0.8,0,1.5-0.7,1.5-1.5
					C111.7,122.3,111,121.6,110.2,121.6z M119.2,109.6H92.1c-0.8,0-1.5,0.7-1.5,1.5c0,0.8,0.7,1.5,1.5,1.5h27.1
					c0.8,0,1.5-0.7,1.5-1.5C120.7,110.3,120,109.6,119.2,109.6z M90.6,99.1c0,0.8,0.7,1.5,1.5,1.5h27.1c0.8,0,1.5-0.7,1.5-1.5
					c0-0.8-0.7-1.5-1.5-1.5H92.1C91.3,97.6,90.6,98.3,90.6,99.1z"/>
			</g>
		</g>
		<g>
			<g>
				<path class="st1" d="M91.6,88.1h7.5c0.8,0,1.5-0.7,1.5-1.5c0-0.8-0.7-1.5-1.5-1.5h-7.5c-0.8,0-1.5,0.7-1.5,1.5
					C90.1,87.4,90.8,88.1,91.6,88.1z M117.2,71.6H84.1c-3.3,0-6,2.7-6,6v54.1c0,3.3,2.7,6,6,6h42.1c3.3,0,6-2.7,6-6V88.1L117.2,71.6
					z M129.2,131.7c0,1.7-1.3,3-3,3H84.1c-1.7,0-3-1.3-3-3V77.6c0-1.7,1.3-3,3-3h27.1v15c0,1.7,1.3,3,3,3h15V131.7z M114.2,89.6v-15
					h1.5l13.5,15H114.2z M109.7,121.1h-18c-0.8,0-1.5,0.7-1.5,1.5c0,0.8,0.7,1.5,1.5,1.5h18c0.8,0,1.5-0.7,1.5-1.5
					C111.2,121.8,110.5,121.1,109.7,121.1z M118.7,109.1H91.6c-0.8,0-1.5,0.7-1.5,1.5c0,0.8,0.7,1.5,1.5,1.5h27.1
					c0.8,0,1.5-0.7,1.5-1.5C120.2,109.8,119.5,109.1,118.7,109.1z M90.1,98.6c0,0.8,0.7,1.5,1.5,1.5h27.1c0.8,0,1.5-0.7,1.5-1.5
					c0-0.8-0.7-1.5-1.5-1.5H91.6C90.8,97.1,90.1,97.8,90.1,98.6z"/>
			</g>
		</g>
		<g>
			<g>
				<path class="st1" d="M91.1,87.6h7.5c0.8,0,1.5-0.7,1.5-1.5c0-0.8-0.7-1.5-1.5-1.5h-7.5c-0.8,0-1.5,0.7-1.5,1.5
					C89.6,86.9,90.3,87.6,91.1,87.6z M116.7,71.1H83.6c-3.3,0-6,2.7-6,6v54.1c0,3.3,2.7,6,6,6h42.1c3.3,0,6-2.7,6-6V87.6L116.7,71.1
					z M128.7,131.2c0,1.7-1.3,3-3,3H83.6c-1.7,0-3-1.3-3-3V77.1c0-1.7,1.3-3,3-3h27.1v15c0,1.7,1.3,3,3,3h15V131.2z M113.7,89.1v-15
					h1.5l13.5,15H113.7z M109.2,120.6h-18c-0.8,0-1.5,0.7-1.5,1.5c0,0.8,0.7,1.5,1.5,1.5h18c0.8,0,1.5-0.7,1.5-1.5
					C110.7,121.3,110,120.6,109.2,120.6z M118.2,108.6H91.1c-0.8,0-1.5,0.7-1.5,1.5c0,0.8,0.7,1.5,1.5,1.5h27.1
					c0.8,0,1.5-0.7,1.5-1.5C119.7,109.3,119,108.6,118.2,108.6z M89.6,98.1c0,0.8,0.7,1.5,1.5,1.5h27.1c0.8,0,1.5-0.7,1.5-1.5
					c0-0.8-0.7-1.5-1.5-1.5H91.1C90.3,96.6,89.6,97.3,89.6,98.1z"/>
			</g>
		</g>
		<g>
			<g>
				<path class="st1" d="M90.6,87.1h7.5c0.8,0,1.5-0.7,1.5-1.5c0-0.8-0.7-1.5-1.5-1.5h-7.5c-0.8,0-1.5,0.7-1.5,1.5
					C89.1,86.4,89.8,87.1,90.6,87.1z M116.2,70.6H83.1c-3.3,0-6,2.7-6,6v54.1c0,3.3,2.7,6,6,6h42.1c3.3,0,6-2.7,6-6V87.1L116.2,70.6
					z M128.2,130.7c0,1.7-1.3,3-3,3H83.1c-1.7,0-3-1.3-3-3V76.6c0-1.7,1.3-3,3-3h27.1v15c0,1.7,1.3,3,3,3h15V130.7z M113.2,88.6v-15
					h1.5l13.5,15H113.2z M108.7,120.1h-18c-0.8,0-1.5,0.7-1.5,1.5c0,0.8,0.7,1.5,1.5,1.5h18c0.8,0,1.5-0.7,1.5-1.5
					C110.2,120.8,109.5,120.1,108.7,120.1z M117.7,108.1H90.6c-0.8,0-1.5,0.7-1.5,1.5c0,0.8,0.7,1.5,1.5,1.5h27.1
					c0.8,0,1.5-0.7,1.5-1.5C119.2,108.8,118.5,108.1,117.7,108.1z M89.1,97.6c0,0.8,0.7,1.5,1.5,1.5h27.1c0.8,0,1.5-0.7,1.5-1.5
					c0-0.8-0.7-1.5-1.5-1.5H90.6C89.8,96.1,89.1,96.8,89.1,97.6z"/>
			</g>
		</g>
		<g>
			<g>
				<path class="st1" d="M90.1,86.6h7.5c0.8,0,1.5-0.7,1.5-1.5c0-0.8-0.7-1.5-1.5-1.5h-7.5c-0.8,0-1.5,0.7-1.5,1.5
					C88.6,85.9,89.3,86.6,90.1,86.6z M115.7,70.1H82.6c-3.3,0-6,2.7-6,6v54.1c0,3.3,2.7,6,6,6h42.1c3.3,0,6-2.7,6-6V86.6L115.7,70.1
					z M127.7,130.2c0,1.7-1.3,3-3,3H82.6c-1.7,0-3-1.3-3-3V76.1c0-1.7,1.3-3,3-3h27.1v15c0,1.7,1.3,3,3,3h15V130.2z M112.7,88.1v-15
					h1.5l13.5,15H112.7z M108.2,119.6h-18c-0.8,0-1.5,0.7-1.5,1.5c0,0.8,0.7,1.5,1.5,1.5h18c0.8,0,1.5-0.7,1.5-1.5
					C109.7,120.3,109,119.6,108.2,119.6z M117.2,107.6H90.1c-0.8,0-1.5,0.7-1.5,1.5c0,0.8,0.7,1.5,1.5,1.5h27.1
					c0.8,0,1.5-0.7,1.5-1.5C118.7,108.3,118,107.6,117.2,107.6z M88.6,97.1c0,0.8,0.7,1.5,1.5,1.5h27.1c0.8,0,1.5-0.7,1.5-1.5
					c0-0.8-0.7-1.5-1.5-1.5H90.1C89.3,95.6,88.6,96.3,88.6,97.1z"/>
			</g>
		</g>
		<g>
			<g>
				<path class="st1" d="M89.6,86.1h7.5c0.8,0,1.5-0.7,1.5-1.5c0-0.8-0.7-1.5-1.5-1.5h-7.5c-0.8,0-1.5,0.7-1.5,1.5
					C88.1,85.4,88.8,86.1,89.6,86.1z M115.2,69.6H82.1c-3.3,0-6,2.7-6,6v54.1c0,3.3,2.7,6,6,6h42.1c3.3,0,6-2.7,6-6V86.1L115.2,69.6
					z M127.2,129.7c0,1.7-1.3,3-3,3H82.1c-1.7,0-3-1.3-3-3V75.6c0-1.7,1.3-3,3-3h27.1v15c0,1.7,1.3,3,3,3h15V129.7z M112.2,87.6v-15
					h1.5l13.5,15H112.2z M107.7,119.1h-18c-0.8,0-1.5,0.7-1.5,1.5c0,0.8,0.7,1.5,1.5,1.5h18c0.8,0,1.5-0.7,1.5-1.5
					C109.2,119.8,108.5,119.1,107.7,119.1z M116.7,107.1H89.6c-0.8,0-1.5,0.7-1.5,1.5c0,0.8,0.7,1.5,1.5,1.5h27.1
					c0.8,0,1.5-0.7,1.5-1.5C118.2,107.8,117.5,107.1,116.7,107.1z M88.1,96.6c0,0.8,0.7,1.5,1.5,1.5h27.1c0.8,0,1.5-0.7,1.5-1.5
					c0-0.8-0.7-1.5-1.5-1.5H89.6C88.8,95.1,88.1,95.8,88.1,96.6z"/>
			</g>
		</g>
		<g>
			<g>
				<path class="st1" d="M89.1,85.6h7.5c0.8,0,1.5-0.7,1.5-1.5c0-0.8-0.7-1.5-1.5-1.5h-7.5c-0.8,0-1.5,0.7-1.5,1.5
					C87.6,84.9,88.3,85.6,89.1,85.6z M114.7,69.1H81.6c-3.3,0-6,2.7-6,6v54.1c0,3.3,2.7,6,6,6h42.1c3.3,0,6-2.7,6-6V85.6L114.7,69.1
					z M126.7,129.2c0,1.7-1.3,3-3,3H81.6c-1.7,0-3-1.3-3-3V75.1c0-1.7,1.3-3,3-3h27.1v15c0,1.7,1.3,3,3,3h15V129.2z M111.7,87.1v-15
					h1.5l13.5,15H111.7z M107.2,118.6h-18c-0.8,0-1.5,0.7-1.5,1.5c0,0.8,0.7,1.5,1.5,1.5h18c0.8,0,1.5-0.7,1.5-1.5
					C108.7,119.3,108,118.6,107.2,118.6z M116.2,106.6H89.1c-0.8,0-1.5,0.7-1.5,1.5c0,0.8,0.7,1.5,1.5,1.5h27.1
					c0.8,0,1.5-0.7,1.5-1.5C117.7,107.3,117,106.6,116.2,106.6z M87.6,96.1c0,0.8,0.7,1.5,1.5,1.5h27.1c0.8,0,1.5-0.7,1.5-1.5
					c0-0.8-0.7-1.5-1.5-1.5H89.1C88.3,94.6,87.6,95.3,87.6,96.1z"/>
			</g>
		</g>
		<g>
			<g>
				<path class="st1" d="M88.6,85.1h7.5c0.8,0,1.5-0.7,1.5-1.5c0-0.8-0.7-1.5-1.5-1.5h-7.5c-0.8,0-1.5,0.7-1.5,1.5
					C87.1,84.4,87.8,85.1,88.6,85.1z M114.2,68.6H81.1c-3.3,0-6,2.7-6,6v54.1c0,3.3,2.7,6,6,6h42.1c3.3,0,6-2.7,6-6V85.1L114.2,68.6
					z M126.2,128.7c0,1.7-1.3,3-3,3H81.1c-1.7,0-3-1.3-3-3V74.6c0-1.7,1.3-3,3-3h27.1v15c0,1.7,1.3,3,3,3h15V128.7z M111.2,86.6v-15
					h1.5l13.5,15H111.2z M106.7,118.1h-18c-0.8,0-1.5,0.7-1.5,1.5c0,0.8,0.7,1.5,1.5,1.5h18c0.8,0,1.5-0.7,1.5-1.5
					C108.2,118.8,107.5,118.1,106.7,118.1z M115.7,106.1H88.6c-0.8,0-1.5,0.7-1.5,1.5c0,0.8,0.7,1.5,1.5,1.5h27.1
					c0.8,0,1.5-0.7,1.5-1.5C117.2,106.8,116.5,106.1,115.7,106.1z M87.1,95.6c0,0.8,0.7,1.5,1.5,1.5h27.1c0.8,0,1.5-0.7,1.5-1.5
					c0-0.8-0.7-1.5-1.5-1.5H88.6C87.8,94.1,87.1,94.8,87.1,95.6z"/>
			</g>
		</g>
		<g>
			<g>
				<path class="st1" d="M88.1,84.6h7.5c0.8,0,1.5-0.7,1.5-1.5c0-0.8-0.7-1.5-1.5-1.5h-7.5c-0.8,0-1.5,0.7-1.5,1.5
					C86.6,83.9,87.3,84.6,88.1,84.6z M113.7,68.1H80.6c-3.3,0-6,2.7-6,6v54.1c0,3.3,2.7,6,6,6h42.1c3.3,0,6-2.7,6-6V84.6L113.7,68.1
					z M125.7,128.2c0,1.7-1.3,3-3,3H80.6c-1.7,0-3-1.3-3-3V74.1c0-1.7,1.3-3,3-3h27.1v15c0,1.7,1.3,3,3,3h15V128.2z M110.7,86.1v-15
					h1.5l13.5,15H110.7z M106.2,117.6h-18c-0.8,0-1.5,0.7-1.5,1.5c0,0.8,0.7,1.5,1.5,1.5h18c0.8,0,1.5-0.7,1.5-1.5
					C107.7,118.3,107,117.6,106.2,117.6z M115.2,105.6H88.1c-0.8,0-1.5,0.7-1.5,1.5c0,0.8,0.7,1.5,1.5,1.5h27.1
					c0.8,0,1.5-0.7,1.5-1.5C116.7,106.3,116,105.6,115.2,105.6z M86.6,95.1c0,0.8,0.7,1.5,1.5,1.5h27.1c0.8,0,1.5-0.7,1.5-1.5
					c0-0.8-0.7-1.5-1.5-1.5H88.1C87.3,93.6,86.6,94.3,86.6,95.1z"/>
			</g>
		</g>
		<g>
			<g>
				<path class="st1" d="M87.6,84.1h7.5c0.8,0,1.5-0.7,1.5-1.5c0-0.8-0.7-1.5-1.5-1.5h-7.5c-0.8,0-1.5,0.7-1.5,1.5
					C86.1,83.4,86.8,84.1,87.6,84.1z M113.2,67.6H80.1c-3.3,0-6,2.7-6,6v54.1c0,3.3,2.7,6,6,6h42.1c3.3,0,6-2.7,6-6V84.1L113.2,67.6
					z M125.2,127.7c0,1.7-1.3,3-3,3H80.1c-1.7,0-3-1.3-3-3V73.6c0-1.7,1.3-3,3-3h27.1v15c0,1.7,1.3,3,3,3h15V127.7z M110.2,85.6v-15
					h1.5l13.5,15H110.2z M105.7,117.1h-18c-0.8,0-1.5,0.7-1.5,1.5c0,0.8,0.7,1.5,1.5,1.5h18c0.8,0,1.5-0.7,1.5-1.5
					C107.2,117.8,106.5,117.1,105.7,117.1z M114.7,105.1H87.6c-0.8,0-1.5,0.7-1.5,1.5c0,0.8,0.7,1.5,1.5,1.5h27.1
					c0.8,0,1.5-0.7,1.5-1.5C116.2,105.8,115.5,105.1,114.7,105.1z M86.1,94.6c0,0.8,0.7,1.5,1.5,1.5h27.1c0.8,0,1.5-0.7,1.5-1.5
					c0-0.8-0.7-1.5-1.5-1.5H87.6C86.8,93.1,86.1,93.8,86.1,94.6z"/>
			</g>
		</g>
		<g>
			<g>
				<path class="st1" d="M87.1,83.6h7.5c0.8,0,1.5-0.7,1.5-1.5c0-0.8-0.7-1.5-1.5-1.5h-7.5c-0.8,0-1.5,0.7-1.5,1.5
					C85.6,82.9,86.3,83.6,87.1,83.6z M112.7,67.1H79.6c-3.3,0-6,2.7-6,6v54.1c0,3.3,2.7,6,6,6h42.1c3.3,0,6-2.7,6-6V83.6L112.7,67.1
					z M124.7,127.2c0,1.7-1.3,3-3,3H79.6c-1.7,0-3-1.3-3-3V73.1c0-1.7,1.3-3,3-3h27.1v15c0,1.7,1.3,3,3,3h15V127.2z M109.7,85.1v-15
					h1.5l13.5,15H109.7z M105.2,116.6h-18c-0.8,0-1.5,0.7-1.5,1.5c0,0.8,0.7,1.5,1.5,1.5h18c0.8,0,1.5-0.7,1.5-1.5
					C106.7,117.3,106,116.6,105.2,116.6z M114.2,104.6H87.1c-0.8,0-1.5,0.7-1.5,1.5c0,0.8,0.7,1.5,1.5,1.5h27.1
					c0.8,0,1.5-0.7,1.5-1.5C115.7,105.3,115,104.6,114.2,104.6z M85.6,94.1c0,0.8,0.7,1.5,1.5,1.5h27.1c0.8,0,1.5-0.7,1.5-1.5
					c0-0.8-0.7-1.5-1.5-1.5H87.1C86.3,92.6,85.6,93.3,85.6,94.1z"/>
			</g>
		</g>
		<g>
			<g>
				<path class="st1" d="M86.6,83.1h7.5c0.8,0,1.5-0.7,1.5-1.5c0-0.8-0.7-1.5-1.5-1.5h-7.5c-0.8,0-1.5,0.7-1.5,1.5
					C85.1,82.4,85.8,83.1,86.6,83.1z M112.2,66.6H79.1c-3.3,0-6,2.7-6,6v54.1c0,3.3,2.7,6,6,6h42.1c3.3,0,6-2.7,6-6V83.1L112.2,66.6
					z M124.2,126.7c0,1.7-1.3,3-3,3H79.1c-1.7,0-3-1.3-3-3V72.6c0-1.7,1.3-3,3-3h27.1v15c0,1.7,1.3,3,3,3h15V126.7z M109.2,84.6v-15
					h1.5l13.5,15H109.2z M104.7,116.1h-18c-0.8,0-1.5,0.7-1.5,1.5c0,0.8,0.7,1.5,1.5,1.5h18c0.8,0,1.5-0.7,1.5-1.5
					C106.2,116.8,105.5,116.1,104.7,116.1z M113.7,104.1H86.6c-0.8,0-1.5,0.7-1.5,1.5c0,0.8,0.7,1.5,1.5,1.5h27.1
					c0.8,0,1.5-0.7,1.5-1.5C115.2,104.8,114.5,104.1,113.7,104.1z M85.1,93.6c0,0.8,0.7,1.5,1.5,1.5h27.1c0.8,0,1.5-0.7,1.5-1.5
					c0-0.8-0.7-1.5-1.5-1.5H86.6C85.8,92.1,85.1,92.8,85.1,93.6z"/>
			</g>
		</g>
		<g>
			<g>
				<path class="st1" d="M86.1,82.6h7.5c0.8,0,1.5-0.7,1.5-1.5c0-0.8-0.7-1.5-1.5-1.5h-7.5c-0.8,0-1.5,0.7-1.5,1.5
					C84.6,81.9,85.3,82.6,86.1,82.6z M111.7,66.1H78.6c-3.3,0-6,2.7-6,6v54.1c0,3.3,2.7,6,6,6h42.1c3.3,0,6-2.7,6-6V82.6L111.7,66.1
					z M123.7,126.2c0,1.7-1.3,3-3,3H78.6c-1.7,0-3-1.3-3-3V72.1c0-1.7,1.3-3,3-3h27.1v15c0,1.7,1.3,3,3,3h15V126.2z M108.7,84.1v-15
					h1.5l13.5,15H108.7z M104.2,115.6h-18c-0.8,0-1.5,0.7-1.5,1.5c0,0.8,0.7,1.5,1.5,1.5h18c0.8,0,1.5-0.7,1.5-1.5
					C105.7,116.3,105,115.6,104.2,115.6z M113.2,103.6H86.1c-0.8,0-1.5,0.7-1.5,1.5c0,0.8,0.7,1.5,1.5,1.5h27.1
					c0.8,0,1.5-0.7,1.5-1.5C114.7,104.3,114,103.6,113.2,103.6z M84.6,93.1c0,0.8,0.7,1.5,1.5,1.5h27.1c0.8,0,1.5-0.7,1.5-1.5
					c0-0.8-0.7-1.5-1.5-1.5H86.1C85.3,91.6,84.6,92.3,84.6,93.1z"/>
			</g>
		</g>
		<g>
			<g>
				<path class="st1" d="M85.6,82.1h7.5c0.8,0,1.5-0.7,1.5-1.5c0-0.8-0.7-1.5-1.5-1.5h-7.5c-0.8,0-1.5,0.7-1.5,1.5
					C84.1,81.4,84.8,82.1,85.6,82.1z M111.2,65.6H78.1c-3.3,0-6,2.7-6,6v54.1c0,3.3,2.7,6,6,6h42.1c3.3,0,6-2.7,6-6V82.1L111.2,65.6
					z M123.2,125.7c0,1.7-1.3,3-3,3H78.1c-1.7,0-3-1.3-3-3V71.6c0-1.7,1.3-3,3-3h27.1v15c0,1.7,1.3,3,3,3h15V125.7z M108.2,83.6v-15
					h1.5l13.5,15H108.2z M103.7,115.1h-18c-0.8,0-1.5,0.7-1.5,1.5c0,0.8,0.7,1.5,1.5,1.5h18c0.8,0,1.5-0.7,1.5-1.5
					C105.2,115.8,104.5,115.1,103.7,115.1z M112.7,103.1H85.6c-0.8,0-1.5,0.7-1.5,1.5c0,0.8,0.7,1.5,1.5,1.5h27.1
					c0.8,0,1.5-0.7,1.5-1.5C114.2,103.8,113.5,103.1,112.7,103.1z M84.1,92.6c0,0.8,0.7,1.5,1.5,1.5h27.1c0.8,0,1.5-0.7,1.5-1.5
					c0-0.8-0.7-1.5-1.5-1.5H85.6C84.8,91.1,84.1,91.8,84.1,92.6z"/>
			</g>
		</g>
		<g>
			<g>
				<path class="st1" d="M85.1,81.6h7.5c0.8,0,1.5-0.7,1.5-1.5c0-0.8-0.7-1.5-1.5-1.5h-7.5c-0.8,0-1.5,0.7-1.5,1.5
					C83.6,80.9,84.3,81.6,85.1,81.6z M110.7,65.1H77.6c-3.3,0-6,2.7-6,6v54.1c0,3.3,2.7,6,6,6h42.1c3.3,0,6-2.7,6-6V81.6L110.7,65.1
					z M122.7,125.2c0,1.7-1.3,3-3,3H77.6c-1.7,0-3-1.3-3-3V71.1c0-1.7,1.3-3,3-3h27.1v15c0,1.7,1.3,3,3,3h15V125.2z M107.7,83.1v-15
					h1.5l13.5,15H107.7z M103.2,114.6h-18c-0.8,0-1.5,0.7-1.5,1.5c0,0.8,0.7,1.5,1.5,1.5h18c0.8,0,1.5-0.7,1.5-1.5
					C104.7,115.3,104,114.6,103.2,114.6z M112.2,102.6H85.1c-0.8,0-1.5,0.7-1.5,1.5c0,0.8,0.7,1.5,1.5,1.5h27.1
					c0.8,0,1.5-0.7,1.5-1.5C113.7,103.3,113,102.6,112.2,102.6z M83.6,92.1c0,0.8,0.7,1.5,1.5,1.5h27.1c0.8,0,1.5-0.7,1.5-1.5
					c0-0.8-0.7-1.5-1.5-1.5H85.1C84.3,90.6,83.6,91.3,83.6,92.1z"/>
			</g>
		</g>
		<g>
			<g>
				<path class="st1" d="M84.6,81.1h7.5c0.8,0,1.5-0.7,1.5-1.5c0-0.8-0.7-1.5-1.5-1.5h-7.5c-0.8,0-1.5,0.7-1.5,1.5
					C83.1,80.4,83.8,81.1,84.6,81.1z M110.2,64.6H77.1c-3.3,0-6,2.7-6,6v54.1c0,3.3,2.7,6,6,6h42.1c3.3,0,6-2.7,6-6V81.1L110.2,64.6
					z M122.2,124.7c0,1.7-1.3,3-3,3H77.1c-1.7,0-3-1.3-3-3V70.6c0-1.7,1.3-3,3-3h27.1v15c0,1.7,1.3,3,3,3h15V124.7z M107.2,82.6v-15
					h1.5l13.5,15H107.2z M102.7,114.1h-18c-0.8,0-1.5,0.7-1.5,1.5c0,0.8,0.7,1.5,1.5,1.5h18c0.8,0,1.5-0.7,1.5-1.5
					C104.2,114.8,103.5,114.1,102.7,114.1z M111.7,102.1H84.6c-0.8,0-1.5,0.7-1.5,1.5c0,0.8,0.7,1.5,1.5,1.5h27.1
					c0.8,0,1.5-0.7,1.5-1.5C113.2,102.8,112.5,102.1,111.7,102.1z M83.1,91.6c0,0.8,0.7,1.5,1.5,1.5h27.1c0.8,0,1.5-0.7,1.5-1.5
					c0-0.8-0.7-1.5-1.5-1.5H84.6C83.8,90.1,83.1,90.8,83.1,91.6z"/>
			</g>
		</g>
		<g>
			<g>
				<path class="st1" d="M84.1,80.6h7.5c0.8,0,1.5-0.7,1.5-1.5c0-0.8-0.7-1.5-1.5-1.5h-7.5c-0.8,0-1.5,0.7-1.5,1.5
					C82.6,79.9,83.3,80.6,84.1,80.6z M109.7,64.1H76.6c-3.3,0-6,2.7-6,6v54.1c0,3.3,2.7,6,6,6h42.1c3.3,0,6-2.7,6-6V80.6L109.7,64.1
					z M121.7,124.2c0,1.7-1.3,3-3,3H76.6c-1.7,0-3-1.3-3-3V70.1c0-1.7,1.3-3,3-3h27.1v15c0,1.7,1.3,3,3,3h15V124.2z M106.7,82.1v-15
					h1.5l13.5,15H106.7z M102.2,113.6h-18c-0.8,0-1.5,0.7-1.5,1.5c0,0.8,0.7,1.5,1.5,1.5h18c0.8,0,1.5-0.7,1.5-1.5
					C103.7,114.3,103,113.6,102.2,113.6z M111.2,101.6H84.1c-0.8,0-1.5,0.7-1.5,1.5c0,0.8,0.7,1.5,1.5,1.5h27.1
					c0.8,0,1.5-0.7,1.5-1.5C112.7,102.3,112,101.6,111.2,101.6z M82.6,91.1c0,0.8,0.7,1.5,1.5,1.5h27.1c0.8,0,1.5-0.7,1.5-1.5
					c0-0.8-0.7-1.5-1.5-1.5H84.1C83.3,89.6,82.6,90.3,82.6,91.1z"/>
			</g>
		</g>
		<g>
			<g>
				<path class="st1" d="M83.6,80.1h7.5c0.8,0,1.5-0.7,1.5-1.5c0-0.8-0.7-1.5-1.5-1.5h-7.5c-0.8,0-1.5,0.7-1.5,1.5
					C82.1,79.4,82.8,80.1,83.6,80.1z M109.2,63.6H76.1c-3.3,0-6,2.7-6,6v54.1c0,3.3,2.7,6,6,6h42.1c3.3,0,6-2.7,6-6V80.1L109.2,63.6
					z M121.2,123.7c0,1.7-1.3,3-3,3H76.1c-1.7,0-3-1.3-3-3V69.6c0-1.7,1.3-3,3-3h27.1v15c0,1.7,1.3,3,3,3h15V123.7z M106.2,81.6v-15
					h1.5l13.5,15H106.2z M101.7,113.1h-18c-0.8,0-1.5,0.7-1.5,1.5c0,0.8,0.7,1.5,1.5,1.5h18c0.8,0,1.5-0.7,1.5-1.5
					C103.2,113.8,102.5,113.1,101.7,113.1z M110.7,101.1H83.6c-0.8,0-1.5,0.7-1.5,1.5c0,0.8,0.7,1.5,1.5,1.5h27.1
					c0.8,0,1.5-0.7,1.5-1.5C112.2,101.8,111.5,101.1,110.7,101.1z M82.1,90.6c0,0.8,0.7,1.5,1.5,1.5h27.1c0.8,0,1.5-0.7,1.5-1.5
					c0-0.8-0.7-1.5-1.5-1.5H83.6C82.8,89.1,82.1,89.8,82.1,90.6z"/>
			</g>
		</g>
		<g>
			<g>
				<path class="st1" d="M83.1,79.6h7.5c0.8,0,1.5-0.7,1.5-1.5c0-0.8-0.7-1.5-1.5-1.5h-7.5c-0.8,0-1.5,0.7-1.5,1.5
					C81.6,78.9,82.3,79.6,83.1,79.6z M108.7,63.1H75.6c-3.3,0-6,2.7-6,6v54.1c0,3.3,2.7,6,6,6h42.1c3.3,0,6-2.7,6-6V79.6L108.7,63.1
					z M120.7,123.2c0,1.7-1.3,3-3,3H75.6c-1.7,0-3-1.3-3-3V69.1c0-1.7,1.3-3,3-3h27.1v15c0,1.7,1.3,3,3,3h15V123.2z M105.7,81.1v-15
					h1.5l13.5,15H105.7z M101.2,112.6h-18c-0.8,0-1.5,0.7-1.5,1.5c0,0.8,0.7,1.5,1.5,1.5h18c0.8,0,1.5-0.7,1.5-1.5
					C102.7,113.3,102,112.6,101.2,112.6z M110.2,100.6H83.1c-0.8,0-1.5,0.7-1.5,1.5c0,0.8,0.7,1.5,1.5,1.5h27.1
					c0.8,0,1.5-0.7,1.5-1.5C111.7,101.3,111,100.6,110.2,100.6z M81.6,90.1c0,0.8,0.7,1.5,1.5,1.5h27.1c0.8,0,1.5-0.7,1.5-1.5
					c0-0.8-0.7-1.5-1.5-1.5H83.1C82.3,88.6,81.6,89.3,81.6,90.1z"/>
			</g>
		</g>
		<g>
			<g>
				<path class="st1" d="M82.6,79.1h7.5c0.8,0,1.5-0.7,1.5-1.5c0-0.8-0.7-1.5-1.5-1.5h-7.5c-0.8,0-1.5,0.7-1.5,1.5
					C81.1,78.4,81.8,79.1,82.6,79.1z M108.2,62.6H75.1c-3.3,0-6,2.7-6,6v54.1c0,3.3,2.7,6,6,6h42.1c3.3,0,6-2.7,6-6V79.1L108.2,62.6
					z M120.2,122.7c0,1.7-1.3,3-3,3H75.1c-1.7,0-3-1.3-3-3V68.6c0-1.7,1.3-3,3-3h27.1v15c0,1.7,1.3,3,3,3h15V122.7z M105.2,80.6v-15
					h1.5l13.5,15H105.2z M100.7,112.1h-18c-0.8,0-1.5,0.7-1.5,1.5c0,0.8,0.7,1.5,1.5,1.5h18c0.8,0,1.5-0.7,1.5-1.5
					C102.2,112.8,101.5,112.1,100.7,112.1z M109.7,100.1H82.6c-0.8,0-1.5,0.7-1.5,1.5c0,0.8,0.7,1.5,1.5,1.5h27.1
					c0.8,0,1.5-0.7,1.5-1.5C111.2,100.8,110.5,100.1,109.7,100.1z M81.1,89.6c0,0.8,0.7,1.5,1.5,1.5h27.1c0.8,0,1.5-0.7,1.5-1.5
					c0-0.8-0.7-1.5-1.5-1.5H82.6C81.8,88.1,81.1,88.8,81.1,89.6z"/>
			</g>
		</g>
		<g>
			<g>
				<path class="st1" d="M82.1,78.6h7.5c0.8,0,1.5-0.7,1.5-1.5c0-0.8-0.7-1.5-1.5-1.5h-7.5c-0.8,0-1.5,0.7-1.5,1.5
					C80.6,77.9,81.3,78.6,82.1,78.6z M107.7,62.1H74.6c-3.3,0-6,2.7-6,6v54.1c0,3.3,2.7,6,6,6h42.1c3.3,0,6-2.7,6-6V78.6L107.7,62.1
					z M119.7,122.2c0,1.7-1.3,3-3,3H74.6c-1.7,0-3-1.3-3-3V68.1c0-1.7,1.3-3,3-3h27.1v15c0,1.7,1.3,3,3,3h15V122.2z M104.7,80.1v-15
					h1.5l13.5,15H104.7z M100.2,111.6h-18c-0.8,0-1.5,0.7-1.5,1.5c0,0.8,0.7,1.5,1.5,1.5h18c0.8,0,1.5-0.7,1.5-1.5
					C101.7,112.3,101,111.6,100.2,111.6z M109.2,99.6H82.1c-0.8,0-1.5,0.7-1.5,1.5c0,0.8,0.7,1.5,1.5,1.5h27.1
					c0.8,0,1.5-0.7,1.5-1.5C110.7,100.3,110,99.6,109.2,99.6z M80.6,89.1c0,0.8,0.7,1.5,1.5,1.5h27.1c0.8,0,1.5-0.7,1.5-1.5
					c0-0.8-0.7-1.5-1.5-1.5H82.1C81.3,87.6,80.6,88.3,80.6,89.1z"/>
			</g>
		</g>
		<g>
			<g>
				<path class="st1" d="M81.6,78.1h7.5c0.8,0,1.5-0.7,1.5-1.5c0-0.8-0.7-1.5-1.5-1.5h-7.5c-0.8,0-1.5,0.7-1.5,1.5
					C80.1,77.4,80.8,78.1,81.6,78.1z M107.2,61.6H74.1c-3.3,0-6,2.7-6,6v54.1c0,3.3,2.7,6,6,6h42.1c3.3,0,6-2.7,6-6V78.1L107.2,61.6
					z M119.2,121.7c0,1.7-1.3,3-3,3H74.1c-1.7,0-3-1.3-3-3V67.6c0-1.7,1.3-3,3-3h27.1v15c0,1.7,1.3,3,3,3h15V121.7z M104.2,79.6v-15
					h1.5l13.5,15H104.2z M99.7,111.1h-18c-0.8,0-1.5,0.7-1.5,1.5c0,0.8,0.7,1.5,1.5,1.5h18c0.8,0,1.5-0.7,1.5-1.5
					C101.2,111.8,100.5,111.1,99.7,111.1z M108.7,99.1H81.6c-0.8,0-1.5,0.7-1.5,1.5c0,0.8,0.7,1.5,1.5,1.5h27.1
					c0.8,0,1.5-0.7,1.5-1.5C110.2,99.8,109.5,99.1,108.7,99.1z M80.1,88.6c0,0.8,0.7,1.5,1.5,1.5h27.1c0.8,0,1.5-0.7,1.5-1.5
					c0-0.8-0.7-1.5-1.5-1.5H81.6C80.8,87.1,80.1,87.8,80.1,88.6z"/>
			</g>
		</g>
		<g>
			<g>
				<path class="st1" d="M81.1,77.6h7.5c0.8,0,1.5-0.7,1.5-1.5c0-0.8-0.7-1.5-1.5-1.5h-7.5c-0.8,0-1.5,0.7-1.5,1.5
					C79.6,76.9,80.3,77.6,81.1,77.6z M106.7,61.1H73.6c-3.3,0-6,2.7-6,6v54.1c0,3.3,2.7,6,6,6h42.1c3.3,0,6-2.7,6-6V77.6L106.7,61.1
					z M118.7,121.2c0,1.7-1.3,3-3,3H73.6c-1.7,0-3-1.3-3-3V67.1c0-1.7,1.3-3,3-3h27.1v15c0,1.7,1.3,3,3,3h15V121.2z M103.7,79.1v-15
					h1.5l13.5,15H103.7z M99.2,110.6h-18c-0.8,0-1.5,0.7-1.5,1.5c0,0.8,0.7,1.5,1.5,1.5h18c0.8,0,1.5-0.7,1.5-1.5
					C100.7,111.3,100,110.6,99.2,110.6z M108.2,98.6H81.1c-0.8,0-1.5,0.7-1.5,1.5c0,0.8,0.7,1.5,1.5,1.5h27.1c0.8,0,1.5-0.7,1.5-1.5
					C109.7,99.3,109,98.6,108.2,98.6z M79.6,88.1c0,0.8,0.7,1.5,1.5,1.5h27.1c0.8,0,1.5-0.7,1.5-1.5c0-0.8-0.7-1.5-1.5-1.5H81.1
					C80.3,86.6,79.6,87.3,79.6,88.1z"/>
			</g>
		</g>
		<g>
			<g>
				<path class="st1" d="M80.6,77.1h7.5c0.8,0,1.5-0.7,1.5-1.5c0-0.8-0.7-1.5-1.5-1.5h-7.5c-0.8,0-1.5,0.7-1.5,1.5
					C79.1,76.4,79.8,77.1,80.6,77.1z M106.2,60.6H73.1c-3.3,0-6,2.7-6,6v54.1c0,3.3,2.7,6,6,6h42.1c3.3,0,6-2.7,6-6V77.1L106.2,60.6
					z M118.2,120.7c0,1.7-1.3,3-3,3H73.1c-1.7,0-3-1.3-3-3V66.6c0-1.7,1.3-3,3-3h27.1v15c0,1.7,1.3,3,3,3h15V120.7z M103.2,78.6v-15
					h1.5l13.5,15H103.2z M98.7,110.1h-18c-0.8,0-1.5,0.7-1.5,1.5c0,0.8,0.7,1.5,1.5,1.5h18c0.8,0,1.5-0.7,1.5-1.5
					C100.2,110.8,99.5,110.1,98.7,110.1z M107.7,98.1H80.6c-0.8,0-1.5,0.7-1.5,1.5c0,0.8,0.7,1.5,1.5,1.5h27.1
					c0.8,0,1.5-0.7,1.5-1.5C109.2,98.8,108.5,98.1,107.7,98.1z M79.1,87.6c0,0.8,0.7,1.5,1.5,1.5h27.1c0.8,0,1.5-0.7,1.5-1.5
					c0-0.8-0.7-1.5-1.5-1.5H80.6C79.8,86.1,79.1,86.8,79.1,87.6z"/>
			</g>
		</g>
		<g>
			<g>
				<path class="st1" d="M80.1,76.6h7.5c0.8,0,1.5-0.7,1.5-1.5c0-0.8-0.7-1.5-1.5-1.5h-7.5c-0.8,0-1.5,0.7-1.5,1.5
					C78.6,75.9,79.3,76.6,80.1,76.6z M105.7,60.1H72.6c-3.3,0-6,2.7-6,6v54.1c0,3.3,2.7,6,6,6h42.1c3.3,0,6-2.7,6-6V76.6L105.7,60.1
					z M117.7,120.2c0,1.7-1.3,3-3,3H72.6c-1.7,0-3-1.3-3-3V66.1c0-1.7,1.3-3,3-3h27.1v15c0,1.7,1.3,3,3,3h15V120.2z M102.7,78.1v-15
					h1.5l13.5,15H102.7z M98.2,109.6h-18c-0.8,0-1.5,0.7-1.5,1.5c0,0.8,0.7,1.5,1.5,1.5h18c0.8,0,1.5-0.7,1.5-1.5
					C99.7,110.3,99,109.6,98.2,109.6z M107.2,97.6H80.1c-0.8,0-1.5,0.7-1.5,1.5c0,0.8,0.7,1.5,1.5,1.5h27.1c0.8,0,1.5-0.7,1.5-1.5
					C108.7,98.3,108,97.6,107.2,97.6z M78.6,87.1c0,0.8,0.7,1.5,1.5,1.5h27.1c0.8,0,1.5-0.7,1.5-1.5c0-0.8-0.7-1.5-1.5-1.5H80.1
					C79.3,85.6,78.6,86.3,78.6,87.1z"/>
			</g>
		</g>
		<g>
			<g>
				<path class="st1" d="M79.6,76.1h7.5c0.8,0,1.5-0.7,1.5-1.5c0-0.8-0.7-1.5-1.5-1.5h-7.5c-0.8,0-1.5,0.7-1.5,1.5
					C78.1,75.4,78.8,76.1,79.6,76.1z M105.2,59.6H72.1c-3.3,0-6,2.7-6,6v54.1c0,3.3,2.7,6,6,6h42.1c3.3,0,6-2.7,6-6V76.1L105.2,59.6
					z M117.2,119.7c0,1.7-1.3,3-3,3H72.1c-1.7,0-3-1.3-3-3V65.6c0-1.7,1.3-3,3-3h27.1v15c0,1.7,1.3,3,3,3h15V119.7z M102.2,77.6v-15
					h1.5l13.5,15H102.2z M97.7,109.1h-18c-0.8,0-1.5,0.7-1.5,1.5c0,0.8,0.7,1.5,1.5,1.5h18c0.8,0,1.5-0.7,1.5-1.5
					C99.2,109.8,98.5,109.1,97.7,109.1z M106.7,97.1H79.6c-0.8,0-1.5,0.7-1.5,1.5c0,0.8,0.7,1.5,1.5,1.5h27.1c0.8,0,1.5-0.7,1.5-1.5
					C108.2,97.8,107.5,97.1,106.7,97.1z M78.1,86.6c0,0.8,0.7,1.5,1.5,1.5h27.1c0.8,0,1.5-0.7,1.5-1.5c0-0.8-0.7-1.5-1.5-1.5H79.6
					C78.8,85.1,78.1,85.8,78.1,86.6z"/>
			</g>
		</g>
		<g>
			<g>
				<path class="st1" d="M79.1,75.6h7.5c0.8,0,1.5-0.7,1.5-1.5c0-0.8-0.7-1.5-1.5-1.5h-7.5c-0.8,0-1.5,0.7-1.5,1.5
					C77.6,74.9,78.3,75.6,79.1,75.6z M104.7,59.1H71.6c-3.3,0-6,2.7-6,6v54.1c0,3.3,2.7,6,6,6h42.1c3.3,0,6-2.7,6-6V75.6L104.7,59.1
					z M116.7,119.2c0,1.7-1.3,3-3,3H71.6c-1.7,0-3-1.3-3-3V65.1c0-1.7,1.3-3,3-3h27.1v15c0,1.7,1.3,3,3,3h15V119.2z M101.7,77.1v-15
					h1.5l13.5,15H101.7z M97.2,108.6h-18c-0.8,0-1.5,0.7-1.5,1.5c0,0.8,0.7,1.5,1.5,1.5h18c0.8,0,1.5-0.7,1.5-1.5
					C98.7,109.3,98,108.6,97.2,108.6z M106.2,96.6H79.1c-0.8,0-1.5,0.7-1.5,1.5c0,0.8,0.7,1.5,1.5,1.5h27.1c0.8,0,1.5-0.7,1.5-1.5
					C107.7,97.3,107,96.6,106.2,96.6z M77.6,86.1c0,0.8,0.7,1.5,1.5,1.5h27.1c0.8,0,1.5-0.7,1.5-1.5c0-0.8-0.7-1.5-1.5-1.5H79.1
					C78.3,84.6,77.6,85.3,77.6,86.1z"/>
			</g>
		</g>
		<g>
			<g>
				<path class="st1" d="M78.6,75.1h7.5c0.8,0,1.5-0.7,1.5-1.5c0-0.8-0.7-1.5-1.5-1.5h-7.5c-0.8,0-1.5,0.7-1.5,1.5
					C77.1,74.4,77.8,75.1,78.6,75.1z M104.2,58.6H71.1c-3.3,0-6,2.7-6,6v54.1c0,3.3,2.7,6,6,6h42.1c3.3,0,6-2.7,6-6V75.1L104.2,58.6
					z M116.2,118.7c0,1.7-1.3,3-3,3H71.1c-1.7,0-3-1.3-3-3V64.6c0-1.7,1.3-3,3-3h27.1v15c0,1.7,1.3,3,3,3h15V118.7z M101.2,76.6v-15
					h1.5l13.5,15H101.2z M96.7,108.1h-18c-0.8,0-1.5,0.7-1.5,1.5c0,0.8,0.7,1.5,1.5,1.5h18c0.8,0,1.5-0.7,1.5-1.5
					C98.2,108.8,97.5,108.1,96.7,108.1z M105.7,96.1H78.6c-0.8,0-1.5,0.7-1.5,1.5c0,0.8,0.7,1.5,1.5,1.5h27.1c0.8,0,1.5-0.7,1.5-1.5
					C107.2,96.8,106.5,96.1,105.7,96.1z M77.1,85.6c0,0.8,0.7,1.5,1.5,1.5h27.1c0.8,0,1.5-0.7,1.5-1.5c0-0.8-0.7-1.5-1.5-1.5H78.6
					C77.8,84.1,77.1,84.8,77.1,85.6z"/>
			</g>
		</g>
		<g>
			<g>
				<path class="st1" d="M78.1,74.6h7.5c0.8,0,1.5-0.7,1.5-1.5c0-0.8-0.7-1.5-1.5-1.5h-7.5c-0.8,0-1.5,0.7-1.5,1.5
					C76.6,73.9,77.3,74.6,78.1,74.6z M103.7,58.1H70.6c-3.3,0-6,2.7-6,6v54.1c0,3.3,2.7,6,6,6h42.1c3.3,0,6-2.7,6-6V74.6L103.7,58.1
					z M115.7,118.2c0,1.7-1.3,3-3,3H70.6c-1.7,0-3-1.3-3-3V64.1c0-1.7,1.3-3,3-3h27.1v15c0,1.7,1.3,3,3,3h15V118.2z M100.7,76.1v-15
					h1.5l13.5,15H100.7z M96.2,107.6h-18c-0.8,0-1.5,0.7-1.5,1.5c0,0.8,0.7,1.5,1.5,1.5h18c0.8,0,1.5-0.7,1.5-1.5
					C97.7,108.3,97,107.6,96.2,107.6z M105.2,95.6H78.1c-0.8,0-1.5,0.7-1.5,1.5c0,0.8,0.7,1.5,1.5,1.5h27.1c0.8,0,1.5-0.7,1.5-1.5
					C106.7,96.3,106,95.6,105.2,95.6z M76.6,85.1c0,0.8,0.7,1.5,1.5,1.5h27.1c0.8,0,1.5-0.7,1.5-1.5c0-0.8-0.7-1.5-1.5-1.5H78.1
					C77.3,83.6,76.6,84.3,76.6,85.1z"/>
			</g>
		</g>
		<g>
			<g>
				<path class="st1" d="M77.6,74.1h7.5c0.8,0,1.5-0.7,1.5-1.5c0-0.8-0.7-1.5-1.5-1.5h-7.5c-0.8,0-1.5,0.7-1.5,1.5
					C76.1,73.4,76.8,74.1,77.6,74.1z M103.2,57.6H70.1c-3.3,0-6,2.7-6,6v54.1c0,3.3,2.7,6,6,6h42.1c3.3,0,6-2.7,6-6V74.1L103.2,57.6
					z M115.2,117.7c0,1.7-1.3,3-3,3H70.1c-1.7,0-3-1.3-3-3V63.6c0-1.7,1.3-3,3-3h27.1v15c0,1.7,1.3,3,3,3h15V117.7z M100.2,75.6v-15
					h1.5l13.5,15H100.2z M95.7,107.1h-18c-0.8,0-1.5,0.7-1.5,1.5c0,0.8,0.7,1.5,1.5,1.5h18c0.8,0,1.5-0.7,1.5-1.5
					C97.2,107.8,96.5,107.1,95.7,107.1z M104.7,95.1H77.6c-0.8,0-1.5,0.7-1.5,1.5c0,0.8,0.7,1.5,1.5,1.5h27.1c0.8,0,1.5-0.7,1.5-1.5
					C106.2,95.8,105.5,95.1,104.7,95.1z M76.1,84.6c0,0.8,0.7,1.5,1.5,1.5h27.1c0.8,0,1.5-0.7,1.5-1.5c0-0.8-0.7-1.5-1.5-1.5H77.6
					C76.8,83.1,76.1,83.8,76.1,84.6z"/>
			</g>
		</g>
		<g>
			<g>
				<path class="st1" d="M77.1,73.6h7.5c0.8,0,1.5-0.7,1.5-1.5c0-0.8-0.7-1.5-1.5-1.5h-7.5c-0.8,0-1.5,0.7-1.5,1.5
					C75.6,72.9,76.3,73.6,77.1,73.6z M102.7,57.1H69.6c-3.3,0-6,2.7-6,6v54.1c0,3.3,2.7,6,6,6h42.1c3.3,0,6-2.7,6-6V73.6L102.7,57.1
					z M114.7,117.2c0,1.7-1.3,3-3,3H69.6c-1.7,0-3-1.3-3-3V63.1c0-1.7,1.3-3,3-3h27.1v15c0,1.7,1.3,3,3,3h15V117.2z M99.7,75.1v-15
					h1.5l13.5,15H99.7z M95.2,106.6h-18c-0.8,0-1.5,0.7-1.5,1.5c0,0.8,0.7,1.5,1.5,1.5h18c0.8,0,1.5-0.7,1.5-1.5
					C96.7,107.3,96,106.6,95.2,106.6z M104.2,94.6H77.1c-0.8,0-1.5,0.7-1.5,1.5c0,0.8,0.7,1.5,1.5,1.5h27.1c0.8,0,1.5-0.7,1.5-1.5
					C105.7,95.3,105,94.6,104.2,94.6z M75.6,84.1c0,0.8,0.7,1.5,1.5,1.5h27.1c0.8,0,1.5-0.7,1.5-1.5c0-0.8-0.7-1.5-1.5-1.5H77.1
					C76.3,82.6,75.6,83.3,75.6,84.1z"/>
			</g>
		</g>
		<g>
			<g>
				<path class="st1" d="M76.6,73.1h7.5c0.8,0,1.5-0.7,1.5-1.5c0-0.8-0.7-1.5-1.5-1.5h-7.5c-0.8,0-1.5,0.7-1.5,1.5
					C75.1,72.4,75.8,73.1,76.6,73.1z M102.2,56.6H69.1c-3.3,0-6,2.7-6,6v54.1c0,3.3,2.7,6,6,6h42.1c3.3,0,6-2.7,6-6V73.1L102.2,56.6
					z M114.2,116.7c0,1.7-1.3,3-3,3H69.1c-1.7,0-3-1.3-3-3V62.6c0-1.7,1.3-3,3-3h27.1v15c0,1.7,1.3,3,3,3h15V116.7z M99.2,74.6v-15
					h1.5l13.5,15H99.2z M94.7,106.1h-18c-0.8,0-1.5,0.7-1.5,1.5c0,0.8,0.7,1.5,1.5,1.5h18c0.8,0,1.5-0.7,1.5-1.5
					C96.2,106.8,95.5,106.1,94.7,106.1z M103.7,94.1H76.6c-0.8,0-1.5,0.7-1.5,1.5c0,0.8,0.7,1.5,1.5,1.5h27.1c0.8,0,1.5-0.7,1.5-1.5
					C105.2,94.8,104.5,94.1,103.7,94.1z M75.1,83.6c0,0.8,0.7,1.5,1.5,1.5h27.1c0.8,0,1.5-0.7,1.5-1.5c0-0.8-0.7-1.5-1.5-1.5H76.6
					C75.8,82.1,75.1,82.8,75.1,83.6z"/>
			</g>
		</g>
		<g>
			<g>
				<path class="st1" d="M76.1,72.6h7.5c0.8,0,1.5-0.7,1.5-1.5c0-0.8-0.7-1.5-1.5-1.5h-7.5c-0.8,0-1.5,0.7-1.5,1.5
					C74.6,71.9,75.3,72.6,76.1,72.6z M101.7,56.1H68.6c-3.3,0-6,2.7-6,6v54.1c0,3.3,2.7,6,6,6h42.1c3.3,0,6-2.7,6-6V72.6L101.7,56.1
					z M113.7,116.2c0,1.7-1.3,3-3,3H68.6c-1.7,0-3-1.3-3-3V62.1c0-1.7,1.3-3,3-3h27.1v15c0,1.7,1.3,3,3,3h15V116.2z M98.7,74.1v-15
					h1.5l13.5,15H98.7z M94.2,105.6h-18c-0.8,0-1.5,0.7-1.5,1.5c0,0.8,0.7,1.5,1.5,1.5h18c0.8,0,1.5-0.7,1.5-1.5
					C95.7,106.3,95,105.6,94.2,105.6z M103.2,93.6H76.1c-0.8,0-1.5,0.7-1.5,1.5c0,0.8,0.7,1.5,1.5,1.5h27.1c0.8,0,1.5-0.7,1.5-1.5
					C104.7,94.3,104,93.6,103.2,93.6z M74.6,83.1c0,0.8,0.7,1.5,1.5,1.5h27.1c0.8,0,1.5-0.7,1.5-1.5c0-0.8-0.7-1.5-1.5-1.5H76.1
					C75.3,81.6,74.6,82.3,74.6,83.1z"/>
			</g>
		</g>
		<g>
			<g>
				<path class="st1" d="M75.6,72.1h7.5c0.8,0,1.5-0.7,1.5-1.5c0-0.8-0.7-1.5-1.5-1.5h-7.5c-0.8,0-1.5,0.7-1.5,1.5
					C74.1,71.4,74.8,72.1,75.6,72.1z M101.2,55.6H68.1c-3.3,0-6,2.7-6,6v54.1c0,3.3,2.7,6,6,6h42.1c3.3,0,6-2.7,6-6V72.1L101.2,55.6
					z M113.2,115.7c0,1.7-1.3,3-3,3H68.1c-1.7,0-3-1.3-3-3V61.6c0-1.7,1.3-3,3-3h27.1v15c0,1.7,1.3,3,3,3h15V115.7z M98.2,73.6v-15
					h1.5l13.5,15H98.2z M93.7,105.1h-18c-0.8,0-1.5,0.7-1.5,1.5c0,0.8,0.7,1.5,1.5,1.5h18c0.8,0,1.5-0.7,1.5-1.5
					C95.2,105.8,94.5,105.1,93.7,105.1z M102.7,93.1H75.6c-0.8,0-1.5,0.7-1.5,1.5c0,0.8,0.7,1.5,1.5,1.5h27.1c0.8,0,1.5-0.7,1.5-1.5
					C104.2,93.8,103.5,93.1,102.7,93.1z M74.1,82.6c0,0.8,0.7,1.5,1.5,1.5h27.1c0.8,0,1.5-0.7,1.5-1.5c0-0.8-0.7-1.5-1.5-1.5H75.6
					C74.8,81.1,74.1,81.8,74.1,82.6z"/>
			</g>
		</g>
		<g>
			<g>
				<path class="st1" d="M75.1,71.6h7.5c0.8,0,1.5-0.7,1.5-1.5c0-0.8-0.7-1.5-1.5-1.5h-7.5c-0.8,0-1.5,0.7-1.5,1.5
					C73.6,70.9,74.3,71.6,75.1,71.6z M100.7,55.1H67.6c-3.3,0-6,2.7-6,6v54.1c0,3.3,2.7,6,6,6h42.1c3.3,0,6-2.7,6-6V71.6L100.7,55.1
					z M112.7,115.2c0,1.7-1.3,3-3,3H67.6c-1.7,0-3-1.3-3-3V61.1c0-1.7,1.3-3,3-3h27.1v15c0,1.7,1.3,3,3,3h15V115.2z M97.7,73.1v-15
					h1.5l13.5,15H97.7z M93.2,104.6h-18c-0.8,0-1.5,0.7-1.5,1.5c0,0.8,0.7,1.5,1.5,1.5h18c0.8,0,1.5-0.7,1.5-1.5
					C94.7,105.3,94,104.6,93.2,104.6z M102.2,92.6H75.1c-0.8,0-1.5,0.7-1.5,1.5c0,0.8,0.7,1.5,1.5,1.5h27.1c0.8,0,1.5-0.7,1.5-1.5
					C103.7,93.3,103,92.6,102.2,92.6z M73.6,82.1c0,0.8,0.7,1.5,1.5,1.5h27.1c0.8,0,1.5-0.7,1.5-1.5c0-0.8-0.7-1.5-1.5-1.5H75.1
					C74.3,80.6,73.6,81.3,73.6,82.1z"/>
			</g>
		</g>
		<g>
			<g>
				<path class="st1" d="M74.6,71.1h7.5c0.8,0,1.5-0.7,1.5-1.5c0-0.8-0.7-1.5-1.5-1.5h-7.5c-0.8,0-1.5,0.7-1.5,1.5
					C73.1,70.4,73.8,71.1,74.6,71.1z M100.2,54.6H67.1c-3.3,0-6,2.7-6,6v54.1c0,3.3,2.7,6,6,6h42.1c3.3,0,6-2.7,6-6V71.1L100.2,54.6
					z M112.2,114.7c0,1.7-1.3,3-3,3H67.1c-1.7,0-3-1.3-3-3V60.6c0-1.7,1.3-3,3-3h27.1v15c0,1.7,1.3,3,3,3h15V114.7z M97.2,72.6v-15
					h1.5l13.5,15H97.2z M92.7,104.1h-18c-0.8,0-1.5,0.7-1.5,1.5c0,0.8,0.7,1.5,1.5,1.5h18c0.8,0,1.5-0.7,1.5-1.5
					C94.2,104.8,93.5,104.1,92.7,104.1z M101.7,92.1H74.6c-0.8,0-1.5,0.7-1.5,1.5c0,0.8,0.7,1.5,1.5,1.5h27.1c0.8,0,1.5-0.7,1.5-1.5
					C103.2,92.8,102.5,92.1,101.7,92.1z M73.1,81.6c0,0.8,0.7,1.5,1.5,1.5h27.1c0.8,0,1.5-0.7,1.5-1.5c0-0.8-0.7-1.5-1.5-1.5H74.6
					C73.8,80.1,73.1,80.8,73.1,81.6z"/>
			</g>
		</g>
		<g>
			<g>
				<path class="st1" d="M74.1,70.6h7.5c0.8,0,1.5-0.7,1.5-1.5c0-0.8-0.7-1.5-1.5-1.5h-7.5c-0.8,0-1.5,0.7-1.5,1.5
					C72.6,69.9,73.3,70.6,74.1,70.6z M99.7,54.1H66.6c-3.3,0-6,2.7-6,6v54.1c0,3.3,2.7,6,6,6h42.1c3.3,0,6-2.7,6-6V70.6L99.7,54.1z
					 M111.7,114.2c0,1.7-1.3,3-3,3H66.6c-1.7,0-3-1.3-3-3V60.1c0-1.7,1.3-3,3-3h27.1v15c0,1.7,1.3,3,3,3h15V114.2z M96.7,72.1v-15
					h1.5l13.5,15H96.7z M92.2,103.6h-18c-0.8,0-1.5,0.7-1.5,1.5c0,0.8,0.7,1.5,1.5,1.5h18c0.8,0,1.5-0.7,1.5-1.5
					C93.7,104.3,93,103.6,92.2,103.6z M101.2,91.6H74.1c-0.8,0-1.5,0.7-1.5,1.5c0,0.8,0.7,1.5,1.5,1.5h27.1c0.8,0,1.5-0.7,1.5-1.5
					C102.7,92.3,102,91.6,101.2,91.6z M72.6,81.1c0,0.8,0.7,1.5,1.5,1.5h27.1c0.8,0,1.5-0.7,1.5-1.5c0-0.8-0.7-1.5-1.5-1.5H74.1
					C73.3,79.6,72.6,80.3,72.6,81.1z"/>
			</g>
		</g>
		<g>
			<g>
				<path class="st1" d="M73.6,70.1h7.5c0.8,0,1.5-0.7,1.5-1.5c0-0.8-0.7-1.5-1.5-1.5h-7.5c-0.8,0-1.5,0.7-1.5,1.5
					C72.1,69.4,72.8,70.1,73.6,70.1z M99.2,53.6H66.1c-3.3,0-6,2.7-6,6v54.1c0,3.3,2.7,6,6,6h42.1c3.3,0,6-2.7,6-6V70.1L99.2,53.6z
					 M111.2,113.7c0,1.7-1.3,3-3,3H66.1c-1.7,0-3-1.3-3-3V59.6c0-1.7,1.3-3,3-3h27.1v15c0,1.7,1.3,3,3,3h15V113.7z M96.2,71.6v-15
					h1.5l13.5,15H96.2z M91.7,103.1h-18c-0.8,0-1.5,0.7-1.5,1.5c0,0.8,0.7,1.5,1.5,1.5h18c0.8,0,1.5-0.7,1.5-1.5
					C93.2,103.8,92.5,103.1,91.7,103.1z M100.7,91.1H73.6c-0.8,0-1.5,0.7-1.5,1.5c0,0.8,0.7,1.5,1.5,1.5h27.1c0.8,0,1.5-0.7,1.5-1.5
					C102.2,91.8,101.5,91.1,100.7,91.1z M72.1,80.6c0,0.8,0.7,1.5,1.5,1.5h27.1c0.8,0,1.5-0.7,1.5-1.5c0-0.8-0.7-1.5-1.5-1.5H73.6
					C72.8,79.1,72.1,79.8,72.1,80.6z"/>
			</g>
		</g>
		<g>
			<g>
				<path class="st1" d="M73.1,69.6h7.5c0.8,0,1.5-0.7,1.5-1.5c0-0.8-0.7-1.5-1.5-1.5h-7.5c-0.8,0-1.5,0.7-1.5,1.5
					C71.6,68.9,72.3,69.6,73.1,69.6z M98.7,53.1H65.6c-3.3,0-6,2.7-6,6v54.1c0,3.3,2.7,6,6,6h42.1c3.3,0,6-2.7,6-6V69.6L98.7,53.1z
					 M110.7,113.2c0,1.7-1.3,3-3,3H65.6c-1.7,0-3-1.3-3-3V59.1c0-1.7,1.3-3,3-3h27.1v15c0,1.7,1.3,3,3,3h15V113.2z M95.7,71.1v-15
					h1.5l13.5,15H95.7z M91.2,102.6h-18c-0.8,0-1.5,0.7-1.5,1.5c0,0.8,0.7,1.5,1.5,1.5h18c0.8,0,1.5-0.7,1.5-1.5
					C92.7,103.3,92,102.6,91.2,102.6z M100.2,90.6H73.1c-0.8,0-1.5,0.7-1.5,1.5c0,0.8,0.7,1.5,1.5,1.5h27.1c0.8,0,1.5-0.7,1.5-1.5
					C101.7,91.3,101,90.6,100.2,90.6z M71.6,80.1c0,0.8,0.7,1.5,1.5,1.5h27.1c0.8,0,1.5-0.7,1.5-1.5c0-0.8-0.7-1.5-1.5-1.5H73.1
					C72.3,78.6,71.6,79.3,71.6,80.1z"/>
			</g>
		</g>
		<g>
			<g>
				<path class="st1" d="M72.6,69.1h7.5c0.8,0,1.5-0.7,1.5-1.5c0-0.8-0.7-1.5-1.5-1.5h-7.5c-0.8,0-1.5,0.7-1.5,1.5
					C71.1,68.4,71.8,69.1,72.6,69.1z M98.2,52.6H65.1c-3.3,0-6,2.7-6,6v54.1c0,3.3,2.7,6,6,6h42.1c3.3,0,6-2.7,6-6V69.1L98.2,52.6z
					 M110.2,112.7c0,1.7-1.3,3-3,3H65.1c-1.7,0-3-1.3-3-3V58.6c0-1.7,1.3-3,3-3h27.1v15c0,1.7,1.3,3,3,3h15V112.7z M95.2,70.6v-15
					h1.5l13.5,15H95.2z M90.7,102.1h-18c-0.8,0-1.5,0.7-1.5,1.5c0,0.8,0.7,1.5,1.5,1.5h18c0.8,0,1.5-0.7,1.5-1.5
					C92.2,102.8,91.5,102.1,90.7,102.1z M99.7,90.1H72.6c-0.8,0-1.5,0.7-1.5,1.5c0,0.8,0.7,1.5,1.5,1.5h27.1c0.8,0,1.5-0.7,1.5-1.5
					C101.2,90.8,100.5,90.1,99.7,90.1z M71.1,79.6c0,0.8,0.7,1.5,1.5,1.5h27.1c0.8,0,1.5-0.7,1.5-1.5c0-0.8-0.7-1.5-1.5-1.5H72.6
					C71.8,78.1,71.1,78.8,71.1,79.6z"/>
			</g>
		</g>
		<g>
			<g>
				<path class="st1" d="M72.1,68.6h7.5c0.8,0,1.5-0.7,1.5-1.5c0-0.8-0.7-1.5-1.5-1.5h-7.5c-0.8,0-1.5,0.7-1.5,1.5
					C70.6,67.9,71.3,68.6,72.1,68.6z M97.7,52.1H64.6c-3.3,0-6,2.7-6,6v54.1c0,3.3,2.7,6,6,6h42.1c3.3,0,6-2.7,6-6V68.6L97.7,52.1z
					 M109.7,112.2c0,1.7-1.3,3-3,3H64.6c-1.7,0-3-1.3-3-3V58.1c0-1.7,1.3-3,3-3h27.1v15c0,1.7,1.3,3,3,3h15V112.2z M94.7,70.1v-15
					h1.5l13.5,15H94.7z M90.2,101.6h-18c-0.8,0-1.5,0.7-1.5,1.5c0,0.8,0.7,1.5,1.5,1.5h18c0.8,0,1.5-0.7,1.5-1.5
					C91.7,102.3,91,101.6,90.2,101.6z M99.2,89.6H72.1c-0.8,0-1.5,0.7-1.5,1.5c0,0.8,0.7,1.5,1.5,1.5h27.1c0.8,0,1.5-0.7,1.5-1.5
					C100.7,90.3,100,89.6,99.2,89.6z M70.6,79.1c0,0.8,0.7,1.5,1.5,1.5h27.1c0.8,0,1.5-0.7,1.5-1.5c0-0.8-0.7-1.5-1.5-1.5H72.1
					C71.3,77.6,70.6,78.3,70.6,79.1z"/>
			</g>
		</g>
		<g>
			<g>
				<path class="st1" d="M71.6,68.1h7.5c0.8,0,1.5-0.7,1.5-1.5c0-0.8-0.7-1.5-1.5-1.5h-7.5c-0.8,0-1.5,0.7-1.5,1.5
					C70.1,67.4,70.8,68.1,71.6,68.1z M97.2,51.6H64.1c-3.3,0-6,2.7-6,6v54.1c0,3.3,2.7,6,6,6h42.1c3.3,0,6-2.7,6-6V68.1L97.2,51.6z
					 M109.2,111.7c0,1.7-1.3,3-3,3H64.1c-1.7,0-3-1.3-3-3V57.6c0-1.7,1.3-3,3-3h27.1v15c0,1.7,1.3,3,3,3h15V111.7z M94.2,69.6v-15
					h1.5l13.5,15H94.2z M89.7,101.1h-18c-0.8,0-1.5,0.7-1.5,1.5c0,0.8,0.7,1.5,1.5,1.5h18c0.8,0,1.5-0.7,1.5-1.5
					C91.2,101.8,90.5,101.1,89.7,101.1z M98.7,89.1H71.6c-0.8,0-1.5,0.7-1.5,1.5c0,0.8,0.7,1.5,1.5,1.5h27.1c0.8,0,1.5-0.7,1.5-1.5
					C100.2,89.8,99.5,89.1,98.7,89.1z M70.1,78.6c0,0.8,0.7,1.5,1.5,1.5h27.1c0.8,0,1.5-0.7,1.5-1.5c0-0.8-0.7-1.5-1.5-1.5H71.6
					C70.8,77.1,70.1,77.8,70.1,78.6z"/>
			</g>
		</g>
		<g>
			<g>
				<path class="st1" d="M71.1,67.6h7.5c0.8,0,1.5-0.7,1.5-1.5c0-0.8-0.7-1.5-1.5-1.5h-7.5c-0.8,0-1.5,0.7-1.5,1.5
					C69.6,66.9,70.3,67.6,71.1,67.6z M96.7,51.1H63.6c-3.3,0-6,2.7-6,6v54.1c0,3.3,2.7,6,6,6h42.1c3.3,0,6-2.7,6-6V67.6L96.7,51.1z
					 M108.7,111.2c0,1.7-1.3,3-3,3H63.6c-1.7,0-3-1.3-3-3V57.1c0-1.7,1.3-3,3-3h27.1v15c0,1.7,1.3,3,3,3h15V111.2z M93.7,69.1v-15
					h1.5l13.5,15H93.7z M89.2,100.6h-18c-0.8,0-1.5,0.7-1.5,1.5c0,0.8,0.7,1.5,1.5,1.5h18c0.8,0,1.5-0.7,1.5-1.5
					C90.7,101.3,90,100.6,89.2,100.6z M98.2,88.6H71.1c-0.8,0-1.5,0.7-1.5,1.5c0,0.8,0.7,1.5,1.5,1.5h27.1c0.8,0,1.5-0.7,1.5-1.5
					C99.7,89.3,99,88.6,98.2,88.6z M69.6,78.1c0,0.8,0.7,1.5,1.5,1.5h27.1c0.8,0,1.5-0.7,1.5-1.5c0-0.8-0.7-1.5-1.5-1.5H71.1
					C70.3,76.6,69.6,77.3,69.6,78.1z"/>
			</g>
		</g>
		<g>
			<g>
				<path class="st1" d="M70.6,67.1h7.5c0.8,0,1.5-0.7,1.5-1.5c0-0.8-0.7-1.5-1.5-1.5h-7.5c-0.8,0-1.5,0.7-1.5,1.5
					C69.1,66.4,69.8,67.1,70.6,67.1z M96.2,50.6H63.1c-3.3,0-6,2.7-6,6v54.1c0,3.3,2.7,6,6,6h42.1c3.3,0,6-2.7,6-6V67.1L96.2,50.6z
					 M108.2,110.7c0,1.7-1.3,3-3,3H63.1c-1.7,0-3-1.3-3-3V56.6c0-1.7,1.3-3,3-3h27.1v15c0,1.7,1.3,3,3,3h15V110.7z M93.2,68.6v-15
					h1.5l13.5,15H93.2z M88.7,100.1h-18c-0.8,0-1.5,0.7-1.5,1.5c0,0.8,0.7,1.5,1.5,1.5h18c0.8,0,1.5-0.7,1.5-1.5
					C90.2,100.8,89.5,100.1,88.7,100.1z M97.7,88.1H70.6c-0.8,0-1.5,0.7-1.5,1.5c0,0.8,0.7,1.5,1.5,1.5h27.1c0.8,0,1.5-0.7,1.5-1.5
					C99.2,88.8,98.5,88.1,97.7,88.1z M69.1,77.6c0,0.8,0.7,1.5,1.5,1.5h27.1c0.8,0,1.5-0.7,1.5-1.5c0-0.8-0.7-1.5-1.5-1.5H70.6
					C69.8,76.1,69.1,76.8,69.1,77.6z"/>
			</g>
		</g>
		<g>
			<g>
				<path class="st1" d="M70.1,66.6h7.5c0.8,0,1.5-0.7,1.5-1.5c0-0.8-0.7-1.5-1.5-1.5h-7.5c-0.8,0-1.5,0.7-1.5,1.5
					C68.6,65.9,69.3,66.6,70.1,66.6z M95.7,50.1H62.6c-3.3,0-6,2.7-6,6v54.1c0,3.3,2.7,6,6,6h42.1c3.3,0,6-2.7,6-6V66.6L95.7,50.1z
					 M107.7,110.2c0,1.7-1.3,3-3,3H62.6c-1.7,0-3-1.3-3-3V56.1c0-1.7,1.3-3,3-3h27.1v15c0,1.7,1.3,3,3,3h15V110.2z M92.7,68.1v-15
					h1.5l13.5,15H92.7z M88.2,99.6h-18c-0.8,0-1.5,0.7-1.5,1.5c0,0.8,0.7,1.5,1.5,1.5h18c0.8,0,1.5-0.7,1.5-1.5
					C89.7,100.3,89,99.6,88.2,99.6z M97.2,87.6H70.1c-0.8,0-1.5,0.7-1.5,1.5c0,0.8,0.7,1.5,1.5,1.5h27.1c0.8,0,1.5-0.7,1.5-1.5
					C98.7,88.3,98,87.6,97.2,87.6z M68.6,77.1c0,0.8,0.7,1.5,1.5,1.5h27.1c0.8,0,1.5-0.7,1.5-1.5c0-0.8-0.7-1.5-1.5-1.5H70.1
					C69.3,75.6,68.6,76.3,68.6,77.1z"/>
			</g>
		</g>
		<g>
			<g>
				<path class="st1" d="M69.6,66.1h7.5c0.8,0,1.5-0.7,1.5-1.5c0-0.8-0.7-1.5-1.5-1.5h-7.5c-0.8,0-1.5,0.7-1.5,1.5
					C68.1,65.4,68.8,66.1,69.6,66.1z M95.2,49.6H62.1c-3.3,0-6,2.7-6,6v54.1c0,3.3,2.7,6,6,6h42.1c3.3,0,6-2.7,6-6V66.1L95.2,49.6z
					 M107.2,109.7c0,1.7-1.3,3-3,3H62.1c-1.7,0-3-1.3-3-3V55.6c0-1.7,1.3-3,3-3h27.1v15c0,1.7,1.3,3,3,3h15V109.7z M92.2,67.6v-15
					h1.5l13.5,15H92.2z M87.7,99.1h-18c-0.8,0-1.5,0.7-1.5,1.5c0,0.8,0.7,1.5,1.5,1.5h18c0.8,0,1.5-0.7,1.5-1.5
					C89.2,99.8,88.5,99.1,87.7,99.1z M96.7,87.1H69.6c-0.8,0-1.5,0.7-1.5,1.5c0,0.8,0.7,1.5,1.5,1.5h27.1c0.8,0,1.5-0.7,1.5-1.5
					C98.2,87.8,97.5,87.1,96.7,87.1z M68.1,76.6c0,0.8,0.7,1.5,1.5,1.5h27.1c0.8,0,1.5-0.7,1.5-1.5c0-0.8-0.7-1.5-1.5-1.5H69.6
					C68.8,75.1,68.1,75.8,68.1,76.6z"/>
			</g>
		</g>
		<g>
			<g>
				<path class="st1" d="M69.1,65.6h7.5c0.8,0,1.5-0.7,1.5-1.5c0-0.8-0.7-1.5-1.5-1.5h-7.5c-0.8,0-1.5,0.7-1.5,1.5
					C67.6,64.9,68.3,65.6,69.1,65.6z M94.7,49.1H61.6c-3.3,0-6,2.7-6,6v54.1c0,3.3,2.7,6,6,6h42.1c3.3,0,6-2.7,6-6V65.6L94.7,49.1z
					 M106.7,109.2c0,1.7-1.3,3-3,3H61.6c-1.7,0-3-1.3-3-3V55.1c0-1.7,1.3-3,3-3h27.1v15c0,1.7,1.3,3,3,3h15V109.2z M91.7,67.1v-15
					h1.5l13.5,15H91.7z M87.2,98.6h-18c-0.8,0-1.5,0.7-1.5,1.5c0,0.8,0.7,1.5,1.5,1.5h18c0.8,0,1.5-0.7,1.5-1.5
					C88.7,99.3,88,98.6,87.2,98.6z M96.2,86.6H69.1c-0.8,0-1.5,0.7-1.5,1.5c0,0.8,0.7,1.5,1.5,1.5h27.1c0.8,0,1.5-0.7,1.5-1.5
					C97.7,87.3,97,86.6,96.2,86.6z M67.6,76.1c0,0.8,0.7,1.5,1.5,1.5h27.1c0.8,0,1.5-0.7,1.5-1.5c0-0.8-0.7-1.5-1.5-1.5H69.1
					C68.3,74.6,67.6,75.3,67.6,76.1z"/>
			</g>
		</g>
		<g>
			<g>
				<path class="st1" d="M68.6,65.1h7.5c0.8,0,1.5-0.7,1.5-1.5c0-0.8-0.7-1.5-1.5-1.5h-7.5c-0.8,0-1.5,0.7-1.5,1.5
					C67.1,64.4,67.8,65.1,68.6,65.1z M94.2,48.6H61.1c-3.3,0-6,2.7-6,6v54.1c0,3.3,2.7,6,6,6h42.1c3.3,0,6-2.7,6-6V65.1L94.2,48.6z
					 M106.2,108.7c0,1.7-1.3,3-3,3H61.1c-1.7,0-3-1.3-3-3V54.6c0-1.7,1.3-3,3-3h27.1v15c0,1.7,1.3,3,3,3h15V108.7z M91.2,66.6v-15
					h1.5l13.5,15H91.2z M86.7,98.1h-18c-0.8,0-1.5,0.7-1.5,1.5c0,0.8,0.7,1.5,1.5,1.5h18c0.8,0,1.5-0.7,1.5-1.5
					C88.2,98.8,87.5,98.1,86.7,98.1z M95.7,86.1H68.6c-0.8,0-1.5,0.7-1.5,1.5c0,0.8,0.7,1.5,1.5,1.5h27.1c0.8,0,1.5-0.7,1.5-1.5
					C97.2,86.8,96.5,86.1,95.7,86.1z M67.1,75.6c0,0.8,0.7,1.5,1.5,1.5h27.1c0.8,0,1.5-0.7,1.5-1.5c0-0.8-0.7-1.5-1.5-1.5H68.6
					C67.8,74.1,67.1,74.8,67.1,75.6z"/>
			</g>
		</g>
		<g>
			<g>
				<path class="st1" d="M68.1,64.6h7.5c0.8,0,1.5-0.7,1.5-1.5c0-0.8-0.7-1.5-1.5-1.5h-7.5c-0.8,0-1.5,0.7-1.5,1.5
					C66.6,63.9,67.3,64.6,68.1,64.6z M93.7,48.1H60.6c-3.3,0-6,2.7-6,6v54.1c0,3.3,2.7,6,6,6h42.1c3.3,0,6-2.7,6-6V64.6L93.7,48.1z
					 M105.7,108.2c0,1.7-1.3,3-3,3H60.6c-1.7,0-3-1.3-3-3V54.1c0-1.7,1.3-3,3-3h27.1v15c0,1.7,1.3,3,3,3h15V108.2z M90.7,66.1v-15
					h1.5l13.5,15H90.7z M86.2,97.6h-18c-0.8,0-1.5,0.7-1.5,1.5c0,0.8,0.7,1.5,1.5,1.5h18c0.8,0,1.5-0.7,1.5-1.5
					C87.7,98.3,87,97.6,86.2,97.6z M95.2,85.6H68.1c-0.8,0-1.5,0.7-1.5,1.5c0,0.8,0.7,1.5,1.5,1.5h27.1c0.8,0,1.5-0.7,1.5-1.5
					C96.7,86.3,96,85.6,95.2,85.6z M66.6,75.1c0,0.8,0.7,1.5,1.5,1.5h27.1c0.8,0,1.5-0.7,1.5-1.5c0-0.8-0.7-1.5-1.5-1.5H68.1
					C67.3,73.6,66.6,74.3,66.6,75.1z"/>
			</g>
		</g>
		<g>
			<g>
				<path class="st1" d="M67.6,64.1h7.5c0.8,0,1.5-0.7,1.5-1.5c0-0.8-0.7-1.5-1.5-1.5h-7.5c-0.8,0-1.5,0.7-1.5,1.5
					C66.1,63.4,66.8,64.1,67.6,64.1z M93.2,47.6H60.1c-3.3,0-6,2.7-6,6v54.1c0,3.3,2.7,6,6,6h42.1c3.3,0,6-2.7,6-6V64.1L93.2,47.6z
					 M105.2,107.7c0,1.7-1.3,3-3,3H60.1c-1.7,0-3-1.3-3-3V53.6c0-1.7,1.3-3,3-3h27.1v15c0,1.7,1.3,3,3,3h15V107.7z M90.2,65.6v-15
					h1.5l13.5,15H90.2z M85.7,97.1h-18c-0.8,0-1.5,0.7-1.5,1.5c0,0.8,0.7,1.5,1.5,1.5h18c0.8,0,1.5-0.7,1.5-1.5
					C87.2,97.8,86.5,97.1,85.7,97.1z M94.7,85.1H67.6c-0.8,0-1.5,0.7-1.5,1.5c0,0.8,0.7,1.5,1.5,1.5h27.1c0.8,0,1.5-0.7,1.5-1.5
					C96.2,85.8,95.5,85.1,94.7,85.1z M66.1,74.6c0,0.8,0.7,1.5,1.5,1.5h27.1c0.8,0,1.5-0.7,1.5-1.5c0-0.8-0.7-1.5-1.5-1.5H67.6
					C66.8,73.1,66.1,73.8,66.1,74.6z"/>
			</g>
		</g>
		<g>
			<g>
				<path class="st1" d="M67.1,63.6h7.5c0.8,0,1.5-0.7,1.5-1.5c0-0.8-0.7-1.5-1.5-1.5h-7.5c-0.8,0-1.5,0.7-1.5,1.5
					C65.6,62.9,66.3,63.6,67.1,63.6z M92.7,47.1H59.6c-3.3,0-6,2.7-6,6v54.1c0,3.3,2.7,6,6,6h42.1c3.3,0,6-2.7,6-6V63.6L92.7,47.1z
					 M104.7,107.2c0,1.7-1.3,3-3,3H59.6c-1.7,0-3-1.3-3-3V53.1c0-1.7,1.3-3,3-3h27.1v15c0,1.7,1.3,3,3,3h15V107.2z M89.7,65.1v-15
					h1.5l13.5,15H89.7z M85.2,96.6h-18c-0.8,0-1.5,0.7-1.5,1.5c0,0.8,0.7,1.5,1.5,1.5h18c0.8,0,1.5-0.7,1.5-1.5
					C86.7,97.3,86,96.6,85.2,96.6z M94.2,84.6H67.1c-0.8,0-1.5,0.7-1.5,1.5c0,0.8,0.7,1.5,1.5,1.5h27.1c0.8,0,1.5-0.7,1.5-1.5
					C95.7,85.3,95,84.6,94.2,84.6z M65.6,74.1c0,0.8,0.7,1.5,1.5,1.5h27.1c0.8,0,1.5-0.7,1.5-1.5c0-0.8-0.7-1.5-1.5-1.5H67.1
					C66.3,72.6,65.6,73.3,65.6,74.1z"/>
			</g>
		</g>
		<g>
			<g>
				<path class="st1" d="M66.6,63.1h7.5c0.8,0,1.5-0.7,1.5-1.5c0-0.8-0.7-1.5-1.5-1.5h-7.5c-0.8,0-1.5,0.7-1.5,1.5
					C65.1,62.4,65.8,63.1,66.6,63.1z M92.2,46.6H59.1c-3.3,0-6,2.7-6,6v54.1c0,3.3,2.7,6,6,6h42.1c3.3,0,6-2.7,6-6V63.1L92.2,46.6z
					 M104.2,106.7c0,1.7-1.3,3-3,3H59.1c-1.7,0-3-1.3-3-3V52.6c0-1.7,1.3-3,3-3h27.1v15c0,1.7,1.3,3,3,3h15V106.7z M89.2,64.6v-15
					h1.5l13.5,15H89.2z M84.7,96.1h-18c-0.8,0-1.5,0.7-1.5,1.5c0,0.8,0.7,1.5,1.5,1.5h18c0.8,0,1.5-0.7,1.5-1.5
					C86.2,96.8,85.5,96.1,84.7,96.1z M93.7,84.1H66.6c-0.8,0-1.5,0.7-1.5,1.5c0,0.8,0.7,1.5,1.5,1.5h27.1c0.8,0,1.5-0.7,1.5-1.5
					C95.2,84.8,94.5,84.1,93.7,84.1z M65.1,73.6c0,0.8,0.7,1.5,1.5,1.5h27.1c0.8,0,1.5-0.7,1.5-1.5c0-0.8-0.7-1.5-1.5-1.5H66.6
					C65.8,72.1,65.1,72.8,65.1,73.6z"/>
			</g>
		</g>
		<g>
			<g>
				<path class="st1" d="M66.1,62.6h7.5c0.8,0,1.5-0.7,1.5-1.5c0-0.8-0.7-1.5-1.5-1.5h-7.5c-0.8,0-1.5,0.7-1.5,1.5
					C64.6,61.9,65.3,62.6,66.1,62.6z M91.7,46.1H58.6c-3.3,0-6,2.7-6,6v54.1c0,3.3,2.7,6,6,6h42.1c3.3,0,6-2.7,6-6V62.6L91.7,46.1z
					 M103.7,106.2c0,1.7-1.3,3-3,3H58.6c-1.7,0-3-1.3-3-3V52.1c0-1.7,1.3-3,3-3h27.1v15c0,1.7,1.3,3,3,3h15V106.2z M88.7,64.1v-15
					h1.5l13.5,15H88.7z M84.2,95.6h-18c-0.8,0-1.5,0.7-1.5,1.5c0,0.8,0.7,1.5,1.5,1.5h18c0.8,0,1.5-0.7,1.5-1.5
					C85.7,96.3,85,95.6,84.2,95.6z M93.2,83.6H66.1c-0.8,0-1.5,0.7-1.5,1.5c0,0.8,0.7,1.5,1.5,1.5h27.1c0.8,0,1.5-0.7,1.5-1.5
					C94.7,84.3,94,83.6,93.2,83.6z M64.6,73.1c0,0.8,0.7,1.5,1.5,1.5h27.1c0.8,0,1.5-0.7,1.5-1.5c0-0.8-0.7-1.5-1.5-1.5H66.1
					C65.3,71.6,64.6,72.3,64.6,73.1z"/>
			</g>
		</g>
		<g>
			<g>
				<path class="st1" d="M65.6,62.1h7.5c0.8,0,1.5-0.7,1.5-1.5c0-0.8-0.7-1.5-1.5-1.5h-7.5c-0.8,0-1.5,0.7-1.5,1.5
					C64.1,61.4,64.8,62.1,65.6,62.1z M91.2,45.6H58.1c-3.3,0-6,2.7-6,6v54.1c0,3.3,2.7,6,6,6h42.1c3.3,0,6-2.7,6-6V62.1L91.2,45.6z
					 M103.2,105.7c0,1.7-1.3,3-3,3H58.1c-1.7,0-3-1.3-3-3V51.6c0-1.7,1.3-3,3-3h27.1v15c0,1.7,1.3,3,3,3h15V105.7z M88.2,63.6v-15
					h1.5l13.5,15H88.2z M83.7,95.1h-18c-0.8,0-1.5,0.7-1.5,1.5c0,0.8,0.7,1.5,1.5,1.5h18c0.8,0,1.5-0.7,1.5-1.5
					C85.2,95.8,84.5,95.1,83.7,95.1z M92.7,83.1H65.6c-0.8,0-1.5,0.7-1.5,1.5c0,0.8,0.7,1.5,1.5,1.5h27.1c0.8,0,1.5-0.7,1.5-1.5
					C94.2,83.8,93.5,83.1,92.7,83.1z M64.1,72.6c0,0.8,0.7,1.5,1.5,1.5h27.1c0.8,0,1.5-0.7,1.5-1.5c0-0.8-0.7-1.5-1.5-1.5H65.6
					C64.8,71.1,64.1,71.8,64.1,72.6z"/>
			</g>
		</g>
		<g>
			<g>
				<path class="st1" d="M65.1,61.6h7.5c0.8,0,1.5-0.7,1.5-1.5c0-0.8-0.7-1.5-1.5-1.5h-7.5c-0.8,0-1.5,0.7-1.5,1.5
					C63.6,60.9,64.3,61.6,65.1,61.6z M90.7,45.1H57.6c-3.3,0-6,2.7-6,6v54.1c0,3.3,2.7,6,6,6h42.1c3.3,0,6-2.7,6-6V61.6L90.7,45.1z
					 M102.7,105.2c0,1.7-1.3,3-3,3H57.6c-1.7,0-3-1.3-3-3V51.1c0-1.7,1.3-3,3-3h27.1v15c0,1.7,1.3,3,3,3h15V105.2z M87.7,63.1v-15
					h1.5l13.5,15H87.7z M83.2,94.6h-18c-0.8,0-1.5,0.7-1.5,1.5c0,0.8,0.7,1.5,1.5,1.5h18c0.8,0,1.5-0.7,1.5-1.5
					C84.7,95.3,84,94.6,83.2,94.6z M92.2,82.6H65.1c-0.8,0-1.5,0.7-1.5,1.5c0,0.8,0.7,1.5,1.5,1.5h27.1c0.8,0,1.5-0.7,1.5-1.5
					C93.7,83.3,93,82.6,92.2,82.6z M63.6,72.1c0,0.8,0.7,1.5,1.5,1.5h27.1c0.8,0,1.5-0.7,1.5-1.5c0-0.8-0.7-1.5-1.5-1.5H65.1
					C64.3,70.6,63.6,71.3,63.6,72.1z"/>
			</g>
		</g>
	</g>
</g>
<g id="Page_1_x40_2x.png_2_">
	<g>
		<path class="st2" d="M83.2,94.2h-18c-0.8,0-1.5,0.7-1.5,1.5c0,0.8,0.7,1.5,1.5,1.5h18c0.8,0,1.5-0.7,1.5-1.5
			C84.7,94.9,84,94.2,83.2,94.2z M65.1,61.1h7.5c0.8,0,1.5-0.7,1.5-1.5c0-0.8-0.7-1.5-1.5-1.5h-7.5c-0.8,0-1.5,0.7-1.5,1.5
			C63.6,60.5,64.3,61.1,65.1,61.1z M90.7,44.6h-4.5H57.6c-3.3,0-6,2.7-6,6v54.1c0,3.3,2.7,6,6,6h42.1c3.3,0,6-2.7,6-6V64.1v-3
			L90.7,44.6z M102.7,104.7c0,1.7-1.3,3-3,3H57.6c-1.7,0-3-1.3-3-3V50.6c0-1.7,1.3-3,3-3h27.1v15c0,1.7,1.3,3,3,3h15V104.7z
			 M87.7,62.6v-15h1.5l13.5,15H87.7z M63.6,71.6c0,0.8,0.7,1.5,1.5,1.5h27.1c0.8,0,1.5-0.7,1.5-1.5c0-0.8-0.7-1.5-1.5-1.5H65.1
			C64.3,70.1,63.6,70.8,63.6,71.6z M92.2,82.2H65.1c-0.8,0-1.5,0.7-1.5,1.5c0,0.8,0.7,1.5,1.5,1.5h27.1c0.8,0,1.5-0.7,1.5-1.5
			C93.7,82.8,93,82.2,92.2,82.2z"/>
	</g>
</g>
<g>
</g>
<g>
</g>
<g>
</g>
<g>
</g>
<g>
</g>
<g>
</g>
</svg>
