<svg id="Layer_1" xmlns="http://www.w3.org/2000/svg" xmlns:xlink="http://www.w3.org/1999/xlink" viewBox="0 0 157.3 157.3"><style>.st0{opacity:5e-2;clip-path:url(#SVGID_2_)}.st1{fill:#010202}.st2{fill:#324654}</style><defs><circle id="SVGID_1_" cx="78.7" cy="78.7" r="78.7"/></defs><use xlink:href="#SVGID_1_" overflow="visible" opacity=".1" fill="#010202"/><clipPath id="SVGID_2_"><use xlink:href="#SVGID_1_" overflow="visible" opacity=".1"/></clipPath><g id="Page_1_x40_2x.png" class="st0"><path class="st1" d="M113.1 109.6h7.5c.8 0 1.5-.7 1.5-1.5s-.7-1.5-1.5-1.5h-7.5c-.8 0-1.5.7-1.5 1.5s.7 1.5 1.5 1.5zm25.6-16.5h-33.1c-3.3 0-6 2.7-6 6v54.1c0 3.3 2.7 6 6 6h42.1c3.3 0 6-2.7 6-6v-43.6l-15-16.5zm12 60.1c0 1.7-1.3 3-3 3h-42.1c-1.7 0-3-1.3-3-3V99.1c0-1.7 1.3-3 3-3h27.1v15c0 1.7 1.3 3 3 3h15v39.1zm-15-42.1v-15h1.5l13.5 15h-15zm-4.5 31.5h-18c-.8 0-1.5.7-1.5 1.5s.7 1.5 1.5 1.5h18c.8 0 1.5-.7 1.5-1.5s-.7-1.5-1.5-1.5zm9-12h-27.1c-.8 0-1.5.7-1.5 1.5s.7 1.5 1.5 1.5h27.1c.8 0 1.5-.7 1.5-1.5s-.7-1.5-1.5-1.5zm-28.6-10.5c0 .8.7 1.5 1.5 1.5h27.1c.8 0 1.5-.7 1.5-1.5s-.7-1.5-1.5-1.5h-27.1c-.8 0-1.5.7-1.5 1.5z"/><path class="st1" d="M112.6 109.1h7.5c.8 0 1.5-.7 1.5-1.5s-.7-1.5-1.5-1.5h-7.5c-.8 0-1.5.7-1.5 1.5s.7 1.5 1.5 1.5zm25.6-16.5h-33.1c-3.3 0-6 2.7-6 6v54.1c0 3.3 2.7 6 6 6h42.1c3.3 0 6-2.7 6-6v-43.6l-15-16.5zm12 60.1c0 1.7-1.3 3-3 3h-42.1c-1.7 0-3-1.3-3-3V98.6c0-1.7 1.3-3 3-3h27.1v15c0 1.7 1.3 3 3 3h15v39.1zm-15-42.1v-15h1.5l13.5 15h-15zm-4.5 31.5h-18c-.8 0-1.5.7-1.5 1.5s.7 1.5 1.5 1.5h18c.8 0 1.5-.7 1.5-1.5s-.7-1.5-1.5-1.5zm9-12h-27.1c-.8 0-1.5.7-1.5 1.5s.7 1.5 1.5 1.5h27.1c.8 0 1.5-.7 1.5-1.5s-.7-1.5-1.5-1.5zm-28.6-10.5c0 .8.7 1.5 1.5 1.5h27.1c.8 0 1.5-.7 1.5-1.5s-.7-1.5-1.5-1.5h-27.1c-.8 0-1.5.7-1.5 1.5z"/><path class="st1" d="M112.1 108.6h7.5c.8 0 1.5-.7 1.5-1.5s-.7-1.5-1.5-1.5h-7.5c-.8 0-1.5.7-1.5 1.5s.7 1.5 1.5 1.5zm25.6-16.5h-33.1c-3.3 0-6 2.7-6 6v54.1c0 3.3 2.7 6 6 6h42.1c3.3 0 6-2.7 6-6v-43.6l-15-16.5zm12 60.1c0 1.7-1.3 3-3 3h-42.1c-1.7 0-3-1.3-3-3V98.1c0-1.7 1.3-3 3-3h27.1v15c0 1.7 1.3 3 3 3h15v39.1zm-15-42.1v-15h1.5l13.5 15h-15zm-4.5 31.5h-18c-.8 0-1.5.7-1.5 1.5s.7 1.5 1.5 1.5h18c.8 0 1.5-.7 1.5-1.5s-.7-1.5-1.5-1.5zm9-12h-27.1c-.8 0-1.5.7-1.5 1.5s.7 1.5 1.5 1.5h27.1c.8 0 1.5-.7 1.5-1.5s-.7-1.5-1.5-1.5zm-28.6-10.5c0 .8.7 1.5 1.5 1.5h27.1c.8 0 1.5-.7 1.5-1.5s-.7-1.5-1.5-1.5h-27.1c-.8 0-1.5.7-1.5 1.5z"/><path class="st1" d="M111.6 108.1h7.5c.8 0 1.5-.7 1.5-1.5s-.7-1.5-1.5-1.5h-7.5c-.8 0-1.5.7-1.5 1.5s.7 1.5 1.5 1.5zm25.6-16.5h-33.1c-3.3 0-6 2.7-6 6v54.1c0 3.3 2.7 6 6 6h42.1c3.3 0 6-2.7 6-6v-43.6l-15-16.5zm12 60.1c0 1.7-1.3 3-3 3h-42.1c-1.7 0-3-1.3-3-3V97.6c0-1.7 1.3-3 3-3h27.1v15c0 1.7 1.3 3 3 3h15v39.1zm-15-42.1v-15h1.5l13.5 15h-15zm-4.5 31.5h-18c-.8 0-1.5.7-1.5 1.5s.7 1.5 1.5 1.5h18c.8 0 1.5-.7 1.5-1.5s-.7-1.5-1.5-1.5zm9-12h-27.1c-.8 0-1.5.7-1.5 1.5s.7 1.5 1.5 1.5h27.1c.8 0 1.5-.7 1.5-1.5s-.7-1.5-1.5-1.5zm-28.6-10.5c0 .8.7 1.5 1.5 1.5h27.1c.8 0 1.5-.7 1.5-1.5s-.7-1.5-1.5-1.5h-27.1c-.8 0-1.5.7-1.5 1.5z"/><path class="st1" d="M111.1 107.6h7.5c.8 0 1.5-.7 1.5-1.5s-.7-1.5-1.5-1.5h-7.5c-.8 0-1.5.7-1.5 1.5s.7 1.5 1.5 1.5zm25.6-16.5h-33.1c-3.3 0-6 2.7-6 6v54.1c0 3.3 2.7 6 6 6h42.1c3.3 0 6-2.7 6-6v-43.6l-15-16.5zm12 60.1c0 1.7-1.3 3-3 3h-42.1c-1.7 0-3-1.3-3-3V97.1c0-1.7 1.3-3 3-3h27.1v15c0 1.7 1.3 3 3 3h15v39.1zm-15-42.1v-15h1.5l13.5 15h-15zm-4.5 31.5h-18c-.8 0-1.5.7-1.5 1.5s.7 1.5 1.5 1.5h18c.8 0 1.5-.7 1.5-1.5s-.7-1.5-1.5-1.5zm9-12h-27.1c-.8 0-1.5.7-1.5 1.5s.7 1.5 1.5 1.5h27.1c.8 0 1.5-.7 1.5-1.5s-.7-1.5-1.5-1.5zm-28.6-10.5c0 .8.7 1.5 1.5 1.5h27.1c.8 0 1.5-.7 1.5-1.5s-.7-1.5-1.5-1.5h-27.1c-.8 0-1.5.7-1.5 1.5z"/><path class="st1" d="M110.6 107.1h7.5c.8 0 1.5-.7 1.5-1.5s-.7-1.5-1.5-1.5h-7.5c-.8 0-1.5.7-1.5 1.5s.7 1.5 1.5 1.5zm25.6-16.5h-33.1c-3.3 0-6 2.7-6 6v54.1c0 3.3 2.7 6 6 6h42.1c3.3 0 6-2.7 6-6v-43.6l-15-16.5zm12 60.1c0 1.7-1.3 3-3 3h-42.1c-1.7 0-3-1.3-3-3V96.6c0-1.7 1.3-3 3-3h27.1v15c0 1.7 1.3 3 3 3h15v39.1zm-15-42.1v-15h1.5l13.5 15h-15zm-4.5 31.5h-18c-.8 0-1.5.7-1.5 1.5s.7 1.5 1.5 1.5h18c.8 0 1.5-.7 1.5-1.5s-.7-1.5-1.5-1.5zm9-12h-27.1c-.8 0-1.5.7-1.5 1.5s.7 1.5 1.5 1.5h27.1c.8 0 1.5-.7 1.5-1.5s-.7-1.5-1.5-1.5zm-28.6-10.5c0 .8.7 1.5 1.5 1.5h27.1c.8 0 1.5-.7 1.5-1.5s-.7-1.5-1.5-1.5h-27.1c-.8 0-1.5.7-1.5 1.5z"/><path class="st1" d="M110.1 106.6h7.5c.8 0 1.5-.7 1.5-1.5s-.7-1.5-1.5-1.5h-7.5c-.8 0-1.5.7-1.5 1.5s.7 1.5 1.5 1.5zm25.6-16.5h-33.1c-3.3 0-6 2.7-6 6v54.1c0 3.3 2.7 6 6 6h42.1c3.3 0 6-2.7 6-6v-43.6l-15-16.5zm12 60.1c0 1.7-1.3 3-3 3h-42.1c-1.7 0-3-1.3-3-3V96.1c0-1.7 1.3-3 3-3h27.1v15c0 1.7 1.3 3 3 3h15v39.1zm-15-42.1v-15h1.5l13.5 15h-15zm-4.5 31.5h-18c-.8 0-1.5.7-1.5 1.5s.7 1.5 1.5 1.5h18c.8 0 1.5-.7 1.5-1.5s-.7-1.5-1.5-1.5zm9-12h-27.1c-.8 0-1.5.7-1.5 1.5s.7 1.5 1.5 1.5h27.1c.8 0 1.5-.7 1.5-1.5s-.7-1.5-1.5-1.5zm-28.6-10.5c0 .8.7 1.5 1.5 1.5h27.1c.8 0 1.5-.7 1.5-1.5s-.7-1.5-1.5-1.5h-27.1c-.8 0-1.5.7-1.5 1.5z"/><path class="st1" d="M109.6 106.1h7.5c.8 0 1.5-.7 1.5-1.5s-.7-1.5-1.5-1.5h-7.5c-.8 0-1.5.7-1.5 1.5s.7 1.5 1.5 1.5zm25.6-16.5h-33.1c-3.3 0-6 2.7-6 6v54.1c0 3.3 2.7 6 6 6h42.1c3.3 0 6-2.7 6-6v-43.6l-15-16.5zm12 60.1c0 1.7-1.3 3-3 3h-42.1c-1.7 0-3-1.3-3-3V95.6c0-1.7 1.3-3 3-3h27.1v15c0 1.7 1.3 3 3 3h15v39.1zm-15-42.1v-15h1.5l13.5 15h-15zm-4.5 31.5h-18c-.8 0-1.5.7-1.5 1.5s.7 1.5 1.5 1.5h18c.8 0 1.5-.7 1.5-1.5s-.7-1.5-1.5-1.5zm9-12h-27.1c-.8 0-1.5.7-1.5 1.5s.7 1.5 1.5 1.5h27.1c.8 0 1.5-.7 1.5-1.5s-.7-1.5-1.5-1.5zm-28.6-10.5c0 .8.7 1.5 1.5 1.5h27.1c.8 0 1.5-.7 1.5-1.5s-.7-1.5-1.5-1.5h-27.1c-.8 0-1.5.7-1.5 1.5z"/><path class="st1" d="M109.1 105.6h7.5c.8 0 1.5-.7 1.5-1.5s-.7-1.5-1.5-1.5h-7.5c-.8 0-1.5.7-1.5 1.5s.7 1.5 1.5 1.5zm25.6-16.5h-33.1c-3.3 0-6 2.7-6 6v54.1c0 3.3 2.7 6 6 6h42.1c3.3 0 6-2.7 6-6v-43.6l-15-16.5zm12 60.1c0 1.7-1.3 3-3 3h-42.1c-1.7 0-3-1.3-3-3V95.1c0-1.7 1.3-3 3-3h27.1v15c0 1.7 1.3 3 3 3h15v39.1zm-15-42.1v-15h1.5l13.5 15h-15zm-4.5 31.5h-18c-.8 0-1.5.7-1.5 1.5s.7 1.5 1.5 1.5h18c.8 0 1.5-.7 1.5-1.5s-.7-1.5-1.5-1.5zm9-12h-27.1c-.8 0-1.5.7-1.5 1.5s.7 1.5 1.5 1.5h27.1c.8 0 1.5-.7 1.5-1.5s-.7-1.5-1.5-1.5zm-28.6-10.5c0 .8.7 1.5 1.5 1.5h27.1c.8 0 1.5-.7 1.5-1.5s-.7-1.5-1.5-1.5h-27.1c-.8 0-1.5.7-1.5 1.5z"/><path class="st1" d="M108.6 105.1h7.5c.8 0 1.5-.7 1.5-1.5s-.7-1.5-1.5-1.5h-7.5c-.8 0-1.5.7-1.5 1.5s.7 1.5 1.5 1.5zm25.6-16.5h-33.1c-3.3 0-6 2.7-6 6v54.1c0 3.3 2.7 6 6 6h42.1c3.3 0 6-2.7 6-6v-43.6l-15-16.5zm12 60.1c0 1.7-1.3 3-3 3h-42.1c-1.7 0-3-1.3-3-3V94.6c0-1.7 1.3-3 3-3h27.1v15c0 1.7 1.3 3 3 3h15v39.1zm-15-42.1v-15h1.5l13.5 15h-15zm-4.5 31.5h-18c-.8 0-1.5.7-1.5 1.5s.7 1.5 1.5 1.5h18c.8 0 1.5-.7 1.5-1.5s-.7-1.5-1.5-1.5zm9-12h-27.1c-.8 0-1.5.7-1.5 1.5s.7 1.5 1.5 1.5h27.1c.8 0 1.5-.7 1.5-1.5s-.7-1.5-1.5-1.5zm-28.6-10.5c0 .8.7 1.5 1.5 1.5h27.1c.8 0 1.5-.7 1.5-1.5s-.7-1.5-1.5-1.5h-27.1c-.8 0-1.5.7-1.5 1.5z"/><path class="st1" d="M108.1 104.6h7.5c.8 0 1.5-.7 1.5-1.5s-.7-1.5-1.5-1.5h-7.5c-.8 0-1.5.7-1.5 1.5s.7 1.5 1.5 1.5zm25.6-16.5h-33.1c-3.3 0-6 2.7-6 6v54.1c0 3.3 2.7 6 6 6h42.1c3.3 0 6-2.7 6-6v-43.6l-15-16.5zm12 60.1c0 1.7-1.3 3-3 3h-42.1c-1.7 0-3-1.3-3-3V94.1c0-1.7 1.3-3 3-3h27.1v15c0 1.7 1.3 3 3 3h15v39.1zm-15-42.1v-15h1.5l13.5 15h-15zm-4.5 31.5h-18c-.8 0-1.5.7-1.5 1.5s.7 1.5 1.5 1.5h18c.8 0 1.5-.7 1.5-1.5s-.7-1.5-1.5-1.5zm9-12h-27.1c-.8 0-1.5.7-1.5 1.5s.7 1.5 1.5 1.5h27.1c.8 0 1.5-.7 1.5-1.5s-.7-1.5-1.5-1.5zm-28.6-10.5c0 .8.7 1.5 1.5 1.5h27.1c.8 0 1.5-.7 1.5-1.5s-.7-1.5-1.5-1.5h-27.1c-.8 0-1.5.7-1.5 1.5z"/><path class="st1" d="M107.6 104.1h7.5c.8 0 1.5-.7 1.5-1.5s-.7-1.5-1.5-1.5h-7.5c-.8 0-1.5.7-1.5 1.5s.7 1.5 1.5 1.5zm25.6-16.5h-33.1c-3.3 0-6 2.7-6 6v54.1c0 3.3 2.7 6 6 6h42.1c3.3 0 6-2.7 6-6v-43.6l-15-16.5zm12 60.1c0 1.7-1.3 3-3 3h-42.1c-1.7 0-3-1.3-3-3V93.6c0-1.7 1.3-3 3-3h27.1v15c0 1.7 1.3 3 3 3h15v39.1zm-15-42.1v-15h1.5l13.5 15h-15zm-4.5 31.5h-18c-.8 0-1.5.7-1.5 1.5s.7 1.5 1.5 1.5h18c.8 0 1.5-.7 1.5-1.5s-.7-1.5-1.5-1.5zm9-12h-27.1c-.8 0-1.5.7-1.5 1.5s.7 1.5 1.5 1.5h27.1c.8 0 1.5-.7 1.5-1.5s-.7-1.5-1.5-1.5zm-28.6-10.5c0 .8.7 1.5 1.5 1.5h27.1c.8 0 1.5-.7 1.5-1.5s-.7-1.5-1.5-1.5h-27.1c-.8 0-1.5.7-1.5 1.5z"/><path class="st1" d="M107.1 103.6h7.5c.8 0 1.5-.7 1.5-1.5s-.7-1.5-1.5-1.5h-7.5c-.8 0-1.5.7-1.5 1.5s.7 1.5 1.5 1.5zm25.6-16.5H99.6c-3.3 0-6 2.7-6 6v54.1c0 3.3 2.7 6 6 6h42.1c3.3 0 6-2.7 6-6v-43.6l-15-16.5zm12 60.1c0 1.7-1.3 3-3 3H99.6c-1.7 0-3-1.3-3-3V93.1c0-1.7 1.3-3 3-3h27.1v15c0 1.7 1.3 3 3 3h15v39.1zm-15-42.1v-15h1.5l13.5 15h-15zm-4.5 31.5h-18c-.8 0-1.5.7-1.5 1.5s.7 1.5 1.5 1.5h18c.8 0 1.5-.7 1.5-1.5s-.7-1.5-1.5-1.5zm9-12h-27.1c-.8 0-1.5.7-1.5 1.5s.7 1.5 1.5 1.5h27.1c.8 0 1.5-.7 1.5-1.5s-.7-1.5-1.5-1.5zm-28.6-10.5c0 .8.7 1.5 1.5 1.5h27.1c.8 0 1.5-.7 1.5-1.5s-.7-1.5-1.5-1.5h-27.1c-.8 0-1.5.7-1.5 1.5z"/><path class="st1" d="M106.6 103.1h7.5c.8 0 1.5-.7 1.5-1.5s-.7-1.5-1.5-1.5h-7.5c-.8 0-1.5.7-1.5 1.5s.7 1.5 1.5 1.5zm25.6-16.5H99.1c-3.3 0-6 2.7-6 6v54.1c0 3.3 2.7 6 6 6h42.1c3.3 0 6-2.7 6-6v-43.6l-15-16.5zm12 60.1c0 1.7-1.3 3-3 3H99.1c-1.7 0-3-1.3-3-3V92.6c0-1.7 1.3-3 3-3h27.1v15c0 1.7 1.3 3 3 3h15v39.1zm-15-42.1v-15h1.5l13.5 15h-15zm-4.5 31.5h-18c-.8 0-1.5.7-1.5 1.5s.7 1.5 1.5 1.5h18c.8 0 1.5-.7 1.5-1.5s-.7-1.5-1.5-1.5zm9-12h-27.1c-.8 0-1.5.7-1.5 1.5s.7 1.5 1.5 1.5h27.1c.8 0 1.5-.7 1.5-1.5s-.7-1.5-1.5-1.5zm-28.6-10.5c0 .8.7 1.5 1.5 1.5h27.1c.8 0 1.5-.7 1.5-1.5s-.7-1.5-1.5-1.5h-27.1c-.8 0-1.5.7-1.5 1.5z"/><path class="st1" d="M106.1 102.6h7.5c.8 0 1.5-.7 1.5-1.5s-.7-1.5-1.5-1.5h-7.5c-.8 0-1.5.7-1.5 1.5s.7 1.5 1.5 1.5zm25.6-16.5H98.6c-3.3 0-6 2.7-6 6v54.1c0 3.3 2.7 6 6 6h42.1c3.3 0 6-2.7 6-6v-43.6l-15-16.5zm12 60.1c0 1.7-1.3 3-3 3H98.6c-1.7 0-3-1.3-3-3V92.1c0-1.7 1.3-3 3-3h27.1v15c0 1.7 1.3 3 3 3h15v39.1zm-15-42.1v-15h1.5l13.5 15h-15zm-4.5 31.5h-18c-.8 0-1.5.7-1.5 1.5s.7 1.5 1.5 1.5h18c.8 0 1.5-.7 1.5-1.5s-.7-1.5-1.5-1.5zm9-12h-27.1c-.8 0-1.5.7-1.5 1.5s.7 1.5 1.5 1.5h27.1c.8 0 1.5-.7 1.5-1.5s-.7-1.5-1.5-1.5zm-28.6-10.5c0 .8.7 1.5 1.5 1.5h27.1c.8 0 1.5-.7 1.5-1.5s-.7-1.5-1.5-1.5h-27.1c-.8 0-1.5.7-1.5 1.5z"/><path class="st1" d="M105.6 102.1h7.5c.8 0 1.5-.7 1.5-1.5s-.7-1.5-1.5-1.5h-7.5c-.8 0-1.5.7-1.5 1.5s.7 1.5 1.5 1.5zm25.6-16.5H98.1c-3.3 0-6 2.7-6 6v54.1c0 3.3 2.7 6 6 6h42.1c3.3 0 6-2.7 6-6v-43.6l-15-16.5zm12 60.1c0 1.7-1.3 3-3 3H98.1c-1.7 0-3-1.3-3-3V91.6c0-1.7 1.3-3 3-3h27.1v15c0 1.7 1.3 3 3 3h15v39.1zm-15-42.1v-15h1.5l13.5 15h-15zm-4.5 31.5h-18c-.8 0-1.5.7-1.5 1.5s.7 1.5 1.5 1.5h18c.8 0 1.5-.7 1.5-1.5s-.7-1.5-1.5-1.5zm9-12h-27.1c-.8 0-1.5.7-1.5 1.5s.7 1.5 1.5 1.5h27.1c.8 0 1.5-.7 1.5-1.5s-.7-1.5-1.5-1.5zm-28.6-10.5c0 .8.7 1.5 1.5 1.5h27.1c.8 0 1.5-.7 1.5-1.5s-.7-1.5-1.5-1.5h-27.1c-.8 0-1.5.7-1.5 1.5z"/><path class="st1" d="M105.1 101.6h7.5c.8 0 1.5-.7 1.5-1.5s-.7-1.5-1.5-1.5h-7.5c-.8 0-1.5.7-1.5 1.5s.7 1.5 1.5 1.5zm25.6-16.5H97.6c-3.3 0-6 2.7-6 6v54.1c0 3.3 2.7 6 6 6h42.1c3.3 0 6-2.7 6-6v-43.6l-15-16.5zm12 60.1c0 1.7-1.3 3-3 3H97.6c-1.7 0-3-1.3-3-3V91.1c0-1.7 1.3-3 3-3h27.1v15c0 1.7 1.3 3 3 3h15v39.1zm-15-42.1v-15h1.5l13.5 15h-15zm-4.5 31.5h-18c-.8 0-1.5.7-1.5 1.5s.7 1.5 1.5 1.5h18c.8 0 1.5-.7 1.5-1.5s-.7-1.5-1.5-1.5zm9-12h-27.1c-.8 0-1.5.7-1.5 1.5s.7 1.5 1.5 1.5h27.1c.8 0 1.5-.7 1.5-1.5s-.7-1.5-1.5-1.5zm-28.6-10.5c0 .8.7 1.5 1.5 1.5h27.1c.8 0 1.5-.7 1.5-1.5s-.7-1.5-1.5-1.5h-27.1c-.8 0-1.5.7-1.5 1.5z"/><path class="st1" d="M104.6 101.1h7.5c.8 0 1.5-.7 1.5-1.5s-.7-1.5-1.5-1.5h-7.5c-.8 0-1.5.7-1.5 1.5s.7 1.5 1.5 1.5zm25.6-16.5H97.1c-3.3 0-6 2.7-6 6v54.1c0 3.3 2.7 6 6 6h42.1c3.3 0 6-2.7 6-6v-43.6l-15-16.5zm12 60.1c0 1.7-1.3 3-3 3H97.1c-1.7 0-3-1.3-3-3V90.6c0-1.7 1.3-3 3-3h27.1v15c0 1.7 1.3 3 3 3h15v39.1zm-15-42.1v-15h1.5l13.5 15h-15zm-4.5 31.5h-18c-.8 0-1.5.7-1.5 1.5s.7 1.5 1.5 1.5h18c.8 0 1.5-.7 1.5-1.5s-.7-1.5-1.5-1.5zm9-12h-27.1c-.8 0-1.5.7-1.5 1.5s.7 1.5 1.5 1.5h27.1c.8 0 1.5-.7 1.5-1.5s-.7-1.5-1.5-1.5zm-28.6-10.5c0 .8.7 1.5 1.5 1.5h27.1c.8 0 1.5-.7 1.5-1.5s-.7-1.5-1.5-1.5h-27.1c-.8 0-1.5.7-1.5 1.5z"/><path class="st1" d="M104.1 100.6h7.5c.8 0 1.5-.7 1.5-1.5s-.7-1.5-1.5-1.5h-7.5c-.8 0-1.5.7-1.5 1.5s.7 1.5 1.5 1.5zm25.6-16.5H96.6c-3.3 0-6 2.7-6 6v54.1c0 3.3 2.7 6 6 6h42.1c3.3 0 6-2.7 6-6v-43.6l-15-16.5zm12 60.1c0 1.7-1.3 3-3 3H96.6c-1.7 0-3-1.3-3-3V90.1c0-1.7 1.3-3 3-3h27.1v15c0 1.7 1.3 3 3 3h15v39.1zm-15-42.1v-15h1.5l13.5 15h-15zm-4.5 31.5h-18c-.8 0-1.5.7-1.5 1.5s.7 1.5 1.5 1.5h18c.8 0 1.5-.7 1.5-1.5s-.7-1.5-1.5-1.5zm9-12h-27.1c-.8 0-1.5.7-1.5 1.5s.7 1.5 1.5 1.5h27.1c.8 0 1.5-.7 1.5-1.5s-.7-1.5-1.5-1.5zm-28.6-10.5c0 .8.7 1.5 1.5 1.5h27.1c.8 0 1.5-.7 1.5-1.5s-.7-1.5-1.5-1.5h-27.1c-.8 0-1.5.7-1.5 1.5z"/><path class="st1" d="M103.6 100.1h7.5c.8 0 1.5-.7 1.5-1.5s-.7-1.5-1.5-1.5h-7.5c-.8 0-1.5.7-1.5 1.5s.7 1.5 1.5 1.5zm25.6-16.5H96.1c-3.3 0-6 2.7-6 6v54.1c0 3.3 2.7 6 6 6h42.1c3.3 0 6-2.7 6-6v-43.6l-15-16.5zm12 60.1c0 1.7-1.3 3-3 3H96.1c-1.7 0-3-1.3-3-3V89.6c0-1.7 1.3-3 3-3h27.1v15c0 1.7 1.3 3 3 3h15v39.1zm-15-42.1v-15h1.5l13.5 15h-15zm-4.5 31.5h-18c-.8 0-1.5.7-1.5 1.5s.7 1.5 1.5 1.5h18c.8 0 1.5-.7 1.5-1.5s-.7-1.5-1.5-1.5zm9-12h-27.1c-.8 0-1.5.7-1.5 1.5s.7 1.5 1.5 1.5h27.1c.8 0 1.5-.7 1.5-1.5s-.7-1.5-1.5-1.5zm-28.6-10.5c0 .8.7 1.5 1.5 1.5h27.1c.8 0 1.5-.7 1.5-1.5s-.7-1.5-1.5-1.5h-27.1c-.8 0-1.5.7-1.5 1.5z"/><path class="st1" d="M103.1 99.6h7.5c.8 0 1.5-.7 1.5-1.5s-.7-1.5-1.5-1.5h-7.5c-.8 0-1.5.7-1.5 1.5s.7 1.5 1.5 1.5zm25.6-16.5H95.6c-3.3 0-6 2.7-6 6v54.1c0 3.3 2.7 6 6 6h42.1c3.3 0 6-2.7 6-6V99.6l-15-16.5zm12 60.1c0 1.7-1.3 3-3 3H95.6c-1.7 0-3-1.3-3-3V89.1c0-1.7 1.3-3 3-3h27.1v15c0 1.7 1.3 3 3 3h15v39.1zm-15-42.1v-15h1.5l13.5 15h-15zm-4.5 31.5h-18c-.8 0-1.5.7-1.5 1.5s.7 1.5 1.5 1.5h18c.8 0 1.5-.7 1.5-1.5s-.7-1.5-1.5-1.5zm9-12h-27.1c-.8 0-1.5.7-1.5 1.5s.7 1.5 1.5 1.5h27.1c.8 0 1.5-.7 1.5-1.5s-.7-1.5-1.5-1.5zm-28.6-10.5c0 .8.7 1.5 1.5 1.5h27.1c.8 0 1.5-.7 1.5-1.5s-.7-1.5-1.5-1.5h-27.1c-.8 0-1.5.7-1.5 1.5z"/><path class="st1" d="M102.6 99.1h7.5c.8 0 1.5-.7 1.5-1.5s-.7-1.5-1.5-1.5h-7.5c-.8 0-1.5.7-1.5 1.5s.7 1.5 1.5 1.5zm25.6-16.5H95.1c-3.3 0-6 2.7-6 6v54.1c0 3.3 2.7 6 6 6h42.1c3.3 0 6-2.7 6-6V99.1l-15-16.5zm12 60.1c0 1.7-1.3 3-3 3H95.1c-1.7 0-3-1.3-3-3V88.6c0-1.7 1.3-3 3-3h27.1v15c0 1.7 1.3 3 3 3h15v39.1zm-15-42.1v-15h1.5l13.5 15h-15zm-4.5 31.5h-18c-.8 0-1.5.7-1.5 1.5s.7 1.5 1.5 1.5h18c.8 0 1.5-.7 1.5-1.5s-.7-1.5-1.5-1.5zm9-12h-27.1c-.8 0-1.5.7-1.5 1.5s.7 1.5 1.5 1.5h27.1c.8 0 1.5-.7 1.5-1.5s-.7-1.5-1.5-1.5zm-28.6-10.5c0 .8.7 1.5 1.5 1.5h27.1c.8 0 1.5-.7 1.5-1.5s-.7-1.5-1.5-1.5h-27.1c-.8 0-1.5.7-1.5 1.5z"/><path class="st1" d="M102.1 98.6h7.5c.8 0 1.5-.7 1.5-1.5s-.7-1.5-1.5-1.5h-7.5c-.8 0-1.5.7-1.5 1.5s.7 1.5 1.5 1.5zm25.6-16.5H94.6c-3.3 0-6 2.7-6 6v54.1c0 3.3 2.7 6 6 6h42.1c3.3 0 6-2.7 6-6V98.6l-15-16.5zm12 60.1c0 1.7-1.3 3-3 3H94.6c-1.7 0-3-1.3-3-3V88.1c0-1.7 1.3-3 3-3h27.1v15c0 1.7 1.3 3 3 3h15v39.1zm-15-42.1v-15h1.5l13.5 15h-15zm-4.5 31.5h-18c-.8 0-1.5.7-1.5 1.5s.7 1.5 1.5 1.5h18c.8 0 1.5-.7 1.5-1.5s-.7-1.5-1.5-1.5zm9-12h-27.1c-.8 0-1.5.7-1.5 1.5s.7 1.5 1.5 1.5h27.1c.8 0 1.5-.7 1.5-1.5s-.7-1.5-1.5-1.5zm-28.6-10.5c0 .8.7 1.5 1.5 1.5h27.1c.8 0 1.5-.7 1.5-1.5s-.7-1.5-1.5-1.5h-27.1c-.8 0-1.5.7-1.5 1.5z"/><path class="st1" d="M101.6 98.1h7.5c.8 0 1.5-.7 1.5-1.5s-.7-1.5-1.5-1.5h-7.5c-.8 0-1.5.7-1.5 1.5s.7 1.5 1.5 1.5zm25.6-16.5H94.1c-3.3 0-6 2.7-6 6v54.1c0 3.3 2.7 6 6 6h42.1c3.3 0 6-2.7 6-6V98.1l-15-16.5zm12 60.1c0 1.7-1.3 3-3 3H94.1c-1.7 0-3-1.3-3-3V87.6c0-1.7 1.3-3 3-3h27.1v15c0 1.7 1.3 3 3 3h15v39.1zm-15-42.1v-15h1.5l13.5 15h-15zm-4.5 31.5h-18c-.8 0-1.5.7-1.5 1.5s.7 1.5 1.5 1.5h18c.8 0 1.5-.7 1.5-1.5s-.7-1.5-1.5-1.5zm9-12h-27.1c-.8 0-1.5.7-1.5 1.5s.7 1.5 1.5 1.5h27.1c.8 0 1.5-.7 1.5-1.5s-.7-1.5-1.5-1.5zm-28.6-10.5c0 .8.7 1.5 1.5 1.5h27.1c.8 0 1.5-.7 1.5-1.5s-.7-1.5-1.5-1.5h-27.1c-.8 0-1.5.7-1.5 1.5z"/><path class="st1" d="M101.1 97.6h7.5c.8 0 1.5-.7 1.5-1.5s-.7-1.5-1.5-1.5h-7.5c-.8 0-1.5.7-1.5 1.5s.7 1.5 1.5 1.5zm25.6-16.5H93.6c-3.3 0-6 2.7-6 6v54.1c0 3.3 2.7 6 6 6h42.1c3.3 0 6-2.7 6-6V97.6l-15-16.5zm12 60.1c0 1.7-1.3 3-3 3H93.6c-1.7 0-3-1.3-3-3V87.1c0-1.7 1.3-3 3-3h27.1v15c0 1.7 1.3 3 3 3h15v39.1zm-15-42.1v-15h1.5l13.5 15h-15zm-4.5 31.5h-18c-.8 0-1.5.7-1.5 1.5s.7 1.5 1.5 1.5h18c.8 0 1.5-.7 1.5-1.5s-.7-1.5-1.5-1.5zm9-12h-27.1c-.8 0-1.5.7-1.5 1.5s.7 1.5 1.5 1.5h27.1c.8 0 1.5-.7 1.5-1.5s-.7-1.5-1.5-1.5zm-28.6-10.5c0 .8.7 1.5 1.5 1.5h27.1c.8 0 1.5-.7 1.5-1.5s-.7-1.5-1.5-1.5h-27.1c-.8 0-1.5.7-1.5 1.5z"/><path class="st1" d="M100.6 97.1h7.5c.8 0 1.5-.7 1.5-1.5s-.7-1.5-1.5-1.5h-7.5c-.8 0-1.5.7-1.5 1.5s.7 1.5 1.5 1.5zm25.6-16.5H93.1c-3.3 0-6 2.7-6 6v54.1c0 3.3 2.7 6 6 6h42.1c3.3 0 6-2.7 6-6V97.1l-15-16.5zm12 60.1c0 1.7-1.3 3-3 3H93.1c-1.7 0-3-1.3-3-3V86.6c0-1.7 1.3-3 3-3h27.1v15c0 1.7 1.3 3 3 3h15v39.1zm-15-42.1v-15h1.5l13.5 15h-15zm-4.5 31.5h-18c-.8 0-1.5.7-1.5 1.5s.7 1.5 1.5 1.5h18c.8 0 1.5-.7 1.5-1.5s-.7-1.5-1.5-1.5zm9-12h-27.1c-.8 0-1.5.7-1.5 1.5s.7 1.5 1.5 1.5h27.1c.8 0 1.5-.7 1.5-1.5s-.7-1.5-1.5-1.5zm-28.6-10.5c0 .8.7 1.5 1.5 1.5h27.1c.8 0 1.5-.7 1.5-1.5s-.7-1.5-1.5-1.5h-27.1c-.8 0-1.5.7-1.5 1.5z"/><path class="st1" d="M100.1 96.6h7.5c.8 0 1.5-.7 1.5-1.5s-.7-1.5-1.5-1.5h-7.5c-.8 0-1.5.7-1.5 1.5s.7 1.5 1.5 1.5zm25.6-16.5H92.6c-3.3 0-6 2.7-6 6v54.1c0 3.3 2.7 6 6 6h42.1c3.3 0 6-2.7 6-6V96.6l-15-16.5zm12 60.1c0 1.7-1.3 3-3 3H92.6c-1.7 0-3-1.3-3-3V86.1c0-1.7 1.3-3 3-3h27.1v15c0 1.7 1.3 3 3 3h15v39.1zm-15-42.1v-15h1.5l13.5 15h-15zm-4.5 31.5h-18c-.8 0-1.5.7-1.5 1.5s.7 1.5 1.5 1.5h18c.8 0 1.5-.7 1.5-1.5s-.7-1.5-1.5-1.5zm9-12h-27.1c-.8 0-1.5.7-1.5 1.5s.7 1.5 1.5 1.5h27.1c.8 0 1.5-.7 1.5-1.5s-.7-1.5-1.5-1.5zm-28.6-10.5c0 .8.7 1.5 1.5 1.5h27.1c.8 0 1.5-.7 1.5-1.5s-.7-1.5-1.5-1.5h-27.1c-.8 0-1.5.7-1.5 1.5z"/><path class="st1" d="M99.6 96.1h7.5c.8 0 1.5-.7 1.5-1.5s-.7-1.5-1.5-1.5h-7.5c-.8 0-1.5.7-1.5 1.5s.7 1.5 1.5 1.5zm25.6-16.5H92.1c-3.3 0-6 2.7-6 6v54.1c0 3.3 2.7 6 6 6h42.1c3.3 0 6-2.7 6-6V96.1l-15-16.5zm12 60.1c0 1.7-1.3 3-3 3H92.1c-1.7 0-3-1.3-3-3V85.6c0-1.7 1.3-3 3-3h27.1v15c0 1.7 1.3 3 3 3h15v39.1zm-15-42.1v-15h1.5l13.5 15h-15zm-4.5 31.5h-18c-.8 0-1.5.7-1.5 1.5s.7 1.5 1.5 1.5h18c.8 0 1.5-.7 1.5-1.5s-.7-1.5-1.5-1.5zm9-12H99.6c-.8 0-1.5.7-1.5 1.5s.7 1.5 1.5 1.5h27.1c.8 0 1.5-.7 1.5-1.5s-.7-1.5-1.5-1.5zm-28.6-10.5c0 .8.7 1.5 1.5 1.5h27.1c.8 0 1.5-.7 1.5-1.5s-.7-1.5-1.5-1.5H99.6c-.8 0-1.5.7-1.5 1.5z"/><path class="st1" d="M99.1 95.6h7.5c.8 0 1.5-.7 1.5-1.5s-.7-1.5-1.5-1.5h-7.5c-.8 0-1.5.7-1.5 1.5s.7 1.5 1.5 1.5zm25.6-16.5H91.6c-3.3 0-6 2.7-6 6v54.1c0 3.3 2.7 6 6 6h42.1c3.3 0 6-2.7 6-6V95.6l-15-16.5zm12 60.1c0 1.7-1.3 3-3 3H91.6c-1.7 0-3-1.3-3-3V85.1c0-1.7 1.3-3 3-3h27.1v15c0 1.7 1.3 3 3 3h15v39.1zm-15-42.1v-15h1.5l13.5 15h-15zm-4.5 31.5h-18c-.8 0-1.5.7-1.5 1.5s.7 1.5 1.5 1.5h18c.8 0 1.5-.7 1.5-1.5s-.7-1.5-1.5-1.5zm9-12H99.1c-.8 0-1.5.7-1.5 1.5s.7 1.5 1.5 1.5h27.1c.8 0 1.5-.7 1.5-1.5s-.7-1.5-1.5-1.5zm-28.6-10.5c0 .8.7 1.5 1.5 1.5h27.1c.8 0 1.5-.7 1.5-1.5s-.7-1.5-1.5-1.5H99.1c-.8 0-1.5.7-1.5 1.5z"/><path class="st1" d="M98.6 95.1h7.5c.8 0 1.5-.7 1.5-1.5s-.7-1.5-1.5-1.5h-7.5c-.8 0-1.5.7-1.5 1.5s.7 1.5 1.5 1.5zm25.6-16.5H91.1c-3.3 0-6 2.7-6 6v54.1c0 3.3 2.7 6 6 6h42.1c3.3 0 6-2.7 6-6V95.1l-15-16.5zm12 60.1c0 1.7-1.3 3-3 3H91.1c-1.7 0-3-1.3-3-3V84.6c0-1.7 1.3-3 3-3h27.1v15c0 1.7 1.3 3 3 3h15v39.1zm-15-42.1v-15h1.5l13.5 15h-15zm-4.5 31.5h-18c-.8 0-1.5.7-1.5 1.5s.7 1.5 1.5 1.5h18c.8 0 1.5-.7 1.5-1.5s-.7-1.5-1.5-1.5zm9-12H98.6c-.8 0-1.5.7-1.5 1.5s.7 1.5 1.5 1.5h27.1c.8 0 1.5-.7 1.5-1.5s-.7-1.5-1.5-1.5zm-28.6-10.5c0 .8.7 1.5 1.5 1.5h27.1c.8 0 1.5-.7 1.5-1.5s-.7-1.5-1.5-1.5H98.6c-.8 0-1.5.7-1.5 1.5z"/><path class="st1" d="M98.1 94.6h7.5c.8 0 1.5-.7 1.5-1.5s-.7-1.5-1.5-1.5h-7.5c-.8 0-1.5.7-1.5 1.5s.7 1.5 1.5 1.5zm25.6-16.5H90.6c-3.3 0-6 2.7-6 6v54.1c0 3.3 2.7 6 6 6h42.1c3.3 0 6-2.7 6-6V94.6l-15-16.5zm12 60.1c0 1.7-1.3 3-3 3H90.6c-1.7 0-3-1.3-3-3V84.1c0-1.7 1.3-3 3-3h27.1v15c0 1.7 1.3 3 3 3h15v39.1zm-15-42.1v-15h1.5l13.5 15h-15zm-4.5 31.5h-18c-.8 0-1.5.7-1.5 1.5s.7 1.5 1.5 1.5h18c.8 0 1.5-.7 1.5-1.5s-.7-1.5-1.5-1.5zm9-12H98.1c-.8 0-1.5.7-1.5 1.5s.7 1.5 1.5 1.5h27.1c.8 0 1.5-.7 1.5-1.5s-.7-1.5-1.5-1.5zm-28.6-10.5c0 .8.7 1.5 1.5 1.5h27.1c.8 0 1.5-.7 1.5-1.5s-.7-1.5-1.5-1.5H98.1c-.8 0-1.5.7-1.5 1.5z"/><path class="st1" d="M97.6 94.1h7.5c.8 0 1.5-.7 1.5-1.5s-.7-1.5-1.5-1.5h-7.5c-.8 0-1.5.7-1.5 1.5s.7 1.5 1.5 1.5zm25.6-16.5H90.1c-3.3 0-6 2.7-6 6v54.1c0 3.3 2.7 6 6 6h42.1c3.3 0 6-2.7 6-6V94.1l-15-16.5zm12 60.1c0 1.7-1.3 3-3 3H90.1c-1.7 0-3-1.3-3-3V83.6c0-1.7 1.3-3 3-3h27.1v15c0 1.7 1.3 3 3 3h15v39.1zm-15-42.1v-15h1.5l13.5 15h-15zm-4.5 31.5h-18c-.8 0-1.5.7-1.5 1.5s.7 1.5 1.5 1.5h18c.8 0 1.5-.7 1.5-1.5s-.7-1.5-1.5-1.5zm9-12H97.6c-.8 0-1.5.7-1.5 1.5s.7 1.5 1.5 1.5h27.1c.8 0 1.5-.7 1.5-1.5s-.7-1.5-1.5-1.5zm-28.6-10.5c0 .8.7 1.5 1.5 1.5h27.1c.8 0 1.5-.7 1.5-1.5s-.7-1.5-1.5-1.5H97.6c-.8 0-1.5.7-1.5 1.5z"/><path class="st1" d="M97.1 93.6h7.5c.8 0 1.5-.7 1.5-1.5s-.7-1.5-1.5-1.5h-7.5c-.8 0-1.5.7-1.5 1.5s.7 1.5 1.5 1.5zm25.6-16.5H89.6c-3.3 0-6 2.7-6 6v54.1c0 3.3 2.7 6 6 6h42.1c3.3 0 6-2.7 6-6V93.6l-15-16.5zm12 60.1c0 1.7-1.3 3-3 3H89.6c-1.7 0-3-1.3-3-3V83.1c0-1.7 1.3-3 3-3h27.1v15c0 1.7 1.3 3 3 3h15v39.1zm-15-42.1v-15h1.5l13.5 15h-15zm-4.5 31.5h-18c-.8 0-1.5.7-1.5 1.5s.7 1.5 1.5 1.5h18c.8 0 1.5-.7 1.5-1.5s-.7-1.5-1.5-1.5zm9-12H97.1c-.8 0-1.5.7-1.5 1.5s.7 1.5 1.5 1.5h27.1c.8 0 1.5-.7 1.5-1.5s-.7-1.5-1.5-1.5zm-28.6-10.5c0 .8.7 1.5 1.5 1.5h27.1c.8 0 1.5-.7 1.5-1.5s-.7-1.5-1.5-1.5H97.1c-.8 0-1.5.7-1.5 1.5z"/><path class="st1" d="M96.6 93.1h7.5c.8 0 1.5-.7 1.5-1.5s-.7-1.5-1.5-1.5h-7.5c-.8 0-1.5.7-1.5 1.5s.7 1.5 1.5 1.5zm25.6-16.5H89.1c-3.3 0-6 2.7-6 6v54.1c0 3.3 2.7 6 6 6h42.1c3.3 0 6-2.7 6-6V93.1l-15-16.5zm12 60.1c0 1.7-1.3 3-3 3H89.1c-1.7 0-3-1.3-3-3V82.6c0-1.7 1.3-3 3-3h27.1v15c0 1.7 1.3 3 3 3h15v39.1zm-15-42.1v-15h1.5l13.5 15h-15zm-4.5 31.5h-18c-.8 0-1.5.7-1.5 1.5s.7 1.5 1.5 1.5h18c.8 0 1.5-.7 1.5-1.5s-.7-1.5-1.5-1.5zm9-12H96.6c-.8 0-1.5.7-1.5 1.5s.7 1.5 1.5 1.5h27.1c.8 0 1.5-.7 1.5-1.5s-.7-1.5-1.5-1.5zm-28.6-10.5c0 .8.7 1.5 1.5 1.5h27.1c.8 0 1.5-.7 1.5-1.5s-.7-1.5-1.5-1.5H96.6c-.8 0-1.5.7-1.5 1.5z"/><path class="st1" d="M96.1 92.6h7.5c.8 0 1.5-.7 1.5-1.5s-.7-1.5-1.5-1.5h-7.5c-.8 0-1.5.7-1.5 1.5s.7 1.5 1.5 1.5zm25.6-16.5H88.6c-3.3 0-6 2.7-6 6v54.1c0 3.3 2.7 6 6 6h42.1c3.3 0 6-2.7 6-6V92.6l-15-16.5zm12 60.1c0 1.7-1.3 3-3 3H88.6c-1.7 0-3-1.3-3-3V82.1c0-1.7 1.3-3 3-3h27.1v15c0 1.7 1.3 3 3 3h15v39.1zm-15-42.1v-15h1.5l13.5 15h-15zm-4.5 31.5h-18c-.8 0-1.5.7-1.5 1.5s.7 1.5 1.5 1.5h18c.8 0 1.5-.7 1.5-1.5s-.7-1.5-1.5-1.5zm9-12H96.1c-.8 0-1.5.7-1.5 1.5s.7 1.5 1.5 1.5h27.1c.8 0 1.5-.7 1.5-1.5s-.7-1.5-1.5-1.5zm-28.6-10.5c0 .8.7 1.5 1.5 1.5h27.1c.8 0 1.5-.7 1.5-1.5s-.7-1.5-1.5-1.5H96.1c-.8 0-1.5.7-1.5 1.5z"/><path class="st1" d="M95.6 92.1h7.5c.8 0 1.5-.7 1.5-1.5s-.7-1.5-1.5-1.5h-7.5c-.8 0-1.5.7-1.5 1.5s.7 1.5 1.5 1.5zm25.6-16.5H88.1c-3.3 0-6 2.7-6 6v54.1c0 3.3 2.7 6 6 6h42.1c3.3 0 6-2.7 6-6V92.1l-15-16.5zm12 60.1c0 1.7-1.3 3-3 3H88.1c-1.7 0-3-1.3-3-3V81.6c0-1.7 1.3-3 3-3h27.1v15c0 1.7 1.3 3 3 3h15v39.1zm-15-42.1v-15h1.5l13.5 15h-15zm-4.5 31.5h-18c-.8 0-1.5.7-1.5 1.5s.7 1.5 1.5 1.5h18c.8 0 1.5-.7 1.5-1.5s-.7-1.5-1.5-1.5zm9-12H95.6c-.8 0-1.5.7-1.5 1.5s.7 1.5 1.5 1.5h27.1c.8 0 1.5-.7 1.5-1.5s-.7-1.5-1.5-1.5zm-28.6-10.5c0 .8.7 1.5 1.5 1.5h27.1c.8 0 1.5-.7 1.5-1.5s-.7-1.5-1.5-1.5H95.6c-.8 0-1.5.7-1.5 1.5z"/><path class="st1" d="M95.1 91.6h7.5c.8 0 1.5-.7 1.5-1.5s-.7-1.5-1.5-1.5h-7.5c-.8 0-1.5.7-1.5 1.5s.7 1.5 1.5 1.5zm25.6-16.5H87.6c-3.3 0-6 2.7-6 6v54.1c0 3.3 2.7 6 6 6h42.1c3.3 0 6-2.7 6-6V91.6l-15-16.5zm12 60.1c0 1.7-1.3 3-3 3H87.6c-1.7 0-3-1.3-3-3V81.1c0-1.7 1.3-3 3-3h27.1v15c0 1.7 1.3 3 3 3h15v39.1zm-15-42.1v-15h1.5l13.5 15h-15zm-4.5 31.5h-18c-.8 0-1.5.7-1.5 1.5s.7 1.5 1.5 1.5h18c.8 0 1.5-.7 1.5-1.5s-.7-1.5-1.5-1.5zm9-12H95.1c-.8 0-1.5.7-1.5 1.5s.7 1.5 1.5 1.5h27.1c.8 0 1.5-.7 1.5-1.5s-.7-1.5-1.5-1.5zm-28.6-10.5c0 .8.7 1.5 1.5 1.5h27.1c.8 0 1.5-.7 1.5-1.5s-.7-1.5-1.5-1.5H95.1c-.8 0-1.5.7-1.5 1.5z"/><path class="st1" d="M94.6 91.1h7.5c.8 0 1.5-.7 1.5-1.5s-.7-1.5-1.5-1.5h-7.5c-.8 0-1.5.7-1.5 1.5s.7 1.5 1.5 1.5zm25.6-16.5H87.1c-3.3 0-6 2.7-6 6v54.1c0 3.3 2.7 6 6 6h42.1c3.3 0 6-2.7 6-6V91.1l-15-16.5zm12 60.1c0 1.7-1.3 3-3 3H87.1c-1.7 0-3-1.3-3-3V80.6c0-1.7 1.3-3 3-3h27.1v15c0 1.7 1.3 3 3 3h15v39.1zm-15-42.1v-15h1.5l13.5 15h-15zm-4.5 31.5h-18c-.8 0-1.5.7-1.5 1.5s.7 1.5 1.5 1.5h18c.8 0 1.5-.7 1.5-1.5s-.7-1.5-1.5-1.5zm9-12H94.6c-.8 0-1.5.7-1.5 1.5s.7 1.5 1.5 1.5h27.1c.8 0 1.5-.7 1.5-1.5s-.7-1.5-1.5-1.5zm-28.6-10.5c0 .8.7 1.5 1.5 1.5h27.1c.8 0 1.5-.7 1.5-1.5s-.7-1.5-1.5-1.5H94.6c-.8 0-1.5.7-1.5 1.5z"/><path class="st1" d="M94.1 90.6h7.5c.8 0 1.5-.7 1.5-1.5s-.7-1.5-1.5-1.5h-7.5c-.8 0-1.5.7-1.5 1.5s.7 1.5 1.5 1.5zm25.6-16.5H86.6c-3.3 0-6 2.7-6 6v54.1c0 3.3 2.7 6 6 6h42.1c3.3 0 6-2.7 6-6V90.6l-15-16.5zm12 60.1c0 1.7-1.3 3-3 3H86.6c-1.7 0-3-1.3-3-3V80.1c0-1.7 1.3-3 3-3h27.1v15c0 1.7 1.3 3 3 3h15v39.1zm-15-42.1v-15h1.5l13.5 15h-15zm-4.5 31.5h-18c-.8 0-1.5.7-1.5 1.5s.7 1.5 1.5 1.5h18c.8 0 1.5-.7 1.5-1.5s-.7-1.5-1.5-1.5zm9-12H94.1c-.8 0-1.5.7-1.5 1.5s.7 1.5 1.5 1.5h27.1c.8 0 1.5-.7 1.5-1.5s-.7-1.5-1.5-1.5zm-28.6-10.5c0 .8.7 1.5 1.5 1.5h27.1c.8 0 1.5-.7 1.5-1.5s-.7-1.5-1.5-1.5H94.1c-.8 0-1.5.7-1.5 1.5z"/><path class="st1" d="M93.6 90.1h7.5c.8 0 1.5-.7 1.5-1.5s-.7-1.5-1.5-1.5h-7.5c-.8 0-1.5.7-1.5 1.5s.7 1.5 1.5 1.5zm25.6-16.5H86.1c-3.3 0-6 2.7-6 6v54.1c0 3.3 2.7 6 6 6h42.1c3.3 0 6-2.7 6-6V90.1l-15-16.5zm12 60.1c0 1.7-1.3 3-3 3H86.1c-1.7 0-3-1.3-3-3V79.6c0-1.7 1.3-3 3-3h27.1v15c0 1.7 1.3 3 3 3h15v39.1zm-15-42.1v-15h1.5l13.5 15h-15zm-4.5 31.5h-18c-.8 0-1.5.7-1.5 1.5s.7 1.5 1.5 1.5h18c.8 0 1.5-.7 1.5-1.5s-.7-1.5-1.5-1.5zm9-12H93.6c-.8 0-1.5.7-1.5 1.5s.7 1.5 1.5 1.5h27.1c.8 0 1.5-.7 1.5-1.5s-.7-1.5-1.5-1.5zm-28.6-10.5c0 .8.7 1.5 1.5 1.5h27.1c.8 0 1.5-.7 1.5-1.5s-.7-1.5-1.5-1.5H93.6c-.8 0-1.5.7-1.5 1.5z"/><path class="st1" d="M93.1 89.6h7.5c.8 0 1.5-.7 1.5-1.5s-.7-1.5-1.5-1.5h-7.5c-.8 0-1.5.7-1.5 1.5s.7 1.5 1.5 1.5zm25.6-16.5H85.6c-3.3 0-6 2.7-6 6v54.1c0 3.3 2.7 6 6 6h42.1c3.3 0 6-2.7 6-6V89.6l-15-16.5zm12 60.1c0 1.7-1.3 3-3 3H85.6c-1.7 0-3-1.3-3-3V79.1c0-1.7 1.3-3 3-3h27.1v15c0 1.7 1.3 3 3 3h15v39.1zm-15-42.1v-15h1.5l13.5 15h-15zm-4.5 31.5h-18c-.8 0-1.5.7-1.5 1.5s.7 1.5 1.5 1.5h18c.8 0 1.5-.7 1.5-1.5s-.7-1.5-1.5-1.5zm9-12H93.1c-.8 0-1.5.7-1.5 1.5s.7 1.5 1.5 1.5h27.1c.8 0 1.5-.7 1.5-1.5s-.7-1.5-1.5-1.5zm-28.6-10.5c0 .8.7 1.5 1.5 1.5h27.1c.8 0 1.5-.7 1.5-1.5s-.7-1.5-1.5-1.5H93.1c-.8 0-1.5.7-1.5 1.5z"/><path class="st1" d="M92.6 89.1h7.5c.8 0 1.5-.7 1.5-1.5s-.7-1.5-1.5-1.5h-7.5c-.8 0-1.5.7-1.5 1.5s.7 1.5 1.5 1.5zm25.6-16.5H85.1c-3.3 0-6 2.7-6 6v54.1c0 3.3 2.7 6 6 6h42.1c3.3 0 6-2.7 6-6V89.1l-15-16.5zm12 60.1c0 1.7-1.3 3-3 3H85.1c-1.7 0-3-1.3-3-3V78.6c0-1.7 1.3-3 3-3h27.1v15c0 1.7 1.3 3 3 3h15v39.1zm-15-42.1v-15h1.5l13.5 15h-15zm-4.5 31.5h-18c-.8 0-1.5.7-1.5 1.5s.7 1.5 1.5 1.5h18c.8 0 1.5-.7 1.5-1.5s-.7-1.5-1.5-1.5zm9-12H92.6c-.8 0-1.5.7-1.5 1.5s.7 1.5 1.5 1.5h27.1c.8 0 1.5-.7 1.5-1.5s-.7-1.5-1.5-1.5zM91.1 99.6c0 .8.7 1.5 1.5 1.5h27.1c.8 0 1.5-.7 1.5-1.5s-.7-1.5-1.5-1.5H92.6c-.8 0-1.5.7-1.5 1.5z"/><path class="st1" d="M92.1 88.6h7.5c.8 0 1.5-.7 1.5-1.5s-.7-1.5-1.5-1.5h-7.5c-.8 0-1.5.7-1.5 1.5s.7 1.5 1.5 1.5zm25.6-16.5H84.6c-3.3 0-6 2.7-6 6v54.1c0 3.3 2.7 6 6 6h42.1c3.3 0 6-2.7 6-6V88.6l-15-16.5zm12 60.1c0 1.7-1.3 3-3 3H84.6c-1.7 0-3-1.3-3-3V78.1c0-1.7 1.3-3 3-3h27.1v15c0 1.7 1.3 3 3 3h15v39.1zm-15-42.1v-15h1.5l13.5 15h-15zm-4.5 31.5h-18c-.8 0-1.5.7-1.5 1.5s.7 1.5 1.5 1.5h18c.8 0 1.5-.7 1.5-1.5s-.7-1.5-1.5-1.5zm9-12H92.1c-.8 0-1.5.7-1.5 1.5s.7 1.5 1.5 1.5h27.1c.8 0 1.5-.7 1.5-1.5s-.7-1.5-1.5-1.5zM90.6 99.1c0 .8.7 1.5 1.5 1.5h27.1c.8 0 1.5-.7 1.5-1.5s-.7-1.5-1.5-1.5H92.1c-.8 0-1.5.7-1.5 1.5z"/><path class="st1" d="M91.6 88.1h7.5c.8 0 1.5-.7 1.5-1.5s-.7-1.5-1.5-1.5h-7.5c-.8 0-1.5.7-1.5 1.5s.7 1.5 1.5 1.5zm25.6-16.5H84.1c-3.3 0-6 2.7-6 6v54.1c0 3.3 2.7 6 6 6h42.1c3.3 0 6-2.7 6-6V88.1l-15-16.5zm12 60.1c0 1.7-1.3 3-3 3H84.1c-1.7 0-3-1.3-3-3V77.6c0-1.7 1.3-3 3-3h27.1v15c0 1.7 1.3 3 3 3h15v39.1zm-15-42.1v-15h1.5l13.5 15h-15zm-4.5 31.5h-18c-.8 0-1.5.7-1.5 1.5s.7 1.5 1.5 1.5h18c.8 0 1.5-.7 1.5-1.5s-.7-1.5-1.5-1.5zm9-12H91.6c-.8 0-1.5.7-1.5 1.5s.7 1.5 1.5 1.5h27.1c.8 0 1.5-.7 1.5-1.5s-.7-1.5-1.5-1.5zM90.1 98.6c0 .8.7 1.5 1.5 1.5h27.1c.8 0 1.5-.7 1.5-1.5s-.7-1.5-1.5-1.5H91.6c-.8 0-1.5.7-1.5 1.5z"/><path class="st1" d="M91.1 87.6h7.5c.8 0 1.5-.7 1.5-1.5s-.7-1.5-1.5-1.5h-7.5c-.8 0-1.5.7-1.5 1.5s.7 1.5 1.5 1.5zm25.6-16.5H83.6c-3.3 0-6 2.7-6 6v54.1c0 3.3 2.7 6 6 6h42.1c3.3 0 6-2.7 6-6V87.6l-15-16.5zm12 60.1c0 1.7-1.3 3-3 3H83.6c-1.7 0-3-1.3-3-3V77.1c0-1.7 1.3-3 3-3h27.1v15c0 1.7 1.3 3 3 3h15v39.1zm-15-42.1v-15h1.5l13.5 15h-15zm-4.5 31.5h-18c-.8 0-1.5.7-1.5 1.5s.7 1.5 1.5 1.5h18c.8 0 1.5-.7 1.5-1.5s-.7-1.5-1.5-1.5zm9-12H91.1c-.8 0-1.5.7-1.5 1.5s.7 1.5 1.5 1.5h27.1c.8 0 1.5-.7 1.5-1.5s-.7-1.5-1.5-1.5zM89.6 98.1c0 .8.7 1.5 1.5 1.5h27.1c.8 0 1.5-.7 1.5-1.5s-.7-1.5-1.5-1.5H91.1c-.8 0-1.5.7-1.5 1.5z"/><path class="st1" d="M90.6 87.1h7.5c.8 0 1.5-.7 1.5-1.5s-.7-1.5-1.5-1.5h-7.5c-.8 0-1.5.7-1.5 1.5s.7 1.5 1.5 1.5zm25.6-16.5H83.1c-3.3 0-6 2.7-6 6v54.1c0 3.3 2.7 6 6 6h42.1c3.3 0 6-2.7 6-6V87.1l-15-16.5zm12 60.1c0 1.7-1.3 3-3 3H83.1c-1.7 0-3-1.3-3-3V76.6c0-1.7 1.3-3 3-3h27.1v15c0 1.7 1.3 3 3 3h15v39.1zm-15-42.1v-15h1.5l13.5 15h-15zm-4.5 31.5h-18c-.8 0-1.5.7-1.5 1.5s.7 1.5 1.5 1.5h18c.8 0 1.5-.7 1.5-1.5s-.7-1.5-1.5-1.5zm9-12H90.6c-.8 0-1.5.7-1.5 1.5s.7 1.5 1.5 1.5h27.1c.8 0 1.5-.7 1.5-1.5s-.7-1.5-1.5-1.5zM89.1 97.6c0 .8.7 1.5 1.5 1.5h27.1c.8 0 1.5-.7 1.5-1.5s-.7-1.5-1.5-1.5H90.6c-.8 0-1.5.7-1.5 1.5z"/><path class="st1" d="M90.1 86.6h7.5c.8 0 1.5-.7 1.5-1.5s-.7-1.5-1.5-1.5h-7.5c-.8 0-1.5.7-1.5 1.5s.7 1.5 1.5 1.5zm25.6-16.5H82.6c-3.3 0-6 2.7-6 6v54.1c0 3.3 2.7 6 6 6h42.1c3.3 0 6-2.7 6-6V86.6l-15-16.5zm12 60.1c0 1.7-1.3 3-3 3H82.6c-1.7 0-3-1.3-3-3V76.1c0-1.7 1.3-3 3-3h27.1v15c0 1.7 1.3 3 3 3h15v39.1zm-15-42.1v-15h1.5l13.5 15h-15zm-4.5 31.5h-18c-.8 0-1.5.7-1.5 1.5s.7 1.5 1.5 1.5h18c.8 0 1.5-.7 1.5-1.5s-.7-1.5-1.5-1.5zm9-12H90.1c-.8 0-1.5.7-1.5 1.5s.7 1.5 1.5 1.5h27.1c.8 0 1.5-.7 1.5-1.5s-.7-1.5-1.5-1.5zM88.6 97.1c0 .8.7 1.5 1.5 1.5h27.1c.8 0 1.5-.7 1.5-1.5s-.7-1.5-1.5-1.5H90.1c-.8 0-1.5.7-1.5 1.5z"/><path class="st1" d="M89.6 86.1h7.5c.8 0 1.5-.7 1.5-1.5s-.7-1.5-1.5-1.5h-7.5c-.8 0-1.5.7-1.5 1.5s.7 1.5 1.5 1.5zm25.6-16.5H82.1c-3.3 0-6 2.7-6 6v54.1c0 3.3 2.7 6 6 6h42.1c3.3 0 6-2.7 6-6V86.1l-15-16.5zm12 60.1c0 1.7-1.3 3-3 3H82.1c-1.7 0-3-1.3-3-3V75.6c0-1.7 1.3-3 3-3h27.1v15c0 1.7 1.3 3 3 3h15v39.1zm-15-42.1v-15h1.5l13.5 15h-15zm-4.5 31.5h-18c-.8 0-1.5.7-1.5 1.5s.7 1.5 1.5 1.5h18c.8 0 1.5-.7 1.5-1.5s-.7-1.5-1.5-1.5zm9-12H89.6c-.8 0-1.5.7-1.5 1.5s.7 1.5 1.5 1.5h27.1c.8 0 1.5-.7 1.5-1.5s-.7-1.5-1.5-1.5zM88.1 96.6c0 .8.7 1.5 1.5 1.5h27.1c.8 0 1.5-.7 1.5-1.5s-.7-1.5-1.5-1.5H89.6c-.8 0-1.5.7-1.5 1.5z"/><path class="st1" d="M89.1 85.6h7.5c.8 0 1.5-.7 1.5-1.5s-.7-1.5-1.5-1.5h-7.5c-.8 0-1.5.7-1.5 1.5s.7 1.5 1.5 1.5zm25.6-16.5H81.6c-3.3 0-6 2.7-6 6v54.1c0 3.3 2.7 6 6 6h42.1c3.3 0 6-2.7 6-6V85.6l-15-16.5zm12 60.1c0 1.7-1.3 3-3 3H81.6c-1.7 0-3-1.3-3-3V75.1c0-1.7 1.3-3 3-3h27.1v15c0 1.7 1.3 3 3 3h15v39.1zm-15-42.1v-15h1.5l13.5 15h-15zm-4.5 31.5h-18c-.8 0-1.5.7-1.5 1.5s.7 1.5 1.5 1.5h18c.8 0 1.5-.7 1.5-1.5s-.7-1.5-1.5-1.5zm9-12H89.1c-.8 0-1.5.7-1.5 1.5s.7 1.5 1.5 1.5h27.1c.8 0 1.5-.7 1.5-1.5s-.7-1.5-1.5-1.5zM87.6 96.1c0 .8.7 1.5 1.5 1.5h27.1c.8 0 1.5-.7 1.5-1.5s-.7-1.5-1.5-1.5H89.1c-.8 0-1.5.7-1.5 1.5z"/><path class="st1" d="M88.6 85.1h7.5c.8 0 1.5-.7 1.5-1.5s-.7-1.5-1.5-1.5h-7.5c-.8 0-1.5.7-1.5 1.5s.7 1.5 1.5 1.5zm25.6-16.5H81.1c-3.3 0-6 2.7-6 6v54.1c0 3.3 2.7 6 6 6h42.1c3.3 0 6-2.7 6-6V85.1l-15-16.5zm12 60.1c0 1.7-1.3 3-3 3H81.1c-1.7 0-3-1.3-3-3V74.6c0-1.7 1.3-3 3-3h27.1v15c0 1.7 1.3 3 3 3h15v39.1zm-15-42.1v-15h1.5l13.5 15h-15zm-4.5 31.5h-18c-.8 0-1.5.7-1.5 1.5s.7 1.5 1.5 1.5h18c.8 0 1.5-.7 1.5-1.5s-.7-1.5-1.5-1.5zm9-12H88.6c-.8 0-1.5.7-1.5 1.5s.7 1.5 1.5 1.5h27.1c.8 0 1.5-.7 1.5-1.5s-.7-1.5-1.5-1.5zM87.1 95.6c0 .8.7 1.5 1.5 1.5h27.1c.8 0 1.5-.7 1.5-1.5s-.7-1.5-1.5-1.5H88.6c-.8 0-1.5.7-1.5 1.5z"/><path class="st1" d="M88.1 84.6h7.5c.8 0 1.5-.7 1.5-1.5s-.7-1.5-1.5-1.5h-7.5c-.8 0-1.5.7-1.5 1.5s.7 1.5 1.5 1.5zm25.6-16.5H80.6c-3.3 0-6 2.7-6 6v54.1c0 3.3 2.7 6 6 6h42.1c3.3 0 6-2.7 6-6V84.6l-15-16.5zm12 60.1c0 1.7-1.3 3-3 3H80.6c-1.7 0-3-1.3-3-3V74.1c0-1.7 1.3-3 3-3h27.1v15c0 1.7 1.3 3 3 3h15v39.1zm-15-42.1v-15h1.5l13.5 15h-15zm-4.5 31.5h-18c-.8 0-1.5.7-1.5 1.5s.7 1.5 1.5 1.5h18c.8 0 1.5-.7 1.5-1.5s-.7-1.5-1.5-1.5zm9-12H88.1c-.8 0-1.5.7-1.5 1.5s.7 1.5 1.5 1.5h27.1c.8 0 1.5-.7 1.5-1.5s-.7-1.5-1.5-1.5zM86.6 95.1c0 .8.7 1.5 1.5 1.5h27.1c.8 0 1.5-.7 1.5-1.5s-.7-1.5-1.5-1.5H88.1c-.8 0-1.5.7-1.5 1.5z"/><path class="st1" d="M87.6 84.1h7.5c.8 0 1.5-.7 1.5-1.5s-.7-1.5-1.5-1.5h-7.5c-.8 0-1.5.7-1.5 1.5s.7 1.5 1.5 1.5zm25.6-16.5H80.1c-3.3 0-6 2.7-6 6v54.1c0 3.3 2.7 6 6 6h42.1c3.3 0 6-2.7 6-6V84.1l-15-16.5zm12 60.1c0 1.7-1.3 3-3 3H80.1c-1.7 0-3-1.3-3-3V73.6c0-1.7 1.3-3 3-3h27.1v15c0 1.7 1.3 3 3 3h15v39.1zm-15-42.1v-15h1.5l13.5 15h-15zm-4.5 31.5h-18c-.8 0-1.5.7-1.5 1.5s.7 1.5 1.5 1.5h18c.8 0 1.5-.7 1.5-1.5s-.7-1.5-1.5-1.5zm9-12H87.6c-.8 0-1.5.7-1.5 1.5s.7 1.5 1.5 1.5h27.1c.8 0 1.5-.7 1.5-1.5s-.7-1.5-1.5-1.5zM86.1 94.6c0 .8.7 1.5 1.5 1.5h27.1c.8 0 1.5-.7 1.5-1.5s-.7-1.5-1.5-1.5H87.6c-.8 0-1.5.7-1.5 1.5z"/><path class="st1" d="M87.1 83.6h7.5c.8 0 1.5-.7 1.5-1.5s-.7-1.5-1.5-1.5h-7.5c-.8 0-1.5.7-1.5 1.5s.7 1.5 1.5 1.5zm25.6-16.5H79.6c-3.3 0-6 2.7-6 6v54.1c0 3.3 2.7 6 6 6h42.1c3.3 0 6-2.7 6-6V83.6l-15-16.5zm12 60.1c0 1.7-1.3 3-3 3H79.6c-1.7 0-3-1.3-3-3V73.1c0-1.7 1.3-3 3-3h27.1v15c0 1.7 1.3 3 3 3h15v39.1zm-15-42.1v-15h1.5l13.5 15h-15zm-4.5 31.5h-18c-.8 0-1.5.7-1.5 1.5s.7 1.5 1.5 1.5h18c.8 0 1.5-.7 1.5-1.5s-.7-1.5-1.5-1.5zm9-12H87.1c-.8 0-1.5.7-1.5 1.5s.7 1.5 1.5 1.5h27.1c.8 0 1.5-.7 1.5-1.5s-.7-1.5-1.5-1.5zM85.6 94.1c0 .8.7 1.5 1.5 1.5h27.1c.8 0 1.5-.7 1.5-1.5s-.7-1.5-1.5-1.5H87.1c-.8 0-1.5.7-1.5 1.5z"/><path class="st1" d="M86.6 83.1h7.5c.8 0 1.5-.7 1.5-1.5s-.7-1.5-1.5-1.5h-7.5c-.8 0-1.5.7-1.5 1.5s.7 1.5 1.5 1.5zm25.6-16.5H79.1c-3.3 0-6 2.7-6 6v54.1c0 3.3 2.7 6 6 6h42.1c3.3 0 6-2.7 6-6V83.1l-15-16.5zm12 60.1c0 1.7-1.3 3-3 3H79.1c-1.7 0-3-1.3-3-3V72.6c0-1.7 1.3-3 3-3h27.1v15c0 1.7 1.3 3 3 3h15v39.1zm-15-42.1v-15h1.5l13.5 15h-15zm-4.5 31.5h-18c-.8 0-1.5.7-1.5 1.5s.7 1.5 1.5 1.5h18c.8 0 1.5-.7 1.5-1.5s-.7-1.5-1.5-1.5zm9-12H86.6c-.8 0-1.5.7-1.5 1.5s.7 1.5 1.5 1.5h27.1c.8 0 1.5-.7 1.5-1.5s-.7-1.5-1.5-1.5zM85.1 93.6c0 .8.7 1.5 1.5 1.5h27.1c.8 0 1.5-.7 1.5-1.5s-.7-1.5-1.5-1.5H86.6c-.8 0-1.5.7-1.5 1.5z"/><path class="st1" d="M86.1 82.6h7.5c.8 0 1.5-.7 1.5-1.5s-.7-1.5-1.5-1.5h-7.5c-.8 0-1.5.7-1.5 1.5s.7 1.5 1.5 1.5zm25.6-16.5H78.6c-3.3 0-6 2.7-6 6v54.1c0 3.3 2.7 6 6 6h42.1c3.3 0 6-2.7 6-6V82.6l-15-16.5zm12 60.1c0 1.7-1.3 3-3 3H78.6c-1.7 0-3-1.3-3-3V72.1c0-1.7 1.3-3 3-3h27.1v15c0 1.7 1.3 3 3 3h15v39.1zm-15-42.1v-15h1.5l13.5 15h-15zm-4.5 31.5h-18c-.8 0-1.5.7-1.5 1.5s.7 1.5 1.5 1.5h18c.8 0 1.5-.7 1.5-1.5s-.7-1.5-1.5-1.5zm9-12H86.1c-.8 0-1.5.7-1.5 1.5s.7 1.5 1.5 1.5h27.1c.8 0 1.5-.7 1.5-1.5s-.7-1.5-1.5-1.5zM84.6 93.1c0 .8.7 1.5 1.5 1.5h27.1c.8 0 1.5-.7 1.5-1.5s-.7-1.5-1.5-1.5H86.1c-.8 0-1.5.7-1.5 1.5z"/><path class="st1" d="M85.6 82.1h7.5c.8 0 1.5-.7 1.5-1.5s-.7-1.5-1.5-1.5h-7.5c-.8 0-1.5.7-1.5 1.5s.7 1.5 1.5 1.5zm25.6-16.5H78.1c-3.3 0-6 2.7-6 6v54.1c0 3.3 2.7 6 6 6h42.1c3.3 0 6-2.7 6-6V82.1l-15-16.5zm12 60.1c0 1.7-1.3 3-3 3H78.1c-1.7 0-3-1.3-3-3V71.6c0-1.7 1.3-3 3-3h27.1v15c0 1.7 1.3 3 3 3h15v39.1zm-15-42.1v-15h1.5l13.5 15h-15zm-4.5 31.5h-18c-.8 0-1.5.7-1.5 1.5s.7 1.5 1.5 1.5h18c.8 0 1.5-.7 1.5-1.5s-.7-1.5-1.5-1.5zm9-12H85.6c-.8 0-1.5.7-1.5 1.5s.7 1.5 1.5 1.5h27.1c.8 0 1.5-.7 1.5-1.5s-.7-1.5-1.5-1.5zM84.1 92.6c0 .8.7 1.5 1.5 1.5h27.1c.8 0 1.5-.7 1.5-1.5s-.7-1.5-1.5-1.5H85.6c-.8 0-1.5.7-1.5 1.5z"/><path class="st1" d="M85.1 81.6h7.5c.8 0 1.5-.7 1.5-1.5s-.7-1.5-1.5-1.5h-7.5c-.8 0-1.5.7-1.5 1.5s.7 1.5 1.5 1.5zm25.6-16.5H77.6c-3.3 0-6 2.7-6 6v54.1c0 3.3 2.7 6 6 6h42.1c3.3 0 6-2.7 6-6V81.6l-15-16.5zm12 60.1c0 1.7-1.3 3-3 3H77.6c-1.7 0-3-1.3-3-3V71.1c0-1.7 1.3-3 3-3h27.1v15c0 1.7 1.3 3 3 3h15v39.1zm-15-42.1v-15h1.5l13.5 15h-15zm-4.5 31.5h-18c-.8 0-1.5.7-1.5 1.5s.7 1.5 1.5 1.5h18c.8 0 1.5-.7 1.5-1.5s-.7-1.5-1.5-1.5zm9-12H85.1c-.8 0-1.5.7-1.5 1.5s.7 1.5 1.5 1.5h27.1c.8 0 1.5-.7 1.5-1.5s-.7-1.5-1.5-1.5zM83.6 92.1c0 .8.7 1.5 1.5 1.5h27.1c.8 0 1.5-.7 1.5-1.5s-.7-1.5-1.5-1.5H85.1c-.8 0-1.5.7-1.5 1.5z"/><path class="st1" d="M84.6 81.1h7.5c.8 0 1.5-.7 1.5-1.5s-.7-1.5-1.5-1.5h-7.5c-.8 0-1.5.7-1.5 1.5s.7 1.5 1.5 1.5zm25.6-16.5H77.1c-3.3 0-6 2.7-6 6v54.1c0 3.3 2.7 6 6 6h42.1c3.3 0 6-2.7 6-6V81.1l-15-16.5zm12 60.1c0 1.7-1.3 3-3 3H77.1c-1.7 0-3-1.3-3-3V70.6c0-1.7 1.3-3 3-3h27.1v15c0 1.7 1.3 3 3 3h15v39.1zm-15-42.1v-15h1.5l13.5 15h-15zm-4.5 31.5h-18c-.8 0-1.5.7-1.5 1.5s.7 1.5 1.5 1.5h18c.8 0 1.5-.7 1.5-1.5s-.7-1.5-1.5-1.5zm9-12H84.6c-.8 0-1.5.7-1.5 1.5s.7 1.5 1.5 1.5h27.1c.8 0 1.5-.7 1.5-1.5s-.7-1.5-1.5-1.5zM83.1 91.6c0 .8.7 1.5 1.5 1.5h27.1c.8 0 1.5-.7 1.5-1.5s-.7-1.5-1.5-1.5H84.6c-.8 0-1.5.7-1.5 1.5z"/><path class="st1" d="M84.1 80.6h7.5c.8 0 1.5-.7 1.5-1.5s-.7-1.5-1.5-1.5h-7.5c-.8 0-1.5.7-1.5 1.5s.7 1.5 1.5 1.5zm25.6-16.5H76.6c-3.3 0-6 2.7-6 6v54.1c0 3.3 2.7 6 6 6h42.1c3.3 0 6-2.7 6-6V80.6l-15-16.5zm12 60.1c0 1.7-1.3 3-3 3H76.6c-1.7 0-3-1.3-3-3V70.1c0-1.7 1.3-3 3-3h27.1v15c0 1.7 1.3 3 3 3h15v39.1zm-15-42.1v-15h1.5l13.5 15h-15zm-4.5 31.5h-18c-.8 0-1.5.7-1.5 1.5s.7 1.5 1.5 1.5h18c.8 0 1.5-.7 1.5-1.5s-.7-1.5-1.5-1.5zm9-12H84.1c-.8 0-1.5.7-1.5 1.5s.7 1.5 1.5 1.5h27.1c.8 0 1.5-.7 1.5-1.5s-.7-1.5-1.5-1.5zM82.6 91.1c0 .8.7 1.5 1.5 1.5h27.1c.8 0 1.5-.7 1.5-1.5s-.7-1.5-1.5-1.5H84.1c-.8 0-1.5.7-1.5 1.5z"/><path class="st1" d="M83.6 80.1h7.5c.8 0 1.5-.7 1.5-1.5s-.7-1.5-1.5-1.5h-7.5c-.8 0-1.5.7-1.5 1.5s.7 1.5 1.5 1.5zm25.6-16.5H76.1c-3.3 0-6 2.7-6 6v54.1c0 3.3 2.7 6 6 6h42.1c3.3 0 6-2.7 6-6V80.1l-15-16.5zm12 60.1c0 1.7-1.3 3-3 3H76.1c-1.7 0-3-1.3-3-3V69.6c0-1.7 1.3-3 3-3h27.1v15c0 1.7 1.3 3 3 3h15v39.1zm-15-42.1v-15h1.5l13.5 15h-15zm-4.5 31.5h-18c-.8 0-1.5.7-1.5 1.5s.7 1.5 1.5 1.5h18c.8 0 1.5-.7 1.5-1.5s-.7-1.5-1.5-1.5zm9-12H83.6c-.8 0-1.5.7-1.5 1.5s.7 1.5 1.5 1.5h27.1c.8 0 1.5-.7 1.5-1.5s-.7-1.5-1.5-1.5zM82.1 90.6c0 .8.7 1.5 1.5 1.5h27.1c.8 0 1.5-.7 1.5-1.5s-.7-1.5-1.5-1.5H83.6c-.8 0-1.5.7-1.5 1.5z"/><path class="st1" d="M83.1 79.6h7.5c.8 0 1.5-.7 1.5-1.5s-.7-1.5-1.5-1.5h-7.5c-.8 0-1.5.7-1.5 1.5s.7 1.5 1.5 1.5zm25.6-16.5H75.6c-3.3 0-6 2.7-6 6v54.1c0 3.3 2.7 6 6 6h42.1c3.3 0 6-2.7 6-6V79.6l-15-16.5zm12 60.1c0 1.7-1.3 3-3 3H75.6c-1.7 0-3-1.3-3-3V69.1c0-1.7 1.3-3 3-3h27.1v15c0 1.7 1.3 3 3 3h15v39.1zm-15-42.1v-15h1.5l13.5 15h-15zm-4.5 31.5h-18c-.8 0-1.5.7-1.5 1.5s.7 1.5 1.5 1.5h18c.8 0 1.5-.7 1.5-1.5s-.7-1.5-1.5-1.5zm9-12H83.1c-.8 0-1.5.7-1.5 1.5s.7 1.5 1.5 1.5h27.1c.8 0 1.5-.7 1.5-1.5s-.7-1.5-1.5-1.5zM81.6 90.1c0 .8.7 1.5 1.5 1.5h27.1c.8 0 1.5-.7 1.5-1.5s-.7-1.5-1.5-1.5H83.1c-.8 0-1.5.7-1.5 1.5z"/><path class="st1" d="M82.6 79.1h7.5c.8 0 1.5-.7 1.5-1.5s-.7-1.5-1.5-1.5h-7.5c-.8 0-1.5.7-1.5 1.5s.7 1.5 1.5 1.5zm25.6-16.5H75.1c-3.3 0-6 2.7-6 6v54.1c0 3.3 2.7 6 6 6h42.1c3.3 0 6-2.7 6-6V79.1l-15-16.5zm12 60.1c0 1.7-1.3 3-3 3H75.1c-1.7 0-3-1.3-3-3V68.6c0-1.7 1.3-3 3-3h27.1v15c0 1.7 1.3 3 3 3h15v39.1zm-15-42.1v-15h1.5l13.5 15h-15zm-4.5 31.5h-18c-.8 0-1.5.7-1.5 1.5s.7 1.5 1.5 1.5h18c.8 0 1.5-.7 1.5-1.5s-.7-1.5-1.5-1.5zm9-12H82.6c-.8 0-1.5.7-1.5 1.5s.7 1.5 1.5 1.5h27.1c.8 0 1.5-.7 1.5-1.5s-.7-1.5-1.5-1.5zM81.1 89.6c0 .8.7 1.5 1.5 1.5h27.1c.8 0 1.5-.7 1.5-1.5s-.7-1.5-1.5-1.5H82.6c-.8 0-1.5.7-1.5 1.5z"/><path class="st1" d="M82.1 78.6h7.5c.8 0 1.5-.7 1.5-1.5s-.7-1.5-1.5-1.5h-7.5c-.8 0-1.5.7-1.5 1.5s.7 1.5 1.5 1.5zm25.6-16.5H74.6c-3.3 0-6 2.7-6 6v54.1c0 3.3 2.7 6 6 6h42.1c3.3 0 6-2.7 6-6V78.6l-15-16.5zm12 60.1c0 1.7-1.3 3-3 3H74.6c-1.7 0-3-1.3-3-3V68.1c0-1.7 1.3-3 3-3h27.1v15c0 1.7 1.3 3 3 3h15v39.1zm-15-42.1v-15h1.5l13.5 15h-15zm-4.5 31.5h-18c-.8 0-1.5.7-1.5 1.5s.7 1.5 1.5 1.5h18c.8 0 1.5-.7 1.5-1.5s-.7-1.5-1.5-1.5zm9-12H82.1c-.8 0-1.5.7-1.5 1.5s.7 1.5 1.5 1.5h27.1c.8 0 1.5-.7 1.5-1.5s-.7-1.5-1.5-1.5zM80.6 89.1c0 .8.7 1.5 1.5 1.5h27.1c.8 0 1.5-.7 1.5-1.5s-.7-1.5-1.5-1.5H82.1c-.8 0-1.5.7-1.5 1.5z"/><path class="st1" d="M81.6 78.1h7.5c.8 0 1.5-.7 1.5-1.5s-.7-1.5-1.5-1.5h-7.5c-.8 0-1.5.7-1.5 1.5s.7 1.5 1.5 1.5zm25.6-16.5H74.1c-3.3 0-6 2.7-6 6v54.1c0 3.3 2.7 6 6 6h42.1c3.3 0 6-2.7 6-6V78.1l-15-16.5zm12 60.1c0 1.7-1.3 3-3 3H74.1c-1.7 0-3-1.3-3-3V67.6c0-1.7 1.3-3 3-3h27.1v15c0 1.7 1.3 3 3 3h15v39.1zm-15-42.1v-15h1.5l13.5 15h-15zm-4.5 31.5h-18c-.8 0-1.5.7-1.5 1.5s.7 1.5 1.5 1.5h18c.8 0 1.5-.7 1.5-1.5s-.7-1.5-1.5-1.5zm9-12H81.6c-.8 0-1.5.7-1.5 1.5s.7 1.5 1.5 1.5h27.1c.8 0 1.5-.7 1.5-1.5s-.7-1.5-1.5-1.5zM80.1 88.6c0 .8.7 1.5 1.5 1.5h27.1c.8 0 1.5-.7 1.5-1.5s-.7-1.5-1.5-1.5H81.6c-.8 0-1.5.7-1.5 1.5z"/><path class="st1" d="M81.1 77.6h7.5c.8 0 1.5-.7 1.5-1.5s-.7-1.5-1.5-1.5h-7.5c-.8 0-1.5.7-1.5 1.5s.7 1.5 1.5 1.5zm25.6-16.5H73.6c-3.3 0-6 2.7-6 6v54.1c0 3.3 2.7 6 6 6h42.1c3.3 0 6-2.7 6-6V77.6l-15-16.5zm12 60.1c0 1.7-1.3 3-3 3H73.6c-1.7 0-3-1.3-3-3V67.1c0-1.7 1.3-3 3-3h27.1v15c0 1.7 1.3 3 3 3h15v39.1zm-15-42.1v-15h1.5l13.5 15h-15zm-4.5 31.5h-18c-.8 0-1.5.7-1.5 1.5s.7 1.5 1.5 1.5h18c.8 0 1.5-.7 1.5-1.5s-.7-1.5-1.5-1.5zm9-12H81.1c-.8 0-1.5.7-1.5 1.5s.7 1.5 1.5 1.5h27.1c.8 0 1.5-.7 1.5-1.5s-.7-1.5-1.5-1.5zM79.6 88.1c0 .8.7 1.5 1.5 1.5h27.1c.8 0 1.5-.7 1.5-1.5s-.7-1.5-1.5-1.5H81.1c-.8 0-1.5.7-1.5 1.5z"/><path class="st1" d="M80.6 77.1h7.5c.8 0 1.5-.7 1.5-1.5s-.7-1.5-1.5-1.5h-7.5c-.8 0-1.5.7-1.5 1.5s.7 1.5 1.5 1.5zm25.6-16.5H73.1c-3.3 0-6 2.7-6 6v54.1c0 3.3 2.7 6 6 6h42.1c3.3 0 6-2.7 6-6V77.1l-15-16.5zm12 60.1c0 1.7-1.3 3-3 3H73.1c-1.7 0-3-1.3-3-3V66.6c0-1.7 1.3-3 3-3h27.1v15c0 1.7 1.3 3 3 3h15v39.1zm-15-42.1v-15h1.5l13.5 15h-15zm-4.5 31.5h-18c-.8 0-1.5.7-1.5 1.5s.7 1.5 1.5 1.5h18c.8 0 1.5-.7 1.5-1.5s-.7-1.5-1.5-1.5zm9-12H80.6c-.8 0-1.5.7-1.5 1.5s.7 1.5 1.5 1.5h27.1c.8 0 1.5-.7 1.5-1.5s-.7-1.5-1.5-1.5zM79.1 87.6c0 .8.7 1.5 1.5 1.5h27.1c.8 0 1.5-.7 1.5-1.5s-.7-1.5-1.5-1.5H80.6c-.8 0-1.5.7-1.5 1.5z"/><path class="st1" d="M80.1 76.6h7.5c.8 0 1.5-.7 1.5-1.5s-.7-1.5-1.5-1.5h-7.5c-.8 0-1.5.7-1.5 1.5s.7 1.5 1.5 1.5zm25.6-16.5H72.6c-3.3 0-6 2.7-6 6v54.1c0 3.3 2.7 6 6 6h42.1c3.3 0 6-2.7 6-6V76.6l-15-16.5zm12 60.1c0 1.7-1.3 3-3 3H72.6c-1.7 0-3-1.3-3-3V66.1c0-1.7 1.3-3 3-3h27.1v15c0 1.7 1.3 3 3 3h15v39.1zm-15-42.1v-15h1.5l13.5 15h-15zm-4.5 31.5h-18c-.8 0-1.5.7-1.5 1.5s.7 1.5 1.5 1.5h18c.8 0 1.5-.7 1.5-1.5s-.7-1.5-1.5-1.5zm9-12H80.1c-.8 0-1.5.7-1.5 1.5s.7 1.5 1.5 1.5h27.1c.8 0 1.5-.7 1.5-1.5s-.7-1.5-1.5-1.5zM78.6 87.1c0 .8.7 1.5 1.5 1.5h27.1c.8 0 1.5-.7 1.5-1.5s-.7-1.5-1.5-1.5H80.1c-.8 0-1.5.7-1.5 1.5z"/><path class="st1" d="M79.6 76.1h7.5c.8 0 1.5-.7 1.5-1.5s-.7-1.5-1.5-1.5h-7.5c-.8 0-1.5.7-1.5 1.5s.7 1.5 1.5 1.5zm25.6-16.5H72.1c-3.3 0-6 2.7-6 6v54.1c0 3.3 2.7 6 6 6h42.1c3.3 0 6-2.7 6-6V76.1l-15-16.5zm12 60.1c0 1.7-1.3 3-3 3H72.1c-1.7 0-3-1.3-3-3V65.6c0-1.7 1.3-3 3-3h27.1v15c0 1.7 1.3 3 3 3h15v39.1zm-15-42.1v-15h1.5l13.5 15h-15zm-4.5 31.5h-18c-.8 0-1.5.7-1.5 1.5s.7 1.5 1.5 1.5h18c.8 0 1.5-.7 1.5-1.5s-.7-1.5-1.5-1.5zm9-12H79.6c-.8 0-1.5.7-1.5 1.5s.7 1.5 1.5 1.5h27.1c.8 0 1.5-.7 1.5-1.5s-.7-1.5-1.5-1.5zM78.1 86.6c0 .8.7 1.5 1.5 1.5h27.1c.8 0 1.5-.7 1.5-1.5s-.7-1.5-1.5-1.5H79.6c-.8 0-1.5.7-1.5 1.5z"/><path class="st1" d="M79.1 75.6h7.5c.8 0 1.5-.7 1.5-1.5s-.7-1.5-1.5-1.5h-7.5c-.8 0-1.5.7-1.5 1.5s.7 1.5 1.5 1.5zm25.6-16.5H71.6c-3.3 0-6 2.7-6 6v54.1c0 3.3 2.7 6 6 6h42.1c3.3 0 6-2.7 6-6V75.6l-15-16.5zm12 60.1c0 1.7-1.3 3-3 3H71.6c-1.7 0-3-1.3-3-3V65.1c0-1.7 1.3-3 3-3h27.1v15c0 1.7 1.3 3 3 3h15v39.1zm-15-42.1v-15h1.5l13.5 15h-15zm-4.5 31.5h-18c-.8 0-1.5.7-1.5 1.5s.7 1.5 1.5 1.5h18c.8 0 1.5-.7 1.5-1.5s-.7-1.5-1.5-1.5zm9-12H79.1c-.8 0-1.5.7-1.5 1.5s.7 1.5 1.5 1.5h27.1c.8 0 1.5-.7 1.5-1.5s-.7-1.5-1.5-1.5zM77.6 86.1c0 .8.7 1.5 1.5 1.5h27.1c.8 0 1.5-.7 1.5-1.5s-.7-1.5-1.5-1.5H79.1c-.8 0-1.5.7-1.5 1.5z"/><path class="st1" d="M78.6 75.1h7.5c.8 0 1.5-.7 1.5-1.5s-.7-1.5-1.5-1.5h-7.5c-.8 0-1.5.7-1.5 1.5s.7 1.5 1.5 1.5zm25.6-16.5H71.1c-3.3 0-6 2.7-6 6v54.1c0 3.3 2.7 6 6 6h42.1c3.3 0 6-2.7 6-6V75.1l-15-16.5zm12 60.1c0 1.7-1.3 3-3 3H71.1c-1.7 0-3-1.3-3-3V64.6c0-1.7 1.3-3 3-3h27.1v15c0 1.7 1.3 3 3 3h15v39.1zm-15-42.1v-15h1.5l13.5 15h-15zm-4.5 31.5h-18c-.8 0-1.5.7-1.5 1.5s.7 1.5 1.5 1.5h18c.8 0 1.5-.7 1.5-1.5s-.7-1.5-1.5-1.5zm9-12H78.6c-.8 0-1.5.7-1.5 1.5s.7 1.5 1.5 1.5h27.1c.8 0 1.5-.7 1.5-1.5s-.7-1.5-1.5-1.5zM77.1 85.6c0 .8.7 1.5 1.5 1.5h27.1c.8 0 1.5-.7 1.5-1.5s-.7-1.5-1.5-1.5H78.6c-.8 0-1.5.7-1.5 1.5z"/><path class="st1" d="M78.1 74.6h7.5c.8 0 1.5-.7 1.5-1.5s-.7-1.5-1.5-1.5h-7.5c-.8 0-1.5.7-1.5 1.5s.7 1.5 1.5 1.5zm25.6-16.5H70.6c-3.3 0-6 2.7-6 6v54.1c0 3.3 2.7 6 6 6h42.1c3.3 0 6-2.7 6-6V74.6l-15-16.5zm12 60.1c0 1.7-1.3 3-3 3H70.6c-1.7 0-3-1.3-3-3V64.1c0-1.7 1.3-3 3-3h27.1v15c0 1.7 1.3 3 3 3h15v39.1zm-15-42.1v-15h1.5l13.5 15h-15zm-4.5 31.5h-18c-.8 0-1.5.7-1.5 1.5s.7 1.5 1.5 1.5h18c.8 0 1.5-.7 1.5-1.5s-.7-1.5-1.5-1.5zm9-12H78.1c-.8 0-1.5.7-1.5 1.5s.7 1.5 1.5 1.5h27.1c.8 0 1.5-.7 1.5-1.5s-.7-1.5-1.5-1.5zM76.6 85.1c0 .8.7 1.5 1.5 1.5h27.1c.8 0 1.5-.7 1.5-1.5s-.7-1.5-1.5-1.5H78.1c-.8 0-1.5.7-1.5 1.5z"/><path class="st1" d="M77.6 74.1h7.5c.8 0 1.5-.7 1.5-1.5s-.7-1.5-1.5-1.5h-7.5c-.8 0-1.5.7-1.5 1.5s.7 1.5 1.5 1.5zm25.6-16.5H70.1c-3.3 0-6 2.7-6 6v54.1c0 3.3 2.7 6 6 6h42.1c3.3 0 6-2.7 6-6V74.1l-15-16.5zm12 60.1c0 1.7-1.3 3-3 3H70.1c-1.7 0-3-1.3-3-3V63.6c0-1.7 1.3-3 3-3h27.1v15c0 1.7 1.3 3 3 3h15v39.1zm-15-42.1v-15h1.5l13.5 15h-15zm-4.5 31.5h-18c-.8 0-1.5.7-1.5 1.5s.7 1.5 1.5 1.5h18c.8 0 1.5-.7 1.5-1.5s-.7-1.5-1.5-1.5zm9-12H77.6c-.8 0-1.5.7-1.5 1.5s.7 1.5 1.5 1.5h27.1c.8 0 1.5-.7 1.5-1.5s-.7-1.5-1.5-1.5zM76.1 84.6c0 .8.7 1.5 1.5 1.5h27.1c.8 0 1.5-.7 1.5-1.5s-.7-1.5-1.5-1.5H77.6c-.8 0-1.5.7-1.5 1.5z"/><path class="st1" d="M77.1 73.6h7.5c.8 0 1.5-.7 1.5-1.5s-.7-1.5-1.5-1.5h-7.5c-.8 0-1.5.7-1.5 1.5s.7 1.5 1.5 1.5zm25.6-16.5H69.6c-3.3 0-6 2.7-6 6v54.1c0 3.3 2.7 6 6 6h42.1c3.3 0 6-2.7 6-6V73.6l-15-16.5zm12 60.1c0 1.7-1.3 3-3 3H69.6c-1.7 0-3-1.3-3-3V63.1c0-1.7 1.3-3 3-3h27.1v15c0 1.7 1.3 3 3 3h15v39.1zm-15-42.1v-15h1.5l13.5 15h-15zm-4.5 31.5h-18c-.8 0-1.5.7-1.5 1.5s.7 1.5 1.5 1.5h18c.8 0 1.5-.7 1.5-1.5s-.7-1.5-1.5-1.5zm9-12H77.1c-.8 0-1.5.7-1.5 1.5s.7 1.5 1.5 1.5h27.1c.8 0 1.5-.7 1.5-1.5s-.7-1.5-1.5-1.5zM75.6 84.1c0 .8.7 1.5 1.5 1.5h27.1c.8 0 1.5-.7 1.5-1.5s-.7-1.5-1.5-1.5H77.1c-.8 0-1.5.7-1.5 1.5z"/><path class="st1" d="M76.6 73.1h7.5c.8 0 1.5-.7 1.5-1.5s-.7-1.5-1.5-1.5h-7.5c-.8 0-1.5.7-1.5 1.5s.7 1.5 1.5 1.5zm25.6-16.5H69.1c-3.3 0-6 2.7-6 6v54.1c0 3.3 2.7 6 6 6h42.1c3.3 0 6-2.7 6-6V73.1l-15-16.5zm12 60.1c0 1.7-1.3 3-3 3H69.1c-1.7 0-3-1.3-3-3V62.6c0-1.7 1.3-3 3-3h27.1v15c0 1.7 1.3 3 3 3h15v39.1zm-15-42.1v-15h1.5l13.5 15h-15zm-4.5 31.5h-18c-.8 0-1.5.7-1.5 1.5s.7 1.5 1.5 1.5h18c.8 0 1.5-.7 1.5-1.5s-.7-1.5-1.5-1.5zm9-12H76.6c-.8 0-1.5.7-1.5 1.5s.7 1.5 1.5 1.5h27.1c.8 0 1.5-.7 1.5-1.5s-.7-1.5-1.5-1.5zM75.1 83.6c0 .8.7 1.5 1.5 1.5h27.1c.8 0 1.5-.7 1.5-1.5s-.7-1.5-1.5-1.5H76.6c-.8 0-1.5.7-1.5 1.5z"/><path class="st1" d="M76.1 72.6h7.5c.8 0 1.5-.7 1.5-1.5s-.7-1.5-1.5-1.5h-7.5c-.8 0-1.5.7-1.5 1.5s.7 1.5 1.5 1.5zm25.6-16.5H68.6c-3.3 0-6 2.7-6 6v54.1c0 3.3 2.7 6 6 6h42.1c3.3 0 6-2.7 6-6V72.6l-15-16.5zm12 60.1c0 1.7-1.3 3-3 3H68.6c-1.7 0-3-1.3-3-3V62.1c0-1.7 1.3-3 3-3h27.1v15c0 1.7 1.3 3 3 3h15v39.1zm-15-42.1v-15h1.5l13.5 15h-15zm-4.5 31.5h-18c-.8 0-1.5.7-1.5 1.5s.7 1.5 1.5 1.5h18c.8 0 1.5-.7 1.5-1.5s-.7-1.5-1.5-1.5zm9-12H76.1c-.8 0-1.5.7-1.5 1.5s.7 1.5 1.5 1.5h27.1c.8 0 1.5-.7 1.5-1.5s-.7-1.5-1.5-1.5zM74.6 83.1c0 .8.7 1.5 1.5 1.5h27.1c.8 0 1.5-.7 1.5-1.5s-.7-1.5-1.5-1.5H76.1c-.8 0-1.5.7-1.5 1.5z"/><path class="st1" d="M75.6 72.1h7.5c.8 0 1.5-.7 1.5-1.5s-.7-1.5-1.5-1.5h-7.5c-.8 0-1.5.7-1.5 1.5s.7 1.5 1.5 1.5zm25.6-16.5H68.1c-3.3 0-6 2.7-6 6v54.1c0 3.3 2.7 6 6 6h42.1c3.3 0 6-2.7 6-6V72.1l-15-16.5zm12 60.1c0 1.7-1.3 3-3 3H68.1c-1.7 0-3-1.3-3-3V61.6c0-1.7 1.3-3 3-3h27.1v15c0 1.7 1.3 3 3 3h15v39.1zm-15-42.1v-15h1.5l13.5 15h-15zm-4.5 31.5h-18c-.8 0-1.5.7-1.5 1.5s.7 1.5 1.5 1.5h18c.8 0 1.5-.7 1.5-1.5s-.7-1.5-1.5-1.5zm9-12H75.6c-.8 0-1.5.7-1.5 1.5s.7 1.5 1.5 1.5h27.1c.8 0 1.5-.7 1.5-1.5s-.7-1.5-1.5-1.5zM74.1 82.6c0 .8.7 1.5 1.5 1.5h27.1c.8 0 1.5-.7 1.5-1.5s-.7-1.5-1.5-1.5H75.6c-.8 0-1.5.7-1.5 1.5z"/><path class="st1" d="M75.1 71.6h7.5c.8 0 1.5-.7 1.5-1.5s-.7-1.5-1.5-1.5h-7.5c-.8 0-1.5.7-1.5 1.5s.7 1.5 1.5 1.5zm25.6-16.5H67.6c-3.3 0-6 2.7-6 6v54.1c0 3.3 2.7 6 6 6h42.1c3.3 0 6-2.7 6-6V71.6l-15-16.5zm12 60.1c0 1.7-1.3 3-3 3H67.6c-1.7 0-3-1.3-3-3V61.1c0-1.7 1.3-3 3-3h27.1v15c0 1.7 1.3 3 3 3h15v39.1zm-15-42.1v-15h1.5l13.5 15h-15zm-4.5 31.5h-18c-.8 0-1.5.7-1.5 1.5s.7 1.5 1.5 1.5h18c.8 0 1.5-.7 1.5-1.5s-.7-1.5-1.5-1.5zm9-12H75.1c-.8 0-1.5.7-1.5 1.5s.7 1.5 1.5 1.5h27.1c.8 0 1.5-.7 1.5-1.5s-.7-1.5-1.5-1.5zM73.6 82.1c0 .8.7 1.5 1.5 1.5h27.1c.8 0 1.5-.7 1.5-1.5s-.7-1.5-1.5-1.5H75.1c-.8 0-1.5.7-1.5 1.5z"/><path class="st1" d="M74.6 71.1h7.5c.8 0 1.5-.7 1.5-1.5s-.7-1.5-1.5-1.5h-7.5c-.8 0-1.5.7-1.5 1.5s.7 1.5 1.5 1.5zm25.6-16.5H67.1c-3.3 0-6 2.7-6 6v54.1c0 3.3 2.7 6 6 6h42.1c3.3 0 6-2.7 6-6V71.1l-15-16.5zm12 60.1c0 1.7-1.3 3-3 3H67.1c-1.7 0-3-1.3-3-3V60.6c0-1.7 1.3-3 3-3h27.1v15c0 1.7 1.3 3 3 3h15v39.1zm-15-42.1v-15h1.5l13.5 15h-15zm-4.5 31.5h-18c-.8 0-1.5.7-1.5 1.5s.7 1.5 1.5 1.5h18c.8 0 1.5-.7 1.5-1.5s-.7-1.5-1.5-1.5zm9-12H74.6c-.8 0-1.5.7-1.5 1.5s.7 1.5 1.5 1.5h27.1c.8 0 1.5-.7 1.5-1.5s-.7-1.5-1.5-1.5zM73.1 81.6c0 .8.7 1.5 1.5 1.5h27.1c.8 0 1.5-.7 1.5-1.5s-.7-1.5-1.5-1.5H74.6c-.8 0-1.5.7-1.5 1.5z"/><path class="st1" d="M74.1 70.6h7.5c.8 0 1.5-.7 1.5-1.5s-.7-1.5-1.5-1.5h-7.5c-.8 0-1.5.7-1.5 1.5s.7 1.5 1.5 1.5zm25.6-16.5H66.6c-3.3 0-6 2.7-6 6v54.1c0 3.3 2.7 6 6 6h42.1c3.3 0 6-2.7 6-6V70.6l-15-16.5zm12 60.1c0 1.7-1.3 3-3 3H66.6c-1.7 0-3-1.3-3-3V60.1c0-1.7 1.3-3 3-3h27.1v15c0 1.7 1.3 3 3 3h15v39.1zm-15-42.1v-15h1.5l13.5 15h-15zm-4.5 31.5h-18c-.8 0-1.5.7-1.5 1.5s.7 1.5 1.5 1.5h18c.8 0 1.5-.7 1.5-1.5s-.7-1.5-1.5-1.5zm9-12H74.1c-.8 0-1.5.7-1.5 1.5s.7 1.5 1.5 1.5h27.1c.8 0 1.5-.7 1.5-1.5s-.7-1.5-1.5-1.5zM72.6 81.1c0 .8.7 1.5 1.5 1.5h27.1c.8 0 1.5-.7 1.5-1.5s-.7-1.5-1.5-1.5H74.1c-.8 0-1.5.7-1.5 1.5z"/><path class="st1" d="M73.6 70.1h7.5c.8 0 1.5-.7 1.5-1.5s-.7-1.5-1.5-1.5h-7.5c-.8 0-1.5.7-1.5 1.5s.7 1.5 1.5 1.5zm25.6-16.5H66.1c-3.3 0-6 2.7-6 6v54.1c0 3.3 2.7 6 6 6h42.1c3.3 0 6-2.7 6-6V70.1l-15-16.5zm12 60.1c0 1.7-1.3 3-3 3H66.1c-1.7 0-3-1.3-3-3V59.6c0-1.7 1.3-3 3-3h27.1v15c0 1.7 1.3 3 3 3h15v39.1zm-15-42.1v-15h1.5l13.5 15h-15zm-4.5 31.5h-18c-.8 0-1.5.7-1.5 1.5s.7 1.5 1.5 1.5h18c.8 0 1.5-.7 1.5-1.5s-.7-1.5-1.5-1.5zm9-12H73.6c-.8 0-1.5.7-1.5 1.5s.7 1.5 1.5 1.5h27.1c.8 0 1.5-.7 1.5-1.5s-.7-1.5-1.5-1.5zM72.1 80.6c0 .8.7 1.5 1.5 1.5h27.1c.8 0 1.5-.7 1.5-1.5s-.7-1.5-1.5-1.5H73.6c-.8 0-1.5.7-1.5 1.5z"/><path class="st1" d="M73.1 69.6h7.5c.8 0 1.5-.7 1.5-1.5s-.7-1.5-1.5-1.5h-7.5c-.8 0-1.5.7-1.5 1.5s.7 1.5 1.5 1.5zm25.6-16.5H65.6c-3.3 0-6 2.7-6 6v54.1c0 3.3 2.7 6 6 6h42.1c3.3 0 6-2.7 6-6V69.6l-15-16.5zm12 60.1c0 1.7-1.3 3-3 3H65.6c-1.7 0-3-1.3-3-3V59.1c0-1.7 1.3-3 3-3h27.1v15c0 1.7 1.3 3 3 3h15v39.1zm-15-42.1v-15h1.5l13.5 15h-15zm-4.5 31.5h-18c-.8 0-1.5.7-1.5 1.5s.7 1.5 1.5 1.5h18c.8 0 1.5-.7 1.5-1.5s-.7-1.5-1.5-1.5zm9-12H73.1c-.8 0-1.5.7-1.5 1.5s.7 1.5 1.5 1.5h27.1c.8 0 1.5-.7 1.5-1.5s-.7-1.5-1.5-1.5zM71.6 80.1c0 .8.7 1.5 1.5 1.5h27.1c.8 0 1.5-.7 1.5-1.5s-.7-1.5-1.5-1.5H73.1c-.8 0-1.5.7-1.5 1.5z"/><path class="st1" d="M72.6 69.1h7.5c.8 0 1.5-.7 1.5-1.5s-.7-1.5-1.5-1.5h-7.5c-.8 0-1.5.7-1.5 1.5s.7 1.5 1.5 1.5zm25.6-16.5H65.1c-3.3 0-6 2.7-6 6v54.1c0 3.3 2.7 6 6 6h42.1c3.3 0 6-2.7 6-6V69.1l-15-16.5zm12 60.1c0 1.7-1.3 3-3 3H65.1c-1.7 0-3-1.3-3-3V58.6c0-1.7 1.3-3 3-3h27.1v15c0 1.7 1.3 3 3 3h15v39.1zm-15-42.1v-15h1.5l13.5 15h-15zm-4.5 31.5h-18c-.8 0-1.5.7-1.5 1.5s.7 1.5 1.5 1.5h18c.8 0 1.5-.7 1.5-1.5s-.7-1.5-1.5-1.5zm9-12H72.6c-.8 0-1.5.7-1.5 1.5s.7 1.5 1.5 1.5h27.1c.8 0 1.5-.7 1.5-1.5s-.7-1.5-1.5-1.5zM71.1 79.6c0 .8.7 1.5 1.5 1.5h27.1c.8 0 1.5-.7 1.5-1.5s-.7-1.5-1.5-1.5H72.6c-.8 0-1.5.7-1.5 1.5z"/><path class="st1" d="M72.1 68.6h7.5c.8 0 1.5-.7 1.5-1.5s-.7-1.5-1.5-1.5h-7.5c-.8 0-1.5.7-1.5 1.5s.7 1.5 1.5 1.5zm25.6-16.5H64.6c-3.3 0-6 2.7-6 6v54.1c0 3.3 2.7 6 6 6h42.1c3.3 0 6-2.7 6-6V68.6l-15-16.5zm12 60.1c0 1.7-1.3 3-3 3H64.6c-1.7 0-3-1.3-3-3V58.1c0-1.7 1.3-3 3-3h27.1v15c0 1.7 1.3 3 3 3h15v39.1zm-15-42.1v-15h1.5l13.5 15h-15zm-4.5 31.5h-18c-.8 0-1.5.7-1.5 1.5s.7 1.5 1.5 1.5h18c.8 0 1.5-.7 1.5-1.5s-.7-1.5-1.5-1.5zm9-12H72.1c-.8 0-1.5.7-1.5 1.5s.7 1.5 1.5 1.5h27.1c.8 0 1.5-.7 1.5-1.5s-.7-1.5-1.5-1.5zM70.6 79.1c0 .8.7 1.5 1.5 1.5h27.1c.8 0 1.5-.7 1.5-1.5s-.7-1.5-1.5-1.5H72.1c-.8 0-1.5.7-1.5 1.5z"/><path class="st1" d="M71.6 68.1h7.5c.8 0 1.5-.7 1.5-1.5s-.7-1.5-1.5-1.5h-7.5c-.8 0-1.5.7-1.5 1.5s.7 1.5 1.5 1.5zm25.6-16.5H64.1c-3.3 0-6 2.7-6 6v54.1c0 3.3 2.7 6 6 6h42.1c3.3 0 6-2.7 6-6V68.1l-15-16.5zm12 60.1c0 1.7-1.3 3-3 3H64.1c-1.7 0-3-1.3-3-3V57.6c0-1.7 1.3-3 3-3h27.1v15c0 1.7 1.3 3 3 3h15v39.1zm-15-42.1v-15h1.5l13.5 15h-15zm-4.5 31.5h-18c-.8 0-1.5.7-1.5 1.5s.7 1.5 1.5 1.5h18c.8 0 1.5-.7 1.5-1.5s-.7-1.5-1.5-1.5zm9-12H71.6c-.8 0-1.5.7-1.5 1.5s.7 1.5 1.5 1.5h27.1c.8 0 1.5-.7 1.5-1.5s-.7-1.5-1.5-1.5zM70.1 78.6c0 .8.7 1.5 1.5 1.5h27.1c.8 0 1.5-.7 1.5-1.5s-.7-1.5-1.5-1.5H71.6c-.8 0-1.5.7-1.5 1.5z"/><path class="st1" d="M71.1 67.6h7.5c.8 0 1.5-.7 1.5-1.5s-.7-1.5-1.5-1.5h-7.5c-.8 0-1.5.7-1.5 1.5s.7 1.5 1.5 1.5zm25.6-16.5H63.6c-3.3 0-6 2.7-6 6v54.1c0 3.3 2.7 6 6 6h42.1c3.3 0 6-2.7 6-6V67.6l-15-16.5zm12 60.1c0 1.7-1.3 3-3 3H63.6c-1.7 0-3-1.3-3-3V57.1c0-1.7 1.3-3 3-3h27.1v15c0 1.7 1.3 3 3 3h15v39.1zm-15-42.1v-15h1.5l13.5 15h-15zm-4.5 31.5h-18c-.8 0-1.5.7-1.5 1.5s.7 1.5 1.5 1.5h18c.8 0 1.5-.7 1.5-1.5s-.7-1.5-1.5-1.5zm9-12H71.1c-.8 0-1.5.7-1.5 1.5s.7 1.5 1.5 1.5h27.1c.8 0 1.5-.7 1.5-1.5s-.7-1.5-1.5-1.5zM69.6 78.1c0 .8.7 1.5 1.5 1.5h27.1c.8 0 1.5-.7 1.5-1.5s-.7-1.5-1.5-1.5H71.1c-.8 0-1.5.7-1.5 1.5z"/><path class="st1" d="M70.6 67.1h7.5c.8 0 1.5-.7 1.5-1.5s-.7-1.5-1.5-1.5h-7.5c-.8 0-1.5.7-1.5 1.5s.7 1.5 1.5 1.5zm25.6-16.5H63.1c-3.3 0-6 2.7-6 6v54.1c0 3.3 2.7 6 6 6h42.1c3.3 0 6-2.7 6-6V67.1l-15-16.5zm12 60.1c0 1.7-1.3 3-3 3H63.1c-1.7 0-3-1.3-3-3V56.6c0-1.7 1.3-3 3-3h27.1v15c0 1.7 1.3 3 3 3h15v39.1zm-15-42.1v-15h1.5l13.5 15h-15zm-4.5 31.5h-18c-.8 0-1.5.7-1.5 1.5s.7 1.5 1.5 1.5h18c.8 0 1.5-.7 1.5-1.5s-.7-1.5-1.5-1.5zm9-12H70.6c-.8 0-1.5.7-1.5 1.5s.7 1.5 1.5 1.5h27.1c.8 0 1.5-.7 1.5-1.5s-.7-1.5-1.5-1.5zM69.1 77.6c0 .8.7 1.5 1.5 1.5h27.1c.8 0 1.5-.7 1.5-1.5s-.7-1.5-1.5-1.5H70.6c-.8 0-1.5.7-1.5 1.5z"/><path class="st1" d="M70.1 66.6h7.5c.8 0 1.5-.7 1.5-1.5s-.7-1.5-1.5-1.5h-7.5c-.8 0-1.5.7-1.5 1.5s.7 1.5 1.5 1.5zm25.6-16.5H62.6c-3.3 0-6 2.7-6 6v54.1c0 3.3 2.7 6 6 6h42.1c3.3 0 6-2.7 6-6V66.6l-15-16.5zm12 60.1c0 1.7-1.3 3-3 3H62.6c-1.7 0-3-1.3-3-3V56.1c0-1.7 1.3-3 3-3h27.1v15c0 1.7 1.3 3 3 3h15v39.1zm-15-42.1v-15h1.5l13.5 15h-15zm-4.5 31.5h-18c-.8 0-1.5.7-1.5 1.5s.7 1.5 1.5 1.5h18c.8 0 1.5-.7 1.5-1.5s-.7-1.5-1.5-1.5zm9-12H70.1c-.8 0-1.5.7-1.5 1.5s.7 1.5 1.5 1.5h27.1c.8 0 1.5-.7 1.5-1.5s-.7-1.5-1.5-1.5zM68.6 77.1c0 .8.7 1.5 1.5 1.5h27.1c.8 0 1.5-.7 1.5-1.5s-.7-1.5-1.5-1.5H70.1c-.8 0-1.5.7-1.5 1.5z"/><path class="st1" d="M69.6 66.1h7.5c.8 0 1.5-.7 1.5-1.5s-.7-1.5-1.5-1.5h-7.5c-.8 0-1.5.7-1.5 1.5s.7 1.5 1.5 1.5zm25.6-16.5H62.1c-3.3 0-6 2.7-6 6v54.1c0 3.3 2.7 6 6 6h42.1c3.3 0 6-2.7 6-6V66.1l-15-16.5zm12 60.1c0 1.7-1.3 3-3 3H62.1c-1.7 0-3-1.3-3-3V55.6c0-1.7 1.3-3 3-3h27.1v15c0 1.7 1.3 3 3 3h15v39.1zm-15-42.1v-15h1.5l13.5 15h-15zm-4.5 31.5h-18c-.8 0-1.5.7-1.5 1.5s.7 1.5 1.5 1.5h18c.8 0 1.5-.7 1.5-1.5s-.7-1.5-1.5-1.5zm9-12H69.6c-.8 0-1.5.7-1.5 1.5s.7 1.5 1.5 1.5h27.1c.8 0 1.5-.7 1.5-1.5s-.7-1.5-1.5-1.5zM68.1 76.6c0 .8.7 1.5 1.5 1.5h27.1c.8 0 1.5-.7 1.5-1.5s-.7-1.5-1.5-1.5H69.6c-.8 0-1.5.7-1.5 1.5z"/><path class="st1" d="M69.1 65.6h7.5c.8 0 1.5-.7 1.5-1.5s-.7-1.5-1.5-1.5h-7.5c-.8 0-1.5.7-1.5 1.5s.7 1.5 1.5 1.5zm25.6-16.5H61.6c-3.3 0-6 2.7-6 6v54.1c0 3.3 2.7 6 6 6h42.1c3.3 0 6-2.7 6-6V65.6l-15-16.5zm12 60.1c0 1.7-1.3 3-3 3H61.6c-1.7 0-3-1.3-3-3V55.1c0-1.7 1.3-3 3-3h27.1v15c0 1.7 1.3 3 3 3h15v39.1zm-15-42.1v-15h1.5l13.5 15h-15zm-4.5 31.5h-18c-.8 0-1.5.7-1.5 1.5s.7 1.5 1.5 1.5h18c.8 0 1.5-.7 1.5-1.5s-.7-1.5-1.5-1.5zm9-12H69.1c-.8 0-1.5.7-1.5 1.5s.7 1.5 1.5 1.5h27.1c.8 0 1.5-.7 1.5-1.5s-.7-1.5-1.5-1.5zM67.6 76.1c0 .8.7 1.5 1.5 1.5h27.1c.8 0 1.5-.7 1.5-1.5s-.7-1.5-1.5-1.5H69.1c-.8 0-1.5.7-1.5 1.5z"/><path class="st1" d="M68.6 65.1h7.5c.8 0 1.5-.7 1.5-1.5s-.7-1.5-1.5-1.5h-7.5c-.8 0-1.5.7-1.5 1.5s.7 1.5 1.5 1.5zm25.6-16.5H61.1c-3.3 0-6 2.7-6 6v54.1c0 3.3 2.7 6 6 6h42.1c3.3 0 6-2.7 6-6V65.1l-15-16.5zm12 60.1c0 1.7-1.3 3-3 3H61.1c-1.7 0-3-1.3-3-3V54.6c0-1.7 1.3-3 3-3h27.1v15c0 1.7 1.3 3 3 3h15v39.1zm-15-42.1v-15h1.5l13.5 15h-15zm-4.5 31.5h-18c-.8 0-1.5.7-1.5 1.5s.7 1.5 1.5 1.5h18c.8 0 1.5-.7 1.5-1.5s-.7-1.5-1.5-1.5zm9-12H68.6c-.8 0-1.5.7-1.5 1.5s.7 1.5 1.5 1.5h27.1c.8 0 1.5-.7 1.5-1.5s-.7-1.5-1.5-1.5zM67.1 75.6c0 .8.7 1.5 1.5 1.5h27.1c.8 0 1.5-.7 1.5-1.5s-.7-1.5-1.5-1.5H68.6c-.8 0-1.5.7-1.5 1.5z"/><path class="st1" d="M68.1 64.6h7.5c.8 0 1.5-.7 1.5-1.5s-.7-1.5-1.5-1.5h-7.5c-.8 0-1.5.7-1.5 1.5s.7 1.5 1.5 1.5zm25.6-16.5H60.6c-3.3 0-6 2.7-6 6v54.1c0 3.3 2.7 6 6 6h42.1c3.3 0 6-2.7 6-6V64.6l-15-16.5zm12 60.1c0 1.7-1.3 3-3 3H60.6c-1.7 0-3-1.3-3-3V54.1c0-1.7 1.3-3 3-3h27.1v15c0 1.7 1.3 3 3 3h15v39.1zm-15-42.1v-15h1.5l13.5 15h-15zm-4.5 31.5h-18c-.8 0-1.5.7-1.5 1.5s.7 1.5 1.5 1.5h18c.8 0 1.5-.7 1.5-1.5s-.7-1.5-1.5-1.5zm9-12H68.1c-.8 0-1.5.7-1.5 1.5s.7 1.5 1.5 1.5h27.1c.8 0 1.5-.7 1.5-1.5s-.7-1.5-1.5-1.5zM66.6 75.1c0 .8.7 1.5 1.5 1.5h27.1c.8 0 1.5-.7 1.5-1.5s-.7-1.5-1.5-1.5H68.1c-.8 0-1.5.7-1.5 1.5z"/><path class="st1" d="M67.6 64.1h7.5c.8 0 1.5-.7 1.5-1.5s-.7-1.5-1.5-1.5h-7.5c-.8 0-1.5.7-1.5 1.5s.7 1.5 1.5 1.5zm25.6-16.5H60.1c-3.3 0-6 2.7-6 6v54.1c0 3.3 2.7 6 6 6h42.1c3.3 0 6-2.7 6-6V64.1l-15-16.5zm12 60.1c0 1.7-1.3 3-3 3H60.1c-1.7 0-3-1.3-3-3V53.6c0-1.7 1.3-3 3-3h27.1v15c0 1.7 1.3 3 3 3h15v39.1zm-15-42.1v-15h1.5l13.5 15h-15zm-4.5 31.5h-18c-.8 0-1.5.7-1.5 1.5s.7 1.5 1.5 1.5h18c.8 0 1.5-.7 1.5-1.5s-.7-1.5-1.5-1.5zm9-12H67.6c-.8 0-1.5.7-1.5 1.5s.7 1.5 1.5 1.5h27.1c.8 0 1.5-.7 1.5-1.5s-.7-1.5-1.5-1.5zM66.1 74.6c0 .8.7 1.5 1.5 1.5h27.1c.8 0 1.5-.7 1.5-1.5s-.7-1.5-1.5-1.5H67.6c-.8 0-1.5.7-1.5 1.5z"/><path class="st1" d="M67.1 63.6h7.5c.8 0 1.5-.7 1.5-1.5s-.7-1.5-1.5-1.5h-7.5c-.8 0-1.5.7-1.5 1.5s.7 1.5 1.5 1.5zm25.6-16.5H59.6c-3.3 0-6 2.7-6 6v54.1c0 3.3 2.7 6 6 6h42.1c3.3 0 6-2.7 6-6V63.6l-15-16.5zm12 60.1c0 1.7-1.3 3-3 3H59.6c-1.7 0-3-1.3-3-3V53.1c0-1.7 1.3-3 3-3h27.1v15c0 1.7 1.3 3 3 3h15v39.1zm-15-42.1v-15h1.5l13.5 15h-15zm-4.5 31.5h-18c-.8 0-1.5.7-1.5 1.5s.7 1.5 1.5 1.5h18c.8 0 1.5-.7 1.5-1.5s-.7-1.5-1.5-1.5zm9-12H67.1c-.8 0-1.5.7-1.5 1.5s.7 1.5 1.5 1.5h27.1c.8 0 1.5-.7 1.5-1.5s-.7-1.5-1.5-1.5zM65.6 74.1c0 .8.7 1.5 1.5 1.5h27.1c.8 0 1.5-.7 1.5-1.5s-.7-1.5-1.5-1.5H67.1c-.8 0-1.5.7-1.5 1.5z"/><path class="st1" d="M66.6 63.1h7.5c.8 0 1.5-.7 1.5-1.5s-.7-1.5-1.5-1.5h-7.5c-.8 0-1.5.7-1.5 1.5s.7 1.5 1.5 1.5zm25.6-16.5H59.1c-3.3 0-6 2.7-6 6v54.1c0 3.3 2.7 6 6 6h42.1c3.3 0 6-2.7 6-6V63.1l-15-16.5zm12 60.1c0 1.7-1.3 3-3 3H59.1c-1.7 0-3-1.3-3-3V52.6c0-1.7 1.3-3 3-3h27.1v15c0 1.7 1.3 3 3 3h15v39.1zm-15-42.1v-15h1.5l13.5 15h-15zm-4.5 31.5h-18c-.8 0-1.5.7-1.5 1.5s.7 1.5 1.5 1.5h18c.8 0 1.5-.7 1.5-1.5s-.7-1.5-1.5-1.5zm9-12H66.6c-.8 0-1.5.7-1.5 1.5s.7 1.5 1.5 1.5h27.1c.8 0 1.5-.7 1.5-1.5s-.7-1.5-1.5-1.5zM65.1 73.6c0 .8.7 1.5 1.5 1.5h27.1c.8 0 1.5-.7 1.5-1.5s-.7-1.5-1.5-1.5H66.6c-.8 0-1.5.7-1.5 1.5z"/><path class="st1" d="M66.1 62.6h7.5c.8 0 1.5-.7 1.5-1.5s-.7-1.5-1.5-1.5h-7.5c-.8 0-1.5.7-1.5 1.5s.7 1.5 1.5 1.5zm25.6-16.5H58.6c-3.3 0-6 2.7-6 6v54.1c0 3.3 2.7 6 6 6h42.1c3.3 0 6-2.7 6-6V62.6l-15-16.5zm12 60.1c0 1.7-1.3 3-3 3H58.6c-1.7 0-3-1.3-3-3V52.1c0-1.7 1.3-3 3-3h27.1v15c0 1.7 1.3 3 3 3h15v39.1zm-15-42.1v-15h1.5l13.5 15h-15zm-4.5 31.5h-18c-.8 0-1.5.7-1.5 1.5s.7 1.5 1.5 1.5h18c.8 0 1.5-.7 1.5-1.5s-.7-1.5-1.5-1.5zm9-12H66.1c-.8 0-1.5.7-1.5 1.5s.7 1.5 1.5 1.5h27.1c.8 0 1.5-.7 1.5-1.5s-.7-1.5-1.5-1.5zM64.6 73.1c0 .8.7 1.5 1.5 1.5h27.1c.8 0 1.5-.7 1.5-1.5s-.7-1.5-1.5-1.5H66.1c-.8 0-1.5.7-1.5 1.5z"/><path class="st1" d="M65.6 62.1h7.5c.8 0 1.5-.7 1.5-1.5s-.7-1.5-1.5-1.5h-7.5c-.8 0-1.5.7-1.5 1.5s.7 1.5 1.5 1.5zm25.6-16.5H58.1c-3.3 0-6 2.7-6 6v54.1c0 3.3 2.7 6 6 6h42.1c3.3 0 6-2.7 6-6V62.1l-15-16.5zm12 60.1c0 1.7-1.3 3-3 3H58.1c-1.7 0-3-1.3-3-3V51.6c0-1.7 1.3-3 3-3h27.1v15c0 1.7 1.3 3 3 3h15v39.1zm-15-42.1v-15h1.5l13.5 15h-15zm-4.5 31.5h-18c-.8 0-1.5.7-1.5 1.5s.7 1.5 1.5 1.5h18c.8 0 1.5-.7 1.5-1.5s-.7-1.5-1.5-1.5zm9-12H65.6c-.8 0-1.5.7-1.5 1.5s.7 1.5 1.5 1.5h27.1c.8 0 1.5-.7 1.5-1.5s-.7-1.5-1.5-1.5zM64.1 72.6c0 .8.7 1.5 1.5 1.5h27.1c.8 0 1.5-.7 1.5-1.5s-.7-1.5-1.5-1.5H65.6c-.8 0-1.5.7-1.5 1.5z"/><path class="st1" d="M65.1 61.6h7.5c.8 0 1.5-.7 1.5-1.5s-.7-1.5-1.5-1.5h-7.5c-.8 0-1.5.7-1.5 1.5s.7 1.5 1.5 1.5zm25.6-16.5H57.6c-3.3 0-6 2.7-6 6v54.1c0 3.3 2.7 6 6 6h42.1c3.3 0 6-2.7 6-6V61.6l-15-16.5zm12 60.1c0 1.7-1.3 3-3 3H57.6c-1.7 0-3-1.3-3-3V51.1c0-1.7 1.3-3 3-3h27.1v15c0 1.7 1.3 3 3 3h15v39.1zm-15-42.1v-15h1.5l13.5 15h-15zm-4.5 31.5h-18c-.8 0-1.5.7-1.5 1.5s.7 1.5 1.5 1.5h18c.8 0 1.5-.7 1.5-1.5s-.7-1.5-1.5-1.5zm9-12H65.1c-.8 0-1.5.7-1.5 1.5s.7 1.5 1.5 1.5h27.1c.8 0 1.5-.7 1.5-1.5s-.7-1.5-1.5-1.5zM63.6 72.1c0 .8.7 1.5 1.5 1.5h27.1c.8 0 1.5-.7 1.5-1.5s-.7-1.5-1.5-1.5H65.1c-.8 0-1.5.7-1.5 1.5z"/></g><path class="st2" d="M83.2 94.2h-18c-.8 0-1.5.7-1.5 1.5s.7 1.5 1.5 1.5h18c.8 0 1.5-.7 1.5-1.5s-.7-1.5-1.5-1.5zM65.1 61.1h7.5c.8 0 1.5-.7 1.5-1.5s-.7-1.5-1.5-1.5h-7.5c-.8 0-1.5.7-1.5 1.5 0 .9.7 1.5 1.5 1.5zm25.6-16.5H57.6c-3.3 0-6 2.7-6 6v54.1c0 3.3 2.7 6 6 6h42.1c3.3 0 6-2.7 6-6V61.1l-15-16.5zm12 60.1c0 1.7-1.3 3-3 3H57.6c-1.7 0-3-1.3-3-3V50.6c0-1.7 1.3-3 3-3h27.1v15c0 1.7 1.3 3 3 3h15v39.1zm-15-42.1v-15h1.5l13.5 15h-15zm-24.1 9c0 .8.7 1.5 1.5 1.5h27.1c.8 0 1.5-.7 1.5-1.5s-.7-1.5-1.5-1.5H65.1c-.8 0-1.5.7-1.5 1.5zm28.6 10.6H65.1c-.8 0-1.5.7-1.5 1.5s.7 1.5 1.5 1.5h27.1c.8 0 1.5-.7 1.5-1.5 0-.9-.7-1.5-1.5-1.5z" id="Page_1_x40_2x.png_2_"/></svg>