<?xml version="1.0" encoding="utf-8"?>
<!-- Generator: Adobe Illustrator 19.1.0, SVG Export Plug-In . SVG Version: 6.00 Build 0)  -->
<svg version="1.1"
	 id="Camada_1" xmlns:inkscape="http://www.inkscape.org/namespaces/inkscape" xmlns:sodipodi="http://sodipodi.sourceforge.net/DTD/sodipodi-0.dtd" xmlns:cc="http://creativecommons.org/ns#" xmlns:dc="http://purl.org/dc/elements/1.1/" xmlns:svg="http://www.w3.org/2000/svg" xmlns:rdf="http://www.w3.org/1999/02/22-rdf-syntax-ns#" inkscape:version="0.91 r" inkscape:export-filename="/home/andrew/Work/Projects/paneiro-virtual/design/web/Paneiro.png" inkscape:export-ydpi="90" sodipodi:docname="Paneiro.svg" inkscape:export-xdpi="90"
	 xmlns="http://www.w3.org/2000/svg" xmlns:xlink="http://www.w3.org/1999/xlink" x="0px" y="0px" viewBox="-101 388 392 66.9"
	 style="enable-background:new -101 388 392 66.9;" xml:space="preserve">
<style type="text/css">
	.st0{enable-background:new    ;}
	.st1{fill:#CC9B60;}
	.st2{fill:#FFFFFF;}
</style>
<sodipodi:namedview  id="namedview2969" inkscape:cx="182.06873" gridtolerance="10" fit-margin-top="0" pagecolor="#ffffff" inkscape:zoom="3.5427267" guidetolerance="10" showgrid="false" inkscape:cy="29.093897" objecttolerance="10" fit-margin-left="0" borderopacity="1" bordercolor="#666666" inkscape:pageshadow="2" inkscape:window-width="1920" inkscape:window-height="1028" fit-margin-bottom="0" inkscape:window-y="25" inkscape:current-layer="Camada_1" inkscape:window-maximized="1" fit-margin-right="0" inkscape:pageopacity="0" inkscape:window-x="0">
	</sodipodi:namedview>
<g class="st0">
	<path class="st1" d="M-98.2,451.7c-0.6-3.6-0.8-7.6-0.8-12c0-2.9,0.2-7.3,0.5-13.1c0.3-5.8,0.5-10.2,0.5-13.2
		c0-4.3-0.2-8.3-0.7-11.8c-0.1,0-0.2,0.1-0.2,0.1c-0.3,0-0.7-0.3-1-0.9c-0.4-0.7-0.7-1.2-1-1.2c0.2-1.7,0.7-2.6,1.4-2.6
		c0.6-0.1,1.1-0.2,1.6-0.2c0.9,0,2.2,0.1,3.6,0.3c7.2,1.2,12.6,4.3,16.2,9.4c1.2,1.7,1.7,3.6,1.7,5.6c0,2-0.4,3.9-1.3,5.7
		c-2.1,4.6-3.9,7.5-5.4,9l-3.8,3.8c-1.6,1.2-3.2,2.1-4.8,2.3c-0.2,0.9-0.3,2.2-0.3,3.9c0,1.1,0.1,2.6,0.2,4.8
		c0.2,2.1,0.2,3.6,0.2,4.6c0,3.7-0.9,6.5-2.6,8.4l-0.6-0.3l-1.7-0.9C-97.6,453-98.1,452.4-98.2,451.7z M-86,406.3
		c-0.4-0.2-0.9-0.3-1.5-0.6c-1-0.4-2.5-0.9-4.5-1.8c0.4,7.6,0.7,13.3,0.7,17.5c0,1.6,0,2.7-0.1,3.8c4.9-4.6,7.6-9.2,8.2-13.7v-0.7
		C-83.2,408.9-84.1,407.4-86,406.3z"/>
	<path class="st1" d="M-46.9,447.8c0,1.7-2.2,2.2-3.5,2.2c-4.4,0-5.4-11.3-6.5-18c-0.7,4.7-7.9,15.4-14.6,15.4c-5.4,0-6.4-4.6-6.4-8
		c0-7.2,7.9-23.7,17.1-23.7c2.1,0,5.3,1.4,7.1,2.8c1.9,1.6,2.3,4.4,2.6,7.3c0.7,5.5,0.9,9.6,2.2,14.6l0.5,3.1l0.6,1.7
		C-47.3,446-46.9,446.9-46.9,447.8z M-70.9,441c2.7-0.2,8.2-8.2,9.7-12.5c0.8-2,2.7-5.2,2.7-6.7c-0.6-0.2-0.9-0.5-1.5-0.5
		c-4.8,0-7.6,8.8-8.3,9.9c-1.6,2.7-2.7,6.1-2.7,9.1v0.4C-71,440.8-70.9,440.9-70.9,441z"/>
	<path class="st1" d="M-31.7,428.3l0.2-0.5c1.3-3.6,5.5-11.3,9.9-11.3c3.6,1.1,3.3,5.1,4.6,7.9c2.9,6.4,2.2,15.1,4.9,21.3
		c-0.2,1.7-2.4,2.6-3.7,2.6c-4.1,0-3.9-7-4.8-10.1c-1.1-3.7-1.2-10.1-3.3-12.7c-3.7,6-4.2,10.2-6.9,14.8c-3.6,6.4-5.6,6.5-7.7,6.5
		c-1.1,0-3.2-1.2-3.2-2.8c0-6.9,0.1-12.5,0.1-19.1c0-1.9-0.2-3.8-0.2-5.7c0-1.3,0.4-2.7,1.7-3.3c0.7,0,1.3-0.1,1.9-0.1
		c2.9,0,3.1,3.9,3.1,5.7c0,1.2,0.4,2.2,0.4,3.5c0,4.1-0.2,6.7-0.2,9.3v0.4C-33.3,433.2-32.6,430.6-31.7,428.3z"/>
	<path class="st1" d="M4.5,415.5c5.7,0,8.6,3.8,8.6,7.7c0,5-3.8,9.8-10.4,10.1c-1.4,0.1-2.4-0.2-3.8-0.6c-0.1,0.6-0.1,0.9-0.1,1.2
		c0.2,8.1,5.5,8.8,6.4,8.8c3.4,0,5.3-1.8,8-3.7c0.6,0.2,1.2,0.4,1.8,1.2c0.1,0.7,0.2,0.9,0.2,1.7c-0.1,1.6-0.9,2.6-1.8,3.3
		c-2.9,2.4-4.9,2.9-8.9,2.9c-1.7,0-4.8-0.9-6.5-1.8c-5.2-3.9-5.7-8-6-13.3C-7.9,424.5-3.7,415.5,4.5,415.5z M1.4,428.5
		c3.7,0,5.9-2.2,5.9-4.8c0-1.6-0.9-3.1-2.5-3.1c-1.1,0-2.2,0.1-2.8,1c-0.8,1.1-2.3,2-2.7,6.8C-0.3,428.4,0.8,428.5,1.4,428.5z"/>
	<path class="st1" d="M27.2,447.4c-3.7,0-6.5-0.9-6.5-7.2c0-1.9-0.6-3.7-0.6-5.6c0-5.6-1-10.4-1-16c0-1.2,0.5-2.1,1.4-2.6
		c1.1-0.3,2-0.4,3.2-0.7c1.6,0.4,2.2,1.4,2.8,2.2c-0.1,1.1-0.2,2.2-0.2,3.4c0,8.4,2,19.7,2.4,23.4v0.3
		C28.8,445.5,28.5,446.2,27.2,447.4z M23,397.6c2.2,0,5,1.7,5,3.7c0,2.1-1.1,2.6-3,2.6c-2.5,0-5.2-1.7-5.2-2.7c0-1.3,0-2.2,1.7-3.2
		C21.8,397.7,22.3,397.6,23,397.6z"/>
	<path class="st1" d="M36.2,441.1c0-4.2-0.2-10.2-0.2-10.7v-2.7c0-2.4-0.2-4.9-0.3-7.3v-0.3c0-1-0.7-1.9-0.7-3c0.4-1.4,1-2.2,3-2.2
		c3.8,0,4,3.1,4.2,5.5l0.2,4.4c2.2-1.7,4.9-7.5,7.9-9.9c0.4-0.2,1-0.3,1.7-0.3c2.6,0,4.1,0.9,5,3.1c-0.4,2-4.4,5.1-6.4,8
		c-3.2,3.5-7,10.9-7,13.7c0,0.9,0.1,2.8,0.1,3.7c0,2.6-0.7,5.9-4.3,5.9c-2.1,0-3.5-1.4-3.5-3.3v-0.3
		C36.2,444.8,36.2,443.3,36.2,441.1z"/>
	<path class="st1" d="M63.6,444.7c-3.6-2.1-5.7-5.5-5.7-10.4c0-2.4,1.1-6.1,1.7-9c0.7-2.4,5.1-9.5,10.1-9.5c0.5,0,1,0.2,1.5,0.5
		c3.1,2,6.9,2.4,9.8,4.8c1.2,1,1.7,2.6,2.4,3.9c0.6,1.1,0.6,2.2,0.6,3.5v1.6c-0.1,3.4-1.6,6.3-3.3,9c-1.7,2.9-6,8.1-9.8,8.1
		c-0.6,0-1.2-0.1-1.8-0.1h-0.5C66.6,447,65.3,445.7,63.6,444.7z M71.1,422.7c-4.3,0-6.4,7.8-6.4,12.1c0,0.9,0.5,6.1,3.1,6.1
		c1.2,0,2.1-0.4,3.3-1c3.6-2.2,5-7.8,5.5-12.2v-0.4C76.6,424,73.8,422.7,71.1,422.7z"/>
	<path class="st1" d="M113.3,428.3c-2.7-11.2-5.4-19.7-8.1-25.6c0.7-1.4,1.3-2.1,1.8-2.1c0.4-0.2,0.9-0.4,1.3-0.4
		c0.8,0,2.4,0.8,4.6,2.5c2.1,4.7,3.9,10.3,5.6,16.6c1.6,5.8,3.5,14.7,4.8,20.7c1.2-8.3,3.7-17,5.8-24c2.4-7.4,4.9-14,7.4-19.7
		c0.6-1.1,1.5-1.6,2.9-1.6c0.4,0,0.8-0.1,1.4,0.2c0.2,0.1,0.6,0.3,0.8,0.7c0.7,0.7,2,0.2,2,1.7c0,0.4-0.2,0.9-0.4,1.7
		c-2.2,4.1-5.2,11.6-9.2,22.6c-1.2,3.1-2.6,8.5-4.3,16.1c-1.6,7.3-2.9,12.6-4.3,16.3c-0.5,0.6-1.1,0.8-1.7,0.8c-0.7,0-1.7-0.4-3-1.2
		C118.6,448.4,116.2,440.2,113.3,428.3z"/>
	<path class="st1" d="M154.3,447.4c-3.7,0-6.5-0.9-6.5-7.2c0-1.9-0.6-3.7-0.6-5.6c0-5.6-1-10.4-1-16c0-1.2,0.5-2.1,1.4-2.6
		c1.1-0.3,2-0.4,3.2-0.7c1.6,0.4,2.2,1.4,2.8,2.2c-0.1,1.1-0.2,2.2-0.2,3.4c0,8.4,2,19.7,2.4,23.4v0.3
		C155.9,445.5,155.5,446.2,154.3,447.4z M150.1,397.6c2.2,0,5,1.7,5,3.7c0,2.1-1.1,2.6-3,2.6c-2.5,0-5.2-1.7-5.2-2.7
		c0-1.3,0-2.2,1.7-3.2C148.8,397.7,149.3,397.6,150.1,397.6z"/>
	<path class="st1" d="M163.2,441.1c0-4.2-0.2-10.2-0.2-10.7v-2.7c0-2.4-0.2-4.9-0.3-7.3v-0.3c0-1-0.7-1.9-0.7-3c0.4-1.4,1-2.2,3-2.2
		c3.8,0,4,3.1,4.2,5.5l0.2,4.4c2.2-1.7,4.9-7.5,7.9-9.9c0.4-0.2,1-0.3,1.7-0.3c2.6,0,4.1,0.9,5,3.1c-0.4,2-4.4,5.1-6.4,8
		c-3.2,3.5-7,10.9-7,13.7c0,0.9,0.1,2.8,0.1,3.7c0,2.6-0.7,5.9-4.3,5.9c-2.1,0-3.5-1.4-3.5-3.3v-0.3
		C163.2,444.8,163.2,443.3,163.2,441.1z"/>
	<path class="st1" d="M195.1,391.8c0.9-0.4,1.2-0.7,2.2-0.7c3.7,0,4.4,2.9,4.4,5.3c0,2.3,0.2,3.9,0.2,5.5c0,1.7-0.1,3.5-0.1,5.2
		c0,1.2-0.1,2.6-0.1,4c0,0.7-0.1,1.3,0.8,1.3c2.9,0,4.6-1.4,7.5-1.4c1.6,0,2,1.5,2,2.7c0,2.9-2.9,3-5,3.6c-2,0.9-6,1.3-6,4.1
		c0,0.7,0.1,1.4,0.1,2.1c0,0.7-0.1,1.4-0.1,2.2c0,5,0.8,10.5,1.7,15.5c0.3,1.6,0.9,3.1,0.9,4.5c0,1.9-1.2,2.6-2.4,3
		c-0.6,0.1-0.9,0.2-1,0.2c-1.6,0-2.8-1.2-3.7-2.7c-0.6-1.6-1-4.6-1.1-6.8c-0.3-5.4-0.4-10.8-0.5-16.1c0-0.4,0-0.8-0.2-1.2
		c-2,0.3-3.1,1.2-4.8,1.2c-2.2,0-3.8-1.9-4.6-2.8c0-0.6,0.2-1.4,0.4-2.3c2.9-1.1,4.6-0.6,7.5-2.2c1.7,0,1.7-1.8,1.7-2.8
		c0-2-0.1-2.9-0.1-5.5c0-1.7-0.1-3.4-0.1-5v-8.5C194.8,393.3,194.9,392.5,195.1,391.8z"/>
	<path class="st1" d="M214.5,415c0.1-0.2,0.7-0.5,1.3-0.7c0.3-0.1,0.7-0.2,1.2-0.3c1.7,0.2,4,1.3,4,3.4c0,1.7-0.5,2.9-0.5,4.8
		c0,3.2-0.4,4.6-0.4,6.2c0,5.3,0.4,10.1,0.7,12.4c3.6-0.4,8.9-12.7,11.2-19.5c0.8-2.8-1-6.1,4.5-6.1c0.1,0,0.2,0.1,0.3,0.1
		c0.9,0,2.3,1.1,2.9,2c0,6.5-0.6,9.8-0.6,12.4c0,5.3,0.7,9.1,2.3,11.4c0.7,0.7,1.2,1.4,1.7,2.4c-0.5,2.3-2.1,2.1-3.6,2.5
		c-4.9-1.1-5.7-6-6.4-11.3l-0.3,0.7c-1.7,3.7-6,13.7-12,13.7c-6.3,0-7.4-4.8-7.4-18c0.2-1.6,0.2-3.1,0.2-4.6v-2.9
		C213.5,420.4,213.6,417.7,214.5,415z"/>
	<path class="st1" d="M276,447.8c0,1.7-2.2,2.2-3.5,2.2c-4.4,0-5.4-11.3-6.5-18c-0.7,4.7-7.9,15.4-14.6,15.4c-5.4,0-6.4-4.6-6.4-8
		c0-7.2,7.9-23.7,17.1-23.7c2.1,0,5.3,1.4,7.1,2.8c1.9,1.6,2.3,4.4,2.6,7.3c0.7,5.5,0.9,9.6,2.2,14.6l0.5,3.1l0.6,1.7
		C275.6,446,276,446.9,276,447.8z M252,441c2.7-0.2,8.2-8.2,9.7-12.5c0.8-2,2.7-5.2,2.7-6.7c-0.6-0.2-0.9-0.5-1.5-0.5
		c-4.8,0-7.6,8.8-8.3,9.9c-1.6,2.7-2.7,6.1-2.7,9.1v0.4C251.9,440.8,252,440.9,252,441z"/>
	<path class="st1" d="M291.2,446.3c0,1.7-1.8,2.6-3.4,2.6c-5.5,0-6.3-14.1-6.3-18c0-5.4-0.1-9.3-0.1-13.9c0-6,0.9-11.7,0.9-18
		c0-1.4,0.7-2.2,1.8-3.1c1.8,0,5.4,0.2,5.4,3.1c0,2.9-0.8,5.8-0.8,8.7c0,4.2-0.1,7.4-0.1,10.7c0,2.9,0.2,5.4,0.2,8
		c0,1.9,0.1,3.6,0.1,5.1c0,4.3,1.2,10.2,2.2,14.1C291,445.9,291.2,446,291.2,446.3z"/>
</g>
<g class="st0">
	<path class="st2" d="M-98.2,448.7c-0.6-3.6-0.8-7.6-0.8-12c0-2.9,0.2-7.3,0.5-13.1c0.3-5.8,0.5-10.2,0.5-13.2
		c0-4.3-0.2-8.3-0.7-11.8c-0.1,0-0.2,0.1-0.2,0.1c-0.3,0-0.7-0.3-1-0.9c-0.4-0.7-0.7-1.2-1-1.2c0.2-1.7,0.7-2.6,1.4-2.6
		c0.6-0.1,1.1-0.2,1.6-0.2c0.9,0,2.2,0.1,3.6,0.3c7.2,1.2,12.6,4.3,16.2,9.4c1.2,1.7,1.7,3.6,1.7,5.6c0,2-0.4,3.9-1.3,5.7
		c-2.1,4.6-3.9,7.5-5.4,9l-3.8,3.8c-1.6,1.2-3.2,2.1-4.8,2.3c-0.2,0.9-0.3,2.2-0.3,3.9c0,1.1,0.1,2.6,0.2,4.8
		c0.2,2.1,0.2,3.6,0.2,4.6c0,3.7-0.9,6.5-2.6,8.4l-0.6-0.3l-1.7-0.9C-97.6,449.9-98.1,449.3-98.2,448.7z M-86,403.3
		c-0.4-0.2-0.9-0.3-1.5-0.6c-1-0.4-2.5-0.9-4.5-1.8c0.4,7.6,0.7,13.3,0.7,17.5c0,1.6,0,2.7-0.1,3.8c4.9-4.6,7.6-9.2,8.2-13.7v-0.7
		C-83.2,405.8-84.1,404.3-86,403.3z"/>
	<path class="st2" d="M-46.9,444.7c0,1.7-2.2,2.2-3.5,2.2c-4.4,0-5.4-11.3-6.5-18c-0.7,4.7-7.9,15.4-14.6,15.4c-5.4,0-6.4-4.6-6.4-8
		c0-7.2,7.9-23.7,17.1-23.7c2.1,0,5.3,1.4,7.1,2.8c1.9,1.6,2.3,4.4,2.6,7.3c0.7,5.5,0.9,9.6,2.2,14.6l0.5,3.1l0.6,1.7
		C-47.3,442.9-46.9,443.8-46.9,444.7z M-70.9,437.9c2.7-0.2,8.2-8.2,9.7-12.5c0.8-2,2.7-5.2,2.7-6.7c-0.6-0.2-0.9-0.5-1.5-0.5
		c-4.8,0-7.6,8.8-8.3,9.9c-1.6,2.7-2.7,6.1-2.7,9.1v0.4C-71,437.8-70.9,437.8-70.9,437.9z"/>
	<path class="st2" d="M-31.7,425.3l0.2-0.5c1.3-3.6,5.5-11.3,9.9-11.3c3.6,1.1,3.3,5.1,4.6,7.9c2.9,6.4,2.2,15.1,4.9,21.3
		c-0.2,1.7-2.4,2.6-3.7,2.6c-4.1,0-3.9-7-4.8-10.1c-1.1-3.7-1.2-10.1-3.3-12.7c-3.7,6-4.2,10.2-6.9,14.8c-3.6,6.4-5.6,6.5-7.7,6.5
		c-1.1,0-3.2-1.2-3.2-2.8c0-6.9,0.1-12.5,0.1-19.1c0-1.9-0.2-3.8-0.2-5.7c0-1.3,0.4-2.7,1.7-3.3c0.7,0,1.3-0.1,1.9-0.1
		c2.9,0,3.1,3.9,3.1,5.7c0,1.2,0.4,2.2,0.4,3.5c0,4.1-0.2,6.7-0.2,9.3v0.4C-33.3,430.2-32.6,427.5-31.7,425.3z"/>
	<path class="st2" d="M4.5,412.4c5.7,0,8.6,3.8,8.6,7.7c0,5-3.8,9.8-10.4,10.1c-1.4,0.1-2.4-0.2-3.8-0.6c-0.1,0.6-0.1,0.9-0.1,1.2
		c0.2,8.1,5.5,8.8,6.4,8.8c3.4,0,5.3-1.8,8-3.7c0.6,0.2,1.2,0.4,1.8,1.2c0.1,0.7,0.2,0.9,0.2,1.7c-0.1,1.6-0.9,2.6-1.8,3.3
		c-2.9,2.4-4.9,2.9-8.9,2.9c-1.7,0-4.8-0.9-6.5-1.8c-5.2-3.9-5.7-8-6-13.3C-7.9,421.5-3.7,412.4,4.5,412.4z M1.4,425.4
		c3.7,0,5.9-2.2,5.9-4.8c0-1.6-0.9-3.1-2.5-3.1c-1.1,0-2.2,0.1-2.8,1c-0.8,1.1-2.3,2-2.7,6.8C-0.3,425.4,0.8,425.4,1.4,425.4z"/>
	<path class="st2" d="M27.2,444.4c-3.7,0-6.5-0.9-6.5-7.2c0-1.9-0.6-3.7-0.6-5.6c0-5.6-1-10.4-1-16c0-1.2,0.5-2.1,1.4-2.6
		c1.1-0.3,2-0.4,3.2-0.7c1.6,0.4,2.2,1.4,2.8,2.2c-0.1,1.1-0.2,2.2-0.2,3.4c0,8.4,2,19.7,2.4,23.4v0.3
		C28.8,442.4,28.5,443.1,27.2,444.4z M23,394.5c2.2,0,5,1.7,5,3.7c0,2.1-1.1,2.6-3,2.6c-2.5,0-5.2-1.7-5.2-2.7c0-1.3,0-2.2,1.7-3.2
		C21.8,394.7,22.3,394.5,23,394.5z"/>
	<path class="st2" d="M36.2,438c0-4.2-0.2-10.2-0.2-10.7v-2.7c0-2.4-0.2-4.9-0.3-7.3V417c0-1-0.7-1.9-0.7-3c0.4-1.4,1-2.2,3-2.2
		c3.8,0,4,3.1,4.2,5.5l0.2,4.4c2.2-1.7,4.9-7.5,7.9-9.9c0.4-0.2,1-0.3,1.7-0.3c2.6,0,4.1,0.9,5,3.1c-0.4,2-4.4,5.1-6.4,8
		c-3.2,3.5-7,10.9-7,13.7c0,0.9,0.1,2.8,0.1,3.7c0,2.6-0.7,5.9-4.3,5.9c-2.1,0-3.5-1.4-3.5-3.3v-0.3C36.2,441.7,36.2,440.2,36.2,438
		z"/>
	<path class="st2" d="M63.6,441.7c-3.6-2.1-5.7-5.5-5.7-10.4c0-2.4,1.1-6.1,1.7-9c0.7-2.4,5.1-9.5,10.1-9.5c0.5,0,1,0.2,1.5,0.5
		c3.1,2,6.9,2.4,9.8,4.8c1.2,1,1.7,2.6,2.4,3.9c0.6,1.1,0.6,2.2,0.6,3.5v1.6c-0.1,3.4-1.6,6.3-3.3,9c-1.7,2.9-6,8.1-9.8,8.1
		c-0.6,0-1.2-0.1-1.8-0.1h-0.5C66.6,444,65.3,442.6,63.6,441.7z M71.1,419.6c-4.3,0-6.4,7.8-6.4,12.1c0,0.9,0.5,6.1,3.1,6.1
		c1.2,0,2.1-0.4,3.3-1c3.6-2.2,5-7.8,5.5-12.2v-0.4C76.6,421,73.8,419.6,71.1,419.6z"/>
	<path class="st2" d="M113.3,425.3c-2.7-11.2-5.4-19.7-8.1-25.6c0.7-1.4,1.3-2.1,1.8-2.1c0.4-0.2,0.9-0.4,1.3-0.4
		c0.8,0,2.4,0.8,4.6,2.5c2.1,4.7,3.9,10.3,5.6,16.6c1.6,5.8,3.5,14.7,4.8,20.7c1.2-8.3,3.7-17,5.8-24c2.4-7.4,4.9-14,7.4-19.7
		c0.6-1.1,1.5-1.6,2.9-1.6c0.4,0,0.8-0.1,1.4,0.2c0.2,0.1,0.6,0.3,0.8,0.7c0.7,0.7,2,0.2,2,1.7c0,0.4-0.2,0.9-0.4,1.7
		c-2.2,4.1-5.2,11.6-9.2,22.6c-1.2,3.1-2.6,8.5-4.3,16.1c-1.6,7.3-2.9,12.6-4.3,16.3c-0.5,0.6-1.1,0.8-1.7,0.8c-0.7,0-1.7-0.4-3-1.2
		C118.6,445.3,116.2,437.2,113.3,425.3z"/>
	<path class="st2" d="M154.3,444.4c-3.7,0-6.5-0.9-6.5-7.2c0-1.9-0.6-3.7-0.6-5.6c0-5.6-1-10.4-1-16c0-1.2,0.5-2.1,1.4-2.6
		c1.1-0.3,2-0.4,3.2-0.7c1.6,0.4,2.2,1.4,2.8,2.2c-0.1,1.1-0.2,2.2-0.2,3.4c0,8.4,2,19.7,2.4,23.4v0.3
		C155.9,442.4,155.5,443.1,154.3,444.4z M150.1,394.5c2.2,0,5,1.7,5,3.7c0,2.1-1.1,2.6-3,2.6c-2.5,0-5.2-1.7-5.2-2.7
		c0-1.3,0-2.2,1.7-3.2C148.8,394.7,149.3,394.5,150.1,394.5z"/>
	<path class="st2" d="M163.2,438c0-4.2-0.2-10.2-0.2-10.7v-2.7c0-2.4-0.2-4.9-0.3-7.3V417c0-1-0.7-1.9-0.7-3c0.4-1.4,1-2.2,3-2.2
		c3.8,0,4,3.1,4.2,5.5l0.2,4.4c2.2-1.7,4.9-7.5,7.9-9.9c0.4-0.2,1-0.3,1.7-0.3c2.6,0,4.1,0.9,5,3.1c-0.4,2-4.4,5.1-6.4,8
		c-3.2,3.5-7,10.9-7,13.7c0,0.9,0.1,2.8,0.1,3.7c0,2.6-0.7,5.9-4.3,5.9c-2.1,0-3.5-1.4-3.5-3.3v-0.3
		C163.2,441.7,163.2,440.2,163.2,438z"/>
	<path class="st2" d="M195.1,388.7c0.9-0.4,1.2-0.7,2.2-0.7c3.7,0,4.4,2.9,4.4,5.3c0,2.3,0.2,3.9,0.2,5.5c0,1.7-0.1,3.5-0.1,5.2
		c0,1.2-0.1,2.6-0.1,4c0,0.7-0.1,1.3,0.8,1.3c2.9,0,4.6-1.4,7.5-1.4c1.6,0,2,1.5,2,2.7c0,2.9-2.9,3-5,3.6c-2,0.9-6,1.3-6,4.1
		c0,0.7,0.1,1.4,0.1,2.1c0,0.7-0.1,1.4-0.1,2.2c0,5,0.8,10.5,1.7,15.5c0.3,1.6,0.9,3.1,0.9,4.5c0,1.9-1.2,2.6-2.4,3
		c-0.6,0.1-0.9,0.2-1,0.2c-1.6,0-2.8-1.2-3.7-2.7c-0.6-1.6-1-4.6-1.1-6.8c-0.3-5.4-0.4-10.8-0.5-16.1c0-0.4,0-0.8-0.2-1.2
		c-2,0.3-3.1,1.2-4.8,1.2c-2.2,0-3.8-1.9-4.6-2.8c0-0.6,0.2-1.4,0.4-2.3c2.9-1.1,4.6-0.6,7.5-2.2c1.7,0,1.7-1.8,1.7-2.8
		c0-2-0.1-2.9-0.1-5.5c0-1.7-0.1-3.4-0.1-5v-8.5C194.8,390.2,194.9,389.4,195.1,388.7z"/>
	<path class="st2" d="M214.5,412c0.1-0.2,0.7-0.5,1.3-0.7c0.3-0.1,0.7-0.2,1.2-0.3c1.7,0.2,4,1.3,4,3.4c0,1.7-0.5,2.9-0.5,4.8
		c0,3.2-0.4,4.6-0.4,6.2c0,5.3,0.4,10.1,0.7,12.4c3.6-0.4,8.9-12.7,11.2-19.5c0.8-2.8-1-6.1,4.5-6.1c0.1,0,0.2,0.1,0.3,0.1
		c0.9,0,2.3,1.1,2.9,2c0,6.5-0.6,9.8-0.6,12.4c0,5.3,0.7,9.1,2.3,11.4c0.7,0.7,1.2,1.4,1.7,2.4c-0.5,2.3-2.1,2.1-3.6,2.5
		c-4.9-1.1-5.7-6-6.4-11.3l-0.3,0.7c-1.7,3.7-6,13.7-12,13.7c-6.3,0-7.4-4.8-7.4-18c0.2-1.6,0.2-3.1,0.2-4.6v-2.9
		C213.5,417.3,213.6,414.6,214.5,412z"/>
	<path class="st2" d="M276,444.7c0,1.7-2.2,2.2-3.5,2.2c-4.4,0-5.4-11.3-6.5-18c-0.7,4.7-7.9,15.4-14.6,15.4c-5.4,0-6.4-4.6-6.4-8
		c0-7.2,7.9-23.7,17.1-23.7c2.1,0,5.3,1.4,7.1,2.8c1.9,1.6,2.3,4.4,2.6,7.3c0.7,5.5,0.9,9.6,2.2,14.6l0.5,3.1l0.6,1.7
		C275.6,442.9,276,443.8,276,444.7z M252,437.9c2.7-0.2,8.2-8.2,9.7-12.5c0.8-2,2.7-5.2,2.7-6.7c-0.6-0.2-0.9-0.5-1.5-0.5
		c-4.8,0-7.6,8.8-8.3,9.9c-1.6,2.7-2.7,6.1-2.7,9.1v0.4C251.9,437.8,252,437.8,252,437.9z"/>
	<path class="st2" d="M291.2,443.2c0,1.7-1.8,2.6-3.4,2.6c-5.5,0-6.3-14.1-6.3-18c0-5.4-0.1-9.3-0.1-13.9c0-6,0.9-11.7,0.9-18
		c0-1.4,0.7-2.2,1.8-3.1c1.8,0,5.4,0.2,5.4,3.1c0,2.9-0.8,5.8-0.8,8.7c0,4.2-0.1,7.4-0.1,10.7c0,2.9,0.2,5.4,0.2,8
		c0,1.9,0.1,3.6,0.1,5.1c0,4.3,1.2,10.2,2.2,14.1C291,442.8,291.2,443,291.2,443.2z"/>
</g>
</svg>
