<svg xmlns="http://www.w3.org/2000/svg" viewBox="0 0 392.04794 63.866009" width="392.048" height="63.866"><g font-size="82.728" font-family="Verveine"><g fill="#cc9b60"><path d="M4.385 62.542l1.737.91.58.33c1.736-1.9 2.646-4.714 2.646-8.437 0-.993-.082-2.565-.248-4.633-.165-2.15-.248-3.723-.248-4.798 0-1.655.083-2.978.33-3.888 1.573-.248 3.227-1.076 4.8-2.317l3.805-3.806c1.49-1.49 3.31-4.467 5.377-9.017.91-1.82 1.323-3.723 1.323-5.71 0-2.067-.58-3.97-1.737-5.624-3.64-5.13-9.017-8.273-16.214-9.43-1.407-.25-2.648-.332-3.558-.332-.496 0-.993.084-1.572.166-.66 0-1.158.91-1.406 2.648.248.082.58.496.993 1.24.33.58.662.91.992.91.083 0 .166-.082.25-.082.495 3.557.743 7.528.743 11.83 0 2.978-.165 7.363-.496 13.154-.33 5.79-.497 10.175-.497 13.07 0 4.385.25 8.44.828 11.996.082.662.58 1.24 1.572 1.82zm13.402-42.687v.662c-.58 4.55-3.31 9.1-8.19 13.732.082-1.076.082-2.234.082-3.806 0-4.22-.25-9.927-.663-17.538 1.986.91 3.475 1.406 4.468 1.82.58.248 1.075.413 1.49.58 1.9 1.074 2.81 2.563 2.81 4.55zM53.322 54.02l-.58-1.653-.495-3.06c-1.24-4.965-1.407-9.018-2.15-14.56-.332-2.897-.746-5.71-2.65-7.28-1.82-1.408-5.045-2.814-7.113-2.814-9.266 0-17.125 16.546-17.125 23.743 0 3.392.992 8.024 6.37 8.024 6.617 0 13.897-10.67 14.56-15.387 1.075 6.618 2.067 17.952 6.452 17.952 1.24 0 3.475-.58 3.475-2.234 0-.91-.414-1.82-.745-2.73zm-23.33-4.3v-.414c0-2.978 1.16-6.37 2.73-9.1.663-1.158 3.475-9.928 8.274-9.928.58 0 .91.25 1.49.497 0 1.49-1.904 4.715-2.73 6.7-1.49 4.303-6.95 12.245-9.68 12.493 0-.083-.083-.166-.083-.248zM66.008 43.763v-.414c0-2.648.165-5.295.165-9.35 0-1.24-.413-2.232-.413-3.473 0-1.82-.166-5.71-3.06-5.71-.58 0-1.242.084-1.904.084-1.24.58-1.655 1.987-1.655 3.31 0 1.903.167 3.806.167 5.708 0 6.62-.083 12.16-.083 19.11 0 1.572 2.15 2.813 3.227 2.813 2.07 0 4.137-.164 7.694-6.534 2.648-4.633 3.144-8.852 6.867-14.808 2.152 2.647 2.234 9.017 3.31 12.74.91 3.143.744 10.092 4.798 10.092 1.324 0 3.475-.827 3.723-2.564-2.646-6.205-1.985-14.89-4.88-21.26-1.324-2.814-.993-6.868-4.633-7.943-4.467 0-8.604 7.61-9.927 11.25l-.166.497c-.91 2.234-1.654 4.88-3.226 6.453zM92.96 41.778c.247 5.294.744 9.43 5.956 13.32 1.737.91 4.798 1.82 6.535 1.82 3.972 0 5.957-.498 8.853-2.897.91-.743 1.737-1.736 1.82-3.308 0-.744-.165-.992-.248-1.654-.58-.745-1.24-.91-1.82-1.158-2.73 1.902-4.633 3.722-8.025 3.722-.827 0-6.122-.662-6.37-8.77 0-.247 0-.578.083-1.157 1.406.414 2.4.662 3.805.58 6.62-.25 10.424-5.047 10.424-10.094 0-3.887-2.895-7.693-8.604-7.693-8.19 0-12.41 9.018-12.41 17.29zm7.196-4.468c.414-4.798 1.903-5.708 2.73-6.783.58-.91 1.738-.993 2.813-.993 1.57 0 2.48 1.572 2.48 3.144 0 2.647-2.15 4.798-5.873 4.798-.58 0-1.737-.083-2.15-.166zM122.35 6.95c-1.738.992-1.738 1.902-1.738 3.226 0 .992 2.73 2.73 5.212 2.73 1.903 0 2.978-.58 2.978-2.648 0-1.985-2.73-3.722-4.963-3.722-.746 0-1.242.165-1.49.413zm7.28 46.575v-.33c-.414-3.724-2.4-14.975-2.4-23.413 0-1.24.083-2.316.166-3.392-.662-.744-1.24-1.737-2.813-2.15-1.24.247-2.15.33-3.226.66-.91.58-1.407 1.49-1.407 2.648 0 5.626.993 10.424.993 16.05 0 1.902.58 3.722.58 5.625 0 6.287 2.812 7.197 6.535 7.197 1.24-1.24 1.572-1.985 1.572-2.895zM136.778 54.352v.33c0 1.904 1.406 3.31 3.474 3.31 3.558 0 4.302-3.226 4.302-5.873 0-.91-.082-2.814-.082-3.724 0-2.813 3.805-10.258 7.03-13.733 1.987-2.895 5.958-6.04 6.37-8.025-.91-2.233-2.398-3.143-5.045-3.143-.662 0-1.24.082-1.654.33-3.06 2.4-5.79 8.19-7.942 9.928l-.248-4.385c-.248-2.4-.413-5.542-4.22-5.542-1.984 0-2.563.827-2.977 2.233 0 1.075.662 1.985.662 2.978v.33c.083 2.4.33 4.88.33 7.28v2.73c0 .497.25 6.453.25 10.672 0 2.234 0 3.723-.25 4.302zM169.378 56.007h.496c.662 0 1.24.083 1.82.083 3.888 0 8.108-5.212 9.845-8.108 1.736-2.73 3.225-5.625 3.308-9.017v-1.572c0-1.24 0-2.4-.58-3.475-.66-1.323-1.157-2.895-2.398-3.888-2.896-2.4-6.7-2.813-9.762-4.798-.497-.33-.993-.496-1.49-.496-4.963 0-9.43 7.114-10.092 9.513-.662 2.895-1.737 6.618-1.737 9.017 0 4.963 2.067 8.355 5.707 10.423 1.654.993 2.978 2.317 4.88 2.317zm8.107-19.772v.413c-.413 4.468-1.82 10.01-5.46 12.244-1.24.58-2.068.993-3.31.993-2.646 0-3.143-5.212-3.143-6.122 0-4.302 2.07-12.078 6.37-12.078 2.73 0 5.543 1.323 5.543 4.55zM221.747 62.625c1.24.827 2.234 1.24 2.978 1.24.662 0 1.24-.247 1.738-.826 1.406-3.724 2.73-9.02 4.302-16.3 1.654-7.61 3.06-12.987 4.3-16.13 3.972-11.003 7.033-18.532 9.184-22.585.247-.745.413-1.24.413-1.655 0-1.572-1.324-1.075-1.986-1.737-.248-.33-.58-.58-.827-.662-.58-.247-.993-.165-1.406-.165-1.407 0-2.317.497-2.896 1.572-2.564 5.71-5.046 12.244-7.445 19.69-2.068 6.95-4.55 15.718-5.79 23.99-1.325-5.956-3.228-14.89-4.8-20.68-1.737-6.37-3.557-11.914-5.625-16.63-2.234-1.654-3.805-2.48-4.633-2.48-.413 0-.91.164-1.323.412-.497 0-1.076.66-1.82 2.067 2.73 5.874 5.377 14.395 8.107 25.563 2.894 11.913 5.294 20.02 7.527 25.315zM249.512 6.95c-1.738.992-1.738 1.902-1.738 3.226 0 .992 2.73 2.73 5.212 2.73 1.903 0 2.978-.58 2.978-2.648 0-1.985-2.73-3.722-4.963-3.722-.744 0-1.24.165-1.488.413zm7.28 46.575v-.33c-.414-3.724-2.4-14.975-2.4-23.413 0-1.24.083-2.316.166-3.392-.662-.744-1.24-1.737-2.813-2.15-1.24.247-2.15.33-3.226.66-.91.58-1.408 1.49-1.408 2.648 0 5.626.993 10.424.993 16.05 0 1.902.58 3.722.58 5.625 0 6.287 2.812 7.197 6.535 7.197 1.24-1.24 1.572-1.985 1.572-2.895zM263.94 54.352v.33c0 1.904 1.406 3.31 3.474 3.31 3.558 0 4.302-3.226 4.302-5.873 0-.91-.082-2.814-.082-3.724 0-2.813 3.805-10.258 7.03-13.733 1.987-2.895 5.958-6.04 6.37-8.025-.91-2.233-2.398-3.143-5.045-3.143-.663 0-1.242.082-1.656.33-3.06 2.4-5.79 8.19-7.94 9.928l-.25-4.385c-.248-2.4-.413-5.542-4.22-5.542-1.984 0-2.563.827-2.977 2.233 0 1.075.662 1.985.662 2.978v.33c.082 2.4.33 4.88.33 7.28v2.73c0 .497.248 6.453.248 10.672 0 2.234 0 3.723-.248 4.302zM295.737 2.895v8.52c0 1.656.083 3.393.083 5.048 0 2.564.082 3.474.082 5.46 0 .993 0 2.813-1.737 2.813-2.895 1.57-4.633 1.075-7.528 2.15-.248.91-.414 1.738-.414 2.317.745.91 2.317 2.813 4.55 2.813 1.738 0 2.813-.91 4.8-1.24.247.412.247.826.247 1.24.082 5.377.165 10.754.496 16.132.083 2.233.496 5.212 1.076 6.783.91 1.573 2.15 2.73 3.722 2.73.083 0 .414-.08.993-.164 1.24-.33 2.4-1.076 2.4-2.978 0-1.324-.58-2.896-.91-4.468-.91-4.963-1.738-10.506-1.738-15.47 0-.744.082-1.49.082-2.15 0-.662-.083-1.324-.083-2.07 0-2.73 3.97-3.142 5.955-4.053 2.15-.66 5.047-.744 5.047-3.64 0-1.24-.414-2.73-1.986-2.73-2.895 0-4.633 1.407-7.528 1.407-.91 0-.827-.662-.827-1.324 0-1.406.083-2.73.083-3.97 0-1.738.083-3.475.083-5.213 0-1.654-.165-3.226-.165-5.542 0-2.4-.66-5.295-4.384-5.295-.91 0-1.24.33-2.15.745-.166.744-.25 1.49-.25 2.15zM314.423 32.347v2.895c0 1.572.083 3.06-.165 4.633 0 13.154 1.158 17.952 7.445 17.952 6.04 0 10.26-9.927 11.996-13.65l.33-.662c.662 5.295 1.49 10.258 6.37 11.334 1.572-.415 3.144-.167 3.64-2.483-.414-.993-.993-1.655-1.655-2.4-1.654-2.316-2.316-6.12-2.316-11.416 0-2.646.578-5.872.578-12.408-.58-.91-1.985-1.985-2.895-1.985-.083 0-.25-.083-.33-.083-5.544 0-3.724 3.31-4.55 6.122-2.235 6.866-7.53 19.11-11.17 19.524-.248-2.317-.66-7.115-.66-12.41 0-1.57.412-2.978.412-6.204 0-1.903.497-3.06.497-4.798 0-2.07-2.234-3.144-3.97-3.392-.58.082-.91.248-1.242.33-.662.25-1.24.497-1.324.745-.91 2.648-.993 5.378-.993 8.357zM376.155 54.02l-.58-1.653-.495-3.06c-1.24-4.965-1.407-9.018-2.15-14.56-.332-2.897-.746-5.71-2.65-7.28-1.82-1.408-5.045-2.814-7.113-2.814-9.266 0-17.125 16.546-17.125 23.743 0 3.392.993 8.024 6.37 8.024 6.618 0 13.9-10.67 14.56-15.387 1.076 6.618 2.07 17.952 6.453 17.952 1.24 0 3.475-.58 3.475-2.234 0-.91-.414-1.82-.745-2.73zm-23.33-4.3v-.414c0-2.978 1.16-6.37 2.73-9.1.663-1.158 3.475-9.928 8.274-9.928.578 0 .91.25 1.488.497 0 1.49-1.903 4.715-2.73 6.7-1.49 4.303-6.95 12.245-9.68 12.493 0-.083-.082-.166-.082-.248zM391.883 54.6c-.993-3.97-2.15-9.844-2.15-14.146 0-1.572-.084-3.226-.084-5.13 0-2.646-.167-5.128-.167-8.024 0-3.31.083-6.453.083-10.672 0-2.895.827-5.79.827-8.686 0-2.813-3.557-3.06-5.377-3.06-1.075.91-1.82 1.654-1.82 3.06 0 6.287-.91 11.913-.91 17.952 0 4.633.083 8.52.083 13.898 0 3.888.743 18.035 6.286 18.035 1.572 0 3.392-.827 3.392-2.565 0-.248-.166-.413-.166-.662z"/></g><g fill="#fff"><path d="M4.385 59.48l1.737.91.58.332c1.736-1.903 2.647-4.716 2.647-8.438 0-.993-.084-2.565-.25-4.633-.165-2.15-.248-3.722-.248-4.797 0-1.655.083-2.98.33-3.89 1.573-.247 3.227-1.074 4.8-2.315l3.805-3.806c1.49-1.49 3.31-4.467 5.377-9.017.91-1.82 1.324-3.723 1.324-5.708 0-2.068-.58-3.97-1.738-5.626-3.64-5.128-9.017-8.27-16.214-9.43-1.407-.248-2.648-.33-3.558-.33-.496 0-.992.082-1.57.165-.663 0-1.16.91-1.408 2.647.248.083.58.497.993 1.24.33.58.662.91.993.91.082 0 .165-.082.248-.082.496 3.558.744 7.53.744 11.83 0 2.98-.165 7.363-.496 13.154-.33 5.79-.496 10.176-.496 13.07 0 4.386.248 8.44.827 11.997.083.663.58 1.242 1.572 1.82zm13.402-42.687v.662c-.58 4.55-3.31 9.1-8.19 13.733.082-1.076.082-2.234.082-3.806 0-4.22-.25-9.927-.662-17.538 1.985.91 3.474 1.406 4.467 1.82.58.248 1.075.414 1.49.58 1.902 1.075 2.812 2.564 2.812 4.55zM53.322 50.96l-.58-1.655-.495-3.06c-1.24-4.964-1.407-9.018-2.15-14.56-.332-2.896-.746-5.71-2.648-7.28-1.82-1.407-5.048-2.814-7.116-2.814-9.266 0-17.125 16.547-17.125 23.744 0 3.392.992 8.025 6.37 8.025 6.618 0 13.898-10.673 14.56-15.388 1.075 6.618 2.068 17.952 6.452 17.952 1.24 0 3.475-.58 3.475-2.234 0-.91-.414-1.82-.745-2.73zm-23.33-4.302v-.414c0-2.978 1.16-6.37 2.73-9.1.663-1.158 3.476-9.927 8.274-9.927.58 0 .91.248 1.49.496 0 1.49-1.904 4.716-2.73 6.7-1.49 4.303-6.95 12.245-9.68 12.493 0-.082-.083-.165-.083-.248zM66.008 40.702v-.414c0-2.647.166-5.295.166-9.348 0-1.24-.414-2.234-.414-3.475 0-1.82-.166-5.708-3.06-5.708-.58 0-1.242.083-1.904.083-1.24.58-1.654 1.985-1.654 3.31 0 1.9.165 3.804.165 5.707 0 6.618-.083 12.16-.083 19.11 0 1.572 2.15 2.813 3.227 2.813 2.07 0 4.137-.166 7.695-6.536 2.647-4.632 3.143-8.852 6.866-14.808 2.152 2.647 2.235 9.017 3.31 12.74.91 3.144.745 10.093 4.798 10.093 1.324 0 3.475-.828 3.723-2.566-2.646-6.204-1.984-14.89-4.88-21.26-1.324-2.813-.993-6.867-4.633-7.943-4.467 0-8.603 7.612-9.927 11.252l-.165.497c-.91 2.232-1.655 4.88-3.227 6.452zM92.96 38.716c.248 5.295.744 9.43 5.956 13.32 1.737.91 4.798 1.82 6.535 1.82 3.972 0 5.958-.497 8.853-2.896.91-.745 1.737-1.737 1.82-3.31 0-.744-.165-.992-.248-1.654-.58-.744-1.24-.91-1.82-1.158-2.73 1.903-4.633 3.723-8.025 3.723-.827 0-6.12-.66-6.37-8.768 0-.25 0-.58.083-1.16 1.406.415 2.4.663 3.806.58 6.617-.248 10.422-5.046 10.422-10.092 0-3.89-2.895-7.694-8.603-7.694-8.192 0-12.41 9.017-12.41 17.29zm7.197-4.467c.413-4.8 1.902-5.71 2.73-6.785.58-.91 1.737-.993 2.812-.993 1.57 0 2.48 1.572 2.48 3.144 0 2.647-2.15 4.798-5.872 4.798-.58 0-1.738-.082-2.15-.165zM122.35 3.888c-1.738.992-1.738 1.902-1.738 3.226 0 .993 2.73 2.73 5.212 2.73 1.903 0 2.98-.58 2.98-2.647 0-1.986-2.73-3.723-4.965-3.723-.746 0-1.242.165-1.49.414zm7.28 46.576v-.33c-.414-3.724-2.4-14.975-2.4-23.413 0-1.24.083-2.316.166-3.39-.662-.746-1.24-1.74-2.813-2.152-1.24.248-2.15.33-3.226.662-.91.58-1.406 1.49-1.406 2.647 0 5.625.993 10.424.993 16.05 0 1.902.58 3.722.58 5.625 0 6.287 2.812 7.197 6.535 7.197 1.24-1.242 1.572-1.986 1.572-2.896zM136.778 51.29v.332c0 1.902 1.406 3.31 3.475 3.31 3.557 0 4.3-3.228 4.3-5.875 0-.91-.08-2.813-.08-3.723 0-2.812 3.804-10.258 7.03-13.732 1.986-2.896 5.957-6.04 6.37-8.025-.91-2.234-2.398-3.144-5.046-3.144-.662 0-1.24.083-1.654.33-3.06 2.4-5.79 8.19-7.942 9.93l-.247-4.386c-.248-2.4-.414-5.543-4.22-5.543-1.985 0-2.564.827-2.978 2.234 0 1.075.662 1.985.662 2.978v.33c.083 2.4.33 4.882.33 7.28v2.73c0 .497.25 6.454.25 10.673 0 2.233 0 3.722-.25 4.3zM169.378 52.945h.496c.662 0 1.24.083 1.82.083 3.89 0 8.108-5.212 9.845-8.107 1.736-2.73 3.225-5.625 3.308-9.017v-1.57c0-1.242 0-2.4-.58-3.476-.66-1.324-1.157-2.896-2.398-3.888-2.896-2.4-6.7-2.814-9.762-4.8-.496-.33-.993-.496-1.49-.496-4.963 0-9.43 7.115-10.092 9.514-.662 2.895-1.737 6.618-1.737 9.017 0 4.964 2.067 8.356 5.707 10.424 1.655.992 2.978 2.315 4.88 2.315zm8.107-19.772v.414c-.413 4.467-1.82 10.01-5.46 12.244-1.24.58-2.068.993-3.31.993-2.646 0-3.142-5.21-3.142-6.12 0-4.303 2.068-12.08 6.37-12.08 2.73 0 5.542 1.324 5.542 4.55zM221.747 59.564c1.24.827 2.234 1.24 2.98 1.24.66 0 1.24-.248 1.736-.827 1.406-3.723 2.73-9.017 4.302-16.297 1.654-7.61 3.06-12.988 4.302-16.132 3.97-11.003 7.032-18.53 9.182-22.585.248-.744.413-1.24.413-1.654 0-1.573-1.324-1.077-1.985-1.74-.25-.33-.58-.578-.828-.66-.58-.25-.992-.166-1.406-.166-1.406 0-2.316.496-2.895 1.572-2.566 5.708-5.048 12.244-7.447 19.69-2.068 6.948-4.55 15.717-5.79 23.99-1.325-5.956-3.227-14.89-4.8-20.682-1.736-6.37-3.556-11.913-5.625-16.628-2.233-1.655-3.805-2.482-4.632-2.482-.414 0-.91.165-1.324.414-.496 0-1.076.662-1.82 2.068 2.73 5.874 5.377 14.395 8.107 25.563 2.895 11.912 5.294 20.02 7.527 25.314zM249.512 3.888c-1.738.992-1.738 1.902-1.738 3.226 0 .993 2.73 2.73 5.212 2.73 1.903 0 2.98-.58 2.98-2.647 0-1.986-2.73-3.723-4.965-3.723-.744 0-1.24.165-1.488.414zm7.28 46.576v-.33c-.414-3.724-2.4-14.975-2.4-23.413 0-1.24.083-2.316.166-3.39-.662-.746-1.24-1.74-2.813-2.152-1.24.248-2.15.33-3.226.662-.91.58-1.407 1.49-1.407 2.647 0 5.625.992 10.424.992 16.05 0 1.902.58 3.722.58 5.625 0 6.287 2.812 7.197 6.535 7.197 1.24-1.242 1.572-1.986 1.572-2.896zM263.94 51.29v.332c0 1.902 1.406 3.31 3.475 3.31 3.557 0 4.3-3.228 4.3-5.875 0-.91-.08-2.813-.08-3.723 0-2.812 3.804-10.258 7.03-13.732 1.986-2.896 5.957-6.04 6.37-8.025-.91-2.234-2.398-3.144-5.046-3.144-.663 0-1.242.083-1.655.33-3.06 2.4-5.79 8.19-7.942 9.93l-.248-4.386c-.25-2.4-.414-5.543-4.22-5.543-1.985 0-2.564.827-2.978 2.234 0 1.075.662 1.985.662 2.978v.33c.082 2.4.33 4.882.33 7.28v2.73c0 .497.248 6.454.248 10.673 0 2.233 0 3.722-.248 4.3zM295.737-.166v8.52c0 1.656.083 3.393.083 5.047 0 2.566.083 3.476.083 5.46 0 .994 0 2.814-1.738 2.814-2.895 1.572-4.632 1.076-7.528 2.15-.248.91-.413 1.738-.413 2.317.744.91 2.316 2.814 4.55 2.814 1.737 0 2.812-.91 4.798-1.24.248.413.248.827.248 1.24.083 5.378.165 10.755.496 16.132.083 2.234.497 5.212 1.076 6.784.91 1.572 2.15 2.73 3.723 2.73.082 0 .413-.083.992-.166 1.24-.33 2.4-1.075 2.4-2.978 0-1.323-.58-2.895-.91-4.467-.91-4.965-1.738-10.508-1.738-15.47 0-.746.082-1.49.082-2.152 0-.662-.083-1.324-.083-2.068 0-2.73 3.97-3.144 5.956-4.054 2.15-.662 5.046-.745 5.046-3.64 0-1.24-.414-2.73-1.986-2.73-2.895 0-4.632 1.406-7.528 1.406-.91 0-.827-.66-.827-1.323 0-1.408.084-2.73.084-3.972 0-1.738.082-3.475.082-5.212 0-1.655-.165-3.227-.165-5.543 0-2.4-.66-5.294-4.384-5.294-.91 0-1.24.33-2.15.743-.166.745-.25 1.49-.25 2.15zM314.424 29.285v2.896c0 1.572.082 3.062-.166 4.633 0 13.154 1.158 17.952 7.446 17.952 6.04 0 10.258-9.927 11.995-13.65l.33-.662c.662 5.295 1.49 10.26 6.37 11.334 1.572-.413 3.144-.165 3.64-2.482-.414-.992-.993-1.654-1.654-2.4-1.655-2.315-2.317-6.12-2.317-11.415 0-2.648.578-5.874.578-12.41-.58-.91-1.985-1.985-2.895-1.985-.083 0-.248-.083-.33-.083-5.544 0-3.724 3.31-4.55 6.122-2.235 6.867-7.53 19.11-11.17 19.524-.248-2.316-.66-7.115-.66-12.41 0-1.57.412-2.977.412-6.204 0-1.902.497-3.06.497-4.798 0-2.068-2.234-3.144-3.97-3.392-.58.083-.91.248-1.242.33-.662.25-1.24.497-1.324.746-.91 2.647-.992 5.377-.992 8.355zM376.155 50.96l-.58-1.655-.495-3.06c-1.24-4.964-1.406-9.018-2.15-14.56-.332-2.896-.746-5.71-2.648-7.28-1.82-1.407-5.047-2.814-7.115-2.814-9.265 0-17.125 16.547-17.125 23.744 0 3.392.993 8.025 6.37 8.025 6.62 0 13.9-10.673 14.56-15.388 1.076 6.618 2.07 17.952 6.453 17.952 1.24 0 3.475-.58 3.475-2.234 0-.91-.414-1.82-.745-2.73zm-23.33-4.302v-.414c0-2.978 1.16-6.37 2.73-9.1.663-1.158 3.476-9.927 8.274-9.927.578 0 .91.248 1.488.496 0 1.49-1.903 4.716-2.73 6.7-1.49 4.303-6.95 12.245-9.68 12.493 0-.082-.082-.165-.082-.248zM391.883 51.54c-.993-3.972-2.15-9.846-2.15-14.148 0-1.57-.084-3.226-.084-5.13 0-2.646-.166-5.128-.166-8.023 0-3.31.082-6.454.082-10.673 0-2.896.828-5.79.828-8.687 0-2.812-3.558-3.06-5.378-3.06-1.075.91-1.82 1.654-1.82 3.06 0 6.288-.91 11.913-.91 17.952 0 4.633.083 8.52.083 13.9 0 3.887.744 18.033 6.286 18.033 1.572 0 3.392-.827 3.392-2.564 0-.247-.165-.413-.165-.66z"/></g></g></svg>